<svg width="334" height="37" viewBox="0 0 334 37" fill="none" xmlns="http://www.w3.org/2000/svg">
<path d="M0.354922 29.5449V1.68092H3.77492V26.6649H18.9669V29.5449H0.354922ZM31.1684 30.0129C28.1684 30.0129 25.7804 29.0529 24.0044 27.1329C22.2524 25.2129 21.3764 22.6209 21.3764 19.3569C21.3764 16.2129 22.2644 13.6449 24.0404 11.6529C25.8164 9.66092 28.1084 8.66492 30.9164 8.66492C32.6204 8.66492 34.1204 9.06092 35.4164 9.85292C36.7124 10.6209 37.7204 11.7249 38.4404 13.1649C38.8964 14.0769 39.2324 15.1089 39.4484 16.2609C39.6884 17.3889 39.8084 18.6249 39.8084 19.9689H24.7244C24.8204 22.2009 25.4444 23.9769 26.5964 25.2969C27.7724 26.5929 29.3204 27.2409 31.2404 27.2409C32.7524 27.2409 33.9884 26.8809 34.9484 26.1609C35.9324 25.4409 36.7244 24.3129 37.3244 22.7769L40.0964 23.7489C39.3284 25.7649 38.1764 27.3129 36.6404 28.3929C35.1044 29.4729 33.2804 30.0129 31.1684 30.0129ZM35.7404 14.4969C35.2844 13.5129 34.6364 12.7569 33.7964 12.2289C32.9564 11.6769 31.9844 11.4009 30.8804 11.4009C29.1764 11.4009 27.7844 11.9649 26.7044 13.0929C25.6244 14.1969 24.9884 15.7209 24.7964 17.6649H36.4244C36.4004 16.9929 36.3284 16.4169 36.2084 15.9369C36.1124 15.4329 35.9564 14.9529 35.7404 14.4969ZM52.1165 27.1689C52.6685 27.1689 53.1605 27.1449 53.5925 27.0969C54.0485 27.0489 54.4805 26.9649 54.8885 26.8449V29.4369C54.3125 29.6289 53.7485 29.7609 53.1965 29.8329C52.6445 29.9289 52.0205 29.9769 51.3245 29.9769C49.3085 29.9769 47.8085 29.4729 46.8245 28.4649C45.8645 27.4569 45.3845 25.8969 45.3845 23.7849V11.6889H41.1365V9.09692H45.4205V4.77692L48.6605 3.15692V9.09692H54.9245V11.6889H48.6605V23.3889C48.6605 24.7569 48.9245 25.7289 49.4525 26.3049C49.9805 26.8809 50.8685 27.1689 52.1165 27.1689ZM66.0524 27.2409C67.5404 27.2409 68.7044 26.9289 69.5444 26.3049C70.3844 25.6809 70.8044 24.8169 70.8044 23.7129C70.8044 22.9449 70.5404 22.3689 70.0124 21.9849C69.5084 21.6009 68.2484 21.2289 66.2324 20.8689C64.0724 20.5089 62.4884 20.1609 61.4804 19.8249C60.4964 19.4889 59.7404 19.0569 59.2124 18.5289C58.7564 18.0969 58.4204 17.5809 58.2044 16.9809C57.9884 16.3809 57.8804 15.6849 57.8804 14.8929C57.8804 13.0449 58.5644 11.5449 59.9324 10.3929C61.3244 9.24092 63.1244 8.66492 65.3324 8.66492C67.5404 8.66492 69.3644 9.20492 70.8044 10.2849C72.2684 11.3649 73.1924 12.8889 73.5764 14.8569L70.6604 15.5409C70.3964 14.1489 69.8084 13.0929 68.8964 12.3729C67.9844 11.6529 66.7964 11.2929 65.3324 11.2929C63.9884 11.2929 62.9324 11.5929 62.1644 12.1929C61.3964 12.7929 61.0124 13.6089 61.0124 14.6409C61.0124 15.5049 61.3244 16.1649 61.9484 16.6209C62.5724 17.0769 63.7724 17.4609 65.5484 17.7729C68.2844 18.2769 70.0364 18.6729 70.8044 18.9609C71.5724 19.2249 72.2084 19.5969 72.7124 20.0769C73.1204 20.4609 73.4324 20.9529 73.6484 21.5529C73.8644 22.1529 73.9724 22.8129 73.9724 23.5329C73.9724 25.4529 73.2404 27.0009 71.7764 28.1769C70.3124 29.3529 68.3804 29.9409 65.9804 29.9409C63.3644 29.9409 61.2644 29.4009 59.6804 28.3209C58.0964 27.2169 57.1004 25.6329 56.6924 23.5689L59.7884 22.8489C60.1244 24.3369 60.8084 25.4409 61.8404 26.1609C62.8724 26.8809 64.2764 27.2409 66.0524 27.2409ZM105.166 29.5449H101.602L96.5981 13.3089L91.7741 29.5449H88.1741L82.5581 9.09692H85.9781L90.1901 25.9809L95.3021 9.09692H98.0381L103.402 26.0529L107.434 9.09692H110.674L105.166 29.5449ZM122.041 30.0129C119.113 30.0129 116.797 29.0649 115.093 27.1689C113.389 25.2729 112.537 22.6689 112.537 19.3569C112.537 16.1169 113.413 13.5249 115.165 11.5809C116.917 9.63692 119.245 8.66492 122.149 8.66492C125.053 8.66492 127.357 9.61292 129.061 11.5089C130.765 13.4049 131.617 15.9849 131.617 19.2489C131.617 22.6089 130.765 25.2489 129.061 27.1689C127.357 29.0649 125.017 30.0129 122.041 30.0129ZM122.113 27.1689C124.105 27.1689 125.629 26.4969 126.685 25.1529C127.741 23.8089 128.269 21.8649 128.269 19.3209C128.269 16.8489 127.729 14.9289 126.649 13.5609C125.569 12.1689 124.069 11.4729 122.149 11.4729C120.157 11.4729 118.621 12.1449 117.541 13.4889C116.461 14.8329 115.921 16.7529 115.921 19.2489C115.921 21.7689 116.461 23.7249 117.541 25.1169C118.621 26.4849 120.145 27.1689 122.113 27.1689ZM145.056 8.77292C146.616 8.77292 147.816 9.28892 148.656 10.3209C149.496 11.3289 149.916 12.7689 149.916 14.6409C149.916 15.0969 149.88 15.6009 149.808 16.1529C149.76 16.6809 149.688 17.1489 149.592 17.5569L146.496 17.9529C146.592 17.5209 146.664 17.0289 146.712 16.4769C146.784 15.9009 146.82 15.4209 146.82 15.0369C146.82 13.7649 146.568 12.8049 146.064 12.1569C145.56 11.4849 144.828 11.1489 143.868 11.1489C142.452 11.1489 141.324 11.8929 140.484 13.3809C139.668 14.8449 139.26 16.8369 139.26 19.3569V29.5449H135.948V9.09692H139.188V13.5609H139.26C139.812 12.0249 140.58 10.8489 141.564 10.0329C142.572 9.19292 143.736 8.77292 145.056 8.77292ZM171.452 29.5449H167.78L160.976 18.2049L156.908 22.2729V29.5449H153.596V0.20492H156.908V18.9609L166.52 9.09692H170.444L163.388 16.4049L171.452 29.5449ZM189.402 27.1689C189.954 27.1689 190.446 27.1449 190.878 27.0969C191.334 27.0489 191.766 26.9649 192.174 26.8449V29.4369C191.598 29.6289 191.034 29.7609 190.482 29.8329C189.93 29.9289 189.306 29.9769 188.61 29.9769C186.594 29.9769 185.094 29.4729 184.11 28.4649C183.15 27.4569 182.67 25.8969 182.67 23.7849V11.6889H178.422V9.09692H182.706V4.77692L185.946 3.15692V9.09692H192.21V11.6889H185.946V23.3889C185.946 24.7569 186.21 25.7289 186.738 26.3049C187.266 26.8809 188.154 27.1689 189.402 27.1689ZM204.166 30.0129C201.238 30.0129 198.922 29.0649 197.218 27.1689C195.514 25.2729 194.662 22.6689 194.662 19.3569C194.662 16.1169 195.538 13.5249 197.29 11.5809C199.042 9.63692 201.37 8.66492 204.274 8.66492C207.178 8.66492 209.482 9.61292 211.186 11.5089C212.89 13.4049 213.742 15.9849 213.742 19.2489C213.742 22.6089 212.89 25.2489 211.186 27.1689C209.482 29.0649 207.142 30.0129 204.166 30.0129ZM204.238 27.1689C206.23 27.1689 207.754 26.4969 208.81 25.1529C209.866 23.8089 210.394 21.8649 210.394 19.3209C210.394 16.8489 209.854 14.9289 208.774 13.5609C207.694 12.1689 206.194 11.4729 204.274 11.4729C202.282 11.4729 200.746 12.1449 199.666 13.4889C198.586 14.8329 198.046 16.7529 198.046 19.2489C198.046 21.7689 198.586 23.7249 199.666 25.1169C200.746 26.4849 202.27 27.1689 204.238 27.1689ZM225.885 36.6729C222.621 36.6729 220.137 36.2649 218.433 35.4489C216.729 34.6329 215.877 33.4449 215.877 31.8849C215.877 30.9249 216.225 30.1209 216.921 29.4729C217.641 28.8249 218.685 28.3569 220.053 28.0689V27.9969C219.141 27.7329 218.445 27.3489 217.965 26.8449C217.509 26.3409 217.281 25.7169 217.281 24.9729C217.281 24.1809 217.545 23.4729 218.073 22.8489C218.601 22.2249 219.345 21.7209 220.305 21.3369V21.3009C219.417 20.7009 218.745 19.9449 218.289 19.0329C217.833 18.1209 217.605 17.1009 217.605 15.9729C217.605 13.8129 218.361 12.0609 219.873 10.7169C221.385 9.34892 223.341 8.66492 225.741 8.66492C226.797 8.66492 227.781 8.80892 228.693 9.09692C229.629 9.38492 230.445 9.80492 231.141 10.3569L233.877 6.28892L236.217 8.26892L232.185 11.3289C232.689 11.9049 233.061 12.5649 233.301 13.3089C233.565 14.0289 233.697 14.8089 233.697 15.6489C233.697 17.8329 232.989 19.5609 231.573 20.8329C230.157 22.1049 228.237 22.7409 225.813 22.7409C224.997 22.7409 224.217 22.6809 223.473 22.5609C222.753 22.4169 222.081 22.2009 221.457 21.9129C220.977 22.1049 220.605 22.3689 220.341 22.7049C220.101 23.0409 219.981 23.4009 219.981 23.7849C219.981 24.3849 220.221 24.8289 220.701 25.1169C221.205 25.4049 221.985 25.5489 223.041 25.5489H231.105C233.001 25.5489 234.429 25.9089 235.389 26.6289C236.349 27.3489 236.829 28.4169 236.829 29.8329C236.829 31.9929 235.869 33.6729 233.949 34.8729C232.029 36.0729 229.341 36.6729 225.885 36.6729ZM220.917 15.9009C220.917 17.2449 221.337 18.3009 222.177 19.0689C223.041 19.8129 224.241 20.1849 225.777 20.1849C227.289 20.1849 228.441 19.7889 229.233 18.9969C230.025 18.1809 230.421 17.0169 230.421 15.5049C230.421 14.1849 230.001 13.1409 229.161 12.3729C228.321 11.6049 227.181 11.2209 225.741 11.2209C224.229 11.2209 223.041 11.6409 222.177 12.4809C221.337 13.2969 220.917 14.4369 220.917 15.9009ZM233.697 30.4809C233.697 29.7609 233.457 29.2569 232.977 28.9689C232.521 28.6569 231.729 28.5009 230.601 28.5009H223.545C222.033 28.5009 220.905 28.7289 220.161 29.1849C219.441 29.6169 219.081 30.2769 219.081 31.1649C219.081 32.1489 219.669 32.8929 220.845 33.3969C222.045 33.9249 223.797 34.1889 226.101 34.1889C228.477 34.1889 230.337 33.8529 231.681 33.1809C233.025 32.5329 233.697 31.6329 233.697 30.4809ZM247.872 30.0129C244.872 30.0129 242.484 29.0529 240.708 27.1329C238.956 25.2129 238.08 22.6209 238.08 19.3569C238.08 16.2129 238.968 13.6449 240.744 11.6529C242.52 9.66092 244.812 8.66492 247.62 8.66492C249.324 8.66492 250.824 9.06092 252.12 9.85292C253.416 10.6209 254.424 11.7249 255.144 13.1649C255.6 14.0769 255.936 15.1089 256.152 16.2609C256.392 17.3889 256.512 18.6249 256.512 19.9689H241.428C241.524 22.2009 242.148 23.9769 243.3 25.2969C244.476 26.5929 246.024 27.2409 247.944 27.2409C249.456 27.2409 250.692 26.8809 251.652 26.1609C252.636 25.4409 253.428 24.3129 254.028 22.7769L256.8 23.7489C256.032 25.7649 254.88 27.3129 253.344 28.3929C251.808 29.4729 249.984 30.0129 247.872 30.0129ZM252.444 14.4969C251.988 13.5129 251.34 12.7569 250.5 12.2289C249.66 11.6769 248.688 11.4009 247.584 11.4009C245.88 11.4009 244.488 11.9649 243.408 13.0929C242.328 14.1969 241.692 15.7209 241.5 17.6649H253.128C253.104 16.9929 253.032 16.4169 252.912 15.9369C252.816 15.4329 252.66 14.9529 252.444 14.4969ZM268.82 27.1689C269.372 27.1689 269.864 27.1449 270.296 27.0969C270.752 27.0489 271.184 26.9649 271.592 26.8449V29.4369C271.016 29.6289 270.452 29.7609 269.9 29.8329C269.348 29.9289 268.724 29.9769 268.028 29.9769C266.012 29.9769 264.512 29.4729 263.528 28.4649C262.568 27.4569 262.088 25.8969 262.088 23.7849V11.6889H257.84V9.09692H262.124V4.77692L265.364 3.15692V9.09692H271.628V11.6889H265.364V23.3889C265.364 24.7569 265.628 25.7289 266.156 26.3049C266.684 26.8809 267.572 27.1689 268.82 27.1689ZM275.448 29.5449V0.20492H278.76V13.6689H278.832C279.552 12.0849 280.536 10.8609 281.784 9.99692C283.056 9.10892 284.484 8.66492 286.068 8.66492C288.348 8.66492 290.088 9.37292 291.288 10.7889C292.488 12.2049 293.088 14.2689 293.088 16.9809V29.5449H289.812V17.8089C289.812 15.5769 289.416 13.9569 288.624 12.9489C287.856 11.9409 286.608 11.4369 284.88 11.4369C282.984 11.4369 281.484 12.1569 280.38 13.5969C279.3 15.0369 278.76 17.0169 278.76 19.5369V29.5449H275.448ZM306.969 30.0129C303.969 30.0129 301.581 29.0529 299.805 27.1329C298.053 25.2129 297.177 22.6209 297.177 19.3569C297.177 16.2129 298.065 13.6449 299.841 11.6529C301.617 9.66092 303.909 8.66492 306.717 8.66492C308.421 8.66492 309.921 9.06092 311.217 9.85292C312.513 10.6209 313.521 11.7249 314.241 13.1649C314.697 14.0769 315.033 15.1089 315.249 16.2609C315.489 17.3889 315.609 18.6249 315.609 19.9689H300.525C300.621 22.2009 301.245 23.9769 302.397 25.2969C303.573 26.5929 305.121 27.2409 307.041 27.2409C308.553 27.2409 309.789 26.8809 310.749 26.1609C311.733 25.4409 312.525 24.3129 313.125 22.7769L315.897 23.7489C315.129 25.7649 313.977 27.3129 312.441 28.3929C310.905 29.4729 309.081 30.0129 306.969 30.0129ZM311.541 14.4969C311.085 13.5129 310.437 12.7569 309.597 12.2289C308.757 11.6769 307.785 11.4009 306.681 11.4009C304.977 11.4009 303.585 11.9649 302.505 13.0929C301.425 14.1969 300.789 15.7209 300.597 17.6649H312.225C312.201 16.9929 312.129 16.4169 312.009 15.9369C311.913 15.4329 311.757 14.9529 311.541 14.4969ZM328.817 8.77292C330.377 8.77292 331.577 9.28892 332.417 10.3209C333.257 11.3289 333.677 12.7689 333.677 14.6409C333.677 15.0969 333.641 15.6009 333.569 16.1529C333.521 16.6809 333.449 17.1489 333.353 17.5569L330.257 17.9529C330.353 17.5209 330.425 17.0289 330.473 16.4769C330.545 15.9009 330.581 15.4209 330.581 15.0369C330.581 13.7649 330.329 12.8049 329.825 12.1569C329.321 11.4849 328.589 11.1489 327.629 11.1489C326.213 11.1489 325.085 11.8929 324.245 13.3809C323.429 14.8449 323.021 16.8369 323.021 19.3569V29.5449H319.709V9.09692H322.949V13.5609H323.021C323.573 12.0249 324.341 10.8489 325.325 10.0329C326.333 9.19292 327.497 8.77292 328.817 8.77292Z" fill="white"/>
</svg>
