<svg width="132" height="65" viewBox="0 0 132 65" fill="none" xmlns="http://www.w3.org/2000/svg">
<rect x="119.711" y="39.9819" width="4.09476" height="4.09476" transform="rotate(180 119.711 39.9819)" fill="white"/>
<rect x="123.804" y="39.9819" width="4.09476" height="4.09476" transform="rotate(180 123.804 39.9819)" fill="white"/>
<rect x="127.901" y="39.9819" width="4.09476" height="4.09476" transform="rotate(180 127.901 39.9819)" fill="white"/>
<rect x="115.617" y="39.9819" width="4.09476" height="4.09476" transform="rotate(180 115.617 39.9819)" fill="white"/>
<rect x="111.522" y="39.9819" width="4.09476" height="4.09476" transform="rotate(180 111.522 39.9819)" fill="white"/>
<rect x="107.427" y="39.9819" width="4.09476" height="4.09476" transform="rotate(180 107.427 39.9819)" fill="white"/>
<rect x="103.332" y="39.9819" width="4.09476" height="4.09476" transform="rotate(180 103.332 39.9819)" fill="white"/>
<rect x="99.2377" y="39.9819" width="4.09476" height="4.09476" transform="rotate(180 99.2377 39.9819)" fill="white"/>
<rect x="95.1427" y="39.9819" width="4.09476" height="4.09476" transform="rotate(180 95.1427 39.9819)" fill="white"/>
<rect x="91.0481" y="39.9819" width="4.09476" height="4.09476" transform="rotate(180 91.0481 39.9819)" fill="white"/>
<rect x="86.9535" y="39.9819" width="4.09476" height="4.09476" transform="rotate(180 86.9535 39.9819)" fill="white"/>
<rect x="82.8585" y="39.9819" width="4.09476" height="4.09476" transform="rotate(180 82.8585 39.9819)" fill="white"/>
<rect x="78.7639" y="39.9819" width="4.09476" height="4.09476" transform="rotate(180 78.7639 39.9819)" fill="white"/>
<rect x="74.6689" y="39.9819" width="4.09476" height="4.09476" transform="rotate(180 74.6689 39.9819)" fill="white"/>
<rect x="70.5743" y="39.9819" width="4.09476" height="4.09476" transform="rotate(180 70.5743 39.9819)" fill="white"/>
<rect x="66.4796" y="39.9819" width="4.09476" height="4.09476" transform="rotate(180 66.4796 39.9819)" fill="white"/>
<rect x="62.3849" y="39.9819" width="4.09476" height="4.09476" transform="rotate(180 62.3849 39.9819)" fill="white"/>
<rect x="58.2901" y="39.9819" width="4.09476" height="4.09476" transform="rotate(180 58.2901 39.9819)" fill="white"/>
<rect x="119.712" y="64.5505" width="4.09476" height="4.09476" transform="rotate(180 119.712 64.5505)" fill="white"/>
<rect x="123.805" y="64.5505" width="4.09476" height="4.09476" transform="rotate(180 123.805 64.5505)" fill="white"/>
<rect x="127.901" y="64.5505" width="4.09476" height="4.09476" transform="rotate(180 127.901 64.5505)" fill="white"/>
<rect x="115.617" y="64.5505" width="4.09476" height="4.09476" transform="rotate(180 115.617 64.5505)" fill="white"/>
<rect x="111.523" y="64.5505" width="4.09476" height="4.09476" transform="rotate(180 111.523 64.5505)" fill="white"/>
<rect x="107.428" y="64.5505" width="4.09476" height="4.09476" transform="rotate(180 107.428 64.5505)" fill="white"/>
<rect x="103.333" y="64.5505" width="4.09476" height="4.09476" transform="rotate(180 103.333 64.5505)" fill="white"/>
<rect x="99.2385" y="64.5505" width="4.09476" height="4.09476" transform="rotate(180 99.2385 64.5505)" fill="white"/>
<rect x="95.1437" y="64.5505" width="4.09476" height="4.09476" transform="rotate(180 95.1437 64.5505)" fill="white"/>
<rect x="91.049" y="64.5505" width="4.09476" height="4.09476" transform="rotate(180 91.049 64.5505)" fill="white"/>
<rect x="86.9543" y="64.5505" width="4.09476" height="4.09476" transform="rotate(180 86.9543 64.5505)" fill="white"/>
<rect x="82.8596" y="64.5505" width="4.09476" height="4.09476" transform="rotate(180 82.8596 64.5505)" fill="white"/>
<rect x="78.7648" y="64.5505" width="4.09476" height="4.09476" transform="rotate(180 78.7648 64.5505)" fill="white"/>
<rect x="74.6691" y="64.5505" width="4.09476" height="4.09476" transform="rotate(180 74.6691 64.5505)" fill="white"/>
<rect x="70.5754" y="64.5505" width="4.09476" height="4.09476" transform="rotate(180 70.5754 64.5505)" fill="white"/>
<rect x="66.4807" y="64.5505" width="4.09476" height="4.09476" transform="rotate(180 66.4807 64.5505)" fill="white"/>
<rect x="62.3849" y="64.5505" width="4.09476" height="4.09476" transform="rotate(180 62.3849 64.5505)" fill="white"/>
<rect x="58.2912" y="64.5505" width="4.09476" height="4.09476" transform="rotate(180 58.2912 64.5505)" fill="white"/>
<rect x="54.1955" y="64.5505" width="4.09476" height="4.09476" transform="rotate(180 54.1955 64.5505)" fill="white"/>
<rect x="54.1955" y="39.9819" width="4.09476" height="4.09476" transform="rotate(180 54.1955 39.9819)" fill="white"/>
<rect x="50.0998" y="52.2659" width="4.09476" height="4.09476" transform="rotate(180 50.0998 52.2659)" fill="white"/>
<rect x="50.0998" y="56.3611" width="4.09476" height="4.09476" transform="rotate(180 50.0998 56.3611)" fill="white"/>
<rect x="50.0998" y="60.4558" width="4.09476" height="4.09476" transform="rotate(180 50.0998 60.4558)" fill="white"/>
<rect x="50.1008" y="48.1711" width="4.09476" height="4.09476" transform="rotate(180 50.1008 48.1711)" fill="white"/>
<rect x="50.1008" y="44.0762" width="4.09476" height="4.09476" transform="rotate(180 50.1008 44.0762)" fill="white"/>
<path fill-rule="evenodd" clip-rule="evenodd" d="M127.901 60.4558H131.995V56.3606V55.9722V52.2659V52.2658V48.1711V48.1711V44.4946V44.0764V39.9814H127.901V44.0764V44.4946V48.1711V48.1711V52.2658V52.2659V55.9722V56.3606V60.4558Z" fill="white"/>
<rect x="127.901" y="60.4556" width="77.8023" height="20.4737" transform="rotate(180 127.901 60.4556)" fill="#00BA61"/>
<path d="M3.93262 45.5106V5.24554L4.95631 2.85693L32.9371 30.8378L35.3257 36.6387L27.8187 35.9562L25.4301 40.7334L32.9371 55.0651L34.3021 60.1835L25.4301 62.2309L16.2169 44.4869V36.6387L8.02737 44.4869L3.93262 45.5106Z" fill="#B882FF"/>
<path fill-rule="evenodd" clip-rule="evenodd" d="M0.178711 0.126953H4.20518V2.14038H8.23057V6.16685H4.20518V8.17994V8.1804V12.2064H0.178711V8.1804V8.17994V4.15393H4.2041V4.15342H0.178711V0.126953ZM12.2588 6.16629H8.23234V10.1928H12.2588V6.16629ZM12.2577 10.1933H16.2842V14.2197H12.2577V10.1933ZM20.3108 14.2193H16.2844V18.2457H20.3108V14.2193ZM20.3113 18.2459H24.3378V22.2719H28.3632V26.2984H24.3367V22.2724H20.3113V18.2459ZM28.3652 26.2988H32.3917V30.3253H28.3652V26.2988ZM36.4171 30.3259H32.3906V34.3518H28.3652V34.3519H24.4395V38.3784H28.4659V38.3783H32.3906H32.3917H36.417V38.3784H40.4434V34.3519H36.4171V34.3518V30.3259ZM24.4385 38.3784H28.4649V42.4049L28.4659 42.4049V46.4313H24.4395V42.4049L24.4385 42.4049V38.3784ZM32.4913 46.4315H28.4648V50.4579V50.458V54.4843H32.3906V58.5105V58.5106V60.5238H28.4659H28.4648H24.4395V64.5503H28.4648H28.4659H32.3906V64.5504H36.4171V62.537V60.5239V58.5106V58.5105V54.4841H32.4913V50.458V50.4579V46.4315ZM20.3108 44.4182H16.2844V48.4445V48.4447V52.471H20.3108V48.4447V48.4445V44.4182ZM20.4112 52.4709H24.4377V56.4973H20.4112V52.4709ZM20.4112 56.4978H24.4377V60.5243H20.4112V56.4978ZM4.20518 12.2066H0.178711V16.2329V16.2331V20.2594H4.20518V16.2331V16.2329V12.2066ZM4.20518 20.2596H0.178711V24.2859V24.286V28.3122V28.3124V32.3386V32.3387V36.365H4.20518V32.3387V32.3386V28.3124V28.3122V24.286V24.2859V20.2596ZM4.20518 36.3652H0.178711V40.3912V40.3917V44.4177H4.20518V40.3917V40.3912V36.3652ZM8.23057 44.4182L4.20518 44.4182H0.178711V48.4447L4.2041 48.4447H8.23057V44.4182ZM8.23234 40.3912H12.2577V36.3652H16.2842V40.3912V40.3917V44.4177H12.2588H12.2577H8.23234V40.3912Z" fill="white"/>
<path d="M119.14 52.8623V54.1238H113.427V46.4819H119.031V47.7435H114.919V49.5993H118.146V50.8487H114.919V52.8623H119.14Z" fill="white"/>
<path d="M112.418 54.1238H110.865C110.708 53.9176 110.611 53.396 110.55 52.5469C110.489 51.6857 110.101 51.2975 109.228 51.2975H107.433V54.1238H105.941V46.4819H109.398C111.351 46.4819 112.309 47.3917 112.309 48.8109C112.309 49.9632 111.557 50.6304 110.623 50.7517C111.496 50.9215 111.945 51.431 112.03 52.3286C112.127 53.4567 112.163 53.8448 112.418 54.1238ZM107.433 50.1088H109.191C110.295 50.1088 110.805 49.7449 110.805 48.9201C110.805 48.1559 110.295 47.7071 109.191 47.7071H107.433V50.1088Z" fill="white"/>
<path d="M104.953 50.3029C104.953 52.6562 103.304 54.2694 101.084 54.2694C98.852 54.2694 97.2023 52.6562 97.2023 50.3029C97.2023 47.9497 98.852 46.3364 101.084 46.3364C103.304 46.3364 104.953 47.9497 104.953 50.3029ZM103.389 50.3029C103.389 48.7018 102.491 47.6707 101.084 47.6707C99.6769 47.6707 98.7792 48.7018 98.7792 50.3029C98.7792 51.9041 99.6769 52.9351 101.084 52.9351C102.491 52.9351 103.389 51.9041 103.389 50.3029Z" fill="white"/>
<path d="M92.8054 54.1238H91.5075L89.6394 48.1074H89.5909V54.1238H88.1838V46.4819H90.5734L92.2474 52.0375H92.2838L93.8728 46.4819H96.2139V54.1238H94.6855V48.1074H94.637L92.8054 54.1238Z" fill="white"/>
<path d="M80.8556 46.4819L82.3476 52.1103H82.3961L83.7911 46.4819H85.2467L83.2695 54.1238H81.5956L80.1521 48.6168H80.1036L78.648 54.1238H76.9862L75.009 46.4819H76.5252L77.9323 52.0981H77.9808L79.4607 46.4819H80.8556Z" fill="white"/>
<path d="M74.5415 52.8623V54.1238H68.8283V46.4819H74.4324V47.7435H70.3203V49.5993H73.5469V50.8487H70.3203V52.8623H74.5415Z" fill="white"/>
<path d="M65.9613 46.4819H67.4776V54.1238H65.9613V46.4819Z" fill="white"/>
<path d="M62.2061 54.1238H60.5928L57.5724 46.4819H59.1615L61.4177 52.2801H61.4662L63.6981 46.4819H65.2143L62.2061 54.1238Z" fill="white"/>
</svg>
