<svg width="56" height="25" viewBox="0 0 56 25" fill="none" xmlns="http://www.w3.org/2000/svg">
<path d="M40.8363 1.25219V2.3131L33.6866 0.544922H28.287C27.1634 0.544922 26.0792 0.953568 25.2365 1.69424L24.3055 2.50956H14.7515V1.25219C14.7515 0.86123 14.4353 0.544922 14.0444 0.544922H0.294922V1.96143H13.3373V18.2266H0.294922V19.6432H14.0444C14.4353 19.6432 14.7515 19.3268 14.7515 18.9359V17.6785H16.6254L20.8445 23.6549C21.371 24.2424 22.1016 24.5449 22.8382 24.5449C23.3725 24.5449 23.9087 24.3858 24.3742 24.0577L25.6372 23.1697C25.7119 23.1972 25.7708 23.2522 25.8494 23.2738C26.0792 23.3327 26.311 23.3642 26.5408 23.3642C27.0043 23.3642 27.462 23.2424 27.8725 23.0027L29.5067 22.0597C29.8053 22.1697 30.1137 22.2463 30.4338 22.2463C30.8856 22.2463 31.3452 22.1304 31.7656 21.8887L33.4018 20.9437C33.7003 21.0538 34.0087 21.1304 34.3289 21.1304C34.7807 21.1304 35.2422 21.0145 35.6626 20.7728C36.7665 20.1343 37.1908 18.8278 36.8274 17.6766H40.8383V18.9339C40.8383 19.3249 41.1545 19.6412 41.5454 19.6412H55.2949V18.2266H42.2525V1.95946H55.293V0.544922H41.5434C41.1526 0.544922 40.8363 0.86123 40.8363 1.25219ZM34.9535 19.5488C34.3544 19.8946 33.5805 19.6883 33.2348 19.0891L30.2885 13.985L29.0628 14.6903L32.1466 20.0341L31.0585 20.6608C30.4574 21.0125 29.6874 20.8023 29.3398 20.2031L27.3756 16.8003L26.8845 15.9496L25.6608 16.6549L26.1519 17.5037L28.1161 20.9064L28.12 20.9103L28.2555 21.1441L27.1654 21.7728C26.8786 21.9418 26.5408 21.985 26.2167 21.8986C25.8926 21.8121 25.6235 21.6058 25.4546 21.319L23.4864 17.9103L22.2607 18.6156L24.225 22.0184L24.2289 22.0243L24.3939 22.3092L23.5611 22.8966C23.0405 23.264 22.3275 23.1815 21.9504 22.7709L17.5702 16.5587C17.4366 16.3701 17.2225 16.2581 16.9927 16.2581H14.7515V3.9241H22.687L18.9825 7.16575C18.7075 7.40347 18.5425 7.74924 18.5307 8.11074C18.517 8.47419 18.6564 8.8298 18.9157 9.08716C20.5892 10.761 23.2448 10.9064 25.0912 9.42901L27.0613 7.8514H30.3081L35.4131 17.8278C35.7569 18.431 35.5506 19.2031 34.9535 19.5488ZM36.1949 16.262L31.3688 6.8239C31.247 6.58815 31.0035 6.43883 30.7403 6.43883H26.8118C26.6508 6.43883 26.4956 6.49384 26.3699 6.59404L24.2053 8.32685C22.9227 9.35239 21.0803 9.25416 19.9115 8.23254L26.1676 2.75711C26.7529 2.24237 27.5052 1.96143 28.287 1.96143L33.5157 1.93982L40.8363 3.77086V16.262H36.1949Z" fill="white"/>
</svg>
