<svg width="531" height="267" viewBox="0 0 531 267" fill="none" xmlns="http://www.w3.org/2000/svg">
<rect x="15.8125" y="94.875" width="31.625" height="31.625" fill="#0057FF"/>
<rect x="363.684" y="94.875" width="31.625" height="31.625" fill="#0057FF"/>
<rect x="31.625" y="63.25" width="31.625" height="31.625" fill="#0057FF"/>
<rect x="379.5" y="63.25" width="31.625" height="31.625" fill="#0057FF"/>
<rect x="47.4375" y="31.625" width="31.625" height="31.625" fill="#0057FF"/>
<rect x="395.312" y="31.625" width="31.625" height="31.625" fill="#0057FF"/>
<rect x="31.625" y="126.5" width="31.625" height="31.625" fill="#0057FF"/>
<rect x="379.5" y="126.5" width="31.625" height="31.625" fill="#0057FF"/>
<rect y="126.5" width="31.625" height="31.625" fill="#0057FF"/>
<rect x="347.875" y="126.5" width="31.625" height="31.625" fill="#0057FF"/>
<rect x="63.25" y="126.5" width="31.625" height="31.625" fill="#0057FF"/>
<rect x="411.125" y="126.5" width="31.625" height="31.625" fill="#0057FF"/>
<rect x="94.875" y="158.125" width="31.625" height="31.625" fill="#0057FF"/>
<rect x="442.75" y="158.125" width="31.625" height="31.625" fill="#0057FF"/>
<rect x="94.875" y="126.5" width="31.625" height="31.625" fill="#0057FF"/>
<rect x="126.5" y="126.5" width="31.625" height="31.625" fill="#0057FF"/>
<rect x="474.375" y="126.5" width="31.625" height="31.625" fill="#0057FF"/>
<rect x="442.75" y="126.5" width="31.625" height="31.625" fill="#0057FF"/>
<rect x="94.875" y="94.875" width="31.625" height="31.625" fill="#0057FF"/>
<rect x="442.75" y="94.875" width="31.625" height="31.625" fill="#0057FF"/>
<rect x="94.875" y="63.25" width="31.625" height="31.625" fill="#0057FF"/>
<rect x="442.75" y="63.25" width="31.625" height="31.625" fill="#0057FF"/>
<rect x="94.875" y="31.625" width="31.625" height="31.625" fill="#0057FF"/>
<rect x="442.75" y="31.625" width="31.625" height="31.625" fill="#0057FF"/>
<rect x="94.875" width="31.625" height="31.625" fill="#0057FF"/>
<rect x="442.75" width="31.625" height="31.625" fill="#0057FF"/>
<rect x="79.0625" width="31.625" height="31.625" fill="#0057FF"/>
<rect x="426.938" width="31.625" height="31.625" fill="#0057FF"/>
<rect x="221.375" width="31.625" height="31.625" fill="#0057FF"/>
<rect x="253" width="31.625" height="31.625" fill="#0057FF"/>
<rect x="189.75" y="63.25" width="31.625" height="31.625" fill="#0057FF"/>
<rect x="189.75" y="31.625" width="31.625" height="31.625" fill="#0057FF"/>
<rect x="284.625" y="63.25" width="31.625" height="31.625" fill="#0057FF"/>
<rect x="284.625" y="31.625" width="31.625" height="31.625" fill="#0057FF"/>
<rect x="189.75" y="94.875" width="31.625" height="31.625" fill="#0057FF"/>
<rect x="284.625" y="94.875" width="31.625" height="31.625" fill="#0057FF"/>
<rect x="189.75" y="126.5" width="31.625" height="31.625" fill="#0057FF"/>
<rect x="284.625" y="126.5" width="31.625" height="31.625" fill="#0057FF"/>
<rect x="221.375" y="158.125" width="31.625" height="31.625" fill="#0057FF"/>
<rect x="253" y="158.125" width="31.625" height="31.625" fill="#0057FF"/>
<path d="M12.25 258.602V252.477H6.125V234.102H12.25V227.977H24.5V234.102H30.625V252.477H24.5V258.602H12.25ZM12.25 252.232H24.5V234.347H12.25V252.232ZM44.1 258.602V252.477H37.975V234.102H44.1V227.977H56.35V234.102H62.475V252.477H56.35V258.602H44.1ZM44.1 252.232H56.35V234.347H44.1V252.232ZM69.825 258.602V227.977H88.2V234.102H94.325V240.227H88.2V246.352H75.95V258.602H69.825ZM75.95 240.227H87.955V234.102H75.95V240.227ZM107.8 234.102V227.977H126.175V234.102H107.8ZM120.05 252.477V246.352H107.8V240.227H101.675V234.102H107.8V240.227H120.05V246.352H126.175V252.477H120.05ZM101.675 258.602V252.477H120.05V258.602H101.675ZM165.375 258.602V240.227H159.25V234.102H153.125V227.977H159.25V234.102H165.375V240.227H171.5V258.602H165.375ZM177.625 234.102V227.977H183.75V234.102H177.625ZM171.5 240.227V234.102H177.625V240.227H171.5ZM197.225 258.602V252.477H191.1V234.102H197.225V227.977H209.475V234.102H215.6V252.477H209.475V258.602H197.225ZM197.225 252.232H209.475V234.347H197.225V252.232ZM229.075 258.602V252.477H222.95V227.977H229.075V252.477H241.325V258.602H229.075ZM241.325 252.477V227.977H247.45V252.477H241.325ZM280.525 234.102V227.977H298.9V234.102H280.525ZM274.4 252.477V234.102H280.525V252.477H274.4ZM292.775 252.477V246.352H286.65V240.227H298.9V252.477H292.775ZM280.525 258.602V252.477H292.775V258.602H280.525ZM312.375 258.602V252.477H306.25V234.102H312.375V227.977H324.625V234.102H330.75V252.477H324.625V258.602H312.375ZM312.375 252.232H324.625V234.347H312.375V252.232ZM344.225 258.602V234.102H338.1V227.977H356.475V234.102H350.35V258.602H344.225ZM383.425 258.602V227.977H389.55V252.477H401.8V258.602H383.425ZM415.275 258.602V252.477H409.15V234.102H415.275V227.977H427.525V234.102H433.65V252.477H427.525V258.602H415.275ZM415.275 252.232H427.525V234.347H415.275V252.232ZM447.125 234.102V227.977H465.5V234.102H447.125ZM459.375 252.477V246.352H447.125V240.227H441V234.102H447.125V240.227H459.375V246.352H465.5V252.477H459.375ZM441 258.602V252.477H459.375V258.602H441ZM478.975 258.602V234.102H472.85V227.977H491.225V234.102H485.1V258.602H478.975Z" fill="white"/>
<path d="M498.575 240.227V234.102H504.7V240.227H498.575ZM498.575 252.477V246.352H504.7V252.477H498.575ZM518.175 234.102V227.977H524.3V234.102H518.175ZM518.175 258.602V252.477H512.05V234.102H518.175V252.477H524.3V258.602H518.175Z" fill="#B882FF"/>
</svg>
