<svg width="93" height="80" viewBox="0 0 93 80" fill="none" xmlns="http://www.w3.org/2000/svg">
<path d="M10.4949 75.1459V76.5859H1.51492V63.9859H10.3149V65.4259H3.19492V69.3859H8.85492V70.8059H3.19492V75.1459H10.4949ZM14.052 71.5659V76.5859H12.392V67.8459H14.052V69.4059C14.472 68.3459 15.652 67.6059 16.952 67.6059C19.232 67.6059 20.152 69.1259 20.152 71.1659V76.5859H18.492V71.3059C18.492 69.8459 17.792 68.9259 16.412 68.9259C15.092 68.9259 14.052 69.9659 14.052 71.5659ZM22.6138 74.5459V69.0459H21.2938V68.1459L21.8538 68.0459C22.6738 67.8859 22.8538 67.4859 23.0538 66.6459L23.3138 65.4259H24.2538V67.8459H26.7138V69.0459H24.2538V74.3459C24.2538 75.1259 24.5738 75.4859 25.3338 75.4859C25.8938 75.4859 26.4738 75.2459 26.9738 74.9659V76.0859C26.3338 76.5659 25.6938 76.8259 24.7338 76.8259C23.4938 76.8259 22.6138 76.2459 22.6138 74.5459ZM34.989 73.4859L36.369 73.6459C35.929 75.6259 34.469 76.8259 32.289 76.8259C29.689 76.8259 27.789 75.0659 27.789 72.3459C27.789 69.5859 29.689 67.6059 32.209 67.6059C34.989 67.6059 36.409 69.5859 36.409 71.9659V72.6259H29.449C29.529 74.3259 30.749 75.5259 32.309 75.5259C33.769 75.5259 34.629 74.8259 34.989 73.4859ZM29.489 71.5459H34.709C34.649 70.1459 33.869 68.8659 32.209 68.8659C30.629 68.8659 29.689 70.1059 29.489 71.5459ZM43.5141 68.0059L43.3541 69.5059C42.8741 69.2459 42.5341 69.1459 41.9941 69.1459C40.7341 69.1459 39.7941 70.2859 39.7941 71.9659V76.5859H38.1341V67.8459H39.7941V69.6259C40.1141 68.6259 41.0141 67.6059 42.2741 67.6059C42.8141 67.6059 43.2141 67.7459 43.5141 68.0059ZM46.3752 71.9659V72.4659C46.3752 74.3859 47.5952 75.5059 49.1752 75.5059C50.8952 75.5059 51.8352 74.2259 51.8352 72.2259C51.8352 70.2259 50.8952 68.9459 49.1752 68.9459C47.5952 68.9459 46.3752 70.0659 46.3752 71.9659ZM46.4152 74.7659V79.9459H44.7552V67.8459H46.4152V69.6859C46.7952 68.6059 47.9152 67.6059 49.5552 67.6059C52.1352 67.6059 53.5552 69.6459 53.5552 72.2259C53.5552 74.8059 52.1352 76.8259 49.5552 76.8259C47.9152 76.8259 46.7952 75.8459 46.4152 74.7659ZM60.6626 68.0059L60.5026 69.5059C60.0226 69.2459 59.6826 69.1459 59.1426 69.1459C57.8826 69.1459 56.9426 70.2859 56.9426 71.9659V76.5859H55.2826V67.8459H56.9426V69.6259C57.2626 68.6259 58.1626 67.6059 59.4226 67.6059C59.9626 67.6059 60.3626 67.7459 60.6626 68.0059ZM61.9037 67.8459H63.5637V76.5859H61.9037V67.8459ZM61.8637 65.8659V63.9859H63.5837V65.8659H61.8637ZM65.1895 73.6459L66.5895 73.5459C66.7495 74.8859 67.6895 75.6059 69.1895 75.6059C70.3495 75.6059 71.2095 75.1859 71.2095 74.3059C71.2095 73.4859 70.6295 73.2059 69.5495 73.0059L68.0695 72.7459C66.4295 72.4859 65.4495 71.7859 65.4495 70.2859C65.4495 68.6859 66.7895 67.6059 68.8095 67.6059C71.1295 67.6059 72.4895 68.6859 72.6495 70.7059L71.3095 70.7859C71.1095 69.4459 70.2895 68.8259 68.8095 68.8259C67.7095 68.8259 66.9895 69.3259 66.9895 70.1259C66.9895 70.8259 67.4295 71.1859 68.3295 71.3459L69.9695 71.6059C71.7295 71.9059 72.7695 72.5659 72.7695 74.1459C72.7695 75.8859 71.2295 76.8259 69.1895 76.8259C67.0095 76.8259 65.3495 75.8059 65.1895 73.6459ZM81.1609 73.4859L82.5409 73.6459C82.1009 75.6259 80.6409 76.8259 78.4609 76.8259C75.8609 76.8259 73.9609 75.0659 73.9609 72.3459C73.9609 69.5859 75.8609 67.6059 78.3809 67.6059C81.1609 67.6059 82.5809 69.5859 82.5809 71.9659V72.6259H75.6209C75.7009 74.3259 76.9209 75.5259 78.4809 75.5259C79.9409 75.5259 80.8009 74.8259 81.1609 73.4859ZM75.6609 71.5459H80.8809C80.8209 70.1459 80.0409 68.8659 78.3809 68.8659C76.8009 68.8659 75.8609 70.1059 75.6609 71.5459ZM83.7441 73.6459L85.1441 73.5459C85.3041 74.8859 86.2441 75.6059 87.7441 75.6059C88.9041 75.6059 89.7641 75.1859 89.7641 74.3059C89.7641 73.4859 89.1841 73.2059 88.1041 73.0059L86.6241 72.7459C84.9841 72.4859 84.0041 71.7859 84.0041 70.2859C84.0041 68.6859 85.3441 67.6059 87.3641 67.6059C89.6841 67.6059 91.0441 68.6859 91.2041 70.7059L89.8641 70.7859C89.6641 69.4459 88.8441 68.8259 87.3641 68.8259C86.2641 68.8259 85.5441 69.3259 85.5441 70.1259C85.5441 70.8259 85.9841 71.1859 86.8841 71.3459L88.5241 71.6059C90.2841 71.9059 91.3241 72.5659 91.3241 74.1459C91.3241 75.8859 89.7841 76.8259 87.7441 76.8259C85.5641 76.8259 83.9041 75.8059 83.7441 73.6459Z" fill="#333333"/>
<g clip-path="url(#clip0_3821_12005)">
<path d="M26.4389 14.626H34.5164C33.7139 17.608 33.2549 20.992 33.2549 24.586H34.3349C34.3349 20.971 34.7984 17.5765 35.6024 14.626H43.7549V24.586H44.8349V14.626H52.9874C53.7914 17.5765 54.2549 20.971 54.2549 24.586H55.3364C55.3364 20.992 54.8774 17.608 54.0764 14.626H62.1524C63.8054 17.5765 64.7564 20.971 64.7564 24.586H65.8379C65.8379 12.709 56.1749 3.04596 44.2979 3.04596C32.4209 3.04596 22.7549 12.709 22.7549 24.586H23.8349C23.8349 20.971 24.7859 17.5765 26.4389 14.626ZM35.9219 13.546C37.6034 8.18196 40.4684 4.54596 43.7549 4.18146V13.546H35.9219ZM44.8349 13.546V4.18146C48.1214 4.54596 50.9849 8.18196 52.6679 13.546H44.8349ZM61.4939 13.546H53.7569C52.5014 9.46746 50.5799 6.26646 48.2804 4.52196C53.8139 5.61996 58.5389 8.95896 61.4939 13.546ZM40.3094 4.52196C38.0114 6.26646 36.0884 9.46746 34.8344 13.546H27.0959C30.0509 8.95896 34.7759 5.61996 40.3094 4.52196ZM54.2549 29.086V29.896L48.7949 28.546H44.6714C43.8134 28.546 42.9854 28.858 42.3419 29.4235L41.6309 30.046H34.3349V29.086C34.3349 28.7875 34.0934 28.546 33.7949 28.546H23.2949V29.6275H33.2549V42.046H23.2949V43.1275H33.7949C34.0934 43.1275 34.3349 42.886 34.3349 42.5875V41.6275H35.7659L38.9879 46.1905C39.3899 46.639 39.9479 46.87 40.5104 46.87C40.9184 46.87 41.3279 46.7485 41.6834 46.498L42.6479 45.82C42.7049 45.841 42.7499 45.883 42.8099 45.8995C42.9854 45.9445 43.1624 45.9685 43.3379 45.9685C43.6919 45.9685 44.0414 45.8755 44.3549 45.6925L45.6029 44.9725C45.8309 45.0565 46.0664 45.115 46.3109 45.115C46.6559 45.115 47.0069 45.0265 47.3279 44.842L48.5774 44.1205C48.8054 44.2045 49.0409 44.263 49.2854 44.263C49.6304 44.263 49.9829 44.1745 50.3039 43.99C51.1469 43.5025 51.4709 42.505 51.1934 41.626H54.2564V42.586C54.2564 42.8845 54.4979 43.126 54.7964 43.126H65.2964V42.046H55.3364V29.626H65.2949V28.546H54.7949C54.4964 28.546 54.2549 28.7875 54.2549 29.086ZM49.7624 43.0555C49.3049 43.3195 48.7139 43.162 48.4499 42.7045L46.1999 38.8075L45.2639 39.346L47.6189 43.426L46.7879 43.9045C46.3289 44.173 45.7409 44.0125 45.4754 43.555L43.9754 40.957L43.6004 40.3075L42.6659 40.846L43.0409 41.494L44.5409 44.092L44.5439 44.095L44.6474 44.2735L43.8149 44.7535C43.5959 44.8825 43.3379 44.9155 43.0904 44.8495C42.8429 44.7835 42.6374 44.626 42.5084 44.407L41.0054 41.8045L40.0694 42.343L41.5694 44.941L41.5724 44.9455L41.6984 45.163L41.0624 45.6115C40.6649 45.892 40.1204 45.829 39.8324 45.5155L36.4874 40.7725C36.3854 40.6285 36.2219 40.543 36.0464 40.543H34.3349V31.126H40.3949L37.5659 33.601C37.3559 33.7825 37.2299 34.0465 37.2209 34.3225C37.2104 34.6 37.3169 34.8715 37.5149 35.068C38.7929 36.346 40.8209 36.457 42.2309 35.329L43.7354 34.1245H46.2149L50.1134 41.7415C50.3759 42.202 50.2184 42.7915 49.7624 43.0555ZM50.7104 40.546L47.0249 33.34C46.9319 33.16 46.7459 33.046 46.5449 33.046H43.5449C43.4219 33.046 43.3034 33.088 43.2074 33.1645L41.5544 34.4875C40.5749 35.2705 39.1679 35.1955 38.2754 34.4155L43.0529 30.235C43.4999 29.842 44.0744 29.6275 44.6714 29.6275L48.6644 29.611L54.2549 31.009V40.546H50.7104Z" fill="black"/>
</g>
<defs>
<clipPath id="clip0_3821_12005">
<rect width="48" height="48" fill="white" transform="translate(20.2949 0.585938)"/>
</clipPath>
</defs>
</svg>
