<svg width="49" height="76" viewBox="0 0 49 76" fill="none" xmlns="http://www.w3.org/2000/svg">
<path d="M4.73492 71.0859L6.29492 70.9859C6.39492 73.2859 7.97492 74.4659 10.0949 74.4659C11.9749 74.4659 13.1549 73.6659 13.1549 72.2859C13.1549 71.1259 12.3949 70.5659 10.7549 70.2459L8.25492 69.7659C6.39492 69.4059 5.11492 68.4059 5.11492 66.4459C5.11492 64.2459 6.85492 62.7459 9.61492 62.7459C12.7749 62.7459 14.5949 64.4259 14.6149 67.2659L13.0349 67.3459C12.9749 65.2659 11.7149 64.0859 9.63492 64.0859C7.81492 64.0859 6.79492 64.9459 6.79492 66.3459C6.79492 67.5859 7.61492 67.9859 9.07492 68.2659L11.3549 68.7059C13.6549 69.1459 14.8149 70.1459 14.8149 72.1659C14.8149 74.4859 12.8149 75.8259 10.0949 75.8259C6.99492 75.8259 4.73492 74.1259 4.73492 71.0859ZM21.6459 71.6859V71.2659L19.6859 71.6859C18.3059 71.9859 17.4259 72.2459 17.4259 73.3059C17.4259 74.0459 17.9259 74.6059 18.9259 74.6059C20.4659 74.6059 21.6459 73.4459 21.6459 71.6859ZM23.2459 69.9459V73.8659C23.2459 74.3259 23.5059 74.5459 23.9259 74.5459C24.1259 74.5459 24.4459 74.4859 24.6859 74.3459V75.2459C24.3859 75.5459 24.0259 75.7659 23.3459 75.7659C22.4459 75.7659 21.8059 75.0859 21.7059 74.0459C21.2259 75.0659 19.9859 75.8259 18.5659 75.8259C16.8659 75.8259 15.7659 74.9059 15.7659 73.4059C15.7659 71.7459 17.1859 71.0659 19.2859 70.6459L21.6459 70.1659V69.8259C21.6459 68.6259 20.9459 67.8859 19.7259 67.8859C18.4659 67.8859 17.7859 68.6259 17.5259 69.6459L16.0459 69.4459C16.3859 67.8059 17.6859 66.6059 19.7459 66.6059C21.9459 66.6059 23.2459 67.7259 23.2459 69.9459ZM31.0105 71.6859V71.2659L29.0505 71.6859C27.6705 71.9859 26.7905 72.2459 26.7905 73.3059C26.7905 74.0459 27.2905 74.6059 28.2905 74.6059C29.8305 74.6059 31.0105 73.4459 31.0105 71.6859ZM32.6105 69.9459V73.8659C32.6105 74.3259 32.8705 74.5459 33.2905 74.5459C33.4905 74.5459 33.8105 74.4859 34.0505 74.3459V75.2459C33.7505 75.5459 33.3905 75.7659 32.7105 75.7659C31.8105 75.7659 31.1705 75.0859 31.0705 74.0459C30.5905 75.0659 29.3505 75.8259 27.9305 75.8259C26.2305 75.8259 25.1305 74.9059 25.1305 73.4059C25.1305 71.7459 26.5505 71.0659 28.6505 70.6459L31.0105 70.1659V69.8259C31.0105 68.6259 30.3105 67.8859 29.0905 67.8859C27.8305 67.8859 27.1505 68.6259 26.8905 69.6459L25.4105 69.4459C25.7505 67.8059 27.0505 66.6059 29.1105 66.6059C31.3105 66.6059 32.6105 67.7259 32.6105 69.9459ZM34.2757 72.6459L35.6757 72.5459C35.8357 73.8859 36.7757 74.6059 38.2757 74.6059C39.4357 74.6059 40.2957 74.1859 40.2957 73.3059C40.2957 72.4859 39.7157 72.2059 38.6357 72.0059L37.1557 71.7459C35.5157 71.4859 34.5357 70.7859 34.5357 69.2859C34.5357 67.6859 35.8757 66.6059 37.8957 66.6059C40.2157 66.6059 41.5757 67.6859 41.7357 69.7059L40.3957 69.7859C40.1957 68.4459 39.3757 67.8259 37.8957 67.8259C36.7957 67.8259 36.0757 68.3259 36.0757 69.1259C36.0757 69.8259 36.5157 70.1859 37.4157 70.3459L39.0557 70.6059C40.8157 70.9059 41.8557 71.5659 41.8557 73.1459C41.8557 74.8859 40.3157 75.8259 38.2757 75.8259C36.0957 75.8259 34.4357 74.8059 34.2757 72.6459Z" fill="#333333"/>
<g clip-path="url(#clip0_3821_12014)">
<path d="M43.0449 47.626C40.6794 47.626 38.7549 45.7015 38.7549 43.336C38.7549 40.9705 40.6794 39.046 43.0449 39.046C45.4104 39.046 47.3349 40.9705 47.3349 43.336C47.3349 45.7015 45.4104 47.626 43.0449 47.626ZM43.0449 40.126C41.2749 40.126 39.8349 41.566 39.8349 43.336C39.8349 45.106 41.2749 46.546 43.0449 46.546C44.8149 46.546 46.2549 45.106 46.2549 43.336C46.2549 41.566 44.8149 40.126 43.0449 40.126ZM24.2949 47.626C21.9294 47.626 20.0049 45.7015 20.0049 43.336C20.0049 40.9705 21.9294 39.046 24.2949 39.046C26.6604 39.046 28.5849 40.9705 28.5849 43.336C28.5849 45.7015 26.6604 47.626 24.2949 47.626ZM24.2949 40.126C22.5249 40.126 21.0849 41.566 21.0849 43.336C21.0849 45.106 22.5249 46.546 24.2949 46.546C26.0649 46.546 27.5049 45.106 27.5049 43.336C27.5049 41.566 26.0649 40.126 24.2949 40.126ZM5.54488 47.626C3.17938 47.626 1.25488 45.7015 1.25488 43.336C1.25488 40.9705 3.17938 39.046 5.54488 39.046C7.91038 39.046 9.83488 40.9705 9.83488 43.336C9.83488 45.7015 7.91038 47.626 5.54488 47.626ZM5.54488 40.126C3.77488 40.126 2.33488 41.566 2.33488 43.336C2.33488 45.106 3.77488 46.546 5.54488 46.546C7.31488 46.546 8.75488 45.106 8.75488 43.336C8.75488 41.566 7.31488 40.126 5.54488 40.126ZM33.2949 34.126H15.2949C14.9964 34.126 14.7549 33.8845 14.7549 33.586V15.586C14.7549 15.2875 14.9964 15.046 15.2949 15.046H33.2949C33.5934 15.046 33.8349 15.2875 33.8349 15.586V33.586C33.8349 33.8845 33.5934 34.126 33.2949 34.126ZM15.8349 33.046H32.7549V22.126H15.8349V33.046ZM15.8349 21.046H32.7549V16.126H15.8349V21.046ZM43.0449 28.876C40.6794 28.876 38.7549 26.9515 38.7549 24.586C38.7549 22.2205 40.6794 20.296 43.0449 20.296C45.4104 20.296 47.3349 22.2205 47.3349 24.586C47.3349 26.9515 45.4104 28.876 43.0449 28.876ZM43.0449 21.376C41.2749 21.376 39.8349 22.816 39.8349 24.586C39.8349 26.356 41.2749 27.796 43.0449 27.796C44.8149 27.796 46.2549 26.356 46.2549 24.586C46.2549 22.816 44.8149 21.376 43.0449 21.376ZM5.54488 28.876C3.17938 28.876 1.25488 26.9515 1.25488 24.586C1.25488 22.2205 3.17938 20.296 5.54488 20.296C7.91038 20.296 9.83488 22.2205 9.83488 24.586C9.83488 26.9515 7.91038 28.876 5.54488 28.876ZM5.54488 21.376C3.77488 21.376 2.33488 22.816 2.33488 24.586C2.33488 26.356 3.77488 27.796 5.54488 27.796C7.31488 27.796 8.75488 26.356 8.75488 24.586C8.75488 22.816 7.31488 21.376 5.54488 21.376ZM30.2949 28.126H18.2949V27.046H30.2949V28.126ZM43.0449 10.126C40.6794 10.126 38.7549 8.20146 38.7549 5.83596C38.7549 3.47046 40.6794 1.54596 43.0449 1.54596C45.4104 1.54596 47.3349 3.47046 47.3349 5.83596C47.3349 8.20146 45.4104 10.126 43.0449 10.126ZM43.0449 2.62596C41.2749 2.62596 39.8349 4.06596 39.8349 5.83596C39.8349 7.60596 41.2749 9.04596 43.0449 9.04596C44.8149 9.04596 46.2549 7.60596 46.2549 5.83596C46.2549 4.06596 44.8149 2.62596 43.0449 2.62596ZM24.2949 10.126C21.9294 10.126 20.0049 8.20146 20.0049 5.83596C20.0049 3.47046 21.9294 1.54596 24.2949 1.54596C26.6604 1.54596 28.5849 3.47046 28.5849 5.83596C28.5849 8.20146 26.6604 10.126 24.2949 10.126ZM24.2949 2.62596C22.5249 2.62596 21.0849 4.06596 21.0849 5.83596C21.0849 7.60596 22.5249 9.04596 24.2949 9.04596C26.0649 9.04596 27.5049 7.60596 27.5049 5.83596C27.5049 4.06596 26.0649 2.62596 24.2949 2.62596ZM5.54488 10.126C3.17938 10.126 1.25488 8.20146 1.25488 5.83596C1.25488 3.47046 3.17938 1.54596 5.54488 1.54596C7.91038 1.54596 9.83488 3.47046 9.83488 5.83596C9.83488 8.20146 7.91038 10.126 5.54488 10.126ZM5.54488 2.62596C3.77488 2.62596 2.33488 4.06596 2.33488 5.83596C2.33488 7.60596 3.77488 9.04596 5.54488 9.04596C7.31488 9.04596 8.75488 7.60596 8.75488 5.83596C8.75488 4.06596 7.31488 2.62596 5.54488 2.62596ZM30.2949 17.836C29.8809 17.836 29.5449 18.172 29.5449 18.586C29.5449 19 29.8809 19.336 30.2949 19.336C30.7089 19.336 31.0449 19 31.0449 18.586C31.0449 18.172 30.7089 17.836 30.2949 17.836Z" fill="black"/>
</g>
<defs>
<clipPath id="clip0_3821_12014">
<rect width="48" height="48" fill="white" transform="translate(0.294922 0.585938)"/>
</clipPath>
</defs>
</svg>
