<svg width="78" height="76" viewBox="0 0 78 76" fill="none" xmlns="http://www.w3.org/2000/svg">
<path d="M10.4949 74.1459V75.5859H1.51492V62.9859H10.3149V64.4259H3.19492V68.3859H8.85492V69.8059H3.19492V74.1459H10.4949ZM18.2199 71.4659V70.9659C18.2199 69.0659 17.0199 67.9459 15.4399 67.9459C13.7199 67.9459 12.7599 69.2259 12.7599 71.2259C12.7599 73.2259 13.7199 74.5059 15.4399 74.5059C17.0199 74.5059 18.2199 73.3859 18.2199 71.4659ZM18.1999 75.5859V73.7659C17.7999 74.8459 16.6999 75.8259 15.0599 75.8259C12.4599 75.8259 11.0599 73.8059 11.0599 71.2259C11.0599 68.6459 12.4599 66.6059 15.0599 66.6059C16.6999 66.6059 17.7999 67.6059 18.1999 68.6859V62.9859H19.8599V75.5859H18.1999ZM27.5677 71.8659V66.8459H29.2277V75.5859H27.5677V74.0459C27.1477 75.0859 26.0277 75.8259 24.7077 75.8259C22.4277 75.8259 21.5877 74.3259 21.5877 72.2859V66.8459H23.2477V72.1259C23.2477 73.5859 23.8877 74.5259 25.2677 74.5259C26.5677 74.5259 27.5677 73.4859 27.5677 71.8659ZM30.512 71.2259C30.512 68.4459 32.352 66.6059 34.992 66.6059C37.552 66.6059 38.932 68.3259 39.112 70.4259L37.652 70.5259C37.512 68.9859 36.592 67.9459 34.972 67.9459C33.332 67.9459 32.212 69.2059 32.212 71.2259C32.212 73.2459 33.332 74.5059 34.972 74.5059C36.592 74.5059 37.512 73.4059 37.652 71.8659L39.112 72.0059C38.932 74.1259 37.552 75.8259 34.992 75.8259C32.352 75.8259 30.512 74.0059 30.512 71.2259ZM45.818 71.6859V71.2659L43.858 71.6859C42.478 71.9859 41.598 72.2459 41.598 73.3059C41.598 74.0459 42.098 74.6059 43.098 74.6059C44.638 74.6059 45.818 73.4459 45.818 71.6859ZM47.418 69.9459V73.8659C47.418 74.3259 47.678 74.5459 48.098 74.5459C48.298 74.5459 48.618 74.4859 48.858 74.3459V75.2459C48.558 75.5459 48.198 75.7659 47.518 75.7659C46.618 75.7659 45.978 75.0859 45.878 74.0459C45.398 75.0659 44.158 75.8259 42.738 75.8259C41.038 75.8259 39.938 74.9059 39.938 73.4059C39.938 71.7459 41.358 71.0659 43.458 70.6459L45.818 70.1659V69.8259C45.818 68.6259 45.118 67.8859 43.898 67.8859C42.638 67.8859 41.958 68.6259 41.698 69.6459L40.218 69.4459C40.558 67.8059 41.858 66.6059 43.918 66.6059C46.118 66.6059 47.418 67.7259 47.418 69.9459ZM49.9255 73.5459V68.0459H48.6055V67.1459L49.1655 67.0459C49.9855 66.8859 50.1655 66.4859 50.3655 65.6459L50.6255 64.4259H51.5655V66.8459H54.0255V68.0459H51.5655V73.3459C51.5655 74.1259 51.8855 74.4859 52.6455 74.4859C53.2055 74.4859 53.7855 74.2459 54.2855 73.9659V75.0859C53.6455 75.5659 53.0055 75.8259 52.0455 75.8259C50.8055 75.8259 49.9255 75.2459 49.9255 73.5459ZM55.2988 66.8459H56.9588V75.5859H55.2988V66.8459ZM55.2588 64.8659V62.9859H56.9788V64.8659H55.2588ZM59.9246 71.2259C59.9246 73.1659 60.9046 74.5459 62.6646 74.5459C64.4446 74.5459 65.4446 73.1659 65.4446 71.2259C65.4446 69.2659 64.4446 67.9059 62.6646 67.9059C60.9046 67.9059 59.9246 69.2659 59.9246 71.2259ZM67.1446 71.2259C67.1446 73.9459 65.2446 75.8259 62.6646 75.8259C60.1046 75.8259 58.2246 73.9459 58.2246 71.2259C58.2246 68.5059 60.1046 66.6059 62.6646 66.6059C65.2446 66.6059 67.1446 68.5059 67.1446 71.2259ZM70.0827 70.5659V75.5859H68.4227V66.8459H70.0827V68.4059C70.5027 67.3459 71.6827 66.6059 72.9827 66.6059C75.2627 66.6059 76.1827 68.1259 76.1827 70.1659V75.5859H74.5227V70.3059C74.5227 68.8459 73.8227 67.9259 72.4427 67.9259C71.1227 67.9259 70.0827 68.9659 70.0827 70.5659Z" fill="#333333"/>
<g clip-path="url(#clip0_3821_12015)">
<path d="M59.3349 47.0859H58.2549C58.2549 41.5419 55.5144 36.3594 51.1644 32.9154L46.2864 41.3559C46.1364 41.6184 45.8079 41.7039 45.5499 41.5539L39.2949 37.9449L33.0399 41.5524C32.7819 41.7054 32.4504 41.6139 32.3034 41.3544L27.4284 32.9184C23.0769 36.3624 20.3349 41.5434 20.3349 47.0859H19.2549C19.2549 38.7084 25.1514 31.1154 33.4599 28.5384C30.0939 26.5089 27.9849 22.8444 27.9849 18.8559C27.9849 17.2614 28.3089 15.7269 28.9494 14.2899L23.3349 11.0469V23.0859H22.2549V10.1109C22.2549 10.1049 22.2549 10.0989 22.2549 10.0914C22.2624 9.89192 22.3794 9.71193 22.5594 9.62493L39.0594 1.59992C39.2079 1.52642 39.3834 1.52642 39.5304 1.59992L56.0304 9.62493C56.2104 9.71193 56.3274 9.89192 56.3334 10.0914C56.3409 10.2909 56.2374 10.4784 56.0634 10.5774L49.6389 14.2899C50.2794 15.7269 50.6049 17.2599 50.6049 18.8559C50.6049 22.8414 48.5004 26.5059 45.1404 28.5384C53.4444 31.1154 59.3349 38.7099 59.3349 47.0859ZM28.2969 32.2674L32.9664 40.3494L39.0249 36.8544C39.1914 36.7584 39.3969 36.7584 39.5634 36.8544L45.6204 40.3494L50.2929 32.2644C48.3054 30.8619 46.0254 29.8104 43.5489 29.2224C43.3239 29.1684 43.1574 28.9779 43.1364 28.7469C43.1139 28.5174 43.2414 28.2984 43.4544 28.2039C47.1414 26.5584 49.5234 22.8909 49.5234 18.8574C49.5234 17.3694 49.2129 15.9429 48.5994 14.6094C46.6074 14.6034 36.0354 14.6064 29.9889 14.6109C29.3754 15.9444 29.0634 17.3694 29.0634 18.8559C29.0634 22.8909 31.4514 26.5599 35.1474 28.2024C35.3589 28.2954 35.4879 28.5159 35.4654 28.7454C35.4444 28.9764 35.2779 29.1669 35.0529 29.2209C32.5719 29.8104 30.2889 30.8649 28.2969 32.2674ZM39.1194 13.5279C44.8374 13.5279 47.3064 13.5369 48.3984 13.5684V11.4774L47.9919 11.2494C45.9219 10.0809 43.3464 8.62593 39.3399 8.62593C35.2734 8.62593 32.6424 10.1034 30.5274 11.2899L30.1899 11.4774V13.5309C33.8139 13.5294 36.7479 13.5279 39.1194 13.5279ZM39.3399 7.54593C43.6299 7.54593 46.3434 9.07743 48.5244 10.3089L49.2009 10.6869C49.3734 10.7814 49.4814 10.9629 49.4814 11.1594V13.1349L54.6459 10.1514L39.2949 2.68592L23.9454 10.1514L29.1099 13.1364V11.1609C29.1099 10.9644 29.2164 10.7829 29.3904 10.6884L29.9994 10.3479C32.2224 9.09993 34.9899 7.54593 39.3399 7.54593Z" fill="black"/>
</g>
<defs>
<clipPath id="clip0_3821_12015">
<rect width="48" height="48" fill="white" transform="translate(15.2949 0.585938)"/>
</clipPath>
</defs>
</svg>
