<svg width="111" height="76" viewBox="0 0 111 76" fill="none" xmlns="http://www.w3.org/2000/svg">
<path d="M10.4949 74.1459V75.5859H1.51492V62.9859H10.3149V64.4259H3.19492V68.3859H8.85492V69.8059H3.19492V74.1459H10.4949ZM13.612 70.5659V75.5859H11.952V66.8459H13.612V68.4059C14.032 67.3459 15.212 66.6059 16.512 66.6059C18.792 66.6059 19.712 68.1259 19.712 70.1659V75.5859H18.052V70.3059C18.052 68.8459 17.352 67.9259 15.972 67.9259C14.652 67.9259 13.612 68.9659 13.612 70.5659ZM21.7338 73.5459V68.0459H20.4138V67.1459L20.9738 67.0459C21.7938 66.8859 21.9738 66.4859 22.1738 65.6459L22.4338 64.4259H23.3738V66.8459H25.8338V68.0459H23.3738V73.3459C23.3738 74.1259 23.6938 74.4859 24.4538 74.4859C25.0138 74.4859 25.5938 74.2459 26.0938 73.9659V75.0859C25.4538 75.5659 24.8138 75.8259 23.8538 75.8259C22.6138 75.8259 21.7338 75.2459 21.7338 73.5459ZM33.669 72.4859L35.049 72.6459C34.609 74.6259 33.149 75.8259 30.969 75.8259C28.369 75.8259 26.469 74.0659 26.469 71.3459C26.469 68.5859 28.369 66.6059 30.889 66.6059C33.669 66.6059 35.089 68.5859 35.089 70.9659V71.6259H28.129C28.209 73.3259 29.429 74.5259 30.989 74.5259C32.449 74.5259 33.309 73.8259 33.669 72.4859ZM28.169 70.5459H33.389C33.329 69.1459 32.549 67.8659 30.889 67.8659C29.309 67.8659 28.369 69.1059 28.169 70.5459ZM41.7541 67.0059L41.5941 68.5059C41.1141 68.2459 40.7741 68.1459 40.2341 68.1459C38.9741 68.1459 38.0341 69.2859 38.0341 70.9659V75.5859H36.3741V66.8459H38.0341V68.6259C38.3541 67.6259 39.2541 66.6059 40.5141 66.6059C41.0541 66.6059 41.4541 66.7459 41.7541 67.0059ZM43.0896 73.5459V68.0459H41.7696V67.1459L42.3296 67.0459C43.1496 66.8859 43.3296 66.4859 43.5296 65.6459L43.7896 64.4259H44.7296V66.8459H47.1896V68.0459H44.7296V73.3459C44.7296 74.1259 45.0496 74.4859 45.8096 74.4859C46.3696 74.4859 46.9496 74.2459 47.4496 73.9659V75.0859C46.8096 75.5659 46.1696 75.8259 45.2096 75.8259C43.9696 75.8259 43.0896 75.2459 43.0896 73.5459ZM53.9029 71.6859V71.2659L51.9429 71.6859C50.5629 71.9859 49.6829 72.2459 49.6829 73.3059C49.6829 74.0459 50.1829 74.6059 51.1829 74.6059C52.7229 74.6059 53.9029 73.4459 53.9029 71.6859ZM55.5029 69.9459V73.8659C55.5029 74.3259 55.7629 74.5459 56.1829 74.5459C56.3829 74.5459 56.7029 74.4859 56.9429 74.3459V75.2459C56.6429 75.5459 56.2829 75.7659 55.6029 75.7659C54.7029 75.7659 54.0629 75.0859 53.9629 74.0459C53.4829 75.0659 52.2429 75.8259 50.8229 75.8259C49.1229 75.8259 48.0229 74.9059 48.0229 73.4059C48.0229 71.7459 49.4429 71.0659 51.5429 70.6459L53.9029 70.1659V69.8259C53.9029 68.6259 53.2029 67.8859 51.9829 67.8859C50.7229 67.8859 50.0429 68.6259 49.7829 69.6459L48.3029 69.4459C48.6429 67.8059 49.9429 66.6059 52.0029 66.6059C54.2029 66.6059 55.5029 67.7259 55.5029 69.9459ZM57.808 66.8459H59.468V75.5859H57.808V66.8459ZM57.768 64.8659V62.9859H59.488V64.8659H57.768ZM62.9538 70.5659V75.5859H61.2938V66.8459H62.9538V68.4059C63.3738 67.3459 64.5538 66.6059 65.8538 66.6059C68.1338 66.6059 69.0538 68.1259 69.0538 70.1659V75.5859H67.3938V70.3059C67.3938 68.8459 66.6938 67.9259 65.3138 67.9259C63.9938 67.9259 62.9538 68.9659 62.9538 70.5659ZM78.0757 68.5059C78.5357 67.4259 79.6157 66.6059 81.0157 66.6059C83.2957 66.6059 84.0957 68.1859 84.0957 70.1659V75.5859H82.4357V70.3059C82.4357 68.8459 81.8357 67.9259 80.4957 67.9259C79.2557 67.9259 78.2557 68.9659 78.2557 70.5659V75.5859H76.5957V70.3059C76.5957 68.8459 75.9957 67.9259 74.6557 67.9259C73.4157 67.9259 72.4357 68.9659 72.4357 70.5659V75.5859H70.7757V66.8459H72.4357V68.4059C72.8557 67.3459 73.8757 66.6059 75.2157 66.6059C76.7757 66.6059 77.6957 67.3659 78.0757 68.5059ZM92.4835 72.4859L93.8635 72.6459C93.4235 74.6259 91.9635 75.8259 89.7835 75.8259C87.1835 75.8259 85.2835 74.0659 85.2835 71.3459C85.2835 68.5859 87.1835 66.6059 89.7035 66.6059C92.4835 66.6059 93.9035 68.5859 93.9035 70.9659V71.6259H86.9435C87.0235 73.3259 88.2435 74.5259 89.8035 74.5259C91.2635 74.5259 92.1235 73.8259 92.4835 72.4859ZM86.9835 70.5459H92.2035C92.1435 69.1459 91.3635 67.8659 89.7035 67.8659C88.1235 67.8659 87.1835 69.1059 86.9835 70.5459ZM96.8487 70.5659V75.5859H95.1887V66.8459H96.8487V68.4059C97.2687 67.3459 98.4487 66.6059 99.7487 66.6059C102.029 66.6059 102.949 68.1259 102.949 70.1659V75.5859H101.289V70.3059C101.289 68.8459 100.589 67.9259 99.2087 67.9259C97.8887 67.9259 96.8487 68.9659 96.8487 70.5659ZM104.971 73.5459V68.0459H103.651V67.1459L104.211 67.0459C105.031 66.8859 105.211 66.4859 105.411 65.6459L105.671 64.4259H106.611V66.8459H109.071V68.0459H106.611V73.3459C106.611 74.1259 106.931 74.4859 107.691 74.4859C108.251 74.4859 108.831 74.2459 109.331 73.9659V75.0859C108.691 75.5659 108.051 75.8259 107.091 75.8259C105.851 75.8259 104.971 75.2459 104.971 73.5459Z" fill="#333333"/>
<g clip-path="url(#clip0_3821_12016)">
<path d="M65.7949 41.6259H32.7949C32.4964 41.6259 32.2549 41.3844 32.2549 41.0859V8.0859C32.2549 7.7874 32.4964 7.5459 32.7949 7.5459H65.7949C66.0934 7.5459 66.3349 7.7874 66.3349 8.0859V17.6484L77.5234 11.1519C77.6884 11.0559 77.8954 11.0529 78.0634 11.1519C78.2299 11.2479 78.3349 11.4264 78.3349 11.6199V37.6014C78.3349 37.7949 78.2314 37.9734 78.0619 38.0694C77.8969 38.1639 77.6884 38.1639 77.5219 38.0664L66.3349 31.5279V41.0859C66.3349 41.3844 66.0934 41.6259 65.7949 41.6259ZM33.3349 40.5459H65.2549V30.5859C65.2549 30.3924 65.3584 30.2139 65.5279 30.1179C65.6929 30.0234 65.9029 30.0234 66.0679 30.1209L77.2549 36.6594V12.5559L66.0664 19.0524C65.9014 19.1484 65.6944 19.1499 65.5264 19.0524C65.3584 18.9579 65.2549 18.7794 65.2549 18.5859V8.6259H33.3349V40.5459ZM44.7949 32.8974C44.7019 32.8974 44.6074 32.8719 44.5249 32.8239C44.3584 32.7279 44.2549 32.5494 44.2549 32.3559V16.7694C44.2549 16.5759 44.3569 16.3974 44.5249 16.3014C44.6914 16.2054 44.8984 16.2054 45.0649 16.3014L58.5649 24.1179C58.7314 24.2139 58.8349 24.3939 58.8349 24.5859C58.8334 24.7779 58.7314 24.9579 58.5634 25.0539L45.0634 32.8239C44.9809 32.8719 44.8879 32.8974 44.7949 32.8974ZM45.3349 17.7054V31.4229L57.2149 24.5844L45.3349 17.7054Z" fill="black"/>
</g>
<defs>
<clipPath id="clip0_3821_12016">
<rect width="48" height="48" fill="white" transform="translate(31.2949 0.585938)"/>
</clipPath>
</defs>
</svg>
