<svg width="147" height="79" viewBox="0 0 147 79" fill="none" xmlns="http://www.w3.org/2000/svg">
<path d="M7.01492 75.5859H5.29492V64.4259H0.714922V62.9859H11.6749V64.4259H7.01492V75.5859ZM17.0195 67.0059L16.8595 68.5059C16.3795 68.2459 16.0395 68.1459 15.4995 68.1459C14.2395 68.1459 13.2995 69.2859 13.2995 70.9659V75.5859H11.6395V66.8459H13.2995V68.6259C13.6195 67.6259 14.5195 66.6059 15.7795 66.6059C16.3195 66.6059 16.7195 66.7459 17.0195 67.0059ZM23.1434 71.6859V71.2659L21.1834 71.6859C19.8034 71.9859 18.9234 72.2459 18.9234 73.3059C18.9234 74.0459 19.4234 74.6059 20.4234 74.6059C21.9634 74.6059 23.1434 73.4459 23.1434 71.6859ZM24.7434 69.9459V73.8659C24.7434 74.3259 25.0034 74.5459 25.4234 74.5459C25.6234 74.5459 25.9434 74.4859 26.1834 74.3459V75.2459C25.8834 75.5459 25.5234 75.7659 24.8434 75.7659C23.9434 75.7659 23.3034 75.0859 23.2034 74.0459C22.7234 75.0659 21.4834 75.8259 20.0634 75.8259C18.3634 75.8259 17.2634 74.9059 17.2634 73.4059C17.2634 71.7459 18.6834 71.0659 20.7834 70.6459L23.1434 70.1659V69.8259C23.1434 68.6259 22.4434 67.8859 21.2234 67.8859C19.9634 67.8859 19.2834 68.6259 19.0234 69.6459L17.5434 69.4459C17.8834 67.8059 19.1834 66.6059 21.2434 66.6059C23.4434 66.6059 24.7434 67.7259 24.7434 69.9459ZM30.9365 75.5859H29.3165L25.7165 66.8459H27.4565L30.1765 73.5659H30.2565L32.9165 66.8459H34.5365L30.9365 75.5859ZM41.8618 72.4859L43.2418 72.6459C42.8018 74.6259 41.3418 75.8259 39.1618 75.8259C36.5618 75.8259 34.6618 74.0659 34.6618 71.3459C34.6618 68.5859 36.5618 66.6059 39.0818 66.6059C41.8618 66.6059 43.2818 68.5859 43.2818 70.9659V71.6259H36.3218C36.4018 73.3259 37.6218 74.5259 39.1818 74.5259C40.6418 74.5259 41.5018 73.8259 41.8618 72.4859ZM36.3618 70.5459H41.5818C41.5218 69.1459 40.7418 67.8659 39.0818 67.8659C37.5018 67.8659 36.5618 69.1059 36.3618 70.5459ZM44.567 62.9859H46.227V75.5859H44.567V62.9859ZM60.1265 69.2059L61.5665 69.2859C61.1865 70.8059 60.5065 72.2459 59.5665 73.3859C60.1665 74.0459 60.6865 74.4459 61.4865 74.4459C61.7865 74.4459 62.0865 74.4259 62.4665 74.3259V75.4059C62.1065 75.6259 61.6065 75.7459 61.1065 75.7459C60.2065 75.7459 59.5265 75.4059 58.5065 74.4259C57.4465 75.3059 56.1665 75.8259 54.7065 75.8259C52.4065 75.8259 50.6065 74.5459 50.6065 72.3659C50.6065 70.6659 51.6465 69.6459 53.3265 68.7459C52.5665 67.8459 52.0065 66.9859 52.0065 65.8459C52.0065 64.0059 53.4065 62.7459 55.3665 62.7459C57.3865 62.7459 58.4865 63.9259 58.4865 65.5459C58.4865 67.1459 57.4665 68.0259 55.6065 68.9659L58.6865 72.3859C59.3665 71.5059 59.8665 70.4059 60.1265 69.2059ZM54.7465 74.4859C55.8265 74.4859 56.7865 74.1059 57.6065 73.4859L57.5665 73.4259L54.1665 69.6859C52.9865 70.3059 52.2865 70.9859 52.2865 72.3259C52.2865 73.6459 53.3465 74.4859 54.7465 74.4859ZM53.5865 65.8259C53.5865 66.6859 54.1465 67.3459 54.7865 68.0459C56.4465 67.2859 57.0065 66.7059 57.0065 65.5859C57.0065 64.7659 56.4865 63.9859 55.3665 63.9859C54.3865 63.9859 53.5865 64.6059 53.5865 65.8259ZM68.1816 75.5859H66.4416V62.9859H68.1816V68.3859H75.4216V62.9859H77.1616V75.5859H75.4216V69.8059H68.1816V75.5859ZM80.2257 71.2259C80.2257 73.1659 81.2057 74.5459 82.9657 74.5459C84.7457 74.5459 85.7457 73.1659 85.7457 71.2259C85.7457 69.2659 84.7457 67.9059 82.9657 67.9059C81.2057 67.9059 80.2257 69.2659 80.2257 71.2259ZM87.4457 71.2259C87.4457 73.9459 85.5457 75.8259 82.9657 75.8259C80.4057 75.8259 78.5257 73.9459 78.5257 71.2259C78.5257 68.5059 80.4057 66.6059 82.9657 66.6059C85.5457 66.6059 87.4457 68.5059 87.4457 71.2259ZM88.1229 72.6459L89.5229 72.5459C89.6829 73.8859 90.6229 74.6059 92.1229 74.6059C93.2829 74.6059 94.1429 74.1859 94.1429 73.3059C94.1429 72.4859 93.5629 72.2059 92.4829 72.0059L91.0029 71.7459C89.3629 71.4859 88.3829 70.7859 88.3829 69.2859C88.3829 67.6859 89.7229 66.6059 91.7429 66.6059C94.0629 66.6059 95.4229 67.6859 95.5829 69.7059L94.2429 69.7859C94.0429 68.4459 93.2229 67.8259 91.7429 67.8259C90.6429 67.8259 89.9229 68.3259 89.9229 69.1259C89.9229 69.8259 90.3629 70.1859 91.2629 70.3459L92.9029 70.6059C94.6629 70.9059 95.7029 71.5659 95.7029 73.1459C95.7029 74.8859 94.1629 75.8259 92.1229 75.8259C89.9429 75.8259 88.2829 74.8059 88.1229 72.6459ZM98.5952 70.9659V71.4659C98.5952 73.3859 99.8152 74.5059 101.395 74.5059C103.115 74.5059 104.055 73.2259 104.055 71.2259C104.055 69.2259 103.115 67.9459 101.395 67.9459C99.8152 67.9459 98.5952 69.0659 98.5952 70.9659ZM98.6352 73.7659V78.9459H96.9752V66.8459H98.6352V68.6859C99.0152 67.6059 100.135 66.6059 101.775 66.6059C104.355 66.6059 105.775 68.6459 105.775 71.2259C105.775 73.8059 104.355 75.8259 101.775 75.8259C100.135 75.8259 99.0152 74.8459 98.6352 73.7659ZM107.063 66.8459H108.723V75.5859H107.063V66.8459ZM107.023 64.8659V62.9859H108.743V64.8659H107.023ZM110.848 73.5459V68.0459H109.528V67.1459L110.088 67.0459C110.908 66.8859 111.088 66.4859 111.288 65.6459L111.548 64.4259H112.488V66.8459H114.948V68.0459H112.488V73.3459C112.488 74.1259 112.808 74.4859 113.568 74.4859C114.128 74.4859 114.708 74.2459 115.208 73.9659V75.0859C114.568 75.5659 113.928 75.8259 112.968 75.8259C111.728 75.8259 110.848 75.2459 110.848 73.5459ZM121.662 71.6859V71.2659L119.702 71.6859C118.322 71.9859 117.442 72.2459 117.442 73.3059C117.442 74.0459 117.942 74.6059 118.942 74.6059C120.482 74.6059 121.662 73.4459 121.662 71.6859ZM123.262 69.9459V73.8659C123.262 74.3259 123.522 74.5459 123.942 74.5459C124.142 74.5459 124.462 74.4859 124.702 74.3459V75.2459C124.402 75.5459 124.042 75.7659 123.362 75.7659C122.462 75.7659 121.822 75.0859 121.722 74.0459C121.242 75.0659 120.002 75.8259 118.582 75.8259C116.882 75.8259 115.782 74.9059 115.782 73.4059C115.782 71.7459 117.202 71.0659 119.302 70.6459L121.662 70.1659V69.8259C121.662 68.6259 120.962 67.8859 119.742 67.8859C118.482 67.8859 117.802 68.6259 117.542 69.6459L116.062 69.4459C116.402 67.8059 117.702 66.6059 119.762 66.6059C121.962 66.6059 123.262 67.7259 123.262 69.9459ZM125.567 62.9859H127.227V75.5859H125.567V62.9859ZM129.053 66.8459H130.713V75.5859H129.053V66.8459ZM129.013 64.8659V62.9859H130.733V64.8659H129.013ZM132.838 73.5459V68.0459H131.518V67.1459L132.078 67.0459C132.898 66.8859 133.078 66.4859 133.278 65.6459L133.538 64.4259H134.478V66.8459H136.938V68.0459H134.478V73.3459C134.478 74.1259 134.798 74.4859 135.558 74.4859C136.118 74.4859 136.698 74.2459 137.198 73.9659V75.0859C136.558 75.5659 135.918 75.8259 134.958 75.8259C133.718 75.8259 132.838 75.2459 132.838 73.5459ZM141.092 78.9459H139.472L140.892 75.5659L137.212 66.8459H138.952L141.732 73.5659H141.812L144.492 66.8459H146.132L141.092 78.9459Z" fill="#333333"/>
<g clip-path="url(#clip0_3821_12017)">
<path d="M80.5849 47.6659C79.0474 47.6659 77.7949 46.4134 77.7949 44.8759V44.6659H69.8749V44.8759C69.8749 46.4134 68.6239 47.6659 67.0849 47.6659C65.5459 47.6659 64.2949 46.4134 64.2949 44.8759V44.6659H61.8349C61.5364 44.6659 61.2949 44.4244 61.2949 44.1259V14.1259C61.2949 13.8274 61.5364 13.5859 61.8349 13.5859H68.7949V2.12594C68.7949 1.82744 69.0364 1.58594 69.3349 1.58594H78.3349C78.6334 1.58594 78.8749 1.82744 78.8749 2.12594V13.5859H85.8349C86.1334 13.5859 86.3749 13.8274 86.3749 14.1259V44.1259C86.3749 44.4244 86.1334 44.6659 85.8349 44.6659H83.3749V44.8759C83.3749 46.4134 82.1224 47.6659 80.5849 47.6659ZM78.8749 44.6659V44.8759C78.8749 45.8194 79.6414 46.5859 80.5849 46.5859C81.5284 46.5859 82.2949 45.8194 82.2949 44.8759V44.6659H78.8749ZM65.3749 44.6659V44.8759C65.3749 45.8194 66.1429 46.5859 67.0849 46.5859C68.0269 46.5859 68.7949 45.8194 68.7949 44.8759V44.6659H65.3749ZM62.3749 43.5859H85.2949V14.6659H62.3749V43.5859ZM69.8749 13.5859H77.7949V2.66594H69.8749V13.5859ZM81.3349 38.6659H66.3349V37.5859H81.3349V38.6659ZM81.3349 34.1659H66.3349V33.0859H81.3349V34.1659ZM81.3349 29.6659H66.3349V28.5859H81.3349V29.6659ZM81.3349 25.1659H66.3349V24.0859H81.3349V25.1659ZM81.3349 20.6659H66.3349V19.5859H81.3349V20.6659Z" fill="black"/>
</g>
<defs>
<clipPath id="clip0_3821_12017">
<rect width="48" height="48" fill="white" transform="translate(50.2949 0.585938)"/>
</clipPath>
</defs>
</svg>
