<svg width="94" height="75" viewBox="0 0 94 75" fill="none" xmlns="http://www.w3.org/2000/svg">
<path d="M13.4549 68.2859C13.4549 72.1659 10.8549 74.8259 7.19492 74.8259C3.51492 74.8259 0.934922 72.1659 0.934922 68.2859C0.934922 64.4059 3.51492 61.7459 7.19492 61.7459C10.8549 61.7459 13.4549 64.4059 13.4549 68.2859ZM11.6549 68.2859C11.6549 65.2059 9.91492 63.2259 7.19492 63.2259C4.47492 63.2259 2.71492 65.2059 2.71492 68.2859C2.71492 71.3659 4.47492 73.3459 7.19492 73.3459C9.91492 73.3459 11.6549 71.3659 11.6549 68.2859ZM16.444 69.5659V74.5859H14.784V65.8459H16.444V67.4059C16.864 66.3459 18.044 65.6059 19.344 65.6059C21.624 65.6059 22.544 67.1259 22.544 69.1659V74.5859H20.884V69.3059C20.884 67.8459 20.184 66.9259 18.804 66.9259C17.484 66.9259 16.444 67.9659 16.444 69.5659ZM29.2396 73.1659H31.9596C35.0396 73.1659 36.7196 71.3459 36.7196 68.2859C36.7196 65.2259 35.0396 63.4059 31.9596 63.4059H29.2396V73.1659ZM27.4996 74.5859V61.9859H32.0596C36.0196 61.9859 38.5196 64.3459 38.5196 68.2859C38.5196 72.2259 36.0196 74.5859 32.0596 74.5859H27.4996ZM46.5688 71.4859L47.9488 71.6459C47.5088 73.6259 46.0488 74.8259 43.8688 74.8259C41.2688 74.8259 39.3688 73.0659 39.3688 70.3459C39.3688 67.5859 41.2688 65.6059 43.7888 65.6059C46.5688 65.6059 47.9888 67.5859 47.9888 69.9659V70.6259H41.0288C41.1088 72.3259 42.3288 73.5259 43.8888 73.5259C45.3488 73.5259 46.2088 72.8259 46.5688 71.4859ZM41.0688 69.5459H46.2888C46.2288 68.1459 45.4488 66.8659 43.7888 66.8659C42.2088 66.8659 41.2688 68.1059 41.0688 69.5459ZM56.574 67.5059C57.034 66.4259 58.114 65.6059 59.514 65.6059C61.794 65.6059 62.594 67.1859 62.594 69.1659V74.5859H60.934V69.3059C60.934 67.8459 60.334 66.9259 58.994 66.9259C57.754 66.9259 56.754 67.9659 56.754 69.5659V74.5859H55.094V69.3059C55.094 67.8459 54.494 66.9259 53.154 66.9259C51.914 66.9259 50.934 67.9659 50.934 69.5659V74.5859H49.274V65.8459H50.934V67.4059C51.354 66.3459 52.374 65.6059 53.714 65.6059C55.274 65.6059 56.194 66.3659 56.574 67.5059ZM69.7818 70.6859V70.2659L67.8218 70.6859C66.4418 70.9859 65.5618 71.2459 65.5618 72.3059C65.5618 73.0459 66.0618 73.6059 67.0618 73.6059C68.6018 73.6059 69.7818 72.4459 69.7818 70.6859ZM71.3818 68.9459V72.8659C71.3818 73.3259 71.6418 73.5459 72.0618 73.5459C72.2618 73.5459 72.5818 73.4859 72.8218 73.3459V74.2459C72.5218 74.5459 72.1618 74.7659 71.4818 74.7659C70.5818 74.7659 69.9418 74.0859 69.8418 73.0459C69.3618 74.0659 68.1218 74.8259 66.7018 74.8259C65.0018 74.8259 63.9018 73.9059 63.9018 72.4059C63.9018 70.7459 65.3218 70.0659 67.4218 69.6459L69.7818 69.1659V68.8259C69.7818 67.6259 69.0818 66.8859 67.8618 66.8859C66.6018 66.8859 65.9218 67.6259 65.6618 68.6459L64.1818 68.4459C64.5218 66.8059 65.8218 65.6059 67.8818 65.6059C70.0818 65.6059 71.3818 66.7259 71.3818 68.9459ZM75.347 69.5659V74.5859H73.687V65.8459H75.347V67.4059C75.767 66.3459 76.947 65.6059 78.247 65.6059C80.527 65.6059 81.447 67.1259 81.447 69.1659V74.5859H79.787V69.3059C79.787 67.8459 79.087 66.9259 77.707 66.9259C76.387 66.9259 75.347 67.9659 75.347 69.5659ZM89.7688 70.4659V69.9659C89.7688 68.0659 88.5688 66.9459 86.9888 66.9459C85.2688 66.9459 84.3088 68.2259 84.3088 70.2259C84.3088 72.2259 85.2688 73.5059 86.9888 73.5059C88.5688 73.5059 89.7688 72.3859 89.7688 70.4659ZM89.7488 74.5859V72.7659C89.3488 73.8459 88.2488 74.8259 86.6088 74.8259C84.0088 74.8259 82.6088 72.8059 82.6088 70.2259C82.6088 67.6459 84.0088 65.6059 86.6088 65.6059C88.2488 65.6059 89.3488 66.6059 89.7488 67.6859V61.9859H91.4088V74.5859H89.7488Z" fill="#333333"/>
<g clip-path="url(#clip0_3821_12018)">
<path d="M42.7979 46.1259C39.1904 46.1259 36.2549 43.0854 36.2549 39.3474V23.1414C36.2549 21.9849 37.1684 21.0459 38.2919 21.0459C39.4154 21.0459 40.3289 21.9849 40.3289 23.1414L40.3334 28.1724C40.6199 28.0149 40.9469 27.9234 41.2949 27.9234C42.0599 27.9234 42.7289 28.3599 43.0769 29.0034C43.4174 28.7424 43.8404 28.5879 44.2964 28.5879C45.1904 28.5879 45.9524 29.1834 46.2254 30.0099C46.5374 29.8104 46.9049 29.6949 47.2979 29.6949C48.4214 29.6949 49.3349 30.6354 49.3349 31.7904V39.3489C49.3349 43.0854 46.4024 46.1259 42.7979 46.1259ZM38.2919 22.1259C37.7639 22.1259 37.3349 22.5819 37.3349 23.1414V39.3489C37.3349 42.4914 39.7859 45.0459 42.7994 45.0459C45.8084 45.0459 48.2564 42.4914 48.2564 39.3489V31.7904C48.2564 31.2309 47.8274 30.7749 47.2994 30.7749C46.7714 30.7749 46.3424 31.2309 46.3424 31.7904V33.5844C46.3424 33.8814 46.1009 34.1229 45.8039 34.1244C45.5069 34.1244 45.2654 33.8829 45.2639 33.5859L45.2564 30.6834C45.2564 30.1224 44.8274 29.6664 44.2994 29.6664C43.7684 29.6664 43.3364 30.1224 43.3364 30.6819L43.3424 33.5829C43.3424 33.8814 43.1024 34.1229 42.8039 34.1244C42.5054 34.1244 42.2654 33.8829 42.2639 33.5859L42.2564 30.0189C42.2564 29.4594 41.8274 29.0034 41.2994 29.0034C40.7714 29.0034 40.3424 29.4579 40.3424 30.0174V33.5844C40.3424 33.8829 40.1009 34.1244 39.8024 34.1244C39.5039 34.1244 39.2624 33.8829 39.2624 33.5844L39.2549 23.1429C39.2489 22.5819 38.8199 22.1259 38.2919 22.1259ZM69.7949 44.6259H56.2949C55.9964 44.6259 55.7549 44.3844 55.7549 44.0859V32.6259H51.7949V31.5459H61.7549V28.1259H51.7949V27.0459H61.7549V4.1259H25.3349V27.0459H33.7949V28.1274H25.3349V31.5459H33.7949V32.6274H24.7949C24.4964 32.6274 24.2549 32.3859 24.2549 32.0874V3.5859C24.2549 3.2874 24.4964 3.0459 24.7949 3.0459H62.2949C62.5934 3.0459 62.8349 3.2874 62.8349 3.5859V19.5459H69.7949C70.0934 19.5459 70.3349 19.7874 70.3349 20.0859V44.0859C70.3349 44.3844 70.0934 44.6259 69.7949 44.6259ZM56.8349 43.5459H69.2534V40.1259H56.8349V43.5459ZM56.8349 39.0459H69.2534V20.6259H62.8349V32.0859C62.8349 32.3844 62.5934 32.6259 62.2949 32.6259H56.8349V39.0459Z" fill="black"/>
<path fill-rule="evenodd" clip-rule="evenodd" d="M43.7421 9.25972C43.7421 9.77224 43.9106 10.2457 44.1945 10.6287H43.9058C42.7972 10.6287 41.8935 11.5263 41.8935 12.6326C41.8935 13.0224 42.006 13.3869 42.2 13.695H42.0572C40.9486 13.695 40.0449 14.5926 40.0449 15.6989C40.0449 16.5516 40.5843 17.2711 41.3339 17.5603L42.519 23.4576C42.5636 23.6783 42.7576 23.8359 42.9815 23.8359H51.6077C51.8313 23.8359 52.0267 23.6785 52.0705 23.4562L53.2554 17.5604C54.0054 17.2712 54.5449 16.5523 54.5449 15.6989C54.5449 14.5926 53.6413 13.695 52.5326 13.695H52.3895C52.5836 13.3871 52.6963 13.0229 52.6963 12.6326C52.6963 11.5263 51.7927 10.6287 50.684 10.6287H50.6691C50.7832 10.4012 50.8477 10.1446 50.8477 9.87298C50.8477 8.936 50.0828 8.1757 49.1435 8.1757C48.1089 8.1757 47.6302 7.8154 47.3994 7.49445C47.1575 7.1582 47.1506 6.81353 47.1505 6.80293C47.1479 6.54542 46.9376 6.33594 46.6787 6.33594C46.1408 6.33594 45.4129 6.48624 44.8126 6.93029C44.2004 7.38319 43.7421 8.12703 43.7421 9.25972ZM44.6858 9.25972C44.6858 8.40825 45.0186 7.94177 45.3925 7.67313C45.6899 7.45948 46.0293 7.36012 46.2906 7.31465C46.3739 7.60859 46.5414 7.99131 46.8793 8.33042C47.3226 8.77527 48.0314 9.11724 49.1435 9.11724C49.5636 9.11724 49.9041 9.45779 49.9041 9.87298C49.9041 10.2882 49.5636 10.6287 49.1435 10.6287C48.884 10.6287 48.6717 10.8382 48.6717 11.0995C48.6717 11.3607 48.884 11.5703 49.1435 11.5703H50.684C51.2742 11.5703 51.7527 12.0482 51.7527 12.6326C51.7527 13.2171 51.2742 13.695 50.684 13.695H48.5273C48.2678 13.695 48.0555 13.9045 48.0555 14.1658C48.0555 14.427 48.2678 14.6365 48.5273 14.6365H52.5326C53.1228 14.6365 53.6013 15.1144 53.6013 15.6989C53.6013 16.2833 53.1228 16.7612 52.5326 16.7612H42.0572C41.4671 16.7612 40.9886 16.2833 40.9886 15.6989C40.9886 15.1144 41.4671 14.6365 42.0572 14.6365H44.8301C45.0897 14.6365 45.302 14.427 45.302 14.1658C45.302 13.9045 45.0897 13.695 44.8301 13.695H43.9058C43.3157 13.695 42.8372 13.2171 42.8372 12.6326C42.8372 12.0482 43.3157 11.5703 43.9058 11.5703H46.6787C46.9383 11.5703 47.1506 11.3607 47.1506 11.0995C47.1506 10.8382 46.9383 10.6287 46.6787 10.6287H46.0625C45.3028 10.6287 44.6858 10.0134 44.6858 9.25972ZM43.3681 22.8938L42.325 17.7028H52.2654L51.2218 22.8938H43.3681ZM45.3368 22.3067L44.638 18.134L43.7073 18.2893L44.4061 22.4619L45.3368 22.3067ZM50.8832 18.2892L49.9518 18.1341L49.2531 22.3067L50.1844 22.4619L50.8832 18.2892ZM47.7668 18.2085H46.8231V22.388H47.7668V18.2085Z" fill="black"/>
</g>
<defs>
<clipPath id="clip0_3821_12018">
<rect width="48" height="48" fill="white" transform="translate(23.2949 0.585938)"/>
</clipPath>
</defs>
</svg>
