<svg width="143" height="76" viewBox="0 0 143 76" fill="none" xmlns="http://www.w3.org/2000/svg">
<path d="M3.23492 75.5859H1.51492V62.9859H10.1149V64.4259H3.23492V68.6059H8.63492V70.0459H3.23492V75.5859ZM11.4513 71.2259C11.4513 73.1659 12.4313 74.5459 14.1913 74.5459C15.9713 74.5459 16.9713 73.1659 16.9713 71.2259C16.9713 69.2659 15.9713 67.9059 14.1913 67.9059C12.4313 67.9059 11.4513 69.2659 11.4513 71.2259ZM18.6713 71.2259C18.6713 73.9459 16.7713 75.8259 14.1913 75.8259C11.6313 75.8259 9.75133 73.9459 9.75133 71.2259C9.75133 68.5059 11.6313 66.6059 14.1913 66.6059C16.7713 66.6059 18.6713 68.5059 18.6713 71.2259ZM21.148 71.2259C21.148 73.1659 22.128 74.5459 23.888 74.5459C25.668 74.5459 26.668 73.1659 26.668 71.2259C26.668 69.2659 25.668 67.9059 23.888 67.9059C22.128 67.9059 21.148 69.2659 21.148 71.2259ZM28.368 71.2259C28.368 73.9459 26.468 75.8259 23.888 75.8259C21.328 75.8259 19.448 73.9459 19.448 71.2259C19.448 68.5059 21.328 66.6059 23.888 66.6059C26.468 66.6059 28.368 68.5059 28.368 71.2259ZM36.3048 71.4659V70.9659C36.3048 69.0659 35.1048 67.9459 33.5248 67.9459C31.8048 67.9459 30.8448 69.2259 30.8448 71.2259C30.8448 73.2259 31.8048 74.5059 33.5248 74.5059C35.1048 74.5059 36.3048 73.3859 36.3048 71.4659ZM36.2848 75.5859V73.7659C35.8848 74.8459 34.7848 75.8259 33.1448 75.8259C30.5448 75.8259 29.1448 73.8059 29.1448 71.2259C29.1448 68.6459 30.5448 66.6059 33.1448 66.6059C34.7848 66.6059 35.8848 67.6059 36.2848 68.6859V62.9859H37.9448V75.5859H36.2848ZM51.8463 69.2059L53.2863 69.2859C52.9063 70.8059 52.2263 72.2459 51.2863 73.3859C51.8863 74.0459 52.4063 74.4459 53.2063 74.4459C53.5063 74.4459 53.8063 74.4259 54.1863 74.3259V75.4059C53.8263 75.6259 53.3263 75.7459 52.8263 75.7459C51.9263 75.7459 51.2463 75.4059 50.2263 74.4259C49.1663 75.3059 47.8863 75.8259 46.4263 75.8259C44.1263 75.8259 42.3263 74.5459 42.3263 72.3659C42.3263 70.6659 43.3663 69.6459 45.0463 68.7459C44.2863 67.8459 43.7263 66.9859 43.7263 65.8459C43.7263 64.0059 45.1263 62.7459 47.0863 62.7459C49.1063 62.7459 50.2063 63.9259 50.2063 65.5459C50.2063 67.1459 49.1863 68.0259 47.3263 68.9659L50.4063 72.3859C51.0863 71.5059 51.5863 70.4059 51.8463 69.2059ZM46.4663 74.4859C47.5463 74.4859 48.5063 74.1059 49.3263 73.4859L49.2863 73.4259L45.8863 69.6859C44.7063 70.3059 44.0063 70.9859 44.0063 72.3259C44.0063 73.6459 45.0663 74.4859 46.4663 74.4859ZM45.3063 65.8259C45.3063 66.6859 45.8663 67.3459 46.5063 68.0459C48.1663 67.2859 48.7263 66.7059 48.7263 65.5859C48.7263 64.7659 48.2063 63.9859 47.0863 63.9859C46.1063 63.9859 45.3063 64.6059 45.3063 65.8259ZM68.2015 75.5859H66.4015C66.1615 75.2459 65.9815 74.3259 65.8815 72.8459C65.8015 71.4459 65.1415 70.5059 63.4215 70.5059H59.8615V75.5859H58.1615V62.9859H63.2815C66.4815 62.9859 68.0215 64.4659 68.0215 66.7059C68.0215 68.6459 66.7015 69.6659 65.1615 69.8459C66.7015 70.1459 67.4415 71.0859 67.5615 72.5659C67.7215 74.4059 67.7815 75.1259 68.2015 75.5859ZM59.8615 69.1259H63.1815C65.3215 69.1259 66.2815 68.3259 66.2815 66.7659C66.2815 65.3259 65.3215 64.4059 63.1815 64.4059H59.8615V69.1259ZM76.2346 72.4859L77.6146 72.6459C77.1746 74.6259 75.7146 75.8259 73.5346 75.8259C70.9346 75.8259 69.0346 74.0659 69.0346 71.3459C69.0346 68.5859 70.9346 66.6059 73.4546 66.6059C76.2346 66.6059 77.6546 68.5859 77.6546 70.9659V71.6259H70.6946C70.7746 73.3259 71.9946 74.5259 73.5546 74.5259C75.0146 74.5259 75.8746 73.8259 76.2346 72.4859ZM70.7346 70.5459H75.9546C75.8946 69.1459 75.1146 67.8659 73.4546 67.8659C71.8746 67.8659 70.9346 69.1059 70.7346 70.5459ZM78.3779 72.6459L79.7779 72.5459C79.9379 73.8859 80.8779 74.6059 82.3779 74.6059C83.5379 74.6059 84.3979 74.1859 84.3979 73.3059C84.3979 72.4859 83.8179 72.2059 82.7379 72.0059L81.2579 71.7459C79.6179 71.4859 78.6379 70.7859 78.6379 69.2859C78.6379 67.6859 79.9779 66.6059 81.9979 66.6059C84.3179 66.6059 85.6779 67.6859 85.8379 69.7059L84.4979 69.7859C84.2979 68.4459 83.4779 67.8259 81.9979 67.8259C80.8979 67.8259 80.1779 68.3259 80.1779 69.1259C80.1779 69.8259 80.6179 70.1859 81.5179 70.3459L83.1579 70.6059C84.9179 70.9059 85.9579 71.5659 85.9579 73.1459C85.9579 74.8859 84.4179 75.8259 82.3779 75.8259C80.1979 75.8259 78.5379 74.8059 78.3779 72.6459ZM87.5302 73.5459V68.0459H86.2102V67.1459L86.7702 67.0459C87.5902 66.8859 87.7702 66.4859 87.9702 65.6459L88.2302 64.4259H89.1702V66.8459H91.6302V68.0459H89.1702V73.3459C89.1702 74.1259 89.4902 74.4859 90.2502 74.4859C90.8102 74.4859 91.3902 74.2459 91.8902 73.9659V75.0859C91.2502 75.5659 90.6102 75.8259 89.6502 75.8259C88.4102 75.8259 87.5302 75.2459 87.5302 73.5459ZM98.3435 71.6859V71.2659L96.3835 71.6859C95.0035 71.9859 94.1235 72.2459 94.1235 73.3059C94.1235 74.0459 94.6235 74.6059 95.6235 74.6059C97.1635 74.6059 98.3435 73.4459 98.3435 71.6859ZM99.9435 69.9459V73.8659C99.9435 74.3259 100.204 74.5459 100.624 74.5459C100.824 74.5459 101.144 74.4859 101.384 74.3459V75.2459C101.084 75.5459 100.724 75.7659 100.044 75.7659C99.1435 75.7659 98.5035 75.0859 98.4035 74.0459C97.9235 75.0659 96.6835 75.8259 95.2635 75.8259C93.5635 75.8259 92.4635 74.9059 92.4635 73.4059C92.4635 71.7459 93.8835 71.0659 95.9835 70.6459L98.3435 70.1659V69.8259C98.3435 68.6259 97.6435 67.8859 96.4235 67.8859C95.1635 67.8859 94.4835 68.6259 94.2235 69.6459L92.7435 69.4459C93.0835 67.8059 94.3835 66.6059 96.4435 66.6059C98.6435 66.6059 99.9435 67.7259 99.9435 69.9459ZM108.031 71.8659V66.8459H109.691V75.5859H108.031V74.0459C107.611 75.0859 106.491 75.8259 105.171 75.8259C102.891 75.8259 102.051 74.3259 102.051 72.2859V66.8459H103.711V72.1259C103.711 73.5859 104.351 74.5259 105.731 74.5259C107.031 74.5259 108.031 73.4859 108.031 71.8659ZM116.915 67.0059L116.755 68.5059C116.275 68.2459 115.935 68.1459 115.395 68.1459C114.135 68.1459 113.195 69.2859 113.195 70.9659V75.5859H111.535V66.8459H113.195V68.6259C113.515 67.6259 114.415 66.6059 115.675 66.6059C116.215 66.6059 116.615 66.7459 116.915 67.0059ZM123.039 71.6859V71.2659L121.079 71.6859C119.699 71.9859 118.819 72.2459 118.819 73.3059C118.819 74.0459 119.319 74.6059 120.319 74.6059C121.859 74.6059 123.039 73.4459 123.039 71.6859ZM124.639 69.9459V73.8659C124.639 74.3259 124.899 74.5459 125.319 74.5459C125.519 74.5459 125.839 74.4859 126.079 74.3459V75.2459C125.779 75.5459 125.419 75.7659 124.739 75.7659C123.839 75.7659 123.199 75.0859 123.099 74.0459C122.619 75.0659 121.379 75.8259 119.959 75.8259C118.259 75.8259 117.159 74.9059 117.159 73.4059C117.159 71.7459 118.579 71.0659 120.679 70.6459L123.039 70.1659V69.8259C123.039 68.6259 122.339 67.8859 121.119 67.8859C119.859 67.8859 119.179 68.6259 118.919 69.6459L117.439 69.4459C117.779 67.8059 119.079 66.6059 121.139 66.6059C123.339 66.6059 124.639 67.7259 124.639 69.9459ZM128.604 70.5659V75.5859H126.944V66.8459H128.604V68.4059C129.024 67.3459 130.204 66.6059 131.504 66.6059C133.784 66.6059 134.704 68.1259 134.704 70.1659V75.5859H133.044V70.3059C133.044 68.8459 132.344 67.9259 130.964 67.9259C129.644 67.9259 128.604 68.9659 128.604 70.5659ZM136.726 73.5459V68.0459H135.406V67.1459L135.966 67.0459C136.786 66.8859 136.966 66.4859 137.166 65.6459L137.426 64.4259H138.366V66.8459H140.826V68.0459H138.366V73.3459C138.366 74.1259 138.686 74.4859 139.446 74.4859C140.006 74.4859 140.586 74.2459 141.086 73.9659V75.0859C140.446 75.5659 139.806 75.8259 138.846 75.8259C137.606 75.8259 136.726 75.2459 136.726 73.5459Z" fill="#333333"/>
<g clip-path="url(#clip0_3821_12019)">
<path d="M82.7949 47.6259H78.2949C77.9964 47.6259 77.7549 47.3844 77.7549 47.0859V2.0859C77.7549 1.7874 77.9964 1.5459 78.2949 1.5459H81.2949C84.0744 1.5459 86.3349 3.8064 86.3349 6.5859V24.5859C86.3349 24.8844 86.0934 25.1259 85.7949 25.1259H83.3349V47.0859C83.3349 47.3844 83.0934 47.6259 82.7949 47.6259ZM78.8349 46.5459H82.2534V24.5859C82.2534 24.2874 82.4949 24.0459 82.7934 24.0459H85.2534V6.5859C85.2534 4.4019 83.4774 2.6259 81.2934 2.6259H78.8334L78.8349 46.5459ZM66.2949 47.6259H61.7949C61.4964 47.6259 61.2549 47.3844 61.2549 47.0859V20.6259H60.2949C58.3434 20.6259 56.7549 19.0374 56.7549 17.0859V2.0859H57.8349V17.0859C57.8349 18.4419 58.9389 19.5459 60.2949 19.5459H61.7949C62.0934 19.5459 62.3349 19.7874 62.3349 20.0859V46.5459H65.7549V20.0859C65.7549 19.7874 65.9964 19.5459 66.2949 19.5459H67.7949C69.1509 19.5459 70.2549 18.4419 70.2549 17.0859V2.0859H71.3349V17.0859C71.3349 19.0374 69.7464 20.6259 67.7949 20.6259H66.8349V47.0859C66.8349 47.3844 66.5934 47.6259 66.2949 47.6259ZM66.8349 14.0859H65.7549V2.0859H66.8349V14.0859ZM62.3349 14.0859H61.2549V2.0859H62.3349V14.0859Z" fill="black"/>
</g>
<defs>
<clipPath id="clip0_3821_12019">
<rect width="48" height="48" fill="white" transform="translate(48.2949 0.585938)"/>
</clipPath>
</defs>
</svg>
