<svg width="124" height="100" viewBox="0 0 124 100" fill="none" xmlns="http://www.w3.org/2000/svg">
<path d="M0.856641 71.0859L2.41664 70.9859C2.51664 73.2859 4.09664 74.4659 6.21664 74.4659C8.09664 74.4659 9.27664 73.6659 9.27664 72.2859C9.27664 71.1259 8.51664 70.5659 6.87664 70.2459L4.37664 69.7659C2.51664 69.4059 1.23664 68.4059 1.23664 66.4459C1.23664 64.2459 2.97664 62.7459 5.73664 62.7459C8.89664 62.7459 10.7166 64.4259 10.7366 67.2659L9.15664 67.3459C9.09664 65.2659 7.83664 64.0859 5.75664 64.0859C3.93664 64.0859 2.91664 64.9459 2.91664 66.3459C2.91664 67.5859 3.73664 67.9859 5.19664 68.2659L7.47664 68.7059C9.77664 69.1459 10.9366 70.1459 10.9366 72.1659C10.9366 74.4859 8.93664 75.8259 6.21664 75.8259C3.11664 75.8259 0.856641 74.1259 0.856641 71.0859ZM19.5885 68.5059C20.0485 67.4259 21.1285 66.6059 22.5285 66.6059C24.8085 66.6059 25.6085 68.1859 25.6085 70.1659V75.5859H23.9485V70.3059C23.9485 68.8459 23.3485 67.9259 22.0085 67.9259C20.7685 67.9259 19.7685 68.9659 19.7685 70.5659V75.5859H18.1085V70.3059C18.1085 68.8459 17.5085 67.9259 16.1685 67.9259C14.9285 67.9259 13.9485 68.9659 13.9485 70.5659V75.5859H12.2885V66.8459H13.9485V68.4059C14.3685 67.3459 15.3885 66.6059 16.7285 66.6059C18.2885 66.6059 19.2085 67.3659 19.5885 68.5059ZM32.7963 71.6859V71.2659L30.8363 71.6859C29.4563 71.9859 28.5763 72.2459 28.5763 73.3059C28.5763 74.0459 29.0763 74.6059 30.0763 74.6059C31.6163 74.6059 32.7963 73.4459 32.7963 71.6859ZM34.3963 69.9459V73.8659C34.3963 74.3259 34.6563 74.5459 35.0763 74.5459C35.2763 74.5459 35.5963 74.4859 35.8363 74.3459V75.2459C35.5363 75.5459 35.1763 75.7659 34.4963 75.7659C33.5963 75.7659 32.9563 75.0859 32.8563 74.0459C32.3763 75.0659 31.1363 75.8259 29.7163 75.8259C28.0163 75.8259 26.9163 74.9059 26.9163 73.4059C26.9163 71.7459 28.3363 71.0659 30.4363 70.6459L32.7963 70.1659V69.8259C32.7963 68.6259 32.0963 67.8859 30.8763 67.8859C29.6163 67.8859 28.9363 68.6259 28.6763 69.6459L27.1963 69.4459C27.5363 67.8059 28.8363 66.6059 30.8963 66.6059C33.0963 66.6059 34.3963 67.7259 34.3963 69.9459ZM36.7015 62.9859H38.3615V75.5859H36.7015V62.9859ZM40.1873 62.9859H41.8473V75.5859H40.1873V62.9859ZM55.7468 69.2059L57.1868 69.2859C56.8068 70.8059 56.1268 72.2459 55.1868 73.3859C55.7868 74.0459 56.3068 74.4459 57.1068 74.4459C57.4068 74.4459 57.7068 74.4259 58.0868 74.3259V75.4059C57.7268 75.6259 57.2268 75.7459 56.7268 75.7459C55.8268 75.7459 55.1468 75.4059 54.1268 74.4259C53.0668 75.3059 51.7868 75.8259 50.3268 75.8259C48.0268 75.8259 46.2268 74.5459 46.2268 72.3659C46.2268 70.6659 47.2668 69.6459 48.9468 68.7459C48.1868 67.8459 47.6268 66.9859 47.6268 65.8459C47.6268 64.0059 49.0268 62.7459 50.9868 62.7459C53.0068 62.7459 54.1068 63.9259 54.1068 65.5459C54.1068 67.1459 53.0868 68.0259 51.2268 68.9659L54.3068 72.3859C54.9868 71.5059 55.4868 70.4059 55.7468 69.2059ZM50.3668 74.4859C51.4468 74.4859 52.4068 74.1059 53.2268 73.4859L53.1868 73.4259L49.7868 69.6859C48.6068 70.3059 47.9068 70.9859 47.9068 72.3259C47.9068 73.6459 48.9668 74.4859 50.3668 74.4859ZM49.2068 65.8259C49.2068 66.6859 49.7668 67.3459 50.4068 68.0459C52.0668 67.2859 52.6268 66.7059 52.6268 65.5859C52.6268 64.7659 52.1068 63.9859 50.9868 63.9859C50.0068 63.9859 49.2068 64.6059 49.2068 65.8259ZM69.042 75.5859H67.582L63.762 64.7459H63.682V75.5859H62.062V62.9859H64.842L68.382 73.2459H68.442L71.802 62.9859H74.542V75.5859H72.802V64.7459H72.722L69.042 75.5859ZM83.1038 72.4859L84.4838 72.6459C84.0438 74.6259 82.5838 75.8259 80.4038 75.8259C77.8038 75.8259 75.9038 74.0659 75.9038 71.3459C75.9038 68.5859 77.8038 66.6059 80.3238 66.6059C83.1038 66.6059 84.5238 68.5859 84.5238 70.9659V71.6259H77.5638C77.6438 73.3259 78.8638 74.5259 80.4238 74.5259C81.8838 74.5259 82.7438 73.8259 83.1038 72.4859ZM77.6038 70.5459H82.8238C82.7638 69.1459 81.9838 67.8659 80.3238 67.8659C78.7438 67.8659 77.8038 69.1059 77.6038 70.5459ZM92.4676 71.4659V70.9659C92.4676 69.0659 91.2676 67.9459 89.6876 67.9459C87.9676 67.9459 87.0076 69.2259 87.0076 71.2259C87.0076 73.2259 87.9676 74.5059 89.6876 74.5059C91.2676 74.5059 92.4676 73.3859 92.4676 71.4659ZM92.4476 75.5859V73.7659C92.0476 74.8459 90.9476 75.8259 89.3076 75.8259C86.7076 75.8259 85.3076 73.8059 85.3076 71.2259C85.3076 68.6459 86.7076 66.6059 89.3076 66.6059C90.9476 66.6059 92.0476 67.6059 92.4476 68.6859V62.9859H94.1076V75.5859H92.4476ZM95.9354 66.8459H97.5954V75.5859H95.9354V66.8459ZM95.8954 64.8659V62.9859H97.6154V64.8659H95.8954ZM105.301 71.8659V66.8459H106.961V75.5859H105.301V74.0459C104.881 75.0859 103.761 75.8259 102.441 75.8259C100.161 75.8259 99.3212 74.3259 99.3212 72.2859V66.8459H100.981V72.1259C100.981 73.5859 101.621 74.5259 103.001 74.5259C104.301 74.5259 105.301 73.4859 105.301 71.8659ZM116.105 68.5059C116.565 67.4259 117.645 66.6059 119.045 66.6059C121.325 66.6059 122.125 68.1859 122.125 70.1659V75.5859H120.465V70.3059C120.465 68.8459 119.865 67.9259 118.525 67.9259C117.285 67.9259 116.285 68.9659 116.285 70.5659V75.5859H114.625V70.3059C114.625 68.8459 114.025 67.9259 112.685 67.9259C111.445 67.9259 110.465 68.9659 110.465 70.5659V75.5859H108.805V66.8459H110.465V68.4059C110.885 67.3459 111.905 66.6059 113.245 66.6059C114.805 66.6059 115.725 67.3659 116.105 68.5059ZM29.9633 96.1259C29.9633 98.3059 28.3633 99.5859 25.4233 99.5859H20.0633V86.9859H25.2033C28.3233 86.9859 29.6033 88.3459 29.6033 90.3459C29.6033 91.8059 28.5633 92.8059 27.2233 93.0459C28.7633 93.3059 29.9633 94.3259 29.9633 96.1259ZM25.3833 93.7659H21.7433V98.1659H25.3833C27.2633 98.1659 28.2433 97.3459 28.2433 95.9859C28.2433 94.6059 27.2633 93.7659 25.3833 93.7659ZM21.7433 88.4059V92.4259H25.2633C27.0833 92.4259 27.8633 91.6459 27.8633 90.4259C27.8633 89.2259 27.0833 88.4059 25.2633 88.4059H21.7433ZM37.2397 95.8659V90.8459H38.8997V99.5859H37.2397V98.0459C36.8197 99.0859 35.6997 99.8259 34.3797 99.8259C32.0997 99.8259 31.2597 98.3259 31.2597 96.2859V90.8459H32.9197V96.1259C32.9197 97.5859 33.5597 98.5259 34.9397 98.5259C36.2397 98.5259 37.2397 97.4859 37.2397 95.8659ZM40.1039 96.6459L41.5039 96.5459C41.6639 97.8859 42.6039 98.6059 44.1039 98.6059C45.2639 98.6059 46.1239 98.1859 46.1239 97.3059C46.1239 96.4859 45.5439 96.2059 44.4639 96.0059L42.9839 95.7459C41.3439 95.4859 40.3639 94.7859 40.3639 93.2859C40.3639 91.6859 41.7039 90.6059 43.7239 90.6059C46.0439 90.6059 47.4039 91.6859 47.5639 93.7059L46.2239 93.7859C46.0239 92.4459 45.2039 91.8259 43.7239 91.8259C42.6239 91.8259 41.9039 92.3259 41.9039 93.1259C41.9039 93.8259 42.3439 94.1859 43.2439 94.3459L44.8839 94.6059C46.6439 94.9059 47.6839 95.5659 47.6839 97.1459C47.6839 98.8859 46.1439 99.8259 44.1039 99.8259C41.9239 99.8259 40.2639 98.8059 40.1039 96.6459ZM48.9562 90.8459H50.6162V99.5859H48.9562V90.8459ZM48.9162 88.8659V86.9859H50.6362V88.8659H48.9162ZM54.102 94.5659V99.5859H52.442V90.8459H54.102V92.4059C54.522 91.3459 55.702 90.6059 57.002 90.6059C59.282 90.6059 60.202 92.1259 60.202 94.1659V99.5859H58.542V94.3059C58.542 92.8459 57.842 91.9259 56.462 91.9259C55.142 91.9259 54.102 92.9659 54.102 94.5659ZM68.5639 96.4859L69.9439 96.6459C69.5039 98.6259 68.0439 99.8259 65.8639 99.8259C63.2639 99.8259 61.3639 98.0659 61.3639 95.3459C61.3639 92.5859 63.2639 90.6059 65.7839 90.6059C68.5639 90.6059 69.9839 92.5859 69.9839 94.9659V95.6259H63.0239C63.1039 97.3259 64.3239 98.5259 65.8839 98.5259C67.3439 98.5259 68.2039 97.8259 68.5639 96.4859ZM63.0639 94.5459H68.2839C68.2239 93.1459 67.4439 91.8659 65.7839 91.8659C64.2039 91.8659 63.2639 93.1059 63.0639 94.5459ZM70.7072 96.6459L72.1072 96.5459C72.2672 97.8859 73.2072 98.6059 74.7072 98.6059C75.8672 98.6059 76.7272 98.1859 76.7272 97.3059C76.7272 96.4859 76.1472 96.2059 75.0672 96.0059L73.5872 95.7459C71.9472 95.4859 70.9672 94.7859 70.9672 93.2859C70.9672 91.6859 72.3072 90.6059 74.3272 90.6059C76.6472 90.6059 78.0072 91.6859 78.1672 93.7059L76.8272 93.7859C76.6272 92.4459 75.8072 91.8259 74.3272 91.8259C73.2272 91.8259 72.5072 92.3259 72.5072 93.1259C72.5072 93.8259 72.9472 94.1859 73.8472 94.3459L75.4872 94.6059C77.2472 94.9059 78.2872 95.5659 78.2872 97.1459C78.2872 98.8859 76.7472 99.8259 74.7072 99.8259C72.5272 99.8259 70.8672 98.8059 70.7072 96.6459ZM78.9195 96.6459L80.3195 96.5459C80.4795 97.8859 81.4195 98.6059 82.9195 98.6059C84.0795 98.6059 84.9395 98.1859 84.9395 97.3059C84.9395 96.4859 84.3595 96.2059 83.2795 96.0059L81.7995 95.7459C80.1595 95.4859 79.1795 94.7859 79.1795 93.2859C79.1795 91.6859 80.5195 90.6059 82.5395 90.6059C84.8595 90.6059 86.2195 91.6859 86.3795 93.7059L85.0395 93.7859C84.8395 92.4459 84.0195 91.8259 82.5395 91.8259C81.4395 91.8259 80.7195 92.3259 80.7195 93.1259C80.7195 93.8259 81.1595 94.1859 82.0595 94.3459L83.6995 94.6059C85.4595 94.9059 86.4995 95.5659 86.4995 97.1459C86.4995 98.8859 84.9595 99.8259 82.9195 99.8259C80.7395 99.8259 79.0795 98.8059 78.9195 96.6459ZM94.4509 96.4859L95.8309 96.6459C95.3909 98.6259 93.9309 99.8259 91.7509 99.8259C89.1509 99.8259 87.2509 98.0659 87.2509 95.3459C87.2509 92.5859 89.1509 90.6059 91.6709 90.6059C94.4509 90.6059 95.8709 92.5859 95.8709 94.9659V95.6259H88.9109C88.9909 97.3259 90.2109 98.5259 91.7709 98.5259C93.2309 98.5259 94.0909 97.8259 94.4509 96.4859ZM88.9509 94.5459H94.1709C94.1109 93.1459 93.3309 91.8659 91.6709 91.8659C90.0909 91.8659 89.1509 93.1059 88.9509 94.5459ZM96.5942 96.6459L97.9942 96.5459C98.1542 97.8859 99.0942 98.6059 100.594 98.6059C101.754 98.6059 102.614 98.1859 102.614 97.3059C102.614 96.4859 102.034 96.2059 100.954 96.0059L99.4742 95.7459C97.8342 95.4859 96.8542 94.7859 96.8542 93.2859C96.8542 91.6859 98.1942 90.6059 100.214 90.6059C102.534 90.6059 103.894 91.6859 104.054 93.7059L102.714 93.7859C102.514 92.4459 101.694 91.8259 100.214 91.8259C99.1142 91.8259 98.3942 92.3259 98.3942 93.1259C98.3942 93.8259 98.8342 94.1859 99.7342 94.3459L101.374 94.6059C103.134 94.9059 104.174 95.5659 104.174 97.1459C104.174 98.8859 102.634 99.8259 100.594 99.8259C98.4142 99.8259 96.7542 98.8059 96.5942 96.6459Z" fill="#333333"/>
<g clip-path="url(#clip0_3821_12006)">
<path d="M87.7949 47.626H42.7949C42.4964 47.626 42.2549 47.3845 42.2549 47.086V2.08596C42.2549 1.78746 42.4964 1.54596 42.7949 1.54596H69.7949C70.0934 1.54596 70.3349 1.78746 70.3349 2.08596V6.04596H78.7949C79.0934 6.04596 79.3349 6.28746 79.3349 6.58596V12.046H87.7949C88.0934 12.046 88.3349 12.2875 88.3349 12.586V47.086C88.3349 47.3845 88.0934 47.626 87.7949 47.626ZM70.3349 46.546H87.2549V13.126H70.3349V46.546ZM59.8349 46.546H69.2549V2.62596H43.3349V46.546H52.7549V35.086C52.7549 34.7875 52.9964 34.546 53.2949 34.546H59.2949C59.5934 34.546 59.8349 34.7875 59.8349 35.086V46.546ZM53.8349 46.546H58.7549V35.626H53.8349V46.546ZM70.3349 12.046H78.2534V7.12596H70.3349V12.046ZM82.3349 38.086H81.2549V35.086H82.3364L82.3349 38.086ZM76.3349 38.086H75.2549V35.086H76.3364L76.3349 38.086ZM65.8349 38.086H64.7549V35.086H65.8349V38.086ZM47.8349 38.086H46.7549V35.086H47.8349V38.086ZM82.3349 29.086H81.2549V26.086H82.3364L82.3349 29.086ZM76.3349 29.086H75.2549V26.086H76.3364L76.3349 29.086ZM65.8349 29.086H64.7549V26.086H65.8349V29.086ZM59.8349 29.086H58.7549V26.086H59.8349V29.086ZM53.8349 29.086H52.7549V26.086H53.8349V29.086ZM47.8349 29.086H46.7549V26.086H47.8349V29.086ZM82.3349 20.086H81.2549V17.086H82.3364L82.3349 20.086ZM76.3349 20.086H75.2549V17.086H76.3364L76.3349 20.086ZM65.8349 20.086H64.7549V17.086H65.8349V20.086ZM59.8349 20.086H58.7549V17.086H59.8349V20.086ZM53.8349 20.086H52.7549V17.086H53.8349V20.086ZM47.8349 20.086H46.7549V17.086H47.8349V20.086ZM65.8349 11.086H64.7549V8.08596H65.8349V11.086ZM59.8349 11.086H58.7549V8.08596H59.8349V11.086ZM53.8349 11.086H52.7549V8.08596H53.8349V11.086ZM47.8349 11.086H46.7549V8.08596H47.8349V11.086Z" fill="black"/>
</g>
<defs>
<clipPath id="clip0_3821_12006">
<rect width="48" height="48" fill="white" transform="translate(41.2949 0.585938)"/>
</clipPath>
</defs>
</svg>
