<svg width="68" height="79" viewBox="0 0 68 79" fill="none" xmlns="http://www.w3.org/2000/svg">
<path d="M0.734922 71.0859L2.29492 70.9859C2.39492 73.2859 3.97492 74.4659 6.09492 74.4659C7.97492 74.4659 9.15492 73.6659 9.15492 72.2859C9.15492 71.1259 8.39492 70.5659 6.75492 70.2459L4.25492 69.7659C2.39492 69.4059 1.11492 68.4059 1.11492 66.4459C1.11492 64.2459 2.85492 62.7459 5.61492 62.7459C8.77492 62.7459 10.5949 64.4259 10.6149 67.2659L9.03492 67.3459C8.97492 65.2659 7.71492 64.0859 5.63492 64.0859C3.81492 64.0859 2.79492 64.9459 2.79492 66.3459C2.79492 67.5859 3.61492 67.9859 5.07492 68.2659L7.35492 68.7059C9.65492 69.1459 10.8149 70.1459 10.8149 72.1659C10.8149 74.4859 8.81492 75.8259 6.09492 75.8259C2.99492 75.8259 0.734922 74.1259 0.734922 71.0859ZM12.5059 73.5459V68.0459H11.1859V67.1459L11.7459 67.0459C12.5659 66.8859 12.7459 66.4859 12.9459 65.6459L13.2059 64.4259H14.1459V66.8459H16.6059V68.0459H14.1459V73.3459C14.1459 74.1259 14.4659 74.4859 15.2259 74.4859C15.7859 74.4859 16.3659 74.2459 16.8659 73.9659V75.0859C16.2259 75.5659 15.5859 75.8259 14.6259 75.8259C13.3859 75.8259 12.5059 75.2459 12.5059 73.5459ZM23.3191 71.6859V71.2659L21.3591 71.6859C19.9791 71.9859 19.0991 72.2459 19.0991 73.3059C19.0991 74.0459 19.5991 74.6059 20.5991 74.6059C22.1391 74.6059 23.3191 73.4459 23.3191 71.6859ZM24.9191 69.9459V73.8659C24.9191 74.3259 25.1791 74.5459 25.5991 74.5459C25.7991 74.5459 26.1191 74.4859 26.3591 74.3459V75.2459C26.0591 75.5459 25.6991 75.7659 25.0191 75.7659C24.1191 75.7659 23.4791 75.0859 23.3791 74.0459C22.8991 75.0659 21.6591 75.8259 20.2391 75.8259C18.5391 75.8259 17.4391 74.9059 17.4391 73.4059C17.4391 71.7459 18.8591 71.0659 20.9591 70.6459L23.3191 70.1659V69.8259C23.3191 68.6259 22.6191 67.8859 21.3991 67.8859C20.1391 67.8859 19.4591 68.6259 19.1991 69.6459L17.7191 69.4459C18.0591 67.8059 19.3591 66.6059 21.4191 66.6059C23.6191 66.6059 24.9191 67.7259 24.9191 69.9459ZM32.6043 67.0059L32.4443 68.5059C31.9643 68.2459 31.6243 68.1459 31.0843 68.1459C29.8243 68.1459 28.8843 69.2859 28.8843 70.9659V75.5859H27.2243V66.8459H28.8843V68.6259C29.2043 67.6259 30.1043 66.6059 31.3643 66.6059C31.9043 66.6059 32.3043 66.7459 32.6043 67.0059ZM33.9398 73.5459V68.0459H32.6198V67.1459L33.1798 67.0459C33.9998 66.8859 34.1798 66.4859 34.3798 65.6459L34.6398 64.4259H35.5798V66.8459H38.0398V68.0459H35.5798V73.3459C35.5798 74.1259 35.8998 74.4859 36.6598 74.4859C37.2198 74.4859 37.7998 74.2459 38.2998 73.9659V75.0859C37.6598 75.5659 37.0198 75.8259 36.0598 75.8259C34.8198 75.8259 33.9398 75.2459 33.9398 73.5459ZM45.193 71.8659V66.8459H46.853V75.5859H45.193V74.0459C44.773 75.0859 43.653 75.8259 42.333 75.8259C40.053 75.8259 39.213 74.3259 39.213 72.2859V66.8459H40.873V72.1259C40.873 73.5859 41.513 74.5259 42.893 74.5259C44.193 74.5259 45.193 73.4859 45.193 71.8659ZM50.3173 70.9659V71.4659C50.3173 73.3859 51.5373 74.5059 53.1173 74.5059C54.8373 74.5059 55.7773 73.2259 55.7773 71.2259C55.7773 69.2259 54.8373 67.9459 53.1173 67.9459C51.5373 67.9459 50.3173 69.0659 50.3173 70.9659ZM50.3573 73.7659V78.9459H48.6973V66.8459H50.3573V68.6859C50.7373 67.6059 51.8573 66.6059 53.4973 66.6059C56.0773 66.6059 57.4973 68.6459 57.4973 71.2259C57.4973 73.8059 56.0773 75.8259 53.4973 75.8259C51.8573 75.8259 50.7373 74.8459 50.3573 73.7659ZM58.1837 72.6459L59.5837 72.5459C59.7437 73.8859 60.6837 74.6059 62.1837 74.6059C63.3437 74.6059 64.2037 74.1859 64.2037 73.3059C64.2037 72.4859 63.6237 72.2059 62.5437 72.0059L61.0637 71.7459C59.4237 71.4859 58.4437 70.7859 58.4437 69.2859C58.4437 67.6859 59.7837 66.6059 61.8037 66.6059C64.1237 66.6059 65.4837 67.6859 65.6437 69.7059L64.3037 69.7859C64.1037 68.4459 63.2837 67.8259 61.8037 67.8259C60.7037 67.8259 59.9837 68.3259 59.9837 69.1259C59.9837 69.8259 60.4237 70.1859 61.3237 70.3459L62.9637 70.6059C64.7237 70.9059 65.7637 71.5659 65.7637 73.1459C65.7637 74.8859 64.2237 75.8259 62.1837 75.8259C60.0037 75.8259 58.3437 74.8059 58.1837 72.6459Z" fill="#333333"/>
<g clip-path="url(#clip0_3821_12007)">
<path d="M38.7948 44.6259C38.7033 44.6259 38.6118 44.6019 38.5293 44.5554C38.3598 44.4594 38.2548 44.2809 38.2548 44.0859V34.0539C38.0913 34.0089 37.9353 33.9444 37.7898 33.8619L30.1758 41.4684L29.4123 40.7034L37.0233 33.0984C36.8523 32.8014 36.7533 32.4549 36.7533 32.0859C36.7533 30.9609 37.6683 30.0459 38.7933 30.0459C39.9183 30.0459 40.8333 30.9609 40.8333 32.0859C40.8333 33.0234 40.1958 33.8154 39.3333 34.0539V43.1334L45.7518 39.2814V26.0859C45.7518 25.9419 45.8088 25.8054 45.9093 25.7049L52.1688 19.4484C54.8058 16.8129 56.2548 13.3119 56.2548 9.5859V5.6259H52.2948C48.5718 5.6259 45.0693 7.0764 42.4368 9.7104L36.1773 15.9669C36.0753 16.0689 35.9388 16.1259 35.7948 16.1259H22.6023L18.7488 22.5459H27.8268C28.0638 21.6819 28.8558 21.0459 29.7948 21.0459C30.9198 21.0459 31.8348 21.9609 31.8348 23.0859C31.8348 24.2109 30.9198 25.1259 29.7948 25.1259C29.4273 25.1259 29.0838 25.0284 28.7853 24.8589L21.1758 32.4684L20.4123 31.7034L28.0203 24.0939C27.9378 23.9484 27.8718 23.7909 27.8268 23.6259H17.7948C17.5998 23.6259 17.4198 23.5209 17.3253 23.3514C17.2308 23.1819 17.2323 22.9749 17.3328 22.8084L21.8343 15.3084C21.9318 15.1464 22.1073 15.0459 22.2963 15.0459H35.5713L41.6718 8.9469C44.5098 6.1089 48.2823 4.5459 52.2948 4.5459H56.7948C57.0933 4.5459 57.3348 4.7874 57.3348 5.0859V9.5859C57.3348 13.5999 55.7718 17.3724 52.9353 20.2104L46.8348 26.3094V39.5859C46.8348 39.7749 46.7358 39.9504 46.5723 40.0494L39.0723 44.5494C38.9868 44.6004 38.8908 44.6259 38.7948 44.6259ZM38.7948 31.1259C38.2653 31.1259 37.8348 31.5564 37.8348 32.0859C37.8348 32.6154 38.2653 33.0459 38.7948 33.0459C39.3243 33.0459 39.7548 32.6154 39.7548 32.0859C39.7548 31.5564 39.3243 31.1259 38.7948 31.1259ZM29.7948 22.1259C29.2653 22.1259 28.8348 22.5564 28.8348 23.0859C28.8348 23.6154 29.2653 24.0459 29.7948 24.0459C30.3243 24.0459 30.7548 23.6154 30.7548 23.0859C30.7548 22.5564 30.3243 22.1259 29.7948 22.1259ZM18.1758 44.4684L17.4123 43.7034L37.0218 24.0954C36.8523 23.7969 36.7548 23.4534 36.7548 23.0859C36.7548 21.9609 37.6698 21.0459 38.7948 21.0459C39.9198 21.0459 40.8348 21.9609 40.8348 23.0859C40.8348 24.2109 39.9198 25.1259 38.7948 25.1259C38.4273 25.1259 38.0838 25.0284 37.7853 24.8589L18.1758 44.4684ZM38.7948 22.1259C38.2653 22.1259 37.8348 22.5564 37.8348 23.0859C37.8348 23.6154 38.2653 24.0459 38.7948 24.0459C39.3243 24.0459 39.7548 23.6154 39.7548 23.0859C39.7548 22.5564 39.3243 22.1259 38.7948 22.1259Z" fill="black"/>
</g>
<defs>
<clipPath id="clip0_3821_12007">
<rect width="48" height="48" fill="white" transform="translate(13.2949 0.585938)"/>
</clipPath>
</defs>
</svg>
