<svg width="102" height="76" viewBox="0 0 102 76" fill="none" xmlns="http://www.w3.org/2000/svg">
<path d="M10.4949 74.1459V75.5859H1.51492V62.9859H10.3149V64.4259H3.19492V68.3859H8.85492V69.8059H3.19492V74.1459H10.4949ZM11.3855 71.2259V69.7459H15.9855V71.2259H11.3855ZM17.3777 71.2259C17.3777 68.4459 19.2177 66.6059 21.8577 66.6059C24.4177 66.6059 25.7977 68.3259 25.9777 70.4259L24.5177 70.5259C24.3777 68.9859 23.4577 67.9459 21.8377 67.9459C20.1977 67.9459 19.0777 69.2059 19.0777 71.2259C19.0777 73.2459 20.1977 74.5059 21.8377 74.5059C23.4577 74.5059 24.3777 73.4059 24.5177 71.8659L25.9777 72.0059C25.7977 74.1259 24.4177 75.8259 21.8577 75.8259C19.2177 75.8259 17.3777 74.0059 17.3777 71.2259ZM28.4424 71.2259C28.4424 73.1659 29.4224 74.5459 31.1824 74.5459C32.9624 74.5459 33.9624 73.1659 33.9624 71.2259C33.9624 69.2659 32.9624 67.9059 31.1824 67.9059C29.4224 67.9059 28.4424 69.2659 28.4424 71.2259ZM35.6624 71.2259C35.6624 73.9459 33.7624 75.8259 31.1824 75.8259C28.6224 75.8259 26.7424 73.9459 26.7424 71.2259C26.7424 68.5059 28.6224 66.6059 31.1824 66.6059C33.7624 66.6059 35.6624 68.5059 35.6624 71.2259ZM44.2405 68.5059C44.7005 67.4259 45.7805 66.6059 47.1805 66.6059C49.4605 66.6059 50.2605 68.1859 50.2605 70.1659V75.5859H48.6005V70.3059C48.6005 68.8459 48.0005 67.9259 46.6605 67.9259C45.4205 67.9259 44.4205 68.9659 44.4205 70.5659V75.5859H42.7605V70.3059C42.7605 68.8459 42.1605 67.9259 40.8205 67.9259C39.5805 67.9259 38.6005 68.9659 38.6005 70.5659V75.5859H36.9405V66.8459H38.6005V68.4059C39.0205 67.3459 40.0405 66.6059 41.3805 66.6059C42.9405 66.6059 43.8605 67.3659 44.2405 68.5059ZM59.3084 68.5059C59.7684 67.4259 60.8484 66.6059 62.2484 66.6059C64.5284 66.6059 65.3284 68.1859 65.3284 70.1659V75.5859H63.6684V70.3059C63.6684 68.8459 63.0684 67.9259 61.7284 67.9259C60.4884 67.9259 59.4884 68.9659 59.4884 70.5659V75.5859H57.8284V70.3059C57.8284 68.8459 57.2284 67.9259 55.8884 67.9259C54.6484 67.9259 53.6684 68.9659 53.6684 70.5659V75.5859H52.0084V66.8459H53.6684V68.4059C54.0884 67.3459 55.1084 66.6059 56.4484 66.6059C58.0084 66.6059 58.9284 67.3659 59.3084 68.5059ZM73.7162 72.4859L75.0962 72.6459C74.6562 74.6259 73.1962 75.8259 71.0162 75.8259C68.4162 75.8259 66.5162 74.0659 66.5162 71.3459C66.5162 68.5859 68.4162 66.6059 70.9362 66.6059C73.7162 66.6059 75.1362 68.5859 75.1362 70.9659V71.6259H68.1762C68.2562 73.3259 69.4762 74.5259 71.0362 74.5259C72.4962 74.5259 73.3562 73.8259 73.7162 72.4859ZM68.2162 70.5459H73.4362C73.3762 69.1459 72.5962 67.8659 70.9362 67.8659C69.3562 67.8659 68.4162 69.1059 68.2162 70.5459ZM81.8013 67.0059L81.6413 68.5059C81.1613 68.2459 80.8213 68.1459 80.2813 68.1459C79.0213 68.1459 78.0813 69.2859 78.0813 70.9659V75.5859H76.4213V66.8459H78.0813V68.6259C78.4013 67.6259 79.3013 66.6059 80.5613 66.6059C81.1013 66.6059 81.5013 66.7459 81.8013 67.0059ZM81.7885 71.2259C81.7885 68.4459 83.6285 66.6059 86.2685 66.6059C88.8285 66.6059 90.2085 68.3259 90.3885 70.4259L88.9285 70.5259C88.7885 68.9859 87.8685 67.9459 86.2485 67.9459C84.6085 67.9459 83.4885 69.2059 83.4885 71.2259C83.4885 73.2459 84.6085 74.5059 86.2485 74.5059C87.8685 74.5059 88.7885 73.4059 88.9285 71.8659L90.3885 72.0059C90.2085 74.1259 88.8285 75.8259 86.2685 75.8259C83.6285 75.8259 81.7885 74.0059 81.7885 71.2259ZM98.3532 72.4859L99.7332 72.6459C99.2932 74.6259 97.8332 75.8259 95.6532 75.8259C93.0532 75.8259 91.1532 74.0659 91.1532 71.3459C91.1532 68.5859 93.0532 66.6059 95.5732 66.6059C98.3532 66.6059 99.7732 68.5859 99.7732 70.9659V71.6259H92.8132C92.8932 73.3259 94.1132 74.5259 95.6732 74.5259C97.1332 74.5259 97.9932 73.8259 98.3532 72.4859ZM92.8532 70.5459H98.0732C98.0132 69.1459 97.2332 67.8659 95.5732 67.8659C93.9932 67.8659 93.0532 69.1059 92.8532 70.5459Z" fill="#333333"/>
<g clip-path="url(#clip0_3821_12008)">
<path d="M65.2949 47.626C63.3419 47.626 61.7549 46.0375 61.7549 44.086C61.7549 42.1345 63.3434 40.546 65.2949 40.546C67.2464 40.546 68.8349 42.1345 68.8349 44.086C68.8349 46.0375 67.2479 47.626 65.2949 47.626ZM65.2949 41.626C63.9389 41.626 62.8349 42.7285 62.8349 44.086C62.8349 45.4435 63.9374 46.546 65.2949 46.546C66.6524 46.546 67.7549 45.4435 67.7549 44.086C67.7549 42.7285 66.6509 41.626 65.2949 41.626ZM45.0449 47.626C43.0934 47.626 41.5049 46.0375 41.5049 44.086C41.5049 42.1345 43.0934 40.546 45.0449 40.546C46.9964 40.546 48.5849 42.1345 48.5849 44.086C48.5849 46.0375 46.9964 47.626 45.0449 47.626ZM45.0449 41.626C43.6889 41.626 42.5849 42.7285 42.5849 44.086C42.5849 45.4435 43.6889 46.546 45.0449 46.546C46.4009 46.546 47.5049 45.4435 47.5049 44.086C47.5049 42.7285 46.4009 41.626 45.0449 41.626ZM69.7949 38.626H44.7734C41.6999 38.626 40.0754 36.9625 39.1649 32.8855L31.8704 2.62596H27.7949V1.54596H32.2949C32.5439 1.54596 32.7614 1.71546 32.8199 1.95846L35.3804 12.4915L35.3999 12.487L38.4029 24.931C39.2879 28.4185 40.7264 30.0445 42.9299 30.0445H54.5542H66.1784C68.2199 30.0445 69.4109 28.861 69.8159 26.4265L72.1709 10.126H39.7949V9.04596H72.7949C72.9509 9.04596 73.1009 9.11346 73.2029 9.23196C73.3049 9.35046 73.3514 9.50796 73.3289 9.66246L70.8809 26.5945C70.2569 30.3415 67.9769 31.126 66.1754 31.126H42.9284C41.5664 31.126 40.4294 30.646 39.5084 29.6695L40.2194 32.641C41.0279 36.2635 42.2189 37.5445 44.7749 37.5445H69.7949V38.626Z" fill="black"/>
</g>
<defs>
<clipPath id="clip0_3821_12008">
<rect width="48" height="48" fill="white" transform="translate(26.2949 0.585938)"/>
</clipPath>
</defs>
</svg>
