<svg width="159" height="76" viewBox="0 0 159 76" fill="none" xmlns="http://www.w3.org/2000/svg">
<path d="M3.25492 75.5859H1.51492V62.9859H3.25492V68.3859H10.4949V62.9859H12.2349V75.5859H10.4949V69.8059H3.25492V75.5859ZM20.799 72.4859L22.179 72.6459C21.739 74.6259 20.279 75.8259 18.099 75.8259C15.499 75.8259 13.599 74.0659 13.599 71.3459C13.599 68.5859 15.499 66.6059 18.019 66.6059C20.799 66.6059 22.219 68.5859 22.219 70.9659V71.6259H15.259C15.339 73.3259 16.559 74.5259 18.119 74.5259C19.579 74.5259 20.439 73.8259 20.799 72.4859ZM15.299 70.5459H20.519C20.459 69.1459 19.679 67.8659 18.019 67.8659C16.439 67.8659 15.499 69.1059 15.299 70.5459ZM28.9441 71.6859V71.2659L26.9841 71.6859C25.6041 71.9859 24.7241 72.2459 24.7241 73.3059C24.7241 74.0459 25.2241 74.6059 26.2241 74.6059C27.7641 74.6059 28.9441 73.4459 28.9441 71.6859ZM30.5441 69.9459V73.8659C30.5441 74.3259 30.8041 74.5459 31.2241 74.5459C31.4241 74.5459 31.7441 74.4859 31.9841 74.3459V75.2459C31.6841 75.5459 31.3241 75.7659 30.6441 75.7659C29.7441 75.7659 29.1041 75.0859 29.0041 74.0459C28.5241 75.0659 27.2841 75.8259 25.8641 75.8259C24.1641 75.8259 23.0641 74.9059 23.0641 73.4059C23.0641 71.7459 24.4841 71.0659 26.5841 70.6459L28.9441 70.1659V69.8259C28.9441 68.6259 28.2441 67.8859 27.0241 67.8859C25.7641 67.8859 25.0841 68.6259 24.8241 69.6459L23.3441 69.4459C23.6841 67.8059 24.9841 66.6059 27.0441 66.6059C29.2441 66.6059 30.5441 67.7259 30.5441 69.9459ZM32.8493 62.9859H34.5093V75.5859H32.8493V62.9859ZM36.6351 73.5459V68.0459H35.3151V67.1459L35.8751 67.0459C36.6951 66.8859 36.8751 66.4859 37.0751 65.6459L37.3351 64.4259H38.2751V66.8459H40.7351V68.0459H38.2751V73.3459C38.2751 74.1259 38.5951 74.4859 39.3551 74.4859C39.9151 74.4859 40.4951 74.2459 40.9951 73.9659V75.0859C40.3551 75.5659 39.7151 75.8259 38.7551 75.8259C37.5151 75.8259 36.6351 75.2459 36.6351 73.5459ZM43.6684 70.5659V75.5859H42.0084V62.9859H43.6684V68.4059C44.0884 67.3459 45.2684 66.6059 46.5684 66.6059C48.8484 66.6059 49.7684 68.1259 49.7684 70.1659V75.5859H48.1084V70.3059C48.1084 68.8459 47.4084 67.9259 46.0284 67.9259C44.7084 67.9259 43.6684 68.9659 43.6684 70.5659ZM50.9302 71.2259C50.9302 68.4459 52.7702 66.6059 55.4102 66.6059C57.9702 66.6059 59.3502 68.3259 59.5302 70.4259L58.0702 70.5259C57.9302 68.9859 57.0102 67.9459 55.3902 67.9459C53.7502 67.9459 52.6302 69.2059 52.6302 71.2259C52.6302 73.2459 53.7502 74.5059 55.3902 74.5059C57.0102 74.5059 57.9302 73.4059 58.0702 71.8659L59.5302 72.0059C59.3502 74.1259 57.9702 75.8259 55.4102 75.8259C52.7702 75.8259 50.9302 74.0059 50.9302 71.2259ZM66.2363 71.6859V71.2659L64.2763 71.6859C62.8963 71.9859 62.0163 72.2459 62.0163 73.3059C62.0163 74.0459 62.5163 74.6059 63.5163 74.6059C65.0563 74.6059 66.2363 73.4459 66.2363 71.6859ZM67.8363 69.9459V73.8659C67.8363 74.3259 68.0963 74.5459 68.5163 74.5459C68.7163 74.5459 69.0363 74.4859 69.2763 74.3459V75.2459C68.9763 75.5459 68.6163 75.7659 67.9363 75.7659C67.0363 75.7659 66.3963 75.0859 66.2963 74.0459C65.8163 75.0659 64.5763 75.8259 63.1563 75.8259C61.4563 75.8259 60.3563 74.9059 60.3563 73.4059C60.3563 71.7459 61.7763 71.0659 63.8763 70.6459L66.2363 70.1659V69.8259C66.2363 68.6259 65.5363 67.8859 64.3163 67.8859C63.0563 67.8859 62.3763 68.6259 62.1163 69.6459L60.6363 69.4459C60.9763 67.8059 62.2763 66.6059 64.3363 66.6059C66.5363 66.6059 67.8363 67.7259 67.8363 69.9459ZM75.5215 67.0059L75.3615 68.5059C74.8815 68.2459 74.5415 68.1459 74.0015 68.1459C72.7415 68.1459 71.8015 69.2859 71.8015 70.9659V75.5859H70.1415V66.8459H71.8015V68.6259C72.1215 67.6259 73.0215 66.6059 74.2815 66.6059C74.8215 66.6059 75.2215 66.7459 75.5215 67.0059ZM82.7087 72.4859L84.0887 72.6459C83.6487 74.6259 82.1887 75.8259 80.0087 75.8259C77.4087 75.8259 75.5087 74.0659 75.5087 71.3459C75.5087 68.5859 77.4087 66.6059 79.9287 66.6059C82.7087 66.6059 84.1287 68.5859 84.1287 70.9659V71.6259H77.1687C77.2487 73.3259 78.4687 74.5259 80.0287 74.5259C81.4887 74.5259 82.3487 73.8259 82.7087 72.4859ZM77.2087 70.5459H82.4287C82.3687 69.1459 81.5887 67.8659 79.9287 67.8659C78.3487 67.8659 77.4087 69.1059 77.2087 70.5459ZM97.4876 69.2059L98.9276 69.2859C98.5476 70.8059 97.8676 72.2459 96.9276 73.3859C97.5276 74.0459 98.0476 74.4459 98.8476 74.4459C99.1476 74.4459 99.4476 74.4259 99.8276 74.3259V75.4059C99.4676 75.6259 98.9676 75.7459 98.4676 75.7459C97.5676 75.7459 96.8876 75.4059 95.8676 74.4259C94.8076 75.3059 93.5276 75.8259 92.0676 75.8259C89.7676 75.8259 87.9676 74.5459 87.9676 72.3659C87.9676 70.6659 89.0076 69.6459 90.6876 68.7459C89.9276 67.8459 89.3676 66.9859 89.3676 65.8459C89.3676 64.0059 90.7676 62.7459 92.7276 62.7459C94.7476 62.7459 95.8476 63.9259 95.8476 65.5459C95.8476 67.1459 94.8276 68.0259 92.9676 68.9659L96.0476 72.3859C96.7276 71.5059 97.2276 70.4059 97.4876 69.2059ZM92.1076 74.4859C93.1876 74.4859 94.1476 74.1059 94.9676 73.4859L94.9276 73.4259L91.5276 69.6859C90.3476 70.3059 89.6476 70.9859 89.6476 72.3259C89.6476 73.6459 90.7076 74.4859 92.1076 74.4859ZM90.9476 65.8259C90.9476 66.6859 91.5076 67.3459 92.1476 68.0459C93.8076 67.2859 94.3676 66.7059 94.3676 65.5859C94.3676 64.7659 93.8476 63.9859 92.7276 63.9859C91.7476 63.9859 90.9476 64.6059 90.9476 65.8259ZM105.523 75.5859H103.803V62.9859H112.403V64.4259H105.523V68.6059H110.923V70.0459H105.523V75.5859ZM113.595 66.8459H115.255V75.5859H113.595V66.8459ZM113.555 64.8659V62.9859H115.275V64.8659H113.555ZM117.381 73.5459V68.0459H116.061V67.1459L116.621 67.0459C117.441 66.8859 117.621 66.4859 117.821 65.6459L118.081 64.4259H119.021V66.8459H121.481V68.0459H119.021V73.3459C119.021 74.1259 119.341 74.4859 120.101 74.4859C120.661 74.4859 121.241 74.2459 121.741 73.9659V75.0859C121.101 75.5659 120.461 75.8259 119.501 75.8259C118.261 75.8259 117.381 75.2459 117.381 73.5459ZM124.414 70.5659V75.5859H122.754V66.8459H124.414V68.4059C124.834 67.3459 126.014 66.6059 127.314 66.6059C129.594 66.6059 130.514 68.1259 130.514 70.1659V75.5859H128.854V70.3059C128.854 68.8459 128.154 67.9259 126.774 67.9259C125.454 67.9259 124.414 68.9659 124.414 70.5659ZM138.876 72.4859L140.256 72.6459C139.816 74.6259 138.356 75.8259 136.176 75.8259C133.576 75.8259 131.676 74.0659 131.676 71.3459C131.676 68.5859 133.576 66.6059 136.096 66.6059C138.876 66.6059 140.296 68.5859 140.296 70.9659V71.6259H133.336C133.416 73.3259 134.636 74.5259 136.196 74.5259C137.656 74.5259 138.516 73.8259 138.876 72.4859ZM133.376 70.5459H138.596C138.536 69.1459 137.756 67.8659 136.096 67.8659C134.516 67.8659 133.576 69.1059 133.376 70.5459ZM141.019 72.6459L142.419 72.5459C142.579 73.8859 143.519 74.6059 145.019 74.6059C146.179 74.6059 147.039 74.1859 147.039 73.3059C147.039 72.4859 146.459 72.2059 145.379 72.0059L143.899 71.7459C142.259 71.4859 141.279 70.7859 141.279 69.2859C141.279 67.6859 142.619 66.6059 144.639 66.6059C146.959 66.6059 148.319 67.6859 148.479 69.7059L147.139 69.7859C146.939 68.4459 146.119 67.8259 144.639 67.8259C143.539 67.8259 142.819 68.3259 142.819 69.1259C142.819 69.8259 143.259 70.1859 144.159 70.3459L145.799 70.6059C147.559 70.9059 148.599 71.5659 148.599 73.1459C148.599 74.8859 147.059 75.8259 145.019 75.8259C142.839 75.8259 141.179 74.8059 141.019 72.6459ZM149.232 72.6459L150.632 72.5459C150.792 73.8859 151.732 74.6059 153.232 74.6059C154.392 74.6059 155.252 74.1859 155.252 73.3059C155.252 72.4859 154.672 72.2059 153.592 72.0059L152.112 71.7459C150.472 71.4859 149.492 70.7859 149.492 69.2859C149.492 67.6859 150.832 66.6059 152.852 66.6059C155.172 66.6059 156.532 67.6859 156.692 69.7059L155.352 69.7859C155.152 68.4459 154.332 67.8259 152.852 67.8259C151.752 67.8259 151.032 68.3259 151.032 69.1259C151.032 69.8259 151.472 70.1859 152.372 70.3459L154.012 70.6059C155.772 70.9059 156.812 71.5659 156.812 73.1459C156.812 74.8859 155.272 75.8259 153.232 75.8259C151.052 75.8259 149.392 74.8059 149.232 72.6459Z" fill="#333333"/>
<g clip-path="url(#clip0_3821_12009)">
<path d="M82.7949 43.336C81.9669 43.336 81.2949 42.664 81.2949 41.836C81.2949 41.008 81.9669 40.336 82.7949 40.336C83.6229 40.336 84.2949 41.008 84.2949 41.836C84.2949 42.664 83.6229 43.336 82.7949 43.336ZM96.8349 47.086V25.126H108.295C110.248 25.126 111.835 23.5375 111.835 21.586V9.58596C111.835 7.63446 110.246 6.04596 108.295 6.04596H96.8349V2.08596C96.8349 1.78746 96.5934 1.54596 96.2949 1.54596H69.2949C68.9964 1.54596 68.7549 1.78746 68.7549 2.08596V47.086C68.7549 47.3845 68.9964 47.626 69.2949 47.626H96.2949C96.5934 47.626 96.8349 47.3845 96.8349 47.086ZM69.8349 37.126H95.7549V46.5445H69.8349V37.126ZM69.8349 2.62596H95.7549V6.04596H91.7949C89.8434 6.04596 88.2549 7.63446 88.2549 9.58596V30.586C88.2549 30.805 88.3854 31.0015 88.5879 31.0855C88.7889 31.165 89.0229 31.1215 89.1759 30.9685L95.0184 25.126H95.7534V36.046H69.8349V2.62596ZM108.295 7.12596C109.651 7.12596 110.755 8.22996 110.755 9.58596V21.586C110.755 22.942 109.652 24.046 108.295 24.046H94.7949C94.6509 24.046 94.5129 24.103 94.4124 24.2035L89.3349 29.281V9.58596C89.3349 8.22996 90.4389 7.12596 91.7949 7.12596H108.295ZM102.085 21.586V17.626H106.045C106.343 17.626 106.585 17.3845 106.585 17.086V14.086C106.585 13.7875 106.343 13.546 106.045 13.546H102.085V9.58596C102.085 9.28746 101.843 9.04596 101.545 9.04596H98.5449C98.2464 9.04596 98.0049 9.28746 98.0049 9.58596V13.546H94.0449C93.7464 13.546 93.5049 13.7875 93.5049 14.086V17.086C93.5049 17.3845 93.7464 17.626 94.0449 17.626H98.0049V21.586C98.0049 21.8845 98.2464 22.126 98.5449 22.126H101.545C101.843 22.126 102.085 21.8845 102.085 21.586ZM99.0849 17.086C99.0849 16.7875 98.8434 16.546 98.5449 16.546H94.5849V14.626H98.5449C98.8434 14.626 99.0849 14.3845 99.0849 14.086V10.126H101.003V14.086C101.003 14.3845 101.245 14.626 101.543 14.626H105.503V16.546H101.545C101.246 16.546 101.005 16.7875 101.005 17.086V21.046H99.0849V17.086Z" fill="black"/>
</g>
<defs>
<clipPath id="clip0_3821_12009">
<rect width="48" height="48" fill="white" transform="translate(66.2949 0.585938)"/>
</clipPath>
</defs>
</svg>
