<svg width="53" height="76" viewBox="0 0 53 76" fill="none" xmlns="http://www.w3.org/2000/svg">
<path d="M10.4949 74.1459V75.5859H1.51492V62.9859H10.3149V64.4259H3.19492V68.3859H8.85492V69.8059H3.19492V74.1459H10.4949ZM15.547 75.5859H13.927L10.327 66.8459H12.067L14.787 73.5659H14.867L17.527 66.8459H19.147L15.547 75.5859ZM26.4723 72.4859L27.8523 72.6459C27.4123 74.6259 25.9523 75.8259 23.7723 75.8259C21.1723 75.8259 19.2723 74.0659 19.2723 71.3459C19.2723 68.5859 21.1723 66.6059 23.6923 66.6059C26.4723 66.6059 27.8923 68.5859 27.8923 70.9659V71.6259H20.9323C21.0123 73.3259 22.2323 74.5259 23.7923 74.5259C25.2523 74.5259 26.1123 73.8259 26.4723 72.4859ZM20.9723 70.5459H26.1923C26.1323 69.1459 25.3523 67.8659 23.6923 67.8659C22.1123 67.8659 21.1723 69.1059 20.9723 70.5459ZM30.8374 70.5659V75.5859H29.1774V66.8459H30.8374V68.4059C31.2574 67.3459 32.4374 66.6059 33.7374 66.6059C36.0174 66.6059 36.9374 68.1259 36.9374 70.1659V75.5859H35.2774V70.3059C35.2774 68.8459 34.5774 67.9259 33.1974 67.9259C31.8774 67.9259 30.8374 68.9659 30.8374 70.5659ZM38.9593 73.5459V68.0459H37.6393V67.1459L38.1993 67.0459C39.0193 66.8859 39.1993 66.4859 39.3993 65.6459L39.6593 64.4259H40.5993V66.8459H43.0593V68.0459H40.5993V73.3459C40.5993 74.1259 40.9193 74.4859 41.6793 74.4859C42.2393 74.4859 42.8193 74.2459 43.3193 73.9659V75.0859C42.6793 75.5659 42.0393 75.8259 41.0793 75.8259C39.8393 75.8259 38.9593 75.2459 38.9593 73.5459ZM43.6926 72.6459L45.0926 72.5459C45.2526 73.8859 46.1926 74.6059 47.6926 74.6059C48.8526 74.6059 49.7126 74.1859 49.7126 73.3059C49.7126 72.4859 49.1326 72.2059 48.0526 72.0059L46.5726 71.7459C44.9326 71.4859 43.9526 70.7859 43.9526 69.2859C43.9526 67.6859 45.2926 66.6059 47.3126 66.6059C49.6326 66.6059 50.9926 67.6859 51.1526 69.7059L49.8126 69.7859C49.6126 68.4459 48.7926 67.8259 47.3126 67.8259C46.2126 67.8259 45.4926 68.3259 45.4926 69.1259C45.4926 69.8259 45.9326 70.1859 46.8326 70.3459L48.4726 70.6059C50.2326 70.9059 51.2726 71.5659 51.2726 73.1459C51.2726 74.8859 49.7326 75.8259 47.6926 75.8259C45.5126 75.8259 43.8526 74.8059 43.6926 72.6459Z" fill="#333333"/>
<g clip-path="url(#clip0_3821_12010)">
<path d="M25.2949 4.54594C14.2444 4.54594 5.25492 13.5354 5.25492 24.5859C5.25492 33.6624 11.3239 41.3379 19.6144 43.7934L18.7744 46.9464C18.7624 46.9929 18.7654 47.0394 18.7654 47.0859H19.8544L20.6599 44.0634C22.1509 44.4189 23.6974 44.6259 25.2949 44.6259C26.8924 44.6259 28.4389 44.4174 29.9299 44.0634L30.7369 47.0859H31.8259C31.8259 47.0394 31.8304 46.9929 31.8169 46.9464L30.9769 43.7934C39.2659 41.3379 45.3349 33.6624 45.3349 24.5859C45.3349 13.5354 36.3454 4.54594 25.2949 4.54594ZM25.2949 43.5459C23.7934 43.5459 22.3399 43.3524 20.9374 43.0209L21.4309 41.1684C22.6744 41.4579 23.9629 41.6274 25.2934 41.6274C26.6239 41.6274 27.9124 41.4594 29.1559 41.1684L29.6494 43.0209C28.2499 43.3509 26.7964 43.5459 25.2949 43.5459ZM25.2949 26.6814L28.8799 40.1244C27.7249 40.3914 26.5294 40.5459 25.2949 40.5459C24.0604 40.5459 22.8649 40.3914 21.7099 40.1244L25.2949 26.6814ZM20.6644 39.8559C14.1169 37.8654 9.33492 31.7769 9.33492 24.5859C9.33492 15.7854 16.4944 8.62594 25.2949 8.62594C34.0954 8.62594 41.2549 15.7854 41.2549 24.5859C41.2549 31.7769 36.4744 37.8654 29.9254 39.8559L25.8169 24.4479C25.6909 23.9769 24.9004 23.9769 24.7744 24.4479L20.6644 39.8559ZM30.6979 42.7509L30.2044 40.8984C37.2124 38.7849 42.3349 32.2749 42.3349 24.5859C42.3349 15.1899 34.6894 7.54594 25.2949 7.54594C15.8989 7.54594 8.25492 15.1899 8.25492 24.5859C8.25492 32.2749 13.3774 38.7849 20.3854 40.8984L19.8919 42.7509C12.0634 40.4184 6.33492 33.1629 6.33492 24.5859C6.33492 14.1309 14.8399 5.62594 25.2949 5.62594C35.7499 5.62594 44.2549 14.1309 44.2549 24.5859C44.2549 33.1629 38.5264 40.4184 30.6979 42.7509ZM24.5449 2.08594C24.5449 1.67194 24.8809 1.33594 25.2949 1.33594C25.7089 1.33594 26.0449 1.67194 26.0449 2.08594C26.0449 2.49994 25.7089 2.83594 25.2949 2.83594C24.8809 2.83594 24.5449 2.49994 24.5449 2.08594ZM26.0449 47.0859C26.0449 47.4999 25.7089 47.8359 25.2949 47.8359C24.8809 47.8359 24.5449 47.4999 24.5449 47.0859C24.5449 46.6719 24.8809 46.3359 25.2949 46.3359C25.7089 46.3359 26.0449 46.6719 26.0449 47.0859ZM18.7474 3.04744C18.6409 2.64694 18.8779 2.23594 19.2784 2.12944C19.6789 2.02294 20.0899 2.25994 20.1964 2.66044C20.3029 3.06094 20.0659 3.47194 19.6654 3.57844C19.2649 3.68494 18.8539 3.44644 18.7474 3.04744ZM13.3954 5.47594C13.1884 5.11594 13.3114 4.65844 13.6699 4.45144C14.0284 4.24444 14.4874 4.36594 14.6944 4.72594C14.9014 5.08444 14.7784 5.54344 14.4199 5.75044C14.0614 5.95744 13.6024 5.83444 13.3954 5.47594ZM37.1944 43.6959C37.4014 44.0544 37.2784 44.5134 36.9199 44.7204C36.5614 44.9274 36.1024 44.8044 35.8954 44.4459C35.6884 44.0874 35.8114 43.6284 36.1699 43.4214C36.5284 43.2144 36.9874 43.3374 37.1944 43.6959ZM8.85492 9.20644C8.56242 8.91394 8.56242 8.43844 8.85492 8.14594C9.14742 7.85344 9.62292 7.85344 9.91542 8.14594C10.2079 8.43844 10.2079 8.91394 9.91542 9.20644C9.62292 9.49894 9.14742 9.49894 8.85492 9.20644ZM41.7349 39.9654C42.0274 40.2579 42.0274 40.7334 41.7349 41.0259C41.4424 41.3184 40.9669 41.3184 40.6744 41.0259C40.3819 40.7334 40.3819 40.2579 40.6744 39.9654C40.9669 39.6729 41.4424 39.6729 41.7349 39.9654ZM5.16042 12.9609C5.36742 12.6024 5.82492 12.4794 6.18492 12.6864C6.54342 12.8934 6.66642 13.3524 6.45942 13.7109C6.25242 14.0694 5.79342 14.1924 5.43492 13.9854C5.07492 13.7784 4.95342 13.3194 5.16042 12.9609ZM45.4294 36.2109C45.2224 36.5694 44.7634 36.6924 44.4049 36.4854C44.0464 36.2784 43.9234 35.8194 44.1304 35.4609C44.3374 35.1024 44.7964 34.9794 45.1549 35.1864C45.5149 35.3934 45.6364 35.8524 45.4294 36.2109ZM4.28592 18.9564C4.17942 19.3569 3.76692 19.5939 3.36792 19.4874C2.96892 19.3809 2.73042 18.9684 2.83692 18.5694C2.94342 18.1704 3.35592 17.9319 3.75492 18.0384C4.15542 18.1449 4.39392 18.5559 4.28592 18.9564ZM47.7529 30.6039C47.6464 31.0044 47.2339 31.2414 46.8349 31.1349C46.4359 31.0284 46.1974 30.6159 46.3039 30.2169C46.4104 29.8179 46.8229 29.5794 47.2219 29.6859C47.6209 29.7924 47.8594 30.2034 47.7529 30.6039ZM2.79492 25.3359C2.38092 25.3359 2.04492 24.9999 2.04492 24.5859C2.04492 24.1719 2.38092 23.8359 2.79492 23.8359C3.20892 23.8359 3.54492 24.1719 3.54492 24.5859C3.54492 24.9999 3.20892 25.3359 2.79492 25.3359ZM48.5449 24.5859C48.5449 24.9999 48.2089 25.3359 47.7949 25.3359C47.3809 25.3359 47.0449 24.9999 47.0449 24.5859C47.0449 24.1719 47.3809 23.8359 47.7949 23.8359C48.2089 23.8359 48.5449 24.1719 48.5449 24.5859ZM4.28592 30.2154C4.39242 30.6159 4.15542 31.0269 3.75492 31.1334C3.35442 31.2399 2.94492 31.0029 2.83692 30.6039C2.73042 30.2034 2.96742 29.7924 3.36792 29.6859C3.76842 29.5794 4.17942 29.8149 4.28592 30.2154ZM46.3039 18.9564C46.1974 18.5559 46.4344 18.1449 46.8349 18.0384C47.2354 17.9319 47.6464 18.1689 47.7529 18.5694C47.8594 18.9699 47.6224 19.3809 47.2219 19.4874C46.8214 19.5939 46.4104 19.3569 46.3039 18.9564ZM6.45942 35.4609C6.66642 35.8194 6.54342 36.2784 6.18492 36.4854C5.82642 36.6924 5.36742 36.5694 5.16042 36.2109C4.95342 35.8524 5.07492 35.3934 5.43492 35.1864C5.79342 34.9794 6.25242 35.1024 6.45942 35.4609ZM45.4294 12.9609C45.6364 13.3194 45.5134 13.7784 45.1549 13.9854C44.7964 14.1924 44.3374 14.0694 44.1304 13.7109C43.9234 13.3524 44.0464 12.8934 44.4049 12.6864C44.7649 12.4794 45.2224 12.6024 45.4294 12.9609ZM9.91542 39.9654C10.2079 40.2579 10.2079 40.7334 9.91542 41.0259C9.62292 41.3184 9.14742 41.3184 8.85492 41.0259C8.56242 40.7334 8.56242 40.2579 8.85492 39.9654C9.14742 39.6729 9.62292 39.6729 9.91542 39.9654ZM40.6744 9.20644C40.3819 8.91394 40.3819 8.43844 40.6744 8.14594C40.9669 7.85344 41.4424 7.85344 41.7349 8.14594C42.0274 8.43844 42.0274 8.91394 41.7349 9.20644C41.4424 9.49894 40.9669 9.49894 40.6744 9.20644ZM14.6944 44.4459C14.4874 44.8044 14.0284 44.9274 13.6699 44.7204C13.3114 44.5134 13.1884 44.0544 13.3954 43.6959C13.6024 43.3374 14.0614 43.2144 14.4199 43.4214C14.7784 43.6284 14.9014 44.0874 14.6944 44.4459ZM35.8954 4.72594C36.1024 4.36744 36.5614 4.24444 36.9199 4.45144C37.2784 4.65844 37.4014 5.11744 37.1944 5.47594C36.9874 5.83444 36.5284 5.95744 36.1699 5.75044C35.8114 5.54344 35.6884 5.08444 35.8954 4.72594ZM30.3934 2.65894C30.4999 2.25844 30.9124 2.02144 31.3114 2.12794C31.7119 2.23444 31.9489 2.64694 31.8424 3.04594C31.7359 3.44494 31.3234 3.68344 30.9244 3.57694C30.5254 3.47044 30.2869 3.05794 30.3934 2.65894Z" fill="black"/>
</g>
<defs>
<clipPath id="clip0_3821_12010">
<rect width="48" height="48" fill="white" transform="translate(1.29492 0.585938)"/>
</clipPath>
</defs>
</svg>
