<svg width="116" height="80" viewBox="0 0 116 80" fill="none" xmlns="http://www.w3.org/2000/svg">
<path d="M0.734922 71.0859L2.29492 70.9859C2.39492 73.2859 3.97492 74.4659 6.09492 74.4659C7.97492 74.4659 9.15492 73.6659 9.15492 72.2859C9.15492 71.1259 8.39492 70.5659 6.75492 70.2459L4.25492 69.7659C2.39492 69.4059 1.11492 68.4059 1.11492 66.4459C1.11492 64.2459 2.85492 62.7459 5.61492 62.7459C8.77492 62.7459 10.5949 64.4259 10.6149 67.2659L9.03492 67.3459C8.97492 65.2659 7.71492 64.0859 5.63492 64.0859C3.81492 64.0859 2.79492 64.9459 2.79492 66.3459C2.79492 67.5859 3.61492 67.9859 5.07492 68.2659L7.35492 68.7059C9.65492 69.1459 10.8149 70.1459 10.8149 72.1659C10.8149 74.4859 8.81492 75.8259 6.09492 75.8259C2.99492 75.8259 0.734922 74.1259 0.734922 71.0859ZM13.424 71.2259C13.424 73.1659 14.404 74.5459 16.164 74.5459C17.944 74.5459 18.944 73.1659 18.944 71.2259C18.944 69.2659 17.944 67.9059 16.164 67.9059C14.404 67.9059 13.424 69.2659 13.424 71.2259ZM20.644 71.2259C20.644 73.9459 18.744 75.8259 16.164 75.8259C13.604 75.8259 11.724 73.9459 11.724 71.2259C11.724 68.5059 13.604 66.6059 16.164 66.6059C18.744 66.6059 20.644 68.5059 20.644 71.2259ZM21.4207 71.2259C21.4207 68.4459 23.2607 66.6059 25.9007 66.6059C28.4607 66.6059 29.8407 68.3259 30.0207 70.4259L28.5607 70.5259C28.4207 68.9859 27.5007 67.9459 25.8807 67.9459C24.2407 67.9459 23.1207 69.2059 23.1207 71.2259C23.1207 73.2459 24.2407 74.5059 25.8807 74.5059C27.5007 74.5059 28.4207 73.4059 28.5607 71.8659L30.0207 72.0059C29.8407 74.1259 28.4607 75.8259 25.9007 75.8259C23.2607 75.8259 21.4207 74.0059 21.4207 71.2259ZM31.2868 66.8459H32.9468V75.5859H31.2868V66.8459ZM31.2468 64.8659V62.9859H32.9668V64.8659H31.2468ZM40.2126 71.6859V71.2659L38.2526 71.6859C36.8726 71.9859 35.9926 72.2459 35.9926 73.3059C35.9926 74.0459 36.4926 74.6059 37.4926 74.6059C39.0326 74.6059 40.2126 73.4459 40.2126 71.6859ZM41.8126 69.9459V73.8659C41.8126 74.3259 42.0726 74.5459 42.4926 74.5459C42.6926 74.5459 43.0126 74.4859 43.2526 74.3459V75.2459C42.9526 75.5459 42.5926 75.7659 41.9126 75.7659C41.0126 75.7659 40.3726 75.0859 40.2726 74.0459C39.7926 75.0659 38.5526 75.8259 37.1326 75.8259C35.4326 75.8259 34.3326 74.9059 34.3326 73.4059C34.3326 71.7459 35.7526 71.0659 37.8526 70.6459L40.2126 70.1659V69.8259C40.2126 68.6259 39.5126 67.8859 38.2926 67.8859C37.0326 67.8859 36.3526 68.6259 36.0926 69.6459L34.6126 69.4459C34.9526 67.8059 36.2526 66.6059 38.3126 66.6059C40.5126 66.6059 41.8126 67.7259 41.8126 69.9459ZM44.1177 62.9859H45.7777V75.5859H44.1177V62.9859ZM59.6773 69.2059L61.1173 69.2859C60.7373 70.8059 60.0573 72.2459 59.1173 73.3859C59.7173 74.0459 60.2373 74.4459 61.0373 74.4459C61.3373 74.4459 61.6373 74.4259 62.0173 74.3259V75.4059C61.6573 75.6259 61.1573 75.7459 60.6573 75.7459C59.7573 75.7459 59.0773 75.4059 58.0573 74.4259C56.9973 75.3059 55.7173 75.8259 54.2573 75.8259C51.9573 75.8259 50.1573 74.5459 50.1573 72.3659C50.1573 70.6659 51.1973 69.6459 52.8773 68.7459C52.1173 67.8459 51.5573 66.9859 51.5573 65.8459C51.5573 64.0059 52.9573 62.7459 54.9173 62.7459C56.9373 62.7459 58.0373 63.9259 58.0373 65.5459C58.0373 67.1459 57.0173 68.0259 55.1573 68.9659L58.2373 72.3859C58.9173 71.5059 59.4173 70.4059 59.6773 69.2059ZM54.2973 74.4859C55.3773 74.4859 56.3373 74.1059 57.1573 73.4859L57.1173 73.4259L53.7173 69.6859C52.5373 70.3059 51.8373 70.9859 51.8373 72.3259C51.8373 73.6459 52.8973 74.4859 54.2973 74.4859ZM53.1373 65.8259C53.1373 66.6859 53.6973 67.3459 54.3373 68.0459C55.9973 67.2859 56.5573 66.7059 56.5573 65.5859C56.5573 64.7659 56.0373 63.9859 54.9173 63.9859C53.9373 63.9859 53.1373 64.6059 53.1373 65.8259ZM67.7324 74.1659H70.4524C73.5324 74.1659 75.2124 72.3459 75.2124 69.2859C75.2124 66.2259 73.5324 64.4059 70.4524 64.4059H67.7324V74.1659ZM65.9924 75.5859V62.9859H70.5524C74.5124 62.9859 77.0124 65.3459 77.0124 69.2859C77.0124 73.2259 74.5124 75.5859 70.5524 75.5859H65.9924ZM83.6077 71.6859V71.2659L81.6477 71.6859C80.2677 71.9859 79.3877 72.2459 79.3877 73.3059C79.3877 74.0459 79.8877 74.6059 80.8877 74.6059C82.4277 74.6059 83.6077 73.4459 83.6077 71.6859ZM85.2077 69.9459V73.8659C85.2077 74.3259 85.4677 74.5459 85.8877 74.5459C86.0877 74.5459 86.4077 74.4859 86.6477 74.3459V75.2459C86.3477 75.5459 85.9877 75.7659 85.3077 75.7659C84.4077 75.7659 83.7677 75.0859 83.6677 74.0459C83.1877 75.0659 81.9477 75.8259 80.5277 75.8259C78.8277 75.8259 77.7277 74.9059 77.7277 73.4059C77.7277 71.7459 79.1477 71.0659 81.2477 70.6459L83.6077 70.1659V69.8259C83.6077 68.6259 82.9077 67.8859 81.6877 67.8859C80.4277 67.8859 79.7477 68.6259 79.4877 69.6459L78.0077 69.4459C78.3477 67.8059 79.6477 66.6059 81.7077 66.6059C83.9077 66.6059 85.2077 67.7259 85.2077 69.9459ZM87.7152 73.5459V68.0459H86.3952V67.1459L86.9552 67.0459C87.7752 66.8859 87.9552 66.4859 88.1552 65.6459L88.4152 64.4259H89.3552V66.8459H91.8152V68.0459H89.3552V73.3459C89.3552 74.1259 89.6752 74.4859 90.4352 74.4859C90.9952 74.4859 91.5752 74.2459 92.0752 73.9659V75.0859C91.4352 75.5659 90.7952 75.8259 89.8352 75.8259C88.5952 75.8259 87.7152 75.2459 87.7152 73.5459ZM93.0885 66.8459H94.7485V75.5859H93.0885V66.8459ZM93.0485 64.8659V62.9859H94.7685V64.8659H93.0485ZM98.2343 70.5659V75.5859H96.5743V66.8459H98.2343V68.4059C98.6543 67.3459 99.8343 66.6059 101.134 66.6059C103.414 66.6059 104.334 68.1259 104.334 70.1659V75.5859H102.674V70.3059C102.674 68.8459 101.974 67.9259 100.594 67.9259C99.2743 67.9259 98.2343 68.9659 98.2343 70.5659ZM113.256 69.5859C113.256 71.4059 111.716 72.5459 109.556 72.5459C108.836 72.5459 108.176 72.4259 107.636 72.1859C107.336 72.3659 107.056 72.6459 107.056 73.0459C107.056 73.5259 107.356 73.8059 108.116 73.8059H111.536C113.436 73.8059 114.436 74.8059 114.436 76.1659C114.436 78.3459 111.996 79.1859 109.396 79.1859C107.036 79.1859 105.076 78.4459 105.076 76.8259C105.076 75.8259 105.796 75.1859 106.876 74.9859C106.076 74.7259 105.716 74.1459 105.716 73.4859C105.716 72.7259 106.256 72.1859 107.036 71.8459C106.316 71.3259 105.896 70.5459 105.896 69.5859C105.896 67.7459 107.416 66.6059 109.556 66.6059C110.656 66.6059 111.636 66.9459 112.296 67.5059C112.756 66.8059 113.576 66.3059 114.516 66.3059V67.7459C113.936 67.7459 113.276 67.8859 112.836 68.1059C113.096 68.5259 113.256 69.0259 113.256 69.5859ZM106.656 76.5059C106.656 77.6059 107.776 78.0859 109.396 78.0859C111.396 78.0859 112.836 77.6059 112.836 76.3459C112.836 75.5459 112.176 75.2659 111.156 75.2659H108.336C107.436 75.2659 106.656 75.5659 106.656 76.5059ZM111.576 69.6059C111.576 68.3659 110.816 67.6859 109.576 67.6859C108.356 67.6859 107.596 68.3659 107.596 69.6059C107.596 70.8059 108.356 71.4859 109.576 71.4859C110.816 71.4859 111.576 70.8059 111.576 69.6059Z" fill="#333333"/>
<g clip-path="url(#clip0_3821_12011)">
<path d="M52.6838 35.6259C48.7628 35.6259 45.5453 38.6904 45.3563 42.6024C45.3503 42.7359 45.2933 42.8634 45.1988 42.9579L40.6763 47.4669L39.9128 46.7019L44.2898 42.3384C44.6093 37.9509 48.2558 34.5444 52.6823 34.5444H64.3073C65.4323 34.5444 66.3473 35.4594 66.3473 36.5844C66.3473 36.6834 66.3428 36.7824 66.3338 36.8784L73.8323 30.7854C74.8268 29.7864 76.5173 29.7849 77.5523 30.8214C78.5903 31.8594 78.5888 33.5484 77.5538 34.5864L68.4008 43.7394C67.8473 44.2929 67.1153 44.6499 66.3383 44.7474L55.5428 46.0959L54.1673 47.4654L53.4053 46.7004L54.9113 45.2004C54.9968 45.1149 55.1063 45.0609 55.2248 45.0459L66.2048 43.6734C66.7433 43.6074 67.2518 43.3584 67.6358 42.9729L76.7888 33.8199C77.4053 33.2049 77.4053 32.2014 76.7888 31.5834C76.1723 30.9669 75.1673 30.9684 74.5538 31.5849L65.1983 39.1899C64.5683 39.7689 63.7298 40.1214 62.8088 40.1214H55.3073V39.0459H62.8088C63.3983 39.0459 63.9383 38.8374 64.3628 38.4924L64.3583 38.4864L64.4963 38.3739C64.9688 37.9254 65.2658 37.2909 65.2658 36.5904C65.2658 36.0594 64.8353 35.6274 64.3058 35.6274L52.6838 35.6259ZM59.7953 31.1244C59.6513 31.1244 59.5148 31.0674 59.4143 30.9669L53.4713 25.0224C52.7033 24.2559 52.2788 23.2359 52.2743 22.1514C52.2698 21.0534 52.6943 20.0214 53.4713 19.2444C54.2408 18.4749 55.2638 18.0504 56.3513 18.0474C56.3513 18.0474 56.3558 18.0474 56.3588 18.0474C57.4508 18.0474 58.4768 18.4719 59.2478 19.2444L59.7953 19.7904L60.3413 19.2444C61.8863 17.6994 64.5773 17.7024 66.1208 19.2444C66.9113 20.0349 67.3373 21.0879 67.3178 22.2069C67.2968 23.2704 66.8723 24.2709 66.1208 25.0224L60.1778 30.9654C60.0773 31.0674 59.9393 31.1244 59.7953 31.1244ZM56.3588 19.1274H56.3543C55.5533 19.1289 54.8003 19.4424 54.2348 20.0079C53.6633 20.5794 53.3513 21.3399 53.3543 22.1469C53.3573 22.9449 53.6708 23.6949 54.2348 24.2604L59.7953 29.8209L65.3558 24.2589C65.9093 23.7054 66.2228 22.9704 66.2363 22.1874C66.2513 21.3639 65.9393 20.5899 65.3558 20.0064C64.2218 18.8709 62.2418 18.8694 61.1063 20.0064L60.1778 20.9349C59.9648 21.1464 59.6243 21.1449 59.4143 20.9349L58.4858 20.0064C57.9173 19.4394 57.1628 19.1274 56.3588 19.1274ZM40.9298 19.1289C40.2473 19.1289 39.5588 18.8694 39.0353 18.3459C37.9973 17.3094 37.9973 15.6204 39.0353 14.5824L48.1868 5.43087C48.7388 4.87737 49.4708 4.52037 50.2478 4.42287L61.0448 3.07437L62.4218 1.70337L63.1838 2.46987L61.6763 3.96987C61.5908 4.05387 61.4813 4.10787 61.3628 4.12287L50.3813 5.49537C49.8428 5.56287 49.3343 5.81037 48.9503 6.19437L39.7973 15.3459C39.1808 15.9624 39.1808 16.9659 39.7973 17.5824C40.4138 18.1989 41.4173 18.1989 42.0338 17.5824L51.3803 9.98487C52.0103 9.40137 52.8533 9.04587 53.7788 9.04587H61.2818V10.1259H53.7788C53.1893 10.1259 52.6493 10.3344 52.2248 10.6809L52.2293 10.6869L52.0823 10.8069C51.6128 11.2539 51.3188 11.8854 51.3188 12.5844C51.3188 13.1169 51.7493 13.5474 52.2788 13.5474H63.9038C67.8248 13.5474 71.0423 10.4829 71.2298 6.57087C71.2358 6.43587 71.2928 6.30987 71.3873 6.21387L75.9113 1.70487L76.6733 2.46987L72.2963 6.83487C71.9768 11.2224 68.3303 14.6274 63.9038 14.6274H52.2788C51.1538 14.6274 50.2388 13.7124 50.2388 12.5874C50.2388 12.4884 50.2418 12.3909 50.2508 12.2949L42.7538 18.3864C42.2633 18.8799 41.6003 19.1289 40.9298 19.1289Z" fill="black"/>
</g>
<defs>
<clipPath id="clip0_3821_12011">
<rect width="48" height="48" fill="white" transform="translate(34.2949 0.585938)"/>
</clipPath>
</defs>
</svg>
