<svg width="62" height="80" viewBox="0 0 62 80" fill="none" xmlns="http://www.w3.org/2000/svg">
<path d="M7.07492 75.8259C3.51492 75.8259 0.934922 73.2059 0.934922 69.2859C0.934922 65.4059 3.61492 62.7459 7.09492 62.7459C10.6549 62.7459 12.7149 64.7259 12.9349 67.9459L11.2749 68.0459C11.1349 65.7459 9.65492 64.2259 7.11492 64.2259C4.53492 64.2259 2.71492 66.1859 2.71492 69.3059C2.71492 72.4259 4.55492 74.3659 7.27492 74.3659C9.63492 74.3659 11.1549 72.8859 11.3749 70.7259H7.53492V69.3659H12.9549V75.5859H11.3749V73.3459C10.8149 74.9459 9.03492 75.8259 7.07492 75.8259ZM20.2045 71.6859V71.2659L18.2445 71.6859C16.8645 71.9859 15.9845 72.2459 15.9845 73.3059C15.9845 74.0459 16.4845 74.6059 17.4845 74.6059C19.0245 74.6059 20.2045 73.4459 20.2045 71.6859ZM21.8045 69.9459V73.8659C21.8045 74.3259 22.0645 74.5459 22.4845 74.5459C22.6845 74.5459 23.0045 74.4859 23.2445 74.3459V75.2459C22.9445 75.5459 22.5845 75.7659 21.9045 75.7659C21.0045 75.7659 20.3645 75.0859 20.2645 74.0459C19.7845 75.0659 18.5445 75.8259 17.1245 75.8259C15.4245 75.8259 14.3245 74.9059 14.3245 73.4059C14.3245 71.7459 15.7445 71.0659 17.8445 70.6459L20.2045 70.1659V69.8259C20.2045 68.6259 19.5045 67.8859 18.2845 67.8859C17.0245 67.8859 16.3445 68.6259 16.0845 69.6459L14.6045 69.4459C14.9445 67.8059 16.2445 66.6059 18.3045 66.6059C20.5045 66.6059 21.8045 67.7259 21.8045 69.9459ZM31.4096 68.5059C31.8696 67.4259 32.9496 66.6059 34.3496 66.6059C36.6296 66.6059 37.4296 68.1859 37.4296 70.1659V75.5859H35.7696V70.3059C35.7696 68.8459 35.1696 67.9259 33.8296 67.9259C32.5896 67.9259 31.5896 68.9659 31.5896 70.5659V75.5859H29.9296V70.3059C29.9296 68.8459 29.3296 67.9259 27.9896 67.9259C26.7496 67.9259 25.7696 68.9659 25.7696 70.5659V75.5859H24.1096V66.8459H25.7696V68.4059C26.1896 67.3459 27.2096 66.6059 28.5496 66.6059C30.1096 66.6059 31.0296 67.3659 31.4096 68.5059ZM39.1774 66.8459H40.8374V75.5859H39.1774V66.8459ZM39.1374 64.8659V62.9859H40.8574V64.8659H39.1374ZM44.3232 70.5659V75.5859H42.6632V66.8459H44.3232V68.4059C44.7432 67.3459 45.9232 66.6059 47.2232 66.6059C49.5032 66.6059 50.4232 68.1259 50.4232 70.1659V75.5859H48.7632V70.3059C48.7632 68.8459 48.0632 67.9259 46.6832 67.9259C45.3632 67.9259 44.3232 68.9659 44.3232 70.5659ZM59.3451 69.5859C59.3451 71.4059 57.8051 72.5459 55.6451 72.5459C54.9251 72.5459 54.2651 72.4259 53.7251 72.1859C53.4251 72.3659 53.1451 72.6459 53.1451 73.0459C53.1451 73.5259 53.4451 73.8059 54.2051 73.8059H57.6251C59.5251 73.8059 60.5251 74.8059 60.5251 76.1659C60.5251 78.3459 58.0851 79.1859 55.4851 79.1859C53.1251 79.1859 51.1651 78.4459 51.1651 76.8259C51.1651 75.8259 51.8851 75.1859 52.9651 74.9859C52.1651 74.7259 51.8051 74.1459 51.8051 73.4859C51.8051 72.7259 52.3451 72.1859 53.1251 71.8459C52.4051 71.3259 51.9851 70.5459 51.9851 69.5859C51.9851 67.7459 53.5051 66.6059 55.6451 66.6059C56.7451 66.6059 57.7251 66.9459 58.3851 67.5059C58.8451 66.8059 59.6651 66.3059 60.6051 66.3059V67.7459C60.0251 67.7459 59.3651 67.8859 58.9251 68.1059C59.1851 68.5259 59.3451 69.0259 59.3451 69.5859ZM52.7451 76.5059C52.7451 77.6059 53.8651 78.0859 55.4851 78.0859C57.4851 78.0859 58.9251 77.6059 58.9251 76.3459C58.9251 75.5459 58.2651 75.2659 57.2451 75.2659H54.4251C53.5251 75.2659 52.7451 75.5659 52.7451 76.5059ZM57.6651 69.6059C57.6651 68.3659 56.9051 67.6859 55.6651 67.6859C54.4451 67.6859 53.6851 68.3659 53.6851 69.6059C53.6851 70.8059 54.4451 71.4859 55.6651 71.4859C56.9051 71.4859 57.6651 70.8059 57.6651 69.6059Z" fill="#333333"/>
<g clip-path="url(#clip0_3821_12012)">
<path d="M42.2949 29.086C42.2949 29.914 41.6229 30.586 40.7949 30.586C39.9669 30.586 39.2949 29.914 39.2949 29.086C39.2949 28.258 39.9669 27.586 40.7949 27.586C41.6229 27.586 42.2949 28.258 42.2949 29.086ZM42.2949 36.586C42.2949 37.414 41.6229 38.086 40.7949 38.086C39.9669 38.086 39.2949 37.414 39.2949 36.586C39.2949 35.758 39.9669 35.086 40.7949 35.086C41.6229 35.086 42.2949 35.758 42.2949 36.586ZM44.5449 31.336C43.7169 31.336 43.0449 32.008 43.0449 32.836C43.0449 33.664 43.7169 34.336 44.5449 34.336C45.3729 34.336 46.0449 33.664 46.0449 32.836C46.0449 32.008 45.3729 31.336 44.5449 31.336ZM37.0449 31.336C36.2169 31.336 35.5449 32.008 35.5449 32.836C35.5449 33.664 36.2169 34.336 37.0449 34.336C37.8729 34.336 38.5449 33.664 38.5449 32.836C38.5449 32.008 37.8729 31.336 37.0449 31.336ZM24.2949 32.296H20.3349V28.336C20.3349 28.0375 20.0934 27.796 19.7949 27.796C19.4964 27.796 19.2549 28.0375 19.2549 28.336V32.296H15.2949C14.9964 32.296 14.7549 32.5375 14.7549 32.836C14.7549 33.1345 14.9964 33.376 15.2949 33.376H19.2549V37.336C19.2549 37.6345 19.4964 37.876 19.7949 37.876C20.0934 37.876 20.3349 37.6345 20.3349 37.336V33.376H24.2949C24.5934 33.376 24.8349 33.1345 24.8349 32.836C24.8349 32.5375 24.5934 32.296 24.2949 32.296ZM52.9884 39.1945L48.2439 24.9655C47.7624 23.518 46.4124 22.5445 44.8854 22.5445H30.8349V14.626H36.2949C39.9009 14.626 42.8349 11.692 42.8349 8.08596C42.8349 4.47996 39.9009 1.54596 36.2949 1.54596C32.6889 1.54596 29.7549 4.47996 29.7549 8.08596V13.546H16.7949V14.626H29.7549V22.546H15.7029C14.1759 22.546 12.8274 23.518 12.3444 24.967L7.60287 39.196C6.65637 42.037 7.65087 45.0805 10.0209 46.597C11.0709 47.2705 12.2889 47.6275 13.5429 47.6275H14.0244C15.7644 47.6275 17.3994 46.9525 18.6219 45.739L23.0094 41.6215H37.5804L41.9079 45.712C43.1259 46.93 44.8134 47.6275 46.5369 47.6275H46.5429H47.0484C48.3024 47.6275 49.5189 47.272 50.5704 46.5985C52.9389 45.0805 53.9349 42.037 52.9884 39.1945ZM30.8349 8.08596C30.8349 5.07546 33.2844 2.62596 36.2949 2.62596C39.3054 2.62596 41.7549 5.07546 41.7549 8.08596C41.7549 11.0965 39.3054 13.546 36.2949 13.546H30.8349V8.08596ZM49.9854 45.6865C49.1109 46.249 48.0939 46.5445 47.0469 46.5445H46.5414H46.5354C45.0954 46.5445 43.6884 45.961 42.6594 44.935L38.1654 40.687C38.0664 40.5925 37.9329 40.5385 37.7949 40.5385H22.7949C22.6584 40.5385 22.5249 40.591 22.4244 40.6855L17.8689 44.9605C16.8399 45.9835 15.4749 46.546 14.0229 46.546H13.5429C12.4959 46.546 11.4804 46.2505 10.6044 45.6895C8.68137 44.458 7.85037 41.872 8.62737 39.5395L13.3704 25.3075C13.7064 24.301 14.6439 23.6245 15.7044 23.6245H44.8869C45.9489 23.6245 46.8864 24.301 47.2209 25.3075L51.9654 39.538C52.7409 41.8705 51.9084 44.4565 49.9854 45.6865Z" fill="black"/>
</g>
<defs>
<clipPath id="clip0_3821_12012">
<rect width="48" height="48" fill="white" transform="translate(6.29492 0.585938)"/>
</clipPath>
</defs>
</svg>
