<svg width="62" height="76" viewBox="0 0 62 76" fill="none" xmlns="http://www.w3.org/2000/svg">
<path d="M3.23492 75.5859H1.51492V62.9859H10.1149V64.4259H3.23492V68.6059H8.63492V70.0459H3.23492V75.5859ZM11.3074 66.8459H12.9674V75.5859H11.3074V66.8459ZM11.2674 64.8659V62.9859H12.9874V64.8659H11.2674ZM16.4532 70.5659V75.5859H14.7932V66.8459H16.4532V68.4059C16.8732 67.3459 18.0532 66.6059 19.3532 66.6059C21.6332 66.6059 22.5532 68.1259 22.5532 70.1659V75.5859H20.8932V70.3059C20.8932 68.8459 20.1932 67.9259 18.8132 67.9259C17.4932 67.9259 16.4532 68.9659 16.4532 70.5659ZM29.7151 71.6859V71.2659L27.7551 71.6859C26.3751 71.9859 25.4951 72.2459 25.4951 73.3059C25.4951 74.0459 25.9951 74.6059 26.9951 74.6059C28.5351 74.6059 29.7151 73.4459 29.7151 71.6859ZM31.3151 69.9459V73.8659C31.3151 74.3259 31.5751 74.5459 31.9951 74.5459C32.1951 74.5459 32.5151 74.4859 32.7551 74.3459V75.2459C32.4551 75.5459 32.0951 75.7659 31.4151 75.7659C30.5151 75.7659 29.8751 75.0859 29.7751 74.0459C29.2951 75.0659 28.0551 75.8259 26.6351 75.8259C24.9351 75.8259 23.8351 74.9059 23.8351 73.4059C23.8351 71.7459 25.2551 71.0659 27.3551 70.6459L29.7151 70.1659V69.8259C29.7151 68.6259 29.0151 67.8859 27.7951 67.8859C26.5351 67.8859 25.8551 68.6259 25.5951 69.6459L24.1151 69.4459C24.4551 67.8059 25.7551 66.6059 27.8151 66.6059C30.0151 66.6059 31.3151 67.7259 31.3151 69.9459ZM35.2802 70.5659V75.5859H33.6202V66.8459H35.2802V68.4059C35.7002 67.3459 36.8802 66.6059 38.1802 66.6059C40.4602 66.6059 41.3802 68.1259 41.3802 70.1659V75.5859H39.7202V70.3059C39.7202 68.8459 39.0202 67.9259 37.6402 67.9259C36.3202 67.9259 35.2802 68.9659 35.2802 70.5659ZM42.5421 71.2259C42.5421 68.4459 44.3821 66.6059 47.0221 66.6059C49.5821 66.6059 50.9621 68.3259 51.1421 70.4259L49.6821 70.5259C49.5421 68.9859 48.6221 67.9459 47.0021 67.9459C45.3621 67.9459 44.2421 69.2059 44.2421 71.2259C44.2421 73.2459 45.3621 74.5059 47.0021 74.5059C48.6221 74.5059 49.5421 73.4059 49.6821 71.8659L51.1421 72.0059C50.9621 74.1259 49.5821 75.8259 47.0221 75.8259C44.3821 75.8259 42.5421 74.0059 42.5421 71.2259ZM59.1068 72.4859L60.4868 72.6459C60.0468 74.6259 58.5868 75.8259 56.4068 75.8259C53.8068 75.8259 51.9068 74.0659 51.9068 71.3459C51.9068 68.5859 53.8068 66.6059 56.3268 66.6059C59.1068 66.6059 60.5268 68.5859 60.5268 70.9659V71.6259H53.5668C53.6468 73.3259 54.8668 74.5259 56.4268 74.5259C57.8868 74.5259 58.7468 73.8259 59.1068 72.4859ZM53.6068 70.5459H58.8268C58.7668 69.1459 57.9868 67.8659 56.3268 67.8659C54.7468 67.8659 53.8068 69.1059 53.6068 70.5459Z" fill="#333333"/>
<g clip-path="url(#clip0_3821_12013)">
<path d="M8.79488 20.626H38.7949C39.0934 20.626 39.3349 20.3845 39.3349 20.086V5.08596C39.3349 4.78746 39.0934 4.54596 38.7949 4.54596H8.79488C8.49638 4.54596 8.25488 4.78746 8.25488 5.08596V20.086C8.25488 20.3845 8.49638 20.626 8.79488 20.626ZM9.33488 16.18C11.0839 16.4215 12.4594 17.797 12.7009 19.546H9.33488V16.18ZM9.33488 15.1015V10.0705C11.6779 9.81696 13.5259 7.96896 13.7794 5.62596H33.8089C34.0624 7.96896 35.9119 9.81696 38.2549 10.072V15.1015C35.9119 15.3565 34.0639 17.2045 33.8089 19.5475H13.7794C13.5259 17.203 11.6779 15.355 9.33488 15.1015ZM34.8904 19.546C35.1319 17.7985 36.5059 16.423 38.2549 16.18V19.546H34.8904ZM38.2549 8.99196C36.5059 8.75046 35.1319 7.37496 34.8904 5.62596H38.2549V8.99196ZM12.7009 5.62596C12.4594 7.37346 11.0824 8.75046 9.33488 8.99196V5.62596H12.7009ZM23.7949 17.626C26.5744 17.626 28.8349 15.3655 28.8349 12.586C28.8349 9.80646 26.5744 7.54596 23.7949 7.54596C21.0154 7.54596 18.7549 9.80646 18.7549 12.586C18.7549 15.3655 21.0154 17.626 23.7949 17.626ZM23.7949 8.62596C25.9789 8.62596 27.7549 10.4035 27.7549 12.586C27.7549 14.7685 25.9774 16.546 23.7949 16.546C21.6124 16.546 19.8349 14.77 19.8349 12.586C19.8349 10.402 21.6109 8.62596 23.7949 8.62596ZM53.7949 28.546H23.7949C23.4964 28.546 23.2549 28.7875 23.2549 29.086V44.086C23.2549 44.3845 23.4964 44.626 23.7949 44.626H53.7949C54.0934 44.626 54.3349 44.3845 54.3349 44.086V29.086C54.3349 28.7875 54.0934 28.546 53.7949 28.546ZM53.2549 32.9905C51.5074 32.749 50.1319 31.375 49.8904 29.626H53.2549V32.9905ZM53.2549 34.072V39.1C50.9134 39.355 49.0639 41.203 48.8089 43.546H28.7794C28.5244 41.203 26.6764 39.355 24.3334 39.1V34.072C26.6764 33.8185 28.5244 31.969 28.7794 29.626H48.8089C49.0639 31.969 50.9119 33.817 53.2549 34.072ZM27.7009 29.626C27.4594 31.375 26.0839 32.749 24.3349 32.9905V29.626H27.7009ZM24.3349 40.1815C26.0824 40.423 27.4579 41.797 27.7009 43.546H24.3349V40.1815ZM49.8904 43.546C50.1319 41.7985 51.5059 40.423 53.2549 40.1815V43.546H49.8904ZM38.7949 31.546C36.0154 31.546 33.7549 33.808 33.7549 36.586C33.7549 39.364 36.0169 41.626 38.7949 41.626C41.5729 41.626 43.8349 39.364 43.8349 36.586C43.8349 33.808 41.5744 31.546 38.7949 31.546ZM38.7949 40.546C36.6109 40.546 34.8349 38.77 34.8349 36.586C34.8349 34.402 36.6109 32.626 38.7949 32.626C40.9789 32.626 42.7549 34.402 42.7549 36.586C42.7549 38.77 40.9789 40.546 38.7949 40.546Z" fill="black"/>
</g>
<defs>
<clipPath id="clip0_3821_12013">
<rect width="48" height="48" fill="white" transform="translate(7.29492 0.585938)"/>
</clipPath>
</defs>
</svg>
