<svg width="611" height="402" viewBox="0 0 611 402" fill="none" xmlns="http://www.w3.org/2000/svg">
<path d="M198.785 210.5L193.586 233.896H120.152L135.756 163.709H160.234L149.829 210.5H198.785Z" fill="#0036C2"/>
<path d="M238.873 140.313L233.668 163.709L223.263 210.5H198.785L209.19 163.709H160.234L165.443 140.313H238.873Z" fill="#0036C2"/>
<path d="M345.655 210.503L340.453 233.899H267.02L282.627 163.712H307.104L296.7 210.503H345.655Z" fill="#0036C2"/>
<path d="M385.744 140.316L380.539 163.712L370.134 210.503H345.656L356.061 163.712H307.105L312.311 140.316H385.744Z" fill="#0036C2"/>
<path d="M256.612 280.687L251.41 304.082H177.977L193.584 233.896H218.061L207.657 280.687H256.612Z" fill="#0036C2"/>
<path d="M296.701 210.5L291.496 233.896L281.091 280.687H256.613L267.018 233.896H218.062L223.268 210.5H296.701Z" fill="#0036C2"/>
<path d="M377.769 70.3152L372.57 93.7108H299.137L314.74 23.5239H339.218L328.814 70.3152H377.769Z" fill="#0036C2"/>
<path d="M417.858 0.128418L412.652 23.524L402.247 70.3153H377.77L388.174 23.524H339.219L344.428 0.128418H417.858Z" fill="#0036C2"/>
<path d="M524.64 70.3181L519.437 93.7137H446.004L461.611 23.5269H486.089L475.684 70.3181H524.64Z" fill="#0036C2"/>
<path d="M564.729 0.131348L559.523 23.527L549.118 70.3182H524.641L535.045 23.527H486.09L491.295 0.131348H564.729Z" fill="#0036C2"/>
<path d="M435.597 140.502L430.394 163.898H356.961L372.568 93.7107H397.046L386.641 140.502H435.597Z" fill="#0036C2"/>
<path d="M475.686 70.3152L470.48 93.7108L460.076 140.502H435.598L446.002 93.7108H397.047L402.252 70.3152H475.686Z" fill="#0036C2"/>
<path d="M403.507 280.687L398.308 304.082H324.875L340.479 233.896H364.957L354.552 280.687H403.507Z" fill="#0036C2"/>
<path d="M443.596 210.5L438.39 233.896L427.986 280.687H403.508L413.913 233.896H364.957L370.166 210.5H443.596Z" fill="#0036C2"/>
<path d="M550.378 280.69L545.176 304.086H471.742L487.349 233.899H511.827L501.422 280.69H550.378Z" fill="#0036C2"/>
<path d="M590.467 210.503L585.261 233.899L574.857 280.69H550.379L560.784 233.899H511.828L517.034 210.503H590.467Z" fill="#0036C2"/>
<path d="M461.335 350.874L456.133 374.269H382.699L398.306 304.082H422.784L412.379 350.874H461.335Z" fill="#0036C2"/>
<path d="M501.424 280.687L496.218 304.082L485.814 350.874H461.336L471.741 304.082H422.785L427.991 280.687H501.424Z" fill="#0036C2"/>
<path d="M298.742 421.061L293.543 444.456H220.109L235.713 374.269H260.191L249.786 421.061H298.742Z" fill="#0036C2"/>
<path d="M338.83 350.874L333.625 374.269L323.22 421.061H298.742L309.147 374.269H260.191L265.4 350.874H338.83Z" fill="#0036C2"/>
<path d="M445.612 421.064L440.41 444.459H366.977L382.584 374.272H407.061L396.657 421.064H445.612Z" fill="#0036C2"/>
<path d="M485.701 350.877L480.496 374.273L470.091 421.064H445.613L456.018 374.273H407.062L412.268 350.877H485.701Z" fill="#0036C2"/>
<path d="M78.6324 421.173L73.4333 444.569H0L15.6038 374.382H40.0815L29.6769 421.173H78.6324Z" fill="#0036C2"/>
<path d="M118.721 350.987L113.515 374.382L103.111 421.173H78.6329L89.0376 374.382H40.082L45.2909 350.987H118.721Z" fill="#0036C2"/>
<path d="M225.503 421.176L220.301 444.572H146.867L162.474 374.385H186.952L176.547 421.176H225.503Z" fill="#0036C2"/>
<path d="M265.592 350.99L260.386 374.385L249.982 421.177H225.504L235.909 374.385H186.953L192.159 350.99H265.592Z" fill="#0036C2"/>
<path d="M519.043 420.268L513.843 443.664H440.41L456.014 373.477H480.492L470.087 420.268H519.043Z" fill="#0036C2"/>
<path d="M559.131 350.082L553.926 373.477L543.521 420.269H519.043L529.448 373.477H480.492L485.701 350.082H559.131Z" fill="#0036C2"/>
<path d="M665.913 420.272L660.711 443.667H587.277L602.884 373.48H627.362L616.957 420.272H665.913Z" fill="#0036C2"/>
</svg>
