<svg width="50" height="50" viewBox="0 0 50 50" fill="none" xmlns="http://www.w3.org/2000/svg">
<g id="new-revenue-streams 1" clip-path="url(#clip0_2847_11963)">
<path id="new-revenue-streams_00000035510824582881616620000015772721820647619712_" d="M31.25 1H38.0625V7.8125H36.9375V2.92187L1.95937 37.8984L1.16406 37.1016L36.1422 2.125H31.25V1ZM7.8125 9.9375H10.9375C11.4891 9.9375 11.9375 10.3859 11.9375 10.9375C11.9375 11.4891 11.4891 11.9375 10.9375 11.9375H6.25V13.0625H8.8125V14.8437H9.9375V13.0625H10.9375C12.1094 13.0625 13.0625 12.1094 13.0625 10.9375C13.0625 9.76562 12.1094 8.8125 10.9375 8.8125H7.8125C7.26094 8.8125 6.8125 8.36406 6.8125 7.8125C6.8125 7.26094 7.26094 6.8125 7.8125 6.8125H12.5V5.6875H9.9375V3.90625H8.8125V5.6875H7.8125C6.64062 5.6875 5.6875 6.64062 5.6875 7.8125C5.6875 8.98437 6.64062 9.9375 7.8125 9.9375ZM34.9375 21.875V48.4375C34.9375 48.7484 34.6859 49 34.375 49H26.5625C26.2516 49 26 48.7484 26 48.4375V21.875C26 21.5641 26.2516 21.3125 26.5625 21.3125H34.375C34.6859 21.3125 34.9375 21.5641 34.9375 21.875ZM33.8125 34.9375H27.125V47.8734H33.8109L33.8125 34.9375ZM33.8125 27.125H27.125V33.8109H33.8109L33.8125 27.125ZM33.8125 22.4375H27.125V26H33.8109L33.8125 22.4375ZM1 9.375C1 4.75625 4.75625 1 9.375 1C13.9937 1 17.75 4.75625 17.75 9.375C17.75 13.9937 13.9937 17.75 9.375 17.75C4.75625 17.75 1 13.9937 1 9.375ZM2.125 9.375C2.125 13.3734 5.37812 16.625 9.375 16.625C13.3719 16.625 16.625 13.3734 16.625 9.375C16.625 5.37656 13.3734 2.125 9.375 2.125C5.37656 2.125 2.125 5.37656 2.125 9.375ZM49 9.375V48.4375C49 48.7484 48.7484 49 48.4375 49H40.625C40.3141 49 40.0625 48.7484 40.0625 48.4375V9.375C40.0625 9.06406 40.3141 8.8125 40.625 8.8125H48.4375C48.7484 8.8125 49 9.06406 49 9.375ZM47.875 27.125H41.1875V47.875H47.8734L47.875 27.125ZM47.875 16.1875H41.1875V26H47.8734L47.875 16.1875ZM47.875 9.9375H41.1875V15.0625H47.8734L47.875 9.9375ZM20.875 35.9375V48.4375C20.875 48.7484 20.6234 49 20.3125 49H12.5C12.1891 49 11.9375 48.7484 11.9375 48.4375V35.9375C11.9375 35.6266 12.1891 35.375 12.5 35.375H20.3125C20.6234 35.375 20.875 35.6266 20.875 35.9375ZM19.75 39.625H13.0625V47.8734H19.75V39.625ZM19.75 36.5H13.0625V38.4984H19.75V36.5Z" fill="#00763D"/>
</g>
<defs>
<clipPath id="clip0_2847_11963">
<rect width="50" height="50" fill="white"/>
</clipPath>
</defs>
</svg>
