<svg width="50" height="51" viewBox="0 0 50 51" fill="none" xmlns="http://www.w3.org/2000/svg">
<g id="digital 1" clip-path="url(#clip0_2847_11995)">
<g id="digital_1_">
<path d="M44.5312 49.0464C42.0672 49.0464 40.0625 47.0417 40.0625 44.5776C40.0625 42.1136 42.0672 40.1089 44.5312 40.1089C46.9953 40.1089 49 42.1136 49 44.5776C49 47.0417 46.9953 49.0464 44.5312 49.0464ZM44.5312 41.2339C42.6875 41.2339 41.1875 42.7339 41.1875 44.5776C41.1875 46.4214 42.6875 47.9214 44.5312 47.9214C46.375 47.9214 47.875 46.4214 47.875 44.5776C47.875 42.7339 46.375 41.2339 44.5312 41.2339ZM18.75 49.0464C16.2859 49.0464 14.2812 47.0417 14.2812 44.5776C14.2812 42.1136 16.2859 40.1089 18.75 40.1089C21.2141 40.1089 23.2187 42.1136 23.2187 44.5776C23.2187 47.0417 21.2141 49.0464 18.75 49.0464ZM18.75 41.2339C16.9062 41.2339 15.4062 42.7339 15.4062 44.5776C15.4062 46.4214 16.9062 47.9214 18.75 47.9214C20.5937 47.9214 22.0937 46.4214 22.0937 44.5776C22.0937 42.7339 20.5937 41.2339 18.75 41.2339ZM31.8125 47.7026H30.6875V41.4526H31.8141L31.8125 47.7026ZM6.03125 47.7026H4.90625V41.4526H6.03125V47.7026ZM5.46875 36.5464C3.00469 36.5464 1 34.5417 1 32.0776C1 29.6136 3.00469 27.6089 5.46875 27.6089C7.93281 27.6089 9.9375 29.6136 9.9375 32.0776C9.9375 34.5417 7.93281 36.5464 5.46875 36.5464ZM5.46875 28.7339C3.625 28.7339 2.125 30.2339 2.125 32.0776C2.125 33.9214 3.625 35.4214 5.46875 35.4214C7.3125 35.4214 8.8125 33.9214 8.8125 32.0776C8.8125 30.2339 7.3125 28.7339 5.46875 28.7339ZM45.0938 35.2026H43.9687V28.9526H45.0953L45.0938 35.2026ZM44.5312 22.4839C42.0672 22.4839 40.0625 20.4792 40.0625 18.0151C40.0625 15.5511 42.0672 13.5464 44.5312 13.5464C46.9953 13.5464 49 15.5511 49 18.0151C49 20.4792 46.9953 22.4839 44.5312 22.4839ZM44.5312 14.6714C42.6875 14.6714 41.1875 16.1714 41.1875 18.0151C41.1875 19.8589 42.6875 21.3589 44.5312 21.3589C46.375 21.3589 47.875 19.8589 47.875 18.0151C47.875 16.1714 46.375 14.6714 44.5312 14.6714ZM6.03125 21.1401H4.90625V14.8901H6.03125V21.1401ZM31.25 9.98389C28.7859 9.98389 26.7812 7.9792 26.7812 5.51514C26.7812 3.05107 28.7859 1.04639 31.25 1.04639C33.7141 1.04639 35.7188 3.05107 35.7188 5.51514C35.7188 7.9792 33.7141 9.98389 31.25 9.98389ZM31.25 2.17139C29.4062 2.17139 27.9062 3.67139 27.9062 5.51514C27.9062 7.35889 29.4062 8.85889 31.25 8.85889C33.0938 8.85889 34.5937 7.35889 34.5937 5.51514C34.5937 3.67139 33.0938 2.17139 31.25 2.17139ZM5.46875 9.98389C3.00469 9.98389 1 7.9792 1 5.51514C1 3.05107 3.00469 1.04639 5.46875 1.04639C7.93281 1.04639 9.9375 3.05107 9.9375 5.51514C9.9375 7.9792 7.93281 9.98389 5.46875 9.98389ZM5.46875 2.17139C3.625 2.17139 2.125 3.67139 2.125 5.51514C2.125 7.35889 3.625 8.85889 5.46875 8.85889C7.3125 8.85889 8.8125 7.35889 8.8125 5.51514C8.8125 3.67139 7.3125 2.17139 5.46875 2.17139ZM45.0938 8.64014H43.9687V2.39014H45.0953L45.0938 8.64014ZM19.3125 8.64014H18.1875V2.39014H19.3125V8.64014Z" fill="#0057FF"/>
<path fill-rule="evenodd" clip-rule="evenodd" d="M25 36.0411C29.1602 36.0411 32.5328 32.6686 32.5328 28.5083C32.5328 24.3481 29.1602 20.9756 25 20.9756C20.8398 20.9756 17.4672 24.3481 17.4672 28.5083C17.4672 32.6686 20.8398 36.0411 25 36.0411ZM25 37.1661C29.7816 37.1661 33.6578 33.2899 33.6578 28.5083C33.6578 23.7268 29.7816 19.8506 25 19.8506C20.2184 19.8506 16.3422 23.7268 16.3422 28.5083C16.3422 33.2899 20.2184 37.1661 25 37.1661Z" fill="#0057FF"/>
<path fill-rule="evenodd" clip-rule="evenodd" d="M28.4527 18.7437V18.2233C28.4527 16.3164 26.9069 14.7706 25 14.7706C23.0931 14.7706 21.5473 16.3164 21.5473 18.2233V21.4259H20.4535V18.2233C20.4535 15.7124 22.489 13.6768 25 13.6768C27.5109 13.6768 29.5464 15.7124 29.5464 18.2233V18.7437H28.4527Z" fill="#0057FF"/>
<path d="M25.3571 30.7491C26.0059 30.5884 26.4881 30.0071 26.4881 29.3087C26.4881 28.4873 25.8214 27.8206 25 27.8206C24.1786 27.8206 23.5119 28.4873 23.5119 29.3087C23.5119 30.0071 23.9941 30.5884 24.6429 30.7491V32.7808C24.6429 32.9782 24.8026 33.138 25 33.138C25.1974 33.138 25.3571 32.9782 25.3571 32.7808V30.7491Z" fill="#0057FF"/>
</g>
</g>
<defs>
<clipPath id="clip0_2847_11995">
<rect width="50" height="50" fill="white" transform="translate(0 0.0463867)"/>
</clipPath>
</defs>
</svg>
