<svg width="50" height="51" viewBox="0 0 50 51" fill="none" xmlns="http://www.w3.org/2000/svg">
<g id="data--insights 1" clip-path="url(#clip0_2847_12010)">
<path id="data--insights_1_" d="M23.4375 49.947H14.0625C13.7516 49.947 13.5 49.6955 13.5 49.3845V40.0095C13.5 39.6986 13.7516 39.447 14.0625 39.447H23.4375C23.7484 39.447 24 39.6986 24 40.0095V49.3845C24 49.6955 23.7484 49.947 23.4375 49.947ZM14.625 48.822H22.875V40.572H14.625V48.822ZM35.9375 37.447H26.5625C26.2516 37.447 26 37.1955 26 36.8845V27.5095C26 27.1986 26.2516 26.947 26.5625 26.947H35.9375C36.2484 26.947 36.5 27.1986 36.5 27.5095V36.8845C36.5 37.1955 36.2484 37.447 35.9375 37.447ZM27.125 36.322H35.3734V28.072H27.125V36.322ZM6.25 12.447C3.35469 12.447 1 10.0923 1 7.19702C1 4.30171 3.35469 1.94702 6.25 1.94702C9.14531 1.94702 11.5 4.30171 11.5 7.19702C11.5 10.0923 9.14531 12.447 6.25 12.447ZM6.25 3.07202C3.975 3.07202 2.125 4.92202 2.125 7.19702C2.125 9.47202 3.975 11.322 6.25 11.322C8.525 11.322 10.375 9.47202 10.375 7.19702C10.375 4.92202 8.525 3.07202 6.25 3.07202ZM6.25 49.947C3.35469 49.947 1 47.5908 1 44.697C1 41.8033 3.35469 39.447 6.25 39.447C9.14531 39.447 11.5 41.8017 11.5 44.697C11.5 47.5923 9.14531 49.947 6.25 49.947ZM6.25 40.572C3.975 40.572 2.125 42.422 2.125 44.697C2.125 46.972 3.975 48.822 6.25 48.822C8.525 48.822 10.375 46.972 10.375 44.697C10.375 42.422 8.525 40.572 6.25 40.572ZM31.25 49.947C28.3547 49.947 26 47.5908 26 44.697C26 41.8033 28.3547 39.447 31.25 39.447C34.1453 39.447 36.5 41.8033 36.5 44.697C36.5 47.5908 34.1453 49.947 31.25 49.947ZM31.25 40.572C28.975 40.572 27.125 42.422 27.125 44.697C27.125 46.972 28.975 48.822 31.25 48.822C33.525 48.822 35.375 46.972 35.375 44.697C35.375 42.422 33.525 40.572 31.25 40.572ZM43.75 49.947C40.8547 49.947 38.5 47.5908 38.5 44.697C38.5 41.8033 40.8563 39.447 43.75 39.447C46.6437 39.447 49 41.8033 49 44.697C49 47.5908 46.6453 49.947 43.75 49.947ZM43.75 40.572C41.475 40.572 39.625 42.422 39.625 44.697C39.625 46.972 41.475 48.822 43.75 48.822C46.025 48.822 47.875 46.972 47.875 44.697C47.875 42.422 46.025 40.572 43.75 40.572ZM18.75 37.447C15.8547 37.447 13.5 35.0908 13.5 32.197C13.5 29.3033 15.8547 26.947 18.75 26.947C21.6453 26.947 24 29.3017 24 32.197C24 35.0923 21.6453 37.447 18.75 37.447ZM18.75 28.072C16.475 28.072 14.625 29.922 14.625 32.197C14.625 34.472 16.4766 36.322 18.75 36.322C21.0234 36.322 22.875 34.472 22.875 32.197C22.875 29.922 21.025 28.072 18.75 28.072ZM49.1625 37.447H38.3375C38.1359 37.447 37.9516 37.3392 37.85 37.1642C37.7484 36.9892 37.75 36.7767 37.85 36.6033L43.2625 27.2267C43.4641 26.8783 44.0344 26.8783 44.2359 27.2267L49.6484 36.6033C49.7484 36.7767 49.7484 36.9908 49.6484 37.1642C49.5484 37.3376 49.3641 37.447 49.1625 37.447ZM39.3109 36.322H48.1891L43.75 28.6345L39.3109 36.322ZM10.5406 22.4251L6.8125 26.1517V16.572H5.6875V26.1517L1.95937 22.4251L1.16406 23.2205L6.25 28.3048L11.3344 23.2205L10.5406 22.4251Z" fill="#7610B5"/>
</g>
<defs>
<clipPath id="clip0_2847_12010">
<rect width="50" height="50" fill="white" transform="translate(0 0.947021)"/>
</clipPath>
</defs>
</svg>
