<svg width="50" height="50" viewBox="0 0 50 50" fill="none" xmlns="http://www.w3.org/2000/svg">
<g clip-path="url(#clip0_2847_11969)">
<path d="M31.25 42.75C31.1766 42.75 31.1047 42.7344 31.0344 42.7078C30.825 42.6203 30.6875 42.4156 30.6875 42.1875V36.5H22.3953C22.1234 38.2672 20.5922 39.625 18.75 39.625C16.9078 39.625 15.3766 38.2672 15.1047 36.5H5.175C4.92812 37.3985 4.10313 38.0625 3.125 38.0625C1.95312 38.0625 1 37.1094 1 35.9375C1 34.7656 1.95312 33.8125 3.125 33.8125C4.10156 33.8125 4.92656 34.4766 5.175 35.375H15.1062C15.3781 33.6078 16.9094 32.25 18.7516 32.25C20.5938 32.25 22.125 33.6078 22.3969 35.375H31.25C31.5609 35.375 31.8125 35.6266 31.8125 35.9375V40.8297L47.0797 25.5625H41.1453C40.8734 27.3297 39.3422 28.6875 37.5 28.6875C35.6578 28.6875 34.1266 27.3297 33.8547 25.5625H28.6875V28.125C28.6875 28.436 28.4359 28.6875 28.125 28.6875H21.875C21.5641 28.6875 21.3125 28.436 21.3125 28.125V25.5625H16.1437C15.8719 27.3297 14.3406 28.6875 12.4984 28.6875C10.6562 28.6875 9.125 27.3297 8.85313 25.5625H5.175C4.92812 26.4625 4.10313 27.125 3.125 27.125C1.95312 27.125 1 26.1719 1 25C1 23.8281 1.95312 22.875 3.125 22.875C4.10156 22.875 4.92656 23.5375 5.175 24.4375H8.85625C9.12813 22.6703 10.6594 21.3125 12.5016 21.3125C14.3438 21.3125 15.875 22.6703 16.1469 24.4375H21.3156V21.875C21.3156 21.5641 21.5672 21.3125 21.8781 21.3125H28.1281C28.4391 21.3125 28.6906 21.5641 28.6906 21.875V24.4375H33.8578C34.1297 22.6703 35.6609 21.3125 37.5031 21.3125C39.3453 21.3125 40.8766 22.6703 41.1484 24.4375H47.0828L31.8125 9.17033V14.0625C31.8125 14.3735 31.5609 14.625 31.25 14.625H22.3953C22.1234 16.3922 20.5922 17.75 18.75 17.75C16.9078 17.75 15.3766 16.3922 15.1047 14.625H5.175C4.92812 15.525 4.10313 16.1875 3.125 16.1875C1.95312 16.1875 1 15.2344 1 14.0625C1 12.8906 1.95312 11.9375 3.125 11.9375C4.10156 11.9375 4.92656 12.6 5.175 13.5H15.1062C15.3781 11.7328 16.9094 10.375 18.7516 10.375C20.5938 10.375 22.125 11.7328 22.3969 13.5H30.6891V7.81252C30.6891 7.58439 30.8266 7.3797 31.0375 7.2922C31.2469 7.2047 31.4875 7.25314 31.6516 7.41408L48.8391 24.6016C49.0594 24.8219 49.0594 25.1766 48.8391 25.3969L31.6516 42.5844C31.5406 42.6922 31.3969 42.75 31.25 42.75ZM18.75 33.375C17.3375 33.375 16.1875 34.5235 16.1875 35.9375C16.1875 37.3516 17.3375 38.5 18.75 38.5C20.1625 38.5 21.3125 37.3516 21.3125 35.9375C21.3125 34.5235 20.1625 33.375 18.75 33.375ZM3.125 34.9375C2.57344 34.9375 2.125 35.386 2.125 35.9375C2.125 36.4891 2.57344 36.9375 3.125 36.9375C3.67656 36.9375 4.125 36.4891 4.125 35.9375C4.125 35.386 3.67656 34.9375 3.125 34.9375ZM37.5 22.4375C36.0875 22.4375 34.9375 23.5875 34.9375 25C34.9375 26.4125 36.0859 27.5625 37.5 27.5625C38.9141 27.5625 40.0625 26.4141 40.0625 25C40.0625 23.586 38.9125 22.4375 37.5 22.4375ZM22.4375 27.5625H27.5625V22.4375H22.4375V27.5625ZM12.5 22.4375C11.0875 22.4375 9.9375 23.5875 9.9375 25C9.9375 26.4125 11.0875 27.5625 12.5 27.5625C13.9125 27.5625 15.0625 26.4125 15.0625 25C15.0625 23.5875 13.9125 22.4375 12.5 22.4375ZM3.125 24C2.57344 24 2.125 24.4485 2.125 25C2.125 25.5516 2.57344 26 3.125 26C3.67656 26 4.125 25.5516 4.125 25C4.125 24.4485 3.67656 24 3.125 24ZM18.75 11.5C17.3375 11.5 16.1875 12.65 16.1875 14.0625C16.1875 15.475 17.3375 16.625 18.75 16.625C20.1625 16.625 21.3125 15.475 21.3125 14.0625C21.3125 12.65 20.1625 11.5 18.75 11.5ZM3.125 13.0625C2.57344 13.0625 2.125 13.511 2.125 14.0625C2.125 14.6141 2.57344 15.0625 3.125 15.0625C3.67656 15.0625 4.125 14.6141 4.125 14.0625C4.125 13.511 3.67656 13.0625 3.125 13.0625Z" fill="#00763D"/>
</g>
<defs>
<clipPath id="clip0_2847_11969">
<rect width="50" height="50" fill="white"/>
</clipPath>
</defs>
</svg>
