<svg width="50" height="51" viewBox="0 0 50 51" fill="none" xmlns="http://www.w3.org/2000/svg">
<g id="hills 1" clip-path="url(#clip0_2847_12019)">
<path id="hills_1_" d="M47.175 46.3589L25.5625 13.9386V8.42139H32.6078L29.7016 5.51514L32.6078 2.60889H24.4375V13.9386L2.82344 46.3589H1.5625V47.4855H48.4375V46.3589H47.175ZM25.5625 3.73389H29.8922L28.1109 5.51514L29.8922 7.29639H25.5625V3.73389ZM4.17656 46.3589L12.5 33.8729L20.8234 46.3573L4.17656 46.3589ZM22.1766 46.3589L13.1766 32.8589L18.75 24.4979L33.3234 46.3589H22.1766ZM34.675 46.3589L19.4266 23.4839L25 15.1229L45.8234 46.3589H34.675Z" fill="#0057FF"/>
</g>
<defs>
<clipPath id="clip0_2847_12019">
<rect width="50" height="50" fill="white" transform="translate(0 0.0463867)"/>
</clipPath>
</defs>
</svg>
