<svg width="50" height="51" viewBox="0 0 50 51" fill="none" xmlns="http://www.w3.org/2000/svg">
<g id="sustainability--02 1" clip-path="url(#clip0_2847_12031)">
<path id="sustainability--02_00000056429091238445424860000008232323271237823932_" d="M48.4375 23.822H45.3125C41.8781 23.822 40.0625 25.6376 40.0625 29.072V32.197V33.7595C40.0625 35.172 38.9141 36.322 37.5 36.322H25.5625V23.3845H32.8125C34.8469 23.3845 36.5 21.7298 36.5 19.697V18.697H39.0625C42.4969 18.697 44.3125 16.8814 44.3125 13.447V10.322C44.3125 10.0111 44.0609 9.75952 43.75 9.75952H40.625C37.1906 9.75952 35.375 11.5751 35.375 15.0095V18.1345V19.697C35.375 21.1095 34.2266 22.2595 32.8125 22.2595H25.5625V13.447V10.8845H28.125C31.5594 10.8845 33.375 9.0689 33.375 5.63452V2.50952C33.375 2.19858 33.1234 1.94702 32.8125 1.94702H29.6875C26.4203 1.94702 24.6391 3.6064 24.4703 6.72202C23.5953 5.64702 22.2109 5.07202 20.3125 5.07202H17.1875C16.8766 5.07202 16.625 5.32358 16.625 5.63452V8.75952C16.625 12.1939 18.4406 14.0095 21.875 14.0095H24.4375V28.5095H17.1875C15.775 28.5095 14.625 27.3611 14.625 25.947V24.3845V21.2595C14.625 17.8251 12.8094 16.0095 9.375 16.0095H6.25C5.93906 16.0095 5.6875 16.2611 5.6875 16.572V19.697C5.6875 23.1314 7.50312 24.947 10.9375 24.947H13.5V25.947C13.5 27.9814 15.1547 29.6345 17.1875 29.6345H24.4375V42.5705H12.5C11.0875 42.5705 9.9375 41.422 9.9375 40.008V38.4455V35.3205C9.9375 31.8861 8.12187 30.0705 4.6875 30.0705H1.5625C1.25156 30.0705 1 30.322 1 30.633V33.758C1 37.1923 2.81563 39.008 6.25 39.008H8.8125V40.0095C8.8125 42.0439 10.4672 43.697 12.5 43.697H24.4375V49.3845H25.5625V37.447H37.5C39.5344 37.447 41.1875 35.7923 41.1875 33.7595V32.7595H43.75C47.1844 32.7595 49 30.9439 49 27.5095V24.3845C49 24.0736 48.7484 23.822 48.4375 23.822ZM40.625 10.8845H43.1875V13.447C43.1875 16.2611 41.8766 17.572 39.0625 17.572H37.2953L41.0234 13.8439L40.2266 13.0486L36.5 16.7751V15.0095C36.5 12.1955 37.8109 10.8845 40.625 10.8845ZM6.8125 19.697V17.1345H9.375C12.1891 17.1345 13.5 18.4455 13.5 21.2595V23.0267L9.77187 19.2986L8.97656 20.0939L12.7047 23.822H10.9375C8.12344 23.822 6.8125 22.5111 6.8125 19.697ZM2.125 33.7595V31.197H4.6875C7.50156 31.197 8.8125 32.508 8.8125 35.322V37.0892L5.08437 33.3611L4.28906 34.158L8.01562 37.8845H6.25C3.43594 37.8845 2.125 36.5736 2.125 33.7595ZM29.6875 3.07202H32.25V5.63452C32.25 8.44858 30.9391 9.75952 28.125 9.75952H26.3578L30.0859 6.0314L29.2891 5.23608L25.5625 8.96421V7.19702C25.5625 4.38296 26.8734 3.07202 29.6875 3.07202ZM17.75 8.75952V6.19702H20.3125C23.1266 6.19702 24.4375 7.50796 24.4375 10.322V12.0892L20.7094 8.36108L19.9141 9.1564L23.6422 12.8845H21.875C19.0609 12.8845 17.75 11.5736 17.75 8.75952ZM47.875 27.5095C47.875 30.3236 46.5641 31.6345 43.75 31.6345H41.9844L45.7109 27.908L44.9141 27.1126L41.1875 30.8376V29.072C41.1875 26.258 42.4984 24.947 45.3125 24.947H47.875V27.5095Z" fill="#7610B5"/>
</g>
<defs>
<clipPath id="clip0_2847_12031">
<rect width="50" height="50" fill="white" transform="translate(0 0.947021)"/>
</clipPath>
</defs>
</svg>
