<svg width="51" height="51" viewBox="0 0 51 51" fill="none" xmlns="http://www.w3.org/2000/svg">
<g clip-path="url(#clip0_2452_1910)">
<path d="M28.0137 47.7756L25.2949 46.2131L31.5449 35.2756H40.9199C41.7487 35.2756 42.5436 34.9464 43.1296 34.3603C43.7157 33.7743 44.0449 32.9794 44.0449 32.1506V13.4006C44.0449 12.5718 43.7157 11.777 43.1296 11.1909C42.5436 10.6049 41.7487 10.2756 40.9199 10.2756H9.66992C8.84112 10.2756 8.04626 10.6049 7.46021 11.1909C6.87416 11.777 6.54492 12.5718 6.54492 13.4006V32.1506C6.54492 32.9794 6.87416 33.7743 7.46021 34.3603C8.04626 34.9464 8.84112 35.2756 9.66992 35.2756H23.7324V38.4006H9.66992C8.01232 38.4006 6.42261 37.7422 5.2505 36.5701C4.0784 35.3979 3.41992 33.8082 3.41992 32.1506V13.4006C3.41992 11.743 4.0784 10.1533 5.2505 8.98122C6.42261 7.80911 8.01232 7.15063 9.66992 7.15063H40.9199C42.5775 7.15063 44.1672 7.80911 45.3393 8.98122C46.5114 10.1533 47.1699 11.743 47.1699 13.4006V32.1506C47.1699 33.8082 46.5114 35.3979 45.3393 36.5701C44.1672 37.7422 42.5775 38.4006 40.9199 38.4006H33.3574L28.0137 47.7756Z" fill="#0057FF"/>
<path d="M37.7949 16.5256H12.7949V19.6506H37.7949V16.5256Z" fill="#0057FF"/>
<path d="M37.7949 25.9006H12.7949V29.0256H37.7949V25.9006Z" fill="#0057FF"/>
</g>
<defs>
<clipPath id="clip0_2452_1910">
<rect width="50" height="50" fill="white" transform="translate(0.294922 0.900635)"/>
</clipPath>
</defs>
</svg>
