<svg width="51" height="51" viewBox="0 0 51 51" fill="none" xmlns="http://www.w3.org/2000/svg">
<g clip-path="url(#clip0_2452_1923)">
<path d="M40.9199 21.2131C42.577 21.2113 44.1656 20.5522 45.3373 19.3805C46.509 18.2088 47.1681 16.6202 47.1699 14.9631V10.2756H42.4824C40.8827 10.2782 39.3455 10.8974 38.1905 12.0044C37.3811 10.5355 36.1928 9.31049 34.7492 8.45684C33.3056 7.60319 31.6595 7.15213 29.9824 7.15063H25.2949V11.8381C25.2977 14.3237 26.2862 16.7067 28.0438 18.4642C29.8014 20.2218 32.1844 21.2104 34.6699 21.2131H36.2324V41.5256H17.4824V33.7131H19.0449C20.702 33.7113 22.2906 33.0522 23.4623 31.8805C24.634 30.7088 25.2931 29.1202 25.2949 27.4631V22.7756H20.6074C19.0077 22.7782 17.4705 23.3974 16.3155 24.5044C15.5061 23.0355 14.3178 21.8105 12.8742 20.9568C11.4306 20.1032 9.78453 19.6521 8.10742 19.6506H3.41992V24.3381C3.42265 26.8237 4.41125 29.2067 6.16881 30.9642C7.92637 32.7218 10.3094 33.7104 12.7949 33.7131H14.3574V41.5256H3.41992V44.6506H47.1699V41.5256H39.3574V21.2131H40.9199ZM39.3574 16.5256C39.3582 15.6971 39.6878 14.9027 40.2736 14.3168C40.8595 13.731 41.6539 13.4015 42.4824 13.4006H44.0449V14.9631C44.0441 15.7917 43.7146 16.5861 43.1287 17.1719C42.5428 17.7578 41.7485 18.0873 40.9199 18.0881H39.3574V16.5256ZM17.4824 29.0256C17.4832 28.1971 17.8128 27.4027 18.3986 26.8168C18.9845 26.231 19.7789 25.9015 20.6074 25.9006H22.1699V27.4631C22.1691 28.2917 21.8396 29.0861 21.2537 29.6719C20.6678 30.2578 19.8735 30.5873 19.0449 30.5881H17.4824V29.0256ZM14.3574 30.5881H12.7949C11.1379 30.5863 9.54926 29.9272 8.37756 28.7555C7.20586 27.5838 6.54678 25.9952 6.54492 24.3381V22.7756H8.10742C9.76445 22.7775 11.3531 23.4366 12.5248 24.6083C13.6965 25.78 14.3556 27.3686 14.3574 29.0256V30.5881ZM36.2324 18.0881H34.6699C33.0129 18.0863 31.4243 17.4272 30.2526 16.2555C29.0809 15.0838 28.4218 13.4952 28.4199 11.8381V10.2756H29.9824C31.6395 10.2775 33.2281 10.9366 34.3998 12.1083C35.5715 13.28 36.2306 14.8686 36.2324 16.5256V18.0881Z" fill="#00BA61"/>
</g>
<defs>
<clipPath id="clip0_2452_1923">
<rect width="50" height="50" fill="white" transform="translate(0.294922 0.900635)"/>
</clipPath>
</defs>
</svg>
