<svg width="89" height="90" viewBox="0 0 89 90" fill="none" xmlns="http://www.w3.org/2000/svg">
<rect y="0.125244" width="89" height="89" fill="#0057FF"/>
<g clip-path="url(#clip0_4845_79)">
<path d="M56 40.2771H53C52.9987 39.084 52.5242 37.9402 51.6805 37.0966C50.8369 36.2529 49.6931 35.7784 48.5 35.7771V32.7771C50.4884 32.7794 52.3948 33.5703 53.8008 34.9763C55.2068 36.3823 55.9977 38.2887 56 40.2771Z" fill="white"/>
<path d="M62 40.2771H59C58.9969 37.4933 57.8897 34.8244 55.9212 32.8559C53.9527 30.8874 51.2838 29.7802 48.5 29.7771V26.7771C52.0792 26.7811 55.5107 28.2047 58.0416 30.7355C60.5724 33.2664 61.996 36.6979 62 40.2771Z" fill="white"/>
<path d="M59.0015 64.2771H58.7465C29.2715 62.5821 25.0865 37.7121 24.5015 30.1221C24.4562 29.5329 24.5274 28.9405 24.711 28.3788C24.8947 27.8171 25.1871 27.2971 25.5717 26.8484C25.9563 26.3997 26.4255 26.0312 26.9526 25.7639C27.4796 25.4965 28.0541 25.3356 28.6433 25.2903C28.7621 25.2815 28.8815 25.2771 29.0015 25.2771H36.9065C37.5074 25.2765 38.0945 25.4564 38.592 25.7933C39.0894 26.1303 39.4742 26.6089 39.6965 27.1671L41.9765 32.7771C42.1961 33.3224 42.2505 33.9202 42.1332 34.4962C42.0159 35.0723 41.7319 35.6011 41.3165 36.0171L38.1215 39.2421C38.6186 42.0791 39.9761 44.6946 42.01 46.7339C44.044 48.7732 46.6559 50.1376 49.4915 50.6421L52.7465 47.4171C53.1688 47.0063 53.7026 46.729 54.2814 46.6196C54.8603 46.5102 55.4585 46.5737 56.0015 46.8021L61.6565 49.0671C62.2063 49.2964 62.6754 49.6842 63.0039 50.1811C63.3325 50.678 63.5057 51.2614 63.5015 51.8571V59.7771C63.5015 60.9706 63.0274 62.1152 62.1835 62.9591C61.3396 63.803 60.195 64.2771 59.0015 64.2771ZM29.0015 28.2771C28.8045 28.2765 28.6094 28.3146 28.4271 28.3894C28.2449 28.4642 28.0792 28.5742 27.9395 28.713C27.7997 28.8519 27.6887 29.0169 27.6127 29.1986C27.5368 29.3804 27.4974 29.5753 27.4967 29.7723C27.4967 29.814 27.4983 29.8556 27.5015 29.8971C28.1915 38.7771 32.6165 59.7771 58.9115 61.2771C59.1082 61.2889 59.3052 61.2619 59.4914 61.1976C59.6776 61.1332 59.8492 61.0329 59.9966 60.9022C60.144 60.7715 60.2642 60.6131 60.3504 60.4359C60.4366 60.2588 60.487 60.0664 60.4988 59.8698C60.5006 59.8389 60.5015 59.808 60.5015 59.7771V51.8571L54.8465 49.5921L50.5415 53.8671L49.8215 53.7771C36.7715 52.1421 35.0015 39.0921 35.0015 38.9571L34.9115 38.2371L39.1715 33.9321L36.9215 28.2771H29.0015Z" fill="white"/>
</g>
<defs>
<clipPath id="clip0_4845_79">
<rect width="48" height="48" fill="white" transform="translate(20 20.7771)"/>
</clipPath>
</defs>
</svg>
