<svg width="89" height="90" viewBox="0 0 89 90" fill="none" xmlns="http://www.w3.org/2000/svg">
<rect y="0.125244" width="89" height="89" fill="#0057FF"/>
<g clip-path="url(#clip0_4845_77)">
<path d="M62.5 29.6252H26.5C25.7044 29.6252 24.9413 29.9413 24.3787 30.5039C23.8161 31.0665 23.5 31.8296 23.5 32.6252V56.6252C23.5 57.4209 23.8161 58.184 24.3787 58.7466C24.9413 59.3092 25.7044 59.6252 26.5 59.6252H62.5C63.2957 59.6252 64.0587 59.3092 64.6213 58.7466C65.1839 58.184 65.5 57.4209 65.5 56.6252V32.6252C65.5 31.8296 65.1839 31.0665 64.6213 30.5039C64.0587 29.9413 63.2957 29.6252 62.5 29.6252ZM59.2 32.6252L44.5 42.7952L29.8 32.6252H59.2ZM26.5 56.6252V33.9902L43.645 45.8552C43.8961 46.0294 44.1944 46.1228 44.5 46.1228C44.8056 46.1228 45.1039 46.0294 45.355 45.8552L62.5 33.9902V56.6252H26.5Z" fill="white"/>
</g>
<defs>
<clipPath id="clip0_4845_77">
<rect width="48" height="48" fill="white" transform="translate(20.5 20.6252)"/>
</clipPath>
</defs>
</svg>
