<svg width="89" height="90" viewBox="0 0 89 90" fill="none" xmlns="http://www.w3.org/2000/svg">
<rect y="0.125244" width="89" height="89" fill="#0057FF"/>
<g clip-path="url(#clip0_4845_76)">
<path d="M61 23.7771H43C42.2046 23.7779 41.442 24.0942 40.8796 24.6567C40.3171 25.2191 40.0008 25.9817 40 26.7771V41.7771H25C24.2046 41.7779 23.442 42.0942 22.8796 42.6567C22.3171 43.2191 22.0008 43.9817 22 44.7771V65.7771H64V26.7771C63.9991 25.9817 63.6827 25.2192 63.1203 24.6568C62.5579 24.0944 61.7954 23.778 61 23.7771ZM32.5 62.7771V52.2771H38.5V62.7771H32.5ZM61 62.7771H41.5V50.7771C41.5 50.3793 41.342 49.9977 41.0607 49.7164C40.7794 49.4351 40.3978 49.2771 40 49.2771H31C30.6022 49.2771 30.2206 49.4351 29.9393 49.7164C29.658 49.9977 29.5 50.3793 29.5 50.7771V62.7771H25V44.7771H43V26.7771H61V62.7771Z" fill="white"/>
<path d="M49 32.7771H46V35.7771H49V32.7771Z" fill="white"/>
<path d="M58 32.7771H55V35.7771H58V32.7771Z" fill="white"/>
<path d="M49 41.7771H46V44.7771H49V41.7771Z" fill="white"/>
<path d="M58 41.7771H55V44.7771H58V41.7771Z" fill="white"/>
<path d="M49 50.7766H46V53.7766H49V50.7766Z" fill="white"/>
<path d="M58 50.7766H55V53.7766H58V50.7766Z" fill="white"/>
</g>
<defs>
<clipPath id="clip0_4845_76">
<rect width="48" height="48" fill="white" transform="translate(19 20.7771)"/>
</clipPath>
</defs>
</svg>
