<svg xmlns="http://www.w3.org/2000/svg" width="90" height="58" viewBox="0 0 90 58" fill="none">
  <path fill-rule="evenodd" clip-rule="evenodd" d="M45 57.4863H58.8264L59.7879 52.9492H64.4895L67.3506 39.5496H53.1883L52.1729 44.3052H47.7932L45 57.4863ZM52.1729 44.3052L50.3272 52.9492H59.7879L61.6196 44.3052H52.1729Z" fill="#00BA61"/>
  <path fill-rule="evenodd" clip-rule="evenodd" d="M61.8464 44.3203H75.6728L76.6343 39.7832H81.3359L84.197 26.3836H70.0347L69.0193 31.1392H64.6396L61.8464 44.3203ZM69.0193 31.1392L67.1736 39.7832H76.6343L78.4661 31.1392H69.0193Z" fill="#00BA61"/>
  <path fill-rule="evenodd" clip-rule="evenodd" d="M53.5483 17.957H67.3747L68.3362 13.4199H73.0379L75.8989 0.0203342H61.7366L60.7212 4.77592H56.3415L53.5483 17.957ZM60.7212 4.77592L58.8755 13.4199H68.3362L70.168 4.77592H60.7212Z" fill="#00BA61"/>
  <path fill-rule="evenodd" clip-rule="evenodd" d="M50.7019 31.1387H64.5283L65.4898 26.6016H70.1914L73.0525 13.202H58.8902L57.8748 17.9576H53.4951L50.7019 31.1387ZM57.8748 17.9576L56.0291 26.6016H65.4898L67.3215 17.9576H57.8748Z" fill="#00BA61"/>
  <path fill-rule="evenodd" clip-rule="evenodd" d="M64.49 31.1387H78.3164L79.2779 26.6016H83.9795L86.8406 13.202H72.6783L71.6629 17.9576H67.2832L64.49 31.1387ZM71.6629 17.9576L69.8172 26.6016H79.2779L81.1096 17.9576H71.6629Z" fill="#00BA61"/>
  <path fill-rule="evenodd" clip-rule="evenodd" d="M67.5483 17.9355H81.3747L82.3362 13.3984H87.0379L89.8989 -0.00115013H75.7366L74.7212 4.75443H70.3415L67.5483 17.9355ZM74.7212 4.75443L72.8755 13.3984H82.3362L84.168 4.75443H74.7212Z" fill="#00BA61"/>
  <path fill-rule="evenodd" clip-rule="evenodd" d="M-3.8147e-05 57.4863H13.8264L14.7879 52.9492H19.4895L22.3506 39.5496H8.18828L7.17287 44.3052H2.79318L-3.8147e-05 57.4863ZM7.17287 44.3052L5.32721 52.9492H14.7879L16.6196 44.3052H7.17287Z" fill="#00BA61"/>
  <path fill-rule="evenodd" clip-rule="evenodd" d="M16.8464 44.3203H30.6728L31.6343 39.7832H36.3359L39.197 26.3836H25.0347L24.0193 31.1392H19.6396L16.8464 44.3203ZM24.0193 31.1392L22.1736 39.7832H31.6343L33.4661 31.1392H24.0193Z" fill="#00BA61"/>
  <path fill-rule="evenodd" clip-rule="evenodd" d="M8.5483 17.957H22.3747L23.3362 13.4199H28.0379L30.8989 0.0203342H16.7366L15.7212 4.77592H11.3415L8.5483 17.957ZM15.7212 4.77592L13.8755 13.4199H23.3362L25.168 4.77592H15.7212Z" fill="#00BA61"/>
  <path fill-rule="evenodd" clip-rule="evenodd" d="M5.70187 31.1387H19.5283L20.4898 26.6016H25.1914L28.0525 13.202H13.8902L12.8748 17.9576H8.49509L5.70187 31.1387ZM12.8748 17.9576L11.0291 26.6016H20.4898L22.3215 17.9576H12.8748Z" fill="#00BA61"/>
  <path fill-rule="evenodd" clip-rule="evenodd" d="M19.49 31.1387H33.3164L34.2779 26.6016H38.9795L41.8406 13.202H27.6783L26.6629 17.9576H22.2832L19.49 31.1387ZM26.6629 17.9576L24.8172 26.6016H34.2779L36.1096 17.9576H26.6629Z" fill="#00BA61"/>
  <path fill-rule="evenodd" clip-rule="evenodd" d="M22.5483 17.9355H36.3747L37.3362 13.3984H42.0379L44.8989 -0.00115013H30.7366L29.7212 4.75443H25.3415L22.5483 17.9355ZM29.7212 4.75443L27.8755 13.3984H37.3362L39.168 4.75443H29.7212Z" fill="#00BA61"/>
</svg>