<svg width="629" height="175" viewBox="0 0 629 175" fill="none" xmlns="http://www.w3.org/2000/svg">
<path d="M40.4141 62.9194L37.7419 69.9167H0L8.01974 48.9248H20.6004L15.2528 62.9194H40.4141Z" fill="#0036C2"/>
<path d="M61.0175 41.9272L58.342 48.9245L52.9944 62.9192H40.4138L45.7614 48.9245H20.6001L23.2773 41.9272H61.0175Z" fill="#0036C2"/>
<path d="M115.9 62.9204L113.226 69.9177H75.4839L83.5053 48.9258H96.086L90.7384 62.9204H115.9Z" fill="#0036C2"/>
<path d="M136.503 41.9287L133.828 48.926L128.48 62.9206H115.9L121.247 48.926H96.0859L98.7614 41.9287H136.503Z" fill="#0036C2"/>
<path d="M70.1349 83.9111L67.4611 90.9084H29.7191L37.7405 69.9165H50.3212L44.9736 83.9111H70.1349Z" fill="#0036C2"/>
<path d="M90.7385 62.9194L88.063 69.9167L82.7154 83.9113H70.1347L75.4823 69.9167H50.321L52.9965 62.9194H90.7385Z" fill="#0036C2"/>
<path d="M132.406 20.9917L129.734 27.989H91.9921L100.012 6.99707H112.592L107.245 20.9917H132.406Z" fill="#0036C2"/>
<path d="M153.01 0L150.334 6.9973L144.986 20.9919H132.406L137.753 6.9973H112.592L115.269 0H153.01Z" fill="#0036C2"/>
<path d="M207.892 20.9927L205.218 27.99H167.476L175.497 6.99805H188.078L182.73 20.9927H207.892Z" fill="#0036C2"/>
<path d="M228.495 0.000488281L225.82 6.99779L220.472 20.9924H207.892L213.239 6.99779H188.078L190.753 0.000488281H228.495Z" fill="#0036C2"/>
<path d="M162.127 41.9839L159.453 48.9812H121.711L129.732 27.9893H142.313L136.966 41.9839H162.127Z" fill="#0036C2"/>
<path d="M182.731 20.9917L180.055 27.989L174.707 41.9836H162.127L167.474 27.989H142.313L144.989 20.9917H182.731Z" fill="#0036C2"/>
<path d="M145.634 83.9111L142.962 90.9084H105.22L113.239 69.9165H125.82L120.472 83.9111H145.634Z" fill="#0036C2"/>
<path d="M166.237 62.9194L163.562 69.9167L158.214 83.9113H145.634L150.981 69.9167H125.82L128.497 62.9194H166.237Z" fill="#0036C2"/>
<path d="M221.119 83.9121L218.446 90.9094H180.704L188.725 69.9175H201.306L195.958 83.9121H221.119Z" fill="#0036C2"/>
<path d="M241.723 62.9199L239.047 69.9172L233.7 83.9118H221.119L226.467 69.9172H201.306L203.981 62.9199H241.723Z" fill="#0036C2"/>
<path d="M175.354 104.903L172.681 111.9H134.939L142.96 90.9082H155.541L150.193 104.903H175.354Z" fill="#0036C2"/>
<path d="M195.958 83.9111L193.283 90.9084L187.935 104.903H175.354L180.702 90.9084H155.541L158.216 83.9111H195.958Z" fill="#0036C2"/>
<path d="M368.311 84.0014L365.638 90.9987H327.896L335.916 70.0068H348.497L343.149 84.0014H368.311Z" fill="#0036C2"/>
<path d="M388.914 63.0093L386.238 70.0066L380.891 84.0012H368.31L373.658 70.0066H348.496L351.174 63.0093H388.914Z" fill="#0036C2"/>
<path d="M443.796 84.0024L441.122 90.9997H403.38L411.402 70.0078H423.982L418.635 84.0024H443.796Z" fill="#0036C2"/>
<path d="M464.4 63.0103L461.724 70.0076L456.377 84.0022H443.796L449.143 70.0076H423.982L426.658 63.0103H464.4Z" fill="#0036C2"/>
<path d="M398.031 104.993L395.357 111.99H357.615L365.637 90.9985H378.217L372.87 104.993H398.031Z" fill="#0036C2"/>
<path d="M418.635 84.0015L415.959 90.9988L410.612 104.993H398.031L403.379 90.9988H378.218L380.893 84.0015H418.635Z" fill="#0036C2"/>
<path d="M460.303 42.0742L457.63 49.0715H419.889L427.908 28.0796H440.489L435.141 42.0742H460.303Z" fill="#0036C2"/>
<path d="M480.906 21.082L478.23 28.0793L472.883 42.0739H460.302L465.65 28.0793H440.489L443.166 21.082H480.906Z" fill="#0036C2"/>
<path d="M535.788 42.0752L533.114 49.0725H495.372L503.394 28.0806H515.975L510.627 42.0752H535.788Z" fill="#0036C2"/>
<path d="M556.392 21.083L553.716 28.0803L548.369 42.0749H535.788L541.136 28.0803H515.974L518.65 21.083H556.392Z" fill="#0036C2"/>
<path d="M490.023 63.0659L487.349 70.0632H449.607L457.629 49.0713H470.209L464.862 63.0659H490.023Z" fill="#0036C2"/>
<path d="M510.627 42.0742L507.951 49.0715L502.604 63.0661H490.023L495.371 49.0715H470.209L472.885 42.0742H510.627Z" fill="#0036C2"/>
<path d="M473.531 104.993L470.859 111.99H433.117L441.137 90.9985H453.717L448.37 104.993H473.531Z" fill="#0036C2"/>
<path d="M494.134 84.0015L491.459 90.9988L486.111 104.993H473.531L478.878 90.9988H453.717L456.394 84.0015H494.134Z" fill="#0036C2"/>
<path d="M549.016 104.995L546.342 111.992H508.6L516.621 91H529.202L523.854 104.995H549.016Z" fill="#0036C2"/>
<path d="M569.619 84.0024L566.944 90.9997L561.596 104.994H549.016L554.363 90.9997H529.202L531.877 84.0024H569.619Z" fill="#0036C2"/>
<path d="M503.252 125.985L500.578 132.983H462.836L470.857 111.991H483.438L478.09 125.985H503.252Z" fill="#0036C2"/>
<path d="M523.855 104.994L521.179 111.991L515.831 125.986H503.251L508.598 111.991H483.437L486.113 104.994H523.855Z" fill="#0036C2"/>
<path d="M419.685 146.977L417.013 153.974H379.271L387.291 132.982H399.871L394.524 146.977H419.685Z" fill="#0036C2"/>
<path d="M440.288 125.985L437.613 132.983L432.265 146.977H419.685L425.032 132.983H399.871L402.548 125.985H440.288Z" fill="#0036C2"/>
<path d="M495.171 146.978L492.497 153.975H454.755L462.776 132.983H475.357L470.009 146.978H495.171Z" fill="#0036C2"/>
<path d="M515.774 125.986L513.099 132.984L507.751 146.978H495.17L500.518 132.984H475.357L478.032 125.986H515.774Z" fill="#0036C2"/>
<path d="M449.406 167.969L446.732 174.967H408.99L417.011 153.975H429.592L424.244 167.969H449.406Z" fill="#0036C2"/>
<path d="M470.009 146.977L467.334 153.974L461.986 167.969H449.406L454.753 153.974H429.592L432.268 146.977H470.009Z" fill="#0036C2"/>
<path d="M306.557 147.011L303.885 154.008H266.143L274.162 133.016H286.743L281.395 147.011H306.557Z" fill="#0036C2"/>
<path d="M327.16 126.019L324.485 133.016L319.137 147.011H306.556L311.904 133.016H286.743L289.42 126.019H327.16Z" fill="#0036C2"/>
<path d="M382.042 147.011L379.368 154.009H341.626L349.648 133.017H362.229L356.881 147.011H382.042Z" fill="#0036C2"/>
<path d="M402.646 126.02L399.97 133.017L394.623 147.012H382.042L387.39 133.017H362.228L364.904 126.02H402.646Z" fill="#0036C2"/>
<path d="M336.277 168.003L333.604 175H295.862L303.883 154.008H316.464L311.116 168.003H336.277Z" fill="#0036C2"/>
<path d="M356.881 147.01L354.206 154.008L348.858 168.002H336.277L341.625 154.008H316.464L319.139 147.01H356.881Z" fill="#0036C2"/>
<path d="M532.911 146.74L530.239 153.738H492.497L500.517 132.746H513.097L507.75 146.74H532.911Z" fill="#0036C2"/>
<path d="M553.514 125.748L550.839 132.745L545.491 146.74H532.91L538.258 132.745H513.097L515.774 125.748H553.514Z" fill="#0036C2"/>
<path d="M608.397 146.741L605.723 153.738H567.981L576.002 132.747H588.583L583.235 146.741H608.397Z" fill="#0036C2"/>
<path d="M629 125.75L626.324 132.747L620.977 146.741H608.396L613.744 132.747H588.583L591.258 125.75H629Z" fill="#0036C2"/>
<path d="M562.631 167.732L559.958 174.729H522.216L530.237 153.737H542.818L537.47 167.732H562.631Z" fill="#0036C2"/>
<path d="M583.235 146.74L580.56 153.738L575.212 167.732H562.632L567.979 153.738H542.818L545.493 146.74H583.235Z" fill="#0036C2"/>
</svg>
