<svg width="777" height="265" viewBox="0 0 777 265" fill="none" xmlns="http://www.w3.org/2000/svg">
<path d="M64.9553 181.439L60.6706 201.607H0.152222L13.0117 141.104H33.1845L24.6097 181.439H64.9553Z" fill="#0036C2"/>
<path d="M97.9926 120.937L93.7025 141.104L85.1277 181.44H64.9549L73.5297 141.104H33.1841L37.4769 120.937H97.9926Z" fill="#0036C2"/>
<path d="M185.995 181.442L181.707 201.61H121.189L134.051 141.107H154.224L145.649 181.442H185.995Z" fill="#0036C2"/>
<path d="M219.032 120.939L214.742 141.107L206.167 181.442H185.995L194.569 141.107H154.224L158.514 120.939H219.032Z" fill="#0036C2"/>
<path d="M112.612 241.942L108.325 262.11H47.8062L60.6683 201.607H80.8411L72.2663 241.942H112.612Z" fill="#0036C2"/>
<path d="M145.649 181.44L141.359 201.607L132.785 241.943H112.612L121.187 201.607H80.8409L85.131 181.44H145.649Z" fill="#0036C2"/>
<path d="M212.463 60.5967L208.178 80.7643H147.659L160.519 20.2615H180.692L172.117 60.5967H212.463Z" fill="#0036C2"/>
<path d="M245.5 0.0939941L241.21 20.2616L232.635 60.5968H212.462L221.037 20.2616H180.691L184.984 0.0939941H245.5Z" fill="#0036C2"/>
<path d="M333.502 60.5996L329.215 80.7672H268.696L281.558 20.2644H301.731L293.156 60.5996H333.502Z" fill="#0036C2"/>
<path d="M366.54 0.0964355L362.25 20.264L353.675 60.5993H333.502L342.077 20.264H301.731L306.021 0.0964355H366.54Z" fill="#0036C2"/>
<path d="M260.119 121.099L255.832 141.267H195.313L208.176 80.7642H228.348L219.774 121.099H260.119Z" fill="#0036C2"/>
<path d="M293.157 60.5967L288.867 80.7643L280.292 121.099H260.119L268.694 80.7643H228.348L232.638 60.5967H293.157Z" fill="#0036C2"/>
<path d="M233.673 241.942L229.388 262.11H168.87L181.729 201.607H201.902L193.327 241.942H233.673Z" fill="#0036C2"/>
<path d="M266.71 181.439L262.42 201.607L253.845 241.942H233.672L242.247 201.607H201.902L206.194 181.439H266.71Z" fill="#0036C2"/>
<path d="M354.712 241.945L350.425 262.113H289.906L302.769 201.61H322.941L314.367 241.945H354.712Z" fill="#0036C2"/>
<path d="M387.75 181.442L383.46 201.61L374.885 241.945H354.712L363.287 201.61H322.941L327.231 181.442H387.75Z" fill="#0036C2"/>
<path d="M281.329 302.445L277.042 322.613H216.523L229.386 262.11H249.558L240.984 302.445H281.329Z" fill="#0036C2"/>
<path d="M314.367 241.942L310.077 262.11L301.502 302.445H281.329L289.904 262.11H249.558L253.848 241.942H314.367Z" fill="#0036C2"/>
<path d="M590.73 242.202L586.445 262.37H525.927L538.786 201.867H558.959L550.384 242.202H590.73Z" fill="#0036C2"/>
<path d="M623.767 181.699L619.477 201.867L610.902 242.202H590.73L599.304 201.867H558.959L563.252 181.699H623.767Z" fill="#0036C2"/>
<path d="M711.77 242.205L707.482 262.372H646.964L659.826 201.87H679.999L671.424 242.205H711.77Z" fill="#0036C2"/>
<path d="M744.807 181.702L740.517 201.87L731.942 242.205H711.769L720.344 201.87H679.998L684.288 181.702H744.807Z" fill="#0036C2"/>
<path d="M638.386 302.705L634.099 322.872H573.581L586.443 262.37H606.616L598.041 302.705H638.386Z" fill="#0036C2"/>
<path d="M671.424 242.202L667.134 262.37L658.559 302.705H638.387L646.961 262.37H606.616L610.906 242.202H671.424Z" fill="#0036C2"/>
<path d="M738.237 121.359L733.952 141.527H673.434L686.294 81.0242H706.466L697.892 121.359H738.237Z" fill="#0036C2"/>
<path d="M771.274 60.8567L766.984 81.0243L758.409 121.36H738.237L746.811 81.0243H706.466L710.759 60.8567H771.274Z" fill="#0036C2"/>
<path d="M785.894 181.862L781.606 202.03H721.088L733.95 141.527H754.123L745.548 181.862H785.894Z" fill="#0036C2"/>
<path d="M818.931 121.359L814.641 141.527L806.066 181.862H785.893L794.468 141.527H754.123L758.413 121.359H818.931Z" fill="#0036C2"/>
<path d="M759.449 302.705L755.164 322.872H694.646L707.505 262.37H727.678L719.103 302.705H759.449Z" fill="#0036C2"/>
<path d="M792.486 242.202L788.196 262.37L779.621 302.705H759.448L768.023 262.37H727.677L731.97 242.202H792.486Z" fill="#0036C2"/>
</svg>
