<svg width="790" height="273" viewBox="0 0 790 273" fill="none" xmlns="http://www.w3.org/2000/svg">
<path d="M50.7321 98.1538L47.3777 109.07H0L10.0672 76.3223H25.8598L19.1469 98.1538H50.7321Z" fill="#0036C2"/>
<path d="M76.5958 65.4067L73.2372 76.3225L66.5243 98.1541H50.7317L57.4446 76.3225H25.8595L29.2202 65.4067H76.5958Z" fill="#0036C2"/>
<path d="M145.49 98.1553L142.133 109.071H94.7555L104.825 76.3237H120.617L113.905 98.1553H145.49Z" fill="#0036C2"/>
<path d="M171.354 65.4077L167.995 76.3235L161.282 98.1551H145.49L152.202 76.3235H120.617L123.976 65.4077H171.354Z" fill="#0036C2"/>
<path d="M88.0408 130.901L84.6843 141.817H37.3066L47.376 109.069H63.1685L56.4557 130.901H88.0408Z" fill="#0036C2"/>
<path d="M113.905 98.1538L110.546 109.07L103.833 130.901H88.0406L94.7535 109.07H63.1683L66.5269 98.1538H113.905Z" fill="#0036C2"/>
<path d="M166.21 32.7466L162.856 43.6624H115.478L125.545 10.915H141.338L134.625 32.7466H166.21Z" fill="#0036C2"/>
<path d="M192.074 0L188.715 10.9158L182.002 32.7474H166.21L172.923 10.9158H141.338L144.698 0H192.074Z" fill="#0036C2"/>
<path d="M260.968 32.7491L257.611 43.6648H210.234L220.303 10.9175H236.096L229.383 32.7491H260.968Z" fill="#0036C2"/>
<path d="M286.832 0.00146484L283.473 10.9173L276.76 32.7488H260.968L267.681 10.9173H236.095L239.454 0.00146484H286.832Z" fill="#0036C2"/>
<path d="M203.519 65.4947L200.162 76.4104H152.785L162.854 43.6631H178.647L171.934 65.4947H203.519Z" fill="#0036C2"/>
<path d="M229.383 32.7476L226.024 43.6633L219.312 65.4949H203.519L210.232 43.6633H178.647L182.005 32.7476H229.383Z" fill="#0036C2"/>
<path d="M182.815 130.901L179.461 141.817H132.083L142.15 109.069H157.943L151.23 130.901H182.815Z" fill="#0036C2"/>
<path d="M208.679 98.1538L205.32 109.07L198.607 130.901H182.815L189.528 109.07H157.942L161.303 98.1538H208.679Z" fill="#0036C2"/>
<path d="M277.573 130.902L274.216 141.818H226.838L236.908 109.071H252.7L245.987 130.902H277.573Z" fill="#0036C2"/>
<path d="M303.436 98.1553L300.078 109.071L293.365 130.903H277.572L284.285 109.071H252.7L256.059 98.1553H303.436Z" fill="#0036C2"/>
<path d="M220.124 163.648L216.767 174.564H169.389L179.459 141.817H195.251L188.538 163.648H220.124Z" fill="#0036C2"/>
<path d="M245.988 130.901L242.629 141.817L235.916 163.649H220.124L226.836 141.817H195.251L198.61 130.901H245.988Z" fill="#0036C2"/>
<path d="M462.343 131.043L458.988 141.958H411.61L421.678 109.211H437.47L430.757 131.043H462.343Z" fill="#0036C2"/>
<path d="M488.206 98.2944L484.848 109.21L478.135 131.042H462.342L469.055 109.21H437.47L440.831 98.2944H488.206Z" fill="#0036C2"/>
<path d="M557.1 131.044L553.744 141.96H506.366L516.435 109.212H532.228L525.515 131.044H557.1Z" fill="#0036C2"/>
<path d="M582.964 98.2964L579.605 109.212L572.893 131.044H557.1L563.813 109.212H532.228L535.586 98.2964H582.964Z" fill="#0036C2"/>
<path d="M499.651 163.789L496.295 174.705H448.917L458.986 141.958H474.779L468.066 163.789H499.651Z" fill="#0036C2"/>
<path d="M525.515 131.042L522.157 141.958L515.444 163.789H499.651L506.364 141.958H474.779L478.137 131.042H525.515Z" fill="#0036C2"/>
<path d="M577.821 65.6353L574.467 76.5511H527.089L537.156 43.8037H552.949L546.236 65.6353H577.821Z" fill="#0036C2"/>
<path d="M603.684 32.8887L600.326 43.8045L593.613 65.636H577.82L584.533 43.8045H552.948L556.309 32.8887H603.684Z" fill="#0036C2"/>
<path d="M672.578 65.6368L669.222 76.5525H621.844L631.914 43.8052H647.706L640.993 65.6368H672.578Z" fill="#0036C2"/>
<path d="M698.442 32.8892L695.084 43.8049L688.371 65.6365H672.578L679.291 43.8049H647.706L651.064 32.8892H698.442Z" fill="#0036C2"/>
<path d="M615.129 98.3833L611.773 109.299H564.395L574.465 76.5518H590.257L583.544 98.3833H615.129Z" fill="#0036C2"/>
<path d="M640.993 65.6357L637.635 76.5515L630.922 98.3831H615.129L621.842 76.5515H590.257L593.615 65.6357H640.993Z" fill="#0036C2"/>
<path d="M594.427 163.789L591.073 174.705H543.695L553.762 141.958H569.555L562.842 163.789H594.427Z" fill="#0036C2"/>
<path d="M620.29 131.042L616.932 141.957L610.219 163.789H594.426L601.139 141.957H569.554L572.915 131.042H620.29Z" fill="#0036C2"/>
<path d="M689.183 163.791L685.826 174.707H638.449L648.518 141.959H664.311L657.598 163.791H689.183Z" fill="#0036C2"/>
<path d="M715.047 131.043L711.688 141.959L704.975 163.791H689.183L695.896 141.959H664.311L667.669 131.043H715.047Z" fill="#0036C2"/>
<path d="M631.735 196.536L628.379 207.452H581.001L591.071 174.705H606.863L600.15 196.536H631.735Z" fill="#0036C2"/>
<path d="M657.598 163.79L654.24 174.706L647.527 196.537H631.734L638.447 174.706H606.862L610.22 163.79H657.598Z" fill="#0036C2"/>
<path d="M526.833 229.284L523.479 240.2H476.101L486.168 207.452H501.961L495.248 229.284H526.833Z" fill="#0036C2"/>
<path d="M552.697 196.536L549.338 207.452L542.626 229.283H526.833L533.546 207.452H501.961L505.321 196.536H552.697Z" fill="#0036C2"/>
<path d="M621.591 229.285L618.235 240.201H570.857L580.926 207.454H596.719L590.006 229.285H621.591Z" fill="#0036C2"/>
<path d="M647.455 196.538L644.096 207.453L637.384 229.285H621.591L628.304 207.453H596.719L600.077 196.538H647.455Z" fill="#0036C2"/>
<path d="M564.142 262.032L560.785 272.948H513.408L523.477 240.2H539.27L532.557 262.032H564.142Z" fill="#0036C2"/>
<path d="M590.006 229.284L586.647 240.199L579.935 262.031H564.142L570.855 240.199H539.27L542.628 229.284H590.006Z" fill="#0036C2"/>
<path d="M384.823 229.337L381.468 240.253H334.09L344.158 207.505H359.95L353.237 229.337H384.823Z" fill="#0036C2"/>
<path d="M410.686 196.59L407.328 207.506L400.615 229.337H384.822L391.535 207.506H359.95L363.311 196.59H410.686Z" fill="#0036C2"/>
<path d="M479.58 229.338L476.224 240.254H428.846L438.915 207.506H454.708L447.995 229.338H479.58Z" fill="#0036C2"/>
<path d="M505.444 196.591L502.085 207.507L495.372 229.339H479.58L486.293 207.507H454.708L458.066 196.591H505.444Z" fill="#0036C2"/>
<path d="M422.131 262.084L418.775 273H371.397L381.466 240.252H397.259L390.546 262.084H422.131Z" fill="#0036C2"/>
<path d="M447.995 229.336L444.637 240.252L437.924 262.084H422.131L428.844 240.252H397.259L400.617 229.336H447.995Z" fill="#0036C2"/>
<path d="M668.967 228.915L665.612 239.83H618.235L628.302 207.083H644.094L637.382 228.915H668.967Z" fill="#0036C2"/>
<path d="M694.83 196.167L691.471 207.083L684.759 228.915H668.966L675.679 207.083H644.094L647.454 196.167H694.83Z" fill="#0036C2"/>
<path d="M763.724 228.916L760.368 239.832H712.99L723.059 207.084H738.852L732.139 228.916H763.724Z" fill="#0036C2"/>
<path d="M789.588 196.169L786.229 207.085L779.516 228.916H763.724L770.436 207.085H738.851L742.21 196.169H789.588Z" fill="#0036C2"/>
<path d="M706.275 261.662L702.918 272.577H655.541L665.61 239.83H681.403L674.69 261.662H706.275Z" fill="#0036C2"/>
<path d="M732.139 228.915L728.781 239.83L722.068 261.662H706.275L712.988 239.83H681.403L684.761 228.915H732.139Z" fill="#0036C2"/>
</svg>
