<svg width="461" height="249" viewBox="0 0 461 249" fill="none" xmlns="http://www.w3.org/2000/svg">
<rect width="461" height="249" fill="#0057FF"/>
<path fill-rule="evenodd" clip-rule="evenodd" d="M174.805 77.1957L152.044 77.1957L150.331 84.6626H142.591L139.304 98.8908H124.305L122.592 106.358H114.853L109.758 128.413H132.315L127.303 150.109H150.334L145.322 171.804H168.636L170.444 163.977H177.654L182.631 142.282H159.87L158.157 149.749H150.7L152.425 142.282H159.635L162.817 128.413H178.827L180.635 120.586H187.845L192.822 98.8908H170.061L168.348 106.358H160.894L162.618 98.8913H169.828L174.805 77.1957ZM168.348 106.358L165.084 120.586H180.635L183.922 106.358H168.348ZM155.629 128.413L152.425 142.282H136.874L140.138 128.054H155.596L155.513 128.413H155.629ZM157.321 120.587H141.851L140.138 128.054H133.155L134.88 120.586H142.09L145.271 106.718H160.525L157.321 120.587ZM158.157 149.749H173.731L170.444 163.977H154.893L158.157 149.749ZM134.88 120.586H119.328L122.592 106.358H137.579L137.496 106.718H138.083L134.88 120.586ZM162.618 98.8913H147.067L150.331 84.6626H165.905L162.618 98.8913Z" fill="white"/>
<path fill-rule="evenodd" clip-rule="evenodd" d="M214.011 119.767H220.537L222.3 111.291H215.774L218.413 98.8459H208.321L205.681 111.291H199.962L198.2 119.767H203.919L201.355 131.742C201.133 132.885 200.98 133.962 200.963 134.904C200.875 139.949 204.13 142.371 209.512 142.371H213.751L215.799 132.953H214.655C212.57 132.953 211.772 132.415 211.8 130.8C211.808 130.329 211.885 129.791 212.031 129.118L214.011 119.767ZM350.237 119.767H343.711L341.731 129.118C341.585 129.791 341.508 130.329 341.5 130.8C341.472 132.415 342.27 132.953 344.355 132.953L347.569 132.473L345.52 141.891L339.212 142.371C333.83 142.371 330.575 139.949 330.663 134.904C330.68 133.962 330.833 132.885 331.055 131.742L333.619 119.767H327.9L329.662 111.291H335.381L338.021 98.8459H348.113L345.474 111.291H352L350.237 119.767ZM327.031 122.862C326.999 124.745 326.693 126.831 325.978 129.253H303.708C304.115 132.885 306.167 134.836 310.54 134.836C314.51 134.836 317.831 133.424 320.142 132.078L323.166 140.016C319.228 142.034 314.832 143.38 309.718 143.38C300.03 143.38 293.669 137.729 293.831 128.445C293.982 119.835 299.664 110.349 312.582 110.349C321.396 110.349 327.171 114.857 327.031 122.862ZM304.35 123.266H316.999C317.074 122.862 317.08 122.526 317.088 122.055C317.137 119.229 315.148 117.547 311.986 117.547C308.353 117.547 305.622 119.767 304.35 123.266ZM254.197 142.37H264.357L267.657 126.763C268.909 120.574 271.564 118.758 274.928 118.758C278.023 118.758 279.815 120.171 279.755 123.602C279.735 124.745 279.512 125.956 279.222 127.167L276.064 142.37H286.156L289.664 126.427C290.177 124.005 290.353 121.651 290.375 120.373C290.494 113.578 286.649 110.282 280.661 110.282C276.086 110.282 272.685 112.367 269.863 116H269.729L270.753 111.291H260.795L254.197 142.37ZM253.703 122.862C253.67 124.745 253.365 126.831 252.65 129.253H230.379C230.787 132.885 232.838 134.836 237.212 134.836C241.181 134.836 244.503 133.424 246.814 132.078L249.838 140.016C245.9 142.034 241.503 143.38 236.39 143.38C226.701 143.38 220.341 137.729 220.503 128.445C220.653 119.835 226.336 110.349 239.254 110.349C248.068 110.349 253.843 114.857 253.703 122.862ZM231.022 123.266H243.671C243.745 122.862 243.751 122.526 243.759 122.055C243.809 119.229 241.82 117.547 238.657 117.547C235.024 117.547 232.294 119.767 231.022 123.266Z" fill="white"/>
</svg>
