<svg width="462" height="250" viewBox="0 0 462 250" fill="none" xmlns="http://www.w3.org/2000/svg">
<mask id="mask0_5872_56" style="mask-type:alpha" maskUnits="userSpaceOnUse" x="0" y="0" width="462" height="250">
<rect x="0.811768" y="0.499023" width="461" height="249" fill="#FF813A"/>
</mask>
<g mask="url(#mask0_5872_56)">
<rect x="0.811768" y="0.499023" width="461" height="249" fill="#FF813A"/>
<path fill-rule="evenodd" clip-rule="evenodd" d="M338.978 73.1276L308.105 62.7298L305.12 69.2231C299.724 67.0215 286.926 62.3445 278.901 61.25C268.871 59.8818 258.018 60.1136 253.561 63.1319C249.105 66.1502 248.089 70.0464 249.35 71.4392C250.611 72.8321 255.211 73.2215 258.75 72.111C258.865 72.0748 258.983 72.0375 259.105 71.9992C262.716 70.8613 269.055 68.8639 274.932 70.9767C279.793 72.7239 281.893 73.2055 282.335 73.2279C277.585 73.5214 267.252 74.2929 263.927 75.0312C259.771 75.9541 250.234 79.6139 247.755 82.2243C245.277 84.8347 243.643 88.5433 245.274 90.3848C246.578 91.858 248.54 92.3873 249.358 92.4679C247.598 94.0073 244.076 97.7582 244.067 100.447C244.056 103.808 246.196 105.636 248.87 104.599C249.947 104.181 251.947 102.707 254.154 101.08C257.427 98.6671 261.156 95.9179 263.009 95.7784C264.086 95.6973 265.467 95.2835 266.994 94.826C269.867 93.9649 273.257 92.949 276.108 93.7061C267.296 98.8612 266.744 100.86 265.85 104.098C265.745 104.475 265.637 104.868 265.51 105.286C264.292 109.289 263.981 114.745 265.303 116.493C265.725 117.051 265.971 117.625 266.197 118.151C266.677 119.272 267.065 120.178 268.872 120.27C270.996 120.377 272.537 120.038 273.042 119.856C272.767 120.389 272.495 121.876 273.601 123.558C274.983 125.661 279.472 131.399 285.525 130.885C291.579 130.371 306.104 126.378 309.943 123.172C313.782 119.966 327.611 107.182 330.503 100.996C332.816 96.0481 337.117 80.3554 338.978 73.1276ZM273.248 118.068C273.253 115.098 273.472 108.8 274.31 107.373C275.358 105.589 281.145 101.798 284.739 102.723C288.333 103.648 294.429 106.595 294.086 109.939C293.987 110.898 294.11 111.953 294.234 113.024C294.543 115.685 294.864 118.446 291.837 120.104C287.591 122.43 284.275 121.422 281.191 120.484L273.248 118.068Z" fill="#FFCCB6"/>
<path fill-rule="evenodd" clip-rule="evenodd" d="M247.69 70.1771C247.779 71.5821 247.924 72.0365 248.462 72.6033C248.743 72.8995 249.011 73.1219 249.057 73.0976C249.103 73.073 249.368 73.2404 249.645 73.4695C250.414 74.1046 253.34 74.6246 254.53 74.3379C254.68 74.3018 255.002 74.2419 255.245 74.205C255.488 74.1678 256.021 74.0088 256.429 73.8514C256.838 73.6941 257.601 73.4685 258.124 73.3501C260.037 72.9177 260.856 72.6873 261.432 72.4193C261.756 72.2686 262.38 72.0883 262.818 72.0184C263.256 71.9487 263.738 71.8585 263.89 71.8182C264.598 71.6298 267.277 71.3263 268.339 71.314C268.99 71.3066 269.758 71.2761 270.045 71.2461C270.332 71.2163 271.517 71.432 272.679 71.7256C273.841 72.0192 275.03 72.2984 275.323 72.346C275.615 72.3937 276.012 72.5278 276.206 72.6438C276.486 72.812 276.508 72.8872 276.315 73.0141C276.182 73.1018 275.89 73.1203 275.666 73.0553C275.442 72.9903 274.835 72.96 274.317 72.9879C273.151 73.0508 271.375 73.0692 270.582 73.0266C269.388 72.9625 264.201 73.7682 262.677 74.2547C262.031 74.4609 261.468 74.6194 261.426 74.6067C261.384 74.594 261.122 74.657 260.844 74.7466C260.566 74.8362 259.343 75.1948 258.126 75.5436C256.91 75.8924 255.47 76.3868 254.928 76.6424C253.132 77.4884 248.768 79.9172 248.428 80.2596C248.245 80.4448 247.699 80.9222 247.215 81.3204C245.751 82.5252 244.453 84.3035 243.515 86.3895C243.234 87.0126 243.239 88.5741 243.527 90.2464L243.776 91.6953L245.029 92.5622C245.718 93.0391 246.295 93.4484 246.312 93.4719C246.328 93.4955 246.124 93.7444 245.858 94.0254C244.962 94.9703 244.113 95.9995 243.871 96.434C243.254 97.5395 243.187 97.7096 242.787 99.1806C242.734 99.3762 242.766 99.8779 242.858 100.296C242.95 100.713 243.087 101.339 243.162 101.685C243.521 103.349 244.833 104.771 246.407 105.205C248.578 105.803 249.641 105.698 251.83 104.673C253.11 104.073 254.96 102.826 255.065 102.493C255.097 102.391 255.628 102.015 256.246 101.658C256.863 101.301 257.584 100.855 257.847 100.667C258.11 100.479 258.432 100.297 258.561 100.262C258.691 100.228 258.818 100.129 258.844 100.044C258.91 99.8278 260.274 98.8645 260.813 98.6536C261.058 98.5581 261.599 98.3101 262.016 98.1026C262.433 97.8951 262.866 97.7529 262.977 97.7868C263.089 97.8207 263.346 97.7098 263.55 97.5403C263.753 97.3709 263.992 97.2542 264.08 97.2811C264.168 97.308 264.666 97.0996 265.186 96.8183C265.705 96.537 266.49 96.2495 266.928 96.1796C267.367 96.1097 267.905 95.9653 268.123 95.8588C268.615 95.6187 270.643 95.0435 270.609 95.1536C270.596 95.1978 270.766 95.1982 270.988 95.1543C271.318 95.0889 271.267 95.1557 270.701 95.5238C270.322 95.7709 269.924 96.0334 269.817 96.1071C269.711 96.1809 269.56 96.2486 269.482 96.2574C269.336 96.274 267.46 98.3065 267.396 98.5165C267.377 98.581 267.118 98.9081 266.822 99.2433C265.58 100.65 264.508 102.847 263.87 105.291C263.058 108.404 262.854 109.673 262.989 110.777C263.042 111.211 263.066 111.703 263.042 111.871C263.018 112.038 263.076 112.539 263.171 112.985C263.267 113.43 263.4 114.322 263.468 114.967C263.536 115.613 263.652 116.159 263.728 116.182C263.803 116.205 263.834 116.323 263.797 116.445C263.705 116.749 265.19 119.419 265.72 119.9C266.91 120.981 269.446 121.753 270.77 121.437C271.701 121.215 271.778 121.229 271.665 121.6C271.617 121.757 271.665 122.169 271.772 122.515C271.878 122.862 271.989 123.379 272.018 123.665C272.066 124.148 272.827 125.201 274.473 127.063C275.988 128.776 281.17 131.297 283.422 131.416C283.787 131.436 284.511 131.542 285.031 131.652C285.55 131.763 286.385 131.798 286.885 131.731C287.385 131.664 288.041 131.634 288.343 131.664C289.089 131.739 289.675 131.7 291.327 131.465C292.101 131.355 292.924 131.267 293.155 131.27C293.386 131.273 293.75 131.196 293.965 131.099C294.18 131.002 294.564 130.881 294.817 130.831C295.53 130.689 296.968 130.289 297.67 130.036C298.018 129.911 298.604 129.71 298.971 129.591C300.448 129.109 302.089 128.412 303.446 127.69C304.233 127.272 305 126.87 305.15 126.797C306.49 126.146 311.581 123.312 311.616 123.199C311.64 123.118 311.994 122.825 312.402 122.547C314.987 120.785 315.993 120.027 317.031 119.062C317.612 118.523 318.162 118.061 318.254 118.037C318.347 118.012 318.461 117.866 318.507 117.712C318.554 117.558 318.72 117.379 318.875 117.314C319.03 117.249 319.728 116.64 320.424 115.96C321.121 115.28 322.088 114.351 322.574 113.896C323.718 112.824 324.462 111.985 324.749 111.442C324.876 111.203 325.202 110.861 325.474 110.682C325.745 110.503 325.998 110.257 326.035 110.135C326.072 110.014 326.201 109.813 326.322 109.689C326.559 109.445 327.668 107.964 328.449 106.848C328.715 106.466 329.191 105.665 329.506 105.067C329.822 104.469 330.254 103.665 330.468 103.28C330.682 102.895 330.837 102.507 330.813 102.418C330.79 102.328 330.851 102.185 330.949 102.099C331.151 101.923 331.336 101.622 331.449 101.284C331.491 101.158 331.659 100.831 331.823 100.556C331.986 100.282 332.424 99.2045 332.797 98.1613C333.169 97.118 333.625 95.8942 333.81 95.4416C334.118 94.6864 336.864 86.1828 337.148 85.1026C337.311 84.4848 337.352 84.3558 338.843 79.7357C339.67 77.1766 340.191 75.3252 340.304 74.5448C340.486 73.2916 340.439 72.3943 340.188 72.3179C340.109 72.2938 339.89 72.0744 339.701 71.8304C339.409 71.4518 339.049 71.2812 337.249 70.6671C333.533 69.3998 331.047 68.509 330.965 68.4151C330.92 68.3649 329.399 67.8683 327.585 67.3114C325.771 66.7546 324.148 66.2554 323.979 66.2022C323.809 66.149 320.219 65.0561 315.999 63.7735C315.41 63.5945 314.86 63.4266 314.346 63.2698C309.299 61.7285 307.744 61.2537 307.036 61.8262C306.721 62.0811 306.573 62.5436 306.36 63.2119C306.311 63.3648 306.259 63.5284 306.201 63.7028C305.204 66.6808 304.742 67.8031 304.482 67.8815C304.201 67.9663 302 67.2619 301.363 66.8834C301.127 66.7437 300.563 66.4774 300.11 66.2918C299.657 66.1061 298.787 65.7252 298.177 65.445C294.735 63.8647 290.705 62.3366 286.923 61.178C284.272 60.3659 281.969 59.7387 281.944 59.8218C281.935 59.8491 280.705 59.6172 279.952 59.4464C279.562 59.3579 278.985 59.2589 278.671 59.2264C278.356 59.1938 277.812 59.1136 277.461 59.0483C276.554 58.8793 275.217 58.7537 273.82 58.706C273.157 58.6833 272.491 58.6286 272.341 58.5841C271.998 58.483 270.931 58.529 269.955 58.6868C269.546 58.753 269.12 58.7801 269.01 58.7471C268.752 58.6695 266.919 58.8359 266.588 58.9669C266.259 59.0974 264.683 59.2801 264.458 59.2138C264.362 59.1855 263.885 59.2274 263.398 59.3067C262.911 59.3861 262.431 59.4288 262.332 59.4016C262.234 59.3745 261.649 59.4641 261.034 59.6008C260.419 59.7374 259.848 59.8288 259.765 59.8037C259.683 59.7786 259.137 59.9533 258.553 60.1919C257.968 60.4305 257.392 60.596 257.273 60.5596C257.154 60.5233 257.034 60.565 257.007 60.6523C256.981 60.7398 256.824 60.8185 256.659 60.8276C256.404 60.8414 255.164 61.3037 253.658 61.9467C253.44 62.0395 253.02 62.3008 252.723 62.527C252.427 62.7534 251.943 63.0636 251.649 63.2162C251.049 63.5271 249.412 65.1301 249.292 65.5241C249.249 65.6645 249.106 65.8373 248.973 65.908C248.823 65.9879 248.523 66.6591 248.183 67.6782C247.747 68.986 247.647 69.4938 247.69 70.1771ZM251.053 67.7177C251.675 66.7175 252.216 66.1599 253.189 65.5159C253.634 65.2211 254.128 64.8329 254.287 64.6534C254.445 64.4739 254.954 64.2239 255.418 64.0977C255.881 63.9714 256.401 63.7937 256.574 63.7029C257.448 63.243 260.401 62.3355 261.234 62.2708C261.755 62.2302 262.537 62.1211 262.971 62.0283C263.405 61.9353 263.847 61.886 263.954 61.9185C264.061 61.951 264.378 61.9345 264.66 61.8819C264.941 61.8293 265.276 61.8172 265.403 61.855C265.531 61.8929 265.923 61.8484 266.276 61.7564C267.154 61.5269 271.277 61.2773 272.97 61.3511C273.473 61.3731 274.184 61.4034 274.55 61.4189C274.916 61.4341 275.43 61.4876 275.693 61.5377C275.956 61.5879 276.682 61.6924 277.307 61.7699C277.933 61.8474 278.904 62.019 279.466 62.1511C280.028 62.2832 280.996 62.4662 281.617 62.5579C282.556 62.6965 284.522 63.257 290.098 64.976C290.411 65.0727 291.221 65.4015 291.897 65.7069C292.574 66.0124 293.672 66.4648 294.338 66.7126C295.004 66.9602 296.049 67.3887 296.66 67.6648C297.271 67.9408 298.107 68.3068 298.519 68.478C298.93 68.6493 299.356 68.8579 299.465 68.9414C299.767 69.1719 302.364 70.151 303.966 70.6383C305.308 71.0462 305.413 71.0539 305.779 70.7708C306.685 70.0723 307.108 69.3079 307.925 66.8986C308.362 65.6068 308.775 64.5207 308.842 64.485C309.017 64.3917 327.855 70.1628 330.564 71.1398C331.817 71.5916 333.702 72.2494 334.753 72.6017C335.804 72.954 336.802 73.2892 336.97 73.3465C337.138 73.4038 337.411 73.5287 337.578 73.6241C337.878 73.7959 337.868 73.838 336.572 77.9859C335.852 80.2894 335.249 82.1702 335.233 82.1653C335.217 82.1604 334.379 84.782 333.371 87.9911C331.679 93.3796 330.013 98.1207 329.314 99.5412C329.155 99.863 328.969 100.26 328.899 100.424C328.501 101.366 328.064 102.251 327.817 102.618C327.662 102.849 327.397 103.336 327.229 103.701C327.06 104.066 326.838 104.411 326.735 104.468C326.632 104.524 326.5 104.726 326.443 104.916C326.385 105.105 326.255 105.282 326.155 105.309C326.054 105.335 325.914 105.546 325.844 105.777C325.773 106.009 325.494 106.427 325.224 106.708C324.953 106.989 324.702 107.316 324.665 107.436C324.629 107.555 324.166 108.109 323.637 108.666C323.107 109.223 322.507 109.92 322.302 110.216C322.097 110.511 321.81 110.83 321.664 110.924C321.518 111.019 321.125 111.429 320.789 111.835C320.453 112.242 319.972 112.739 319.719 112.94C319.466 113.14 319.08 113.477 318.862 113.688C318.643 113.899 318.256 114.274 318 114.52C317.744 114.766 317.183 115.314 316.753 115.739C316.323 116.163 315.797 116.613 315.584 116.739C315.37 116.865 315.18 117.02 315.161 117.082C315.014 117.566 311.387 119.91 310.978 119.786C310.891 119.759 310.381 120.191 309.846 120.745C308.8 121.828 308.73 121.872 304.461 124.095C302.903 124.907 301.613 125.612 301.595 125.662C301.577 125.712 301.161 125.896 300.672 126.071C300.182 126.246 299.554 126.512 299.275 126.663C298.997 126.814 298.438 127.03 298.033 127.143C297.628 127.256 296.835 127.479 296.271 127.639C295.708 127.798 294.852 128.006 294.37 128.1C293.888 128.194 293.359 128.326 293.196 128.392C292.726 128.584 289.971 128.974 289.137 128.968C288.721 128.965 287.986 129.015 287.503 129.08C287.02 129.144 286.369 129.12 286.056 129.026C285.743 128.932 285.268 128.872 285.001 128.893C284.554 128.928 282.953 128.569 282.12 128.279L282.112 128.308L278.618 126.941L278.559 126.874C278.491 126.848 278.409 126.807 278.306 126.751C278.051 126.611 277.663 126.307 277.444 126.074C277.225 125.841 276.841 125.535 276.59 125.395C276.339 125.254 276.011 124.938 275.861 124.693C275.711 124.447 275.362 123.95 275.086 123.589C274.386 122.673 274.269 122.116 274.6 121.274C274.77 120.844 274.885 120.667 275.029 120.649C275.519 120.17 276.418 120.158 276.966 120.238C277.221 120.091 279.815 120.898 280.618 121.247C281.428 121.598 282.5 122.038 283.09 122.261C283.793 122.526 285.793 122.705 286.787 122.592C287.079 122.559 287.642 122.556 288.037 122.586C288.433 122.615 288.995 122.555 289.285 122.452C289.576 122.349 289.891 122.288 289.985 122.316C290.258 122.4 293.956 120.326 294.043 120.04C294.086 119.897 294.442 119.453 294.834 119.052C295.502 118.37 296.268 116.999 296.387 116.273C296.416 116.097 296.349 115.661 296.239 115.303C296.001 114.53 295.358 110.301 295.4 109.784C295.416 109.585 295.44 109.122 295.452 108.756C295.464 108.39 295.493 107.944 295.515 107.766C295.537 107.588 295.541 107.304 295.525 107.135C295.474 106.621 296.891 101.564 297.293 100.821C298.072 99.3834 299.107 97.9196 299.944 97.0705C300.126 96.886 300.404 96.4697 300.563 96.1454C300.831 95.5949 300.822 95.5165 300.428 94.9695C300.083 94.4905 299.906 94.3749 299.465 94.3373C298.807 94.2815 298.469 94.4033 298.369 94.7326C298.328 94.8692 298.021 95.2778 297.689 95.6405C296.057 97.4185 295.074 98.9105 294.453 100.546C293.947 101.882 293.884 102.103 293.314 104.531C292.888 106.349 292.712 106.777 292.586 106.301C292.495 105.959 290.315 103.898 289.533 103.415C288.377 102.701 284.926 101.496 283.912 101.453C282.689 101.4 282.205 101.455 282.041 101.665C281.959 101.771 281.689 101.795 281.44 101.719C281.192 101.644 280.64 101.66 280.215 101.755C279.297 101.961 276.525 103.361 275.721 104.025C275.41 104.282 275.045 104.5 274.911 104.51C274.776 104.519 274.637 104.625 274.6 104.746C274.564 104.866 274.179 105.357 273.746 105.838C272.966 106.703 272.953 106.732 272.502 108.549C272.077 110.26 271.951 111.474 272.115 112.278C272.226 112.825 272.191 114.527 272.081 115.964L272.12 116.06L272.044 116.402C271.987 117.022 271.916 117.557 271.838 117.873C271.708 118.395 271.55 118.575 271.46 118.468C270.63 118.566 269.023 118.685 268.303 118.486C268.254 118.472 268.203 118.445 268.151 118.406C267.743 118.198 266.493 116.445 266.575 116.176C266.596 116.108 266.461 115.804 266.275 115.5C266.089 115.196 265.983 114.798 266.039 114.614C266.095 114.43 266.104 114.213 266.059 114.131C265.972 113.971 265.943 113.585 265.965 113.285C265.959 113.265 265.953 113.244 265.948 113.224C265.843 112.368 265.657 110.633 265.651 109.796C265.649 109.783 265.648 109.77 265.647 109.756C265.645 109.728 265.647 109.689 265.652 109.639C265.653 109.591 265.655 109.548 265.658 109.509L265.668 109.514C265.852 108.336 267.129 103.944 267.548 103.13C268.558 101.171 270.334 98.8583 271.11 98.4939C271.326 98.3921 271.53 98.2216 271.562 98.1149C271.627 97.9013 274.797 96.1667 275.006 96.2303C275.078 96.2521 275.647 96.0379 276.272 95.7543C277.857 95.0346 278.569 94.8631 279.639 94.9438C280.328 94.9959 280.72 95.1071 281.166 95.3765C282.752 96.3347 284.379 95.0867 283.279 93.7551C282.676 93.0248 281.711 92.6054 279.532 92.1279C277.522 91.6872 272.387 91.8189 270.917 92.349C270.577 92.4715 269.92 92.6152 269.456 92.6684C268.992 92.7218 268.351 92.8767 268.032 93.0128C267.713 93.1489 267.362 93.2329 267.252 93.1994C267.141 93.1658 266.925 93.2216 266.77 93.3233C266.615 93.4252 265.679 93.7943 264.689 94.1437C263.698 94.4932 262.74 94.8559 262.558 94.9496C262.377 95.0434 261.965 95.2175 261.644 95.3369C261.322 95.4561 260.73 95.711 260.327 95.9036C259.924 96.0959 259.549 96.2397 259.495 96.2231C259.44 96.2065 259.256 96.3505 259.087 96.5429C258.916 96.7354 258.566 96.9749 258.308 97.0753C258.049 97.1756 257.809 97.3542 257.773 97.472C257.737 97.5899 257.56 97.7156 257.379 97.7514C257.198 97.7873 256.807 98.012 256.511 98.2507C256.215 98.4894 255.839 98.6871 255.676 98.6898C255.513 98.6926 255.357 98.7671 255.33 98.8557C255.303 98.944 254.903 99.2628 254.441 99.5641C253.979 99.8653 253.385 100.36 253.121 100.663C252.504 101.371 249.964 102.647 248.816 102.826C247.276 103.066 246.33 102.55 245.825 101.193C245.332 99.8702 245.434 99.4031 246.734 97.0157C246.851 96.8 247.068 96.5729 247.216 96.511C247.364 96.4491 247.522 96.2768 247.567 96.1282C247.612 95.9796 247.779 95.8034 247.939 95.7367C248.098 95.6699 248.256 95.5229 248.291 95.4101C248.384 95.1027 249.367 94.3522 250.562 93.6748C251.146 93.3437 251.966 92.7981 252.383 92.4624C253.237 91.7753 256.189 90.171 257.335 89.7706C257.75 89.6258 258.28 89.4095 258.513 89.29C259.144 88.9664 259.957 88.6368 260.289 88.5695C260.45 88.5369 260.957 88.3288 261.415 88.1071C261.872 87.8855 262.47 87.6643 262.743 87.6155C263.017 87.5669 263.698 87.3624 264.258 87.1611C266.773 86.2568 267.948 85.8917 268.357 85.8869C268.552 85.8845 268.728 85.8256 268.749 85.7558C268.771 85.6861 268.991 85.639 269.238 85.6513C269.486 85.6637 270.051 85.5624 270.494 85.4264C270.938 85.2903 271.361 85.1974 271.434 85.2197C271.508 85.2421 271.962 85.193 272.442 85.1108C273.357 84.9541 276.129 84.7912 276.688 84.8612C276.866 84.8837 277.701 84.8795 278.544 84.8521C279.386 84.8248 280.36 84.8648 280.707 84.9412C281.688 85.1572 282.596 85.0043 282.851 84.5804C283.217 83.9725 283.227 83.1589 282.872 82.8464C282.45 82.4744 279.586 82.0156 278.505 82.1466C278.074 82.1988 277.451 82.2094 277.12 82.1703C276.788 82.1312 276.433 82.1242 276.331 82.1548C276.229 82.1852 275.721 82.2368 275.201 82.2692C272.631 82.4294 271.291 82.5343 270.886 82.607C269.3 82.8917 268.061 83.194 266.464 83.6861C265.462 83.9949 264.215 84.364 263.693 84.5066C263.171 84.6491 262.481 84.872 262.161 85.0022C261.84 85.1325 261.181 85.3669 260.696 85.5231C259.421 85.9343 256.342 87.2191 256.3 87.3575C256.28 87.4224 255.996 87.5473 255.668 87.6353C255.34 87.7231 254.74 87.9822 254.335 88.2109C253.93 88.4396 252.903 89.0114 252.053 89.4815C251.203 89.9517 250.493 90.383 250.476 90.4403C250.428 90.5973 248.856 90.8377 248.002 90.8186C246.822 90.7921 245.833 90.1943 246.01 89.614C246.053 89.473 246.027 89.0392 245.953 88.6501C245.843 88.0743 245.888 87.7692 246.193 87.0085C246.892 85.2642 248.171 83.8048 250.574 82.0099C251.194 81.546 253.455 80.3536 254.411 79.985C254.833 79.8225 255.219 79.6405 255.27 79.5803C255.461 79.356 256.295 78.9337 256.453 78.9817C256.543 79.0091 256.791 78.914 257.003 78.7706C257.216 78.6271 257.616 78.4683 257.893 78.4175C258.17 78.3669 258.592 78.224 258.832 78.0999C259.21 77.9041 260.126 77.6802 262.328 77.2459C262.627 77.1869 263.064 77.036 263.3 76.9106C263.535 76.7851 264.002 76.6418 264.338 76.592C264.673 76.5424 265.134 76.4108 265.361 76.2996C265.589 76.1885 265.845 76.1188 265.931 76.1448C266.091 76.1936 266.644 76.1386 268.469 75.8927C269.053 75.8141 269.746 75.7606 270.011 75.7738C270.275 75.7869 270.698 75.759 270.95 75.7119C271.202 75.6646 271.488 75.6496 271.584 75.6783C271.841 75.7549 273.444 75.7526 274.343 75.6744C275.022 75.6154 276.194 75.6745 277.247 75.8209C277.424 75.8457 277.685 75.8608 277.826 75.8544C278.284 75.8337 279.397 75.8638 280.667 75.9314L281.91 75.9977L282.407 77.0608C282.681 77.6455 283.117 78.329 283.378 78.5796C283.638 78.8304 283.939 79.2216 284.046 79.4492C284.154 79.6767 284.365 79.9005 284.517 79.9466C284.668 79.9926 284.813 80.1106 284.839 80.2089C284.934 80.5659 286.509 82.0639 287.46 82.701C287.996 83.0604 288.549 83.4876 288.689 83.6504C288.829 83.8132 289.668 84.2961 290.553 84.7234C293.206 86.004 293.658 86.1633 294.348 86.0609C294.885 85.9813 294.991 85.8954 295.134 85.4271C295.224 85.1291 295.267 84.7312 295.23 84.5427C295.162 84.2007 294.136 83.4346 293.158 82.9958C291.863 82.4147 290.288 81.5337 289.93 81.1905C289.712 80.982 289.217 80.6156 288.829 80.3763C286.998 79.2457 284.112 75.3473 284.173 74.0882C284.23 72.9244 283.523 72.5286 277.408 70.303C276.574 69.9993 275.823 69.7248 275.74 69.693C275.462 69.5862 272.614 68.9219 271.807 68.7756C270.847 68.6014 268.432 68.4845 268.137 68.5976C268.02 68.6422 267.318 68.7095 266.575 68.7474C265.832 68.7852 264.904 68.8691 264.514 68.9339C262.254 69.3085 261.417 69.5124 260.681 69.8666C260.23 70.084 259.812 70.247 259.753 70.2291C259.695 70.2113 259.17 70.3439 258.588 70.5237C258.005 70.7037 257.352 70.8526 257.137 70.8546C256.922 70.8565 256.467 70.9809 256.126 71.1309C254.822 71.7051 253.463 71.8447 252.135 71.5409C250.655 71.2025 250.31 70.8944 250.344 69.9411C250.376 69.0349 250.525 68.5671 251.053 67.7177ZM275.966 107.26C276.328 106.876 277.005 106.332 277.471 106.051C277.937 105.769 278.554 105.387 278.842 105.201C279.363 104.865 281.034 104.287 281.274 104.36C281.342 104.381 281.908 104.332 282.531 104.25C283.882 104.074 286.168 104.519 287.355 105.189C288.407 105.784 289.53 106.701 289.852 107.228C290.006 107.482 290.269 107.78 290.436 107.891C290.602 108.002 291.192 108.931 291.745 109.956C292.819 111.943 293.364 113.987 293.072 114.931C292.983 115.218 293.031 115.603 293.198 115.946C293.444 116.451 293.438 116.537 293.131 116.933C291.705 118.771 290.427 119.547 288.382 119.816C288.141 119.848 287.628 119.915 287.242 119.965C285.872 120.143 285.055 120.017 283.109 119.328C282.078 118.963 281.007 118.527 280.728 118.358C280.185 118.029 277.933 117.509 276.959 117.488C276.637 117.481 275.967 117.503 275.47 117.537L274.567 117.599L274.707 117.067C274.869 116.456 274.87 116.446 274.806 115.805C274.78 115.541 274.79 114.857 274.828 114.286C274.867 113.714 274.861 112.825 274.815 112.309C274.598 109.837 274.937 108.35 275.966 107.26Z" fill="#3E001A"/>
<rect x="184.445" y="127.947" width="81.6519" height="81.6519" fill="#00BA61" stroke="#3E001A" stroke-width="3"/>
<path fill-rule="evenodd" clip-rule="evenodd" d="M476.166 73.1276L445.293 62.7298L442.308 69.2231C436.912 67.0215 424.114 62.3445 416.09 61.25C406.059 59.8818 395.206 60.1136 390.75 63.1319C386.293 66.1502 385.277 70.0464 386.538 71.4392C387.8 72.8321 392.399 73.2215 395.938 72.111C396.053 72.0748 396.172 72.0375 396.293 71.9992C399.904 70.8613 406.243 68.8639 412.121 70.9767C416.981 72.7239 419.081 73.2055 419.524 73.2279C414.773 73.5214 404.44 74.2929 401.115 75.0312C396.96 75.9541 387.422 79.6139 384.943 82.2243C382.465 84.8347 380.831 88.5433 382.462 90.3848C383.766 91.858 385.728 92.3873 386.546 92.4679C384.786 94.0073 381.264 97.7582 381.255 100.447C381.244 103.808 383.384 105.636 386.058 104.599C387.135 104.181 389.135 102.707 391.342 101.08C394.615 98.6671 398.344 95.9179 400.198 95.7784C401.275 95.6973 402.656 95.2835 404.182 94.826C407.056 93.9649 410.445 92.949 413.296 93.7061C404.484 98.8612 403.932 100.86 403.038 104.098C402.934 104.475 402.825 104.868 402.698 105.286C401.481 109.289 401.169 114.745 402.491 116.493C402.914 117.051 403.159 117.625 403.385 118.151C403.865 119.272 404.254 120.178 406.06 120.27C408.184 120.377 409.725 120.038 410.23 119.856C409.955 120.389 409.683 121.876 410.789 123.558C412.171 125.661 416.66 131.399 422.714 130.885C428.767 130.371 443.292 126.378 447.131 123.172C450.97 119.966 464.799 107.182 467.691 100.996C470.004 96.0481 474.305 80.3554 476.166 73.1276ZM410.436 118.068C410.441 115.098 410.66 108.8 411.498 107.373C412.546 105.589 418.333 101.798 421.927 102.723C425.521 103.648 431.617 106.595 431.274 109.939C431.175 110.898 431.298 111.953 431.422 113.024C431.731 115.685 432.052 118.446 429.025 120.104C424.779 122.43 421.464 121.422 418.379 120.484L410.436 118.068Z" fill="#D98663"/>
<path fill-rule="evenodd" clip-rule="evenodd" d="M384.878 70.1771C384.967 71.5821 385.112 72.0365 385.65 72.6033C385.932 72.8995 386.2 73.1219 386.246 73.0976C386.292 73.073 386.556 73.2404 386.833 73.4695C387.602 74.1046 390.528 74.6246 391.719 74.3379C391.869 74.3018 392.19 74.2419 392.433 74.205C392.676 74.1678 393.209 74.0088 393.618 73.8514C394.026 73.6941 394.789 73.4685 395.312 73.3501C397.225 72.9177 398.044 72.6873 398.62 72.4193C398.944 72.2686 399.568 72.0883 400.006 72.0184C400.444 71.9487 400.927 71.8585 401.078 71.8182C401.786 71.6298 404.465 71.3263 405.528 71.314C406.179 71.3066 406.946 71.2761 407.233 71.2461C407.52 71.2163 408.706 71.432 409.867 71.7256C411.029 72.0192 412.219 72.2984 412.511 72.346C412.803 72.3937 413.2 72.5278 413.394 72.6438C413.674 72.812 413.696 72.8872 413.503 73.0141C413.37 73.1018 413.078 73.1203 412.854 73.0553C412.63 72.9903 412.024 72.96 411.505 72.9879C410.339 73.0508 408.563 73.0692 407.77 73.0266C406.576 72.9625 401.39 73.7682 399.865 74.2547C399.219 74.4609 398.656 74.6194 398.614 74.6067C398.573 74.594 398.311 74.657 398.032 74.7466C397.754 74.8362 396.531 75.1948 395.314 75.5436C394.098 75.8924 392.659 76.3868 392.116 76.6424C390.32 77.4884 385.956 79.9172 385.616 80.2596C385.433 80.4448 384.887 80.9222 384.403 81.3204C382.939 82.5252 381.641 84.3035 380.703 86.3895C380.423 87.0126 380.428 88.5741 380.715 90.2464L380.964 91.6953L382.217 92.5622C382.906 93.0391 383.483 93.4484 383.5 93.4719C383.516 93.4955 383.312 93.7444 383.046 94.0254C382.151 94.9703 381.302 95.9995 381.059 96.434C380.442 97.5395 380.375 97.7096 379.975 99.1806C379.922 99.3762 379.954 99.8779 380.046 100.296C380.138 100.713 380.275 101.339 380.35 101.685C380.71 103.349 382.021 104.771 383.596 105.205C385.767 105.803 386.829 105.698 389.019 104.673C390.298 104.073 392.149 102.826 392.253 102.493C392.285 102.391 392.817 102.015 393.434 101.658C394.051 101.301 394.772 100.855 395.035 100.667C395.298 100.479 395.62 100.297 395.749 100.262C395.879 100.228 396.006 100.129 396.032 100.044C396.098 99.8278 397.463 98.8645 398.002 98.6536C398.246 98.5581 398.787 98.3101 399.204 98.1026C399.621 97.8951 400.054 97.7529 400.165 97.7868C400.277 97.8207 400.534 97.7098 400.738 97.5403C400.941 97.3709 401.18 97.2542 401.268 97.2811C401.357 97.308 401.854 97.0996 402.374 96.8183C402.894 96.537 403.678 96.2495 404.117 96.1796C404.555 96.1097 405.093 95.9653 405.311 95.8588C405.803 95.6187 407.831 95.0435 407.797 95.1536C407.784 95.1978 407.955 95.1982 408.176 95.1543C408.507 95.0889 408.455 95.1557 407.89 95.5238C407.51 95.7709 407.112 96.0334 407.006 96.1071C406.899 96.1809 406.748 96.2486 406.67 96.2574C406.525 96.274 404.648 98.3065 404.584 98.5165C404.565 98.581 404.307 98.9081 404.011 99.2433C402.768 100.65 401.696 102.847 401.058 105.291C400.246 108.404 400.042 109.673 400.177 110.777C400.23 111.211 400.254 111.703 400.23 111.871C400.206 112.038 400.264 112.539 400.36 112.985C400.455 113.43 400.588 114.322 400.656 114.967C400.724 115.613 400.841 116.159 400.916 116.182C400.991 116.205 401.023 116.323 400.986 116.445C400.893 116.749 402.378 119.419 402.909 119.9C404.098 120.981 406.634 121.753 407.959 121.437C408.889 121.215 408.966 121.229 408.853 121.6C408.805 121.757 408.853 122.169 408.96 122.515C409.067 122.862 409.177 123.379 409.206 123.665C409.255 124.148 410.015 125.201 411.661 127.063C413.176 128.776 418.358 131.297 420.611 131.416C420.975 131.436 421.699 131.542 422.219 131.652C422.739 131.763 423.573 131.798 424.073 131.731C424.574 131.664 425.229 131.634 425.531 131.664C426.277 131.739 426.863 131.7 428.515 131.465C429.29 131.355 430.112 131.267 430.343 131.27C430.574 131.273 430.939 131.196 431.153 131.099C431.368 131.002 431.752 130.881 432.006 130.831C432.718 130.689 434.156 130.289 434.858 130.036C435.206 129.911 435.792 129.71 436.159 129.591C437.636 129.109 439.277 128.412 440.635 127.69C441.422 127.272 442.188 126.87 442.338 126.797C443.678 126.146 448.77 123.312 448.804 123.199C448.829 123.118 449.182 122.825 449.59 122.547C452.175 120.785 453.181 120.027 454.219 119.062C454.8 118.523 455.35 118.061 455.443 118.037C455.535 118.012 455.649 117.866 455.696 117.712C455.743 117.558 455.908 117.379 456.063 117.314C456.219 117.249 456.916 116.64 457.612 115.96C458.309 115.28 459.277 114.351 459.763 113.896C460.906 112.824 461.65 111.985 461.937 111.442C462.064 111.203 462.39 110.861 462.662 110.682C462.933 110.503 463.186 110.257 463.223 110.135C463.26 110.014 463.389 109.813 463.51 109.689C463.747 109.445 464.856 107.964 465.637 106.848C465.904 106.466 466.38 105.665 466.695 105.067C467.01 104.469 467.443 103.665 467.656 103.28C467.87 102.895 468.025 102.507 468.002 102.418C467.978 102.328 468.039 102.185 468.137 102.099C468.34 101.923 468.524 101.622 468.637 101.284C468.68 101.158 468.848 100.831 469.011 100.556C469.174 100.282 469.612 99.2045 469.985 98.1613C470.357 97.118 470.813 95.8942 470.998 95.4416C471.306 94.6864 474.052 86.1828 474.337 85.1026C474.499 84.4848 474.54 84.3558 476.032 79.7357C476.858 77.1766 477.379 75.3252 477.492 74.5448C477.674 73.2916 477.628 72.3943 477.376 72.3179C477.297 72.2938 477.078 72.0744 476.889 71.8304C476.597 71.4518 476.237 71.2812 474.437 70.6671C470.722 69.3998 468.235 68.509 468.153 68.4151C468.109 68.3649 466.588 67.8683 464.773 67.3114C462.959 66.7546 461.336 66.2554 461.167 66.2022C460.998 66.149 457.407 65.0561 453.187 63.7735C452.598 63.5945 452.048 63.4266 451.535 63.2698C446.487 61.7285 444.932 61.2537 444.224 61.8262C443.909 62.0811 443.761 62.5436 443.548 63.2119C443.5 63.3648 443.448 63.5284 443.389 63.7028C442.392 66.6808 441.93 67.8031 441.67 67.8815C441.39 67.9663 439.189 67.2619 438.551 66.8834C438.315 66.7437 437.752 66.4774 437.298 66.2918C436.845 66.1061 435.975 65.7252 435.366 65.445C431.924 63.8647 427.893 62.3366 424.111 61.178C421.46 60.3659 419.157 59.7387 419.132 59.8218C419.123 59.8491 417.894 59.6172 417.14 59.4464C416.75 59.3579 416.173 59.2589 415.859 59.2264C415.544 59.1938 415 59.1136 414.649 59.0483C413.743 58.8793 412.406 58.7537 411.008 58.706C410.345 58.6833 409.679 58.6286 409.529 58.5841C409.186 58.483 408.119 58.529 407.143 58.6868C406.734 58.753 406.309 58.7801 406.198 58.7471C405.94 58.6695 404.107 58.8359 403.777 58.9669C403.447 59.0974 401.871 59.2801 401.646 59.2138C401.551 59.1855 401.074 59.2274 400.586 59.3067C400.099 59.3861 399.619 59.4288 399.521 59.4016C399.422 59.3745 398.838 59.4641 398.222 59.6008C397.607 59.7374 397.036 59.8288 396.953 59.8037C396.871 59.7786 396.326 59.9533 395.741 60.1919C395.157 60.4305 394.581 60.596 394.461 60.5596C394.342 60.5233 394.222 60.565 394.196 60.6523C394.169 60.7398 394.012 60.8185 393.848 60.8276C393.592 60.8414 392.353 61.3037 390.846 61.9467C390.629 62.0395 390.208 62.3008 389.912 62.527C389.615 62.7534 389.131 63.0636 388.837 63.2162C388.237 63.5271 386.6 65.1301 386.48 65.5241C386.437 65.6645 386.294 65.8373 386.161 65.908C386.011 65.9879 385.712 66.6591 385.372 67.6782C384.935 68.986 384.835 69.4938 384.878 70.1771ZM388.241 67.7177C388.863 66.7175 389.404 66.1599 390.377 65.5159C390.823 65.2211 391.317 64.8329 391.475 64.6534C391.634 64.4739 392.142 64.2239 392.606 64.0977C393.069 63.9714 393.59 63.7937 393.762 63.7029C394.637 63.243 397.589 62.3355 398.422 62.2708C398.944 62.2302 399.725 62.1211 400.159 62.0283C400.593 61.9353 401.035 61.886 401.142 61.9185C401.249 61.951 401.566 61.9345 401.848 61.8819C402.129 61.8293 402.464 61.8172 402.591 61.855C402.719 61.8929 403.111 61.8484 403.464 61.7564C404.342 61.5269 408.465 61.2773 410.158 61.3511C410.661 61.3731 411.372 61.4034 411.738 61.4189C412.104 61.4341 412.619 61.4876 412.881 61.5377C413.144 61.5879 413.871 61.6924 414.496 61.7699C415.121 61.8474 416.092 62.019 416.654 62.1511C417.216 62.2832 418.184 62.4662 418.805 62.5579C419.744 62.6965 421.71 63.257 427.286 64.976C427.599 65.0727 428.409 65.4015 429.085 65.7069C429.762 66.0124 430.86 66.4648 431.526 66.7126C432.192 66.9602 433.237 67.3887 433.848 67.6648C434.459 67.9408 435.296 68.3068 435.707 68.478C436.118 68.6493 436.544 68.8579 436.653 68.9414C436.955 69.1719 439.552 70.151 441.155 70.6383C442.496 71.0462 442.601 71.0539 442.968 70.7708C443.873 70.0723 444.297 69.3079 445.113 66.8986C445.55 65.6068 445.963 64.5207 446.03 64.485C446.205 64.3917 465.043 70.1628 467.753 71.1398C469.005 71.5916 470.89 72.2494 471.941 72.6017C472.993 72.954 473.99 73.2892 474.158 73.3465C474.326 73.4038 474.6 73.5287 474.766 73.6241C475.066 73.7959 475.056 73.838 473.76 77.9859C473.04 80.2894 472.438 82.1702 472.421 82.1653C472.405 82.1604 471.567 84.782 470.559 87.9911C468.867 93.3796 467.201 98.1207 466.502 99.5412C466.343 99.863 466.157 100.26 466.087 100.424C465.689 101.366 465.252 102.251 465.005 102.618C464.85 102.849 464.586 103.336 464.417 103.701C464.248 104.066 464.026 104.411 463.923 104.468C463.82 104.524 463.689 104.726 463.631 104.916C463.573 105.105 463.444 105.282 463.343 105.309C463.242 105.335 463.102 105.546 463.032 105.777C462.962 106.009 462.683 106.427 462.412 106.708C462.141 106.989 461.89 107.316 461.854 107.436C461.817 107.555 461.354 108.109 460.825 108.666C460.296 109.223 459.695 109.92 459.49 110.216C459.285 110.511 458.998 110.83 458.853 110.924C458.707 111.019 458.313 111.429 457.977 111.835C457.641 112.242 457.16 112.739 456.907 112.94C456.654 113.14 456.268 113.477 456.05 113.688C455.832 113.899 455.444 114.274 455.188 114.52C454.932 114.766 454.371 115.314 453.942 115.739C453.512 116.163 452.985 116.613 452.772 116.739C452.558 116.865 452.368 117.02 452.349 117.082C452.202 117.566 448.575 119.91 448.166 119.786C448.079 119.759 447.569 120.191 447.034 120.745C445.988 121.828 445.918 121.872 441.65 124.095C440.091 124.907 438.801 125.612 438.783 125.662C438.765 125.712 438.35 125.896 437.86 126.071C437.37 126.246 436.742 126.512 436.464 126.663C436.185 126.814 435.626 127.03 435.221 127.143C434.816 127.256 434.023 127.479 433.46 127.639C432.896 127.798 432.04 128.006 431.558 128.1C431.076 128.194 430.547 128.326 430.384 128.392C429.914 128.584 427.16 128.974 426.326 128.968C425.91 128.965 425.174 129.015 424.691 129.08C424.208 129.144 423.557 129.12 423.244 129.026C422.931 128.932 422.457 128.872 422.189 128.893C421.742 128.928 420.142 128.569 419.309 128.279L419.3 128.308L415.806 126.941L415.747 126.874C415.679 126.848 415.597 126.807 415.494 126.751C415.239 126.611 414.851 126.307 414.632 126.074C414.413 125.841 414.029 125.535 413.778 125.395C413.527 125.254 413.199 124.938 413.049 124.693C412.899 124.447 412.55 123.95 412.274 123.589C411.574 122.673 411.457 122.116 411.789 121.274C411.958 120.844 412.073 120.667 412.217 120.649C412.707 120.17 413.607 120.158 414.154 120.238C414.409 120.091 417.003 120.898 417.806 121.247C418.616 121.598 419.688 122.038 420.278 122.261C420.981 122.526 422.981 122.705 423.975 122.592C424.267 122.559 424.83 122.556 425.225 122.586C425.621 122.615 426.183 122.555 426.474 122.452C426.765 122.349 427.079 122.288 427.173 122.316C427.447 122.4 431.144 120.326 431.231 120.04C431.274 119.897 431.631 119.453 432.023 119.052C432.69 118.37 433.456 116.999 433.575 116.273C433.604 116.097 433.537 115.661 433.427 115.303C433.189 114.53 432.546 110.301 432.588 109.784C432.604 109.585 432.628 109.122 432.64 108.756C432.653 108.39 432.681 107.944 432.703 107.766C432.725 107.588 432.73 107.304 432.713 107.135C432.663 106.621 434.079 101.564 434.482 100.821C435.26 99.3834 436.295 97.9196 437.133 97.0705C437.314 96.886 437.593 96.4697 437.751 96.1454C438.02 95.5949 438.011 95.5165 437.616 94.9695C437.271 94.4905 437.095 94.3749 436.653 94.3373C435.996 94.2815 435.658 94.4033 435.557 94.7326C435.516 94.8692 435.21 95.2778 434.877 95.6405C433.246 97.4185 432.262 98.9105 431.642 100.546C431.135 101.882 431.072 102.103 430.503 104.531C430.076 106.349 429.9 106.777 429.774 106.301C429.683 105.959 427.503 103.898 426.721 103.415C425.565 102.701 422.114 101.496 421.1 101.453C419.877 101.4 419.393 101.455 419.229 101.665C419.147 101.771 418.877 101.795 418.628 101.719C418.38 101.644 417.829 101.66 417.403 101.755C416.485 101.961 413.713 103.361 412.91 104.025C412.598 104.282 412.233 104.5 412.099 104.51C411.965 104.519 411.825 104.625 411.788 104.746C411.752 104.866 411.367 105.357 410.934 105.838C410.155 106.703 410.141 106.732 409.69 108.549C409.265 110.26 409.139 111.474 409.303 112.278C409.414 112.825 409.38 114.527 409.269 115.964L409.308 116.06L409.233 116.402C409.176 117.022 409.105 117.557 409.026 117.873C408.896 118.395 408.738 118.575 408.648 118.468C407.818 118.566 406.211 118.685 405.492 118.486C405.442 118.472 405.391 118.445 405.339 118.406C404.931 118.198 403.681 116.445 403.763 116.176C403.784 116.108 403.649 115.804 403.463 115.5C403.278 115.196 403.171 114.798 403.227 114.614C403.283 114.43 403.292 114.213 403.248 114.131C403.16 113.971 403.131 113.585 403.153 113.285C403.147 113.265 403.142 113.244 403.136 113.224C403.031 112.368 402.845 110.633 402.839 109.796C402.838 109.783 402.837 109.77 402.835 109.756C402.833 109.728 402.835 109.689 402.84 109.639C402.841 109.591 402.844 109.548 402.847 109.509L402.857 109.514C403.041 108.336 404.317 103.944 404.736 103.13C405.746 101.171 407.523 98.8583 408.298 98.4939C408.514 98.3921 408.718 98.2216 408.75 98.1149C408.815 97.9013 411.985 96.1667 412.194 96.2303C412.266 96.2521 412.835 96.0379 413.46 95.7543C415.045 95.0346 415.758 94.8631 416.827 94.9438C417.516 94.9959 417.908 95.1071 418.354 95.3765C419.941 96.3347 421.567 95.0867 420.468 93.7551C419.864 93.0248 418.899 92.6054 416.721 92.1279C414.71 91.6872 409.575 91.8189 408.105 92.349C407.765 92.4715 407.108 92.6152 406.644 92.6684C406.18 92.7218 405.539 92.8767 405.22 93.0128C404.901 93.1489 404.55 93.2329 404.44 93.1994C404.33 93.1658 404.113 93.2216 403.958 93.3233C403.804 93.4252 402.867 93.7943 401.877 94.1437C400.887 94.4932 399.928 94.8559 399.747 94.9496C399.565 95.0434 399.154 95.2175 398.832 95.3369C398.511 95.4561 397.918 95.711 397.515 95.9036C397.112 96.0959 396.738 96.2397 396.683 96.2231C396.628 96.2065 396.445 96.3505 396.275 96.5429C396.105 96.7354 395.754 96.9749 395.496 97.0753C395.238 97.1756 394.997 97.3542 394.961 97.472C394.925 97.5899 394.748 97.7156 394.567 97.7514C394.386 97.7873 393.996 98.012 393.699 98.2507C393.403 98.4894 393.027 98.6871 392.864 98.6898C392.701 98.6926 392.546 98.7671 392.519 98.8557C392.492 98.944 392.092 99.2628 391.63 99.5641C391.167 99.8653 390.573 100.36 390.309 100.663C389.692 101.371 387.153 102.647 386.004 102.826C384.464 103.066 383.518 102.55 383.013 101.193C382.52 99.8702 382.622 99.4031 383.922 97.0157C384.04 96.8 384.257 96.5729 384.404 96.511C384.552 96.4491 384.71 96.2768 384.755 96.1282C384.8 95.9796 384.968 95.8034 385.127 95.7367C385.286 95.6699 385.445 95.5229 385.479 95.4101C385.572 95.1027 386.555 94.3522 387.75 93.6748C388.334 93.3437 389.154 92.7981 389.571 92.4624C390.426 91.7753 393.377 90.171 394.523 89.7706C394.938 89.6258 395.468 89.4095 395.701 89.29C396.332 88.9664 397.145 88.6368 397.477 88.5695C397.639 88.5369 398.145 88.3288 398.603 88.1071C399.06 87.8855 399.658 87.6643 399.932 87.6155C400.205 87.5669 400.887 87.3624 401.446 87.1611C403.961 86.2568 405.136 85.8917 405.545 85.8869C405.74 85.8845 405.916 85.8256 405.938 85.7558C405.959 85.6861 406.179 85.639 406.426 85.6513C406.674 85.6637 407.239 85.5624 407.683 85.4264C408.126 85.2903 408.549 85.1974 408.623 85.2197C408.696 85.2421 409.15 85.193 409.631 85.1108C410.546 84.9541 413.317 84.7912 413.876 84.8612C414.054 84.8837 414.89 84.8795 415.732 84.8521C416.574 84.8248 417.548 84.8648 417.895 84.9412C418.877 85.1572 419.784 85.0043 420.039 84.5804C420.405 83.9725 420.415 83.1589 420.06 82.8464C419.638 82.4744 416.774 82.0156 415.693 82.1466C415.263 82.1988 414.64 82.2094 414.308 82.1703C413.976 82.1312 413.622 82.1242 413.52 82.1548C413.418 82.1852 412.909 82.2368 412.39 82.2692C409.819 82.4294 408.479 82.5343 408.075 82.607C406.489 82.8917 405.25 83.194 403.652 83.6861C402.65 83.9949 401.403 84.364 400.881 84.5066C400.359 84.6491 399.67 84.872 399.349 85.0022C399.028 85.1325 398.369 85.3669 397.884 85.5231C396.609 85.9343 393.53 87.2191 393.488 87.3575C393.468 87.4224 393.184 87.5473 392.856 87.6353C392.528 87.7231 391.928 87.9822 391.523 88.2109C391.118 88.4396 390.091 89.0114 389.241 89.4815C388.391 89.9517 387.682 90.383 387.664 90.4403C387.617 90.5973 386.044 90.8377 385.19 90.8186C384.01 90.7921 383.021 90.1943 383.198 89.614C383.241 89.473 383.215 89.0392 383.141 88.6501C383.032 88.0743 383.076 87.7692 383.381 87.0085C384.08 85.2642 385.359 83.8048 387.762 82.0099C388.383 81.546 390.643 80.3536 391.599 79.985C392.021 79.8225 392.408 79.6405 392.459 79.5803C392.649 79.356 393.483 78.9337 393.641 78.9817C393.731 79.0091 393.979 78.914 394.192 78.7706C394.404 78.6271 394.804 78.4683 395.081 78.4175C395.358 78.3669 395.78 78.224 396.02 78.0999C396.398 77.9041 397.314 77.6802 399.517 77.2459C399.815 77.1869 400.252 77.036 400.488 76.9106C400.724 76.7851 401.191 76.6418 401.526 76.592C401.861 76.5424 402.322 76.4108 402.55 76.2996C402.777 76.1885 403.034 76.1188 403.119 76.1448C403.28 76.1936 403.832 76.1386 405.658 75.8927C406.241 75.8141 406.935 75.7606 407.199 75.7738C407.464 75.7869 407.886 75.759 408.138 75.7119C408.391 75.6646 408.676 75.6496 408.772 75.6783C409.029 75.7549 410.632 75.7526 411.531 75.6744C412.21 75.6154 413.382 75.6745 414.435 75.8209C414.613 75.8457 414.873 75.8608 415.014 75.8544C415.472 75.8337 416.585 75.8638 417.855 75.9314L419.099 75.9977L419.596 77.0608C419.869 77.6455 420.305 78.329 420.566 78.5796C420.826 78.8304 421.127 79.2216 421.234 79.4492C421.342 79.6767 421.554 79.9005 421.705 79.9466C421.856 79.9926 422.002 80.1106 422.028 80.2089C422.122 80.5659 423.698 82.0639 424.648 82.701C425.184 83.0604 425.737 83.4876 425.877 83.6504C426.017 83.8132 426.856 84.2961 427.741 84.7234C430.395 86.004 430.846 86.1633 431.536 86.0609C432.073 85.9813 432.179 85.8954 432.322 85.4271C432.412 85.1291 432.456 84.7312 432.418 84.5427C432.35 84.2007 431.324 83.4346 430.346 82.9958C429.052 82.4147 427.476 81.5337 427.118 81.1905C426.9 80.982 426.405 80.6156 426.017 80.3763C424.186 79.2457 421.3 75.3473 421.362 74.0882C421.419 72.9244 420.711 72.5286 414.596 70.303C413.762 69.9993 413.012 69.7248 412.929 69.693C412.65 69.5862 409.802 68.9219 408.995 68.7756C408.035 68.6014 405.62 68.4845 405.325 68.5976C405.209 68.6422 404.506 68.7095 403.763 68.7474C403.02 68.7852 402.093 68.8691 401.702 68.9339C399.443 69.3085 398.605 69.5124 397.869 69.8666C397.418 70.084 397 70.247 396.942 70.2291C396.883 70.2113 396.358 70.3439 395.776 70.5237C395.193 70.7037 394.541 70.8526 394.325 70.8546C394.11 70.8565 393.656 70.9809 393.315 71.1309C392.01 71.7051 390.652 71.8447 389.323 71.5409C387.843 71.2025 387.498 70.8944 387.532 69.9411C387.564 69.0349 387.713 68.5671 388.241 67.7177ZM413.155 107.26C413.516 106.876 414.193 106.332 414.659 106.051C415.125 105.769 415.742 105.387 416.031 105.201C416.551 104.865 418.222 104.287 418.462 104.36C418.531 104.381 419.096 104.332 419.719 104.25C421.07 104.074 423.356 104.519 424.543 105.189C425.595 105.784 426.718 106.701 427.04 107.228C427.194 107.482 427.457 107.78 427.624 107.891C427.791 108.002 428.38 108.931 428.934 109.956C430.007 111.943 430.552 113.987 430.26 114.931C430.171 115.218 430.219 115.603 430.386 115.946C430.632 116.451 430.626 116.537 430.319 116.933C428.893 118.771 427.616 119.547 425.57 119.816C425.329 119.848 424.816 119.915 424.43 119.965C423.06 120.143 422.243 120.017 420.297 119.328C419.266 118.963 418.195 118.527 417.916 118.358C417.373 118.029 415.121 117.509 414.147 117.488C413.825 117.481 413.155 117.503 412.658 117.537L411.755 117.599L411.895 117.067C412.057 116.456 412.058 116.446 411.994 115.805C411.968 115.541 411.978 114.857 412.017 114.286C412.055 113.714 412.049 112.825 412.004 112.309C411.786 109.837 412.125 108.35 413.155 107.26Z" fill="#3E001A"/>
<rect x="47.3817" y="126.5" width="81.6519" height="81.6519" fill="#FFD056" stroke="#3E001A" stroke-width="3"/>
<path fill-rule="evenodd" clip-rule="evenodd" d="M201.79 73.1276L170.917 62.7298L167.931 69.2231C162.535 67.0215 149.737 62.3445 141.713 61.25C131.683 59.8818 120.829 60.1136 116.373 63.1319C111.917 66.1502 110.901 70.0464 112.162 71.4392C113.423 72.8321 118.022 73.2215 121.561 72.111C121.677 72.0748 121.795 72.0375 121.917 71.9992C125.528 70.8613 131.867 68.8639 137.744 70.9767C142.605 72.7239 144.705 73.2055 145.147 73.2279C140.396 73.5214 130.064 74.2929 126.739 75.0312C122.583 75.9541 113.046 79.6139 110.567 82.2243C108.088 84.8347 106.455 88.5433 108.085 90.3848C109.39 91.858 111.352 92.3873 112.169 92.4679C110.41 94.0073 106.888 97.7582 106.879 100.447C106.868 103.808 109.007 105.636 111.682 104.599C112.759 104.181 114.758 102.707 116.966 101.08C120.238 98.6671 123.967 95.9179 125.821 95.7784C126.898 95.6973 128.279 95.2835 129.806 94.826C132.679 93.9649 136.069 92.949 138.919 93.7061C130.108 98.8612 129.556 100.86 128.661 104.098C128.557 104.475 128.449 104.868 128.322 105.286C127.104 109.289 126.793 114.745 128.115 116.493C128.537 117.051 128.783 117.625 129.008 118.151C129.489 119.272 129.877 120.178 131.684 120.27C133.808 120.377 135.348 120.038 135.853 119.856C135.579 120.389 135.306 121.876 136.412 123.558C137.795 125.661 142.284 131.399 148.337 130.885C154.391 130.371 168.915 126.378 172.755 123.172C176.594 119.966 190.422 107.182 193.314 100.996C195.628 96.0481 199.928 80.3554 201.79 73.1276ZM136.06 118.068C136.065 115.098 136.284 108.8 137.122 107.373C138.17 105.589 143.956 101.798 147.55 102.723C151.144 103.648 157.24 106.595 156.897 109.939C156.799 110.898 156.921 111.953 157.046 113.024C157.355 115.685 157.676 118.446 154.648 120.104C150.403 122.43 147.087 121.422 144.003 120.484L136.06 118.068Z" fill="#F1A07D"/>
<path fill-rule="evenodd" clip-rule="evenodd" d="M110.502 70.1771C110.591 71.5821 110.735 72.0365 111.274 72.6033C111.555 72.8995 111.823 73.1219 111.869 73.0976C111.915 73.073 112.18 73.2404 112.457 73.4695C113.226 74.1046 116.152 74.6246 117.342 74.3379C117.492 74.3018 117.814 74.2419 118.057 74.205C118.3 74.1678 118.833 74.0088 119.241 73.8514C119.65 73.6941 120.412 73.4685 120.936 73.3501C122.849 72.9177 123.668 72.6873 124.244 72.4193C124.568 72.2686 125.191 72.0883 125.63 72.0184C126.068 71.9487 126.55 71.8585 126.701 71.8182C127.409 71.6298 130.088 71.3263 131.151 71.314C131.802 71.3066 132.57 71.2761 132.857 71.2461C133.144 71.2163 134.329 71.432 135.491 71.7256C136.653 72.0192 137.842 72.2984 138.135 72.346C138.427 72.3937 138.824 72.5278 139.017 72.6438C139.297 72.812 139.32 72.8872 139.127 73.0141C138.993 73.1018 138.702 73.1203 138.478 73.0553C138.254 72.9903 137.647 72.96 137.129 72.9879C135.963 73.0508 134.187 73.0692 133.394 73.0266C132.199 72.9625 127.013 73.7682 125.489 74.2547C124.843 74.4609 124.28 74.6194 124.238 74.6067C124.196 74.594 123.934 74.657 123.656 74.7466C123.377 74.8362 122.155 75.1948 120.938 75.5436C119.721 75.8924 118.282 76.3868 117.739 76.6424C115.943 77.4884 111.579 79.9172 111.24 80.2596C111.057 80.4448 110.511 80.9222 110.027 81.3204C108.563 82.5252 107.265 84.3035 106.326 86.3895C106.046 87.0126 106.051 88.5741 106.339 90.2464L106.588 91.6953L107.841 92.5622C108.53 93.0391 109.107 93.4484 109.123 93.4719C109.14 93.4955 108.936 93.7444 108.669 94.0254C107.774 94.9703 106.925 95.9995 106.683 96.434C106.066 97.5395 105.999 97.7096 105.599 99.1806C105.545 99.3762 105.577 99.8779 105.67 100.296C105.762 100.713 105.899 101.339 105.974 101.685C106.333 103.349 107.644 104.771 109.219 105.205C111.39 105.803 112.453 105.698 114.642 104.673C115.922 104.073 117.772 102.826 117.876 102.493C117.909 102.391 118.44 102.015 119.058 101.658C119.675 101.301 120.395 100.855 120.659 100.667C120.922 100.479 121.243 100.297 121.373 100.262C121.503 100.228 121.63 100.129 121.656 100.044C121.722 99.8278 123.086 98.8645 123.625 98.6536C123.869 98.5581 124.411 98.3101 124.828 98.1026C125.245 97.8951 125.678 97.7529 125.789 97.7868C125.9 97.8207 126.158 97.7098 126.361 97.5403C126.565 97.3709 126.803 97.2542 126.892 97.2811C126.98 97.308 127.478 97.0996 127.997 96.8183C128.517 96.537 129.301 96.2495 129.74 96.1796C130.179 96.1097 130.717 95.9653 130.935 95.8588C131.427 95.6187 133.454 95.0435 133.421 95.1536C133.407 95.1978 133.578 95.1982 133.8 95.1543C134.13 95.0889 134.078 95.1557 133.513 95.5238C133.134 95.7709 132.736 96.0334 132.629 96.1071C132.522 96.1809 132.371 96.2486 132.294 96.2574C132.148 96.274 130.272 98.3065 130.208 98.5165C130.188 98.581 129.93 98.9081 129.634 99.2433C128.392 100.65 127.319 102.847 126.682 105.291C125.869 108.404 125.666 109.673 125.801 110.777C125.854 111.211 125.878 111.703 125.854 111.871C125.829 112.038 125.888 112.539 125.983 112.985C126.079 113.43 126.212 114.322 126.28 114.967C126.347 115.613 126.464 116.159 126.54 116.182C126.615 116.205 126.646 116.323 126.609 116.445C126.517 116.749 128.002 119.419 128.532 119.9C129.721 120.981 132.257 121.753 133.582 121.437C134.512 121.215 134.59 121.229 134.477 121.6C134.429 121.757 134.477 122.169 134.584 122.515C134.69 122.862 134.801 123.379 134.83 123.665C134.878 124.148 135.639 125.201 137.285 127.063C138.799 128.776 143.981 131.297 146.234 131.416C146.599 131.436 147.323 131.542 147.842 131.652C148.362 131.763 149.197 131.798 149.697 131.731C150.197 131.664 150.853 131.634 151.154 131.664C151.901 131.739 152.487 131.7 154.138 131.465C154.913 131.355 155.736 131.267 155.967 131.27C156.198 131.273 156.562 131.196 156.777 131.099C156.992 131.002 157.375 130.881 157.629 130.831C158.342 130.689 159.779 130.289 160.482 130.036C160.83 129.911 161.415 129.71 161.782 129.591C163.26 129.109 164.901 128.412 166.258 127.69C167.045 127.272 167.812 126.87 167.962 126.797C169.301 126.146 174.393 123.312 174.428 123.199C174.452 123.118 174.806 122.825 175.213 122.547C177.799 120.785 178.805 120.027 179.843 119.062C180.423 118.523 180.974 118.061 181.066 118.037C181.158 118.012 181.272 117.866 181.319 117.712C181.366 117.558 181.531 117.379 181.687 117.314C181.842 117.249 182.539 116.64 183.236 115.96C183.933 115.28 184.9 114.351 185.386 113.896C186.53 112.824 187.274 111.985 187.561 111.442C187.688 111.203 188.014 110.861 188.285 110.682C188.557 110.503 188.81 110.257 188.847 110.135C188.884 110.014 189.013 109.813 189.133 109.689C189.371 109.445 190.48 107.964 191.26 106.848C191.527 106.466 192.003 105.665 192.318 105.067C192.633 104.469 193.066 103.665 193.28 103.28C193.493 102.895 193.649 102.507 193.625 102.418C193.601 102.328 193.662 102.185 193.761 102.099C193.963 101.923 194.148 101.622 194.261 101.284C194.303 101.158 194.471 100.831 194.634 100.556C194.798 100.282 195.236 99.2045 195.608 98.1613C195.981 97.118 196.436 95.8942 196.621 95.4416C196.93 94.6864 199.676 86.1828 199.96 85.1026C200.123 84.4848 200.163 84.3558 201.655 79.7357C202.481 77.1766 203.003 75.3252 203.116 74.5448C203.298 73.2916 203.251 72.3943 203 72.3179C202.921 72.2938 202.701 72.0744 202.513 71.8304C202.221 71.4518 201.861 71.2812 200.061 70.6671C196.345 69.3998 193.859 68.509 193.776 68.4151C193.732 68.3649 192.211 67.8683 190.397 67.3114C188.582 66.7546 186.959 66.2554 186.79 66.2022C186.621 66.149 183.03 65.0561 178.811 63.7735C178.222 63.5945 177.672 63.4266 177.158 63.2698C172.111 61.7285 170.556 61.2537 169.848 61.8262C169.532 62.0811 169.385 62.5436 169.172 63.2119C169.123 63.3648 169.071 63.5284 169.013 63.7028C168.016 66.6808 167.554 67.8031 167.294 67.8815C167.013 67.9663 164.812 67.2619 164.174 66.8834C163.939 66.7437 163.375 66.4774 162.922 66.2918C162.469 66.1061 161.599 65.7252 160.989 65.445C157.547 63.8647 153.517 62.3366 149.735 61.178C147.084 60.3659 144.781 59.7387 144.755 59.8218C144.747 59.8491 143.517 59.6172 142.763 59.4464C142.373 59.3579 141.797 59.2589 141.482 59.2264C141.168 59.1938 140.624 59.1136 140.273 59.0483C139.366 58.8793 138.029 58.7537 136.632 58.706C135.969 58.6833 135.303 58.6286 135.152 58.5841C134.81 58.483 133.743 58.529 132.767 58.6868C132.357 58.753 131.932 58.7801 131.822 58.7471C131.563 58.6695 129.731 58.8359 129.4 58.9669C129.071 59.0974 127.494 59.2801 127.27 59.2138C127.174 59.1855 126.697 59.2274 126.21 59.3067C125.722 59.3861 125.243 59.4288 125.144 59.4016C125.045 59.3745 124.461 59.4641 123.846 59.6008C123.23 59.7374 122.66 59.8288 122.577 59.8037C122.495 59.7786 121.949 59.9533 121.365 60.1919C120.78 60.4305 120.204 60.596 120.085 60.5596C119.965 60.5233 119.846 60.565 119.819 60.6523C119.793 60.7398 119.636 60.8185 119.471 60.8276C119.216 60.8414 117.976 61.3037 116.47 61.9467C116.252 62.0395 115.832 62.3008 115.535 62.527C115.239 62.7534 114.755 63.0636 114.46 63.2162C113.86 63.5271 112.223 65.1301 112.104 65.5241C112.061 65.6645 111.917 65.8373 111.784 65.908C111.634 65.9879 111.335 66.6591 110.995 67.6782C110.559 68.986 110.459 69.4938 110.502 70.1771ZM113.865 67.7177C114.487 66.7175 115.028 66.1599 116.001 65.5159C116.446 65.2211 116.94 64.8329 117.099 64.6534C117.257 64.4739 117.766 64.2239 118.229 64.0977C118.693 63.9714 119.213 63.7937 119.386 63.7029C120.26 63.243 123.213 62.3355 124.046 62.2708C124.567 62.2302 125.349 62.1211 125.782 62.0283C126.216 61.9353 126.659 61.886 126.765 61.9185C126.872 61.951 127.19 61.9345 127.471 61.8819C127.753 61.8293 128.087 61.8172 128.215 61.855C128.342 61.8929 128.735 61.8484 129.087 61.7564C129.965 61.5269 134.089 61.2773 135.782 61.3511C136.285 61.3731 136.996 61.4034 137.362 61.4189C137.728 61.4341 138.242 61.4876 138.505 61.5377C138.768 61.5879 139.494 61.6924 140.119 61.7699C140.744 61.8474 141.716 62.019 142.278 62.1511C142.84 62.2832 143.808 62.4662 144.429 62.5579C145.368 62.6965 147.334 63.257 152.909 64.976C153.223 65.0727 154.033 65.4015 154.709 65.7069C155.385 66.0124 156.484 66.4648 157.15 66.7126C157.816 66.9602 158.861 67.3887 159.472 67.6648C160.083 67.9408 160.919 68.3068 161.331 68.478C161.742 68.6493 162.168 68.8579 162.277 68.9414C162.578 69.1719 165.176 70.151 166.778 70.6383C168.119 71.0462 168.224 71.0539 168.591 70.7708C169.497 70.0723 169.92 69.3079 170.736 66.8986C171.174 65.6068 171.587 64.5207 171.654 64.485C171.829 64.3917 190.667 70.1628 193.376 71.1398C194.629 71.5916 196.514 72.2494 197.565 72.6017C198.616 72.954 199.614 73.2892 199.782 73.3465C199.95 73.4038 200.223 73.5287 200.39 73.6241C200.69 73.7959 200.68 73.838 199.383 77.9859C198.663 80.2894 198.061 82.1702 198.045 82.1653C198.029 82.1604 197.191 84.782 196.183 87.9911C194.491 93.3796 192.825 98.1207 192.125 99.5412C191.967 99.863 191.781 100.26 191.711 100.424C191.313 101.366 190.876 102.251 190.629 102.618C190.474 102.849 190.209 103.336 190.041 103.701C189.872 104.066 189.65 104.411 189.547 104.468C189.444 104.524 189.312 104.726 189.255 104.916C189.197 105.105 189.067 105.282 188.966 105.309C188.866 105.335 188.726 105.546 188.655 105.777C188.585 106.009 188.306 106.427 188.036 106.708C187.765 106.989 187.514 107.316 187.477 107.436C187.441 107.555 186.978 108.109 186.449 108.666C185.919 109.223 185.318 109.92 185.114 110.216C184.909 110.511 184.622 110.83 184.476 110.924C184.33 111.019 183.936 111.429 183.601 111.835C183.265 112.242 182.783 112.739 182.531 112.94C182.278 113.14 181.892 113.477 181.674 113.688C181.455 113.899 181.067 114.274 180.812 114.52C180.556 114.766 179.995 115.314 179.565 115.739C179.135 116.163 178.609 116.613 178.395 116.739C178.182 116.865 177.992 117.02 177.973 117.082C177.825 117.566 174.199 119.91 173.79 119.786C173.702 119.759 173.193 120.191 172.658 120.745C171.612 121.828 171.542 121.872 167.273 124.095C165.715 124.907 164.425 125.612 164.406 125.662C164.388 125.712 163.973 125.896 163.483 126.071C162.994 126.246 162.366 126.512 162.087 126.663C161.809 126.814 161.249 127.03 160.844 127.143C160.439 127.256 159.647 127.479 159.083 127.639C158.52 127.798 157.664 128.006 157.182 128.1C156.699 128.194 156.171 128.326 156.007 128.392C155.538 128.584 152.783 128.974 151.949 128.968C151.533 128.965 150.798 129.015 150.315 129.08C149.832 129.144 149.18 129.12 148.868 129.026C148.555 128.932 148.08 128.872 147.813 128.893C147.366 128.928 145.765 128.569 144.932 128.279L144.924 128.308L141.43 126.941L141.371 126.874C141.303 126.848 141.221 126.807 141.118 126.751C140.863 126.611 140.475 126.307 140.256 126.074C140.037 125.841 139.652 125.535 139.402 125.395C139.151 125.254 138.823 124.938 138.673 124.693C138.523 124.447 138.174 123.95 137.898 123.589C137.198 122.673 137.081 122.116 137.412 121.274C137.581 120.844 137.697 120.667 137.841 120.649C138.331 120.17 139.23 120.158 139.778 120.238C140.033 120.091 142.627 120.898 143.43 121.247C144.24 121.598 145.311 122.038 145.902 122.261C146.605 122.526 148.605 122.705 149.599 122.592C149.891 122.559 150.453 122.556 150.849 122.586C151.245 122.615 151.806 122.555 152.097 122.452C152.388 122.349 152.703 122.288 152.796 122.316C153.07 122.4 156.768 120.326 156.854 120.04C156.898 119.897 157.254 119.453 157.646 119.052C158.314 118.37 159.08 116.999 159.198 116.273C159.227 116.097 159.161 115.661 159.051 115.303C158.813 114.53 158.17 110.301 158.212 109.784C158.228 109.585 158.251 109.122 158.264 108.756C158.276 108.39 158.305 107.944 158.327 107.766C158.349 107.588 158.353 107.304 158.337 107.135C158.286 106.621 159.703 101.564 160.105 100.821C160.884 99.3834 161.918 97.9196 162.756 97.0705C162.938 96.886 163.216 96.4697 163.375 96.1454C163.643 95.5949 163.634 95.5165 163.24 94.9695C162.894 94.4905 162.718 94.3749 162.277 94.3373C161.619 94.2815 161.281 94.4033 161.181 94.7326C161.139 94.8692 160.833 95.2778 160.5 95.6405C158.869 97.4185 157.885 98.9105 157.265 100.546C156.759 101.882 156.696 102.103 156.126 104.531C155.7 106.349 155.524 106.777 155.398 106.301C155.307 105.959 153.127 103.898 152.344 103.415C151.189 102.701 147.738 101.496 146.724 101.453C145.5 101.4 145.017 101.455 144.853 101.665C144.771 101.771 144.5 101.795 144.252 101.719C144.003 101.644 143.452 101.66 143.027 101.755C142.109 101.961 139.336 103.361 138.533 104.025C138.221 104.282 137.856 104.5 137.722 104.51C137.588 104.519 137.448 104.625 137.412 104.746C137.375 104.866 136.991 105.357 136.558 105.838C135.778 106.703 135.765 106.732 135.314 108.549C134.889 110.26 134.763 111.474 134.926 112.278C135.038 112.825 135.003 114.527 134.893 115.964L134.932 116.06L134.856 116.402C134.799 117.022 134.728 117.557 134.65 117.873C134.52 118.395 134.362 118.575 134.272 118.468C133.442 118.566 131.834 118.685 131.115 118.486C131.066 118.472 131.015 118.445 130.963 118.406C130.555 118.198 129.305 116.445 129.387 116.176C129.407 116.108 129.272 115.804 129.087 115.5C128.901 115.196 128.795 114.798 128.851 114.614C128.907 114.43 128.916 114.213 128.871 114.131C128.784 113.971 128.755 113.585 128.777 113.285C128.771 113.265 128.765 113.244 128.76 113.224C128.655 112.368 128.469 110.633 128.462 109.796C128.461 109.783 128.46 109.77 128.459 109.756C128.457 109.728 128.458 109.689 128.464 109.639C128.465 109.591 128.467 109.548 128.47 109.509L128.48 109.514C128.664 108.336 129.94 103.944 130.36 103.13C131.37 101.171 133.146 98.8583 133.921 98.4939C134.138 98.3921 134.341 98.2216 134.374 98.1149C134.439 97.9013 137.608 96.1667 137.818 96.2303C137.889 96.2521 138.459 96.0379 139.083 95.7543C140.668 95.0346 141.381 94.8631 142.451 94.9438C143.14 94.9959 143.532 95.1071 143.978 95.3765C145.564 96.3347 147.191 95.0867 146.091 93.7551C145.488 93.0248 144.522 92.6054 142.344 92.1279C140.334 91.6872 135.198 91.8189 133.728 92.349C133.389 92.4715 132.731 92.6152 132.267 92.6684C131.804 92.7218 131.163 92.8767 130.844 93.0128C130.525 93.1489 130.174 93.2329 130.064 93.1994C129.953 93.1658 129.736 93.2216 129.582 93.3233C129.427 93.4252 128.49 93.7943 127.5 94.1437C126.51 94.4932 125.552 94.8559 125.37 94.9496C125.189 95.0434 124.777 95.2175 124.456 95.3369C124.134 95.4561 123.541 95.711 123.139 95.9036C122.736 96.0959 122.361 96.2397 122.307 96.2231C122.252 96.2065 122.068 96.3505 121.898 96.5429C121.728 96.7354 121.378 96.9749 121.12 97.0753C120.861 97.1756 120.621 97.3542 120.585 97.472C120.549 97.5899 120.372 97.7156 120.191 97.7514C120.01 97.7873 119.619 98.012 119.323 98.2507C119.026 98.4894 118.65 98.6871 118.487 98.6898C118.324 98.6926 118.169 98.7671 118.142 98.8557C118.115 98.944 117.715 99.2628 117.253 99.5641C116.791 99.8653 116.197 100.36 115.933 100.663C115.316 101.371 112.776 102.647 111.627 102.826C110.088 103.066 109.142 102.55 108.637 101.193C108.144 99.8702 108.246 99.4031 109.546 97.0157C109.663 96.8 109.88 96.5729 110.028 96.511C110.176 96.4491 110.333 96.2768 110.379 96.1282C110.424 95.9796 110.591 95.8034 110.75 95.7367C110.91 95.6699 111.068 95.5229 111.103 95.4101C111.196 95.1027 112.178 94.3522 113.374 93.6748C113.958 93.3437 114.778 92.7981 115.195 92.4624C116.049 91.7753 119.001 90.171 120.147 89.7706C120.561 89.6258 121.091 89.4095 121.325 89.29C121.956 88.9664 122.768 88.6368 123.101 88.5695C123.262 88.5369 123.769 88.3288 124.226 88.1071C124.684 87.8855 125.282 87.6643 125.555 87.6155C125.829 87.5669 126.51 87.3624 127.07 87.1611C129.585 86.2568 130.76 85.8917 131.169 85.8869C131.363 85.8845 131.54 85.8256 131.561 85.7558C131.582 85.6861 131.802 85.639 132.05 85.6513C132.298 85.6637 132.863 85.5624 133.306 85.4264C133.75 85.2903 134.173 85.1974 134.246 85.2197C134.32 85.2421 134.773 85.193 135.254 85.1108C136.169 84.9541 138.941 84.7912 139.499 84.8612C139.678 84.8837 140.513 84.8795 141.356 84.8521C142.198 84.8248 143.171 84.8648 143.519 84.9412C144.5 85.1572 145.408 85.0043 145.663 84.5804C146.029 83.9725 146.038 83.1589 145.684 82.8464C145.261 82.4744 142.397 82.0156 141.316 82.1466C140.886 82.1988 140.263 82.2094 139.931 82.1703C139.6 82.1312 139.245 82.1242 139.143 82.1548C139.041 82.1852 138.533 82.2368 138.013 82.2692C135.442 82.4294 134.103 82.5343 133.698 82.607C132.112 82.8917 130.873 83.194 129.276 83.6861C128.274 83.9949 127.027 84.364 126.505 84.5066C125.983 84.6491 125.293 84.872 124.972 85.0022C124.652 85.1325 123.993 85.3669 123.508 85.5231C122.233 85.9343 119.154 87.2191 119.111 87.3575C119.092 87.4224 118.807 87.5473 118.479 87.6353C118.151 87.7231 117.552 87.9822 117.147 88.2109C116.742 88.4396 115.715 89.0114 114.865 89.4815C114.015 89.9517 113.305 90.383 113.288 90.4403C113.24 90.5973 111.668 90.8377 110.814 90.8186C109.634 90.7921 108.645 90.1943 108.821 89.614C108.864 89.473 108.839 89.0392 108.765 88.6501C108.655 88.0743 108.7 87.7692 109.005 87.0085C109.704 85.2642 110.983 83.8048 113.385 82.0099C114.006 81.546 116.266 80.3536 117.223 79.985C117.644 79.8225 118.031 79.6405 118.082 79.5803C118.273 79.356 119.107 78.9337 119.265 78.9817C119.355 79.0091 119.603 78.914 119.815 78.7706C120.028 78.6271 120.428 78.4683 120.705 78.4175C120.981 78.3669 121.404 78.224 121.644 78.0999C122.022 77.9041 122.938 77.6802 125.14 77.2459C125.439 77.1869 125.876 77.036 126.112 76.9106C126.347 76.7851 126.814 76.6418 127.15 76.592C127.485 76.5424 127.945 76.4108 128.173 76.2996C128.401 76.1885 128.657 76.1188 128.743 76.1448C128.903 76.1936 129.456 76.1386 131.281 75.8927C131.864 75.8141 132.558 75.7606 132.823 75.7738C133.087 75.7869 133.51 75.759 133.762 75.7119C134.014 75.6646 134.299 75.6496 134.396 75.6783C134.653 75.7549 136.255 75.7526 137.154 75.6744C137.834 75.6154 139.006 75.6745 140.058 75.8209C140.236 75.8457 140.497 75.8608 140.638 75.8544C141.096 75.8337 142.209 75.8638 143.479 75.9314L144.722 75.9977L145.219 77.0608C145.492 77.6455 145.929 78.329 146.189 78.5796C146.45 78.8304 146.751 79.2216 146.858 79.4492C146.965 79.6767 147.177 79.9005 147.329 79.9466C147.48 79.9926 147.625 80.1106 147.651 80.2089C147.746 80.5659 149.321 82.0639 150.272 82.701C150.808 83.0604 151.361 83.4876 151.501 83.6504C151.641 83.8132 152.479 84.2961 153.365 84.7234C156.018 86.004 156.47 86.1633 157.16 86.0609C157.696 85.9813 157.803 85.8954 157.945 85.4271C158.036 85.1291 158.079 84.7312 158.042 84.5427C157.974 84.2007 156.947 83.4346 155.97 82.9958C154.675 82.4147 153.099 81.5337 152.741 81.1905C152.524 80.982 152.029 80.6156 151.641 80.3763C149.81 79.2457 146.924 75.3473 146.985 74.0882C147.042 72.9244 146.335 72.5286 140.22 70.303C139.386 69.9993 138.635 69.7248 138.552 69.693C138.273 69.5862 135.426 68.9219 134.619 68.7756C133.659 68.6014 131.244 68.4845 130.948 68.5976C130.832 68.6422 130.129 68.7095 129.386 68.7474C128.643 68.7852 127.716 68.8691 127.326 68.9339C125.066 69.3085 124.228 69.5124 123.493 69.8666C123.041 70.084 122.624 70.247 122.565 70.2291C122.506 70.2113 121.982 70.3439 121.399 70.5237C120.817 70.7037 120.164 70.8526 119.949 70.8546C119.734 70.8565 119.279 70.9809 118.938 71.1309C117.634 71.7051 116.275 71.8447 114.946 71.5409C113.466 71.2025 113.122 70.8944 113.155 69.9411C113.188 69.0349 113.337 68.5671 113.865 67.7177ZM138.778 107.26C139.14 106.876 139.817 106.332 140.283 106.051C140.749 105.769 141.366 105.387 141.654 105.201C142.174 104.865 143.846 104.287 144.085 104.36C144.154 104.381 144.72 104.332 145.343 104.25C146.694 104.074 148.98 104.519 150.166 105.189C151.218 105.784 152.342 106.701 152.663 107.228C152.818 107.482 153.081 107.78 153.248 107.891C153.414 108.002 154.004 108.931 154.557 109.956C155.63 111.943 156.176 113.987 155.884 114.931C155.795 115.218 155.842 115.603 156.01 115.946C156.255 116.451 156.25 116.537 155.942 116.933C154.517 118.771 153.239 119.547 151.194 119.816C150.953 119.848 150.44 119.915 150.054 119.965C148.684 120.143 147.866 120.017 145.921 119.328C144.89 118.963 143.818 118.527 143.539 118.358C142.997 118.029 140.744 117.509 139.771 117.488C139.449 117.481 138.779 117.503 138.282 117.537L137.378 117.599L137.519 117.067C137.68 116.456 137.681 116.446 137.618 115.805C137.592 115.541 137.602 114.857 137.64 114.286C137.678 113.714 137.673 112.825 137.627 112.309C137.41 109.837 137.749 108.35 138.778 107.26Z" fill="#3E001A"/>
</g>
<path d="M254.628 197.679H197.651C197.273 197.679 196.967 197.373 196.967 196.995V140.018C196.967 139.64 197.273 139.334 197.651 139.334H231.837C232.215 139.334 232.521 139.64 232.521 140.018V145.032H243.233C243.611 145.032 243.916 145.337 243.916 145.715V152.629H254.628C255.006 152.629 255.312 152.934 255.312 153.312V196.995C255.312 197.373 255.006 197.679 254.628 197.679ZM232.521 196.311H253.944V153.996H232.521V196.311ZM219.226 196.311H231.153V140.701H198.334V196.311H210.262V181.801C210.262 181.423 210.568 181.117 210.945 181.117H218.542C218.92 181.117 219.226 181.423 219.226 181.801V196.311ZM211.629 196.311H217.859V182.485H211.629V196.311ZM232.521 152.629H242.547V146.399H232.521V152.629ZM247.715 185.6H246.347V181.801H247.717L247.715 185.6ZM240.118 185.6H238.75V181.801H240.12L240.118 185.6ZM226.823 185.6H225.456V181.801H226.823V185.6ZM204.032 185.6H202.665V181.801H204.032V185.6ZM247.715 174.204H246.347V170.406H247.717L247.715 174.204ZM240.118 174.204H238.75V170.406H240.12L240.118 174.204ZM226.823 174.204H225.456V170.406H226.823V174.204ZM219.226 174.204H217.859V170.406H219.226V174.204ZM211.629 174.204H210.262V170.406H211.629V174.204ZM204.032 174.204H202.665V170.406H204.032V174.204ZM247.715 162.809H246.347V159.01H247.717L247.715 162.809ZM240.118 162.809H238.75V159.01H240.12L240.118 162.809ZM226.823 162.809H225.456V159.01H226.823V162.809ZM219.226 162.809H217.859V159.01H219.226V162.809ZM211.629 162.809H210.262V159.01H211.629V162.809ZM204.032 162.809H202.665V159.01H204.032V162.809ZM226.823 151.413H225.456V147.615H226.823V151.413ZM219.226 151.413H217.859V147.615H219.226V151.413ZM211.629 151.413H210.262V147.615H211.629V151.413ZM204.032 151.413H202.665V147.615H204.032V151.413Z" fill="white" stroke="white"/>
<rect x="322.802" y="127.947" width="81.6519" height="81.6519" fill="#B882FF" stroke="#3E001A" stroke-width="3"/>
<path d="M365.816 198.019C365.683 198.019 365.549 197.984 365.429 197.916C365.181 197.776 365.028 197.515 365.028 197.231V182.591C364.79 182.525 364.562 182.431 364.35 182.31L353.238 193.411L352.124 192.294L363.231 181.196C362.981 180.763 362.837 180.257 362.837 179.719C362.837 178.077 364.172 176.742 365.814 176.742C367.456 176.742 368.791 178.077 368.791 179.719C368.791 181.087 367.861 182.242 366.602 182.591V195.841L375.969 190.219V170.963C375.969 170.752 376.052 170.553 376.199 170.407L385.333 161.276C389.182 157.43 391.296 152.321 391.296 146.883V141.104H385.517C380.084 141.104 374.973 143.221 371.131 147.065L361.996 156.195C361.847 156.344 361.648 156.427 361.438 156.427H342.186L336.562 165.796H349.81C350.156 164.536 351.312 163.607 352.682 163.607C354.324 163.607 355.659 164.943 355.659 166.584C355.659 168.226 354.324 169.562 352.682 169.562C352.146 169.562 351.644 169.419 351.209 169.172L340.104 180.277L338.99 179.16L350.092 168.056C349.972 167.843 349.876 167.613 349.81 167.373H335.17C334.885 167.373 334.623 167.219 334.485 166.972C334.347 166.725 334.349 166.423 334.496 166.18L341.065 155.234C341.207 154.998 341.463 154.851 341.739 154.851H361.112L370.015 145.951C374.156 141.809 379.662 139.528 385.517 139.528H392.084C392.52 139.528 392.872 139.881 392.872 140.316V146.883C392.872 152.741 390.591 158.247 386.452 162.388L377.549 171.289V190.664C377.549 190.939 377.405 191.196 377.166 191.34L366.221 197.907C366.096 197.981 365.956 198.019 365.816 198.019ZM365.816 178.318C365.043 178.318 364.415 178.946 364.415 179.719C364.415 180.491 365.043 181.12 365.816 181.12C366.589 181.12 367.217 180.491 367.217 179.719C367.217 178.946 366.589 178.318 365.816 178.318ZM352.682 165.184C351.909 165.184 351.281 165.812 351.281 166.584C351.281 167.357 351.909 167.985 352.682 167.985C353.455 167.985 354.083 167.357 354.083 166.584C354.083 165.812 353.455 165.184 352.682 165.184ZM335.726 197.789L334.612 196.672L363.229 168.058C362.981 167.622 362.839 167.121 362.839 166.584C362.839 164.943 364.174 163.607 365.816 163.607C367.458 163.607 368.793 164.943 368.793 166.584C368.793 168.226 367.458 169.562 365.816 169.562C365.28 169.562 364.779 169.419 364.343 169.172L335.726 197.789ZM365.816 165.184C365.043 165.184 364.415 165.812 364.415 166.584C364.415 167.357 365.043 167.985 365.816 167.985C366.589 167.985 367.217 167.357 367.217 166.584C367.217 165.812 366.589 165.184 365.816 165.184Z" fill="white" stroke="white"/>
<path d="M114.358 196.47H61.4618C61.0859 196.47 60.7817 196.165 60.7817 195.789V161.785C60.7817 161.409 61.0859 161.104 61.4618 161.104H83.4517V139.115C83.4517 138.739 83.7558 138.435 84.1318 138.435H114.358C114.734 138.435 115.038 138.739 115.038 139.115V195.789C115.038 196.165 114.734 196.47 114.358 196.47ZM84.8119 195.109H113.678V139.795H84.8119V161.785C84.8119 162.161 84.5077 162.465 84.1318 162.465H62.1419V195.109H75.895V180.676C75.895 180.3 76.1992 179.996 76.5751 179.996H84.1318C84.5077 179.996 84.8119 180.3 84.8119 180.676V195.109ZM77.2552 195.109H83.4517V181.356H77.2552V195.109ZM107.482 184.455H106.122V180.676H107.484L107.482 184.455ZM99.9251 184.455H98.5649V180.676H99.927L99.9251 184.455ZM92.3685 184.455H91.0083V180.676H92.3704L92.3685 184.455ZM69.6986 184.455H68.3384V180.676H69.6986V184.455ZM107.482 173.12H106.122V169.341H107.484L107.482 173.12ZM99.9251 173.12H98.5649V169.341H99.927L99.9251 173.12ZM92.3685 173.12H91.0083V169.341H92.3704L92.3685 173.12ZM84.8119 173.12H83.4517V169.341H84.8119V173.12ZM77.2552 173.12H75.895V169.341H77.2552V173.12ZM69.6986 173.12H68.3384V169.341H69.6986V173.12ZM107.482 161.785H106.122V158.006H107.484L107.482 161.785ZM99.9251 161.785H98.5649V158.006H99.927L99.9251 161.785ZM92.3685 161.785H91.0083V158.006H92.3704L92.3685 161.785ZM107.482 150.45H106.122V146.671H107.484L107.482 150.45ZM99.9251 150.45H98.5649V146.671H99.927L99.9251 150.45ZM92.3685 150.45H91.0083V146.671H92.3704L92.3685 150.45Z" fill="#3E001A" stroke="#3E001A"/>
</svg>
