<svg width="462" height="250" viewBox="0 0 462 250" fill="none" xmlns="http://www.w3.org/2000/svg">
<rect x="0.811768" y="0.921875" width="461" height="249" fill="#0057FF"/>
<g clip-path="url(#clip0_3795_53111)">
<mask id="mask0_3795_53111" style="mask-type:luminance" maskUnits="userSpaceOnUse" x="62" y="86" width="76" height="78">
<path d="M62.0981 86.9219H137.098V163.922H62.0981V86.9219Z" fill="white"/>
</mask>
<g mask="url(#mask0_3795_53111)">
<path d="M114.045 159.351H85.4367C75.5423 159.351 67.5212 151.335 67.5212 141.448V112.86C67.5212 102.972 75.5423 94.957 85.4367 94.957H114.045C123.94 94.957 131.961 102.972 131.961 112.86V141.448C131.961 151.335 123.94 159.351 114.045 159.351Z" fill="white"/>
<path d="M119.268 146.323C115.461 135.944 105.513 129.496 93.3031 129.496H82.2159C81.1953 129.496 80.3682 130.323 80.3682 131.343V146.958C80.3682 147.978 81.1953 148.805 82.2159 148.805H93.3031C94.3238 148.805 95.1509 147.978 95.1509 146.958V137.004C95.1509 135.984 94.3238 135.158 93.3031 135.158C92.2825 135.158 91.4553 135.984 91.4553 137.004V145.112H84.0637V133.189H93.3031C102.893 133.189 110.853 137.693 114.705 145.111H102.714C101.694 145.111 100.866 145.938 100.866 146.958C100.866 147.978 101.694 148.804 102.714 148.804H117.533C118.136 148.804 118.702 148.51 119.048 148.015C119.393 147.521 119.476 146.889 119.268 146.323Z" fill="#0057FF"/>
<path d="M102.713 148.804C101.692 148.804 100.865 147.977 100.865 146.957V107.863C100.865 106.843 101.692 106.016 102.713 106.016C103.733 106.016 104.56 106.843 104.56 107.863V146.957C104.56 147.977 103.733 148.804 102.713 148.804Z" fill="#0057FF"/>
<path d="M119.048 106.805C118.702 106.31 118.136 106.016 117.533 106.016H102.714C101.694 106.016 100.866 106.843 100.866 107.862C100.866 108.882 101.694 109.709 102.714 109.709H114.705C110.853 117.128 102.893 121.631 93.3031 121.631H84.0637V109.709H91.4553V117.816C91.4553 118.836 92.2824 119.663 93.3031 119.663C94.3237 119.663 95.1509 118.836 95.1509 117.816V107.862C95.1509 106.842 94.3237 106.016 93.3031 106.016H82.2159C81.1953 106.016 80.3682 106.842 80.3682 107.862V123.478C80.3682 124.498 81.1953 125.324 82.2159 125.324H93.3031C105.512 125.324 115.461 118.877 119.268 108.498C119.476 107.931 119.393 107.3 119.048 106.805Z" fill="#0057FF"/>
</g>
</g>
<path d="M400.525 133.422C400.525 134.113 400.479 134.989 400.341 136.095H381.258C382.041 139.552 384.623 141.857 388.909 141.857C391.952 141.857 394.717 140.981 397.16 139.276L399.557 143.563C396.469 145.867 392.827 147.02 388.679 147.02C379.276 147.02 375.127 140.566 375.127 133.929C375.127 130.149 376.326 127.015 378.722 124.572C381.165 122.082 384.3 120.838 388.126 120.838C391.767 120.838 394.717 121.99 397.022 124.249C399.373 126.508 400.525 129.55 400.525 133.422ZM388.126 125.862C384.623 125.862 382.041 128.029 381.258 131.532H394.625C394.118 128.029 391.583 125.862 388.126 125.862Z" fill="white"/>
<path d="M359.28 120.838C362.83 120.838 365.78 122.082 368.131 124.618C370.527 127.153 371.726 130.241 371.726 133.975C371.726 137.709 370.527 140.797 368.131 143.332C365.78 145.821 362.784 147.066 359.234 147.066C356.008 147.066 353.334 145.775 351.214 143.148V146.466H345.314V111.435H351.306V124.664C353.426 122.129 356.1 120.838 359.28 120.838ZM365.595 133.929C365.595 131.808 364.904 130.011 363.567 128.582C362.23 127.107 360.525 126.369 358.358 126.369C356.192 126.369 354.44 127.107 353.104 128.582C351.767 130.011 351.076 131.808 351.076 133.929C351.076 136.095 351.767 137.893 353.104 139.368C354.44 140.797 356.192 141.534 358.358 141.534C360.525 141.534 362.23 140.797 363.567 139.368C364.904 137.893 365.595 136.095 365.595 133.929Z" fill="white"/>
<path d="M313.862 133.929C313.862 130.241 315.107 127.153 317.596 124.618C320.131 122.083 323.311 120.792 327.229 120.792C331.147 120.792 334.328 122.083 336.817 124.618C339.352 127.153 340.597 130.241 340.597 133.929C340.597 137.663 339.352 140.797 336.817 143.332C334.328 145.867 331.147 147.112 327.229 147.112C323.311 147.112 320.131 145.867 317.596 143.332C315.107 140.797 313.862 137.663 313.862 133.929ZM334.558 133.929C334.558 131.855 333.867 130.057 332.438 128.582C331.009 127.107 329.304 126.369 327.229 126.369C325.155 126.369 323.45 127.107 322.021 128.582C320.592 130.057 319.9 131.855 319.9 133.929C319.9 136.049 320.592 137.847 322.021 139.322C323.45 140.797 325.155 141.535 327.229 141.535C329.304 141.535 331.009 140.797 332.438 139.322C333.867 137.847 334.558 136.049 334.558 133.929Z" fill="white"/>
<path d="M309.128 111.435V146.466H303.136V111.435H309.128Z" fill="white"/>
<path d="M282.367 146.973C277.251 146.973 273.01 145.314 269.645 142.041C266.326 138.722 264.667 134.527 264.667 129.457C264.667 124.34 266.418 120.1 269.875 116.781C273.333 113.462 277.619 111.803 282.644 111.803C288.175 111.803 293.384 114.154 296.472 117.518L292.277 121.944C289.65 119.224 286.423 117.887 282.644 117.887C279.371 117.887 276.605 118.993 274.393 121.16C272.226 123.326 271.12 126.092 271.12 129.411C271.12 132.684 272.18 135.403 274.347 137.616C276.513 139.828 279.279 140.935 282.551 140.935C286.193 140.935 289.834 139.367 292.093 137.016V131.854H282.229V126.323H297.901V140.105C293.568 144.668 288.405 146.973 282.367 146.973Z" fill="white"/>
<path d="M261.161 133.422C261.161 134.113 261.115 134.989 260.976 136.095H241.893C242.677 139.552 245.258 141.857 249.545 141.857C252.587 141.857 255.353 140.981 257.796 139.276L260.193 143.563C257.105 145.867 253.463 147.02 249.315 147.02C239.911 147.02 235.763 140.566 235.763 133.929C235.763 130.149 236.961 127.015 239.358 124.572C241.801 122.082 244.936 120.838 248.761 120.838C252.403 120.838 255.353 121.99 257.658 124.249C260.008 126.508 261.161 129.55 261.161 133.422ZM248.761 125.862C245.258 125.862 242.677 128.029 241.893 131.532H255.261C254.754 128.029 252.218 125.862 248.761 125.862Z" fill="white"/>
<path d="M224.985 124.618V111.435H230.978V146.466H225.124V143.194C223.05 145.775 220.376 147.066 217.149 147.066C213.6 147.066 210.604 145.821 208.253 143.332C205.902 140.797 204.704 137.662 204.704 133.929C204.704 130.241 205.902 127.153 208.253 124.618C210.65 122.082 213.6 120.838 217.103 120.838C220.284 120.838 222.911 122.082 224.985 124.618ZM217.979 141.58C220.146 141.58 221.943 140.843 223.28 139.368C224.617 137.893 225.308 136.095 225.308 133.929C225.308 131.808 224.617 130.011 223.234 128.536C221.897 127.061 220.146 126.323 217.979 126.323C215.813 126.323 214.061 127.061 212.724 128.536C211.388 130.011 210.696 131.808 210.696 133.929C210.696 136.095 211.388 137.893 212.724 139.368C214.061 140.843 215.813 141.58 217.979 141.58Z" fill="white"/>
<path d="M174.588 133.929C174.588 130.241 175.833 127.153 178.322 124.618C180.857 122.083 184.038 120.792 187.956 120.792C191.874 120.792 195.054 122.083 197.543 124.618C200.078 127.153 201.323 130.241 201.323 133.929C201.323 137.663 200.078 140.797 197.543 143.332C195.054 145.867 191.874 147.112 187.956 147.112C184.038 147.112 180.857 145.867 178.322 143.332C175.833 140.797 174.588 137.663 174.588 133.929ZM195.285 133.929C195.285 131.855 194.593 130.057 193.164 128.582C191.735 127.107 190.03 126.369 187.956 126.369C185.881 126.369 184.176 127.107 182.747 128.582C181.318 130.057 180.627 131.855 180.627 133.929C180.627 136.049 181.318 137.847 182.747 139.322C184.176 140.797 185.881 141.535 187.956 141.535C190.03 141.535 191.735 140.797 193.164 139.322C194.593 137.847 195.285 136.049 195.285 133.929Z" fill="white"/>
<path d="M175.171 146.466H167.427L157.333 132.592L153.046 137.8V146.466H146.777V112.402H153.046V129.135L166.598 112.402H174.203L161.481 127.982L175.171 146.466Z" fill="white"/>
<defs>
<clipPath id="clip0_3795_53111">
<rect width="75" height="77" fill="white" transform="translate(62.0981 86.9219)"/>
</clipPath>
</defs>
</svg>
