<svg width="462" height="250" viewBox="0 0 462 250" fill="none" xmlns="http://www.w3.org/2000/svg">
<mask id="mask0_3795_53607" style="mask-type:alpha" maskUnits="userSpaceOnUse" x="0" y="0" width="462" height="250">
<rect x="0.811768" y="0.817383" width="461" height="249" fill="#9B4DFF"/>
</mask>
<g mask="url(#mask0_3795_53607)">
<rect x="0.811768" y="0.817383" width="461" height="249" fill="#9B4DFF"/>
<path d="M135.293 47.2074V28.1722H138.431V25.0342H141.879V28.5171H138.775V34.4138H141.534V31.2758H144.707V28.1722H147.81V25.0342H151.328V28.5171H148.155V31.6206H145.052V34.7242H141.879V37.4829H145.052V40.621H148.155V43.759H151.328V47.2074H147.81V44.1039H144.707V40.9658H141.534V37.8278H138.775V47.2074H135.293Z" fill="white"/>
<path d="M115.087 47.2074V25.0342H118.57V28.1722H121.674V31.2758H124.846V40.621H127.605V25.0342H131.122V47.2074H127.605V44.1039H124.501V40.9658H121.329V31.6206H118.57V47.2074H115.087Z" fill="white"/>
<path d="M94.8817 47.2074V31.2758H98.0198V28.1722H101.123V25.0342H104.641V28.1722H107.744V31.2758H110.917V47.2074H107.399V40.9658H98.3646V47.2074H94.8817ZM98.3646 37.4829H107.399V31.6206H104.296V28.5171H101.468V31.6206H98.3646V37.4829Z" fill="white"/>
<path d="M74.676 47.2074V28.1722H77.8141V25.0342H87.5386V28.1722H90.7111V37.8278H87.5386V40.9658H86.0213V43.759H89.1249V47.2074H85.6764V44.1039H82.5039V40.9658H78.1589V47.2074H74.676ZM78.1589 37.4829H87.1937V28.5171H78.1589V37.4829Z" fill="white"/>
<path d="M47.3877 47.2078V44.1165V37.5217H50.5134V34.4647H59.856V28.5912H50.8568V31.6825H47.3877V28.2477H50.5134V25.1221H60.1995V28.2477H63.3595V34.7738H60.1995V37.8651H50.8568V43.773H59.856H63.3595V47.2078H60.1995H47.3877Z" fill="white"/>
<path d="M27.3678 47.2074V44.1039H24.2297V40.621H27.3678V34.7242H24.2297V31.2758H27.3678V25.0342H30.8162V31.2758H36.7475V25.0342H40.2648V31.2758H43.4029V34.7242H40.2648V40.621H43.4029V44.1039H40.2648V47.2074H36.7475V44.1039H30.8162V47.2074H27.3678ZM30.8162 40.621H36.7475V34.7242H30.8162V40.621Z" fill="white"/>
<rect width="61.9732" height="53.8962" transform="matrix(-1 0 0 1 407.822 147.948)" fill="#B882FF"/>
<rect width="61.9732" height="53.8962" transform="matrix(-1 0 0 1 349.67 198.43)" fill="#B882FF"/>
<rect width="61.9732" height="53.8962" transform="matrix(-1 0 0 1 348.583 98.3691)" fill="#B882FF"/>
<rect width="61.9732" height="53.8962" transform="matrix(-1 0 0 1 231.312 198.366)" fill="#B882FF"/>
<rect width="61.9732" height="53.8962" transform="matrix(-1 0 0 1 55.2163 147.006)" fill="#B882FF"/>
<rect width="61.9732" height="53.8962" transform="matrix(-1 0 0 1 113.512 198.613)" fill="#B882FF"/>
<rect x="-1.99416" y="1.99416" width="57.9849" height="49.9078" transform="matrix(-1 0 0 1 403.3 95.8066)" fill="#FFD056" stroke="#3E001A" stroke-width="3.98833"/>
<path d="M366.173 119.434C366.173 125.392 370.928 130.174 376.735 130.174C382.542 130.174 387.297 125.392 387.297 119.434C387.297 113.475 382.542 108.693 376.735 108.693C370.928 108.693 366.173 113.475 366.173 119.434Z" fill="#FF813A" stroke="#3E001A" stroke-width="3.98833"/>
<mask id="path-17-inside-1_3795_53607" fill="white">
<path d="M356.385 149.733C356.385 144.375 358.484 139.238 362.219 135.449C365.954 131.661 371.02 129.533 376.302 129.533C381.585 129.533 386.651 131.661 390.386 135.449C394.121 139.238 396.219 144.375 396.219 149.733L376.302 149.733H356.385Z"/>
</mask>
<path d="M356.385 149.733C356.385 144.375 358.484 139.238 362.219 135.449C365.954 131.661 371.02 129.533 376.302 129.533C381.585 129.533 386.651 131.661 390.386 135.449C394.121 139.238 396.219 144.375 396.219 149.733L376.302 149.733H356.385Z" fill="#FF813A" stroke="#3E001A" stroke-width="7.97665" mask="url(#path-17-inside-1_3795_53607)"/>
<rect x="-1.99416" y="1.99416" width="57.9849" height="49.9078" transform="matrix(-1 0 0 1 285.691 95.8076)" fill="#00BA61" stroke="#3E001A" stroke-width="3.98833"/>
<rect x="-1.99416" y="1.99416" width="57.9849" height="49.9078" transform="matrix(-1 0 0 1 226.786 146.274)" fill="#B882FF" stroke="#3E001A" stroke-width="3.98833"/>
<rect x="-1.99416" y="1.99416" width="57.9849" height="49.9078" transform="matrix(-1 0 0 1 167.882 95.7754)" fill="#9B4DFF" stroke="#3E001A" stroke-width="3.98833"/>
<rect x="-1.99416" y="1.99416" width="57.9849" height="49.9078" transform="matrix(-1 0 0 1 167.882 196.902)" fill="#B882FF" stroke="#3E001A" stroke-width="3.98833"/>
<rect x="-1.99416" y="1.99416" width="57.9849" height="49.9078" transform="matrix(-1 0 0 1 51.8162 196.413)" fill="#9B4DFF" stroke="#3E001A" stroke-width="3.98833"/>
<rect x="-1.99416" y="1.99416" width="57.9849" height="49.9078" transform="matrix(-1 0 0 1 51.8162 96.2402)" fill="#B882FF" stroke="#3E001A" stroke-width="3.98833"/>
<rect x="-1.99416" y="1.99416" width="57.9849" height="49.9078" transform="matrix(-1 0 0 1 109.804 146.406)" fill="#B882FF" stroke="#3E001A" stroke-width="3.98833"/>
<rect x="-1.99416" y="1.99416" width="57.9849" height="49.9078" transform="matrix(-1 0 0 1 286.124 196.322)" fill="#9B4DFF" stroke="#3E001A" stroke-width="3.98833"/>
<rect x="-1.99416" y="1.99416" width="57.9849" height="49.9078" transform="matrix(-1 0 0 1 403.834 196.322)" fill="#B882FF" stroke="#3E001A" stroke-width="3.98833"/>
<rect x="-1.99416" y="1.99416" width="57.9849" height="49.9078" transform="matrix(-1 0 0 1 461.965 146.23)" fill="#9B4DFF" stroke="#3E001A" stroke-width="3.98833"/>
<rect x="-1.99416" y="1.99416" width="57.9849" height="49.9078" transform="matrix(-1 0 0 1 462.13 45.3076)" fill="#B882FF" stroke="#3E001A" stroke-width="3.98833"/>
<rect x="-1.99416" y="1.99416" width="57.9849" height="49.9078" transform="matrix(-1 0 0 1 344.496 45.3076)" fill="#9B4DFF" stroke="#3E001A" stroke-width="3.98833"/>
<rect x="-1.99416" y="1.99416" width="57.9849" height="49.9078" transform="matrix(-1 0 0 1 403.301 -5.24414)" fill="#9B4DFF" stroke="#3E001A" stroke-width="3.98833"/>
<path d="M248.564 119.434C248.564 125.392 253.319 130.174 259.126 130.174C264.933 130.174 269.688 125.392 269.688 119.434C269.688 113.475 264.933 108.693 259.126 108.693C253.319 108.693 248.564 113.475 248.564 119.434Z" fill="#FFD056" stroke="#3E001A" stroke-width="3.98833"/>
<mask id="path-32-inside-2_3795_53607" fill="white">
<path d="M238.777 149.734C238.777 144.376 240.875 139.239 244.61 135.45C248.345 131.662 253.411 129.534 258.693 129.534C263.976 129.534 269.042 131.662 272.777 135.45C276.512 139.239 278.61 144.376 278.61 149.734L258.693 149.734H238.777Z"/>
</mask>
<path d="M238.777 149.734C238.777 144.376 240.875 139.239 244.61 135.45C248.345 131.662 253.411 129.534 258.693 129.534C263.976 129.534 269.042 131.662 272.777 135.45C276.512 139.239 278.61 144.376 278.61 149.734L258.693 149.734H238.777Z" fill="#FFD056" stroke="#3E001A" stroke-width="7.97665" mask="url(#path-32-inside-2_3795_53607)"/>
<rect x="-1.99416" y="1.99416" width="57.9849" height="49.9078" transform="matrix(-1 0 0 1 344.496 146.23)" fill="#FF813A" stroke="#3E001A" stroke-width="3.98833"/>
<path d="M130.755 119.402C130.755 125.361 135.51 130.143 141.317 130.143C147.124 130.143 151.879 125.361 151.879 119.402C151.879 113.444 147.124 108.662 141.317 108.662C135.51 108.662 130.755 113.444 130.755 119.402Z" fill="#B882FF" stroke="#3E001A" stroke-width="3.98833"/>
<mask id="path-35-inside-3_3795_53607" fill="white">
<path d="M120.968 149.701C120.968 144.344 123.066 139.206 126.801 135.418C130.536 131.63 135.602 129.502 140.885 129.502C146.167 129.502 151.233 131.63 154.968 135.418C158.703 139.206 160.801 144.344 160.801 149.701L140.885 149.701H120.968Z"/>
</mask>
<path d="M120.968 149.701C120.968 144.344 123.066 139.206 126.801 135.418C130.536 131.63 135.602 129.502 140.885 129.502C146.167 129.502 151.233 131.63 154.968 135.418C158.703 139.206 160.801 144.344 160.801 149.701L140.885 149.701H120.968Z" fill="#B882FF" stroke="#3E001A" stroke-width="7.97665" mask="url(#path-35-inside-3_3795_53607)"/>
<path d="M130.755 220.528C130.755 226.487 135.51 231.269 141.317 231.269C147.124 231.269 151.879 226.487 151.879 220.528C151.879 214.57 147.124 209.788 141.317 209.788C135.51 209.788 130.755 214.57 130.755 220.528Z" fill="#9B4DFF" stroke="#3E001A" stroke-width="3.98833"/>
<mask id="path-37-inside-4_3795_53607" fill="white">
<path d="M120.968 250.828C120.968 245.471 123.066 240.333 126.801 236.545C130.536 232.757 135.602 230.629 140.885 230.629C146.167 230.629 151.233 232.757 154.968 236.545C158.703 240.333 160.801 245.471 160.801 250.828L140.885 250.828H120.968Z"/>
</mask>
<path d="M120.968 250.828C120.968 245.471 123.066 240.333 126.801 236.545C130.536 232.757 135.602 230.629 140.885 230.629C146.167 230.629 151.233 232.757 154.968 236.545C158.703 240.333 160.801 245.471 160.801 250.828L140.885 250.828H120.968Z" fill="#9B4DFF" stroke="#3E001A" stroke-width="7.97665" mask="url(#path-37-inside-4_3795_53607)"/>
<path d="M14.6889 220.04C14.6889 225.998 19.4442 230.78 25.2511 230.78C31.058 230.78 35.8132 225.998 35.8132 220.04C35.8132 214.082 31.058 209.3 25.2511 209.3C19.4442 209.3 14.6889 214.082 14.6889 220.04Z" fill="#B882FF" stroke="#3E001A" stroke-width="3.98833"/>
<mask id="path-39-inside-5_3795_53607" fill="white">
<path d="M4.90147 250.339C4.90147 244.982 6.99985 239.844 10.735 236.056C14.4701 232.268 19.5361 230.14 24.8183 230.14C30.1006 230.14 35.1666 232.268 38.9017 236.056C42.6368 239.844 44.7352 244.982 44.7352 250.339L24.8184 250.339H4.90147Z"/>
</mask>
<path d="M4.90147 250.339C4.90147 244.982 6.99985 239.844 10.735 236.056C14.4701 232.268 19.5361 230.14 24.8183 230.14C30.1006 230.14 35.1666 232.268 38.9017 236.056C42.6368 239.844 44.7352 244.982 44.7352 250.339L24.8184 250.339H4.90147Z" fill="#B882FF" stroke="#3E001A" stroke-width="7.97665" mask="url(#path-39-inside-5_3795_53607)"/>
<path d="M14.6889 119.867C14.6889 125.825 19.4442 130.607 25.2511 130.607C31.058 130.607 35.8132 125.825 35.8132 119.867C35.8132 113.909 31.058 109.127 25.2511 109.127C19.4442 109.127 14.6889 113.909 14.6889 119.867Z" fill="#9B4DFF" stroke="#3E001A" stroke-width="3.98833"/>
<mask id="path-41-inside-6_3795_53607" fill="white">
<path d="M4.90147 150.166C4.90147 144.809 6.99985 139.671 10.735 135.883C14.4701 132.095 19.5361 129.967 24.8183 129.967C30.1006 129.967 35.1666 132.095 38.9017 135.883C42.6368 139.671 44.7352 144.809 44.7352 150.166L24.8184 150.166H4.90147Z"/>
</mask>
<path d="M4.90147 150.166C4.90147 144.809 6.99985 139.671 10.735 135.883C14.4701 132.095 19.5361 129.967 24.8183 129.967C30.1006 129.967 35.1666 132.095 38.9017 135.883C42.6368 139.671 44.7352 144.809 44.7352 150.166L24.8184 150.166H4.90147Z" fill="#9B4DFF" stroke="#3E001A" stroke-width="7.97665" mask="url(#path-41-inside-6_3795_53607)"/>
<path d="M189.659 169.901C189.659 175.86 194.414 180.642 200.221 180.642C206.028 180.642 210.783 175.86 210.783 169.901C210.783 163.943 206.028 159.161 200.221 159.161C194.414 159.161 189.659 163.943 189.659 169.901Z" fill="#9B4DFF" stroke="#3E001A" stroke-width="3.98833"/>
<mask id="path-43-inside-7_3795_53607" fill="white">
<path d="M179.872 200.201C179.872 194.844 181.97 189.706 185.705 185.918C189.44 182.13 194.506 180.002 199.788 180.002C205.071 180.002 210.137 182.13 213.872 185.918C217.607 189.706 219.705 194.844 219.705 200.201L199.788 200.201H179.872Z"/>
</mask>
<path d="M179.872 200.201C179.872 194.844 181.97 189.706 185.705 185.918C189.44 182.13 194.506 180.002 199.788 180.002C205.071 180.002 210.137 182.13 213.872 185.918C217.607 189.706 219.705 194.844 219.705 200.201L199.788 200.201H179.872Z" fill="#9B4DFF" stroke="#3E001A" stroke-width="7.97665" mask="url(#path-43-inside-7_3795_53607)"/>
<path d="M72.6763 170.033C72.6763 175.991 77.4315 180.773 83.2384 180.773C89.0453 180.773 93.8005 175.991 93.8005 170.033C93.8005 164.075 89.0453 159.293 83.2384 159.293C77.4315 159.293 72.6763 164.075 72.6763 170.033Z" fill="#9B4DFF" stroke="#3E001A" stroke-width="3.98833"/>
<mask id="path-45-inside-8_3795_53607" fill="white">
<path d="M62.8889 200.333C62.8889 194.976 64.9873 189.838 68.7224 186.05C72.4576 182.262 77.5235 180.134 82.8058 180.134C88.0881 180.134 93.154 182.262 96.8891 186.05C100.624 189.838 102.723 194.976 102.723 200.333L82.8058 200.333H62.8889Z"/>
</mask>
<path d="M62.8889 200.333C62.8889 194.976 64.9873 189.838 68.7224 186.05C72.4576 182.262 77.5235 180.134 82.8058 180.134C88.0881 180.134 93.154 182.262 96.8891 186.05C100.624 189.838 102.723 194.976 102.723 200.333L82.8058 200.333H62.8889Z" fill="#9B4DFF" stroke="#3E001A" stroke-width="7.97665" mask="url(#path-45-inside-8_3795_53607)"/>
<path d="M248.997 219.948C248.997 225.907 253.752 230.688 259.559 230.688C265.366 230.688 270.121 225.907 270.121 219.948C270.121 213.99 265.366 209.208 259.559 209.208C253.752 209.208 248.997 213.99 248.997 219.948Z" fill="#B882FF" stroke="#3E001A" stroke-width="3.98833"/>
<mask id="path-47-inside-9_3795_53607" fill="white">
<path d="M239.21 250.248C239.21 244.891 241.308 239.753 245.043 235.965C248.778 232.177 253.844 230.049 259.127 230.049C264.409 230.049 269.475 232.177 273.21 235.965C276.945 239.753 279.043 244.891 279.043 250.248L259.127 250.248H239.21Z"/>
</mask>
<path d="M239.21 250.248C239.21 244.891 241.308 239.753 245.043 235.965C248.778 232.177 253.844 230.049 259.127 230.049C264.409 230.049 269.475 232.177 273.21 235.965C276.945 239.753 279.043 244.891 279.043 250.248L259.127 250.248H239.21Z" fill="#B882FF" stroke="#3E001A" stroke-width="7.97665" mask="url(#path-47-inside-9_3795_53607)"/>
<path d="M424.837 169.857C424.837 175.816 429.593 180.598 435.4 180.598C441.206 180.598 445.962 175.816 445.962 169.857C445.962 163.899 441.206 159.117 435.4 159.117C429.593 159.117 424.837 163.899 424.837 169.857Z" fill="#B882FF" stroke="#3E001A" stroke-width="3.98833"/>
<mask id="path-49-inside-10_3795_53607" fill="white">
<path d="M415.05 200.156C415.05 194.799 417.148 189.661 420.883 185.873C424.618 182.085 429.684 179.957 434.967 179.957C440.249 179.957 445.315 182.085 449.05 185.873C452.785 189.661 454.884 194.799 454.884 200.156L434.967 200.156H415.05Z"/>
</mask>
<path d="M415.05 200.156C415.05 194.799 417.148 189.661 420.883 185.873C424.618 182.085 429.684 179.957 434.967 179.957C440.249 179.957 445.315 182.085 449.05 185.873C452.785 189.661 454.884 194.799 454.884 200.156L434.967 200.156H415.05Z" fill="#B882FF" stroke="#3E001A" stroke-width="7.97665" mask="url(#path-49-inside-10_3795_53607)"/>
<path d="M366.707 219.948C366.707 225.907 371.462 230.688 377.269 230.688C383.076 230.688 387.831 225.907 387.831 219.948C387.831 213.99 383.076 209.208 377.269 209.208C371.462 209.208 366.707 213.99 366.707 219.948Z" fill="#9B4DFF" stroke="#3E001A" stroke-width="3.98833"/>
<mask id="path-51-inside-11_3795_53607" fill="white">
<path d="M356.919 250.248C356.919 244.891 359.017 239.753 362.752 235.965C366.488 232.177 371.554 230.049 376.836 230.049C382.118 230.049 387.184 232.177 390.919 235.965C394.654 239.753 396.753 244.891 396.753 250.248L376.836 250.248H356.919Z"/>
</mask>
<path d="M356.919 250.248C356.919 244.891 359.017 239.753 362.752 235.965C366.488 232.177 371.554 230.049 376.836 230.049C382.118 230.049 387.184 232.177 390.919 235.965C394.654 239.753 396.753 244.891 396.753 250.248L376.836 250.248H356.919Z" fill="#9B4DFF" stroke="#3E001A" stroke-width="7.97665" mask="url(#path-51-inside-11_3795_53607)"/>
<path d="M425.003 68.9346C425.003 74.8928 429.759 79.6748 435.566 79.6748C441.372 79.6748 446.128 74.8928 446.128 68.9346C446.128 62.9764 441.372 58.1944 435.566 58.1944C429.759 58.1944 425.003 62.9764 425.003 68.9346Z" fill="#9B4DFF" stroke="#3E001A" stroke-width="3.98833"/>
<mask id="path-53-inside-12_3795_53607" fill="white">
<path d="M415.216 99.2345C415.216 93.8773 417.314 88.7395 421.049 84.9514C424.784 81.1633 429.85 79.0352 435.133 79.0352C440.415 79.0352 445.481 81.1633 449.216 84.9514C452.951 88.7395 455.05 93.8773 455.05 99.2345L435.133 99.2345H415.216Z"/>
</mask>
<path d="M415.216 99.2345C415.216 93.8773 417.314 88.7395 421.049 84.9514C424.784 81.1633 429.85 79.0352 435.133 79.0352C440.415 79.0352 445.481 81.1633 449.216 84.9514C452.951 88.7395 455.05 93.8773 455.05 99.2345L435.133 99.2345H415.216Z" fill="#9B4DFF" stroke="#3E001A" stroke-width="7.97665" mask="url(#path-53-inside-12_3795_53607)"/>
<path d="M307.369 68.9346C307.369 74.8928 312.124 79.6748 317.931 79.6748C323.738 79.6748 328.493 74.8928 328.493 68.9346C328.493 62.9764 323.738 58.1944 317.931 58.1944C312.124 58.1944 307.369 62.9764 307.369 68.9346Z" fill="#B882FF" stroke="#3E001A" stroke-width="3.98833"/>
<mask id="path-55-inside-13_3795_53607" fill="white">
<path d="M297.581 99.2345C297.581 93.8773 299.68 88.7395 303.415 84.9514C307.15 81.1633 312.216 79.0352 317.498 79.0352C322.78 79.0352 327.846 81.1633 331.582 84.9514C335.317 88.7395 337.415 93.8773 337.415 99.2345L317.498 99.2345H297.581Z"/>
</mask>
<path d="M297.581 99.2345C297.581 93.8773 299.68 88.7395 303.415 84.9514C307.15 81.1633 312.216 79.0352 317.498 79.0352C322.78 79.0352 327.846 81.1633 331.582 84.9514C335.317 88.7395 337.415 93.8773 337.415 99.2345L317.498 99.2345H297.581Z" fill="#B882FF" stroke="#3E001A" stroke-width="7.97665" mask="url(#path-55-inside-13_3795_53607)"/>
<path d="M366.173 18.3828C366.173 24.3411 370.929 29.1231 376.736 29.1231C382.542 29.1231 387.298 24.3411 387.298 18.3828C387.298 12.4246 382.542 7.6426 376.736 7.6426C370.929 7.6426 366.173 12.4246 366.173 18.3828Z" fill="#B882FF" stroke="#3E001A" stroke-width="3.98833"/>
<mask id="path-57-inside-14_3795_53607" fill="white">
<path d="M356.386 48.6828C356.386 43.3256 358.484 38.1878 362.219 34.3997C365.955 30.6115 371.02 28.4834 376.303 28.4834C381.585 28.4834 386.651 30.6115 390.386 34.3997C394.121 38.1878 396.22 43.3256 396.22 48.6828L376.303 48.6828H356.386Z"/>
</mask>
<path d="M356.386 48.6828C356.386 43.3256 358.484 38.1878 362.219 34.3997C365.955 30.6115 371.02 28.4834 376.303 28.4834C381.585 28.4834 386.651 30.6115 390.386 34.3997C394.121 38.1878 396.22 43.3256 396.22 48.6828L376.303 48.6828H356.386Z" fill="#B882FF" stroke="#3E001A" stroke-width="7.97665" mask="url(#path-57-inside-14_3795_53607)"/>
<path d="M307.369 169.857C307.369 175.816 312.124 180.598 317.931 180.598C323.738 180.598 328.494 175.816 328.494 169.857C328.494 163.899 323.738 159.117 317.931 159.117C312.124 159.117 307.369 163.899 307.369 169.857Z" fill="#00BA61" stroke="#3E001A" stroke-width="3.98833"/>
<mask id="path-59-inside-15_3795_53607" fill="white">
<path d="M297.581 200.156C297.581 194.799 299.68 189.661 303.415 185.873C307.15 182.085 312.216 179.957 317.498 179.957C322.78 179.957 327.846 182.085 331.582 185.873C335.317 189.661 337.415 194.799 337.415 200.156L317.498 200.156H297.581Z"/>
</mask>
<path d="M297.581 200.156C297.581 194.799 299.68 189.661 303.415 185.873C307.15 182.085 312.216 179.957 317.498 179.957C322.78 179.957 327.846 182.085 331.582 185.873C335.317 189.661 337.415 194.799 337.415 200.156L317.498 200.156H297.581Z" fill="#00BA61" stroke="#3E001A" stroke-width="7.97665" mask="url(#path-59-inside-15_3795_53607)"/>
</g>
<path d="M212.49 102.928L201.149 71.7393L232.81 83.0806L219.106 89.6964L212.49 102.928Z" fill="#FF813A"/>
<path d="M235.528 81.5996L200.895 68.9978C200.614 68.8963 200.309 68.877 200.018 68.9421C199.726 69.0073 199.459 69.1542 199.247 69.3657C199.036 69.5772 198.889 69.8445 198.824 70.1364C198.759 70.4283 198.778 70.7327 198.88 71.0141L211.474 105.669C211.584 105.974 211.785 106.237 212.049 106.423C212.314 106.609 212.63 106.709 212.953 106.709C213.269 106.709 213.577 106.615 213.838 106.438C214.099 106.261 214.301 106.01 214.417 105.716L220.462 90.5942L235.575 84.5453C235.874 84.4319 236.131 84.2303 236.312 83.9673C236.494 83.7042 236.591 83.3921 236.591 83.0725C236.591 82.7528 236.494 82.4407 236.312 82.1777C236.131 81.9146 235.874 81.713 235.575 81.5996H235.528ZM218.668 87.9005L218.038 88.1526L217.786 88.7827L212.953 100.723L202.989 73.1091L230.585 83.0803L218.668 87.9005Z" fill="#3E001A"/>
</svg>
