<svg width="462" height="250" viewBox="0 0 462 250" fill="none" xmlns="http://www.w3.org/2000/svg">
<mask id="mask0_2847_12307" style="mask-type:alpha" maskUnits="userSpaceOnUse" x="0" y="0" width="462" height="250">
<rect x="0.3125" y="0.161011" width="461" height="249" fill="#0057FF"/>
</mask>
<g mask="url(#mask0_2847_12307)">
<rect x="0.3125" y="0.161011" width="461" height="249" fill="#0057FF"/>
<mask id="mask1_2847_12307" style="mask-type:alpha" maskUnits="userSpaceOnUse" x="46" y="116" width="369" height="369">
<circle cx="230.812" cy="300.189" r="182.602" fill="#0036C2" stroke="white" stroke-width="3"/>
</mask>
<g mask="url(#mask1_2847_12307)">
<circle cx="230.812" cy="300.189" r="182.602" stroke="white" stroke-width="3"/>
<circle cx="230.812" cy="-8.15112" r="182.602" stroke="white" stroke-width="3"/>
<path d="M435.344 304.05C435.344 405.047 361.45 486.652 270.611 486.652C179.772 486.652 105.878 405.047 105.878 304.05C105.878 203.054 179.772 121.448 270.611 121.448C361.45 121.448 435.344 203.054 435.344 304.05Z" stroke="white" stroke-width="3"/>
<path d="M358.417 304.05C358.417 405.15 289.428 486.652 204.841 486.652C120.254 486.652 51.2651 405.15 51.2651 304.05C51.2651 202.951 120.254 121.448 204.841 121.448C289.428 121.448 358.417 202.951 358.417 304.05Z" stroke="white" stroke-width="3"/>
<path d="M283.8 308.236C283.8 358.977 278.041 404.861 268.761 438.011C264.118 454.597 258.618 467.91 252.574 477.042C246.491 486.233 240.105 490.838 233.765 490.838C227.425 490.838 221.039 486.233 214.956 477.042C208.913 467.91 203.412 454.597 198.769 438.011C189.489 404.861 183.73 358.977 183.73 308.236C183.73 257.525 190.657 214.371 200.519 182.579C205.451 166.68 211.106 153.659 216.971 143.966C222.645 134.588 228.416 128.492 233.774 125.793C239.286 128.491 245.136 134.589 250.841 143.969C256.735 153.659 262.369 166.677 267.259 182.576C277.038 214.367 283.8 257.521 283.8 308.236Z" stroke="white" stroke-width="3"/>
<path d="M452.912 27.7543C452.912 128.323 352.14 210.356 227.137 210.356C102.135 210.356 1.36279 128.323 1.36279 27.7543C1.36279 -72.8143 102.135 -154.848 227.137 -154.848C352.14 -154.848 452.912 -72.8143 452.912 27.7543Z" stroke="white" stroke-width="3"/>
<path d="M481.58 71.4018C481.58 121.635 453.276 167.25 407.24 200.364C361.206 233.477 297.535 254.004 227.137 254.004C156.74 254.004 93.0685 233.477 47.0345 200.364C0.998255 167.25 -27.3052 121.635 -27.3052 71.4018C-27.3052 21.1689 0.998255 -24.4459 47.0345 -57.5603C93.0685 -90.673 156.74 -111.2 227.137 -111.2C297.535 -111.2 361.206 -90.673 407.24 -57.5603C453.276 -24.4459 481.58 21.1689 481.58 71.4018Z" stroke="white" stroke-width="3"/>
<path d="M502.162 150.524C502.162 200.687 470.895 246.301 419.927 279.446C368.973 312.582 298.491 333.126 220.563 333.126C142.635 333.126 72.1533 312.582 21.1994 279.446C-29.7686 246.301 -61.0361 200.687 -61.0361 150.524C-61.0361 100.361 -29.7686 54.7465 21.1994 21.6015C72.1533 -11.5343 142.635 -32.0782 220.563 -32.0782C298.491 -32.0782 368.973 -11.5343 419.927 21.6015C470.895 54.7465 502.162 100.361 502.162 150.524Z" stroke="white" stroke-width="3"/>
</g>
<mask id="mask2_2847_12307" style="mask-type:alpha" maskUnits="userSpaceOnUse" x="71" y="35" width="64" height="64">
<rect x="-1.5" y="1.5" width="60.2626" height="60.2595" rx="30.1297" transform="matrix(-1 0 0 1 131.315 35.4015)" fill="#FFCCB6" stroke="#3E001A" stroke-width="3"/>
</mask>
<g mask="url(#mask2_2847_12307)">
<rect x="-1.5" y="1.5" width="60.2626" height="60.2595" rx="30.1297" transform="matrix(-1 0 0 1 131.315 35.4015)" fill="#FFCCB6" stroke="#3E001A" stroke-width="3"/>
<path d="M91.2491 64.8778C91.2491 71.5731 96.5954 76.9646 103.146 76.9646C109.697 76.9646 115.043 71.5731 115.043 64.8778C115.043 58.1824 109.697 52.791 103.146 52.791C96.5954 52.791 91.2491 58.1824 91.2491 64.8778Z" fill="#00BA61" stroke="#3E001A" stroke-width="3"/>
<mask id="path-15-inside-1_2847_12307" fill="white">
<path d="M78.8469 100.6C78.8469 94.1885 81.3583 88.0395 85.8285 83.5059C90.2987 78.9722 96.3617 76.4252 102.684 76.4252C109.005 76.4252 115.068 78.9722 119.539 83.5059C124.009 88.0395 126.52 94.1885 126.52 100.6L102.684 100.6H78.8469Z"/>
</mask>
<path d="M78.8469 100.6C78.8469 94.1885 81.3583 88.0395 85.8285 83.5059C90.2987 78.9722 96.3617 76.4252 102.684 76.4252C109.005 76.4252 115.068 78.9722 119.539 83.5059C124.009 88.0395 126.52 94.1885 126.52 100.6L102.684 100.6H78.8469Z" fill="#00BA61" stroke="#3E001A" stroke-width="6" mask="url(#path-15-inside-1_2847_12307)"/>
</g>
<rect x="-1.5" y="1.5" width="60.2626" height="60.2595" rx="30.1297" transform="matrix(-1 0 0 1 131.315 35.4015)" stroke="#3E001A" stroke-width="3"/>
<path d="M312.766 84.103V79.8152H308.431V75.0034H313.243V79.3388H325.725V71.1444H312.766V66.4278H325.725V58.2811H313.243V62.5689H308.431V57.8047H312.766V53.4693H326.201V57.8047H330.584V66.8566H326.201V70.668H330.584V79.8152H326.201V84.103H312.766ZM340.681 84.103V79.8152H336.346V57.8047H340.681V53.4693H354.116V57.8047H358.499V79.8152H354.116V84.103H340.681ZM341.158 79.3388H353.64V58.2811H341.158V79.3388ZM373.218 79.3864V71.2873H364.594V66.5231H373.218V57.3759H378.077V66.5231H386.748V71.2873H378.077V79.3864H373.218Z" fill="white"/>
<mask id="mask3_2847_12307" style="mask-type:alpha" maskUnits="userSpaceOnUse" x="125" y="35" width="64" height="64">
<rect x="-1.5" y="1.5" width="60.2626" height="60.2595" rx="30.1297" transform="matrix(-1 0 0 1 185.578 35.4015)" fill="#FFCCB6" stroke="#3E001A" stroke-width="3"/>
</mask>
<g mask="url(#mask3_2847_12307)">
<rect x="-1.5" y="1.5" width="60.2626" height="60.2595" rx="30.1297" transform="matrix(-1 0 0 1 185.578 35.4015)" fill="#9B4DFF" stroke="#3E001A" stroke-width="3"/>
<path d="M145.512 64.8778C145.512 71.5731 150.858 76.9646 157.409 76.9646C163.959 76.9646 169.305 71.5731 169.305 64.8778C169.305 58.1824 163.959 52.791 157.409 52.791C150.858 52.791 145.512 58.1824 145.512 64.8778Z" fill="#FFD056" stroke="#3E001A" stroke-width="3"/>
<mask id="path-21-inside-2_2847_12307" fill="white">
<path d="M133.11 100.6C133.11 94.1885 135.621 88.0395 140.091 83.5059C144.561 78.9722 150.624 76.4252 156.946 76.4252C163.268 76.4252 169.331 78.9722 173.801 83.5059C178.272 88.0395 180.783 94.1885 180.783 100.6L156.946 100.6H133.11Z"/>
</mask>
<path d="M133.11 100.6C133.11 94.1885 135.621 88.0395 140.091 83.5059C144.561 78.9722 150.624 76.4252 156.946 76.4252C163.268 76.4252 169.331 78.9722 173.801 83.5059C178.272 88.0395 180.783 94.1885 180.783 100.6L156.946 100.6H133.11Z" fill="#FFD056" stroke="#3E001A" stroke-width="6" mask="url(#path-21-inside-2_2847_12307)"/>
</g>
<rect x="-1.5" y="1.5" width="60.2626" height="60.2595" rx="30.1297" transform="matrix(-1 0 0 1 185.578 35.4015)" stroke="#3E001A" stroke-width="3"/>
<mask id="mask4_2847_12307" style="mask-type:alpha" maskUnits="userSpaceOnUse" x="179" y="35" width="64" height="64">
<rect x="-1.5" y="1.5" width="60.2626" height="60.2595" rx="30.1297" transform="matrix(-1 0 0 1 239.841 35.4015)" fill="#FFCCB6" stroke="#3E001A" stroke-width="3"/>
</mask>
<g mask="url(#mask4_2847_12307)">
<rect x="-1.5" y="1.5" width="60.2626" height="60.2595" rx="30.1297" transform="matrix(-1 0 0 1 239.841 35.4015)" fill="#00BA61" stroke="#3E001A" stroke-width="3"/>
<path d="M199.565 64.5022C199.565 71.3193 205.008 76.8094 211.679 76.8094C218.349 76.8094 223.793 71.3193 223.793 64.5022C223.793 57.6851 218.349 52.195 211.679 52.195C205.008 52.195 199.565 57.6851 199.565 64.5022Z" fill="#B882FF" stroke="#3E001A" stroke-width="3"/>
<mask id="path-26-inside-3_2847_12307" fill="white">
<path d="M186.986 100.804C186.986 94.2883 189.538 88.0396 194.081 83.4324C198.623 78.8252 204.785 76.2369 211.209 76.2369C217.633 76.2369 223.795 78.8252 228.338 83.4324C232.88 88.0396 235.432 94.2883 235.432 100.804L211.209 100.804H186.986Z"/>
</mask>
<path d="M186.986 100.804C186.986 94.2883 189.538 88.0396 194.081 83.4324C198.623 78.8252 204.785 76.2369 211.209 76.2369C217.633 76.2369 223.795 78.8252 228.338 83.4324C232.88 88.0396 235.432 94.2883 235.432 100.804L211.209 100.804H186.986Z" fill="#B882FF" stroke="#3E001A" stroke-width="6" mask="url(#path-26-inside-3_2847_12307)"/>
</g>
<rect x="-1.5" y="1.5" width="60.2626" height="60.2595" rx="30.1297" transform="matrix(-1 0 0 1 239.841 35.4015)" stroke="#3E001A" stroke-width="3"/>
<mask id="mask5_2847_12307" style="mask-type:alpha" maskUnits="userSpaceOnUse" x="233" y="35" width="65" height="64">
<rect x="-1.5" y="1.5" width="60.2626" height="60.2595" rx="30.1297" transform="matrix(-1 0 0 1 294.103 35.4015)" fill="#FFCCB6" stroke="#3E001A" stroke-width="3"/>
</mask>
<g mask="url(#mask5_2847_12307)">
<rect x="-1.5" y="1.5" width="60.2626" height="60.2595" rx="30.1297" transform="matrix(-1 0 0 1 294.103 35.4015)" fill="#FFD056" stroke="#3E001A" stroke-width="3"/>
<path d="M254.352 65.4412C254.352 71.954 259.552 77.1974 265.923 77.1974C272.293 77.1974 277.493 71.954 277.493 65.4412C277.493 58.9284 272.293 53.6849 265.923 53.6849C259.552 53.6849 254.352 58.9284 254.352 65.4412Z" fill="#FF813A" stroke="#3E001A" stroke-width="3"/>
<mask id="path-31-inside-4_2847_12307" fill="white">
<path d="M242.215 100.294C242.215 94.0387 244.665 88.0393 249.027 83.616C253.388 79.1927 259.304 76.7076 265.472 76.7076C271.64 76.7076 277.555 79.1927 281.917 83.616C286.278 88.0393 288.729 94.0387 288.729 100.294L265.472 100.294H242.215Z"/>
</mask>
<path d="M242.215 100.294C242.215 94.0387 244.665 88.0393 249.027 83.616C253.388 79.1927 259.304 76.7076 265.472 76.7076C271.64 76.7076 277.555 79.1927 281.917 83.616C286.278 88.0393 288.729 94.0387 288.729 100.294L265.472 100.294H242.215Z" fill="#FF813A" stroke="#3E001A" stroke-width="6" mask="url(#path-31-inside-4_2847_12307)"/>
</g>
<rect x="-1.5" y="1.5" width="60.2626" height="60.2595" rx="30.1297" transform="matrix(-1 0 0 1 294.103 35.4015)" stroke="#3E001A" stroke-width="3"/>
</g>
<mask id="path-33-inside-5_2847_12307" fill="white">
<path fill-rule="evenodd" clip-rule="evenodd" d="M306.895 164.299H75.7939V218.051H216.816C219.986 224.263 225.139 230.737 230.813 237.289C231.712 236.122 232.593 234.989 233.449 233.885C238.076 227.929 242.021 222.85 244.644 218.051H306.895V164.299Z"/>
</mask>
<path fill-rule="evenodd" clip-rule="evenodd" d="M306.895 164.299H75.7939V218.051H216.816C219.986 224.263 225.139 230.737 230.813 237.289C231.712 236.122 232.593 234.989 233.449 233.885C238.076 227.929 242.021 222.85 244.644 218.051H306.895V164.299Z" fill="#00BA61"/>
<path d="M75.7939 164.299V161.299H72.7939V164.299H75.7939ZM306.895 164.299H309.895V161.299H306.895V164.299ZM75.7939 218.051H72.7939V221.051H75.7939V218.051ZM216.816 218.051L219.489 216.688L218.654 215.051H216.816V218.051ZM230.813 237.289L228.545 239.253L230.948 242.028L233.189 239.121L230.813 237.289ZM233.449 233.885L231.08 232.045V232.045L233.449 233.885ZM244.644 218.051V215.051H242.865L242.012 216.612L244.644 218.051ZM306.895 218.051V221.051H309.895V218.051H306.895ZM75.7939 167.299H306.895V161.299H75.7939V167.299ZM78.7939 218.051V164.299H72.7939V218.051H78.7939ZM216.816 215.051H75.7939V221.051H216.816V215.051ZM233.08 235.325C227.416 228.784 222.479 222.547 219.489 216.688L214.144 219.415C217.494 225.979 222.861 232.69 228.545 239.253L233.08 235.325ZM231.08 232.045C230.224 233.148 229.34 234.285 228.436 235.458L233.189 239.121C234.084 237.958 234.961 236.829 235.819 235.726L231.08 232.045ZM242.012 216.612C239.529 221.154 235.755 226.027 231.08 232.045L235.819 235.726C240.396 229.832 244.513 224.545 247.276 219.49L242.012 216.612ZM306.895 215.051H244.644V221.051H306.895V215.051ZM303.895 164.299V218.051H309.895V164.299H303.895Z" fill="#3E001A" mask="url(#path-33-inside-5_2847_12307)"/>
<path d="M86.9448 202.055V182.73H90.1306V179.544H93.6315V182.73H96.8523V189.067H99.653V182.73H102.874V179.544H106.41V182.73H109.56V202.055H106.06V183.08H103.224V189.382H100.003V198.904H96.5022V189.382H93.2814V183.08H90.4807V202.055H86.9448ZM116.968 202.055V198.904H113.783V182.73H116.968V179.544H126.841V182.73H130.062V186.231H126.491V183.08H117.318V189.067H123.69V192.533H117.318V198.554H126.491V195.368H130.062V198.904H126.841V202.055H116.968ZM134.296 202.055V179.544H137.831V182.73H140.982V185.881H144.203V195.368H147.004V179.544H150.575V202.055H147.004V198.904H143.853V195.718H140.632V186.231H137.831V202.055H134.296ZM154.809 202.055V185.881H157.994V182.73H161.145V179.544H164.716V182.73H167.867V185.881H171.088V202.055H167.517V195.718H158.344V202.055H154.809ZM158.344 192.183H167.517V186.231H164.366V183.08H161.495V186.231H158.344V192.183ZM182.33 202.055V182.73H185.516V179.544H195.388V182.73H198.609V192.533H195.388V195.718H193.848V198.554H196.999V202.055H193.498V198.904H190.277V195.718H185.866V202.055H182.33ZM185.866 192.183H195.038V183.08H185.866V192.183ZM206.029 202.055V198.904H202.843V182.73H206.029V179.544H215.901V182.73H219.122V186.231H215.551V183.08H206.379V189.067H212.751V192.533H206.379V198.554H215.551V195.368H219.122V198.904H215.901V202.055H206.029ZM226.542 202.055V198.904H223.356V182.73H226.542V179.544H236.414V182.73H239.635V189.382H236.064V183.08H226.892V198.554H236.064V195.718H232.914V192.533H229.693V189.067H233.264V192.183H239.635V198.904H236.414V202.055H226.542ZM243.869 202.055V198.554H247.055V183.08H243.869V179.544H253.777V183.08H250.556V198.554H253.777V202.055H243.869ZM261.209 202.055V198.904H258.023V182.73H261.209V179.544H271.081V182.73H274.302V198.904H271.081V202.055H261.209ZM261.559 198.554H270.731V183.08H261.559V198.554ZM278.536 202.055V179.544H282.072V182.73H285.223V185.881H288.444V195.368H291.244V179.544H294.815V202.055H291.244V198.904H288.094V195.718H284.873V186.231H282.072V202.055H278.536Z" fill="white"/>
</svg>
