<svg width="462" height="250" viewBox="0 0 462 250" fill="none" xmlns="http://www.w3.org/2000/svg">
<mask id="mask0_3795_53235" style="mask-type:alpha" maskUnits="userSpaceOnUse" x="0" y="0" width="462" height="250">
<mask id="mask1_3795_53235" style="mask-type:alpha" maskUnits="userSpaceOnUse" x="0" y="0" width="462" height="250">
<rect x="0.811768" y="0.0629883" width="461" height="249" fill="#9B4DFF"/>
</mask>
<g mask="url(#mask1_3795_53235)">
<rect x="0.811768" y="0.0629883" width="461" height="249" fill="#9B4DFF"/>
<path d="M428.454 182.47H374.293V236.631H428.454V182.47Z" fill="#9B4DFF"/>
<rect width="7.26038" height="7.26038" transform="matrix(-1 0 0 1 90.0363 64.3418)" fill="white"/>
<rect width="7.26038" height="7.26038" transform="matrix(-1 0 0 1 104.473 64.3418)" fill="white"/>
<rect width="7.26038" height="7.26038" transform="matrix(-1 0 0 1 97.2587 64.3418)" fill="white"/>
<rect width="7.26038" height="7.26038" transform="matrix(-1 0 0 1 111.706 67.5283)" fill="white"/>
<rect width="7.26038" height="7.26038" transform="matrix(-1 0 0 1 118.63 74.7144)" fill="white"/>
<rect width="7.26038" height="7.26038" transform="matrix(-1 0 0 1 125.685 81.6387)" fill="white"/>
<rect width="7.26038" height="7.26038" transform="matrix(-1 0 0 1 132.811 81.627)" fill="white"/>
<rect width="7.26038" height="7.26038" transform="matrix(-1 0 0 1 140.03 85.2598)" fill="white"/>
<rect width="7.26038" height="7.26038" transform="matrix(-1 0 0 1 147.281 92.458)" fill="white"/>
<rect width="7.26038" height="7.26038" transform="matrix(-1 0 0 1 147.281 99.6812)" fill="white"/>
<rect width="7.26038" height="7.26038" transform="matrix(-1 0 0 1 140.182 106.919)" fill="white"/>
<rect width="7.26038" height="7.26038" transform="matrix(-1 0 0 1 82.8116 71.5874)" fill="white"/>
<rect width="7.26038" height="7.26038" transform="matrix(-1 0 0 1 75.5986 78.8315)" fill="white"/>
<rect width="7.26038" height="7.26038" transform="matrix(-1 0 0 1 68.4196 86.0215)" fill="white"/>
<rect width="7.26038" height="7.26038" transform="matrix(-1 0 0 1 61.1991 86.0439)" fill="white"/>
<rect width="7.26038" height="7.26038" transform="matrix(-1 0 0 1 54.2069 92.6914)" fill="white"/>
<rect width="7.26038" height="7.26038" transform="matrix(-1 0 0 1 54.1932 99.8726)" fill="white"/>
<rect width="7.26038" height="7.26038" transform="matrix(-1 0 0 1 61.1991 107.054)" fill="white"/>
<rect width="7.26038" height="7.26038" transform="matrix(-1 0 0 1 68.3801 110.314)" fill="white"/>
<rect width="7.26038" height="7.26038" transform="matrix(-1 0 0 1 75.5612 114.06)" fill="white"/>
<rect width="7.26038" height="7.26038" transform="matrix(-1 0 0 1 82.7631 110.374)" fill="white"/>
<rect width="7.26038" height="7.26038" transform="matrix(-1 0 0 1 89.9231 107.034)" fill="white"/>
<rect width="7.26038" height="7.26038" transform="matrix(-1 0 0 1 97.125 114.075)" fill="white"/>
<rect width="7.26038" height="7.26038" transform="matrix(-1 0 0 1 104.283 117.361)" fill="white"/>
<rect width="7.26038" height="7.26038" transform="matrix(-1 0 0 1 111.487 120.764)" fill="white"/>
<rect width="7.26038" height="7.26038" transform="matrix(-1 0 0 1 118.645 120.764)" fill="white"/>
<rect width="7.26038" height="7.26038" transform="matrix(-1 0 0 1 125.849 117.361)" fill="white"/>
<rect width="7.26038" height="7.26038" transform="matrix(-1 0 0 1 133.004 114.075)" fill="white"/>
<rect width="7.26038" height="7.26038" transform="matrix(-1 0 0 1 384.823 124.563)" fill="white"/>
<rect width="7.26038" height="7.26038" transform="matrix(-1 0 0 1 399.26 124.563)" fill="white"/>
<rect width="7.26038" height="7.26038" transform="matrix(-1 0 0 1 392.046 124.563)" fill="white"/>
<rect width="7.26038" height="7.26038" transform="matrix(-1 0 0 1 406.492 127.75)" fill="white"/>
<rect width="7.26038" height="7.26038" transform="matrix(-1 0 0 1 413.417 134.936)" fill="white"/>
<rect width="7.26038" height="7.26038" transform="matrix(-1 0 0 1 420.472 141.86)" fill="white"/>
<rect width="7.26038" height="7.26038" transform="matrix(-1 0 0 1 427.598 141.848)" fill="white"/>
<rect width="7.26038" height="7.26038" transform="matrix(-1 0 0 1 434.817 145.481)" fill="white"/>
<rect width="7.26038" height="7.26038" transform="matrix(-1 0 0 1 442.068 152.679)" fill="white"/>
<rect width="7.26038" height="7.26038" transform="matrix(-1 0 0 1 442.068 159.902)" fill="white"/>
<rect width="7.26038" height="7.26038" transform="matrix(-1 0 0 1 434.969 167.14)" fill="white"/>
<rect width="7.26038" height="7.26038" transform="matrix(-1 0 0 1 377.599 131.809)" fill="white"/>
<rect width="7.26038" height="7.26038" transform="matrix(-1 0 0 1 370.385 139.053)" fill="white"/>
<rect width="7.26038" height="7.26038" transform="matrix(-1 0 0 1 363.206 146.243)" fill="white"/>
<rect width="7.26038" height="7.26038" transform="matrix(-1 0 0 1 355.986 146.265)" fill="white"/>
<rect width="7.26038" height="7.26038" transform="matrix(-1 0 0 1 348.994 152.913)" fill="white"/>
<rect width="7.26038" height="7.26038" transform="matrix(-1 0 0 1 348.98 160.094)" fill="white"/>
<rect width="7.26038" height="7.26038" transform="matrix(-1 0 0 1 355.986 167.275)" fill="white"/>
<rect width="7.26038" height="7.26038" transform="matrix(-1 0 0 1 363.167 170.536)" fill="white"/>
<rect width="7.26038" height="7.26038" transform="matrix(-1 0 0 1 370.348 174.281)" fill="white"/>
<rect width="7.26038" height="7.26038" transform="matrix(-1 0 0 1 377.55 170.595)" fill="white"/>
<rect width="7.26038" height="7.26038" transform="matrix(-1 0 0 1 384.71 167.255)" fill="white"/>
<rect width="7.26038" height="7.26038" transform="matrix(-1 0 0 1 391.912 174.296)" fill="white"/>
<rect width="7.26038" height="7.26038" transform="matrix(-1 0 0 1 399.07 177.582)" fill="white"/>
<rect width="7.26038" height="7.26038" transform="matrix(-1 0 0 1 406.274 180.985)" fill="white"/>
<rect width="7.26038" height="7.26038" transform="matrix(-1 0 0 1 413.432 180.985)" fill="white"/>
<rect width="7.26038" height="7.26038" transform="matrix(-1 0 0 1 420.636 177.582)" fill="white"/>
<rect width="7.26038" height="7.26038" transform="matrix(-1 0 0 1 427.791 174.296)" fill="white"/>
<rect width="7.26038" height="7.26038" transform="matrix(-1 0 0 1 274.415 32.501)" fill="white"/>
<rect width="7.26038" height="7.26038" transform="matrix(-1 0 0 1 288.852 32.501)" fill="white"/>
<rect width="7.26038" height="7.26038" transform="matrix(-1 0 0 1 281.638 32.501)" fill="white"/>
<rect width="7.26038" height="7.26038" transform="matrix(-1 0 0 1 296.084 35.6875)" fill="white"/>
<rect width="7.26038" height="7.26038" transform="matrix(-1 0 0 1 303.009 42.8735)" fill="white"/>
<rect width="7.26038" height="7.26038" transform="matrix(-1 0 0 1 310.064 49.7979)" fill="white"/>
<rect width="7.26038" height="7.26038" transform="matrix(-1 0 0 1 317.19 49.7861)" fill="white"/>
<rect width="7.26038" height="7.26038" transform="matrix(-1 0 0 1 324.409 53.4189)" fill="white"/>
<rect width="7.26038" height="7.26038" transform="matrix(-1 0 0 1 331.66 60.6172)" fill="white"/>
<rect width="7.26038" height="7.26038" transform="matrix(-1 0 0 1 331.66 67.8403)" fill="white"/>
<rect width="7.26038" height="7.26038" transform="matrix(-1 0 0 1 324.561 75.0781)" fill="white"/>
<rect width="7.26038" height="7.26038" transform="matrix(-1 0 0 1 267.191 39.7466)" fill="white"/>
<rect width="7.26038" height="7.26038" transform="matrix(-1 0 0 1 259.978 46.9907)" fill="white"/>
<rect width="7.26038" height="7.26038" transform="matrix(-1 0 0 1 252.798 54.1807)" fill="white"/>
<rect width="7.26038" height="7.26038" transform="matrix(-1 0 0 1 245.578 54.2031)" fill="white"/>
<rect width="7.26038" height="7.26038" transform="matrix(-1 0 0 1 238.586 60.8506)" fill="white"/>
<rect width="7.26038" height="7.26038" transform="matrix(-1 0 0 1 238.572 68.0317)" fill="white"/>
<rect width="7.26038" height="7.26038" transform="matrix(-1 0 0 1 245.578 75.2129)" fill="white"/>
<rect width="7.26038" height="7.26038" transform="matrix(-1 0 0 1 252.759 78.4736)" fill="white"/>
<rect width="7.26038" height="7.26038" transform="matrix(-1 0 0 1 259.94 82.2188)" fill="white"/>
<rect width="7.26038" height="7.26038" transform="matrix(-1 0 0 1 267.142 78.5327)" fill="white"/>
<rect width="7.26038" height="7.26038" transform="matrix(-1 0 0 1 274.302 75.1934)" fill="white"/>
<rect width="7.26038" height="7.26038" transform="matrix(-1 0 0 1 281.504 82.2344)" fill="white"/>
<rect width="7.26038" height="7.26038" transform="matrix(-1 0 0 1 288.662 85.52)" fill="white"/>
<rect width="7.26038" height="7.26038" transform="matrix(-1 0 0 1 295.866 88.9229)" fill="white"/>
<rect width="7.26038" height="7.26038" transform="matrix(-1 0 0 1 303.024 88.9229)" fill="white"/>
<rect width="7.26038" height="7.26038" transform="matrix(-1 0 0 1 310.228 85.52)" fill="white"/>
<rect width="7.26038" height="7.26038" transform="matrix(-1 0 0 1 317.383 82.2344)" fill="white"/>
</g>
</mask>
<g mask="url(#mask0_3795_53235)">
<mask id="mask2_3795_53235" style="mask-type:alpha" maskUnits="userSpaceOnUse" x="0" y="0" width="462" height="250">
<rect x="0.811768" y="0.0629883" width="461" height="249" fill="#9B4DFF"/>
</mask>
<g mask="url(#mask2_3795_53235)">
<rect x="0.811768" y="0.0629883" width="461" height="249" fill="#9B4DFF"/>
<path d="M428.454 182.47H374.293V236.631H428.454V182.47Z" fill="#9B4DFF"/>
<rect width="7.26038" height="7.26038" transform="matrix(-1 0 0 1 127.46 143.881)" fill="white"/>
<rect width="7.26038" height="7.26038" transform="matrix(-1 0 0 1 141.897 143.881)" fill="white"/>
<rect width="7.26038" height="7.26038" transform="matrix(-1 0 0 1 134.682 143.881)" fill="white"/>
<rect width="7.26038" height="7.26038" transform="matrix(-1 0 0 1 149.129 147.067)" fill="white"/>
<rect width="7.26038" height="7.26038" transform="matrix(-1 0 0 1 156.054 154.253)" fill="white"/>
<rect width="7.26038" height="7.26038" transform="matrix(-1 0 0 1 163.109 161.178)" fill="white"/>
<rect width="7.26038" height="7.26038" transform="matrix(-1 0 0 1 170.235 161.166)" fill="white"/>
<rect width="7.26038" height="7.26038" transform="matrix(-1 0 0 1 177.454 164.799)" fill="white"/>
<rect width="7.26038" height="7.26038" transform="matrix(-1 0 0 1 184.705 171.997)" fill="white"/>
<rect width="7.26038" height="7.26038" transform="matrix(-1 0 0 1 184.705 179.22)" fill="white"/>
<rect width="7.26038" height="7.26038" transform="matrix(-1 0 0 1 177.606 186.458)" fill="white"/>
<rect width="7.26038" height="7.26038" transform="matrix(-1 0 0 1 120.235 151.126)" fill="white"/>
<rect width="7.26038" height="7.26038" transform="matrix(-1 0 0 1 113.022 158.371)" fill="white"/>
<rect width="7.26038" height="7.26038" transform="matrix(-1 0 0 1 105.843 165.561)" fill="white"/>
<rect width="7.26038" height="7.26038" transform="matrix(-1 0 0 1 98.6229 165.583)" fill="white"/>
<rect width="7.26038" height="7.26038" transform="matrix(-1 0 0 1 91.6307 172.23)" fill="white"/>
<rect width="7.26038" height="7.26038" transform="matrix(-1 0 0 1 91.6171 179.412)" fill="white"/>
<rect width="7.26038" height="7.26038" transform="matrix(-1 0 0 1 98.6229 186.593)" fill="white"/>
<rect width="7.26038" height="7.26038" transform="matrix(-1 0 0 1 105.804 189.854)" fill="white"/>
<rect width="7.26038" height="7.26038" transform="matrix(-1 0 0 1 112.985 193.599)" fill="white"/>
<rect width="7.26038" height="7.26038" transform="matrix(-1 0 0 1 120.187 189.913)" fill="white"/>
<rect width="7.26038" height="7.26038" transform="matrix(-1 0 0 1 127.347 186.573)" fill="white"/>
<rect width="7.26038" height="7.26038" transform="matrix(-1 0 0 1 134.549 193.614)" fill="white"/>
<rect width="7.26038" height="7.26038" transform="matrix(-1 0 0 1 141.707 196.9)" fill="white"/>
<rect width="7.26038" height="7.26038" transform="matrix(-1 0 0 1 148.911 200.303)" fill="white"/>
<rect width="7.26038" height="7.26038" transform="matrix(-1 0 0 1 156.069 200.303)" fill="white"/>
<rect width="7.26038" height="7.26038" transform="matrix(-1 0 0 1 163.273 196.9)" fill="white"/>
<rect width="7.26038" height="7.26038" transform="matrix(-1 0 0 1 170.428 193.614)" fill="white"/>
<rect width="7.26038" height="7.26038" transform="matrix(-1 0 0 1 19.8372 59.0068)" fill="white"/>
<rect width="7.26038" height="7.26038" transform="matrix(-1 0 0 1 34.2743 59.0068)" fill="white"/>
<rect width="7.26038" height="7.26038" transform="matrix(-1 0 0 1 27.0597 59.0068)" fill="white"/>
<rect width="7.26038" height="7.26038" transform="matrix(-1 0 0 1 41.5066 62.1934)" fill="white"/>
<rect width="7.26038" height="7.26038" transform="matrix(-1 0 0 1 48.431 69.3794)" fill="white"/>
<rect width="7.26038" height="7.26038" transform="matrix(-1 0 0 1 55.4863 76.3037)" fill="white"/>
<rect width="7.26038" height="7.26038" transform="matrix(-1 0 0 1 62.6123 76.292)" fill="white"/>
<rect width="7.26038" height="7.26038" transform="matrix(-1 0 0 1 69.8312 79.9248)" fill="white"/>
<rect width="7.26038" height="7.26038" transform="matrix(-1 0 0 1 77.0818 87.123)" fill="white"/>
<rect width="7.26038" height="7.26038" transform="matrix(-1 0 0 1 77.0818 94.3462)" fill="white"/>
<rect width="7.26038" height="7.26038" transform="matrix(-1 0 0 1 69.9832 101.584)" fill="white"/>
<rect width="7.26038" height="7.26038" transform="matrix(-1 0 0 1 12.6125 66.2524)" fill="white"/>
<rect width="7.26038" height="7.26038" transform="matrix(-1 0 0 1 5.39966 73.4966)" fill="white"/>
<rect width="7.26038" height="7.26038" transform="matrix(-1 0 0 1 5.3623 108.725)" fill="white"/>
<rect width="7.26038" height="7.26038" transform="matrix(-1 0 0 1 12.564 105.039)" fill="white"/>
<rect width="7.26038" height="7.26038" transform="matrix(-1 0 0 1 19.7241 101.699)" fill="white"/>
<rect width="7.26038" height="7.26038" transform="matrix(-1 0 0 1 26.926 108.74)" fill="white"/>
<rect width="7.26038" height="7.26038" transform="matrix(-1 0 0 1 34.0839 112.026)" fill="white"/>
<rect width="7.26038" height="7.26038" transform="matrix(-1 0 0 1 41.2878 115.429)" fill="white"/>
<rect width="7.26038" height="7.26038" transform="matrix(-1 0 0 1 48.4459 115.429)" fill="white"/>
<rect width="7.26038" height="7.26038" transform="matrix(-1 0 0 1 55.65 112.026)" fill="white"/>
<rect width="7.26038" height="7.26038" transform="matrix(-1 0 0 1 62.8054 108.74)" fill="white"/>
<rect width="7.26038" height="7.26038" transform="matrix(-1 0 0 1 419.632 56.3018)" fill="white"/>
<rect width="7.26038" height="7.26038" transform="matrix(-1 0 0 1 434.069 56.3018)" fill="white"/>
<rect width="7.26038" height="7.26038" transform="matrix(-1 0 0 1 426.855 56.3018)" fill="white"/>
<rect width="7.26038" height="7.26038" transform="matrix(-1 0 0 1 441.302 59.4883)" fill="white"/>
<rect width="7.26038" height="7.26038" transform="matrix(-1 0 0 1 448.226 66.6743)" fill="white"/>
<rect width="7.26038" height="7.26038" transform="matrix(-1 0 0 1 455.281 73.5986)" fill="white"/>
<rect width="7.26038" height="7.26038" transform="matrix(-1 0 0 1 462.407 73.5869)" fill="white"/>
<rect width="7.26038" height="7.26038" transform="matrix(-1 0 0 1 412.408 63.5474)" fill="white"/>
<rect width="7.26038" height="7.26038" transform="matrix(-1 0 0 1 405.195 70.7915)" fill="white"/>
<rect width="7.26038" height="7.26038" transform="matrix(-1 0 0 1 398.016 77.9814)" fill="white"/>
<rect width="7.26038" height="7.26038" transform="matrix(-1 0 0 1 390.795 78.0039)" fill="white"/>
<rect width="7.26038" height="7.26038" transform="matrix(-1 0 0 1 383.803 84.6514)" fill="white"/>
<rect width="7.26038" height="7.26038" transform="matrix(-1 0 0 1 383.789 91.8325)" fill="white"/>
<rect width="7.26038" height="7.26038" transform="matrix(-1 0 0 1 390.795 99.0137)" fill="white"/>
<rect width="7.26038" height="7.26038" transform="matrix(-1 0 0 1 397.976 102.274)" fill="white"/>
<rect width="7.26038" height="7.26038" transform="matrix(-1 0 0 1 405.157 106.02)" fill="white"/>
<rect width="7.26038" height="7.26038" transform="matrix(-1 0 0 1 412.359 102.333)" fill="white"/>
<rect width="7.26038" height="7.26038" transform="matrix(-1 0 0 1 419.519 98.9941)" fill="white"/>
<rect width="7.26038" height="7.26038" transform="matrix(-1 0 0 1 426.721 106.035)" fill="white"/>
<rect width="7.26038" height="7.26038" transform="matrix(-1 0 0 1 433.879 109.321)" fill="white"/>
<rect width="7.26038" height="7.26038" transform="matrix(-1 0 0 1 441.083 112.724)" fill="white"/>
<rect width="7.26038" height="7.26038" transform="matrix(-1 0 0 1 448.241 112.724)" fill="white"/>
<rect width="7.26038" height="7.26038" transform="matrix(-1 0 0 1 455.445 109.321)" fill="white"/>
<rect width="7.26038" height="7.26038" transform="matrix(-1 0 0 1 462.601 106.035)" fill="white"/>
<rect width="7.26038" height="7.26038" transform="matrix(-1 0 0 1 183.7 24.7139)" fill="white"/>
<rect width="7.26038" height="7.26038" transform="matrix(-1 0 0 1 198.137 24.7139)" fill="white"/>
<rect width="7.26038" height="7.26038" transform="matrix(-1 0 0 1 190.923 24.7139)" fill="white"/>
<rect width="7.26038" height="7.26038" transform="matrix(-1 0 0 1 205.37 27.9004)" fill="white"/>
<rect width="7.26038" height="7.26038" transform="matrix(-1 0 0 1 212.294 35.0864)" fill="white"/>
<rect width="7.26038" height="7.26038" transform="matrix(-1 0 0 1 219.349 42.0107)" fill="white"/>
<rect width="7.26038" height="7.26038" transform="matrix(-1 0 0 1 226.475 41.999)" fill="white"/>
<rect width="7.26038" height="7.26038" transform="matrix(-1 0 0 1 233.694 45.6318)" fill="white"/>
<rect width="7.26038" height="7.26038" transform="matrix(-1 0 0 1 240.945 52.8301)" fill="white"/>
<rect width="7.26038" height="7.26038" transform="matrix(-1 0 0 1 240.945 60.0532)" fill="white"/>
<rect width="7.26038" height="7.26038" transform="matrix(-1 0 0 1 233.846 67.291)" fill="white"/>
<rect width="7.26038" height="7.26038" transform="matrix(-1 0 0 1 176.476 31.9595)" fill="white"/>
<rect width="7.26038" height="7.26038" transform="matrix(-1 0 0 1 169.263 39.2036)" fill="white"/>
<rect width="7.26038" height="7.26038" transform="matrix(-1 0 0 1 162.084 46.3936)" fill="white"/>
<rect width="7.26038" height="7.26038" transform="matrix(-1 0 0 1 154.863 46.416)" fill="white"/>
<rect width="7.26038" height="7.26038" transform="matrix(-1 0 0 1 147.871 53.0635)" fill="white"/>
<rect width="7.26038" height="7.26038" transform="matrix(-1 0 0 1 147.857 60.2446)" fill="white"/>
<rect width="7.26038" height="7.26038" transform="matrix(-1 0 0 1 154.863 67.4258)" fill="white"/>
<rect width="7.26038" height="7.26038" transform="matrix(-1 0 0 1 162.044 70.6865)" fill="white"/>
<rect width="7.26038" height="7.26038" transform="matrix(-1 0 0 1 169.225 74.4316)" fill="white"/>
<rect width="7.26038" height="7.26038" transform="matrix(-1 0 0 1 176.427 70.7456)" fill="white"/>
<rect width="7.26038" height="7.26038" transform="matrix(-1 0 0 1 183.587 67.4062)" fill="white"/>
<rect width="7.26038" height="7.26038" transform="matrix(-1 0 0 1 190.789 74.4473)" fill="white"/>
<rect width="7.26038" height="7.26038" transform="matrix(-1 0 0 1 197.947 77.7329)" fill="white"/>
<rect width="7.26038" height="7.26038" transform="matrix(-1 0 0 1 205.151 81.1357)" fill="white"/>
<rect width="7.26038" height="7.26038" transform="matrix(-1 0 0 1 212.309 81.1357)" fill="white"/>
<rect width="7.26038" height="7.26038" transform="matrix(-1 0 0 1 219.513 77.7329)" fill="white"/>
<rect width="7.26038" height="7.26038" transform="matrix(-1 0 0 1 226.669 74.4473)" fill="white"/>
</g>
<path d="M308.239 117.024C213.389 99.864 38.928 241.583 -36.4465 314.588H541.696C503.398 255.883 403.088 134.184 308.239 117.024Z" fill="#B882FF" stroke="#3E001A" stroke-width="3"/>
<path d="M248.717 224.964V220.677H244.381V198.666H248.717V194.331H262.152V198.666H266.535V207.718H261.675V199.142H249.193V220.2H261.675V211.529H266.535V220.677H262.152V224.964H248.717ZM276.632 224.964V220.677H272.297V198.666H276.632V194.331H290.067V198.666H294.45V220.677H290.067V224.964H276.632ZM277.108 220.2H289.591V199.142H277.108V220.2ZM308.835 224.964V220.677H304.547V212.006H300.212V194.331H305.024V211.529H309.311V220.2H313.218V211.529H317.506V194.331H322.365V212.006H317.982V220.677H313.694V224.964H308.835ZM328.127 224.964V220.2H332.462V199.142H328.127V194.331H341.609V199.142H337.226V220.2H341.609V224.964H328.127ZM347.388 224.964V194.331H360.871V198.666H365.159V202.954H369.542V216.341H365.159V220.677H360.871V224.964H347.388ZM352.2 220.2H360.394V215.865H364.682V203.43H360.394V199.142H352.2V220.2ZM373.541 214.864V210.052H386.976V214.864H373.541ZM398.349 224.964V199.142H394.538V203.43H389.726V198.666H394.062V194.331H398.826V198.666H403.209V224.964H398.349ZM413.323 224.964V220.677H408.988V215.865H413.799V220.2H426.282V212.006H413.323V207.718H408.988V198.666H413.323V194.331H426.758V198.666H431.141V220.677H426.758V224.964H413.323ZM413.799 207.289H426.282V199.142H413.799V207.289Z" fill="white"/>
<rect x="-1.5" y="1.5" width="37" height="37" transform="matrix(-1 0 0 1 72.9819 157.582)" fill="#FFD056" stroke="#3E001A" stroke-width="3"/>
<rect x="-1.5" y="1.5" width="37" height="37" transform="matrix(-1 0 0 1 431.419 141.722)" fill="#FFD056" stroke="#3E001A" stroke-width="3"/>
<rect x="-1.5" y="1.5" width="37" height="37" transform="matrix(-1 0 0 1 110.082 194.354)" fill="#FF813A" stroke="#3E001A" stroke-width="3"/>
</g>
<circle cx="93.0818" cy="213.854" r="8.7251" fill="#FFCCB6"/>
<path d="M92.5818 211.354C93.4102 211.354 94.0818 210.683 94.0818 209.854C94.0818 209.026 93.4102 208.354 92.5818 208.354C91.7534 208.354 91.0818 209.026 91.0818 209.854C91.0818 210.683 91.7534 211.354 92.5818 211.354Z" fill="#3E001A"/>
<path d="M97.5818 215.354C98.4102 215.354 99.0818 214.683 99.0818 213.854C99.0818 213.026 98.4102 212.354 97.5818 212.354C96.7534 212.354 96.0818 213.026 96.0818 213.854C96.0818 214.683 96.7534 215.354 97.5818 215.354Z" fill="#3E001A"/>
<path d="M93.0818 215.354C93.6341 215.354 94.0818 214.907 94.0818 214.354C94.0818 213.802 93.6341 213.354 93.0818 213.354C92.5295 213.354 92.0818 213.802 92.0818 214.354C92.0818 214.907 92.5295 215.354 93.0818 215.354Z" fill="#3E001A"/>
<path d="M93.5818 220.354C94.4102 220.354 95.0818 219.683 95.0818 218.854C95.0818 218.026 94.4102 217.354 93.5818 217.354C92.7534 217.354 92.0818 218.026 92.0818 218.854C92.0818 219.683 92.7534 220.354 93.5818 220.354Z" fill="#3E001A"/>
<path d="M88.5818 216.354C89.4102 216.354 90.0818 215.683 90.0818 214.854C90.0818 214.026 89.4102 213.354 88.5818 213.354C87.7534 213.354 87.0818 214.026 87.0818 214.854C87.0818 215.683 87.7534 216.354 88.5818 216.354Z" fill="#3E001A"/>
<path d="M105.082 211.354V213.354H103.031C102.834 211.401 102.064 209.55 100.817 208.033L102.253 206.597L103.668 208.011L105.082 206.597L100.84 202.354L99.4256 203.769L100.84 205.183L99.4026 206.619C97.8863 205.372 96.035 204.602 94.0818 204.405V202.354H96.0818V200.354H90.0818V202.354H92.0818V204.405C90.1286 204.602 88.2773 205.372 86.761 206.619L85.324 205.183L86.738 203.769L85.324 202.354L81.0818 206.597L82.4959 208.011L83.9102 206.597L85.3469 208.033C84.0998 209.55 83.3294 211.401 83.1326 213.354H81.0818V211.354H79.0818V217.354H81.0818V215.354H83.1326C83.3294 217.308 84.0998 219.159 85.3469 220.676L83.9102 222.112L82.4959 220.698L81.0818 222.112L85.324 226.354L86.738 224.94L85.324 223.526L86.761 222.09C88.2773 223.337 90.1286 224.107 92.0818 224.304V226.354H90.0818V228.354H96.0818V226.354H94.0818V224.304C96.035 224.107 97.8863 223.337 99.4026 222.09L100.84 223.526L99.4256 224.94L100.84 226.354L105.082 222.112L103.668 220.698L102.253 222.112L100.817 220.676C102.064 219.159 102.834 217.308 103.031 215.354H105.082V217.354H107.082V211.354H105.082ZM93.0818 222.354C91.4995 222.354 89.9528 221.885 88.6372 221.006C87.3216 220.127 86.2963 218.878 85.6908 217.416C85.0852 215.954 84.9268 214.346 85.2355 212.794C85.5442 211.242 86.3061 209.816 87.4249 208.698C88.5438 207.579 89.9692 206.817 91.5211 206.508C93.0729 206.2 94.6814 206.358 96.1433 206.963C97.6051 207.569 98.8545 208.594 99.7335 209.91C100.613 211.226 101.082 212.772 101.082 214.354C101.079 216.475 100.236 218.509 98.736 220.009C97.2362 221.508 95.2028 222.352 93.0818 222.354Z" fill="#3E001A"/>
<rect x="-1.5" y="1.5" width="37" height="37" transform="matrix(-1 0 0 1 228.312 161.582)" fill="#FFA08B" stroke="#3E001A" stroke-width="3"/>
<circle cx="211.312" cy="181.082" r="8.7251" fill="#00BA61"/>
<path d="M210.812 178.582C211.64 178.582 212.312 177.91 212.312 177.082C212.312 176.254 211.64 175.582 210.812 175.582C209.983 175.582 209.312 176.254 209.312 177.082C209.312 177.91 209.983 178.582 210.812 178.582Z" fill="#3E001A"/>
<path d="M215.812 182.582C216.64 182.582 217.312 181.91 217.312 181.082C217.312 180.254 216.64 179.582 215.812 179.582C214.983 179.582 214.312 180.254 214.312 181.082C214.312 181.91 214.983 182.582 215.812 182.582Z" fill="#3E001A"/>
<path d="M211.312 182.582C211.864 182.582 212.312 182.134 212.312 181.582C212.312 181.03 211.864 180.582 211.312 180.582C210.759 180.582 210.312 181.03 210.312 181.582C210.312 182.134 210.759 182.582 211.312 182.582Z" fill="#3E001A"/>
<path d="M211.812 187.582C212.64 187.582 213.312 186.91 213.312 186.082C213.312 185.254 212.64 184.582 211.812 184.582C210.983 184.582 210.312 185.254 210.312 186.082C210.312 186.91 210.983 187.582 211.812 187.582Z" fill="#3E001A"/>
<path d="M206.812 183.582C207.64 183.582 208.312 182.91 208.312 182.082C208.312 181.254 207.64 180.582 206.812 180.582C205.983 180.582 205.312 181.254 205.312 182.082C205.312 182.91 205.983 183.582 206.812 183.582Z" fill="#3E001A"/>
<path d="M223.312 178.582V180.582H221.261C221.064 178.629 220.294 176.777 219.047 175.261L220.483 173.824L221.898 175.239L223.312 173.825L219.07 169.582L217.656 170.996L219.07 172.41L217.633 173.847C216.116 172.6 214.265 171.83 212.312 171.633V169.582H214.312V167.582H208.312V169.582H210.312V171.633C208.359 171.83 206.507 172.6 204.991 173.847L203.554 172.41L204.968 170.996L203.554 169.582L199.312 173.825L200.726 175.239L202.14 173.824L203.577 175.261C202.33 176.777 201.559 178.629 201.363 180.582H199.312V178.582H197.312V184.582H199.312V182.582H201.363C201.559 184.535 202.33 186.387 203.577 187.903L202.14 189.34L200.726 187.925L199.312 189.339L203.554 193.582L204.968 192.168L203.554 190.754L204.991 189.317C206.507 190.564 208.359 191.335 210.312 191.531V193.582H208.312V195.582H214.312V193.582H212.312V191.531C214.265 191.335 216.116 190.564 217.633 189.317L219.07 190.754L217.656 192.168L219.07 193.582L223.312 189.339L221.898 187.925L220.483 189.34L219.047 187.903C220.294 186.387 221.064 184.535 221.261 182.582H223.312V184.582H225.312V178.582H223.312ZM211.312 189.582C209.73 189.582 208.183 189.113 206.867 188.234C205.552 187.355 204.526 186.105 203.921 184.643C203.315 183.182 203.157 181.573 203.465 180.021C203.774 178.469 204.536 177.044 205.655 175.925C206.774 174.806 208.199 174.044 209.751 173.736C211.303 173.427 212.911 173.585 214.373 174.191C215.835 174.796 217.084 175.822 217.964 177.137C218.843 178.453 219.312 180 219.312 181.582C219.309 183.703 218.466 185.736 216.966 187.236C215.466 188.736 213.433 189.58 211.312 189.582Z" fill="#3E001A"/>
<circle cx="414.419" cy="161.222" r="8.7251" fill="#B882FF"/>
<path d="M413.919 158.722C414.748 158.722 415.419 158.05 415.419 157.222C415.419 156.393 414.748 155.722 413.919 155.722C413.091 155.722 412.419 156.393 412.419 157.222C412.419 158.05 413.091 158.722 413.919 158.722Z" fill="#3E001A"/>
<path d="M418.919 162.722C419.748 162.722 420.419 162.05 420.419 161.222C420.419 160.393 419.748 159.722 418.919 159.722C418.091 159.722 417.419 160.393 417.419 161.222C417.419 162.05 418.091 162.722 418.919 162.722Z" fill="#3E001A"/>
<path d="M414.419 162.722C414.971 162.722 415.419 162.274 415.419 161.722C415.419 161.169 414.971 160.722 414.419 160.722C413.867 160.722 413.419 161.169 413.419 161.722C413.419 162.274 413.867 162.722 414.419 162.722Z" fill="#3E001A"/>
<path d="M414.919 167.722C415.748 167.722 416.419 167.05 416.419 166.222C416.419 165.393 415.748 164.722 414.919 164.722C414.091 164.722 413.419 165.393 413.419 166.222C413.419 167.05 414.091 167.722 414.919 167.722Z" fill="#3E001A"/>
<path d="M409.919 163.722C410.748 163.722 411.419 163.05 411.419 162.222C411.419 161.393 410.748 160.722 409.919 160.722C409.091 160.722 408.419 161.393 408.419 162.222C408.419 163.05 409.091 163.722 409.919 163.722Z" fill="#3E001A"/>
<path d="M426.419 158.722V160.722H424.368C424.172 158.768 423.401 156.917 422.154 155.4L423.591 153.964L425.005 155.378L426.419 153.964L422.177 149.722L420.763 151.136L422.177 152.55L420.74 153.986C419.224 152.739 417.372 151.969 415.419 151.772V149.722H417.419V147.722H411.419V149.722H413.419V151.772C411.466 151.969 409.615 152.739 408.098 153.986L406.661 152.55L408.075 151.136L406.661 149.722L402.419 153.964L403.833 155.378L405.248 153.964L406.684 155.4C405.437 156.917 404.667 158.768 404.47 160.722H402.419V158.722H400.419V164.722H402.419V162.722H404.47C404.667 164.675 405.437 166.527 406.684 168.043L405.248 169.479L403.833 168.065L402.419 169.479L406.661 173.722L408.075 172.308L406.661 170.894L408.098 169.457C409.615 170.704 411.466 171.474 413.419 171.671V173.722H411.419V175.722H417.419V173.722H415.419V171.671C417.372 171.474 419.224 170.704 420.74 169.457L422.177 170.894L420.763 172.308L422.177 173.722L426.419 169.479L425.005 168.065L423.591 169.479L422.154 168.043C423.401 166.527 424.172 164.675 424.368 162.722H426.419V164.722H428.419V158.722H426.419ZM414.419 169.722C412.837 169.722 411.29 169.252 409.975 168.373C408.659 167.494 407.634 166.245 407.028 164.783C406.423 163.321 406.264 161.713 406.573 160.161C406.882 158.609 407.644 157.184 408.762 156.065C409.881 154.946 411.307 154.184 412.858 153.875C414.41 153.567 416.019 153.725 417.481 154.331C418.942 154.936 420.192 155.962 421.071 157.277C421.95 158.593 422.419 160.139 422.419 161.722C422.417 163.843 421.573 165.876 420.073 167.376C418.574 168.876 416.54 169.719 414.419 169.722Z" fill="#3E001A"/>
<circle cx="55.9819" cy="177.082" r="8.7251" fill="#FF813A"/>
<path d="M55.4819 174.582C56.3104 174.582 56.9819 173.91 56.9819 173.082C56.9819 172.254 56.3104 171.582 55.4819 171.582C54.6535 171.582 53.9819 172.254 53.9819 173.082C53.9819 173.91 54.6535 174.582 55.4819 174.582Z" fill="#3E001A"/>
<path d="M60.4819 178.582C61.3104 178.582 61.9819 177.91 61.9819 177.082C61.9819 176.254 61.3104 175.582 60.4819 175.582C59.6535 175.582 58.9819 176.254 58.9819 177.082C58.9819 177.91 59.6535 178.582 60.4819 178.582Z" fill="#3E001A"/>
<path d="M55.9819 178.582C56.5342 178.582 56.9819 178.134 56.9819 177.582C56.9819 177.03 56.5342 176.582 55.9819 176.582C55.4296 176.582 54.9819 177.03 54.9819 177.582C54.9819 178.134 55.4296 178.582 55.9819 178.582Z" fill="#3E001A"/>
<path d="M56.4819 183.582C57.3104 183.582 57.9819 182.91 57.9819 182.082C57.9819 181.254 57.3104 180.582 56.4819 180.582C55.6535 180.582 54.9819 181.254 54.9819 182.082C54.9819 182.91 55.6535 183.582 56.4819 183.582Z" fill="#3E001A"/>
<path d="M51.4819 179.582C52.3104 179.582 52.9819 178.91 52.9819 178.082C52.9819 177.254 52.3104 176.582 51.4819 176.582C50.6535 176.582 49.9819 177.254 49.9819 178.082C49.9819 178.91 50.6535 179.582 51.4819 179.582Z" fill="#3E001A"/>
<path d="M67.9819 174.582V176.582H65.9311C65.7343 174.629 64.9639 172.777 63.7168 171.261L65.1535 169.824L66.5678 171.239L67.9819 169.825L63.7397 165.582L62.3257 166.996L63.7397 168.41L62.3027 169.847C60.7865 168.6 58.9351 167.83 56.9819 167.633V165.582H58.9819V163.582H52.9819V165.582H54.9819V167.633C53.0287 167.83 51.1774 168.6 49.6611 169.847L48.2241 168.41L49.6381 166.996L48.2241 165.582L43.9819 169.825L45.396 171.239L46.8103 169.824L48.247 171.261C47 172.777 46.2295 174.629 46.0327 176.582H43.9819V174.582H41.9819V180.582H43.9819V178.582H46.0327C46.2295 180.535 47 182.387 48.247 183.903L46.8103 185.34L45.396 183.925L43.9819 185.339L48.2241 189.582L49.6381 188.168L48.2241 186.754L49.6611 185.317C51.1774 186.564 53.0287 187.335 54.9819 187.531V189.582H52.9819V191.582H58.9819V189.582H56.9819V187.531C58.9351 187.335 60.7865 186.564 62.3027 185.317L63.7397 186.754L62.3257 188.168L63.7397 189.582L67.9819 185.339L66.5678 183.925L65.1535 185.34L63.7168 183.903C64.9639 182.387 65.7343 180.535 65.9311 178.582H67.9819V180.582H69.9819V174.582H67.9819ZM55.9819 185.582C54.3997 185.582 52.853 185.113 51.5374 184.234C50.2218 183.355 49.1964 182.105 48.5909 180.643C47.9854 179.182 47.827 177.573 48.1357 176.021C48.4443 174.469 49.2063 173.044 50.3251 171.925C51.4439 170.806 52.8694 170.044 54.4212 169.736C55.9731 169.427 57.5816 169.585 59.0434 170.191C60.5052 170.796 61.7546 171.822 62.6337 173.137C63.5127 174.453 63.9819 176 63.9819 177.582C63.9795 179.703 63.1359 181.736 61.6361 183.236C60.1363 184.736 58.1029 185.58 55.9819 185.582Z" fill="#3E001A"/>
<ellipse cx="290.895" cy="130.884" rx="21.5509" ry="7.19482" fill="#3E001A"/>
<path d="M292.622 53.229C292.622 52.4006 291.95 51.729 291.122 51.729C290.293 51.729 289.622 52.4006 289.622 53.229L292.622 53.229ZM292.622 125.563L292.622 53.229L289.622 53.229L289.622 125.563L292.622 125.563Z" fill="#3E001A"/>
<path d="M351.532 79.4479L291.122 54.8594V99.0749L351.532 79.4479Z" fill="#00BA61" stroke="#3E001A" stroke-width="3"/>
</svg>
