<svg width="462" height="250" viewBox="0 0 462 250" fill="none" xmlns="http://www.w3.org/2000/svg">
<mask id="mask0_3795_53498" style="mask-type:alpha" maskUnits="userSpaceOnUse" x="0" y="0" width="462" height="250">
<rect x="0.811768" y="0.376953" width="461" height="249" fill="#0057FF"/>
</mask>
<g mask="url(#mask0_3795_53498)">
<rect x="0.811768" y="0.376953" width="461" height="249" fill="#0057FF"/>
<path d="M168.055 66.0786V62.7645H164.704V45.7521H168.055V42.4012H178.439V45.7521H181.827V52.7485H178.071V46.1203H168.423V62.3963H178.071V55.6944H181.827V62.7645H178.439V66.0786H168.055ZM189.631 66.0786V62.7645H186.28V45.7521H189.631V42.4012H200.015V45.7521H203.403V62.7645H200.015V66.0786H189.631ZM189.999 62.3963H199.647V46.1203H189.999V62.3963ZM211.207 66.0786V62.7645H207.856V42.4012H211.575V62.3963H221.223V42.4012H224.979V62.7645H221.591V66.0786H211.207ZM229.433 66.0786V42.4012H233.152V45.7521H236.466V49.0662H239.854V59.0453H242.799V42.4012H246.555V66.0786H242.799V62.7645H239.485V59.4136H236.098V49.4344H233.152V66.0786H229.433ZM256.559 66.0786V46.1203H253.613V49.4344H249.894V45.7521H253.245V42.4012H263.629V45.7521H267.017V49.4344H263.261V46.1203H260.315V66.0786H256.559ZM269.996 66.0786V45.7521H273.347V42.4012H283.731V45.7521H287.119V56.0626H283.731V59.4136H282.111V62.3963H285.425V66.0786H281.742V62.7645H278.355V59.4136H273.715V66.0786H269.996ZM273.715 55.6944H283.363V46.1203H273.715V55.6944ZM291.572 66.0786V62.3963H294.923V46.1203H291.572V42.4012H301.993V46.1203H298.605V62.3963H301.993V66.0786H291.572ZM309.811 66.0786V62.7645H306.46V45.7521H309.811V42.4012H320.195V45.7521H323.583V49.4344H319.827V46.1203H310.179V52.4171H316.881V56.0626H310.179V62.3963H319.827V59.0453H323.583V62.7645H320.195V66.0786H309.811ZM331.387 66.0786V62.7645H328.036V59.0453H331.755V62.3963H341.403V56.0626H331.387V52.7485H328.036V45.7521H331.387V42.4012H341.771V45.7521H345.159V49.4344H341.403V46.1203H331.755V52.4171H341.771V55.6944H345.159V62.7645H341.771V66.0786H331.387Z" fill="white"/>
<path d="M145.194 61.8581V55.5981H138.529V51.9158H145.194V44.8457H148.95V51.9158H155.651V55.5981H148.95V61.8581H145.194Z" fill="white"/>
<path d="M120.045 65.5036V62.1895H116.694V58.4704H120.414V61.8213H130.061V55.4877H123.359H120.045V52.1735H116.694V45.1771H120.045V41.8262H130.43H133.817V45.5453H130.061H120.414V51.8421H133.817V55.1194V58.4704V62.1895H130.43V65.5036H120.045Z" fill="white"/>
<path d="M108.472 65.5036V45.5453H105.526V48.8594H101.807V45.1771H105.158V41.8262H108.84V45.1771H112.228V65.5036H108.472Z" fill="white"/>
<mask id="mask1_3795_53498" style="mask-type:alpha" maskUnits="userSpaceOnUse" x="47" y="105" width="369" height="369">
<circle cx="231.312" cy="289.387" r="182.602" fill="#0036C2" stroke="white" stroke-width="3"/>
</mask>
<g mask="url(#mask1_3795_53498)">
<circle cx="231.312" cy="289.387" r="182.602" stroke="white" stroke-width="3"/>
<circle cx="231.312" cy="-18.9526" r="182.602" stroke="white" stroke-width="3"/>
<path d="M435.843 293.249C435.843 394.198 359.607 475.851 265.784 475.851C171.961 475.851 95.7249 394.198 95.7249 293.249C95.7249 192.299 171.961 110.646 265.784 110.646C359.607 110.646 435.843 192.299 435.843 293.249Z" stroke="white" stroke-width="3"/>
<path d="M372.844 293.249C372.844 394.192 296.271 475.851 202.018 475.851C107.766 475.851 31.1926 394.192 31.1926 293.249C31.1926 192.305 107.766 110.646 202.018 110.646C296.271 110.646 372.844 192.305 372.844 293.249Z" stroke="white" stroke-width="3"/>
<path d="M300.322 297.434C300.322 348.143 292.777 393.986 280.626 427.097C274.549 443.659 267.348 456.956 259.428 466.086C251.504 475.219 242.996 480.036 234.264 480.036C225.533 480.036 217.025 475.219 209.101 466.086C201.181 456.956 193.98 443.659 187.902 427.097C175.752 393.986 168.207 348.143 168.207 297.434C168.207 246.766 177.279 203.655 190.194 171.898C196.651 156.018 204.057 143.01 211.742 133.32C219.275 123.824 226.998 117.614 234.271 114.923C241.756 117.614 249.585 123.827 257.157 133.323C264.88 143.009 272.257 156.015 278.66 171.894C291.465 203.649 300.322 246.761 300.322 297.434Z" stroke="white" stroke-width="3"/>
<path d="M453.411 33.9526C453.411 134.521 352.639 216.555 227.636 216.555C102.634 216.555 1.86206 134.521 1.86206 33.9526C1.86206 -66.6159 102.634 -148.649 227.636 -148.649C352.639 -148.649 453.411 -66.6159 453.411 33.9526Z" stroke="white" stroke-width="3"/>
<path d="M482.079 83.6001C482.079 133.833 453.775 179.448 407.739 212.562C361.705 245.675 298.034 266.202 227.636 266.202C157.239 266.202 93.5677 245.675 47.5338 212.562C1.49752 179.448 -26.8059 133.833 -26.8059 83.6001C-26.8059 33.3672 1.49752 -12.2476 47.5338 -45.362C93.5677 -78.4747 157.239 -99.002 227.636 -99.002C298.034 -99.002 361.705 -78.4747 407.739 -45.362C453.775 -12.2476 482.079 33.3672 482.079 83.6001Z" stroke="white" stroke-width="3"/>
<path d="M502.661 139.722C502.661 189.885 471.394 235.499 420.426 268.645C369.472 301.78 298.99 322.324 221.062 322.324C143.134 322.324 72.6526 301.78 21.6987 268.645C-29.2693 235.499 -60.5369 189.885 -60.5369 139.722C-60.5369 89.559 -29.2693 43.9449 21.6987 10.7998C72.6526 -22.336 143.134 -42.8799 221.062 -42.8799C298.99 -42.8799 369.472 -22.336 420.426 10.7998C471.394 43.9449 502.661 89.559 502.661 139.722Z" stroke="white" stroke-width="3"/>
</g>
<mask id="path-16-inside-1_3795_53498" fill="white">
<path fill-rule="evenodd" clip-rule="evenodd" d="M125.573 162.37C134.021 151.494 140.199 143.54 140.199 134.883C140.199 125.349 132.47 117.62 122.936 117.62C113.401 117.62 105.672 125.349 105.672 134.883C105.672 144.418 113.598 154.992 122.936 165.774C123.835 164.607 124.716 163.474 125.573 162.37ZM122.935 141.697C127.114 141.697 130.501 138.31 130.501 134.132C130.501 129.954 127.114 126.567 122.935 126.567C118.757 126.567 115.37 129.954 115.37 134.132C115.37 138.31 118.757 141.697 122.935 141.697Z"/>
</mask>
<path fill-rule="evenodd" clip-rule="evenodd" d="M125.573 162.37C134.021 151.494 140.199 143.54 140.199 134.883C140.199 125.349 132.47 117.62 122.936 117.62C113.401 117.62 105.672 125.349 105.672 134.883C105.672 144.418 113.598 154.992 122.936 165.774C123.835 164.607 124.716 163.474 125.573 162.37ZM122.935 141.697C127.114 141.697 130.501 138.31 130.501 134.132C130.501 129.954 127.114 126.567 122.935 126.567C118.757 126.567 115.37 129.954 115.37 134.132C115.37 138.31 118.757 141.697 122.935 141.697Z" fill="#FF813A"/>
<path d="M125.573 162.37L127.942 164.211L125.573 162.37ZM122.936 165.774L120.668 167.738L123.071 170.513L125.312 167.606L122.936 165.774ZM137.199 134.883C137.199 138.468 135.928 142.083 133.467 146.275C130.985 150.502 127.465 155.044 123.203 160.53L127.942 164.211C132.128 158.821 135.921 153.946 138.641 149.313C141.381 144.645 143.199 139.955 143.199 134.883H137.199ZM122.936 120.62C130.813 120.62 137.199 127.006 137.199 134.883H143.199C143.199 123.692 134.127 114.62 122.936 114.62V120.62ZM108.672 134.883C108.672 127.006 115.058 120.62 122.936 120.62V114.62C111.745 114.62 102.672 123.692 102.672 134.883H108.672ZM125.203 163.81C120.556 158.443 116.378 153.261 113.366 148.303C110.337 143.316 108.672 138.851 108.672 134.883H102.672C102.672 140.45 104.971 146.039 108.238 151.418C111.524 156.827 115.978 162.323 120.668 167.738L125.203 163.81ZM123.203 160.53C122.347 161.633 121.463 162.771 120.559 163.943L125.312 167.606C126.207 166.444 127.084 165.315 127.942 164.211L123.203 160.53ZM127.501 134.132C127.501 136.653 125.457 138.697 122.935 138.697V144.697C128.771 144.697 133.501 139.967 133.501 134.132H127.501ZM122.935 129.567C125.457 129.567 127.501 131.611 127.501 134.132H133.501C133.501 128.297 128.771 123.567 122.935 123.567V129.567ZM118.37 134.132C118.37 131.611 120.414 129.567 122.935 129.567V123.567C117.1 123.567 112.37 128.297 112.37 134.132H118.37ZM122.935 138.697C120.414 138.697 118.37 136.653 118.37 134.132H112.37C112.37 139.967 117.1 144.697 122.935 144.697V138.697Z" fill="#3E001A" mask="url(#path-16-inside-1_3795_53498)"/>
<mask id="path-18-inside-2_3795_53498" fill="white">
<path fill-rule="evenodd" clip-rule="evenodd" d="M148.574 212.112C157.022 201.235 163.201 193.281 163.201 184.625C163.201 175.09 155.472 167.361 145.937 167.361C136.403 167.361 128.674 175.09 128.674 184.625C128.674 194.159 136.6 204.733 145.937 215.516C146.837 214.348 147.717 213.215 148.574 212.112ZM145.937 191.438C150.115 191.438 153.502 188.051 153.502 183.873C153.502 179.695 150.115 176.308 145.937 176.308C141.759 176.308 138.372 179.695 138.372 183.873C138.372 188.051 141.759 191.438 145.937 191.438Z"/>
</mask>
<path fill-rule="evenodd" clip-rule="evenodd" d="M148.574 212.112C157.022 201.235 163.201 193.281 163.201 184.625C163.201 175.09 155.472 167.361 145.937 167.361C136.403 167.361 128.674 175.09 128.674 184.625C128.674 194.159 136.6 204.733 145.937 215.516C146.837 214.348 147.717 213.215 148.574 212.112ZM145.937 191.438C150.115 191.438 153.502 188.051 153.502 183.873C153.502 179.695 150.115 176.308 145.937 176.308C141.759 176.308 138.372 179.695 138.372 183.873C138.372 188.051 141.759 191.438 145.937 191.438Z" fill="#00BA61"/>
<path d="M148.574 212.112L150.943 213.952L148.574 212.112ZM145.937 215.516L143.67 217.479L146.073 220.254L148.314 217.347L145.937 215.516ZM160.201 184.625C160.201 188.209 158.929 191.824 156.468 196.017C153.987 200.244 150.467 204.785 146.205 210.271L150.943 213.952C155.13 208.562 158.923 203.687 161.643 199.054C164.383 194.386 166.201 189.696 166.201 184.625H160.201ZM145.937 170.361C153.815 170.361 160.201 176.747 160.201 184.625H166.201C166.201 173.434 157.128 164.361 145.937 164.361V170.361ZM131.674 184.625C131.674 176.747 138.06 170.361 145.937 170.361V164.361C134.746 164.361 125.674 173.434 125.674 184.625H131.674ZM148.205 213.552C143.557 208.185 139.38 203.002 136.368 198.044C133.339 193.058 131.674 188.593 131.674 184.625H125.674C125.674 190.191 127.972 195.78 131.24 201.159C134.526 206.568 138.98 212.064 143.67 217.479L148.205 213.552ZM146.205 210.271C145.348 211.374 144.465 212.512 143.561 213.684L148.314 217.347C149.209 216.185 150.086 215.056 150.943 213.952L146.205 210.271ZM150.502 183.873C150.502 186.394 148.459 188.438 145.937 188.438V194.438C151.772 194.438 156.502 189.708 156.502 183.873H150.502ZM145.937 179.308C148.459 179.308 150.502 181.352 150.502 183.873H156.502C156.502 178.038 151.772 173.308 145.937 173.308V179.308ZM141.372 183.873C141.372 181.352 143.416 179.308 145.937 179.308V173.308C140.102 173.308 135.372 178.038 135.372 183.873H141.372ZM145.937 188.438C143.416 188.438 141.372 186.394 141.372 183.873H135.372C135.372 189.708 140.102 194.438 145.937 194.438V188.438Z" fill="#3E001A" mask="url(#path-18-inside-2_3795_53498)"/>
<mask id="path-20-inside-3_3795_53498" fill="white">
<path fill-rule="evenodd" clip-rule="evenodd" d="M197.33 169.771C205.779 158.894 211.957 150.94 211.957 142.284C211.957 132.75 204.228 125.021 194.693 125.021C185.159 125.021 177.43 132.75 177.43 142.284C177.43 151.818 185.356 162.392 194.693 173.175C195.593 172.008 196.473 170.874 197.33 169.771ZM194.693 149.098C198.871 149.098 202.258 145.711 202.258 141.532C202.258 137.354 198.871 133.967 194.693 133.967C190.515 133.967 187.128 137.354 187.128 141.532C187.128 145.711 190.515 149.098 194.693 149.098Z"/>
</mask>
<path fill-rule="evenodd" clip-rule="evenodd" d="M197.33 169.771C205.779 158.894 211.957 150.94 211.957 142.284C211.957 132.75 204.228 125.021 194.693 125.021C185.159 125.021 177.43 132.75 177.43 142.284C177.43 151.818 185.356 162.392 194.693 173.175C195.593 172.008 196.473 170.874 197.33 169.771ZM194.693 149.098C198.871 149.098 202.258 145.711 202.258 141.532C202.258 137.354 198.871 133.967 194.693 133.967C190.515 133.967 187.128 137.354 187.128 141.532C187.128 145.711 190.515 149.098 194.693 149.098Z" fill="#FFD056"/>
<path d="M197.33 169.771L199.7 171.611L197.33 169.771ZM194.693 173.175L192.426 175.139L194.829 177.914L197.07 175.006L194.693 173.175ZM208.957 142.284C208.957 145.868 207.685 149.484 205.224 153.676C202.743 157.903 199.223 162.444 194.961 167.931L199.7 171.611C203.886 166.221 207.679 161.347 210.399 156.713C213.139 152.045 214.957 147.355 214.957 142.284H208.957ZM194.693 128.021C202.571 128.021 208.957 134.406 208.957 142.284H214.957C214.957 131.093 205.885 122.021 194.693 122.021V128.021ZM180.43 142.284C180.43 134.406 186.816 128.021 194.693 128.021V122.021C183.502 122.021 174.43 131.093 174.43 142.284H180.43ZM196.961 171.211C192.313 165.844 188.136 160.661 185.124 155.704C182.095 150.717 180.43 146.252 180.43 142.284H174.43C174.43 147.85 176.728 153.439 179.996 158.819C183.282 164.227 187.736 169.723 192.426 175.139L196.961 171.211ZM194.961 167.931C194.105 169.033 193.221 170.171 192.317 171.343L197.07 175.006C197.965 173.844 198.842 172.715 199.7 171.611L194.961 167.931ZM199.258 141.532C199.258 144.054 197.215 146.098 194.693 146.098V152.098C200.528 152.098 205.258 147.367 205.258 141.532H199.258ZM194.693 136.967C197.215 136.967 199.258 139.011 199.258 141.532H205.258C205.258 135.697 200.528 130.967 194.693 130.967V136.967ZM190.128 141.532C190.128 139.011 192.172 136.967 194.693 136.967V130.967C188.858 130.967 184.128 135.697 184.128 141.532H190.128ZM194.693 146.098C192.172 146.098 190.128 144.054 190.128 141.532H184.128C184.128 147.367 188.858 152.098 194.693 152.098V146.098Z" fill="#3E001A" mask="url(#path-20-inside-3_3795_53498)"/>
<mask id="path-22-inside-4_3795_53498" fill="white">
<path fill-rule="evenodd" clip-rule="evenodd" d="M229.741 222.41C238.189 211.534 244.367 203.58 244.367 194.923C244.367 185.389 236.638 177.66 227.104 177.66C217.57 177.66 209.841 185.389 209.841 194.923C209.841 204.458 217.766 215.032 227.104 225.814C228.004 224.647 228.884 223.514 229.741 222.41ZM227.104 201.737C231.282 201.737 234.669 198.35 234.669 194.172C234.669 189.994 231.282 186.607 227.104 186.607C222.926 186.607 219.539 189.994 219.539 194.172C219.539 198.35 222.926 201.737 227.104 201.737Z"/>
</mask>
<path fill-rule="evenodd" clip-rule="evenodd" d="M229.741 222.41C238.189 211.534 244.367 203.58 244.367 194.923C244.367 185.389 236.638 177.66 227.104 177.66C217.57 177.66 209.841 185.389 209.841 194.923C209.841 204.458 217.766 215.032 227.104 225.814C228.004 224.647 228.884 223.514 229.741 222.41ZM227.104 201.737C231.282 201.737 234.669 198.35 234.669 194.172C234.669 189.994 231.282 186.607 227.104 186.607C222.926 186.607 219.539 189.994 219.539 194.172C219.539 198.35 222.926 201.737 227.104 201.737Z" fill="#00BA61"/>
<path d="M229.741 222.41L232.11 224.251L229.741 222.41ZM227.104 225.814L224.836 227.778L227.239 230.553L229.48 227.646L227.104 225.814ZM241.367 194.923C241.367 198.508 240.096 202.123 237.635 206.316C235.154 210.542 231.633 215.084 227.372 220.57L232.11 224.251C236.297 218.861 240.089 213.986 242.809 209.353C245.55 204.685 247.367 199.995 247.367 194.923H241.367ZM227.104 180.66C234.981 180.66 241.367 187.046 241.367 194.923H247.367C247.367 183.732 238.295 174.66 227.104 174.66V180.66ZM212.841 194.923C212.841 187.046 219.227 180.66 227.104 180.66V174.66C215.913 174.66 206.841 183.732 206.841 194.923H212.841ZM229.372 223.85C224.724 218.483 220.546 213.301 217.535 208.343C214.505 203.356 212.841 198.891 212.841 194.923H206.841C206.841 200.49 209.139 206.079 212.407 211.458C215.692 216.867 220.146 222.363 224.836 227.778L229.372 223.85ZM227.372 220.57C226.515 221.673 225.631 222.811 224.728 223.983L229.48 227.646C230.376 226.484 231.253 225.355 232.11 224.251L227.372 220.57ZM231.669 194.172C231.669 196.693 229.625 198.737 227.104 198.737V204.737C232.939 204.737 237.669 200.007 237.669 194.172H231.669ZM227.104 189.607C229.625 189.607 231.669 191.651 231.669 194.172H237.669C237.669 188.337 232.939 183.607 227.104 183.607V189.607ZM222.539 194.172C222.539 191.651 224.583 189.607 227.104 189.607V183.607C221.269 183.607 216.539 188.337 216.539 194.172H222.539ZM227.104 198.737C224.583 198.737 222.539 196.693 222.539 194.172H216.539C216.539 200.007 221.269 204.737 227.104 204.737V198.737Z" fill="#3E001A" mask="url(#path-22-inside-4_3795_53498)"/>
<mask id="path-24-inside-5_3795_53498" fill="white">
<path fill-rule="evenodd" clip-rule="evenodd" d="M236.051 124.968C244.499 114.091 250.677 106.137 250.677 97.481C250.677 87.9468 242.948 80.2178 233.414 80.2178C223.88 80.2178 216.151 87.9468 216.151 97.481C216.151 107.015 224.076 117.589 233.414 128.372C234.314 127.205 235.194 126.071 236.051 124.968ZM233.414 104.295C237.592 104.295 240.979 100.908 240.979 96.7297C240.979 92.5515 237.592 89.1644 233.414 89.1644C229.236 89.1644 225.849 92.5515 225.849 96.7297C225.849 100.908 229.236 104.295 233.414 104.295Z"/>
</mask>
<path fill-rule="evenodd" clip-rule="evenodd" d="M236.051 124.968C244.499 114.091 250.677 106.137 250.677 97.481C250.677 87.9468 242.948 80.2178 233.414 80.2178C223.88 80.2178 216.151 87.9468 216.151 97.481C216.151 107.015 224.076 117.589 233.414 128.372C234.314 127.205 235.194 126.071 236.051 124.968ZM233.414 104.295C237.592 104.295 240.979 100.908 240.979 96.7297C240.979 92.5515 237.592 89.1644 233.414 89.1644C229.236 89.1644 225.849 92.5515 225.849 96.7297C225.849 100.908 229.236 104.295 233.414 104.295Z" fill="#00BA61"/>
<path d="M236.051 124.968L238.42 126.808L236.051 124.968ZM233.414 128.372L231.146 130.336L233.549 133.111L235.79 130.203L233.414 128.372ZM247.677 97.481C247.677 101.066 246.406 104.681 243.945 108.873C241.464 113.1 237.943 117.641 233.682 123.128L238.42 126.808C242.607 121.418 246.4 116.544 249.12 111.911C251.86 107.243 253.677 102.553 253.677 97.481H247.677ZM233.414 83.2178C241.292 83.2178 247.677 89.6037 247.677 97.481H253.677C253.677 86.2899 244.605 77.2178 233.414 77.2178V83.2178ZM219.151 97.481C219.151 89.6037 225.537 83.2178 233.414 83.2178V77.2178C222.223 77.2178 213.151 86.2899 213.151 97.481H219.151ZM235.682 126.408C231.034 121.041 226.856 115.858 223.845 110.901C220.815 105.914 219.151 101.449 219.151 97.481H213.151C213.151 103.047 215.449 108.637 218.717 114.016C222.002 119.425 226.456 124.92 231.146 130.336L235.682 126.408ZM233.682 123.128C232.825 124.231 231.942 125.368 231.038 126.541L235.79 130.203C236.686 129.041 237.563 127.912 238.42 126.808L233.682 123.128ZM237.979 96.7297C237.979 99.251 235.935 101.295 233.414 101.295V107.295C239.249 107.295 243.979 102.565 243.979 96.7297H237.979ZM233.414 92.1644C235.935 92.1644 237.979 94.2084 237.979 96.7297H243.979C243.979 90.8946 239.249 86.1644 233.414 86.1644V92.1644ZM228.849 96.7297C228.849 94.2084 230.893 92.1644 233.414 92.1644V86.1644C227.579 86.1644 222.849 90.8946 222.849 96.7297H228.849ZM233.414 101.295C230.893 101.295 228.849 99.251 228.849 96.7297H222.849C222.849 102.565 227.579 107.295 233.414 107.295V101.295Z" fill="#3E001A" mask="url(#path-24-inside-5_3795_53498)"/>
<mask id="path-26-inside-6_3795_53498" fill="white">
<path fill-rule="evenodd" clip-rule="evenodd" d="M91.0459 193.848C99.4942 182.971 105.672 175.017 105.672 166.361C105.672 156.827 97.9433 149.098 88.409 149.098C78.8748 149.098 71.1458 156.827 71.1458 166.361C71.1458 175.895 79.0712 186.469 88.409 197.252C89.3086 196.085 90.1889 194.951 91.0459 193.848ZM88.409 173.175C92.5871 173.175 95.9742 169.788 95.9742 165.61C95.9742 161.431 92.5871 158.044 88.409 158.044C84.2308 158.044 80.8437 161.431 80.8437 165.61C80.8437 169.788 84.2308 173.175 88.409 173.175Z"/>
</mask>
<path fill-rule="evenodd" clip-rule="evenodd" d="M91.0459 193.848C99.4942 182.971 105.672 175.017 105.672 166.361C105.672 156.827 97.9433 149.098 88.409 149.098C78.8748 149.098 71.1458 156.827 71.1458 166.361C71.1458 175.895 79.0712 186.469 88.409 197.252C89.3086 196.085 90.1889 194.951 91.0459 193.848ZM88.409 173.175C92.5871 173.175 95.9742 169.788 95.9742 165.61C95.9742 161.431 92.5871 158.044 88.409 158.044C84.2308 158.044 80.8437 161.431 80.8437 165.61C80.8437 169.788 84.2308 173.175 88.409 173.175Z" fill="#FFD056"/>
<path d="M91.0459 193.848L93.4152 195.688L91.0459 193.848ZM88.409 197.252L86.1412 199.216L88.5443 201.991L90.7852 199.083L88.409 197.252ZM102.672 166.361C102.672 169.946 101.401 173.561 98.94 177.753C96.4587 181.98 92.9383 186.521 88.6766 192.008L93.4152 195.688C97.6018 190.298 101.395 185.424 104.114 180.79C106.855 176.122 108.672 171.433 108.672 166.361H102.672ZM88.409 152.098C96.2864 152.098 102.672 158.484 102.672 166.361H108.672C108.672 155.17 99.6001 146.098 88.409 146.098V152.098ZM74.1458 166.361C74.1458 158.484 80.5316 152.098 88.409 152.098V146.098C77.2179 146.098 68.1458 155.17 68.1458 166.361H74.1458ZM90.6768 195.288C86.029 189.921 81.8513 184.738 78.8397 179.781C75.8103 174.794 74.1458 170.329 74.1458 166.361H68.1458C68.1458 171.927 70.4439 177.516 73.7117 182.896C76.9973 188.305 81.4513 193.8 86.1412 199.216L90.6768 195.288ZM88.6766 192.008C87.8202 193.11 86.9364 194.248 86.0329 195.421L90.7852 199.083C91.6808 197.921 92.5577 196.792 93.4152 195.688L88.6766 192.008ZM92.9742 165.61C92.9742 168.131 90.9303 170.175 88.409 170.175V176.175C94.244 176.175 98.9742 171.445 98.9742 165.61H92.9742ZM88.409 161.044C90.9303 161.044 92.9742 163.088 92.9742 165.61H98.9742C98.9742 159.775 94.244 155.044 88.409 155.044V161.044ZM83.8437 165.61C83.8437 163.088 85.8876 161.044 88.409 161.044V155.044C82.5739 155.044 77.8437 159.775 77.8437 165.61H83.8437ZM88.409 170.175C85.8876 170.175 83.8437 168.131 83.8437 165.61H77.8437C77.8437 171.445 82.5739 176.175 88.409 176.175V170.175Z" fill="#3E001A" mask="url(#path-26-inside-6_3795_53498)"/>
<mask id="path-28-inside-7_3795_53498" fill="white">
<path fill-rule="evenodd" clip-rule="evenodd" d="M270.577 222.322C279.026 211.445 285.204 203.491 285.204 194.835C285.204 185.3 277.475 177.571 267.941 177.571C258.406 177.571 250.677 185.3 250.677 194.835C250.677 204.369 258.603 214.943 267.941 225.726C268.84 224.558 269.72 223.425 270.577 222.322ZM267.94 201.648C272.119 201.648 275.506 198.261 275.506 194.083C275.506 189.905 272.119 186.518 267.94 186.518C263.762 186.518 260.375 189.905 260.375 194.083C260.375 198.261 263.762 201.648 267.94 201.648Z"/>
</mask>
<path fill-rule="evenodd" clip-rule="evenodd" d="M270.577 222.322C279.026 211.445 285.204 203.491 285.204 194.835C285.204 185.3 277.475 177.571 267.941 177.571C258.406 177.571 250.677 185.3 250.677 194.835C250.677 204.369 258.603 214.943 267.941 225.726C268.84 224.558 269.72 223.425 270.577 222.322ZM267.94 201.648C272.119 201.648 275.506 198.261 275.506 194.083C275.506 189.905 272.119 186.518 267.94 186.518C263.762 186.518 260.375 189.905 260.375 194.083C260.375 198.261 263.762 201.648 267.94 201.648Z" fill="#B882FF"/>
<path d="M270.577 222.322L272.947 224.162L270.577 222.322ZM267.941 225.726L265.673 227.689L268.076 230.464L270.317 227.557L267.941 225.726ZM282.204 194.835C282.204 198.419 280.932 202.034 278.472 206.227C275.99 210.454 272.47 214.995 268.208 220.481L272.947 224.162C277.133 218.772 280.926 213.897 283.646 209.264C286.386 204.596 288.204 199.906 288.204 194.835H282.204ZM267.941 180.571C275.818 180.571 282.204 186.957 282.204 194.835H288.204C288.204 183.643 279.132 174.571 267.941 174.571V180.571ZM253.677 194.835C253.677 186.957 260.063 180.571 267.941 180.571V174.571C256.749 174.571 247.677 183.643 247.677 194.835H253.677ZM270.208 223.762C265.561 218.395 261.383 213.212 258.371 208.254C255.342 203.267 253.677 198.803 253.677 194.835H247.677C247.677 200.401 249.975 205.99 253.243 211.369C256.529 216.778 260.983 222.274 265.673 227.689L270.208 223.762ZM268.208 220.481C267.352 221.584 266.468 222.722 265.564 223.894L270.317 227.557C271.212 226.395 272.089 225.266 272.947 224.162L268.208 220.481ZM272.506 194.083C272.506 196.605 270.462 198.648 267.94 198.648V204.648C273.775 204.648 278.506 199.918 278.506 194.083H272.506ZM267.94 189.518C270.462 189.518 272.506 191.562 272.506 194.083H278.506C278.506 188.248 273.775 183.518 267.94 183.518V189.518ZM263.375 194.083C263.375 191.562 265.419 189.518 267.94 189.518V183.518C262.105 183.518 257.375 188.248 257.375 194.083H263.375ZM267.94 198.648C265.419 198.648 263.375 196.605 263.375 194.083H257.375C257.375 199.918 262.105 204.648 267.94 204.648V198.648Z" fill="#3E001A" mask="url(#path-28-inside-7_3795_53498)"/>
<mask id="path-30-inside-8_3795_53498" fill="white">
<path fill-rule="evenodd" clip-rule="evenodd" d="M378.322 190.573C386.77 179.696 392.948 171.742 392.948 163.086C392.948 153.551 385.219 145.822 375.685 145.822C366.151 145.822 358.422 153.551 358.422 163.086C358.422 172.62 366.347 183.194 375.685 193.977C376.585 192.809 377.465 191.676 378.322 190.573ZM375.685 169.899C379.863 169.899 383.25 166.512 383.25 162.334C383.25 158.156 379.863 154.769 375.685 154.769C371.507 154.769 368.12 158.156 368.12 162.334C368.12 166.512 371.507 169.899 375.685 169.899Z"/>
</mask>
<path fill-rule="evenodd" clip-rule="evenodd" d="M378.322 190.573C386.77 179.696 392.948 171.742 392.948 163.086C392.948 153.551 385.219 145.822 375.685 145.822C366.151 145.822 358.422 153.551 358.422 163.086C358.422 172.62 366.347 183.194 375.685 193.977C376.585 192.809 377.465 191.676 378.322 190.573ZM375.685 169.899C379.863 169.899 383.25 166.512 383.25 162.334C383.25 158.156 379.863 154.769 375.685 154.769C371.507 154.769 368.12 158.156 368.12 162.334C368.12 166.512 371.507 169.899 375.685 169.899Z" fill="#FF813A"/>
<path d="M378.322 190.573L380.691 192.413L378.322 190.573ZM375.685 193.977L373.417 195.94L375.82 198.715L378.061 195.808L375.685 193.977ZM389.948 163.086C389.948 166.67 388.677 170.285 386.216 174.478C383.735 178.705 380.214 183.246 375.953 188.732L380.691 192.413C384.878 187.023 388.671 182.148 391.391 177.515C394.131 172.847 395.948 168.157 395.948 163.086H389.948ZM375.685 148.822C383.563 148.822 389.948 155.208 389.948 163.086H395.948C395.948 151.894 386.876 142.822 375.685 142.822V148.822ZM361.422 163.086C361.422 155.208 367.808 148.822 375.685 148.822V142.822C364.494 142.822 355.422 151.894 355.422 163.086H361.422ZM377.953 192.013C373.305 186.646 369.127 181.463 366.116 176.505C363.086 171.518 361.422 167.053 361.422 163.086H355.422C355.422 168.652 357.72 174.241 360.988 179.62C364.273 185.029 368.727 190.525 373.417 195.94L377.953 192.013ZM375.953 188.732C375.096 189.835 374.213 190.973 373.309 192.145L378.061 195.808C378.957 194.646 379.834 193.517 380.691 192.413L375.953 188.732ZM380.25 162.334C380.25 164.855 378.206 166.899 375.685 166.899V172.899C381.52 172.899 386.25 168.169 386.25 162.334H380.25ZM375.685 157.769C378.206 157.769 380.25 159.813 380.25 162.334H386.25C386.25 156.499 381.52 151.769 375.685 151.769V157.769ZM371.12 162.334C371.12 159.813 373.164 157.769 375.685 157.769V151.769C369.85 151.769 365.12 156.499 365.12 162.334H371.12ZM375.685 166.899C373.164 166.899 371.12 164.855 371.12 162.334H365.12C365.12 168.169 369.85 172.899 375.685 172.899V166.899Z" fill="#3E001A" mask="url(#path-30-inside-8_3795_53498)"/>
<mask id="path-32-inside-9_3795_53498" fill="white">
<path fill-rule="evenodd" clip-rule="evenodd" d="M350.223 201.612C358.672 190.735 364.85 182.781 364.85 174.125C364.85 164.59 357.121 156.861 347.587 156.861C338.052 156.861 330.323 164.59 330.323 174.125C330.323 183.659 338.249 194.233 347.587 205.016C348.486 203.848 349.366 202.715 350.223 201.612ZM347.586 180.938C351.765 180.938 355.152 177.551 355.152 173.373C355.152 169.195 351.765 165.808 347.586 165.808C343.408 165.808 340.021 169.195 340.021 173.373C340.021 177.551 343.408 180.938 347.586 180.938Z"/>
</mask>
<path fill-rule="evenodd" clip-rule="evenodd" d="M350.223 201.612C358.672 190.735 364.85 182.781 364.85 174.125C364.85 164.59 357.121 156.861 347.587 156.861C338.052 156.861 330.323 164.59 330.323 174.125C330.323 183.659 338.249 194.233 347.587 205.016C348.486 203.848 349.366 202.715 350.223 201.612ZM347.586 180.938C351.765 180.938 355.152 177.551 355.152 173.373C355.152 169.195 351.765 165.808 347.586 165.808C343.408 165.808 340.021 169.195 340.021 173.373C340.021 177.551 343.408 180.938 347.586 180.938Z" fill="#FFCCB6"/>
<path d="M350.223 201.612L352.593 203.452L350.223 201.612ZM347.587 205.016L345.319 206.979L347.722 209.754L349.963 206.847L347.587 205.016ZM361.85 174.125C361.85 177.709 360.578 181.324 358.118 185.517C355.636 189.744 352.116 194.285 347.854 199.771L352.593 203.452C356.779 198.062 360.572 193.187 363.292 188.554C366.032 183.886 367.85 179.196 367.85 174.125H361.85ZM347.587 159.861C355.464 159.861 361.85 166.247 361.85 174.125H367.85C367.85 162.934 358.778 153.861 347.587 153.861V159.861ZM333.323 174.125C333.323 166.247 339.709 159.861 347.587 159.861V153.861C336.395 153.861 327.323 162.934 327.323 174.125H333.323ZM349.854 203.052C345.206 197.685 341.029 192.502 338.017 187.544C334.988 182.558 333.323 178.093 333.323 174.125H327.323C327.323 179.691 329.621 185.28 332.889 190.659C336.175 196.068 340.629 201.564 345.319 206.979L349.854 203.052ZM347.854 199.771C346.998 200.874 346.114 202.012 345.21 203.184L349.963 206.847C350.858 205.685 351.735 204.556 352.593 203.452L347.854 199.771ZM352.152 173.373C352.152 175.895 350.108 177.938 347.586 177.938V183.938C353.421 183.938 358.152 179.208 358.152 173.373H352.152ZM347.586 168.808C350.108 168.808 352.152 170.852 352.152 173.373H358.152C358.152 167.538 353.421 162.808 347.586 162.808V168.808ZM343.021 173.373C343.021 170.852 345.065 168.808 347.586 168.808V162.808C341.751 162.808 337.021 167.538 337.021 173.373H343.021ZM347.586 177.938C345.065 177.938 343.021 175.895 343.021 173.373H337.021C337.021 179.208 341.751 183.938 347.586 183.938V177.938Z" fill="#3E001A" mask="url(#path-32-inside-9_3795_53498)"/>
<mask id="path-34-inside-10_3795_53498" fill="white">
<path fill-rule="evenodd" clip-rule="evenodd" d="M336.669 150.035C345.117 139.159 351.295 131.205 351.295 122.548C351.295 113.014 343.566 105.285 334.032 105.285C324.498 105.285 316.769 113.014 316.769 122.548C316.769 132.083 324.694 142.657 334.032 153.439C334.931 152.272 335.812 151.139 336.669 150.035ZM334.032 129.362C338.21 129.362 341.597 125.975 341.597 121.797C341.597 117.619 338.21 114.232 334.032 114.232C329.854 114.232 326.466 117.619 326.466 121.797C326.466 125.975 329.854 129.362 334.032 129.362Z"/>
</mask>
<path fill-rule="evenodd" clip-rule="evenodd" d="M336.669 150.035C345.117 139.159 351.295 131.205 351.295 122.548C351.295 113.014 343.566 105.285 334.032 105.285C324.498 105.285 316.769 113.014 316.769 122.548C316.769 132.083 324.694 142.657 334.032 153.439C334.931 152.272 335.812 151.139 336.669 150.035ZM334.032 129.362C338.21 129.362 341.597 125.975 341.597 121.797C341.597 117.619 338.21 114.232 334.032 114.232C329.854 114.232 326.466 117.619 326.466 121.797C326.466 125.975 329.854 129.362 334.032 129.362Z" fill="#FFD056"/>
<path d="M336.669 150.035L339.038 151.876L336.669 150.035ZM334.032 153.439L331.764 155.403L334.167 158.178L336.408 155.271L334.032 153.439ZM348.295 122.548C348.295 126.133 347.024 129.748 344.563 133.941C342.082 138.167 338.561 142.709 334.299 148.195L339.038 151.876C343.225 146.486 347.017 141.611 349.737 136.978C352.477 132.31 354.295 127.62 354.295 122.548H348.295ZM334.032 108.285C341.909 108.285 348.295 114.671 348.295 122.548H354.295C354.295 111.357 345.223 102.285 334.032 102.285V108.285ZM319.769 122.548C319.769 114.671 326.154 108.285 334.032 108.285V102.285C322.841 102.285 313.769 111.357 313.769 122.548H319.769ZM336.3 151.475C331.652 146.108 327.474 140.926 324.463 135.968C321.433 130.981 319.769 126.516 319.769 122.548H313.769C313.769 128.115 316.067 133.704 319.335 139.083C322.62 144.492 327.074 149.988 331.764 155.403L336.3 151.475ZM334.299 148.195C333.443 149.298 332.559 150.436 331.656 151.608L336.408 155.271C337.304 154.109 338.181 152.98 339.038 151.876L334.299 148.195ZM338.597 121.797C338.597 124.318 336.553 126.362 334.032 126.362V132.362C339.867 132.362 344.597 127.632 344.597 121.797H338.597ZM334.032 117.232C336.553 117.232 338.597 119.276 338.597 121.797H344.597C344.597 115.962 339.867 111.232 334.032 111.232V117.232ZM329.466 121.797C329.466 119.276 331.51 117.232 334.032 117.232V111.232C328.197 111.232 323.466 115.962 323.466 121.797H329.466ZM334.032 126.362C331.51 126.362 329.466 124.318 329.466 121.797H323.466C323.466 127.632 328.197 132.362 334.032 132.362V126.362Z" fill="#3E001A" mask="url(#path-34-inside-10_3795_53498)"/>
<mask id="path-36-inside-11_3795_53498" fill="white">
<path fill-rule="evenodd" clip-rule="evenodd" d="M108.309 232.863C116.758 221.986 122.936 214.032 122.936 205.376C122.936 195.841 115.207 188.112 105.672 188.112C96.1382 188.112 88.4092 195.841 88.4092 205.376C88.4092 214.91 96.3347 225.484 105.672 236.267C106.572 235.099 107.452 233.966 108.309 232.863ZM105.672 212.189C109.85 212.189 113.238 208.802 113.238 204.624C113.238 200.446 109.85 197.059 105.672 197.059C101.494 197.059 98.107 200.446 98.107 204.624C98.107 208.802 101.494 212.189 105.672 212.189Z"/>
</mask>
<path fill-rule="evenodd" clip-rule="evenodd" d="M108.309 232.863C116.758 221.986 122.936 214.032 122.936 205.376C122.936 195.841 115.207 188.112 105.672 188.112C96.1382 188.112 88.4092 195.841 88.4092 205.376C88.4092 214.91 96.3347 225.484 105.672 236.267C106.572 235.099 107.452 233.966 108.309 232.863ZM105.672 212.189C109.85 212.189 113.238 208.802 113.238 204.624C113.238 200.446 109.85 197.059 105.672 197.059C101.494 197.059 98.107 200.446 98.107 204.624C98.107 208.802 101.494 212.189 105.672 212.189Z" fill="#FFCCB6"/>
<path d="M108.309 232.863L110.679 234.703L108.309 232.863ZM105.672 236.267L103.405 238.23L105.808 241.005L108.049 238.098L105.672 236.267ZM119.936 205.376C119.936 208.96 118.664 212.575 116.203 216.768C113.722 220.995 110.202 225.536 105.94 231.022L110.679 234.703C114.865 229.313 118.658 224.438 121.378 219.805C124.118 215.137 125.936 210.447 125.936 205.376H119.936ZM105.672 191.112C113.55 191.112 119.936 197.498 119.936 205.376H125.936C125.936 194.184 116.864 185.112 105.672 185.112V191.112ZM91.4092 205.376C91.4092 197.498 97.7951 191.112 105.672 191.112V185.112C94.4814 185.112 85.4092 194.184 85.4092 205.376H91.4092ZM107.94 234.303C103.292 228.936 99.1147 223.753 96.1031 218.795C93.0738 213.809 91.4092 209.344 91.4092 205.376H85.4092C85.4092 210.942 87.7073 216.531 90.9752 221.91C94.2608 227.319 98.7147 232.815 103.405 238.23L107.94 234.303ZM105.94 231.022C105.084 232.125 104.2 233.263 103.296 234.435L108.049 238.098C108.944 236.936 109.821 235.807 110.679 234.703L105.94 231.022ZM110.238 204.624C110.238 207.145 108.194 209.189 105.672 209.189V215.189C111.507 215.189 116.238 210.459 116.238 204.624H110.238ZM105.672 200.059C108.194 200.059 110.238 202.103 110.238 204.624H116.238C116.238 198.789 111.507 194.059 105.672 194.059V200.059ZM101.107 204.624C101.107 202.103 103.151 200.059 105.672 200.059V194.059C99.8372 194.059 95.107 198.789 95.107 204.624H101.107ZM105.672 209.189C103.151 209.189 101.107 207.145 101.107 204.624H95.107C95.107 210.459 99.8372 215.189 105.672 215.189V209.189Z" fill="#3E001A" mask="url(#path-36-inside-11_3795_53498)"/>
</g>
</svg>
