<svg width="462" height="250" viewBox="0 0 462 250" fill="none" xmlns="http://www.w3.org/2000/svg">
<rect x="0.838623" y="0.384766" width="461" height="249" fill="#0057FF"/>
<rect x="-1.5" y="1.5" width="53.2128" height="45.8865" transform="matrix(-1 0 0 1 393.054 48.0781)" fill="#FFD056" stroke="#3E001A" stroke-width="3"/>
<rect x="-1.5" y="1.5" width="25.8754" height="22.112" transform="matrix(-1 0 0 1 418.812 93.6875)" fill="#0036C2" stroke="#3E001A" stroke-width="3"/>
<rect x="-1.5" y="1.5" width="25.8754" height="22.112" transform="matrix(-1 0 0 1 92.6053 176.579)" fill="#0036C2" stroke="#3E001A" stroke-width="3"/>
<rect x="-1.5" y="1.5" width="25.8754" height="22.112" transform="matrix(-1 0 0 1 393.054 116.311)" fill="#0036C2" stroke="#3E001A" stroke-width="3"/>
<rect x="-1.5" y="1.5" width="25.8754" height="22.112" transform="matrix(-1 0 0 1 66.7401 154.519)" fill="#0036C2" stroke="#3E001A" stroke-width="3"/>
<path d="M358.451 69.5087C358.451 75.0796 362.898 79.5595 368.34 79.5595C373.782 79.5595 378.229 75.0796 378.229 69.5087C378.229 63.9379 373.782 59.458 368.34 59.458C362.898 59.458 358.451 63.9379 358.451 69.5087Z" fill="#FF813A" stroke="#3E001A" stroke-width="3"/>
<mask id="path-8-inside-1_5872_52" fill="white">
<path d="M349.882 96.9918C349.882 92.1325 351.785 87.4723 355.173 84.0363C358.561 80.6003 363.156 78.6699 367.948 78.6699C372.739 78.6699 377.334 80.6003 380.722 84.0363C384.11 87.4723 386.013 92.1325 386.013 96.9918L367.948 96.9918H349.882Z"/>
</mask>
<path d="M349.882 96.9918C349.882 92.1325 351.785 87.4723 355.173 84.0363C358.561 80.6003 363.156 78.6699 367.948 78.6699C372.739 78.6699 377.334 80.6003 380.722 84.0363C384.11 87.4723 386.013 92.1325 386.013 96.9918L367.948 96.9918H349.882Z" fill="#FF813A" stroke="#3E001A" stroke-width="6" mask="url(#path-8-inside-1_5872_52)"/>
<rect x="96.1053" y="97.5977" width="243.235" height="78.4812" fill="#0D0E4D" stroke="black"/>
<g clip-path="url(#clip0_5872_52)">
<mask id="mask0_5872_52" style="mask-type:luminance" maskUnits="userSpaceOnUse" x="99" y="110" width="52" height="53">
<path d="M99.7665 110.955H150.188V162.722H99.7665V110.955Z" fill="white"/>
</mask>
<g mask="url(#mask0_5872_52)">
<path d="M134.69 159.648H115.457C108.805 159.648 103.412 154.26 103.412 147.613V128.393C103.412 121.746 108.805 116.357 115.457 116.357H134.69C141.342 116.357 146.734 121.746 146.734 128.393V147.613C146.734 154.26 141.342 159.648 134.69 159.648Z" fill="white"/>
<path d="M138.201 150.89C135.642 143.912 128.954 139.578 120.745 139.578H113.291C112.605 139.578 112.049 140.133 112.049 140.819V151.317C112.049 152.003 112.605 152.559 113.291 152.559H120.745C121.431 152.559 121.987 152.003 121.987 151.317V144.625C121.987 143.94 121.431 143.384 120.745 143.384C120.059 143.384 119.503 143.94 119.503 144.625V150.076H114.534V142.06H120.745C127.192 142.06 132.544 145.088 135.133 150.076H127.072C126.386 150.076 125.83 150.631 125.83 151.317C125.83 152.003 126.386 152.558 127.072 152.558H137.035C137.44 152.558 137.821 152.36 138.053 152.028C138.285 151.695 138.341 151.271 138.201 150.89Z" fill="#0057FF"/>
<path d="M127.071 152.559C126.385 152.559 125.829 152.003 125.829 151.317V125.034C125.829 124.349 126.385 123.793 127.071 123.793C127.757 123.793 128.313 124.349 128.313 125.034V151.317C128.313 152.003 127.757 152.559 127.071 152.559Z" fill="#0057FF"/>
<path d="M138.053 124.323C137.821 123.991 137.44 123.793 137.035 123.793H127.072C126.386 123.793 125.83 124.348 125.83 125.034C125.83 125.72 126.386 126.275 127.072 126.275H135.133C132.544 131.263 127.192 134.291 120.745 134.291H114.534V126.275H119.503V131.726C119.503 132.412 120.059 132.967 120.745 132.967C121.431 132.967 121.987 132.412 121.987 131.726V125.034C121.987 124.348 121.431 123.793 120.745 123.793H113.291C112.605 123.793 112.049 124.348 112.049 125.034V135.532C112.049 136.218 112.605 136.773 113.291 136.773H120.745C128.953 136.773 135.642 132.439 138.201 125.461C138.341 125.08 138.285 124.656 138.053 124.323Z" fill="#0057FF"/>
</g>
</g>
<path d="M327.288 142.217C327.288 142.682 327.257 143.27 327.164 144.014H314.334C314.861 146.338 316.596 147.888 319.478 147.888C321.524 147.888 323.383 147.299 325.025 146.152L326.637 149.034C324.561 150.584 322.113 151.359 319.324 151.359C313.002 151.359 310.213 147.02 310.213 142.558C310.213 140.017 311.018 137.909 312.63 136.267C314.272 134.594 316.38 133.757 318.952 133.757C321.4 133.757 323.383 134.532 324.933 136.05C326.513 137.568 327.288 139.614 327.288 142.217ZM318.952 137.135C316.596 137.135 314.861 138.591 314.334 140.946H323.321C322.98 138.591 321.276 137.135 318.952 137.135Z" fill="white"/>
<path d="M299.559 133.756C301.945 133.756 303.929 134.593 305.509 136.297C307.12 138.002 307.926 140.078 307.926 142.588C307.926 145.098 307.12 147.175 305.509 148.879C303.929 150.552 301.914 151.389 299.528 151.389C297.359 151.389 295.562 150.521 294.136 148.755V150.986H290.169V127.435H294.198V136.328C295.623 134.624 297.421 133.756 299.559 133.756ZM303.805 142.557C303.805 141.132 303.34 139.923 302.441 138.962C301.542 137.971 300.396 137.475 298.939 137.475C297.483 137.475 296.305 137.971 295.407 138.962C294.508 139.923 294.043 141.132 294.043 142.557C294.043 144.014 294.508 145.222 295.407 146.214C296.305 147.175 297.483 147.67 298.939 147.67C300.396 147.67 301.542 147.175 302.441 146.214C303.34 145.222 303.805 144.014 303.805 142.557Z" fill="white"/>
<path d="M269.025 142.557C269.025 140.078 269.861 138.002 271.535 136.298C273.239 134.593 275.377 133.726 278.011 133.726C280.646 133.726 282.784 134.593 284.457 136.298C286.162 138.002 286.998 140.078 286.998 142.557C286.998 145.068 286.162 147.175 284.457 148.879C282.784 150.584 280.646 151.42 278.011 151.42C275.377 151.42 273.239 150.584 271.535 148.879C269.861 147.175 269.025 145.068 269.025 142.557ZM282.939 142.557C282.939 141.163 282.474 139.954 281.513 138.963C280.553 137.971 279.406 137.475 278.011 137.475C276.617 137.475 275.47 137.971 274.51 138.963C273.549 139.954 273.084 141.163 273.084 142.557C273.084 143.983 273.549 145.191 274.51 146.183C275.47 147.175 276.617 147.671 278.011 147.671C279.406 147.671 280.553 147.175 281.513 146.183C282.474 145.191 282.939 143.983 282.939 142.557Z" fill="white"/>
<path d="M265.842 127.435V150.986H261.814V127.435H265.842Z" fill="white"/>
<path d="M247.851 151.327C244.411 151.327 241.56 150.212 239.298 148.011C237.067 145.78 235.951 142.96 235.951 139.551C235.951 136.112 237.129 133.261 239.453 131.029C241.777 128.798 244.659 127.683 248.037 127.683C251.756 127.683 255.257 129.263 257.334 131.525L254.514 134.5C252.747 132.672 250.578 131.773 248.037 131.773C245.837 131.773 243.977 132.517 242.49 133.973C241.033 135.43 240.29 137.289 240.29 139.52C240.29 141.721 241.002 143.549 242.459 145.036C243.915 146.524 245.775 147.268 247.975 147.268C250.423 147.268 252.871 146.214 254.39 144.634V141.163H247.758V137.444H258.294V146.71C255.381 149.778 251.911 151.327 247.851 151.327Z" fill="white"/>
<path d="M233.594 142.217C233.594 142.682 233.563 143.27 233.47 144.014H220.641C221.168 146.338 222.903 147.888 225.785 147.888C227.83 147.888 229.69 147.299 231.332 146.152L232.944 149.034C230.867 150.584 228.419 151.359 225.63 151.359C219.309 151.359 216.52 147.02 216.52 142.558C216.52 140.017 217.325 137.909 218.937 136.267C220.579 134.594 222.686 133.757 225.258 133.757C227.707 133.757 229.69 134.532 231.239 136.05C232.82 137.568 233.594 139.614 233.594 142.217ZM225.258 137.135C222.903 137.135 221.168 138.591 220.641 140.946H229.628C229.287 138.591 227.583 137.135 225.258 137.135Z" fill="white"/>
<path d="M209.274 136.297V127.435H213.303V150.986H209.367V148.786C207.973 150.521 206.175 151.389 204.006 151.389C201.62 151.389 199.606 150.552 198.025 148.879C196.445 147.175 195.639 145.067 195.639 142.557C195.639 140.078 196.445 138.002 198.025 136.297C199.636 134.593 201.62 133.756 203.975 133.756C206.113 133.756 207.88 134.593 209.274 136.297ZM204.564 147.701C206.02 147.701 207.229 147.206 208.127 146.214C209.026 145.222 209.491 144.014 209.491 142.557C209.491 141.132 209.026 139.923 208.096 138.931C207.198 137.94 206.02 137.444 204.564 137.444C203.107 137.444 201.93 137.94 201.031 138.931C200.132 139.923 199.667 141.132 199.667 142.557C199.667 144.014 200.132 145.222 201.031 146.214C201.93 147.206 203.107 147.701 204.564 147.701Z" fill="white"/>
<path d="M175.393 142.557C175.393 140.078 176.229 138.002 177.903 136.298C179.607 134.593 181.745 133.726 184.379 133.726C187.013 133.726 189.152 134.593 190.825 136.298C192.529 138.002 193.366 140.078 193.366 142.557C193.366 145.068 192.529 147.175 190.825 148.879C189.152 150.584 187.013 151.42 184.379 151.42C181.745 151.42 179.607 150.584 177.903 148.879C176.229 147.175 175.393 145.068 175.393 142.557ZM189.307 142.557C189.307 141.163 188.842 139.954 187.881 138.963C186.92 137.971 185.774 137.475 184.379 137.475C182.985 137.475 181.838 137.971 180.878 138.963C179.917 139.954 179.452 141.163 179.452 142.557C179.452 143.983 179.917 145.191 180.878 146.183C181.838 147.175 182.985 147.671 184.379 147.671C185.774 147.671 186.92 147.175 187.881 146.183C188.842 145.191 189.307 143.983 189.307 142.557Z" fill="white"/>
<path d="M175.784 150.987H170.578L163.792 141.659L160.91 145.161V150.987H156.695V128.086H160.91V139.335L170.02 128.086H175.134L166.581 138.56L175.784 150.987Z" fill="white"/>
<path d="M304.756 79.913V73.963H298.421V70.463H304.756V63.743H308.326V70.463H314.696V73.963H308.326V79.913H304.756ZM325.497 83.378V64.408H322.697V67.558H319.162V64.058H322.347V60.873H325.847V64.058H329.067V83.378H325.497Z" fill="white"/>
<defs>
<clipPath id="clip0_5872_52">
<rect width="50.4217" height="51.7663" fill="white" transform="translate(99.7665 110.955)"/>
</clipPath>
</defs>
</svg>
