<svg width="89" height="89" viewBox="0 0 89 89" fill="none" xmlns="http://www.w3.org/2000/svg">
<rect width="89" height="89" fill="#0057FF"/>
<g clip-path="url(#clip0_4802_11963)">
<path d="M67.5009 67.04H22.5009C22.2024 67.04 21.9609 66.7985 21.9609 66.5V21.5C21.9609 21.2015 22.2024 20.96 22.5009 20.96H49.5009C49.7994 20.96 50.0409 21.2015 50.0409 21.5V25.46H58.5009C58.7994 25.46 59.0409 25.7015 59.0409 26V31.46H67.5009C67.7994 31.46 68.0409 31.7015 68.0409 32V66.5C68.0409 66.7985 67.7994 67.04 67.5009 67.04ZM50.0409 65.96H66.9609V32.54H50.0409V65.96ZM39.5409 65.96H48.9609V22.04H23.0409V65.96H32.4609V54.5C32.4609 54.2015 32.7024 53.96 33.0009 53.96H39.0009C39.2994 53.96 39.5409 54.2015 39.5409 54.5V65.96ZM33.5409 65.96H38.4609V55.04H33.5409V65.96ZM50.0409 31.46H57.9594V26.54H50.0409V31.46ZM62.0409 57.5H60.9609V54.5H62.0424L62.0409 57.5ZM56.0409 57.5H54.9609V54.5H56.0424L56.0409 57.5ZM45.5409 57.5H44.4609V54.5H45.5409V57.5ZM27.5409 57.5H26.4609V54.5H27.5409V57.5ZM62.0409 48.5H60.9609V45.5H62.0424L62.0409 48.5ZM56.0409 48.5H54.9609V45.5H56.0424L56.0409 48.5ZM45.5409 48.5H44.4609V45.5H45.5409V48.5ZM39.5409 48.5H38.4609V45.5H39.5409V48.5ZM33.5409 48.5H32.4609V45.5H33.5409V48.5ZM27.5409 48.5H26.4609V45.5H27.5409V48.5ZM62.0409 39.5H60.9609V36.5H62.0424L62.0409 39.5ZM56.0409 39.5H54.9609V36.5H56.0424L56.0409 39.5ZM45.5409 39.5H44.4609V36.5H45.5409V39.5ZM39.5409 39.5H38.4609V36.5H39.5409V39.5ZM33.5409 39.5H32.4609V36.5H33.5409V39.5ZM27.5409 39.5H26.4609V36.5H27.5409V39.5ZM45.5409 30.5H44.4609V27.5H45.5409V30.5ZM39.5409 30.5H38.4609V27.5H39.5409V30.5ZM33.5409 30.5H32.4609V27.5H33.5409V30.5ZM27.5409 30.5H26.4609V27.5H27.5409V30.5Z" fill="white"/>
</g>
<defs>
<clipPath id="clip0_4802_11963">
<rect width="48" height="48" fill="white" transform="translate(21 20)"/>
</clipPath>
</defs>
</svg>
