<svg width="89" height="89" viewBox="0 0 89 89" fill="none" xmlns="http://www.w3.org/2000/svg">
<rect width="89" height="89" fill="#0057FF"/>
<g clip-path="url(#clip0_4802_11961)">
<path d="M27.1449 34.04H35.2224C34.4199 37.022 33.9609 40.406 33.9609 44H35.0409C35.0409 40.385 35.5044 36.9905 36.3084 34.04H44.4609V44H45.5409V34.04H53.6934C54.4974 36.9905 54.9609 40.385 54.9609 44H56.0424C56.0424 40.406 55.5834 37.022 54.7824 34.04H62.8584C64.5114 36.9905 65.4624 40.385 65.4624 44H66.5439C66.5439 32.123 56.8809 22.46 45.0039 22.46C33.1269 22.46 23.4609 32.123 23.4609 44H24.5409C24.5409 40.385 25.4919 36.9905 27.1449 34.04ZM36.6279 32.96C38.3094 27.596 41.1744 23.96 44.4609 23.5955V32.96H36.6279ZM45.5409 32.96V23.5955C48.8274 23.96 51.6909 27.596 53.3739 32.96H45.5409ZM62.1999 32.96H54.4629C53.2074 28.8815 51.2859 25.6805 48.9864 23.936C54.5199 25.034 59.2449 28.373 62.1999 32.96ZM41.0154 23.936C38.7174 25.6805 36.7944 28.8815 35.5404 32.96H27.8019C30.7569 28.373 35.4819 25.034 41.0154 23.936ZM54.9609 48.5V49.31L49.5009 47.96H45.3774C44.5194 47.96 43.6914 48.272 43.0479 48.8375L42.3369 49.46H35.0409V48.5C35.0409 48.2015 34.7994 47.96 34.5009 47.96H24.0009V49.0415H33.9609V61.46H24.0009V62.5415H34.5009C34.7994 62.5415 35.0409 62.3 35.0409 62.0015V61.0415H36.4719L39.6939 65.6045C40.0959 66.053 40.6539 66.284 41.2164 66.284C41.6244 66.284 42.0339 66.1625 42.3894 65.912L43.3539 65.234C43.4109 65.255 43.4559 65.297 43.5159 65.3135C43.6914 65.3585 43.8684 65.3825 44.0439 65.3825C44.3979 65.3825 44.7474 65.2895 45.0609 65.1065L46.3089 64.3865C46.5369 64.4705 46.7724 64.529 47.0169 64.529C47.3619 64.529 47.7129 64.4405 48.0339 64.256L49.2834 63.5345C49.5114 63.6185 49.7469 63.677 49.9914 63.677C50.3364 63.677 50.6889 63.5885 51.0099 63.404C51.8529 62.9165 52.1769 61.919 51.8994 61.04H54.9624V62C54.9624 62.2985 55.2039 62.54 55.5024 62.54H66.0024V61.46H56.0424V49.04H66.0009V47.96H55.5009C55.2024 47.96 54.9609 48.2015 54.9609 48.5ZM50.4684 62.4695C50.0109 62.7335 49.4199 62.576 49.1559 62.1185L46.9059 58.2215L45.9699 58.76L48.3249 62.84L47.4939 63.3185C47.0349 63.587 46.4469 63.4265 46.1814 62.969L44.6814 60.371L44.3064 59.7215L43.3719 60.26L43.7469 60.908L45.2469 63.506L45.2499 63.509L45.3534 63.6875L44.5209 64.1675C44.3019 64.2965 44.0439 64.3295 43.7964 64.2635C43.5489 64.1975 43.3434 64.04 43.2144 63.821L41.7114 61.2185L40.7754 61.757L42.2754 64.355L42.2784 64.3595L42.4044 64.577L41.7684 65.0255C41.3709 65.306 40.8264 65.243 40.5384 64.9295L37.1934 60.1865C37.0914 60.0425 36.9279 59.957 36.7524 59.957H35.0409V50.54H41.1009L38.2719 53.015C38.0619 53.1965 37.9359 53.4605 37.9269 53.7365C37.9164 54.014 38.0229 54.2855 38.2209 54.482C39.4989 55.76 41.5269 55.871 42.9369 54.743L44.4414 53.5385H46.9209L50.8194 61.1555C51.0819 61.616 50.9244 62.2055 50.4684 62.4695ZM51.4164 59.96L47.7309 52.754C47.6379 52.574 47.4519 52.46 47.2509 52.46H44.2509C44.1279 52.46 44.0094 52.502 43.9134 52.5785L42.2604 53.9015C41.2809 54.6845 39.8739 54.6095 38.9814 53.8295L43.7589 49.649C44.2059 49.256 44.7804 49.0415 45.3774 49.0415L49.3704 49.025L54.9609 50.423V59.96H51.4164Z" fill="white"/>
</g>
<defs>
<clipPath id="clip0_4802_11961">
<rect width="48" height="48" fill="white" transform="translate(21 20)"/>
</clipPath>
</defs>
</svg>
