<svg width="89" height="89" viewBox="0 0 89 89" fill="none" xmlns="http://www.w3.org/2000/svg">
<rect width="89" height="89" fill="#0057FF"/>
<g clip-path="url(#clip0_4802_11962)">
<path d="M42.0009 67.04H24.0009C23.7024 67.04 23.4609 66.7985 23.4609 66.5V36.5C23.4609 36.2015 23.7024 35.96 24.0009 35.96H42.0009C42.2994 35.96 42.5409 36.2015 42.5409 36.5V66.5C42.5409 66.7985 42.2994 67.04 42.0009 67.04ZM24.5409 65.96H41.4609V37.04H24.5409V65.96ZM66.0009 67.04H48.0009C47.7024 67.04 47.4609 66.7985 47.4609 66.5V21.5C47.4609 21.2015 47.7024 20.96 48.0009 20.96H66.0009C66.2994 20.96 66.5409 21.2015 66.5409 21.5V66.5C66.5409 66.7985 66.2994 67.04 66.0009 67.04ZM48.5409 65.96H65.4609V22.04H48.5409V65.96ZM30.5409 41H29.4609V44H30.5409V41ZM36.5409 41H35.4609V44H36.5409V41ZM30.5409 48.5H29.4609V51.5H30.5409V48.5ZM36.5409 48.5H35.4609V51.5H36.5409V48.5ZM30.5409 56H29.4609V59H30.5409V56ZM36.5409 56H35.4609V59H36.5409V56ZM54.5409 41H53.4609V44H54.5424L54.5409 41ZM54.5409 33.5H53.4609V36.5H54.5424L54.5409 33.5ZM60.5409 41H59.4609V44H60.5424L60.5409 41ZM60.5409 33.5H59.4609V36.5H60.5424L60.5409 33.5ZM54.5409 26H53.4609V29H54.5424L54.5409 26ZM60.5409 26H59.4609V29H60.5424L60.5409 26ZM54.5409 48.5H53.4609V51.5H54.5424L54.5409 48.5ZM60.5409 48.5H59.4609V51.5H60.5424L60.5409 48.5ZM54.5409 56H53.4609V59H54.5424L54.5409 56ZM60.5409 56H59.4609V59H60.5424L60.5409 56Z" fill="white"/>
</g>
<defs>
<clipPath id="clip0_4802_11962">
<rect width="48" height="48" fill="white" transform="translate(21 20)"/>
</clipPath>
</defs>
</svg>
