<svg width="161" height="63" viewBox="0 0 161 63" fill="none" xmlns="http://www.w3.org/2000/svg">
<path fill-rule="evenodd" clip-rule="evenodd" d="M43.6229 0.544922H28.636L27.5081 5.46191H22.4118L20.2477 14.8301H10.3722L9.24427 19.7471H4.14816L0.793484 34.269H15.6454L12.3452 48.5552H27.509L24.2095 62.8384H39.5604L40.7508 57.6856H45.4981L48.7751 43.4004H33.7882L32.6605 48.3164H27.7513L28.8867 43.4014H33.6339L35.7289 34.269H46.2714L47.4619 29.1153H52.2091L55.4861 14.8301H40.4992L39.3713 19.7471H34.4628L35.5986 14.8301H40.3459L43.6229 0.544922ZM39.3713 19.7471L37.2222 29.1153H47.4619L49.626 19.7471H39.3713ZM30.9963 34.269L28.8867 43.4014H18.647L20.7961 34.0332H30.9749L30.9204 34.269H30.9963ZM32.1108 29.1162H21.924L20.7961 34.0332H16.1989L17.335 29.1153H22.0821L24.1768 19.9839H34.2204L32.1108 29.1162ZM32.6605 48.3164H42.9151L40.7508 57.6856H30.5112L32.6605 48.3164ZM17.335 29.1153H7.09522L9.24427 19.7471H19.1119L19.0572 19.9839H19.4444L17.335 29.1153ZM35.5986 14.8301H25.3591L25.3591 14.8301H25.359L27.5081 5.46191H37.7627L35.5986 14.8301Z" fill="#0057FF"/>
<path fill-rule="evenodd" clip-rule="evenodd" d="M69.4371 28.5753H73.7343L74.8949 22.9942H70.5977L72.3356 14.7998H65.6905L63.9526 22.9942H60.187L59.0264 28.5753H62.7919L61.1038 36.4597C60.9577 37.2127 60.8568 37.9214 60.846 38.5415C60.788 41.8636 62.9309 43.4582 66.475 43.4582H69.2659L70.6146 37.257H69.8615C68.4881 37.257 67.9627 36.9026 67.9813 35.8396C67.9867 35.5295 68.0372 35.1751 68.1335 34.7322L69.4371 28.5753ZM159.133 28.5753H154.836L153.533 34.7322C153.436 35.1751 153.386 35.5295 153.38 35.8396C153.362 36.9026 153.887 37.257 155.261 37.257L157.376 36.9411L156.028 43.1423L151.874 43.4582C148.33 43.4582 146.187 41.8636 146.245 38.5415C146.256 37.9214 146.357 37.2127 146.503 36.4597L148.191 28.5753H144.426L145.586 22.9942H149.352L151.09 14.7998H157.735L155.997 22.9942H160.294L159.133 28.5753ZM143.854 30.6127C143.833 31.853 143.632 33.2261 143.161 34.8207H128.497C128.765 37.2126 130.116 38.4971 132.996 38.4971C135.61 38.4971 137.797 37.5669 139.318 36.6811L141.309 41.9078C138.717 43.2366 135.822 44.1225 132.455 44.1225C126.075 44.1225 121.887 40.4018 121.994 34.2892C122.093 28.6195 125.835 22.374 134.341 22.374C140.144 22.374 143.946 25.3417 143.854 30.6127ZM128.92 30.8785H137.249C137.298 30.6127 137.302 30.3913 137.307 30.0812C137.34 28.2209 136.03 27.1135 133.948 27.1135C131.556 27.1135 129.758 28.5752 128.92 30.8785ZM95.8968 43.4584H102.586L104.759 33.1822C105.583 29.1071 107.332 27.9112 109.547 27.9112C111.585 27.9112 112.765 28.8413 112.725 31.1003C112.712 31.8533 112.565 32.6506 112.374 33.4479L110.295 43.4584H116.94L119.249 32.9607C119.587 31.3661 119.703 29.8158 119.718 28.9742C119.796 24.5005 117.264 22.3301 113.322 22.3301C110.309 22.3301 108.07 23.7032 106.212 26.0951H106.123L106.798 22.9945H100.241L95.8968 43.4584ZM95.5722 30.6127C95.5505 31.853 95.3494 33.2261 94.8785 34.8207H80.2149C80.4833 37.2126 81.8342 38.4971 84.7137 38.4971C87.3275 38.4971 89.5145 37.5669 91.0362 36.6811L93.0271 41.9078C90.4344 43.2366 87.5394 44.1225 84.1725 44.1225C77.7932 44.1225 73.6052 40.4018 73.7119 34.2892C73.8109 28.6195 77.5526 22.374 86.0584 22.374C91.8618 22.374 95.6642 25.3417 95.5722 30.6127ZM80.6381 30.8785H88.9667C89.0156 30.6127 89.0195 30.3913 89.0249 30.0812C89.0574 28.2209 87.7477 27.1135 85.6656 27.1135C83.2733 27.1135 81.4757 28.5752 80.6381 30.8785Z" fill="#0D0E4D"/>
<path d="M123.886 55.3453H119.779V55.3563C119.779 56.331 120.261 56.8239 121.214 56.8239C121.882 56.8239 122.429 56.5829 123.032 56.0244L123.656 56.8239C122.889 57.5248 122.123 57.8425 121.214 57.8425C119.68 57.8425 118.738 56.9334 118.738 55.4548C118.738 53.7134 119.976 52.4648 121.696 52.4648C123.119 52.4648 123.963 53.2644 123.963 54.6115C123.963 54.8087 123.941 55.0058 123.886 55.3453ZM121.641 53.3739C120.798 53.3739 120.173 53.8229 119.91 54.5458H122.911V54.491C122.911 53.7791 122.451 53.3739 121.641 53.3739Z" fill="#0D0E4D"/>
<path d="M115.29 57.8534C114.392 57.8534 113.757 57.4591 113.439 56.8129H113.406L113.242 57.6891H112.169L113.647 50.0225H114.721L114.096 53.2425H114.129C114.556 52.7606 115.115 52.4648 115.816 52.4648C117.097 52.4648 118.061 53.3958 118.061 54.8963C118.061 56.5391 116.922 57.8534 115.29 57.8534ZM115.071 56.8348C116.254 56.8348 116.922 55.871 116.922 54.9072C116.922 54.042 116.396 53.4834 115.487 53.4834C114.304 53.4834 113.636 54.4472 113.636 55.411C113.636 56.2763 114.162 56.8348 115.071 56.8348Z" fill="#0D0E4D"/>
<path d="M108.572 57.8534C107.038 57.8534 106.063 56.9225 106.063 55.4658C106.063 53.7353 107.356 52.4648 109.097 52.4648C110.631 52.4648 111.605 53.3958 111.605 54.8525C111.605 56.5829 110.313 57.8534 108.572 57.8534ZM108.67 56.802C109.722 56.802 110.466 56.0134 110.466 54.9182C110.466 54.042 109.919 53.5163 108.999 53.5163C107.947 53.5163 107.203 54.3048 107.203 55.4001C107.203 56.2763 107.75 56.802 108.67 56.802Z" fill="#0D0E4D"/>
<path d="M104.535 57.6891H103.462L104.951 50.0225H106.025L104.535 57.6891Z" fill="#0D0E4D"/>
<path d="M101.831 53.5272L101.995 52.6291H103.068L102.093 57.6891C101.776 59.3649 101.064 60.0439 99.5853 60.0439C98.7858 60.0439 97.9972 59.8796 97.2196 59.551L97.6248 58.5544C98.282 58.8391 99.0158 59.0144 99.6072 59.0144C100.429 59.0144 100.823 58.642 101.02 57.6891L101.162 56.9882H101.13C100.648 57.5796 100.111 57.8534 99.432 57.8534C98.1067 57.8534 97.1758 56.8348 97.1758 55.3782C97.1758 53.7025 98.3477 52.4648 99.9248 52.4648C100.812 52.4648 101.491 52.8482 101.798 53.5272H101.831ZM99.8044 56.8348C100.845 56.8348 101.601 56.0572 101.601 54.9948C101.601 54.0748 101.02 53.4834 100.111 53.4834C99.0815 53.4834 98.3148 54.2829 98.3148 55.3672C98.3148 56.2653 98.8844 56.8348 99.8044 56.8348Z" fill="#0D0E4D"/>
<path d="M96.3986 55.3453H92.2915V55.3563C92.2915 56.331 92.7734 56.8239 93.7262 56.8239C94.3943 56.8239 94.9419 56.5829 95.5443 56.0244L96.1686 56.8239C95.4019 57.5248 94.6353 57.8425 93.7262 57.8425C92.1929 57.8425 91.251 56.9334 91.251 55.4548C91.251 53.7134 92.4886 52.4648 94.2081 52.4648C95.6319 52.4648 96.4753 53.2644 96.4753 54.6115C96.4753 54.8087 96.4534 55.0058 96.3986 55.3453ZM94.1534 53.3739C93.31 53.3739 92.6857 53.8229 92.4229 54.5458H95.4238V54.491C95.4238 53.7791 94.9638 53.3739 94.1534 53.3739Z" fill="#0D0E4D"/>
<path d="M89.4458 53.5272L90.1139 50.0225H91.1872L89.7086 57.6891H88.6353L88.7777 56.9882H88.7448C88.2629 57.5796 87.7263 57.8534 87.0472 57.8534C85.722 57.8534 84.791 56.8348 84.791 55.3782C84.791 53.7025 85.9629 52.4648 87.5401 52.4648C88.4272 52.4648 89.1063 52.8482 89.4129 53.5272H89.4458ZM87.4196 56.8348C88.4601 56.8348 89.2158 56.0572 89.2158 54.9948C89.2158 54.0748 88.6353 53.4834 87.7263 53.4834C86.6967 53.4834 85.9301 54.2829 85.9301 55.3672C85.9301 56.2653 86.4996 56.8348 87.4196 56.8348Z" fill="#0D0E4D"/>
<path d="M81.0735 57.8534C79.5402 57.8534 78.5654 56.9225 78.5654 55.4658C78.5654 53.7353 79.8578 52.4648 81.5992 52.4648C83.1326 52.4648 84.1073 53.3958 84.1073 54.8525C84.1073 56.5829 82.815 57.8534 81.0735 57.8534ZM81.1721 56.802C82.2235 56.802 82.9683 56.0134 82.9683 54.9182C82.9683 54.042 82.4207 53.5163 81.5007 53.5163C80.4492 53.5163 79.7045 54.3048 79.7045 55.4001C79.7045 56.2763 80.2521 56.802 81.1721 56.802Z" fill="#0D0E4D"/>
<path d="M77.3236 52.6291H78.7584L76.2613 55.0496L78.1232 57.6891H76.8089L75.1441 55.2248L74.6622 57.6891H73.5889L75.0784 50.0225H76.1517L75.2317 54.7648L77.3236 52.6291Z" fill="#0D0E4D"/>
<path d="M67.5245 55.9475L69.4192 52.6289H70.635L66.3088 59.8903H65.1807L66.8345 57.1303L65.5969 52.6289H66.7469L67.5245 55.9475Z" fill="#0D0E4D"/>
<path d="M62.2181 57.8534C61.32 57.8534 60.6848 57.4591 60.3672 56.8129H60.3343L60.17 57.6891H59.0967L60.5753 50.0225H61.6486L61.0243 53.2425H61.0572C61.4843 52.7606 62.0429 52.4648 62.7438 52.4648C64.0253 52.4648 64.9891 53.3958 64.9891 54.8963C64.9891 56.5391 63.85 57.8534 62.2181 57.8534ZM61.9991 56.8348C63.1819 56.8348 63.85 55.871 63.85 54.9072C63.85 54.042 63.3243 53.4834 62.4153 53.4834C61.2324 53.4834 60.5643 54.4472 60.5643 55.411C60.5643 56.2763 61.09 56.8348 61.9991 56.8348Z" fill="#0D0E4D"/>
</svg>
