<svg width="115" height="39" viewBox="0 0 115 39" fill="none" xmlns="http://www.w3.org/2000/svg">
<g id="Supreme-logo 1">
<path id="Vector" d="M17.2999 9.5193C16.6465 8.3809 15.6764 7.65468 14.1915 7.65468C12.766 7.65468 11.2217 8.7342 10.9841 10.2063C10.3902 14.014 19.6955 12.4242 18.468 20.0004C17.7354 24.5148 14.3895 27.7337 9.73682 27.7337C6.58885 27.7337 4.5694 25.928 3.42108 23.3371L6.76704 20.5304C7.10361 22.2576 8.43011 23.8278 10.3308 23.8278C12.1522 23.8278 13.5381 22.2969 13.8153 20.5696C14.1519 18.2339 12.1126 17.5666 10.41 16.8796C7.69757 15.6824 5.75731 14.2103 6.33147 10.7166C6.94522 6.96772 10.2318 3.94507 14.0727 3.94507C16.0921 3.94507 18.7254 4.92645 19.8737 6.4574L17.2999 9.5193ZM24.9223 12.4242L23.6552 20.393C23.378 22.081 23.3186 24.083 25.4767 24.083C27.6149 24.083 28.2287 22.081 28.5058 20.393L29.7729 12.4242H34.0098L32.6239 21.0799C31.931 25.3588 29.3374 27.6159 24.9223 27.6159C20.5072 27.6159 18.6264 25.3784 19.3391 21.0799L20.725 12.4242H24.9223ZM45.1564 19.7453C45.4534 17.7629 44.4833 15.6431 42.3054 15.6431C40.1276 15.6431 38.4447 17.7629 38.1279 19.7453C37.8309 21.7277 38.8011 23.8867 40.9591 23.8867C43.1172 23.8867 44.8594 21.7277 45.1564 19.7453ZM39.5336 13.7589C40.6819 12.6205 42.345 11.9335 43.9091 11.9335C48.1064 11.9335 50.0664 15.8198 49.4329 19.6864C48.7993 23.6904 45.691 27.5963 41.2957 27.5963C39.791 27.5963 38.3061 26.929 37.633 25.7317H37.5736L36.1283 34.9566H31.9112L35.5145 12.4046H39.7514L39.5336 13.7589ZM55.61 13.9355H55.6694C56.7188 12.6401 58.0849 11.9335 59.6489 11.9335C60.2429 11.9335 60.8566 12.0905 61.3318 12.2868L60.2231 16.1927C59.7479 15.8198 59.154 15.6431 58.56 15.6627C55.6298 15.6627 54.8973 18.2339 54.5409 20.5107L53.4916 27.1252H49.2547L51.6107 12.4242H55.8476L55.61 13.9355ZM70.162 17.8414C70.1818 16.3497 69.469 14.8776 67.8257 14.8776C66.1429 14.8776 64.9549 16.3104 64.4996 17.8414H70.162ZM63.965 20.4322C63.6878 22.2969 64.064 24.397 66.2617 24.397C67.6475 24.397 68.6771 23.553 69.4294 22.395L73.2307 23.0231C71.7261 25.9672 68.8553 27.6159 65.7271 27.6159C61.1338 27.6159 58.8768 24.3774 59.5697 19.9219C60.3023 15.4665 63.2325 11.9531 68.0237 11.9531C72.8942 11.9531 74.4978 15.5253 73.7851 19.9612L73.6861 20.4715L63.965 20.4322ZM79.8236 13.7392H79.883C80.873 12.6205 82.2787 11.9727 83.7834 11.9335C85.6246 11.9335 86.9511 12.6793 87.6837 14.2299C88.832 12.7971 90.6535 11.9139 92.3561 11.9139C96.1376 11.9139 96.6128 14.7206 96.0981 17.9395L94.6528 27.1056H90.4159L91.6434 19.3723C91.8612 17.9395 92.3957 15.2702 90.3169 15.2702C88.0202 15.2702 87.5451 18.3517 87.2877 19.8827L86.1394 27.1056H81.9025L83.0904 19.6471C83.328 18.2143 84.0011 15.2702 81.7837 15.2702C79.4277 15.2702 79.0317 18.3321 78.7941 19.8827L77.6458 27.1056H73.4089L75.7649 12.4046H80.0018L79.8236 13.7392ZM107.423 17.8414C107.462 16.3497 106.73 14.8776 105.087 14.8776C103.404 14.8776 102.216 16.3104 101.76 17.8414H107.423ZM101.226 20.4322C100.949 22.2969 101.325 24.397 103.523 24.397C104.908 24.397 105.938 23.553 106.69 22.395L110.492 23.0231C108.987 25.9672 106.116 27.6159 103.008 27.6159C98.4145 27.6159 96.1574 24.3774 96.8504 19.9219C97.5829 15.4665 100.513 11.9531 105.304 11.9531C110.175 11.9531 111.779 15.5253 111.086 19.9612L110.987 20.4715L101.226 20.4322Z" fill="white"/>
</g>
</svg>
