<svg width="81" height="31" viewBox="0 0 81 31" fill="none" xmlns="http://www.w3.org/2000/svg">
<g clip-path="url(#clip0_2452_1966)">
<path d="M40.75 10.8581H35.8952V0.95752H31.2066L21.3821 14.5344H31.7704V20.6932H35.8831L35.8755 14.5344L38.0898 14.5299L40.7485 10.8581H40.75ZM28.4905 10.8581L31.7719 6.30869V10.8581H28.4905Z" fill="white"/>
<path d="M50.3262 20.6932H36.7366L45.3172 8.83749C45.757 8.19821 45.9641 7.8212 45.9641 7.15361C45.9641 6.58138 45.7736 6.03748 45.4154 5.58149C44.7035 4.67696 43.9327 4.63076 42.9366 4.63076H38.4219V0.95752H43.6319C44.6506 0.95752 46.7561 1.12889 48.4882 3.32836C49.3588 4.43406 49.8198 5.75733 49.8198 7.15212C49.8198 8.85835 49.1502 10.2561 48.523 11.1681L44.0083 17.02H50.3262V20.6917V20.6932Z" fill="white"/>
<path d="M29.642 17.0185H19.5878L16.9261 20.6933H24.5212C24.0662 21.4607 23.6204 22.0061 22.721 22.8823C20.7123 24.8404 17.8541 25.8701 15.0292 25.8701C13.5223 25.8701 12.0622 25.5616 10.7246 24.973C9.55623 24.4604 8.4831 23.7347 7.55204 22.8167C5.93629 21.2238 4.9085 19.2076 4.57447 17.0215C4.49587 16.5044 4.45506 15.9784 4.45506 15.4449C4.45506 12.6598 5.5554 10.0416 7.55204 8.07309C9.54868 6.10458 12.2043 5.01975 15.0292 5.01975C16.388 5.01975 17.7075 5.27009 18.9333 5.74993C20.2558 6.26701 21.4816 7.0106 22.7634 8.33535L25.1923 4.97653C22.5533 2.48498 18.9741 0.95459 15.0307 0.95459C6.9142 0.95459 0.333313 7.44275 0.333313 15.4449C0.333313 15.9769 0.363542 16.5029 0.419466 17.0215C0.960568 21.9584 4.01674 26.1502 8.2987 28.3288C10.315 29.3556 12.6048 29.9352 15.0307 29.9352C22.6077 29.9352 28.844 24.2816 29.642 17.0215H29.639L29.642 17.0185Z" fill="white"/>
<path d="M37.8386 24.3455V29.95H36.5554V27.597H33.209V29.95H31.9183V24.3455H33.209V26.4823H36.5554V24.3455H37.8386Z" fill="white"/>
<path d="M42.9383 28.4524L43.3283 29.3643C42.695 29.8203 41.9634 30.0453 41.2576 30.0453C39.9184 30.0453 38.7153 29.2928 38.7153 27.7803C38.7153 26.4108 39.666 25.4512 41.1835 25.4512C42.701 25.4512 43.4084 26.4123 43.4658 27.6045L43.4734 27.9323H39.9078C39.9804 28.7087 40.5895 29.029 41.2969 29.029C41.8244 29.029 42.4425 28.8443 42.9368 28.4524H42.9383ZM39.9819 27.2274H42.3201C42.2234 26.7476 41.8092 26.4272 41.1744 26.4272C40.6303 26.4272 40.1678 26.6999 39.9804 27.2274H39.9819Z" fill="white"/>
<path d="M48.5174 27.3154V29.95H47.3082V28.8607C46.8941 29.6132 46.2199 30.0215 45.3917 30.0215C44.71 30.0215 44.1009 29.6937 44.1009 28.9724C44.1009 27.755 46.1308 27.3154 47.2916 27.1232C47.2099 26.6433 46.8366 26.4585 46.2925 26.4585C45.6909 26.4585 45.0334 26.691 44.5709 26.995L44.1976 26.0666C44.7901 25.6986 45.5534 25.4497 46.3499 25.4497C47.5032 25.4497 48.5174 25.9295 48.5174 27.3154ZM47.3082 27.7714C46.0658 28.0202 45.3841 28.2512 45.3841 28.6834C45.3841 28.9561 45.6607 29.0604 45.904 29.0604C46.5298 29.0604 47.2356 28.4196 47.3082 27.7714Z" fill="white"/>
<path d="M49.3862 24.0251H50.5803V29.95H49.3862V24.0251Z" fill="white"/>
<path d="M55.3701 29.357C54.7609 29.8458 54.2244 30.0455 53.6561 30.0455C52.7628 30.0455 51.9995 29.6208 51.9995 28.4197V26.4825H51.138V25.5452H51.9995V24.7852L53.2011 24.3367V25.5452H55.296V26.4825H53.2011V28.3318C53.2011 28.7565 53.3719 28.989 53.7936 28.989C54.2153 28.989 54.5977 28.7252 54.8985 28.4689L55.3701 29.357Z" fill="white"/>
<path d="M60.585 27.4749V29.9486H59.3834V27.6671C59.3834 26.931 59.066 26.5465 58.4327 26.5465C57.7268 26.5465 57.1494 27.1709 57.1494 28.6357V29.9486H55.9554V24.0237H57.1494V26.7611C57.4336 25.9922 58.0185 25.4483 58.8468 25.4483C59.9275 25.4483 60.585 26.1442 60.585 27.4734V27.4749Z" fill="white"/>
<path d="M61.2591 27.7311C61.2591 26.2738 62.364 25.4497 63.8165 25.4497C64.5072 25.4497 65.1314 25.6255 65.7738 25.9787L65.343 26.9473C64.8639 26.6031 64.3848 26.4511 63.8331 26.4511C63.1031 26.4511 62.4849 26.8996 62.4849 27.7162C62.4849 28.5328 63.094 29.0127 63.8255 29.0127C64.3772 29.0127 64.8564 28.8368 65.3597 28.4926L65.8071 29.4612C65.1329 29.877 64.4755 30.0454 63.8014 30.0454C62.3564 30.0454 61.2591 29.1811 61.2591 27.7311Z" fill="white"/>
<path d="M70.799 27.3154V29.95H69.5884V28.8607C69.1742 29.6132 68.5001 30.0215 67.6718 30.0215C66.9902 30.0215 66.381 29.6937 66.381 28.9724C66.381 27.755 68.4109 27.3154 69.5717 27.1232C69.4901 26.6433 69.1168 26.4585 68.5727 26.4585C67.9711 26.4585 67.3136 26.691 66.8511 26.995L66.4778 26.0666C67.0703 25.6986 67.8336 25.4497 68.6301 25.4497C69.7833 25.4497 70.799 25.9295 70.799 27.3154ZM69.5884 27.7714C68.3459 28.0202 67.6643 28.2512 67.6643 28.6834C67.6643 28.9561 67.9409 29.0604 68.1842 29.0604C68.81 29.0604 69.5158 28.4196 69.5884 27.7714Z" fill="white"/>
<path d="M75.3546 25.6345L75.1112 26.7C74.9571 26.6195 74.6729 26.5405 74.3646 26.5405C73.4396 26.5405 72.8622 27.3005 72.8622 28.6387V29.9515H71.6681V25.5481H72.8622V26.773C73.1297 26.013 73.6738 25.4766 74.4946 25.4766C74.8195 25.4766 75.152 25.5481 75.3561 25.636L75.3546 25.6345Z" fill="white"/>
<path d="M79.7967 28.4524L80.1867 29.3643C79.5534 29.8203 78.8219 30.0453 78.116 30.0453C76.7753 30.0453 75.5737 29.2928 75.5737 27.7803C75.5737 26.4108 76.5244 25.4512 78.0419 25.4512C79.5594 25.4512 80.2668 26.4123 80.3242 27.6045L80.3318 27.9323H76.7678C76.8403 28.7087 77.4495 29.029 78.1568 29.029C78.6843 29.029 79.3025 28.8443 79.7967 28.4524ZM76.8403 27.2274H79.1786C79.0818 26.7476 78.6677 26.4272 78.0344 26.4272C77.4903 26.4272 77.0278 26.6999 76.8403 27.2274Z" fill="white"/>
</g>
<defs>
<clipPath id="clip0_2452_1966">
<rect width="80" height="29.0909" fill="white" transform="translate(0.333313 0.95459)"/>
</clipPath>
</defs>
</svg>
