<svg width="98" height="33" viewBox="0 0 98 33" fill="none" xmlns="http://www.w3.org/2000/svg">
<path d="M37.4048 28.3379C33.7918 26.0104 28.8884 25.602 20.9806 27.7959C12.5504 29.777 9.73961 31.0469 6.04827 28.4976C4.63014 27.2453 4.1217 25.2289 4.50136 22.3244C5.38193 17.5896 7.76158 13.0331 11.9885 7.97888C14.3478 5.34968 16.5364 3.09334 19.4262 2.18728C21.641 1.61889 21.434 3.35951 21.166 3.60845C20.8832 3.60845 20.4081 3.65299 20.041 3.89259C19.743 4.12368 18.9251 4.86989 18.8811 5.87365C18.8178 7.41024 20.4079 7.09042 21.0938 6.24675C21.833 5.29603 22.9257 3.47542 22.0662 1.77862C21.706 1.17466 21.0836 0.757258 20.3108 0.615129C17.6646 0.463898 15.2002 1.72534 12.9257 3.11992C7.95153 6.57531 3.97254 11.3633 1.72105 16.6042C0.423081 19.7663 -0.750846 24.296 1.00871 27.9827C2.37004 30.5408 5.19598 31.8996 8.56763 31.6154C10.9324 31.367 13.7918 30.6027 15.715 30.1412C17.6383 29.6789 27.4826 26.295 30.7172 32.1847C30.7172 32.1847 31.7929 30.0967 34.4809 30.0522C36.6909 29.8482 39.8791 30.6919 42.2008 32.3971C41.4273 31.2338 39.2343 29.5194 37.4048 28.3379Z" fill="white"/>
<path d="M21.9844 8.57396C20.1432 7.36592 16.4425 9.67542 13.4784 13.6369C10.7679 17.1904 9.59749 21.3204 10.8713 23.2302C12.766 25.4774 16.2835 22.2087 17.7793 20.4591L17.9723 20.2546C18.9895 19.162 19.7753 17.8473 20.5361 16.5857C20.5361 16.5857 21.2352 15.431 21.2685 15.3776C21.7006 15.2979 22.2211 15.1735 22.8076 15.0047C22.7992 15.0312 20.5637 18.7887 20.7918 20.6537C20.8628 21.2227 20.8087 23.3012 22.8379 23.9317C25.5426 24.3851 27.7023 22.2885 29.6077 20.4231C29.6077 20.4231 29.9323 20.1125 30.116 19.9351C30.0695 20.1211 30.0089 20.3693 30.0089 20.3693C29.2171 23.123 30.2844 23.7009 30.9521 23.914C32.97 24.5007 35.3806 21.5692 35.3884 21.5692C35.3258 22.4926 35.1432 23.2564 36.1166 23.8695C37.0352 24.1984 37.9651 23.6969 38.672 23.2261C41.2178 21.4319 43.2688 18.6236 44.9253 16.1962H43.8686C43.8561 16.1962 41.2612 19.9574 39.5762 20.7748C39.5735 20.7748 39.2668 20.9322 39.0902 20.8077C38.8714 20.6212 38.9577 20.2331 39.0928 19.9583C39.1013 19.9405 45.5989 8.67105 45.5989 8.67105H42.5311C42.5311 8.67105 42.1959 9.21323 42.1686 9.24879C42.148 9.23107 42.0988 9.13786 42.0649 9.09319C40.1641 6.46399 35.8599 10.5082 32.6193 15.198C31.3717 17.0014 29.7833 19.0319 28.1362 20.4975C28.1362 20.4975 25.6961 22.7341 24.6537 21.1272C24.2726 20.452 24.3898 19.4648 24.6048 18.8166C25.8186 15.3611 27.9102 12.2251 30.2905 10.333C30.9623 9.8093 31.6927 9.65782 32.055 9.87994C32.4005 10.0846 32.4562 10.5905 32.2377 10.937C31.6834 10.9193 31.2392 11.0877 30.8782 11.4608C30.1669 12.207 29.9198 12.9267 30.146 13.6019C31.2445 15.1652 33.4354 12.0739 33.3295 10.1908C33.2916 9.51557 32.9315 8.87618 32.3938 8.56497C31.5926 8.08555 30.3704 8.20971 29.5794 8.59192C28.5204 8.99148 26.8443 10.3859 25.8659 11.4698C24.6342 12.8291 22.5217 14.339 21.8612 14.1699C22.0771 13.5924 23.8615 9.94172 21.9844 8.57396ZM36.7751 13.9746C37.3719 13.1487 39.1089 10.9367 39.5324 10.5638C40.9566 9.31082 41.5258 9.86209 41.5751 10.2527C40.2459 12.6332 38.6772 15.3603 37.2023 17.8121C37.2053 17.8033 36.7407 18.5137 36.7407 18.5137C36.0893 19.5083 35.4334 20.3612 34.3634 20.9561C34.2109 21.0009 33.9594 21.0188 33.792 20.8939C33.5905 20.7606 33.511 20.5385 33.5337 20.3075C33.5979 19.5438 34.3755 17.2081 36.7751 13.9746ZM20.0856 15.4046C20.0856 15.4046 20.0588 15.4849 20.0457 15.5111C20.0423 15.5111 18.708 17.6871 18.708 17.6871C17.9029 18.7621 16.8975 20.1126 15.6408 20.7607C15.2683 20.885 14.7533 20.9652 14.4909 20.6368C13.9347 19.9705 14.2213 19.0466 14.4543 18.3006L14.5368 18.0341C15.2046 16.2222 16.2641 14.623 17.2955 13.1396C17.3084 13.1308 17.3373 13.122 17.3477 13.122C17.3502 13.1308 17.3544 13.1308 17.3561 13.1487C18.0032 14.392 19.2167 14.9691 20.1242 15.236C20.1297 15.236 20.1356 15.2449 20.1356 15.2627C20.1358 15.2892 20.121 15.325 20.0856 15.4046ZM21.3496 12.8378C21.3437 12.8555 20.7554 14.2057 20.7554 14.2057C20.6703 14.2767 20.5358 14.2413 20.3817 14.2057L20.1176 14.161C19.2882 13.9036 18.6627 13.3528 18.4698 12.6956C18.2039 11.4164 19.2966 10.4126 19.778 10.0486C20.2399 9.72858 20.9581 9.55987 21.3751 9.88868C21.6323 10.1908 21.7298 10.5815 21.7298 11.0081C21.7299 11.5852 21.5517 12.2336 21.3496 12.8378ZM60.1334 16.9591C59.8375 16.3197 59.1353 15.911 58.387 15.9553C55.9567 16.1775 53.5796 18.1761 52.3314 21.045C51.6764 22.5197 51.319 23.7365 51.0846 25.6728C51.8404 24.8026 53.3819 23.3726 55.1311 22.5908C55.1311 22.5908 55.3691 20.7344 56.5829 19.0821C57.0421 18.3979 57.9612 17.2966 58.9932 17.5896C59.895 17.8917 59.578 20.3879 58.3796 22.8034C57.4928 24.5802 56.1358 26.3573 54.7629 27.5828C53.549 28.6131 51.753 29.8567 50.1817 28.8975C49.192 28.3115 48.6873 27.0853 48.7938 25.5043C49.2667 21.0186 51.3087 17.199 54.2308 12.8466C57.2437 8.80493 60.565 4.65674 65.0392 2.44458C65.9518 1.98275 66.7969 1.87619 67.5275 2.16044C67.5275 2.16044 63.3275 4.46994 61.3254 8.74267C60.8161 9.82653 60.1078 11.2918 60.8211 12.5888C61.1938 13.2637 61.8556 13.3171 62.3885 13.2816C64.8426 12.7129 66.4281 10.4213 67.7235 8.32514C68.4746 6.73514 69.1421 5.15401 69.1421 3.39518C69.1421 3.18205 69.1311 2.89791 69.1131 2.68454C70.2855 2.06298 72.6898 3.16421 72.6898 3.16421C74.5685 3.78625 78.5689 6.85093 79.9183 7.43693C80.5765 6.67312 81.6582 5.51849 82.2674 4.941L81.3856 4.39906C79.974 3.53743 78.482 2.7201 77.0135 1.91187C73.6782 0.0911424 70.9633 0.730539 69.5817 1.22805C69.0387 1.42334 68.5425 1.59217 68.5425 1.59217C67.5172 0.472984 65.8354 0.579308 64.5963 0.881528C60.1402 2.16057 56.0029 5.27829 51.5673 10.688C48.3063 14.9252 46.2834 18.585 45.2053 22.2001C44.3742 24.6339 44.1217 28.2136 46.1501 30.3366C47.8747 32.1394 50.1615 31.7488 51.7762 31.1007C55.2751 29.3774 58.4197 25.6642 59.9867 21.3915C60.3649 20.1215 60.7845 18.3272 60.1334 16.9591ZM68.1789 3.57299C67.7157 8.88491 63.5867 12.003 62.565 12.2513C61.9459 12.3755 60.8894 12.1003 61.8326 9.87108C63.2214 6.86841 65.5927 4.31932 68.1367 3.01346C68.1987 3.23557 68.197 3.37734 68.1789 3.57299ZM92.6719 4.24783C90.4509 5.50939 88.1484 6.32636 85.3614 6.04222C84.5891 6.91295 83.837 7.81003 83.1438 8.73368C87.0556 9.72858 91.2025 7.51679 93.5154 5.4118C95.9622 3.28873 97.2167 0.615234 97.2167 0.615234C97.2167 0.615234 95.3828 2.71136 92.6719 4.24783ZM50.6977 8.6713H47.7842L46.1408 11.3415H49.0537L50.6977 8.6713Z" fill="white"/>
<path d="M85.3498 28.5851C85.0365 28.7982 84.5964 28.6344 84.7608 28.1459C85.1708 26.9023 86.8004 24.3681 86.8004 24.3681L91.3393 16.3178H88.2303C88.0825 16.5606 87.7665 17.1179 87.7665 17.1179C87.6227 16.8783 87.1926 16.3456 87.0155 16.2304C86.2559 15.7504 85.1416 15.9774 84.3728 16.4125C81.0303 18.367 78.5915 22.2285 76.6681 25.2399C76.6681 25.2399 74.6435 28.5874 73.5197 28.8363C72.6423 28.9074 72.7328 27.7255 72.7708 27.4501C73.1101 25.4601 73.8979 23.5682 74.6916 21.8538C76.3061 20.7346 78.1484 19.269 79.8227 17.6613C83.4564 14.1878 86.5198 10.2528 86.9675 9.37343C86.9675 9.37343 86.4829 9.47126 85.9106 9.48885C83.1151 13.3884 77.3945 19.0558 75.6602 19.8994C76.4285 18.0514 81.3925 9.23118 85.6165 5.01198L86.2813 4.37222C87.3092 3.36846 88.3741 2.33812 89.2041 2.16929C89.2917 2.16043 89.4046 2.16929 89.5021 2.37392C89.5391 3.15545 89.2481 3.73295 88.9144 4.39019L88.4466 5.34965C88.4466 5.34965 89.1092 5.22524 89.5444 5.08274C90.0492 4.13275 90.6085 3.06648 90.4023 1.79655C90.3336 1.38788 90.0377 1.07705 89.6511 1.00592C88.391 0.766086 87.0178 1.69848 85.9127 2.45379L85.8681 2.48025C80.1876 6.93054 75.391 13.3439 71.1973 22.1024C70.8934 22.333 69.7191 22.6086 69.5196 22.4752C69.9337 21.6227 70.4551 20.4766 70.716 19.233C70.7611 18.8775 70.8031 18.5136 70.8031 18.1583C70.8031 17.3938 70.6196 16.6745 69.9348 16.1774C69.1318 15.7776 68.1393 15.9643 67.4701 16.266C64.4725 17.5096 62.2321 20.5833 60.6152 23.1145C59.7457 24.7227 58.8787 26.4451 58.6387 28.4175C58.4696 29.9628 58.8138 30.9578 59.6925 31.4553C60.5961 31.9169 61.7333 31.4371 62.1801 31.2064C65.217 29.6074 67.339 26.401 69.0115 23.4695C69.078 23.4608 69.9912 23.4343 70.6821 23.2564C70.6912 23.2564 70.6951 23.2564 70.7104 23.2656C70.6708 23.3984 70.3138 24.4647 70.3138 24.4647C69.2538 27.5733 68.7635 29.6876 69.7649 30.94C71.1957 32.7077 73.5647 30.8781 75.4918 28.4615C75.0781 31.3571 76.5788 31.8105 77.7229 31.5886C79.037 31.2335 80.5013 29.8296 81.1809 29.1104C80.9627 29.9541 81.0219 31.4644 82.2175 31.6152C83.0367 31.7666 83.65 31.321 84.3595 30.9389C86.9045 29.553 89.9511 24.9351 90.7421 23.6H89.705C88.5805 25.2996 87.1496 27.5275 85.3498 28.5851ZM62.505 28.2758C62.3436 28.0359 62.2901 27.7737 62.2847 27.4902C62.2538 25.7483 64.1278 22.6293 65.4504 20.93H65.4532C66.0074 22.1438 67.2626 22.924 68.0204 23.2528C67.0794 25.3493 63.8517 29.8391 62.505 28.2758ZM68.5516 22.3155C68.462 22.3781 66.8792 21.8448 66.5732 20.3792C66.3137 19.1174 67.1826 18.1315 68.0233 17.6346C68.3841 17.3501 68.9276 17.2528 69.3263 17.3943C69.6964 17.6435 69.7967 18.0879 69.7967 18.5668C69.7967 18.8605 69.7577 19.1622 69.7234 19.4375L69.7158 19.4999C69.4507 20.4847 69.0594 21.4311 68.5516 22.3155ZM81.2469 27.7163C81.2456 27.7163 80.9466 27.9827 80.9466 27.9827C80.5196 28.3645 80.0802 28.7731 79.5498 28.5687C79.4033 28.5155 79.3002 28.3202 79.2755 28.1688C79.2513 27.0762 79.7433 26.0638 80.2205 25.0779L80.3428 24.8202C81.7153 22.5285 83.3107 19.8282 85.6537 17.9542C86.0485 17.6693 86.4769 17.43 86.9292 17.6166C87.0332 17.7142 87.1543 17.8831 87.1543 18.0517C87.1543 18.1052 87.1068 18.2472 87.0794 18.2915C86.425 19.349 85.8019 20.4591 85.1958 21.525C84.0115 23.6302 82.7828 25.8061 81.2469 27.7163Z" fill="white"/>
</svg>
