<svg width="80" height="39" viewBox="0 0 80 39" fill="none" xmlns="http://www.w3.org/2000/svg">
<g id="Reader&#39;s-Digest-Logo 1">
<g id="layer1">
<g id="g1016">
<path id="path1018" d="M23.83 7.27263C25.2002 7.22284 26.2362 6.57867 26.2362 5.30691C26.2362 4.08494 25.2337 3.50564 23.6469 3.50564H22.1088V7.32241L23.83 7.27263ZM22.1088 12.5422H20.6898V2.21729C20.6898 2.21729 23.7964 2.21729 23.8132 2.21729C26.3369 2.21729 27.6567 3.40607 27.6567 5.23903C27.6567 6.7944 26.7367 7.75086 25.3009 8.214L28.1236 12.5422H26.4376L23.8971 8.44482L22.1088 8.56098V12.5422Z" fill="white"/>
</g>
<g id="g1020">
<path id="path1022" d="M33.1055 8.05258V7.94094C33.1055 6.85776 32.605 6.14117 31.4805 6.14117C30.2613 6.14117 29.5442 7.12931 29.4359 8.08426L33.1055 8.05258ZM29.3733 9.10407C29.4191 10.5373 30.3559 11.5571 31.7292 11.5571C32.4799 11.5571 33.2916 11.3489 33.8699 10.9506L34.1034 12.162C33.464 12.5603 32.605 12.767 31.7002 12.767C29.5442 12.767 28.0764 11.189 28.0764 8.96076C28.0764 6.6028 29.6068 4.99463 31.6056 4.99463C33.3389 4.99463 34.3383 6.10949 34.3383 7.8459C34.3383 8.24417 34.2758 8.68921 34.1812 9.00903C34.1674 9.00903 29.3733 9.0392 29.3733 9.0392V9.10407Z" fill="white"/>
</g>
<g id="g1024">
<path id="path1026" d="M39.3994 8.8974C37.2755 9.18403 36.4958 9.62907 36.4958 10.5207C36.4958 11.1739 36.9795 11.6521 37.7592 11.6521C38.4168 11.6521 38.9951 11.3187 39.3994 10.8722V8.8974ZM39.3842 11.7472C38.8379 12.4004 38.1818 12.767 37.4174 12.767C36.0747 12.767 35.1378 11.8588 35.1378 10.6806C35.1378 9.37411 36.0579 8.22757 39.3994 8.06917V7.86098C39.3994 6.68276 38.9478 6.20453 37.7912 6.20453C37.0573 6.20453 36.1525 6.55453 35.4796 7.01767L35.2309 5.83794C35.855 5.3929 36.9017 4.99463 37.9179 4.99463C39.8526 4.99463 40.7132 5.83794 40.6811 7.8293V10.8872C40.6811 11.4922 40.7589 11.6038 41.383 11.6038L41.3052 12.7036C40.1486 12.7987 39.6344 12.3838 39.4467 11.7472H39.3842Z" fill="white"/>
</g>
<g id="g1028">
<path id="path1030" d="M54.2091 8.05258V7.94094C54.2091 6.85776 53.7086 6.14117 52.5841 6.14117C51.3665 6.14117 50.6494 7.12931 50.5395 8.08426L54.2091 8.05258ZM50.4785 9.10407C50.5242 10.5373 51.4611 11.5571 52.8343 11.5571C53.5835 11.5571 54.3953 11.3489 54.9735 10.9506L55.2085 12.162C54.5692 12.5603 53.7086 12.767 52.8038 12.767C50.6494 12.767 49.1815 11.189 49.1815 8.96076C49.1815 6.6028 50.7119 4.99463 52.7107 4.99463C54.4426 4.99463 55.442 6.10949 55.442 7.8459C55.442 8.24417 55.3809 8.68921 55.2879 9.00903C55.2711 9.00903 50.4785 9.0392 50.4785 9.0392V9.10407Z" fill="white"/>
</g>
<g id="g1032">
<path id="path1034" d="M57.8848 12.5286H56.6031V5.20282L57.8848 4.99463V6.286C58.3837 5.47286 58.9788 4.99463 59.8851 4.99463C60.3658 4.99463 60.851 5.12286 61.2279 5.36122L60.8983 6.58772C60.5061 6.34785 60.1171 6.25281 59.757 6.25281C59.0719 6.25281 58.4158 6.76422 57.8848 7.76594V12.5286Z" fill="white"/>
</g>
<g id="g1036">
<path id="path1038" d="M64.2414 12.7821C63.3671 12.7821 62.3982 12.5105 61.7436 12.0972L62.0701 10.9023C62.6652 11.3172 63.5395 11.5872 64.2734 11.5872C65.0851 11.5872 65.6955 11.2056 65.6955 10.5523C65.6955 9.81915 64.8502 9.58079 64.0064 9.34243C62.9917 9.0558 61.884 8.54589 61.884 7.20776C61.884 5.85454 63.0085 4.99463 64.4443 4.99463C65.2713 4.99463 66.1013 5.20131 66.7559 5.53622L66.4279 6.72953C65.8358 6.39462 64.9768 6.18794 64.3817 6.18794C63.6188 6.18794 63.1168 6.50776 63.1168 7.09612C63.1168 7.79611 63.8843 8.03598 64.7708 8.27585C65.8191 8.56248 66.9436 9.07089 66.9436 10.4573C66.9436 11.8422 65.8038 12.7821 64.2414 12.7821Z" fill="white"/>
</g>
<g id="g1040">
<path id="path1042" d="M32.341 22.938C34.3643 22.938 35.6444 21.5048 35.6444 19.3731C35.6444 17.3727 34.465 15.941 32.106 15.941C30.0828 15.941 28.7355 17.4074 28.7355 19.5391C28.7355 21.5727 30.1164 22.938 32.341 22.938ZM27.4202 32.7032C27.4202 34.3355 29.3748 35.5363 32.309 35.5363C35.2065 35.5363 37.4983 34.3023 37.4983 32.4362C37.4983 30.7707 35.9816 30.3709 32.8812 30.3709C31.9031 30.3709 30.7572 30.303 30.0828 30.2366C28.5326 30.6696 27.4202 31.5687 27.4202 32.7032ZM25.9707 27.1711C25.9707 25.9039 26.9823 24.7392 28.5326 24.2037C26.9152 23.2714 25.9707 21.6059 25.9707 19.5059C25.9707 16.5068 28.2289 13.74 32.2403 13.74C33.8928 13.74 35.2401 14.173 36.2166 14.6074L40.196 14.2393L40.2967 16.9397L37.3305 16.4072C37.9362 16.9729 38.3757 18.4061 38.3757 19.5391C38.3757 22.6046 35.8123 25.1375 32.2068 25.1375C31.4316 25.1375 30.9586 25.038 30.0492 24.7709C29.4099 25.0048 28.5326 25.6037 28.5326 26.37C28.5326 27.2707 29.1398 27.8032 32.0374 27.8032C32.0374 27.8032 33.7906 27.8032 33.4533 27.8032C38.072 27.8032 40.196 29.2032 40.196 31.9036C40.196 35.2678 36.5203 37.7691 31.8695 37.7691C27.791 37.7691 24.6906 36.0357 24.6906 33.3006C24.6906 31.5687 25.87 30.1355 27.994 29.7358C26.6787 29.17 25.9707 28.2362 25.9707 27.1711Z" fill="white"/>
</g>
<g id="g1044">
<path id="path1046" d="M51.5816 20.1397V19.9059C51.5816 17.6399 50.5044 16.1404 48.0753 16.1404C45.4463 16.1404 43.8961 18.2072 43.6611 20.2076L51.5816 20.1397ZM43.5268 22.3408C43.6275 25.3384 45.6492 27.4715 48.6154 27.4715C50.2328 27.4715 51.9875 27.0386 53.2341 26.2058L53.7391 28.7373C52.3583 29.57 50.5044 30.0045 48.5483 30.0045C43.8961 30.0045 40.7285 26.7037 40.7285 22.039C40.7285 17.1074 44.0319 13.7417 48.3469 13.7417C52.0867 13.7417 54.2427 16.074 54.2427 19.7067C54.2427 20.5395 54.1099 21.4733 53.9085 22.1386C53.8749 22.1386 43.5268 22.2065 43.5268 22.2065V22.3408Z" fill="white"/>
</g>
<g id="g1048">
<path id="path1050" d="M61.3881 30.0377C59.4991 30.0377 57.4088 29.4704 55.9928 28.6045L56.7023 26.1047C57.9825 26.9722 59.8699 27.5379 61.4537 27.5379C63.2069 27.5379 64.5206 26.7368 64.5206 25.3716C64.5206 23.8388 62.7003 23.3395 60.8815 22.8386C58.6905 22.2397 56.298 21.1731 56.298 18.3731C56.298 15.5415 58.724 13.7417 61.826 13.7417C63.6112 13.7417 65.3964 14.1747 66.8155 14.8747L66.1059 17.3744C64.8243 16.6744 62.9704 16.24 61.6902 16.24C60.0393 16.24 58.9605 16.9083 58.9605 18.1408C58.9605 19.6072 60.6115 20.105 62.5325 20.6074C64.7907 21.2063 67.2183 22.2729 67.2183 25.1724C67.2183 28.0704 64.7571 30.0377 61.3881 30.0377Z" fill="white"/>
</g>
<g id="g1052">
<path id="path1054" d="M74.9145 30.0043C71.9147 30.0043 70.2928 28.5711 70.2989 25.2386L70.2943 16.7075L67.7263 16.5415L67.7797 14.8081L70.3187 14.0418L70.2943 10.7424H72.9553L72.9523 14.2409H77.7723L77.7403 16.7075H72.9202L72.9278 25.3397C72.937 26.7729 73.6313 27.5046 75.0121 27.5046C75.9581 27.5046 76.8935 27.2722 77.7952 26.9388C77.8288 26.9388 78.3674 29.3375 78.3674 29.3375C77.2337 29.7705 76.0604 30.0043 74.9145 30.0043Z" fill="white"/>
</g>
<g id="g1056">
<path id="path1058" d="M61.7543 5.3477V1.23071H64.5069L61.7543 5.3477Z" fill="white"/>
</g>
<g id="g1060">
<path id="path1062" d="M46.937 10.8555C46.4533 11.287 45.875 11.557 45.2037 11.557C43.8762 11.557 43.0797 10.4904 43.0797 8.88076C43.0797 7.38422 43.893 6.17432 45.3456 6.17432C45.9696 6.17432 46.5143 6.34932 46.937 6.69931C46.937 6.69931 46.937 10.9355 46.937 10.8555ZM46.937 5.23446C46.4854 5.09114 45.9055 4.99459 45.3913 4.99459C43.2521 4.99459 41.7523 6.69931 41.7523 8.91244C41.7523 11.112 42.9226 12.7669 44.9366 12.7669C45.782 12.7669 46.4228 12.3536 46.937 11.8603C46.937 11.9402 46.937 12.5286 46.937 12.5286H48.2187V1.25928H46.937V5.23446Z" fill="white"/>
</g>
<path id="path1064" d="M20.7386 14.241V29.5051H23.5025V14.241H20.7386Z" fill="white"/>
<g id="g1066">
<path id="path1068" d="M7.36787 26.871H5.69099L3.89815 29.324L3.89662 11.3083H7.2336C12.5587 11.3083 15.6592 14.0087 15.6592 19.1409C15.6592 24.2385 12.3909 26.871 7.36787 26.871ZM7.36787 8.67725C5.68336 8.67725 1.03113 8.67725 1.03113 8.67725V29.5051C1.03113 29.5051 5.54909 29.5051 7.2336 29.5051C14.4797 29.5051 18.5247 25.3715 18.5247 18.9403C18.5247 12.7414 14.3455 8.67725 7.36787 8.67725Z" fill="white"/>
</g>
</g>
</g>
</svg>
