<svg width="126" height="29" viewBox="0 0 126 29" fill="none" xmlns="http://www.w3.org/2000/svg">
<g clip-path="url(#clip0_2452_1985)">
<path d="M25.9211 26.1489C22.5354 27.9899 19.1416 29.0489 14.6727 28.9186C6.37684 28.6661 0.391602 23.4281 0.391602 14.6059C0.391602 5.82448 6.44102 0.203697 14.6808 0.0733595C18.8608 0.00819092 22.5915 1.07533 25.52 3.70651L21.9898 7.30707C20.1846 5.74302 17.529 4.83066 14.3358 4.96915C9.15283 5.21353 6.02382 9.05033 5.95161 14.2964C5.88743 19.9905 9.32934 23.9169 14.7128 24.0635C17.2562 24.1206 19.0614 23.7866 20.6339 23.0697V17.2534H15.0338L15.4109 12.4717H25.9131L25.9211 26.1489Z" fill="white"/>
<path fill-rule="evenodd" clip-rule="evenodd" d="M124.814 9.44134L124.445 13.8321H122.672C119.848 13.8321 118.387 16.1211 118.387 18.3206V28.2343H113.405V9.44134H118.139L118.243 11.7956C119.238 10.1826 120.971 9.44134 123.121 9.44134H124.814ZM90.1862 28.2343H85.1878V18.2961C85.1878 16.2107 85.0033 13.604 82.131 13.604C79.355 13.604 78.2478 15.6405 78.2478 18.0029V28.218H73.2494V9.44134H77.8948L77.9991 11.8363C78.9859 10.2315 80.8473 8.97701 83.5671 8.97701C88.6137 8.97701 90.1942 12.6346 90.1942 16.4144L90.1862 28.2343ZM71.0671 23.8517L70.7141 28.1284C69.5588 28.438 68.3634 28.6009 67.1599 28.5765C62.4503 28.5765 61.0784 26.377 61.0784 21.97V4.15454H66.0848V9.44948H71.0591L70.7141 13.8321H66.0848V21.5708C66.0848 23.3467 66.5582 24.2916 68.3553 24.2916C69.278 24.3079 70.2007 24.1531 71.0671 23.8517ZM59.4497 9.44948L59.0646 13.8321H57.7006C54.8926 13.8321 53.4885 16.1211 53.4885 18.3287V28.2343H48.4981V9.44948H53.2157L53.312 11.7956C54.3149 10.1989 56.0479 9.44948 58.1981 9.44948H59.4497ZM111.183 20.6422H97.4712C97.8643 23.0371 99.7257 24.4871 102.044 24.5604C104.299 24.6175 105.55 23.9332 107.203 22.2307L110.461 24.7397C108.15 27.6397 105.358 28.6905 102.181 28.6905C96.6127 28.6905 92.4407 24.7397 92.4407 18.8419C92.4407 12.9441 96.5967 8.99331 101.98 8.99331C107.925 8.99331 111.167 12.6509 111.167 19.1189L111.183 20.6422ZM106.176 16.6995C106.024 14.329 104.275 12.8301 101.86 12.9279C99.4449 13.0175 97.8082 14.6222 97.4792 16.6995H106.176ZM45.337 15.9338V28.2425H40.9243L40.82 26.3852C39.4722 28.0795 37.2738 28.6905 35.0113 28.6905C31.6095 28.6905 28.4003 26.9961 28.3281 23.029C28.2318 16.7972 35.244 16.3492 39.6487 16.3492H40.5392V16.0967C40.5392 14.0357 39.1913 12.9279 36.6641 12.9279C34.8188 12.936 33.0617 13.6447 31.7138 14.9236L28.8335 11.9503C31.1522 10.0034 34.0726 8.94443 37.0732 8.99331C42.8178 8.99331 45.337 11.6815 45.337 15.9338ZM40.5392 20.0394H39.8412C37.4744 20.0394 33.3184 20.1616 33.3345 22.6787C33.3585 26.2222 40.5392 25.0899 40.5392 20.8214V20.0394ZM122.88 28.5846C121.508 28.5683 120.401 27.436 120.417 26.043C120.417 24.6663 121.508 23.5503 122.872 23.5259C124.252 23.5015 125.376 24.6256 125.4 26.0186C125.424 27.4197 124.308 28.5602 122.937 28.5846C122.929 28.5846 122.904 28.5846 122.88 28.5846ZM120.923 26.1C120.923 27.2323 121.821 28.1529 122.937 28.1529C124.028 28.1529 124.926 27.2731 124.958 26.1652C124.998 25.0329 124.124 24.088 123.001 24.0554C121.894 24.0147 120.955 24.9026 120.923 26.043C120.923 26.0675 120.923 26.0919 120.923 26.1ZM122.423 27.5012H121.982V24.593H123.073C123.755 24.593 124.084 24.8456 124.084 25.4158C124.084 25.9371 123.779 26.1734 123.354 26.2222L124.156 27.5012H123.675L122.92 26.2467H122.407L122.423 27.5012ZM122.937 25.8801C123.298 25.8801 123.627 25.8475 123.627 25.4076C123.627 25.0329 123.314 24.9759 123.001 24.9759H122.415V25.872L122.937 25.8801Z" fill="white"/>
</g>
<defs>
<clipPath id="clip0_2452_1985">
<rect width="125" height="29" fill="white" transform="translate(0.391602)"/>
</clipPath>
</defs>
</svg>
