<svg width="89" height="90" viewBox="0 0 89 90" fill="none" xmlns="http://www.w3.org/2000/svg">
<rect y="0.686035" width="89" height="89" fill="#0057FF"/>
<g clip-path="url(#clip0_4836_100)">
<path d="M37.5009 68.04H22.5009C22.2024 68.04 21.9609 67.7985 21.9609 67.5V52.5C21.9609 52.2015 22.2024 51.96 22.5009 51.96H35.5329C35.7219 51.2685 36.2694 50.724 36.9609 50.5335V22.5C36.9609 22.2015 37.2024 21.96 37.5009 21.96H67.5009C67.7994 21.96 68.0409 22.2015 68.0409 22.5V52.5C68.0409 52.7985 67.7994 53.04 67.5009 53.04H39.4689C39.2799 53.7315 38.7324 54.276 38.0409 54.4665V67.5C38.0409 67.7985 37.7994 68.04 37.5009 68.04ZM23.8044 66.96H36.9609V54.468C36.7944 54.423 36.6369 54.357 36.4914 54.273L23.8044 66.96ZM23.0409 53.04V66.1965L35.7279 53.508C35.6454 53.3625 35.5794 53.2065 35.5344 53.04H23.0409ZM37.5009 51.54C36.9714 51.54 36.5409 51.9705 36.5409 52.5C36.5409 53.0295 36.9714 53.46 37.5009 53.46C38.0304 53.46 38.4609 53.0295 38.4609 52.5C38.4609 51.9705 38.0304 51.54 37.5009 51.54ZM39.4689 51.96H66.9609V23.04H38.0409V50.5335C38.2059 50.5785 38.3634 50.6445 38.5104 50.7285L59.7279 29.5095C59.5584 29.211 59.4609 28.8675 59.4609 28.5C59.4609 27.375 60.3759 26.46 61.5009 26.46C62.6259 26.46 63.5409 27.375 63.5409 28.5C63.5409 29.625 62.6259 30.54 61.5009 30.54C61.1349 30.54 60.7884 30.4425 60.4914 30.273L39.2739 51.4905C39.3564 51.6375 39.4224 51.7935 39.4689 51.96ZM61.5009 27.54C60.9714 27.54 60.5409 27.9705 60.5409 28.5C60.5409 29.0295 60.9714 29.46 61.5009 29.46C62.0304 29.46 62.4609 29.0295 62.4609 28.5C62.4609 27.9705 62.0304 27.54 61.5009 27.54Z" fill="white"/>
</g>
<defs>
<clipPath id="clip0_4836_100">
<rect width="48" height="48" fill="white" transform="translate(21 21)"/>
</clipPath>
</defs>
</svg>
