<svg width="89" height="90" viewBox="0 0 89 90" fill="none" xmlns="http://www.w3.org/2000/svg">
<rect y="0.686035" width="89" height="89" fill="#0057FF"/>
<g clip-path="url(#clip0_4836_102)">
<path d="M67.5009 67.726H22.5009C22.2024 67.726 21.9609 67.4845 21.9609 67.186V22.186C21.9609 21.8875 22.2024 21.646 22.5009 21.646H49.5009C49.7994 21.646 50.0409 21.8875 50.0409 22.186V26.146H58.5009C58.7994 26.146 59.0409 26.3875 59.0409 26.686V32.146H67.5009C67.7994 32.146 68.0409 32.3875 68.0409 32.686V67.186C68.0409 67.4845 67.7994 67.726 67.5009 67.726ZM50.0409 66.646H66.9609V33.226H50.0409V66.646ZM39.5409 66.646H48.9609V22.726H23.0409V66.646H32.4609V55.186C32.4609 54.8875 32.7024 54.646 33.0009 54.646H39.0009C39.2994 54.646 39.5409 54.8875 39.5409 55.186V66.646ZM33.5409 66.646H38.4609V55.726H33.5409V66.646ZM50.0409 32.146H57.9594V27.226H50.0409V32.146ZM62.0409 58.186H60.9609V55.186H62.0424L62.0409 58.186ZM56.0409 58.186H54.9609V55.186H56.0424L56.0409 58.186ZM45.5409 58.186H44.4609V55.186H45.5409V58.186ZM27.5409 58.186H26.4609V55.186H27.5409V58.186ZM62.0409 49.186H60.9609V46.186H62.0424L62.0409 49.186ZM56.0409 49.186H54.9609V46.186H56.0424L56.0409 49.186ZM45.5409 49.186H44.4609V46.186H45.5409V49.186ZM39.5409 49.186H38.4609V46.186H39.5409V49.186ZM33.5409 49.186H32.4609V46.186H33.5409V49.186ZM27.5409 49.186H26.4609V46.186H27.5409V49.186ZM62.0409 40.186H60.9609V37.186H62.0424L62.0409 40.186ZM56.0409 40.186H54.9609V37.186H56.0424L56.0409 40.186ZM45.5409 40.186H44.4609V37.186H45.5409V40.186ZM39.5409 40.186H38.4609V37.186H39.5409V40.186ZM33.5409 40.186H32.4609V37.186H33.5409V40.186ZM27.5409 40.186H26.4609V37.186H27.5409V40.186ZM45.5409 31.186H44.4609V28.186H45.5409V31.186ZM39.5409 31.186H38.4609V28.186H39.5409V31.186ZM33.5409 31.186H32.4609V28.186H33.5409V31.186ZM27.5409 31.186H26.4609V28.186H27.5409V31.186Z" fill="white"/>
</g>
<defs>
<clipPath id="clip0_4836_102">
<rect width="48" height="48" fill="white" transform="translate(21 20.686)"/>
</clipPath>
</defs>
</svg>
