<svg width="89" height="90" viewBox="0 0 89 90" fill="none" xmlns="http://www.w3.org/2000/svg">
<rect y="0.37793" width="89" height="89" fill="#0057FF"/>
<g clip-path="url(#clip0_4836_104)">
<path d="M42.0009 67.4179H24.0009C23.7024 67.4179 23.4609 67.1764 23.4609 66.8779V36.8779C23.4609 36.5794 23.7024 36.3379 24.0009 36.3379H42.0009C42.2994 36.3379 42.5409 36.5794 42.5409 36.8779V66.8779C42.5409 67.1764 42.2994 67.4179 42.0009 67.4179ZM24.5409 66.3379H41.4609V37.4179H24.5409V66.3379ZM66.0009 67.4179H48.0009C47.7024 67.4179 47.4609 67.1764 47.4609 66.8779V21.8779C47.4609 21.5794 47.7024 21.3379 48.0009 21.3379H66.0009C66.2994 21.3379 66.5409 21.5794 66.5409 21.8779V66.8779C66.5409 67.1764 66.2994 67.4179 66.0009 67.4179ZM48.5409 66.3379H65.4609V22.4179H48.5409V66.3379ZM30.5409 41.3779H29.4609V44.3779H30.5409V41.3779ZM36.5409 41.3779H35.4609V44.3779H36.5409V41.3779ZM30.5409 48.8779H29.4609V51.8779H30.5409V48.8779ZM36.5409 48.8779H35.4609V51.8779H36.5409V48.8779ZM30.5409 56.3779H29.4609V59.3779H30.5409V56.3779ZM36.5409 56.3779H35.4609V59.3779H36.5409V56.3779ZM54.5409 41.3779H53.4609V44.3779H54.5424L54.5409 41.3779ZM54.5409 33.8779H53.4609V36.8779H54.5424L54.5409 33.8779ZM60.5409 41.3779H59.4609V44.3779H60.5424L60.5409 41.3779ZM60.5409 33.8779H59.4609V36.8779H60.5424L60.5409 33.8779ZM54.5409 26.3779H53.4609V29.3779H54.5424L54.5409 26.3779ZM60.5409 26.3779H59.4609V29.3779H60.5424L60.5409 26.3779ZM54.5409 48.8779H53.4609V51.8779H54.5424L54.5409 48.8779ZM60.5409 48.8779H59.4609V51.8779H60.5424L60.5409 48.8779ZM54.5409 56.3779H53.4609V59.3779H54.5424L54.5409 56.3779ZM60.5409 56.3779H59.4609V59.3779H60.5424L60.5409 56.3779Z" fill="white"/>
</g>
<defs>
<clipPath id="clip0_4836_104">
<rect width="48" height="48" fill="white" transform="translate(21 20.3779)"/>
</clipPath>
</defs>
</svg>
