<svg width="89" height="90" viewBox="0 0 89 90" fill="none" xmlns="http://www.w3.org/2000/svg">
<rect y="0.37793" width="89" height="89" fill="#0057FF"/>
<g clip-path="url(#clip0_4836_105)">
<path d="M67.5009 67.4179H22.5009C22.2024 67.4179 21.9609 67.1764 21.9609 66.8779V21.8779C21.9609 21.5794 22.2024 21.3379 22.5009 21.3379H49.5009C49.7994 21.3379 50.0409 21.5794 50.0409 21.8779V25.8379H58.5009C58.7994 25.8379 59.0409 26.0794 59.0409 26.3779V31.8379H67.5009C67.7994 31.8379 68.0409 32.0794 68.0409 32.3779V66.8779C68.0409 67.1764 67.7994 67.4179 67.5009 67.4179ZM50.0409 66.3379H66.9609V32.9179H50.0409V66.3379ZM39.5409 66.3379H48.9609V22.4179H23.0409V66.3379H32.4609V54.8779C32.4609 54.5794 32.7024 54.3379 33.0009 54.3379H39.0009C39.2994 54.3379 39.5409 54.5794 39.5409 54.8779V66.3379ZM33.5409 66.3379H38.4609V55.4179H33.5409V66.3379ZM50.0409 31.8379H57.9594V26.9179H50.0409V31.8379ZM62.0409 57.8779H60.9609V54.8779H62.0424L62.0409 57.8779ZM56.0409 57.8779H54.9609V54.8779H56.0424L56.0409 57.8779ZM45.5409 57.8779H44.4609V54.8779H45.5409V57.8779ZM27.5409 57.8779H26.4609V54.8779H27.5409V57.8779ZM62.0409 48.8779H60.9609V45.8779H62.0424L62.0409 48.8779ZM56.0409 48.8779H54.9609V45.8779H56.0424L56.0409 48.8779ZM45.5409 48.8779H44.4609V45.8779H45.5409V48.8779ZM39.5409 48.8779H38.4609V45.8779H39.5409V48.8779ZM33.5409 48.8779H32.4609V45.8779H33.5409V48.8779ZM27.5409 48.8779H26.4609V45.8779H27.5409V48.8779ZM62.0409 39.8779H60.9609V36.8779H62.0424L62.0409 39.8779ZM56.0409 39.8779H54.9609V36.8779H56.0424L56.0409 39.8779ZM45.5409 39.8779H44.4609V36.8779H45.5409V39.8779ZM39.5409 39.8779H38.4609V36.8779H39.5409V39.8779ZM33.5409 39.8779H32.4609V36.8779H33.5409V39.8779ZM27.5409 39.8779H26.4609V36.8779H27.5409V39.8779ZM45.5409 30.8779H44.4609V27.8779H45.5409V30.8779ZM39.5409 30.8779H38.4609V27.8779H39.5409V30.8779ZM33.5409 30.8779H32.4609V27.8779H33.5409V30.8779ZM27.5409 30.8779H26.4609V27.8779H27.5409V30.8779Z" fill="white"/>
</g>
<defs>
<clipPath id="clip0_4836_105">
<rect width="48" height="48" fill="white" transform="translate(21 20.3779)"/>
</clipPath>
</defs>
</svg>
