<svg width="72" height="72" viewBox="0 0 72 72" fill="none" xmlns="http://www.w3.org/2000/svg">
<rect width="72" height="72" fill="#0057FF"/>
<g clip-path="url(#clip0_654_29)">
<path d="M37.5009 59.04H34.5009C34.2024 59.04 33.9609 58.7985 33.9609 58.5V57.54H25.5009C22.7214 57.54 20.4609 55.278 20.4609 52.5C20.4609 50.895 21.2139 49.464 22.3869 48.5385C18.8334 48.4785 15.9609 45.5685 15.9609 42C15.9609 39.318 17.5839 37.008 19.8984 36C17.5839 34.992 15.9609 32.682 15.9609 30C15.9609 26.4315 18.8334 23.5215 22.3869 23.4615C21.2154 22.5375 20.4609 21.105 20.4609 19.5C20.4609 16.7205 22.7214 14.46 25.5009 14.46H33.9609V13.5C33.9609 13.2015 34.2024 12.96 34.5009 12.96H37.5009C37.7994 12.96 38.0409 13.2015 38.0409 13.5V16.5C38.0409 16.7985 37.7994 17.04 37.5009 17.04H34.5009C34.2024 17.04 33.9609 16.7985 33.9609 16.5V15.54H25.5009C23.3169 15.54 21.5409 17.316 21.5409 19.5C21.5409 21.684 23.3169 23.46 25.5009 23.46H33.9609V22.5C33.9609 22.2015 34.2024 21.96 34.5009 21.96H37.5009C37.7994 21.96 38.0409 22.2015 38.0409 22.5V23.46H46.5009C48.6849 23.46 50.4609 21.6825 50.4609 19.5C50.4609 17.3175 48.6849 15.54 46.5009 15.54H43.5009V14.46H46.5009C49.2804 14.46 51.5409 16.7205 51.5409 19.5C51.5409 21.105 50.7864 22.5375 49.6134 23.4615C53.1684 23.523 56.0409 26.4315 56.0409 30C56.0409 32.682 54.4179 34.992 52.1019 36C54.4179 37.008 56.0409 39.318 56.0409 42C56.0409 45.5685 53.1684 48.4785 49.6134 48.5385C50.7864 49.4625 51.5409 50.8935 51.5409 52.5C51.5409 55.2795 49.2789 57.54 46.5009 57.54H43.5009V56.46H46.5009C48.6849 56.46 50.4609 54.684 50.4609 52.5C50.4609 50.316 48.6849 48.54 46.5009 48.54H38.0409V49.5C38.0409 49.7985 37.7994 50.04 37.5009 50.04H34.5009C34.2024 50.04 33.9609 49.7985 33.9609 49.5V48.54H25.5009C23.3169 48.54 21.5409 50.316 21.5409 52.5C21.5409 54.684 23.3169 56.46 25.5009 56.46H33.9609V55.5C33.9609 55.2015 34.2024 54.96 34.5009 54.96H37.5009C37.7994 54.96 38.0409 55.2015 38.0409 55.5V58.5C38.0409 58.7985 37.7994 59.04 37.5009 59.04ZM35.0409 57.96H36.9609V56.04H35.0409V57.96ZM35.0409 48.96H36.9609V47.04H35.0409V48.96ZM38.0409 47.46H49.5009C52.5114 47.46 54.9609 45.0105 54.9609 42C54.9609 38.9895 52.5114 36.54 49.5009 36.54H38.0409V37.5C38.0409 37.7985 37.7994 38.04 37.5009 38.04H34.5009C34.2024 38.04 33.9609 37.7985 33.9609 37.5V34.5C33.9609 34.2015 34.2024 33.96 34.5009 33.96H37.5009C37.7994 33.96 38.0409 34.2015 38.0409 34.5V35.46H49.5009C52.5114 35.46 54.9609 33.0105 54.9609 30C54.9609 26.9895 52.5114 24.54 49.5009 24.54H38.0409V25.5C38.0409 25.7985 37.7994 26.04 37.5009 26.04H34.5009C34.2024 26.04 33.9609 25.7985 33.9609 25.5V24.54H22.5009C19.4904 24.54 17.0409 26.9895 17.0409 30C17.0409 33.0105 19.4904 35.46 22.5009 35.46V36.54C19.4904 36.54 17.0409 38.9895 17.0409 42C17.0409 45.0105 19.4904 47.46 22.5009 47.46H33.9609V46.5C33.9609 46.2015 34.2024 45.96 34.5009 45.96H37.5009C37.7994 45.96 38.0409 46.2015 38.0409 46.5V47.46ZM35.0409 36.96H36.9609V35.04H35.0409V36.96ZM35.0409 24.96H36.9609V23.04H35.0409V24.96ZM35.0409 15.96H36.9609V14.04H35.0409V15.96ZM30.0009 36.54H22.5009V35.46H30.0009V36.54Z" fill="white"/>
</g>
<defs>
<clipPath id="clip0_654_29">
<rect width="48" height="48" fill="white" transform="translate(12 12)"/>
</clipPath>
</defs>
</svg>
