<svg width="651" height="465" viewBox="0 0 651 465" fill="none" xmlns="http://www.w3.org/2000/svg">
<path d="M199.285 220.886L194.086 245.364H120.652L136.256 171.931H160.734L150.329 220.886H199.285Z" fill="#0036C2"/>
<path d="M239.371 147.453L234.166 171.931L223.761 220.886H199.283L209.688 171.931H160.732L165.941 147.453H239.371Z" fill="#0036C2"/>
<path d="M346.155 220.89L340.953 245.367H267.52L283.127 171.934H307.604L297.2 220.89H346.155Z" fill="#0036C2"/>
<path d="M386.242 147.456L381.037 171.934L370.632 220.89H346.154L356.559 171.934H307.604L312.809 147.456H386.242Z" fill="#0036C2"/>
<path d="M257.112 294.32L251.91 318.797H178.477L194.084 245.364H218.561L208.157 294.32H257.112Z" fill="#0036C2"/>
<path d="M297.2 220.886L291.994 245.364L281.589 294.32H257.111L267.516 245.364H218.561L223.766 220.886H297.2Z" fill="#0036C2"/>
<path d="M378.271 74.2173L373.072 98.695H299.639L315.242 25.2617H339.72L329.316 74.2173H378.271Z" fill="#0036C2"/>
<path d="M418.358 0.78418L413.152 25.262L402.747 74.2175H378.27L388.674 25.262H339.719L344.928 0.78418H418.358Z" fill="#0036C2"/>
<path d="M525.142 74.2207L519.939 98.6985H446.506L462.113 25.2651H486.591L476.186 74.2207H525.142Z" fill="#0036C2"/>
<path d="M565.229 0.787598L560.023 25.2654L549.618 74.2209H525.141L535.545 25.2654H486.59L491.795 0.787598H565.229Z" fill="#0036C2"/>
<path d="M436.099 147.651L430.896 172.128H357.463L373.07 98.6951H397.548L387.143 147.651H436.099Z" fill="#0036C2"/>
<path d="M476.186 74.2175L470.98 98.6953L460.576 147.651H436.098L446.502 98.6953H397.547L402.752 74.2175H476.186Z" fill="#0036C2"/>
<path d="M404.007 294.32L398.808 318.797H325.375L340.979 245.364H365.457L355.052 294.32H404.007Z" fill="#0036C2"/>
<path d="M444.094 220.886L438.888 245.364L428.484 294.32H404.006L414.411 245.364H365.455L370.664 220.886H444.094Z" fill="#0036C2"/>
<path d="M550.878 294.323L545.676 318.801H472.242L487.849 245.367H512.327L501.922 294.323H550.878Z" fill="#0036C2"/>
<path d="M590.965 220.89L585.759 245.367L575.355 294.323H550.877L561.282 245.367H512.326L517.532 220.89H590.965Z" fill="#0036C2"/>
<path d="M461.835 367.753L456.633 392.231H383.199L398.806 318.798H423.284L412.879 367.753H461.835Z" fill="#0036C2"/>
<path d="M501.922 294.32L496.717 318.798L486.312 367.753H461.834L472.239 318.798H423.283L428.489 294.32H501.922Z" fill="#0036C2"/>
<path d="M299.242 441.186L294.043 465.664H220.609L236.213 392.231H260.691L250.286 441.186H299.242Z" fill="#0036C2"/>
<path d="M339.328 367.753L334.123 392.231L323.718 441.186H299.24L309.645 392.231H260.689L265.898 367.753H339.328Z" fill="#0036C2"/>
<path d="M446.112 441.19L440.91 465.667H367.477L383.084 392.234H407.561L397.157 441.19H446.112Z" fill="#0036C2"/>
<path d="M486.199 367.756L480.994 392.234L470.589 441.19H446.111L456.516 392.234H407.561L412.766 367.756H486.199Z" fill="#0036C2"/>
<path d="M397.157 441.187L391.951 465.664L381.546 514.62H357.068L367.473 465.664H318.518L323.723 441.187H397.157Z" fill="#0036C2"/>
<path d="M79.1324 441.304L73.9333 465.782H0.5L16.1038 392.349H40.5815L30.1769 441.304H79.1324Z" fill="#0036C2"/>
<path d="M119.219 367.871L114.013 392.349L103.609 441.304H79.1309L89.5356 392.349H40.5801L45.789 367.871H119.219Z" fill="#0036C2"/>
<path d="M226.003 441.308L220.801 465.785H147.367L162.974 392.352H187.452L177.047 441.308H226.003Z" fill="#0036C2"/>
<path d="M266.09 367.874L260.884 392.352L250.48 441.308H226.002L236.407 392.352H187.451L192.657 367.874H266.09Z" fill="#0036C2"/>
<path d="M177.047 441.304L171.842 465.782L161.437 514.738H136.959L147.364 465.782H98.4082L103.614 441.304H177.047Z" fill="#0036C2"/>
<path d="M519.543 440.357L514.343 464.835H440.91L456.514 391.402H480.992L470.587 440.357H519.543Z" fill="#0036C2"/>
<path d="M559.629 366.924L554.424 391.402L544.019 440.358H519.541L529.946 391.402H480.99L486.199 366.924H559.629Z" fill="#0036C2"/>
<path d="M666.413 440.361L661.211 464.839H587.777L603.384 391.405H627.862L617.457 440.361H666.413Z" fill="#0036C2"/>
<path d="M706.5 366.928L701.295 391.406L690.89 440.361H666.412L676.817 391.406H627.861L633.067 366.928H706.5Z" fill="#0036C2"/>
<path d="M617.457 440.358L612.252 464.835L601.847 513.791H577.369L587.774 464.835H538.818L544.024 440.358H617.457Z" fill="#0036C2"/>
</svg>
