<svg width="84" height="21" viewBox="0 0 84 21" fill="none" xmlns="http://www.w3.org/2000/svg">
<g clip-path="url(#clip0_2452_2504)">
<path d="M17.1268 18.4323C14.8786 19.702 12.6252 20.4323 9.65784 20.3425C4.14937 20.1683 0.175171 16.5559 0.175171 10.4717C0.175171 4.41549 4.19199 0.539086 9.66317 0.449199C12.4387 0.404255 14.9159 1.14021 16.8604 2.95482L14.5164 5.43796C13.3177 4.35931 11.5544 3.7301 9.43409 3.8256C5.99263 3.99414 3.91497 6.64021 3.86702 10.2582C3.8244 14.1852 6.10983 16.893 9.68448 16.9941C11.3732 17.0335 12.5719 16.8031 13.6161 16.3087V12.2975H9.89757L10.148 8.99976H17.1214L17.1268 18.4323Z" fill="white"/>
<path fill-rule="evenodd" clip-rule="evenodd" d="M82.7916 6.90974L82.5465 9.93783H81.3692C79.494 9.93783 78.5244 11.5165 78.5244 13.0333V19.8704H75.2161V6.90974H78.3593L78.4285 8.53334C79.0891 7.42098 80.2398 6.90974 81.6675 6.90974H82.7916ZM59.7988 19.8704H56.4799V13.0165C56.4799 11.5783 56.3573 9.78053 54.4501 9.78053C52.6069 9.78053 51.8717 11.185 51.8717 12.8142V19.8592H48.5528V6.90974H51.6373L51.7066 8.56143C52.3618 7.45468 53.5978 6.58951 55.4037 6.58951C58.7546 6.58951 59.8041 9.11199 59.8041 11.7187L59.7988 19.8704ZM47.1037 16.8479L46.8693 19.7974C46.1022 20.0109 45.3084 20.1232 44.5093 20.1064C41.3822 20.1064 40.4712 18.5895 40.4712 15.5502V3.26367H43.7955V6.91536H47.0984L46.8693 9.93783H43.7955V15.2749C43.7955 16.4996 44.1098 17.1513 45.3031 17.1513C45.9157 17.1625 46.5284 17.0558 47.1037 16.8479ZM39.3897 6.91536L39.134 9.93783H38.2284C36.3638 9.93783 35.4315 11.5165 35.4315 13.039V19.8704H32.1179V6.91536H35.2504L35.3143 8.53334C35.9802 7.43221 37.131 6.91536 38.5587 6.91536H39.3897ZM73.7405 14.6345H64.636C64.8971 16.2861 66.133 17.2861 67.6726 17.3367C69.1696 17.376 70.0007 16.9041 71.0981 15.73L73.261 17.4603C71.7267 19.4603 69.8728 20.185 67.7632 20.185C64.066 20.185 61.2958 17.4603 61.2958 13.3929C61.2958 9.32547 64.0553 6.60075 67.63 6.60075C71.5775 6.60075 73.7298 9.12322 73.7298 13.5839L73.7405 14.6345ZM70.4162 11.9154C70.315 10.2805 69.1536 9.24682 67.5501 9.31423C65.9465 9.37603 64.8598 10.4828 64.6413 11.9154H70.4162ZM30.019 11.3873V19.876H27.0889L27.0197 18.5951C26.1247 19.7637 24.665 20.185 23.1627 20.185C20.9039 20.185 18.7729 19.0165 18.725 16.2805C18.6611 11.9828 23.3172 11.6738 26.2419 11.6738H26.8332V11.4996C26.8332 10.0783 25.9382 9.31423 24.2601 9.31423C23.0348 9.31985 21.8681 9.80862 20.9731 10.6906L19.0606 8.64008C20.6002 7.29738 22.5394 6.56704 24.5318 6.60075C28.3462 6.60075 30.019 8.45468 30.019 11.3873ZM26.8332 14.2187H26.3697C24.7982 14.2187 22.0386 14.303 22.0492 16.039C22.0652 18.4828 26.8332 17.7019 26.8332 14.7581V14.2187ZM81.5077 20.112C80.5967 20.1008 79.8616 19.3199 79.8722 18.3592C79.8722 17.4097 80.5967 16.6401 81.5024 16.6232C82.4187 16.6064 83.1645 17.3816 83.1805 18.3423C83.1965 19.3086 82.456 20.0951 81.545 20.112C81.5397 20.112 81.5237 20.112 81.5077 20.112ZM80.2078 18.3985C80.2078 19.1794 80.8045 19.8142 81.545 19.8142C82.2695 19.8142 82.8662 19.2075 82.8875 18.4434C82.9141 17.6625 82.3335 17.0109 81.5876 16.9884C80.8525 16.9603 80.2292 17.5727 80.2078 18.3592C80.2078 18.376 80.2078 18.3929 80.2078 18.3985ZM81.2041 19.3648H80.9111V17.3592H81.6356C82.0884 17.3592 82.3068 17.5333 82.3068 17.9266C82.3068 18.2861 82.1044 18.4491 81.822 18.4828L82.3548 19.3648H82.0351L81.5344 18.4996H81.1934L81.2041 19.3648ZM81.545 18.2468C81.7847 18.2468 82.0032 18.2243 82.0032 17.921C82.0032 17.6625 81.7954 17.6232 81.5876 17.6232H81.1987V18.2412L81.545 18.2468Z" fill="white"/>
</g>
<defs>
<clipPath id="clip0_2452_2504">
<rect width="83" height="20" fill="white" transform="translate(0.175171 0.398438)"/>
</clipPath>
</defs>
</svg>
