<svg width="331" height="378" viewBox="0 0 331 378" fill="none" xmlns="http://www.w3.org/2000/svg">
<rect x="0.175171" y="35.7783" width="330" height="342" fill="#00763D"/>
<path fill-rule="evenodd" clip-rule="evenodd" d="M65.0741 0.773438H51.2476L50.2863 5.3101H45.5846L42.7235 18.7097H56.8858L57.9011 13.9546H62.2809L65.0741 0.773438ZM57.9011 13.9546L59.7469 5.3101H50.2863L48.4544 13.9546H57.9011Z" fill="#00BA61"/>
<path fill-rule="evenodd" clip-rule="evenodd" d="M48.2275 13.9402H34.4011L33.4398 18.4763H28.738L25.8769 31.8758H40.0393L41.0544 27.1213H45.4343L48.2275 13.9402ZM41.0544 27.1213L42.9003 18.4763H33.4398L31.6079 27.1213H41.0544Z" fill="#00BA61"/>
<path fill-rule="evenodd" clip-rule="evenodd" d="M56.5258 40.3018L42.6993 40.3018L41.7379 44.8385H37.0362L34.1752 58.2381H48.3375L49.3528 53.4829H53.7325L56.5258 40.3018ZM49.3528 53.4829L51.1986 44.8385H41.7379L39.9061 53.4829H49.3528Z" fill="#00BA61"/>
<path fill-rule="evenodd" clip-rule="evenodd" d="M59.3722 27.1207H45.5457L44.5844 31.6574H39.8827L37.0216 45.0569H51.1839L52.1992 40.3018H56.579L59.3722 27.1207ZM52.1992 40.3018L54.045 31.6574H44.5844L42.7525 40.3018H52.1992Z" fill="#00BA61"/>
<path fill-rule="evenodd" clip-rule="evenodd" d="M45.5839 27.1207H31.7575L30.7961 31.6574H26.0944L23.2333 45.0569H37.3956L38.411 40.3018H42.7907L45.5839 27.1207ZM38.411 40.3018L40.2567 31.6574H30.7961L28.9643 40.3018H38.411Z" fill="#00BA61"/>
<path fill-rule="evenodd" clip-rule="evenodd" d="M42.5256 40.3242H28.6992L27.7378 44.8609H23.0361L20.175 58.2605H34.3374L35.3527 53.5053H39.7324L42.5256 40.3242ZM35.3527 53.5053L37.1984 44.8609H27.7378L25.906 53.5053H35.3527Z" fill="#00BA61"/>
<path fill-rule="evenodd" clip-rule="evenodd" d="M110.074 0.773438H96.2478L95.2864 5.3101H90.5847L87.7236 18.7097H101.886L102.901 13.9546H107.281L110.074 0.773438ZM102.901 13.9546L104.747 5.3101H95.2864L93.4545 13.9546H102.901Z" fill="#00BA61"/>
<path fill-rule="evenodd" clip-rule="evenodd" d="M93.2277 13.9402H79.4012L78.44 18.4763H73.7381L70.8771 31.8758H85.0394L86.0546 27.1213H90.4344L93.2277 13.9402ZM86.0546 27.1213L87.9004 18.4763H78.44L76.608 27.1213H86.0546Z" fill="#00BA61"/>
<path fill-rule="evenodd" clip-rule="evenodd" d="M101.526 40.3018L87.6994 40.3018L86.7381 44.8385H82.0364L79.1753 58.2381H93.3376L94.3529 53.4829H98.7327L101.526 40.3018ZM94.3529 53.4829L96.1987 44.8385H86.7381L84.9062 53.4829H94.3529Z" fill="#00BA61"/>
<path fill-rule="evenodd" clip-rule="evenodd" d="M104.372 27.1207H90.5459L89.5845 31.6574H84.8828L82.0217 45.0569H96.184L97.1993 40.3018H101.579L104.372 27.1207ZM97.1993 40.3018L99.0451 31.6574H89.5845L87.7526 40.3018H97.1993Z" fill="#00BA61"/>
<path fill-rule="evenodd" clip-rule="evenodd" d="M90.584 27.1207H76.7576L75.7962 31.6574H71.0945L68.2335 45.0569H82.3958L83.4111 40.3018H87.7908L90.584 27.1207ZM83.4111 40.3018L85.2568 31.6574H75.7962L73.9644 40.3018H83.4111Z" fill="#00BA61"/>
<path fill-rule="evenodd" clip-rule="evenodd" d="M87.5258 40.3242H73.6993L72.7379 44.8609H68.0362L65.1752 58.2605H79.3375L80.3528 53.5053H84.7325L87.5258 40.3242ZM80.3528 53.5053L82.1985 44.8609H72.7379L70.9061 53.5053H80.3528Z" fill="#00BA61"/>
</svg>
