<svg width="1512" height="708" viewBox="0 0 1512 708" fill="none" xmlns="http://www.w3.org/2000/svg">
<mask id="mask0_1159_1414" style="mask-type:alpha" maskUnits="userSpaceOnUse" x="0" y="0" width="1512" height="708">
<rect width="1512" height="708" fill="#0D0E4D"/>
</mask>
<g mask="url(#mask0_1159_1414)">
<rect width="1519" height="708" fill="#0D0E4D"/>
<path d="M1196.78 518.722L1191.59 542.443H1118.15L1133.76 471.281H1158.23L1147.83 518.722H1196.78Z" fill="#0036C2"/>
<path d="M1236.87 447.561L1231.67 471.281L1221.26 518.723H1196.78L1207.19 471.281H1158.23L1163.44 447.561H1236.87Z" fill="#0036C2"/>
<path d="M1343.66 518.726L1338.45 542.446H1265.02L1280.63 471.284H1305.1L1294.7 518.726H1343.66Z" fill="#0036C2"/>
<path d="M1383.74 447.564L1378.54 471.284L1368.13 518.726H1343.65L1354.06 471.284H1305.1L1310.31 447.564H1383.74Z" fill="#0036C2"/>
<path d="M1254.61 589.884L1249.41 613.605H1175.98L1191.58 542.443H1216.06L1205.66 589.884H1254.61Z" fill="#0036C2"/>
<path d="M1294.7 518.722L1289.49 542.443L1279.09 589.884H1254.61L1265.02 542.443H1216.06L1221.27 518.722H1294.7Z" fill="#0036C2"/>
<path d="M1375.77 376.59L1370.57 400.31H1297.14L1312.74 329.148H1337.22L1326.82 376.59H1375.77Z" fill="#0036C2"/>
<path d="M1415.86 305.428L1410.65 329.149L1400.25 376.59H1375.77L1386.17 329.149H1337.22L1342.43 305.428H1415.86Z" fill="#0036C2"/>
<path d="M1522.64 376.593L1517.44 400.314H1444.01L1459.61 329.152H1484.09L1473.69 376.593H1522.64Z" fill="#0036C2"/>
<path d="M1562.73 305.431L1557.52 329.152L1547.12 376.593H1522.64L1533.05 329.152H1484.09L1489.3 305.431H1562.73Z" fill="#0036C2"/>
<path d="M1433.6 447.752L1428.4 471.472H1354.96L1370.57 400.31H1395.05L1384.64 447.752H1433.6Z" fill="#0036C2"/>
<path d="M1473.69 376.59L1468.48 400.311L1458.08 447.752H1433.6L1444 400.311H1395.05L1400.25 376.59H1473.69Z" fill="#0036C2"/>
<path d="M1401.51 589.884L1396.31 613.605H1322.88L1338.48 542.443H1362.96L1352.55 589.884H1401.51Z" fill="#0036C2"/>
<path d="M1441.59 518.722L1436.39 542.443L1425.98 589.884H1401.51L1411.91 542.443H1362.96L1368.16 518.722H1441.59Z" fill="#0036C2"/>
<path d="M1548.38 589.888L1543.18 613.608H1469.74L1485.35 542.446H1509.83L1499.42 589.888H1548.38Z" fill="#0036C2"/>
<path d="M1588.47 518.726L1583.26 542.446L1572.85 589.888H1548.38L1558.78 542.446H1509.83L1515.03 518.726H1588.47Z" fill="#0036C2"/>
<path d="M1459.33 661.046L1454.13 684.767H1380.7L1396.31 613.605H1420.78L1410.38 661.046H1459.33Z" fill="#0036C2"/>
<path d="M1499.42 589.884L1494.22 613.605L1483.81 661.046H1459.33L1469.74 613.605H1420.78L1425.99 589.884H1499.42Z" fill="#0036C2"/>
<path d="M1296.74 732.208L1291.54 755.929H1218.11L1233.71 684.767H1258.19L1247.79 732.208H1296.74Z" fill="#0036C2"/>
<path d="M1336.83 661.046L1331.62 684.767L1321.22 732.208H1296.74L1307.15 684.767H1258.19L1263.4 661.046H1336.83Z" fill="#0036C2"/>
<path d="M1443.61 732.212L1438.41 755.932H1364.98L1380.58 684.77H1405.06L1394.66 732.212H1443.61Z" fill="#0036C2"/>
<path d="M1483.7 661.05L1478.49 684.77L1468.09 732.212H1443.61L1454.02 684.77H1405.06L1410.27 661.05H1483.7Z" fill="#0036C2"/>
<path d="M1076.63 732.322L1071.43 756.043H998L1013.6 684.881H1038.08L1027.68 732.322H1076.63Z" fill="#0036C2"/>
<path d="M1116.72 661.161L1111.51 684.881L1101.11 732.323H1076.63L1087.04 684.881H1038.08L1043.29 661.161H1116.72Z" fill="#0036C2"/>
<path d="M1223.5 732.326L1218.3 756.047H1144.87L1160.47 684.885H1184.95L1174.55 732.326H1223.5Z" fill="#0036C2"/>
<path d="M1263.59 661.164L1258.38 684.884L1247.98 732.326H1223.5L1233.91 684.884H1184.95L1190.16 661.164H1263.59Z" fill="#0036C2"/>
<path d="M1517.04 731.405L1511.84 755.126H1438.41L1454.01 683.964H1478.49L1468.09 731.405H1517.04Z" fill="#0036C2"/>
<path d="M1557.13 660.243L1551.92 683.964L1541.52 731.405H1517.04L1527.45 683.964H1478.49L1483.7 660.243H1557.13Z" fill="#0036C2"/>
</g>
</svg>
