<svg width="1512" height="905" viewBox="0 0 1512 905" fill="none" xmlns="http://www.w3.org/2000/svg">
<mask id="mask0_1159_1280" style="mask-type:alpha" maskUnits="userSpaceOnUse" x="0" y="0" width="1512" height="905">
<rect width="1512" height="905" fill="#3E001A"/>
</mask>
<g mask="url(#mask0_1159_1280)">
<rect width="1512" height="905" fill="#3E001A"/>
<path d="M1227.8 565.317L1223 587.871H1155.1L1169.53 520.207H1192.16L1182.54 565.317H1227.8Z" fill="#860038"/>
<path d="M1264.87 497.652L1260.06 520.207L1250.44 565.317H1227.8L1237.42 520.207H1192.16L1196.97 497.652H1264.87Z" fill="#860038"/>
<path d="M1363.61 565.32L1358.8 587.875H1290.9L1305.33 520.21H1327.96L1318.34 565.32H1363.61Z" fill="#860038"/>
<path d="M1400.67 497.655L1395.86 520.21L1386.24 565.319H1363.61L1373.23 520.21H1327.96L1332.77 497.655H1400.67Z" fill="#860038"/>
<path d="M1281.27 632.981L1276.46 655.536H1208.56L1222.99 587.871H1245.63L1236.01 632.981H1281.27Z" fill="#860038"/>
<path d="M1318.34 565.317L1313.53 587.871L1303.91 632.981H1281.27L1290.89 587.871H1245.63L1250.44 565.317H1318.34Z" fill="#860038"/>
<path d="M1393.3 430.17L1388.5 452.725H1320.6L1335.02 385.06H1357.66L1348.04 430.17H1393.3Z" fill="#860038"/>
<path d="M1430.37 362.505L1425.56 385.06L1415.93 430.17H1393.3L1402.92 385.06H1357.66L1362.47 362.505H1430.37Z" fill="#860038"/>
<path d="M1529.1 430.173L1524.29 452.728H1456.39L1470.83 385.063H1493.46L1483.84 430.173H1529.1Z" fill="#860038"/>
<path d="M1566.17 362.508L1561.36 385.063L1551.74 430.173H1529.1L1538.72 385.063H1493.46L1498.27 362.508H1566.17Z" fill="#860038"/>
<path d="M1446.77 497.834L1441.96 520.389H1374.06L1388.49 452.724H1411.13L1401.5 497.834H1446.77Z" fill="#860038"/>
<path d="M1483.84 430.17L1479.02 452.724L1469.4 497.834H1446.77L1456.39 452.724H1411.13L1415.94 430.17H1483.84Z" fill="#860038"/>
<path d="M1417.1 632.981L1412.29 655.536H1344.39L1358.82 587.871H1381.45L1371.83 632.981H1417.1Z" fill="#860038"/>
<path d="M1454.17 565.316L1449.35 587.871L1439.73 632.981H1417.1L1426.72 587.871H1381.45L1386.27 565.316H1454.17Z" fill="#860038"/>
<path d="M1552.9 632.984L1548.09 655.539H1480.19L1494.62 587.874H1517.26L1507.64 632.984H1552.9Z" fill="#860038"/>
<path d="M1470.57 700.645L1465.76 723.2H1397.86L1412.29 655.536H1434.92L1425.3 700.645H1470.57Z" fill="#860038"/>
<path d="M1507.64 632.981L1502.82 655.536L1493.2 700.645H1470.57L1480.19 655.536H1434.92L1439.74 632.981H1507.64Z" fill="#860038"/>
<path d="M1320.23 768.31L1315.42 790.865H1247.52L1261.95 723.2H1284.58L1274.96 768.31H1320.23Z" fill="#860038"/>
<path d="M1357.3 700.645L1352.48 723.2L1342.86 768.31H1320.23L1329.85 723.2H1284.58L1289.4 700.645H1357.3Z" fill="#860038"/>
<path d="M1456.03 768.313L1451.22 790.868H1383.32L1397.75 723.203H1420.39L1410.77 768.313H1456.03Z" fill="#860038"/>
<path d="M1493.1 700.648L1488.29 723.203L1478.67 768.313H1456.03L1465.65 723.203H1420.39L1425.2 700.648H1493.1Z" fill="#860038"/>
<path d="M1373.7 835.974L1368.89 858.529H1300.99L1315.42 790.865H1338.05L1328.43 835.974H1373.7Z" fill="#860038"/>
<path d="M1410.77 768.31L1405.95 790.865L1396.33 835.974H1373.7L1383.32 790.865H1338.05L1342.87 768.31H1410.77Z" fill="#860038"/>
<path d="M1116.71 768.418L1111.9 790.973H1044L1058.43 723.309H1081.06L1071.44 768.418H1116.71Z" fill="#860038"/>
<path d="M1153.77 700.754L1148.96 723.309L1139.34 768.418H1116.71L1126.33 723.309H1081.06L1085.88 700.754H1153.77Z" fill="#860038"/>
<path d="M1252.51 768.421L1247.7 790.976H1179.8L1194.23 723.312H1216.86L1207.24 768.421H1252.51Z" fill="#860038"/>
<path d="M1289.58 700.757L1284.76 723.312L1275.14 768.421H1252.51L1262.13 723.312H1216.86L1221.68 700.757H1289.58Z" fill="#860038"/>
<path d="M1170.18 836.083L1165.37 858.638H1097.47L1111.9 790.973H1134.53L1124.91 836.083H1170.18Z" fill="#860038"/>
<path d="M1207.24 768.418L1202.43 790.973L1192.81 836.083H1170.18L1179.8 790.973H1134.53L1139.34 768.418H1207.24Z" fill="#860038"/>
<path d="M1523.93 767.546L1519.12 790.101H1451.22L1465.65 722.437H1488.28L1478.66 767.546H1523.93Z" fill="#860038"/>
<path d="M1560.99 699.882L1556.18 722.437L1546.56 767.546H1523.93L1533.55 722.437H1488.28L1493.1 699.882H1560.99Z" fill="#860038"/>
<path d="M1577.4 835.211L1572.59 857.766H1504.69L1519.12 790.101H1541.75L1532.13 835.211H1577.4Z" fill="#860038"/>
</g>
</svg>
