<svg xmlns="http://www.w3.org/2000/svg" width="90" height="58" viewBox="0 0 90 58" fill="none">
<path fill-rule="evenodd" clip-rule="evenodd" d="M44.8989 0H31.0725L30.111 4.53711H25.4094L22.5483 17.9367H36.7106L37.7261 13.1811H42.1057L44.8989 0ZM37.7261 13.1811L39.5717 4.53711H30.111L28.2793 13.1811H37.7261Z" fill="#0057FF"/>
<path fill-rule="evenodd" clip-rule="evenodd" d="M28.0524 13.166H14.2259L13.2645 17.7029H8.56285L5.70178 31.1025H19.8641L20.8794 26.3471H25.2591L28.0524 13.166ZM20.8794 26.3471L22.7252 17.7029H13.2645L11.4327 26.3471H20.8794Z" fill="#0057FF"/>
<path fill-rule="evenodd" clip-rule="evenodd" d="M36.3506 39.5273L22.5241 39.5273L21.5627 44.0644H16.8611L14 57.464H28.1623L29.1777 52.7085H33.5574L36.3506 39.5273ZM29.1777 52.7085L31.0234 44.0644H21.5627L19.7309 52.7085H29.1777Z" fill="#0057FF"/>
<path fill-rule="evenodd" clip-rule="evenodd" d="M39.197 26.3477H25.3706L24.4091 30.8847H19.7075L16.8464 44.2843H31.0087L32.0241 39.5288H36.4038L39.197 26.3477ZM32.0241 39.5288L33.8698 30.8847H24.4091L22.5774 39.5288H32.0241Z" fill="#0057FF"/>
<path fill-rule="evenodd" clip-rule="evenodd" d="M25.4088 26.3477H11.5824L10.6209 30.8847H5.9193L3.05823 44.2843H17.2205L18.2359 39.5288H22.6156L25.4088 26.3477ZM18.2359 39.5288L20.0816 30.8847H10.6209L8.78914 39.5288H18.2359Z" fill="#0057FF"/>
<path fill-rule="evenodd" clip-rule="evenodd" d="M22.3505 39.5508H8.52402L7.56255 44.0879H2.86095L-0.00012207 57.4875H14.1622L15.1776 52.7319H19.5572L22.3505 39.5508ZM15.1776 52.7319L17.0233 44.0879H7.56255L5.73079 52.7319H15.1776Z" fill="#0057FF"/>
<path fill-rule="evenodd" clip-rule="evenodd" d="M89.8991 0H76.0726L75.1111 4.53711H70.4095L67.5485 17.9367H81.7108L82.7262 13.1811H87.1058L89.8991 0ZM82.7262 13.1811L84.5718 4.53711H75.1111L73.2794 13.1811H82.7262Z" fill="#0057FF"/>
<path fill-rule="evenodd" clip-rule="evenodd" d="M73.0525 13.166H59.226L58.2646 17.7029H53.563L50.7019 31.1025H64.8642L65.8796 26.3471H70.2593L73.0525 13.166ZM65.8796 26.3471L67.7253 17.7029H58.2646L56.4328 26.3471H65.8796Z" fill="#0057FF"/>
<path fill-rule="evenodd" clip-rule="evenodd" d="M81.3507 39.5273L67.5243 39.5273L66.5628 44.0644H61.8612L59.0001 57.464H73.1624L74.1778 52.7085H78.5575L81.3507 39.5273ZM74.1778 52.7085L76.0235 44.0644H66.5628L64.731 52.7085H74.1778Z" fill="#0057FF"/>
<path fill-rule="evenodd" clip-rule="evenodd" d="M84.1971 26.3477H70.3707L69.4093 30.8847H64.7076L61.8466 44.2843H76.0089L77.0243 39.5288H81.4039L84.1971 26.3477ZM77.0243 39.5288L78.8699 30.8847H69.4093L67.5775 39.5288H77.0243Z" fill="#0057FF"/>
<path fill-rule="evenodd" clip-rule="evenodd" d="M70.4089 26.3477H56.5825L55.621 30.8847H50.9194L48.0583 44.2843H62.2207L63.236 39.5288H67.6157L70.4089 26.3477ZM63.236 39.5288L65.0817 30.8847H55.621L53.7893 39.5288H63.236Z" fill="#0057FF"/>
<path fill-rule="evenodd" clip-rule="evenodd" d="M67.3506 39.5508H53.5241L52.5627 44.0879H47.8611L45 57.4875H59.1623L60.1777 52.7319H64.5574L67.3506 39.5508ZM60.1777 52.7319L62.0234 44.0879H52.5627L50.7309 52.7319H60.1777Z" fill="#0057FF"/>
</svg>