<svg xmlns="http://www.w3.org/2000/svg" width="83" height="20" viewBox="0 0 83 20" fill="none">
<g clip-path="url(#clip0_672_13684)">
<path d="M16.9516 18.0376C14.7035 19.3072 12.45 20.0376 9.48267 19.9477C3.9742 19.7735 0 16.1612 0 10.0769C0 4.02072 4.01682 0.144311 9.488 0.0544232C12.2635 0.0094794 14.7408 0.745434 16.6852 2.56004L14.3412 5.04319C13.1426 3.96454 11.3792 3.33532 9.25892 3.43083C5.81746 3.59937 3.73979 6.24543 3.69185 9.86341C3.64923 13.7904 5.93466 16.4982 9.50931 16.5994C11.1981 16.6387 12.3967 16.4084 13.4409 15.914V11.9027H9.7224L9.97278 8.60499H16.9463L16.9516 18.0376Z" fill="white"/>
<path fill-rule="evenodd" clip-rule="evenodd" d="M82.6165 6.51509L82.3714 9.54318H81.1941C79.3188 9.54318 78.3493 11.1218 78.3493 12.6387V19.4758H75.041V6.51509H78.1841L78.2534 8.13868C78.914 7.02632 80.0647 6.51509 81.4924 6.51509H82.6165ZM59.6237 19.4758H56.3047V12.6218C56.3047 11.1836 56.1822 9.38587 54.275 9.38587C52.4317 9.38587 51.6966 10.7904 51.6966 12.4196V19.4645H48.3776V6.51509H51.4622L51.5314 8.16677C52.1867 7.06003 53.4226 6.19486 55.2286 6.19486C58.5795 6.19486 59.629 8.71733 59.629 11.3241L59.6237 19.4758ZM46.9286 16.4533L46.6942 19.4027C45.9271 19.6162 45.1333 19.7286 44.3342 19.7117C41.207 19.7117 40.2961 18.1949 40.2961 15.1555V2.86902H43.6203V6.5207H46.9233L46.6942 9.54318H43.6203V14.8803C43.6203 16.105 43.9346 16.7567 45.128 16.7567C45.7406 16.7679 46.3532 16.6612 46.9286 16.4533ZM39.2146 6.5207L38.9589 9.54318H38.0532C36.1887 9.54318 35.2564 11.1218 35.2564 12.6443V19.4758H31.9428V6.5207H35.0753L35.1392 8.13868C35.8051 7.03756 36.9558 6.5207 38.3835 6.5207H39.2146ZM73.5653 14.2398H64.4609C64.7219 15.8915 65.9579 16.8915 67.4975 16.9421C68.9944 16.9814 69.8255 16.5095 70.923 15.3353L73.0858 17.0656C71.5516 19.0656 69.6977 19.7904 67.588 19.7904C63.8909 19.7904 61.1206 17.0656 61.1206 12.9982C61.1206 8.93082 63.8802 6.2061 67.4548 6.2061C71.4024 6.2061 73.5547 8.72857 73.5547 13.1892L73.5653 14.2398ZM70.241 11.5207C70.1398 9.88587 68.9785 8.85217 67.3749 8.91958C65.7714 8.98138 64.6846 10.0881 64.4662 11.5207H70.241ZM29.8438 10.9926V19.4814H26.9138L26.8445 18.2005C25.9495 19.369 24.4898 19.7904 22.9875 19.7904C20.7287 19.7904 18.5978 18.6218 18.5498 15.8859C18.4859 11.5881 23.142 11.2791 26.0667 11.2791H26.6581V11.105C26.6581 9.68363 25.7631 8.91958 24.085 8.91958C22.8597 8.9252 21.693 9.41396 20.798 10.296L18.8855 8.24542C20.4251 6.90273 22.3642 6.17239 24.3566 6.2061C28.171 6.2061 29.8438 8.06003 29.8438 10.9926ZM26.6581 13.8241H26.1946C24.623 13.8241 21.8635 13.9083 21.8741 15.6443C21.8901 18.0881 26.6581 17.3072 26.6581 14.3634V13.8241ZM81.3326 19.7173C80.4216 19.7061 79.6864 18.9252 79.6971 17.9645C79.6971 17.0151 80.4216 16.2454 81.3272 16.2286C82.2436 16.2117 82.9894 16.987 83.0054 17.9477C83.0213 18.914 82.2808 19.7005 81.3699 19.7173C81.3645 19.7173 81.3486 19.7173 81.3326 19.7173ZM80.0327 18.0039C80.0327 18.7847 80.6294 19.4196 81.3699 19.4196C82.0944 19.4196 82.691 18.8128 82.7124 18.0488C82.739 17.2679 82.1583 16.6162 81.4125 16.5937C80.6773 16.5656 80.054 17.178 80.0327 17.9645C80.0327 17.9814 80.0327 17.9982 80.0327 18.0039ZM81.0289 18.9701H80.7359V16.9645H81.4604C81.9133 16.9645 82.1317 17.1387 82.1317 17.5319C82.1317 17.8915 81.9292 18.0544 81.6469 18.0881L82.1796 18.9701H81.86L81.3592 18.105H81.0183L81.0289 18.9701ZM81.3699 17.8522C81.6096 17.8522 81.828 17.8297 81.828 17.5263C81.828 17.2679 81.6203 17.2286 81.4125 17.2286H81.0236V17.8465L81.3699 17.8522Z" fill="white"/>
</g>
<defs>
<clipPath id="clip0_672_13684">
<rect width="83" height="20" fill="white" transform="translate(0 0.00390625)"/>
</clipPath>
</defs>
</svg>