<svg width="356" height="98" viewBox="0 0 356 98" fill="none" xmlns="http://www.w3.org/2000/svg">
<path d="M27.7711 73.6826L22.572 98.1604H-50.8613L-35.2576 24.7271H-10.7798L-21.1845 73.6826H27.7711Z" fill="#0036C2"/>
<path d="M67.8577 0.249512L62.6521 24.7273L52.2474 73.6828H27.7696L38.1743 24.7273H-10.7812L-5.57237 0.249512H67.8577Z" fill="#0036C2"/>
<path d="M174.642 73.686L169.439 98.1638H96.0059L111.613 24.7305H136.091L125.686 73.686H174.642Z" fill="#0036C2"/>
<path d="M214.729 0.252686L209.523 24.7305L199.118 73.686H174.641L185.045 24.7305H136.09L141.295 0.252686H214.729Z" fill="#0036C2"/>
<path d="M125.686 73.6829L120.48 98.1606L110.076 147.116H85.5977L96.0024 98.1606H47.0469L52.2525 73.6829H125.686Z" fill="#0036C2"/>
</svg>
