<svg width="89" height="90" viewBox="0 0 89 90" fill="none" xmlns="http://www.w3.org/2000/svg">
<rect y="0.686035" width="89" height="89" fill="#0057FF"/>
<g clip-path="url(#clip0_4836_101)">
<path d="M42.0009 67.726H24.0009C23.7024 67.726 23.4609 67.4845 23.4609 67.186V37.186C23.4609 36.8875 23.7024 36.646 24.0009 36.646H42.0009C42.2994 36.646 42.5409 36.8875 42.5409 37.186V67.186C42.5409 67.4845 42.2994 67.726 42.0009 67.726ZM24.5409 66.646H41.4609V37.726H24.5409V66.646ZM66.0009 67.726H48.0009C47.7024 67.726 47.4609 67.4845 47.4609 67.186V22.186C47.4609 21.8875 47.7024 21.646 48.0009 21.646H66.0009C66.2994 21.646 66.5409 21.8875 66.5409 22.186V67.186C66.5409 67.4845 66.2994 67.726 66.0009 67.726ZM48.5409 66.646H65.4609V22.726H48.5409V66.646ZM30.5409 41.686H29.4609V44.686H30.5409V41.686ZM36.5409 41.686H35.4609V44.686H36.5409V41.686ZM30.5409 49.186H29.4609V52.186H30.5409V49.186ZM36.5409 49.186H35.4609V52.186H36.5409V49.186ZM30.5409 56.686H29.4609V59.686H30.5409V56.686ZM36.5409 56.686H35.4609V59.686H36.5409V56.686ZM54.5409 41.686H53.4609V44.686H54.5424L54.5409 41.686ZM54.5409 34.186H53.4609V37.186H54.5424L54.5409 34.186ZM60.5409 41.686H59.4609V44.686H60.5424L60.5409 41.686ZM60.5409 34.186H59.4609V37.186H60.5424L60.5409 34.186ZM54.5409 26.686H53.4609V29.686H54.5424L54.5409 26.686ZM60.5409 26.686H59.4609V29.686H60.5424L60.5409 26.686ZM54.5409 49.186H53.4609V52.186H54.5424L54.5409 49.186ZM60.5409 49.186H59.4609V52.186H60.5424L60.5409 49.186ZM54.5409 56.686H53.4609V59.686H54.5424L54.5409 56.686ZM60.5409 56.686H59.4609V59.686H60.5424L60.5409 56.686Z" fill="white"/>
</g>
<defs>
<clipPath id="clip0_4836_101">
<rect width="48" height="48" fill="white" transform="translate(21 20.686)"/>
</clipPath>
</defs>
</svg>
