<svg width="89" height="90" viewBox="0 0 89 90" fill="none" xmlns="http://www.w3.org/2000/svg">
<rect y="0.37793" width="89" height="89" fill="#0057FF"/>
<g clip-path="url(#clip0_4836_103)">
<path d="M37.5009 67.7319H22.5009C22.2024 67.7319 21.9609 67.4904 21.9609 67.1919V52.1919C21.9609 51.8934 22.2024 51.6519 22.5009 51.6519H35.5329C35.7219 50.9604 36.2694 50.4159 36.9609 50.2254V22.1919C36.9609 21.8934 37.2024 21.6519 37.5009 21.6519H67.5009C67.7994 21.6519 68.0409 21.8934 68.0409 22.1919V52.1919C68.0409 52.4904 67.7994 52.7319 67.5009 52.7319H39.4689C39.2799 53.4234 38.7324 53.9679 38.0409 54.1584V67.1919C38.0409 67.4904 37.7994 67.7319 37.5009 67.7319ZM23.8044 66.6519H36.9609V54.1599C36.7944 54.1149 36.6369 54.0489 36.4914 53.9649L23.8044 66.6519ZM23.0409 52.7319V65.8884L35.7279 53.1999C35.6454 53.0544 35.5794 52.8984 35.5344 52.7319H23.0409ZM37.5009 51.2319C36.9714 51.2319 36.5409 51.6624 36.5409 52.1919C36.5409 52.7214 36.9714 53.1519 37.5009 53.1519C38.0304 53.1519 38.4609 52.7214 38.4609 52.1919C38.4609 51.6624 38.0304 51.2319 37.5009 51.2319ZM39.4689 51.6519H66.9609V22.7319H38.0409V50.2254C38.2059 50.2704 38.3634 50.3364 38.5104 50.4204L59.7279 29.2014C59.5584 28.9029 59.4609 28.5594 59.4609 28.1919C59.4609 27.0669 60.3759 26.1519 61.5009 26.1519C62.6259 26.1519 63.5409 27.0669 63.5409 28.1919C63.5409 29.3169 62.6259 30.2319 61.5009 30.2319C61.1349 30.2319 60.7884 30.1344 60.4914 29.9649L39.2739 51.1824C39.3564 51.3294 39.4224 51.4854 39.4689 51.6519ZM61.5009 27.2319C60.9714 27.2319 60.5409 27.6624 60.5409 28.1919C60.5409 28.7214 60.9714 29.1519 61.5009 29.1519C62.0304 29.1519 62.4609 28.7214 62.4609 28.1919C62.4609 27.6624 62.0304 27.2319 61.5009 27.2319Z" fill="white"/>
</g>
<defs>
<clipPath id="clip0_4836_103">
<rect width="48" height="48" fill="white" transform="translate(21 20.6919)"/>
</clipPath>
</defs>
</svg>
