<svg width="514" height="466" viewBox="0 0 514 466" fill="none" xmlns="http://www.w3.org/2000/svg">
<path d="M198.785 220.688L193.586 245.166H120.152L135.756 171.732H160.234L149.829 220.688H198.785Z" fill="#7610B5"/>
<path d="M238.873 147.255L233.668 171.733L223.263 220.688H198.785L209.19 171.733H160.234L165.443 147.255H238.873Z" fill="#7610B5"/>
<path d="M345.655 220.691L340.453 245.169H267.02L282.627 171.736H307.104L296.7 220.691H345.655Z" fill="#7610B5"/>
<path d="M385.744 147.258L380.539 171.736L370.134 220.691H345.656L356.061 171.736H307.105L312.311 147.258H385.744Z" fill="#7610B5"/>
<path d="M256.612 294.121L251.41 318.599H177.977L193.584 245.166H218.061L207.657 294.121H256.612Z" fill="#7610B5"/>
<path d="M296.701 220.688L291.496 245.166L281.091 294.122H256.613L267.018 245.166H218.062L223.268 220.688H296.701Z" fill="#7610B5"/>
<path d="M377.769 74.019L372.57 98.4968H299.137L314.74 25.0635H339.218L328.814 74.019H377.769Z" fill="#7610B5"/>
<path d="M417.858 0.585938L412.652 25.0637L402.247 74.0193H377.77L388.174 25.0637H339.219L344.428 0.585938H417.858Z" fill="#7610B5"/>
<path d="M524.64 74.0224L519.437 98.5002H446.004L461.611 25.0669H486.089L475.684 74.0224H524.64Z" fill="#7610B5"/>
<path d="M564.729 0.589355L559.523 25.0671L549.118 74.0227H524.641L535.045 25.0671H486.09L491.295 0.589355H564.729Z" fill="#7610B5"/>
<path d="M435.597 147.452L430.394 171.93H356.961L372.568 98.4968H397.046L386.641 147.452H435.597Z" fill="#7610B5"/>
<path d="M475.686 74.0193L470.48 98.4971L460.076 147.453H435.598L446.002 98.4971H397.047L402.252 74.0193H475.686Z" fill="#7610B5"/>
<path d="M403.507 294.121L398.308 318.599H324.875L340.479 245.166H364.957L354.552 294.121H403.507Z" fill="#7610B5"/>
<path d="M443.596 220.688L438.39 245.166L427.986 294.122H403.508L413.913 245.166H364.957L370.166 220.688H443.596Z" fill="#7610B5"/>
<path d="M550.378 294.125L545.176 318.603H471.742L487.349 245.169H511.827L501.422 294.125H550.378Z" fill="#7610B5"/>
<path d="M590.467 220.691L585.261 245.169L574.857 294.125H550.379L560.784 245.169H511.828L517.034 220.691H590.467Z" fill="#7610B5"/>
<path d="M461.335 367.555L456.133 392.033H382.699L398.306 318.599H422.784L412.379 367.555H461.335Z" fill="#7610B5"/>
<path d="M501.424 294.122L496.218 318.599L485.814 367.555H461.336L471.741 318.599H422.785L427.991 294.122H501.424Z" fill="#7610B5"/>
<path d="M298.742 440.988L293.543 465.466H220.109L235.713 392.032H260.191L249.786 440.988H298.742Z" fill="#7610B5"/>
<path d="M338.83 367.555L333.625 392.033L323.22 440.988H298.742L309.147 392.033H260.191L265.4 367.555H338.83Z" fill="#7610B5"/>
<path d="M445.612 440.991L440.41 465.469H366.977L382.584 392.036H407.061L396.657 440.991H445.612Z" fill="#7610B5"/>
<path d="M485.701 367.558L480.496 392.036L470.091 440.991H445.613L456.018 392.036H407.062L412.268 367.558H485.701Z" fill="#7610B5"/>
<path d="M396.658 440.988L391.453 465.466L381.048 514.422H356.57L366.975 465.466H318.02L323.225 440.988H396.658Z" fill="#7610B5"/>
<path d="M78.6324 441.106L73.4333 465.584H0L15.6038 392.15H40.0815L29.6769 441.106H78.6324Z" fill="#7610B5"/>
<path d="M118.719 367.673L113.513 392.151L103.109 441.106H78.6309L89.0356 392.151H40.0801L45.289 367.673H118.719Z" fill="#7610B5"/>
<path d="M225.503 441.109L220.301 465.587H146.867L162.474 392.154H186.952L176.547 441.109H225.503Z" fill="#7610B5"/>
<path d="M265.592 367.676L260.386 392.154L249.982 441.109H225.504L235.909 392.154H186.953L192.159 367.676H265.592Z" fill="#7610B5"/>
<path d="M176.547 441.106L171.342 465.584L160.937 514.54H136.459L146.864 465.584H97.9082L103.114 441.106H176.547Z" fill="#7610B5"/>
<path d="M519.043 440.159L513.843 464.637H440.41L456.014 391.204H480.492L470.087 440.159H519.043Z" fill="#7610B5"/>
<path d="M559.131 366.726L553.926 391.204L543.521 440.159H519.043L529.448 391.204H480.492L485.701 366.726H559.131Z" fill="#7610B5"/>
<path d="M576.87 513.593L571.668 538.071H498.234L513.841 464.637H538.319L527.914 513.593H576.87Z" fill="#7610B5"/>
</svg>
