<svg width="114" height="45" viewBox="0 0 114 45" fill="none" xmlns="http://www.w3.org/2000/svg">
<path fill-rule="evenodd" clip-rule="evenodd" d="M30.8717 0.00732422H20.1936L19.39 3.51033H15.7589L14.217 10.1853H7.1804L6.37682 13.6883H2.74575L0.355554 24.0352H10.9378L8.58657 34.2135H19.3911L17.0399 44.3914H27.9774L28.8256 40.7197H32.208L34.5429 30.5415H23.8648L23.0612 34.0445H19.5631L20.3723 30.5418H23.7547L25.2473 24.0352H32.7585L33.6067 20.3634H36.9891L39.324 10.1853H28.6459L27.8423 13.6883H24.3452L25.1544 10.1855H28.5368L30.8717 0.00732422ZM27.8423 13.6883L26.311 20.3634H33.6067L35.1487 13.6883H27.8423ZM21.8753 24.0352L20.3723 30.5418H13.0766L14.6078 23.8666H21.86L21.821 24.0352H21.8753ZM22.6692 20.3636H15.4114L14.6078 23.8666H11.332L12.1412 20.3634H15.5237L17.0162 13.8572H24.1722L22.6692 20.3636ZM23.0612 34.0445H30.3676L28.8256 40.7197H21.5299L23.0612 34.0445ZM12.1412 20.3634H4.84555L6.37682 13.6883H13.4078L13.3687 13.8572H13.6442L12.1412 20.3634ZM25.1544 10.1855H17.8587L19.39 3.51033H26.6964L25.1544 10.1855Z" fill="#0057FF"/>
<path fill-rule="evenodd" clip-rule="evenodd" d="M49.2643 19.9791H52.3261L53.153 16.0026H50.0913L51.3295 10.1641H46.5948L45.3566 16.0026H42.6736L41.8467 19.9791H44.5297L43.3269 25.5967C43.2228 26.1332 43.1509 26.6382 43.1431 27.08C43.1018 29.447 44.6286 30.5831 47.1538 30.5831H49.1423L50.1033 26.1648H49.5667C48.5882 26.1648 48.2138 25.9123 48.227 25.1549C48.2309 24.934 48.2669 24.6815 48.3355 24.3659L49.2643 19.9791ZM113.173 19.9791H110.111L109.182 24.3659C109.114 24.6815 109.078 24.934 109.074 25.1549C109.061 25.9123 109.435 26.1648 110.414 26.1648L111.921 25.9397L110.96 30.3581L108.001 30.5831C105.476 30.5831 103.949 29.447 103.99 27.08C103.998 26.6382 104.07 26.1332 104.174 25.5967L105.377 19.9791H102.694L103.521 16.0026H106.204L107.442 10.1641H112.176L110.938 16.0026H114L113.173 19.9791ZM102.286 21.4308C102.271 22.3145 102.128 23.2928 101.792 24.429H91.3443C91.5355 26.1332 92.498 27.0484 94.5497 27.0484C96.412 27.0484 97.9702 26.3857 99.0544 25.7545L100.473 29.4785C98.6256 30.4253 96.5629 31.0565 94.1641 31.0565C89.6188 31.0565 86.6349 28.4055 86.7109 24.0503C86.7814 20.0106 89.4474 15.5608 95.5077 15.5608C99.6427 15.5608 102.352 17.6752 102.286 21.4308ZM91.6458 21.6202H97.5799C97.6148 21.4308 97.6175 21.273 97.6214 21.0521C97.6445 19.7266 96.7113 18.9376 95.2278 18.9376C93.5234 18.9376 92.2426 19.9791 91.6458 21.6202ZM68.1171 30.583H72.8833L74.4315 23.2612C75.0188 20.3577 76.2647 19.5056 77.8429 19.5056C79.2949 19.5056 80.1355 20.1683 80.1074 21.7779C80.0981 22.3144 79.9935 22.8824 79.8573 23.4505L78.3755 30.583H83.1102L84.7558 23.1034C84.9966 21.9672 85.079 20.8626 85.0895 20.263C85.1451 17.0755 83.3414 15.5291 80.5321 15.5291C78.3858 15.5291 76.7905 16.5074 75.4666 18.2116H75.4035L75.8839 16.0025H71.2124L68.1171 30.583ZM67.8853 21.4308C67.8699 22.3145 67.7265 23.2928 67.391 24.429H56.9432C57.1344 26.1332 58.097 27.0484 60.1486 27.0484C62.0109 27.0484 63.5692 26.3857 64.6534 25.7545L66.0719 29.4785C64.2246 30.4253 62.1619 31.0565 59.763 31.0565C55.2178 31.0565 52.2339 28.4055 52.3099 24.0503C52.3804 20.0106 55.0464 15.5608 61.1067 15.5608C65.2416 15.5608 67.9508 17.6752 67.8853 21.4308ZM57.2448 21.6202H63.1789C63.2138 21.4308 63.2165 21.273 63.2204 21.0521C63.2435 19.7266 62.3103 18.9376 60.8268 18.9376C59.1223 18.9376 57.8416 19.9791 57.2448 21.6202Z" fill="#0D0E4D"/>
</svg>
