<svg width="131" height="45" viewBox="0 0 131 45" fill="none" xmlns="http://www.w3.org/2000/svg">
<g clip-path="url(#clip0_2452_3429)">
<path d="M50.2233 38.6601C45.3704 35.4792 38.7844 34.921 28.163 37.9194C16.8398 40.6269 13.0644 42.3625 8.10637 38.8784C6.20159 37.1668 5.51868 34.4111 6.02862 30.4417C7.21136 23.9708 10.4076 17.7435 16.0851 10.8361C19.254 7.24281 22.1937 4.15914 26.0751 2.92086C29.05 2.14405 28.7719 4.52291 28.4119 4.86312C28.0321 4.86312 27.394 4.924 26.9008 5.25145C26.5006 5.56728 25.402 6.58709 25.343 7.9589C25.2579 10.0589 27.3937 9.62183 28.3149 8.46881C29.3079 7.16949 30.7755 4.68132 29.6211 2.36235C29.1372 1.53694 28.3012 0.966487 27.2633 0.772244C23.709 0.56556 20.3989 2.28953 17.3438 4.19547C10.6628 8.91784 5.31832 15.4614 2.29421 22.624C0.550822 26.9456 -1.02595 33.1362 1.33742 38.1747C3.1659 41.6708 6.96161 43.5278 11.4903 43.1395C14.6665 42.7999 18.5072 41.7554 21.0903 41.1247C23.6736 40.4929 36.8962 35.8682 41.2408 43.9174C41.2408 43.9174 42.6856 41.0638 46.2961 41.0029C49.2644 40.7243 53.5468 41.8773 56.6651 44.2077C55.6261 42.6179 52.6806 40.2749 50.2233 38.6601Z" fill="black"/>
<path d="M29.5112 11.6494C27.0381 9.99842 22.0675 13.1547 18.0863 18.5688C14.4456 23.4252 12.8736 29.0696 14.5845 31.6797C17.1293 34.7509 21.8539 30.2836 23.8631 27.8925L24.1223 27.613C25.4886 26.1198 26.544 24.323 27.5658 22.5988C27.5658 22.5988 28.5049 21.0207 28.5497 20.9477C29.1301 20.8389 29.8291 20.6688 30.6169 20.4381C30.6056 20.4743 27.603 25.6095 27.9093 28.1584C28.0047 28.936 27.932 31.7767 30.6576 32.6384C34.2905 33.258 37.1913 30.3926 39.7505 27.8432C39.7505 27.8432 40.1866 27.4188 40.4332 27.1764C40.3708 27.4305 40.2894 27.7698 40.2894 27.7698C39.2259 31.5332 40.6595 32.3229 41.5563 32.6142C44.2666 33.4161 47.5044 29.4096 47.515 29.4096C47.4309 30.6716 47.1856 31.7155 48.493 32.5533C49.7269 33.0029 50.9759 32.3175 51.9253 31.674C55.3448 29.222 58.0996 25.3839 60.3245 22.0665H58.9052C58.8885 22.0665 55.4031 27.2068 53.1399 28.3239C53.1363 28.3239 52.7243 28.5391 52.4871 28.3689C52.1932 28.1139 52.3091 27.5836 52.4905 27.2081C52.502 27.1837 61.2293 11.7821 61.2293 11.7821H57.1087C57.1087 11.7821 56.6586 12.5231 56.6219 12.5717C56.5942 12.5475 56.5282 12.4201 56.4825 12.359C53.9296 8.76579 48.1482 14.2928 43.7956 20.7024C42.1199 23.167 39.9864 25.9419 37.7741 27.9449C37.7741 27.9449 34.4967 31.0017 33.0965 28.8055C32.5846 27.8827 32.742 26.5336 33.0308 25.6477C34.6612 20.9251 37.4706 16.6393 40.6677 14.0535C41.57 13.3377 42.5511 13.1307 43.0377 13.4343C43.5017 13.7139 43.5765 14.4053 43.2831 14.8789C42.5385 14.8547 41.9419 15.0849 41.457 15.5948C40.5017 16.6146 40.1698 17.5981 40.4735 18.5209C41.949 20.6574 44.8918 16.4327 44.7495 13.8591C44.6986 12.9363 44.2149 12.0624 43.4927 11.6371C42.4166 10.9819 40.7749 11.1516 39.7125 11.674C38.2901 12.22 36.0389 14.1258 34.7248 15.6071C33.0704 17.4648 30.2329 19.5283 29.3457 19.2972C29.6358 18.508 32.0324 13.5187 29.5112 11.6494ZM49.3776 19.0303C50.1792 17.9015 52.5122 14.8786 53.081 14.3688C54.994 12.6565 55.7585 13.4099 55.8247 13.9437C54.0394 17.197 51.9323 20.9241 49.9513 24.2749C49.9553 24.2629 49.3313 25.2338 49.3313 25.2338C48.4563 26.593 47.5753 27.7586 46.1383 28.5718C45.9334 28.633 45.5956 28.6574 45.3708 28.4867C45.1001 28.3045 44.9934 28.001 45.0238 27.6853C45.1101 26.6416 46.1544 23.4495 49.3776 19.0303ZM26.9609 20.9847C26.9609 20.9847 26.9248 21.0943 26.9072 21.1302C26.9027 21.1302 25.1105 24.104 25.1105 24.104C24.029 25.5732 22.6787 27.4189 20.9907 28.3047C20.4904 28.4746 19.7987 28.5842 19.4462 28.1353C18.6991 27.2247 19.0842 25.962 19.397 24.9425L19.5079 24.5783C20.4048 22.102 21.8279 19.9164 23.2132 17.8891C23.2305 17.8771 23.2693 17.865 23.2833 17.865C23.2868 17.8771 23.2923 17.8771 23.2946 17.9015C24.1638 19.6008 25.7938 20.3895 27.0127 20.7543C27.02 20.7543 27.028 20.7664 27.028 20.7908C27.0282 20.8269 27.0083 20.8759 26.9609 20.9847ZM28.6586 17.4767C28.6506 17.5009 27.8604 19.3461 27.8604 19.3461C27.7461 19.4432 27.5655 19.3947 27.3585 19.3461L27.0037 19.2851C25.8898 18.9333 25.0496 18.1805 24.7905 17.2823C24.4333 15.5341 25.901 14.1623 26.5476 13.6648C27.1681 13.2274 28.1327 12.9968 28.6928 13.4462C29.0383 13.8591 29.1692 14.393 29.1692 14.9761C29.1694 15.7648 28.93 16.651 28.6586 17.4767ZM80.7515 23.1091C80.3541 22.2352 79.411 21.6767 78.4058 21.7373C75.1415 22.041 71.9487 24.7723 70.2721 28.6932C69.3925 30.7086 68.9124 32.3715 68.5976 35.018C69.6127 33.8286 71.6831 31.8742 74.0326 30.8058C74.0326 30.8058 74.3523 28.2687 75.9826 26.0106C76.5995 25.0756 77.8339 23.5704 79.2201 23.9708C80.4314 24.3837 80.0055 27.7951 78.3958 31.0964C77.2048 33.5247 75.3822 35.9533 73.538 37.6282C71.9076 39.0363 69.4953 40.7359 67.3848 39.425C66.0555 38.6241 65.3775 36.9483 65.5206 34.7875C66.1558 28.6572 68.8985 23.437 72.8233 17.4886C76.8703 11.9651 81.3313 6.29586 87.3408 3.27257C88.5666 2.64141 89.7018 2.49577 90.683 2.88425C90.683 2.88425 85.0417 6.04058 82.3526 11.88C81.6686 13.3613 80.7171 15.3637 81.6752 17.1363C82.1759 18.0588 83.0647 18.1317 83.7805 18.0831C87.0767 17.306 89.2063 14.1741 90.9463 11.3094C91.9551 9.13636 92.8517 6.97546 92.8517 4.57173C92.8517 4.28045 92.8369 3.89213 92.8128 3.60051C94.3874 2.75105 97.6168 4.25606 97.6168 4.25606C100.14 5.10619 105.513 9.2946 107.326 10.0955C108.21 9.05159 109.663 7.4736 110.481 6.68435L109.297 5.9437C107.401 4.76614 105.397 3.64912 103.424 2.54453C98.9445 0.0562001 95.2979 0.930045 93.4422 1.60998C92.7128 1.87688 92.0464 2.10761 92.0464 2.10761C90.6692 0.578052 88.4103 0.723361 86.746 1.1364C80.7607 2.88442 75.2037 7.14532 69.2459 14.5387C64.8658 20.3295 62.1488 25.3312 60.7006 30.2719C59.5844 33.598 59.2451 38.4903 61.9696 41.3918C64.286 43.8556 67.3576 43.3218 69.5265 42.436C74.226 40.0809 78.4498 35.0062 80.5544 29.1668C81.0624 27.431 81.626 24.9789 80.7515 23.1091ZM91.558 4.81474C90.9359 12.0744 85.3899 16.3358 84.0176 16.6752C83.186 16.8449 81.767 16.4688 83.0339 13.4221C84.8992 9.31849 88.0842 5.83472 91.5012 4.05004C91.5845 4.3536 91.5823 4.54734 91.558 4.81474ZM124.456 5.73702C121.473 7.46116 118.38 8.57768 114.637 8.18936C113.6 9.37937 112.589 10.6054 111.658 11.8677C116.912 13.2274 122.482 10.2046 125.589 7.32779C128.875 4.42625 130.561 0.772461 130.561 0.772461C130.561 0.772461 128.097 3.63717 124.456 5.73702ZM68.0778 11.7824H64.1646L61.9572 15.4318H65.8697L68.0778 11.7824Z" fill="black"/>
<path d="M114.621 38.998C114.2 39.2893 113.609 39.0653 113.83 38.3978C114.381 36.6982 116.569 33.2347 116.569 33.2347L122.666 22.2327H118.49C118.291 22.5645 117.867 23.3262 117.867 23.3262C117.674 22.9987 117.096 22.2707 116.858 22.1133C115.838 21.4572 114.341 21.7674 113.309 22.3621C108.819 25.0332 105.544 30.3106 102.96 34.4262C102.96 34.4262 100.241 39.0011 98.7313 39.3413C97.5528 39.4386 97.6744 37.8232 97.7254 37.4469C98.1811 34.7271 99.2393 32.1416 100.305 29.7986C102.474 28.269 104.948 26.266 107.197 24.0688C112.078 19.3217 116.193 13.9438 116.794 12.742C116.794 12.742 116.143 12.8757 115.374 12.8997C111.62 18.2291 103.936 25.9746 101.606 27.1276C102.638 24.6019 109.306 12.5476 114.979 6.78134L115.872 5.907C117.253 4.53519 118.683 3.12705 119.798 2.89631C119.916 2.88421 120.067 2.89631 120.198 3.17598C120.248 4.24407 119.857 5.03332 119.409 5.93155L118.781 7.24281C118.781 7.24281 119.671 7.07279 120.255 6.87805C120.933 5.57972 121.684 4.12248 121.407 2.3869C121.315 1.82839 120.918 1.40358 120.398 1.30637C118.706 0.9786 116.861 2.25287 115.377 3.28513L115.317 3.32129C107.687 9.40337 101.245 18.1684 95.612 30.1383C95.2037 30.4534 93.6265 30.8302 93.3585 30.6479C93.9147 29.4827 94.6151 27.9163 94.9654 26.2168C95.026 25.7309 95.0825 25.2336 95.0825 24.7481C95.0825 23.7032 94.836 22.7202 93.9162 22.0408C92.8376 21.4944 91.5046 21.7495 90.6056 22.1619C86.5794 23.8615 83.5701 28.0621 81.3985 31.5215C80.2306 33.7194 79.0661 36.0734 78.7436 38.7689C78.5165 40.8809 78.9789 42.2407 80.1592 42.9207C81.3727 43.5515 82.9003 42.8958 83.5004 42.5804C87.5794 40.3952 90.4296 36.013 92.6761 32.0067C92.7654 31.9948 93.992 31.9586 94.9199 31.7154C94.9321 31.7154 94.9374 31.7154 94.9579 31.728C94.9048 31.9095 94.4253 33.3668 94.4253 33.3668C93.0014 37.6152 92.343 40.5048 93.6879 42.2163C95.6098 44.6322 98.7918 42.1317 101.38 38.8291C100.825 42.7865 102.84 43.406 104.377 43.1028C106.142 42.6174 108.109 40.6989 109.022 39.7159C108.728 40.8689 108.808 42.9331 110.414 43.1391C111.514 43.3461 112.338 42.737 113.291 42.2149C116.709 40.3209 120.801 34.0097 121.864 32.185H120.471C118.96 34.5078 117.038 37.5527 114.621 38.998ZM83.9368 38.5753C83.72 38.2474 83.6481 37.8891 83.6409 37.5016C83.5993 35.1211 86.1164 30.8584 87.8929 28.5361H87.8967C88.641 30.1948 90.327 31.2611 91.3448 31.7105C90.0809 34.5757 85.7455 40.7118 83.9368 38.5753ZM92.0584 30.4296C91.938 30.5152 89.812 29.7863 89.401 27.7833C89.0525 26.0588 90.2196 24.7114 91.3487 24.0323C91.8334 23.6435 92.5634 23.5105 93.0989 23.7039C93.596 24.0444 93.7307 24.6519 93.7307 25.3063C93.7307 25.7077 93.6783 26.1201 93.6322 26.4963L93.6221 26.5815C93.266 27.9274 92.7404 29.2208 92.0584 30.4296ZM109.11 37.8106C109.108 37.8106 108.707 38.1747 108.707 38.1747C108.133 38.6966 107.543 39.2549 106.831 38.9756C106.634 38.9029 106.495 38.636 106.462 38.429C106.43 36.9358 107.091 35.5522 107.732 34.2048L107.896 33.8526C109.739 30.7207 111.882 27.0302 115.029 24.4691C115.56 24.0798 116.135 23.7526 116.742 24.0078C116.882 24.1411 117.045 24.3719 117.045 24.6023C117.045 24.6754 116.981 24.8695 116.944 24.93C116.065 26.3753 115.228 27.8925 114.414 29.3492C112.823 32.2263 111.173 35.2 109.11 37.8106Z" fill="black"/>
</g>
<defs>
<clipPath id="clip0_2452_3429">
<rect width="130.42" height="43.4733" fill="white" transform="translate(0.140625 0.744629)"/>
</clipPath>
</defs>
</svg>
