<svg width="139" height="38" viewBox="0 0 139 38" fill="none" xmlns="http://www.w3.org/2000/svg">
<path d="M6.76215 24.2598C4.79092 24.5367 3.86624 26.5402 4.18157 28.3751C4.41922 29.761 4.79117 31.1098 5.29744 32.4213C5.31673 32.471 5.30861 32.4759 5.27306 32.4359C-1.81971 24.5198 -1.63233 12.3229 5.72017 4.61994C5.77044 4.56762 5.78136 4.57506 5.75292 4.64225C5.32993 5.64654 4.98718 6.67802 4.72465 7.73668C4.4017 9.03923 4.4931 10.4387 5.53508 11.3866C6.11802 11.9164 6.83273 12.1439 7.67921 12.069C11.25 11.7546 14.3696 11.5364 17.038 11.4143C17.6864 11.3845 18.1851 11.3304 18.5339 11.2519C20.7824 10.748 22.8709 9.1254 23.4894 6.81035C23.5732 6.49644 23.6285 6.07508 23.6555 5.54627C23.7067 4.52095 23.7522 3.49588 23.7918 2.47108C23.8261 1.60322 24.2435 0.563798 25.1339 0.285285C25.5307 0.160646 26.348 0.437621 26.6626 0.58611C33.8978 4.01752 38.311 11.7305 37.8296 19.7812C37.3855 27.2095 33.1643 33.8977 26.3762 36.9637C25.4142 37.3976 24.5626 36.849 24.2115 35.9366C24.1297 35.7242 24.0706 35.3859 24.034 34.9217C23.9457 33.7938 23.8751 32.6647 23.8223 31.5342C23.7987 31.0333 23.7781 30.4986 23.6775 30.0316C23.101 27.3442 20.7573 25.4123 18.147 24.9691C17.8357 24.9168 17.3302 24.8768 16.6305 24.8491C13.8422 24.7388 11.059 24.5562 8.28094 24.3013C7.54973 24.2341 7.04346 24.2203 6.76215 24.2598Z" fill="black"/>
<path d="M7.40564 3.30986C9.59851 0.139268 11.3511 4.08924 11.914 5.80186C12.4492 7.43089 12.826 9.09761 13.0444 10.802C13.0448 10.805 13.0446 10.808 13.0437 10.8108C13.0429 10.8137 13.0415 10.8164 13.0396 10.8187C13.0376 10.821 13.0352 10.8229 13.0325 10.8243C13.0298 10.8256 13.0268 10.8265 13.0238 10.8266C11.5385 10.9287 10.052 11.0477 8.56415 11.1836C7.7847 11.2549 7.31296 11.2811 7.14895 11.2621C5.49458 11.0705 5.12973 9.38022 5.47325 8.01151C5.88761 6.36274 6.43678 4.71089 7.40564 3.30986Z" fill="black"/>
<path d="M8.80711 34.9839C6.60738 35.4486 5.1023 29.6321 4.9431 28.1749C4.79381 26.8101 5.29424 25.3467 6.76733 25.0751C7.03188 25.0264 7.5379 25.0366 8.28536 25.1059C9.82497 25.248 11.3631 25.367 12.8996 25.4629C12.9047 25.4631 12.9097 25.4645 12.9142 25.4668C12.9188 25.4691 12.9228 25.4724 12.926 25.4764C12.9293 25.4804 12.9316 25.485 12.933 25.4899C12.9343 25.4949 12.9346 25.5001 12.9339 25.5052C12.5645 28.0634 11.949 30.6692 10.7684 32.9974C10.3884 33.746 9.63049 34.8108 8.80711 34.9839Z" fill="black"/>
<path d="M133.843 21.2055C131.669 20.3077 127.926 20.1715 127.21 17.2902C126.552 14.6436 128.142 12.6193 130.644 12.0562C133.918 11.3206 137.693 12.1254 138.265 16.0992C138.266 16.1047 138.266 16.1104 138.265 16.1157C138.265 16.1211 138.263 16.1261 138.261 16.1303C138.259 16.1345 138.256 16.1379 138.253 16.1403C138.25 16.1426 138.246 16.1438 138.243 16.1438L134.268 16.1423C134.256 16.1423 134.244 16.1379 134.235 16.1299C134.225 16.1219 134.219 16.1107 134.217 16.0984C134.006 15.0567 132.956 14.9028 132.077 15.0059C131.532 15.0698 130.889 15.4214 131.226 16.0854C131.45 16.5285 132.148 16.8055 132.612 16.9286C134.917 17.541 138.369 18.0811 138.598 21.1178C138.918 25.3725 134.834 26.5773 131.508 26.1619C129.118 25.8633 126.93 24.2338 126.783 21.661C126.783 21.6562 126.784 21.6514 126.786 21.6468C126.787 21.6423 126.79 21.6381 126.794 21.6346C126.798 21.631 126.802 21.6282 126.807 21.6263C126.812 21.6243 126.817 21.6233 126.822 21.6233H130.84C130.848 21.6233 130.856 21.6274 130.863 21.6349C130.87 21.6423 130.875 21.6526 130.877 21.6641C131.122 22.969 132.558 23.2705 133.663 22.9751C134.703 22.6981 134.914 21.6479 133.843 21.2055ZM52.844 16.8147H56.8048C56.8149 16.8147 56.8245 16.8107 56.8317 16.8035C56.8388 16.7962 56.8428 16.7865 56.8428 16.7763V12.2177C56.8428 12.2075 56.8469 12.1977 56.854 12.1905C56.8611 12.1833 56.8708 12.1792 56.8809 12.1792H61.0702C61.0805 12.1792 61.0904 12.1848 61.0976 12.1948C61.1049 12.2048 61.109 12.2183 61.109 12.2323V25.831C61.109 25.8382 61.1064 25.845 61.1019 25.8501C61.0973 25.8551 61.0911 25.858 61.0846 25.858L56.8809 25.8556C56.8708 25.8556 56.8611 25.8515 56.854 25.8441C56.8469 25.8368 56.8428 25.8268 56.8428 25.8164V20.6039C56.8428 20.5937 56.8388 20.5839 56.8317 20.5767C56.8245 20.5695 56.8149 20.5654 56.8048 20.5654H52.844C52.8315 20.5654 52.8195 20.5695 52.8106 20.5767C52.8018 20.5839 52.7968 20.5937 52.7968 20.6039L52.8021 25.7972C52.8022 25.8074 52.8004 25.8176 52.7968 25.827C52.7932 25.8365 52.7879 25.8451 52.7811 25.8524C52.7744 25.8596 52.7664 25.8653 52.7576 25.8692C52.7487 25.8731 52.7393 25.875 52.7298 25.8749L48.5596 25.8564C48.5495 25.8564 48.5398 25.8522 48.5326 25.8447C48.5255 25.8372 48.5215 25.827 48.5215 25.8164V12.2177C48.5215 12.2075 48.5255 12.1977 48.5326 12.1905C48.5398 12.1833 48.5495 12.1792 48.5596 12.1792H52.7679C52.7733 12.1792 52.7786 12.1804 52.7836 12.1825C52.7886 12.1847 52.7931 12.1879 52.7969 12.1919C52.8008 12.1959 52.8038 12.2006 52.8059 12.2058C52.8079 12.2111 52.809 12.2167 52.809 12.2223L52.7838 16.757C52.7838 16.7723 52.7902 16.787 52.8015 16.7978C52.8128 16.8086 52.8281 16.8147 52.844 16.8147ZM71.3719 24.0468H67.2207C67.2086 24.0469 67.1969 24.0507 67.1873 24.0578C67.1777 24.0649 67.1707 24.0748 67.1674 24.0861L66.6868 25.8156C66.6833 25.8285 66.6759 25.8398 66.6657 25.8478C66.6555 25.8559 66.6431 25.8603 66.6304 25.8603L62.5745 25.8626C62.5688 25.8625 62.5633 25.8608 62.5585 25.8575C62.5537 25.8542 62.5497 25.8495 62.5468 25.8437C62.5439 25.838 62.5422 25.8313 62.5419 25.8243C62.5415 25.8172 62.5425 25.8101 62.5448 25.8033L67.1697 12.22C67.174 12.2081 67.1812 12.1977 67.1903 12.1904C67.1994 12.1831 67.2101 12.1792 67.2207 12.1792H71.4671C71.4802 12.1792 71.4929 12.1829 71.5033 12.1898C71.5137 12.1967 71.5213 12.2065 71.525 12.2177L76.1537 25.8126C76.1555 25.818 76.1565 25.8238 76.1567 25.8294C76.1568 25.835 76.156 25.8403 76.1543 25.8448C76.1527 25.8494 76.1503 25.8531 76.1473 25.8556C76.1443 25.8582 76.1407 25.8595 76.137 25.8595L72.0376 25.8587C72.0066 25.8588 71.9762 25.8477 71.9509 25.8271C71.9256 25.8066 71.9069 25.7777 71.8975 25.7449L71.4191 24.0792C71.4163 24.0698 71.4102 24.0616 71.4017 24.0557C71.3932 24.0499 71.3827 24.0468 71.3719 24.0468ZM67.9824 21.1779C67.9815 21.1813 67.9813 21.1849 67.982 21.1884C67.9827 21.1919 67.9841 21.1952 67.9863 21.198C67.9884 21.2008 67.9912 21.2031 67.9943 21.2047C67.9975 21.2063 68.001 21.2071 68.0045 21.2071L70.6354 21.1932C70.6389 21.1932 70.6424 21.1924 70.6455 21.1909C70.6487 21.1893 70.6514 21.187 70.6536 21.1842C70.6557 21.1813 70.6572 21.178 70.6579 21.1745C70.6585 21.171 70.6584 21.1674 70.6574 21.164L69.3169 16.3777C69.3156 16.3728 69.3127 16.3684 69.3087 16.3653C69.3047 16.3622 69.2998 16.3606 69.2948 16.3606C69.2898 16.3606 69.2849 16.3622 69.2809 16.3653C69.2769 16.3684 69.274 16.3728 69.2727 16.3777L67.9824 21.1779ZM82.0019 21.1963L84.3334 12.2316C84.3373 12.2166 84.3456 12.2033 84.3571 12.1938C84.3685 12.1843 84.3824 12.1792 84.3966 12.1792H88.5859C88.5927 12.1793 88.5994 12.181 88.6054 12.1843C88.6114 12.1875 88.6166 12.1922 88.6204 12.1979C88.6243 12.2036 88.6268 12.2102 88.6277 12.2172C88.6285 12.2241 88.6278 12.2311 88.6255 12.2377L84.146 25.8156C84.1418 25.8284 84.1347 25.8396 84.1258 25.8475C84.1169 25.8554 84.1067 25.8596 84.0965 25.8595L79.8646 25.8564C79.8556 25.8564 79.8466 25.853 79.8389 25.8466C79.8313 25.8403 79.8253 25.8313 79.822 25.821L75.3875 12.2185C75.386 12.214 75.386 12.2091 75.3874 12.2044C75.3887 12.1998 75.3915 12.1953 75.3955 12.1915C75.3994 12.1877 75.4044 12.1846 75.41 12.1824C75.4156 12.1803 75.4218 12.1792 75.4278 12.1792H79.6552C79.6648 12.1792 79.6742 12.1829 79.6819 12.1896C79.6897 12.1963 79.6953 12.2056 79.6978 12.2162L81.9638 21.1994C81.976 21.2486 81.9887 21.2476 82.0019 21.1963ZM94.7174 22.6812H101.211C101.221 22.6812 101.232 22.6867 101.239 22.6965C101.247 22.7063 101.251 22.7196 101.251 22.7335V25.8018C101.251 25.815 101.247 25.8277 101.24 25.8372C101.233 25.8468 101.223 25.8525 101.212 25.8533C100.659 25.8964 99.9509 25.8556 99.5686 25.8556C96.5239 25.8562 93.4794 25.8551 90.4352 25.8526C90.4245 25.8526 90.4143 25.8488 90.4067 25.842C90.3991 25.8352 90.3949 25.826 90.3949 25.8164V12.2177C90.3949 12.2075 90.3989 12.1977 90.406 12.1905C90.4132 12.1833 90.4229 12.1792 90.433 12.1792H100.963C100.973 12.1792 100.983 12.1833 100.99 12.1905C100.997 12.1977 101.001 12.2075 101.001 12.2177V15.3337C101.001 15.3439 100.997 15.3537 100.99 15.3609C100.983 15.3681 100.973 15.3722 100.963 15.3722H94.7174C94.7071 15.3722 94.6972 15.3762 94.6899 15.3834C94.6827 15.3906 94.6786 15.4004 94.6786 15.4106L94.6763 17.301C94.6763 17.3146 94.6806 17.3278 94.6883 17.3374C94.696 17.3471 94.7065 17.3525 94.7174 17.3525L99.973 17.3502C99.9831 17.3502 99.9928 17.3546 99.9999 17.3624C100.007 17.3702 100.011 17.3807 100.011 17.3918V20.45C100.011 20.4704 100.003 20.49 99.9888 20.5044C99.9745 20.5189 99.9551 20.527 99.9349 20.527H94.7174C94.7053 20.527 94.6937 20.531 94.6851 20.5382C94.6765 20.5454 94.6717 20.5552 94.6717 20.5654L94.674 22.6474C94.674 22.6518 94.6751 22.6562 94.6773 22.6603C94.6795 22.6644 94.6827 22.6681 94.6867 22.6713C94.6907 22.6744 94.6955 22.6769 94.7008 22.6786C94.7061 22.6803 94.7117 22.6812 94.7174 22.6812ZM107.761 22.6812H113.531C113.541 22.6812 113.551 22.6853 113.558 22.6925C113.565 22.6997 113.569 22.7095 113.569 22.7197V25.8356C113.569 25.8444 113.565 25.8528 113.558 25.859C113.551 25.8652 113.541 25.8687 113.531 25.8687L103.496 25.858C103.481 25.858 103.466 25.8515 103.455 25.8401C103.445 25.8287 103.439 25.8133 103.439 25.7972V12.2177C103.439 12.2075 103.443 12.1977 103.45 12.1905C103.457 12.1833 103.467 12.1792 103.477 12.1792H107.685C107.695 12.1792 107.705 12.1833 107.712 12.1905C107.719 12.1977 107.723 12.2075 107.723 12.2177V22.6427C107.723 22.6529 107.727 22.6627 107.734 22.6699C107.741 22.6772 107.751 22.6812 107.761 22.6812ZM115.545 25.8595C115.531 25.8595 115.517 25.855 115.508 25.8469C115.498 25.8388 115.492 25.8278 115.492 25.8164V12.2177C115.492 12.2075 115.496 12.1977 115.503 12.1905C115.511 12.1833 115.52 12.1792 115.53 12.1792H119.739C119.749 12.1792 119.758 12.1833 119.766 12.1905C119.773 12.1977 119.777 12.2075 119.777 12.2177V22.6427C119.777 22.6529 119.781 22.6627 119.788 22.6699C119.795 22.6772 119.805 22.6812 119.815 22.6812L125.561 22.6804C125.577 22.6804 125.593 22.6846 125.605 22.6919C125.616 22.6993 125.623 22.7093 125.623 22.7197V25.8356C125.623 25.8442 125.619 25.8524 125.611 25.8585C125.604 25.8646 125.595 25.868 125.585 25.868L115.545 25.8595Z" fill="black"/>
</svg>
