<svg xmlns="http://www.w3.org/2000/svg" width="90" height="58" viewBox="0 0 90 58" fill="none">
  <path fill-rule="evenodd" clip-rule="evenodd" d="M44.8991 0H31.0726L30.1112 4.53711H25.4095L22.5485 17.9367H36.7108L37.7262 13.1811H42.1059L44.8991 0ZM37.7262 13.1811L39.5718 4.53711H30.1112L28.2794 13.1811H37.7262Z" fill="#00BA61"/>
  <path fill-rule="evenodd" clip-rule="evenodd" d="M28.0525 13.166H14.2261L13.2646 17.7031H8.56298L5.7019 31.1027H19.8642L20.8796 26.3471H25.2593L28.0525 13.166ZM20.8796 26.3471L22.7253 17.7031H13.2646L11.4329 26.3471H20.8796Z" fill="#00BA61"/>
  <path fill-rule="evenodd" clip-rule="evenodd" d="M36.3507 39.5273H22.5243L21.5628 44.0645H16.8612L14.0001 57.464H28.1624L29.1778 52.7085H33.5575L36.3507 39.5273ZM29.1778 52.7085L31.0235 44.0645H21.5628L19.7311 52.7085H29.1778Z" fill="#00BA61"/>
  <path fill-rule="evenodd" clip-rule="evenodd" d="M39.1972 26.3477H25.3707L24.4093 30.8848H19.7076L16.8466 44.2844H31.0089L32.0243 39.5288H36.404L39.1972 26.3477ZM32.0243 39.5288L33.8699 30.8848H24.4093L22.5775 39.5288H32.0243Z" fill="#00BA61"/>
  <path fill-rule="evenodd" clip-rule="evenodd" d="M25.409 26.3477H11.5825L10.6211 30.8848H5.91942L3.05835 44.2844H17.2207L18.2361 39.5288H22.6158L25.409 26.3477ZM18.2361 39.5288L20.0817 30.8848H10.6211L8.78931 39.5288H18.2361Z" fill="#00BA61"/>
  <path fill-rule="evenodd" clip-rule="evenodd" d="M22.3506 39.5508H8.52418L7.56272 44.0879H2.86107L0 57.4875H14.1623L15.1777 52.7319H19.5574L22.3506 39.5508ZM15.1777 52.7319L17.0234 44.0879H7.56272L5.73096 52.7319H15.1777Z" fill="#00BA61"/>
  <path fill-rule="evenodd" clip-rule="evenodd" d="M89.8992 0H76.0728L75.1113 4.53711H70.4097L67.5486 17.9367H81.7109L82.7263 13.1811H87.106L89.8992 0ZM82.7263 13.1811L84.572 4.53711H75.1113L73.2795 13.1811H82.7263Z" fill="#00BA61"/>
  <path fill-rule="evenodd" clip-rule="evenodd" d="M73.0527 13.166H59.2262L58.2647 17.7031H53.5631L50.702 31.1027H64.8643L65.8797 26.3471H70.2594L73.0527 13.166ZM65.8797 26.3471L67.7254 17.7031H58.2647L56.433 26.3471H65.8797Z" fill="#00BA61"/>
  <path fill-rule="evenodd" clip-rule="evenodd" d="M81.3509 39.5273H67.5244L66.563 44.0645H61.8613L59.0002 57.464H73.1626L74.178 52.7085H78.5576L81.3509 39.5273ZM74.178 52.7085L76.0236 44.0645H66.563L64.7312 52.7085H74.178Z" fill="#00BA61"/>
  <path fill-rule="evenodd" clip-rule="evenodd" d="M84.1973 26.3477H70.3709L69.4094 30.8848H64.7078L61.8467 44.2844H76.009L77.0244 39.5288H81.4041L84.1973 26.3477ZM77.0244 39.5288L78.8701 30.8848H69.4094L67.5776 39.5288H77.0244Z" fill="#00BA61"/>
  <path fill-rule="evenodd" clip-rule="evenodd" d="M70.4091 26.3477H56.5827L55.6212 30.8848H50.9195L48.0585 44.2844H62.2208L63.2362 39.5288H67.6159L70.4091 26.3477ZM63.2362 39.5288L65.0819 30.8848H55.6212L53.7894 39.5288H63.2362Z" fill="#00BA61"/>
  <path fill-rule="evenodd" clip-rule="evenodd" d="M67.3507 39.5508H53.5243L52.5628 44.0879H47.8612L45.0001 57.4875H59.1624L60.1778 52.7319H64.5575L67.3507 39.5508ZM60.1778 52.7319L62.0235 44.0879H52.5628L50.7311 52.7319H60.1778Z" fill="#00BA61"/>
</svg>