<svg width="42" height="42" viewBox="0 0 42 42" fill="none" xmlns="http://www.w3.org/2000/svg">
<g clip-path="url(#clip0_645_620)">
<path d="M40.6873 41.1601H24.9373C24.6762 41.1601 24.4648 40.9488 24.4648 40.6876V38.5364H9.18734C8.92616 38.5364 8.71484 38.3251 8.71484 38.0639V30.6614H1.31234C1.05116 30.6614 0.839844 30.4501 0.839844 30.1889V11.8139C0.839844 11.5527 1.05116 11.3414 1.31234 11.3414H8.72141V3.9389C8.72141 3.67771 8.93272 3.4664 9.19391 3.4664H24.4648V1.31259C24.4648 1.0514 24.6762 0.840088 24.9373 0.840088H40.6873C40.9485 0.840088 41.1598 1.0514 41.1598 1.31259V6.56259C41.1598 6.82377 40.9485 7.03509 40.6873 7.03509H24.9373C24.6762 7.03509 24.4648 6.82377 24.4648 6.56259V4.4114H9.66509V11.3414H17.0623C17.3235 11.3414 17.5348 11.5527 17.5348 11.8139V20.5302H24.4648V18.3764C24.4648 18.1152 24.6762 17.9039 24.9373 17.9039H40.6873C40.9485 17.9039 41.1598 18.1152 41.1598 18.3764V23.6264C41.1598 23.8876 40.9485 24.0989 40.6873 24.0989H24.9373C24.6762 24.0989 24.4648 23.8876 24.4648 23.6264V21.4752H17.5348V30.1889C17.5348 30.4501 17.3235 30.6614 17.0623 30.6614H9.65984V37.5901H24.4648V35.4376C24.4648 35.1764 24.6762 34.9651 24.9373 34.9651H40.6873C40.9485 34.9651 41.1598 35.1764 41.1598 35.4376V40.6876C41.1598 40.9488 40.9485 41.1601 40.6873 41.1601ZM25.4098 40.2151H40.2148V35.9101H25.4098V40.2151ZM1.78484 29.7164H16.5898V12.2864H1.78484V29.7164ZM25.4098 23.1539H40.2148V18.8502H25.4098V23.1539ZM25.4098 6.09009H40.2148V1.78509H25.4098V6.09009ZM14.4426 25.4114H3.94259V24.4651H14.4426V25.4114ZM14.4426 21.4726H3.94259V20.5276H14.4426V21.4726ZM14.4426 17.5364H3.94259V16.5914H14.4426V17.5364Z" fill="#0057FF"/>
</g>
<defs>
<clipPath id="clip0_645_620">
<rect width="42" height="42" fill="white"/>
</clipPath>
</defs>
</svg>
