<svg width="663" height="429" viewBox="0 0 663 429" fill="none" xmlns="http://www.w3.org/2000/svg">
<path d="M217.368 240.497L211.683 267.171H131.385L148.447 187.15H175.213L163.836 240.497H217.368Z" fill="#7610B5"/>
<path d="M261.203 160.476L255.511 187.15L244.134 240.497H217.368L228.745 187.15H175.213L180.909 160.476H261.203Z" fill="#7610B5"/>
<path d="M377.967 240.501L372.279 267.175H291.98L309.047 187.153H335.813L324.435 240.501H377.967Z" fill="#7610B5"/>
<path d="M421.805 160.479L416.113 187.153L404.735 240.501H377.969L389.347 187.153H335.814L341.507 160.479H421.805Z" fill="#7610B5"/>
<path d="M280.6 320.518L274.911 347.192H194.613L211.679 267.171H238.445L227.068 320.518H280.6Z" fill="#7610B5"/>
<path d="M324.438 240.497L318.745 267.171L307.368 320.519H280.602L291.979 267.171H238.447L244.14 240.497H324.438Z" fill="#7610B5"/>
<path d="M413.087 80.6699L407.402 107.344H327.104L344.166 27.3223H370.932L359.555 80.6699H413.087Z" fill="#7610B5"/>
<path d="M456.922 0.648682L451.23 27.3225L439.852 80.6701H413.086L424.464 27.3225H370.932L376.627 0.648682H456.922Z" fill="#7610B5"/>
<path d="M573.686 80.6735L567.997 107.347H487.699L504.765 27.3259H531.531L520.154 80.6735H573.686Z" fill="#7610B5"/>
<path d="M617.524 0.6521L611.831 27.3259L600.454 80.6735H573.688L585.065 27.3259H531.533L537.225 0.6521H617.524Z" fill="#7610B5"/>
<path d="M476.319 160.691L470.63 187.365H390.332L407.398 107.344H434.164L422.787 160.691H476.319Z" fill="#7610B5"/>
<path d="M520.156 80.6699L514.464 107.344L503.087 160.691H476.321L487.698 107.344H434.166L439.858 80.6699H520.156Z" fill="#7610B5"/>
<path d="M441.229 320.518L435.544 347.192H355.246L372.309 267.171H399.075L387.697 320.518H441.229Z" fill="#9B4DFF"/>
<path d="M485.065 240.497L479.372 267.171L467.995 320.519H441.229L452.606 267.171H399.074L404.77 240.497H485.065Z" fill="#9B4DFF"/>
<path d="M601.829 320.522L596.14 347.196H515.842L532.908 267.175H559.674L548.297 320.522H601.829Z" fill="#9B4DFF"/>
<path d="M645.666 240.501L639.974 267.175L628.597 320.522H601.831L613.208 267.175H559.676L565.368 240.501H645.666Z" fill="#9B4DFF"/>
<path d="M504.461 400.54L498.773 427.214H418.475L435.541 347.192H462.307L450.929 400.54H504.461Z" fill="#9B4DFF"/>
<path d="M548.299 320.519L542.607 347.192L531.229 400.54H504.463L515.841 347.192H462.309L468.001 320.519H548.299Z" fill="#9B4DFF"/>
<path d="M326.671 480.561L320.986 507.235H240.688L257.75 427.214H284.516L273.139 480.561H326.671Z" fill="#7610B5"/>
<path d="M370.506 400.54L364.814 427.214L353.436 480.562H326.67L338.048 427.214H284.516L290.211 400.54H370.506Z" fill="#7610B5"/>
<path d="M487.27 480.565L481.581 507.239H401.283L418.349 427.218H445.115L433.738 480.565H487.27Z" fill="#7610B5"/>
<path d="M531.108 400.544L525.415 427.217L514.038 480.565H487.272L498.649 427.217H445.117L450.809 400.544H531.108Z" fill="#9B4DFF"/>
<path d="M85.9833 480.69L80.2982 507.364H0L17.0625 427.343H43.8285L32.4512 480.69H85.9833Z" fill="#7610B5"/>
<path d="M129.819 400.669L124.126 427.343L112.749 480.69H85.9829L97.3603 427.343H43.8281L49.524 400.669H129.819Z" fill="#7610B5"/>
<path d="M246.583 480.694L240.894 507.368H160.596L177.662 427.346H204.428L193.05 480.694H246.583Z" fill="#7610B5"/>
<path d="M290.42 400.672L284.728 427.346L273.351 480.694H246.584L257.962 427.346H204.43L210.122 400.672H290.42Z" fill="#9B4DFF"/>
<path d="M567.565 479.659L561.88 506.332H481.582L498.645 426.311H525.411L514.033 479.659H567.565Z" fill="#7610B5"/>
<path d="M611.401 399.637L605.708 426.311L594.331 479.659H567.565L578.942 426.311H525.41L531.106 399.637H611.401Z" fill="#7610B5"/>
<path d="M728.165 479.662L722.476 506.336H642.178L659.244 426.315H686.01L674.632 479.662H728.165Z" fill="#9B4DFF"/>
</svg>
