<svg width="697" height="506" viewBox="0 0 697 506" fill="none" xmlns="http://www.w3.org/2000/svg">
<mask id="mask0_2637_16432" style="mask-type:alpha" maskUnits="userSpaceOnUse" x="0" y="0" width="697" height="506">
<rect x="0.605469" y="0.585938" width="695.423" height="505.341" fill="#0057FF"/>
</mask>
<g mask="url(#mask0_2637_16432)">
<rect x="0.605469" y="0.585938" width="695.423" height="505.341" fill="#0057FF"/>
<rect x="0.605469" y="255.772" width="695.423" height="250.154" fill="#0D0E4D"/>
<rect width="10.3683" height="10.3683" transform="matrix(-1 0 0 1 645.632 107.616)" fill="white"/>
<rect width="10.3683" height="10.3683" transform="matrix(-1 0 0 1 666.249 107.616)" fill="white"/>
<rect width="10.3683" height="10.3683" transform="matrix(-1 0 0 1 655.946 107.616)" fill="white"/>
<rect width="10.3683" height="10.3683" transform="matrix(-1 0 0 1 676.577 112.167)" fill="white"/>
<rect width="10.3683" height="10.3683" transform="matrix(-1 0 0 1 686.466 122.429)" fill="white"/>
<rect width="10.3683" height="10.3683" transform="matrix(-1 0 0 1 696.541 132.317)" fill="white"/>
<rect width="10.3683" height="10.3683" transform="matrix(-1 0 0 1 635.314 117.963)" fill="white"/>
<rect width="10.3683" height="10.3683" transform="matrix(-1 0 0 1 625.014 128.308)" fill="white"/>
<rect width="10.3683" height="10.3683" transform="matrix(-1 0 0 1 614.762 138.576)" fill="white"/>
<rect width="10.3683" height="10.3683" transform="matrix(-1 0 0 1 604.45 138.608)" fill="white"/>
<rect width="10.3683" height="10.3683" transform="matrix(-1 0 0 1 594.465 148.102)" fill="white"/>
<rect width="10.3683" height="10.3683" transform="matrix(-1 0 0 1 594.445 158.357)" fill="white"/>
<rect width="10.3683" height="10.3683" transform="matrix(-1 0 0 1 604.45 168.612)" fill="white"/>
<rect width="10.3683" height="10.3683" transform="matrix(-1 0 0 1 614.705 173.268)" fill="white"/>
<rect width="10.3683" height="10.3683" transform="matrix(-1 0 0 1 624.96 178.617)" fill="white"/>
<rect width="10.3683" height="10.3683" transform="matrix(-1 0 0 1 635.245 173.353)" fill="white"/>
<rect width="10.3683" height="10.3683" transform="matrix(-1 0 0 1 645.47 168.584)" fill="white"/>
<rect width="10.3683" height="10.3683" transform="matrix(-1 0 0 1 655.755 178.639)" fill="white"/>
<rect width="10.3683" height="10.3683" transform="matrix(-1 0 0 1 665.977 183.331)" fill="white"/>
<rect width="10.3683" height="10.3683" transform="matrix(-1 0 0 1 676.265 188.191)" fill="white"/>
<rect width="10.3683" height="10.3683" transform="matrix(-1 0 0 1 686.487 188.191)" fill="white"/>
<rect width="10.3683" height="10.3683" transform="matrix(-1 0 0 1 696.775 183.331)" fill="white"/>
<rect width="10.3683" height="10.3683" transform="matrix(-1 0 0 1 483.206 -4.73364)" fill="white"/>
<rect width="10.3683" height="10.3683" transform="matrix(-1 0 0 1 483.206 5.58179)" fill="white"/>
<rect width="10.3683" height="10.3683" transform="matrix(-1 0 0 1 473.069 15.918)" fill="white"/>
<rect width="10.3683" height="10.3683" transform="matrix(-1 0 0 1 350.29 -4.3999)" fill="white"/>
<rect width="10.3683" height="10.3683" transform="matrix(-1 0 0 1 350.27 5.85498)" fill="white"/>
<rect width="10.3683" height="10.3683" transform="matrix(-1 0 0 1 360.275 16.1101)" fill="white"/>
<rect width="10.3683" height="10.3683" transform="matrix(-1 0 0 1 370.53 20.7666)" fill="white"/>
<rect width="10.3683" height="10.3683" transform="matrix(-1 0 0 1 380.785 26.115)" fill="white"/>
<rect width="10.3683" height="10.3683" transform="matrix(-1 0 0 1 391.07 20.8513)" fill="white"/>
<rect width="10.3683" height="10.3683" transform="matrix(-1 0 0 1 401.295 16.0828)" fill="white"/>
<rect width="10.3683" height="10.3683" transform="matrix(-1 0 0 1 411.58 26.1372)" fill="white"/>
<rect width="10.3683" height="10.3683" transform="matrix(-1 0 0 1 421.802 30.8293)" fill="white"/>
<rect width="10.3683" height="10.3683" transform="matrix(-1 0 0 1 432.09 35.689)" fill="white"/>
<rect width="10.3683" height="10.3683" transform="matrix(-1 0 0 1 442.312 35.689)" fill="white"/>
<rect width="10.3683" height="10.3683" transform="matrix(-1 0 0 1 452.6 30.8293)" fill="white"/>
<rect width="10.3683" height="10.3683" transform="matrix(-1 0 0 1 462.818 26.1372)" fill="white"/>
<rect width="10.3683" height="10.3683" transform="matrix(-1 0 0 1 113.141 32.6646)" fill="white"/>
<rect width="10.3683" height="10.3683" transform="matrix(-1 0 0 1 133.758 32.6646)" fill="white"/>
<rect width="10.3683" height="10.3683" transform="matrix(-1 0 0 1 123.455 32.6646)" fill="white"/>
<rect width="10.3683" height="10.3683" transform="matrix(-1 0 0 1 144.086 37.2153)" fill="white"/>
<rect width="10.3683" height="10.3683" transform="matrix(-1 0 0 1 153.975 47.4773)" fill="white"/>
<rect width="10.3683" height="10.3683" transform="matrix(-1 0 0 1 164.05 57.3657)" fill="white"/>
<rect width="10.3683" height="10.3683" transform="matrix(-1 0 0 1 174.226 57.3489)" fill="white"/>
<rect width="10.3683" height="10.3683" transform="matrix(-1 0 0 1 184.536 62.5374)" fill="white"/>
<rect width="10.3683" height="10.3683" transform="matrix(-1 0 0 1 194.89 72.8164)" fill="white"/>
<rect width="10.3683" height="10.3683" transform="matrix(-1 0 0 1 194.89 83.1318)" fill="white"/>
<rect width="10.3683" height="10.3683" transform="matrix(-1 0 0 1 184.753 93.468)" fill="white"/>
<rect width="10.3683" height="10.3683" transform="matrix(-1 0 0 1 102.823 43.012)" fill="white"/>
<rect width="10.3683" height="10.3683" transform="matrix(-1 0 0 1 92.523 53.3567)" fill="white"/>
<rect width="10.3683" height="10.3683" transform="matrix(-1 0 0 1 82.2707 63.6245)" fill="white"/>
<rect width="10.3683" height="10.3683" transform="matrix(-1 0 0 1 71.9594 63.6567)" fill="white"/>
<rect width="10.3683" height="10.3683" transform="matrix(-1 0 0 1 61.9739 73.1501)" fill="white"/>
<rect width="10.3683" height="10.3683" transform="matrix(-1 0 0 1 61.9544 83.405)" fill="white"/>
<rect width="10.3683" height="10.3683" transform="matrix(-1 0 0 1 71.9594 93.6602)" fill="white"/>
<rect width="10.3683" height="10.3683" transform="matrix(-1 0 0 1 82.2144 98.3167)" fill="white"/>
<rect width="10.3683" height="10.3683" transform="matrix(-1 0 0 1 92.4694 103.665)" fill="white"/>
<rect width="10.3683" height="10.3683" transform="matrix(-1 0 0 1 102.754 98.4014)" fill="white"/>
<rect width="10.3683" height="10.3683" transform="matrix(-1 0 0 1 112.979 93.6328)" fill="white"/>
<rect width="10.3683" height="10.3683" transform="matrix(-1 0 0 1 123.264 103.687)" fill="white"/>
<rect width="10.3683" height="10.3683" transform="matrix(-1 0 0 1 133.486 108.379)" fill="white"/>
<rect width="10.3683" height="10.3683" transform="matrix(-1 0 0 1 143.774 113.239)" fill="white"/>
<rect width="10.3683" height="10.3683" transform="matrix(-1 0 0 1 153.996 113.239)" fill="white"/>
<rect width="10.3683" height="10.3683" transform="matrix(-1 0 0 1 164.284 108.379)" fill="white"/>
<rect width="10.3683" height="10.3683" transform="matrix(-1 0 0 1 174.502 103.687)" fill="white"/>
<rect x="152.738" y="254.995" width="135.324" height="62.4075" fill="#0036C2" stroke="white" stroke-width="3.47712"/>
<rect x="152.738" y="192.616" width="135.324" height="62.4075" fill="#0D0E4D" stroke="white" stroke-width="3.47712"/>
<rect x="288.154" y="317.227" width="135.324" height="62.4075" fill="#0036C2" stroke="white" stroke-width="3.47712"/>
<rect x="423.547" y="379.702" width="135.324" height="62.4075" fill="#0036C2" stroke="white" stroke-width="3.47712"/>
<mask id="path-74-inside-1_2637_16432" fill="white">
<path d="M557.227 440.042H696.029V505.927H557.227V440.042Z"/>
</mask>
<path d="M557.227 440.042H696.029V505.927H557.227V440.042Z" fill="#0036C2"/>
<path d="M557.227 440.042V436.565H553.75V440.042H557.227ZM557.227 443.519H696.029V436.565H557.227V443.519ZM560.704 505.927V440.042H553.75V505.927H560.704Z" fill="white" mask="url(#path-74-inside-1_2637_16432)"/>
<rect x="281.78" y="310.721" width="12.7494" height="12.7494" fill="#B882FF" stroke="white" stroke-width="3.47712"/>
<rect x="416.551" y="310.721" width="12.7494" height="12.7494" fill="#B882FF" stroke="white" stroke-width="3.47712"/>
<rect x="416.551" y="373.037" width="12.7494" height="12.7494" fill="#B882FF" stroke="white" stroke-width="3.47712"/>
<rect x="552.369" y="373.037" width="12.7494" height="12.7494" fill="#B882FF" stroke="white" stroke-width="3.47712"/>
<rect x="281.78" y="373.037" width="12.7494" height="12.7494" fill="#B882FF" stroke="white" stroke-width="3.47712"/>
<rect x="416.551" y="435.804" width="12.7494" height="12.7494" fill="#B882FF" stroke="white" stroke-width="3.47712"/>
<rect x="552.369" y="435.804" width="12.7494" height="12.7494" fill="#B882FF" stroke="white" stroke-width="3.47712"/>
<path fill-rule="evenodd" clip-rule="evenodd" d="M547.762 179.52L547.477 143.551L539.624 142.778C539.975 136.353 540.24 121.31 538.488 112.541C536.297 101.581 532.14 90.3378 527.383 86.7763C522.626 83.2147 518.193 83.5595 517.195 85.3781C516.196 87.1968 517.449 92.1368 519.884 95.4294C519.964 95.5367 520.045 95.6469 520.129 95.7599C522.619 99.1178 526.99 105.012 526.905 111.908C526.835 117.61 527.09 119.976 527.226 120.446C525.206 115.594 520.674 105.089 518.705 101.886C516.242 97.8818 508.983 89.2491 505.365 87.604C501.746 85.9589 497.287 85.5922 495.954 87.9577C494.887 89.8502 495.042 92.0886 495.253 92.9712C493.012 91.6899 487.827 89.3675 485.018 90.328C481.507 91.5287 480.371 94.4212 482.417 96.8379C483.242 97.8112 485.501 99.3662 487.996 101.083C491.694 103.628 495.908 106.528 496.722 108.412C497.195 109.506 498.125 110.798 499.154 112.226C501.089 114.914 503.371 118.085 503.61 121.333C495.051 113.997 492.767 114.142 489.065 114.377C488.634 114.404 488.184 114.432 487.703 114.451C483.086 114.624 477.28 116.267 475.933 118.277C475.502 118.919 474.992 119.383 474.525 119.808C473.529 120.713 472.723 121.446 473.279 123.364C473.933 125.619 474.842 127.105 475.215 127.566C474.559 127.472 472.909 127.724 471.553 129.485C469.857 131.686 465.488 138.44 468.208 144.572C470.928 150.704 480.335 164.421 485.065 167.271C489.796 170.121 508.124 179.941 515.622 180.728C521.621 181.357 539.548 180.185 547.762 179.52ZM477.155 127.137C480.256 126.07 486.907 124.027 488.699 124.387C490.938 124.838 496.982 129.508 497.313 133.593C497.645 137.677 496.768 145.101 493.155 145.95C492.118 146.193 491.061 146.701 489.989 147.217C487.323 148.5 484.557 149.83 481.735 147.27C477.777 143.678 477.633 139.854 477.499 136.297L477.155 127.137Z" fill="#F0A679"/>
<path fill-rule="evenodd" clip-rule="evenodd" d="M517.913 83.194C516.479 83.7937 516.057 84.1084 515.659 84.8748C515.452 85.2753 515.316 85.6351 515.358 85.6743C515.4 85.7135 515.321 86.0499 515.182 86.422C514.797 87.4533 515.309 90.6943 516.038 91.8333C516.13 91.9768 516.308 92.2907 516.435 92.5309C516.561 92.771 516.919 93.2698 517.231 93.6395C517.542 94.0091 518.053 94.7235 518.365 95.2271C519.506 97.0674 520.042 97.8391 520.53 98.3437C520.804 98.6273 521.217 99.2129 521.448 99.6451C521.679 100.077 521.947 100.548 522.044 100.691C522.496 101.362 523.779 104.049 524.175 105.153C524.417 105.83 524.726 106.62 524.861 106.908C524.995 107.197 525.198 108.512 525.311 109.83C525.423 111.149 525.561 112.491 525.617 112.813C525.672 113.135 525.676 113.598 525.624 113.842C525.55 114.195 525.479 114.245 525.277 114.089C525.138 113.982 525.013 113.684 525 113.427C524.988 113.17 524.8 112.526 524.584 111.995C524.098 110.801 523.438 108.954 523.196 108.111C522.833 106.842 520.121 101.72 519.064 100.305C518.615 99.7049 518.247 99.1746 518.245 99.1264C518.243 99.0782 518.083 98.8276 517.889 98.5695C517.695 98.3112 516.88 97.1643 516.077 96.0206C515.274 94.8768 514.239 93.5531 513.776 93.0791C512.246 91.5099 508.137 87.8318 507.657 87.6011C507.398 87.4766 506.703 87.079 506.113 86.7177C504.327 85.6246 502.003 84.9113 499.488 84.6847C498.737 84.617 497.109 85.1854 495.467 86.0887L494.045 86.8714L493.592 88.4914C493.343 89.3824 493.124 90.1325 493.106 90.1582C493.087 90.184 492.754 90.0606 492.365 89.8841C491.056 89.2907 489.675 88.776 489.134 88.6797C487.758 88.4348 487.557 88.4262 485.877 88.539C485.654 88.554 485.142 88.7685 484.739 89.0154C484.336 89.2624 483.733 89.6306 483.399 89.8338C481.792 90.8091 480.781 92.6904 480.896 94.4902C481.055 96.9716 481.548 98.0431 483.408 99.9576C484.495 101.077 486.463 102.558 486.849 102.547C486.967 102.543 487.551 102.962 488.147 103.478C488.742 103.993 489.467 104.584 489.758 104.791C490.049 104.998 490.355 105.268 490.438 105.391C490.521 105.514 490.67 105.611 490.768 105.607C491.017 105.598 492.515 106.675 492.929 107.161C493.117 107.381 493.571 107.857 493.938 108.217C494.305 108.578 494.61 108.978 494.614 109.106C494.619 109.235 494.828 109.464 495.078 109.615C495.328 109.766 495.536 109.973 495.54 110.075C495.544 110.177 495.941 110.621 496.422 111.062C496.903 111.502 497.486 112.217 497.717 112.65C497.948 113.083 498.293 113.591 498.483 113.781C498.911 114.208 500.242 116.116 500.115 116.121C500.064 116.123 500.125 116.301 500.251 116.517C500.439 116.838 500.35 116.808 499.762 116.351C499.367 116.044 498.95 115.723 498.835 115.638C498.719 115.554 498.594 115.421 498.557 115.343C498.487 115.197 495.689 113.972 495.447 113.981C495.372 113.984 494.938 113.832 494.481 113.644C492.566 112.855 489.886 112.529 487.105 112.745C483.563 113.02 482.166 113.265 481.063 113.804C480.629 114.016 480.124 114.219 479.94 114.254C479.757 114.289 479.255 114.531 478.824 114.791C478.394 115.051 477.511 115.512 476.862 115.816C476.214 116.119 475.685 116.438 475.689 116.525C475.692 116.612 475.58 116.687 475.439 116.692C475.088 116.706 472.838 119.218 472.527 119.945C471.828 121.576 471.938 124.501 472.745 125.77C473.312 126.661 473.325 126.746 472.898 126.762C472.716 126.769 472.303 126.968 471.981 127.204C471.658 127.44 471.158 127.742 470.87 127.875C470.383 128.1 469.559 129.274 468.21 131.663C466.968 133.862 466.206 140.179 466.895 142.573C467.006 142.96 467.156 143.754 467.228 144.336C467.3 144.918 467.564 145.802 467.815 146.3C468.066 146.798 468.334 147.471 468.411 147.797C468.602 148.602 468.854 149.2 469.695 150.839C470.089 151.608 470.478 152.435 470.558 152.677C470.638 152.918 470.85 153.271 471.029 153.46C471.208 153.65 471.472 154.006 471.616 154.253C472.021 154.946 472.957 156.301 473.474 156.943C473.73 157.261 474.151 157.8 474.408 158.14C475.443 159.508 476.763 160.969 478.006 162.125C478.726 162.796 479.422 163.451 479.553 163.581C480.715 164.744 485.509 169.035 485.64 169.03C485.733 169.027 486.166 169.29 486.603 169.615C489.375 171.677 490.528 172.454 491.91 173.189C492.682 173.6 493.363 174.008 493.421 174.096C493.48 174.184 493.673 174.25 493.851 174.243C494.029 174.236 494.275 174.344 494.399 174.483C494.523 174.622 495.411 175.13 496.371 175.611C497.332 176.093 498.65 176.768 499.301 177.111C500.832 177.918 501.976 178.391 502.646 178.495C502.941 178.541 503.416 178.758 503.701 178.977C503.985 179.196 504.333 179.371 504.473 179.365C504.614 179.36 504.87 179.422 505.043 179.504C505.383 179.664 507.328 180.286 508.775 180.698C509.269 180.839 510.277 181.047 511.015 181.16C511.753 181.273 512.748 181.435 513.227 181.519C513.705 181.603 514.166 181.625 514.251 181.568C514.336 181.511 514.508 181.523 514.632 181.595C514.889 181.743 515.27 181.827 515.663 181.823C515.81 181.821 516.212 181.879 516.557 181.95C516.902 182.022 518.185 182.09 519.408 182.103C520.631 182.115 522.073 182.149 522.612 182.179C523.511 182.228 533.376 182.027 534.605 181.933C535.309 181.88 535.458 181.876 540.818 181.767C543.786 181.706 545.906 181.582 546.762 181.418C548.135 181.156 549.055 180.784 549.044 180.494C549.04 180.403 549.19 180.095 549.377 179.81C549.666 179.369 549.715 178.932 549.706 176.831C549.688 172.497 549.721 169.581 549.789 169.461C549.826 169.397 549.796 167.63 549.722 165.536C549.649 163.442 549.584 161.568 549.579 161.372C549.573 161.177 549.419 157.035 549.235 152.169C549.209 151.49 549.186 150.856 549.165 150.263C548.952 144.439 548.887 142.646 548.034 142.113C547.654 141.876 547.119 141.889 546.344 141.908C546.167 141.912 545.978 141.917 545.775 141.919C542.307 141.952 540.97 141.875 540.794 141.632C540.604 141.37 540.545 138.819 540.71 138.017C540.771 137.721 540.846 137.037 540.876 136.497C540.906 135.957 540.99 134.912 541.062 134.174C541.47 130.012 541.611 125.255 541.456 120.89C541.347 117.831 541.171 115.201 541.075 115.205C541.043 115.206 540.842 113.839 540.748 112.99C540.7 112.551 540.595 111.914 540.516 111.574C540.436 111.234 540.324 110.638 540.265 110.248C540.114 109.241 539.763 107.8 539.309 106.325C539.093 105.624 538.91 104.91 538.903 104.737C538.885 104.343 538.452 103.246 537.935 102.284C537.718 101.881 537.536 101.447 537.531 101.32C537.519 101.022 536.684 99.1701 536.428 98.8721C536.173 98.5757 535.414 96.9962 535.402 96.7379C535.397 96.628 535.181 96.1454 534.923 95.6653C534.664 95.1852 534.447 94.7002 534.439 94.5874C534.432 94.4745 534.128 93.8973 533.763 93.3044C533.399 92.7114 533.097 92.1487 533.094 92.0535C533.09 91.9586 532.711 91.4522 532.251 90.9284C531.792 90.4045 531.411 89.8631 531.406 89.7253C531.401 89.5876 531.314 89.478 531.213 89.4817C531.113 89.4855 530.974 89.3504 530.905 89.1816C530.798 88.9201 529.869 87.7934 528.655 86.4533C528.479 86.2597 528.055 85.915 527.712 85.6872C527.369 85.4595 526.87 85.0666 526.605 84.8142C526.064 84.3002 523.801 83.1702 523.346 83.1873C523.184 83.1934 522.952 83.1057 522.83 82.9926C522.693 82.8649 521.885 82.7946 520.699 82.8075C519.176 82.8239 518.61 82.9026 517.913 83.194ZM521.692 85.8166C522.961 86.1049 523.737 86.468 524.761 87.251C525.229 87.6096 525.812 87.9852 526.057 88.0857C526.301 88.1865 526.746 88.6273 527.044 89.0653C527.343 89.5034 527.717 89.9824 527.874 90.1299C528.669 90.8764 530.681 93.6302 531.049 94.476C531.279 95.0056 531.675 95.7819 531.929 96.2011C532.182 96.6203 532.393 97.064 532.398 97.1873C532.402 97.3105 532.534 97.636 532.691 97.9108C532.847 98.1855 532.98 98.5303 532.987 98.677C532.993 98.8237 533.181 99.2173 533.404 99.5518C533.961 100.385 535.708 104.599 536.242 106.392C536.4 106.924 536.625 107.677 536.741 108.065C536.857 108.452 536.987 109.009 537.03 109.301C537.072 109.593 537.225 110.389 537.369 111.069C537.514 111.749 537.685 112.825 537.75 113.459C537.815 114.094 537.973 115.17 538.102 115.851C538.296 116.881 538.42 119.135 538.637 125.573C538.65 125.935 538.598 126.899 538.524 127.715C538.449 128.531 538.373 129.84 538.355 130.625C538.336 131.409 538.266 132.654 538.198 133.391C538.131 134.128 538.051 135.133 538.02 135.624C537.99 136.115 537.926 136.635 537.878 136.779C537.746 137.177 537.661 140.24 537.731 142.088C537.789 143.635 537.819 143.748 538.247 144.028C539.302 144.721 540.253 144.888 543.061 144.87C544.567 144.861 545.85 144.9 545.911 144.957C546.072 145.106 546.844 166.846 546.802 170.026C546.782 171.496 546.776 173.701 546.787 174.925C546.799 176.149 546.809 177.311 546.809 177.507C546.81 177.703 546.778 178.033 546.739 178.241C546.668 178.616 546.62 178.621 541.824 178.765C539.161 178.844 536.981 178.894 536.98 178.875C536.979 178.857 533.941 178.928 530.229 179.034C523.995 179.211 518.446 179.183 516.712 178.966C516.319 178.916 515.837 178.865 515.641 178.852C514.515 178.775 513.433 178.639 512.961 178.514C512.664 178.435 512.06 178.335 511.619 178.29C511.177 178.246 510.737 178.139 510.64 178.052C510.544 177.965 510.287 177.9 510.068 177.908C509.849 177.917 509.617 177.845 509.553 177.749C509.489 177.654 509.219 177.584 508.952 177.594C508.686 177.604 508.148 177.464 507.758 177.283C507.367 177.101 506.935 176.957 506.797 176.963C506.659 176.968 505.914 176.684 505.142 176.333C504.37 175.981 503.425 175.606 503.043 175.499C502.661 175.391 502.225 175.207 502.074 175.089C501.923 174.971 501.353 174.708 500.807 174.504C500.261 174.3 499.569 173.977 499.269 173.786C498.968 173.594 498.477 173.313 498.178 173.161C497.879 173.01 497.349 172.74 497 172.562C496.651 172.384 495.876 171.996 495.278 171.701C494.68 171.405 494.02 171.018 493.812 170.841C493.603 170.664 493.373 170.521 493.301 170.523C492.743 170.544 488.989 167.605 488.972 167.134C488.968 167.033 488.334 166.657 487.562 166.298C486.055 165.597 485.984 165.54 482.124 161.887C480.715 160.554 479.513 159.462 479.454 159.461C479.396 159.46 479.054 159.093 478.695 158.645C478.336 158.198 477.831 157.638 477.573 157.402C477.315 157.166 476.888 156.66 476.624 156.278C476.36 155.896 475.841 155.149 475.472 154.619C475.102 154.088 474.576 153.27 474.304 152.801C474.032 152.332 473.704 151.828 473.576 151.681C473.207 151.26 471.805 148.526 471.511 147.654C471.364 147.218 471.046 146.469 470.805 145.988C470.563 145.507 470.353 144.819 470.339 144.459C470.324 144.098 470.216 143.581 470.098 143.31C469.9 142.856 469.697 141.055 469.699 140.082L469.665 140.084L469.831 135.944L469.881 135.857C469.883 135.778 469.897 135.678 469.918 135.551C469.971 135.234 470.149 134.719 470.313 134.407C470.477 134.094 470.658 133.583 470.714 133.27C470.77 132.958 470.982 132.502 471.184 132.257C471.386 132.011 471.778 131.468 472.056 131.049C472.76 129.989 473.298 129.666 474.296 129.708C474.806 129.729 475.032 129.786 475.104 129.929C475.78 130.268 476.117 131.202 476.231 131.802C476.476 132.012 476.57 135.013 476.496 135.978C476.421 136.95 476.349 138.227 476.329 138.923C476.306 139.753 476.84 141.904 477.316 142.901C477.456 143.194 477.662 143.78 477.774 144.203C477.886 144.627 478.152 145.191 478.364 145.458C478.577 145.724 478.754 146.03 478.758 146.138C478.77 146.454 482.268 149.565 482.597 149.552C482.762 149.546 483.354 149.757 483.914 150.022C484.867 150.473 486.574 150.777 487.374 150.639C487.568 150.606 488 150.379 488.333 150.136C489.054 149.608 493.235 147.412 493.79 147.269C494.003 147.214 494.495 147.072 494.881 146.953C495.268 146.834 495.743 146.702 495.937 146.661C496.131 146.62 496.429 146.522 496.599 146.444C497.117 146.206 502.906 145.86 503.826 146.012C505.607 146.306 507.508 146.858 508.696 147.426C508.954 147.549 509.489 147.689 509.885 147.737C510.556 147.819 510.635 147.781 511.063 147.173C511.439 146.639 511.496 146.414 511.376 145.939C511.197 145.233 510.948 144.924 510.568 144.939C510.41 144.944 509.873 144.772 509.375 144.556C506.931 143.495 505.019 143.006 503.088 142.949C501.512 142.903 501.258 142.916 498.519 143.198C496.468 143.409 495.958 143.379 496.409 143.076C496.734 142.858 498.098 139.839 498.32 138.848C498.648 137.385 498.661 133.349 498.34 132.276C497.954 130.98 497.722 130.495 497.443 130.4C497.304 130.352 497.181 130.079 497.17 129.792C497.159 129.505 496.944 128.936 496.691 128.527C496.145 127.643 493.684 125.255 492.702 124.656C492.321 124.423 491.961 124.121 491.903 123.985C491.845 123.848 491.684 123.741 491.545 123.746C491.406 123.751 490.755 123.527 490.096 123.248C488.913 122.747 488.877 122.743 486.819 122.928C484.88 123.101 483.568 123.408 482.788 123.869C482.257 124.182 480.467 124.761 478.928 125.164L478.843 125.237L478.468 125.281C477.796 125.446 477.209 125.566 476.849 125.598C476.257 125.651 476.011 125.551 476.092 125.418C475.691 124.587 474.986 122.952 474.935 122.13C474.931 122.073 474.941 122.011 474.963 121.942C475.035 121.44 476.411 119.506 476.722 119.494C476.8 119.491 477.069 119.24 477.319 118.937C477.569 118.634 477.947 118.379 478.159 118.371C478.37 118.363 478.6 118.295 478.67 118.218C478.805 118.069 479.196 117.901 479.516 117.815C479.536 117.801 479.556 117.787 479.576 117.774C480.436 117.353 482.192 116.528 483.059 116.222C483.068 116.218 483.077 116.214 483.087 116.21C483.113 116.199 483.149 116.187 483.196 116.176C483.253 116.158 483.304 116.143 483.348 116.132L483.347 116.145C484.643 115.912 489.686 115.66 490.687 115.804C493.096 116.151 496.15 117.171 496.81 117.848C496.994 118.037 497.246 118.188 497.369 118.183C497.615 118.174 500.569 120.856 500.578 121.097C500.581 121.18 501.01 121.697 501.531 122.247C502.854 123.641 503.29 124.323 503.591 125.469C503.785 126.206 503.811 126.656 503.691 127.218C503.263 129.219 505.152 130.466 506.145 128.839C506.689 127.946 506.779 126.787 506.492 124.342C506.226 122.085 504.236 116.773 503.153 115.43C502.903 115.12 502.516 114.486 502.293 114.021C502.07 113.556 501.677 112.943 501.42 112.659C501.163 112.376 500.948 112.039 500.944 111.912C500.939 111.785 500.802 111.579 500.64 111.454C500.478 111.33 499.755 110.485 499.034 109.578C498.312 108.671 497.587 107.801 497.424 107.646C497.261 107.49 496.931 107.124 496.69 106.831C496.45 106.539 495.97 106.012 495.624 105.661C495.278 105.31 494.992 104.971 494.99 104.908C494.988 104.845 494.771 104.705 494.509 104.597C494.247 104.489 493.871 104.21 493.673 103.977C493.475 103.743 493.202 103.557 493.066 103.562C492.93 103.567 492.735 103.427 492.632 103.251C492.529 103.075 492.154 102.749 491.798 102.526C491.442 102.302 491.1 101.981 491.038 101.812C490.977 101.643 490.843 101.508 490.741 101.512C490.639 101.516 490.162 101.213 489.681 100.84C489.2 100.466 488.469 100.024 488.058 99.8579C487.096 99.4694 484.849 97.2796 484.247 96.1454C483.441 94.6254 483.639 93.4516 484.872 92.4355C486.076 91.4441 486.6 91.3816 489.56 91.8772C489.828 91.922 490.143 92.0665 490.261 92.1984C490.378 92.3302 490.615 92.4328 490.787 92.4263C490.958 92.4199 491.202 92.5309 491.329 92.6731C491.457 92.8153 491.667 92.9276 491.797 92.9227C492.152 92.9094 493.289 93.6638 494.427 94.6667C494.984 95.1572 495.849 95.8156 496.349 96.13C497.375 96.7737 500.113 99.2751 500.945 100.327C501.245 100.707 501.662 101.182 501.871 101.382C502.436 101.924 503.073 102.654 503.264 102.976C503.356 103.133 503.756 103.587 504.152 103.984C504.549 104.382 504.995 104.926 505.145 105.193C505.294 105.461 505.753 106.099 506.165 106.61C508.016 108.908 508.821 110.003 508.973 110.428C509.046 110.63 509.171 110.793 509.252 110.79C509.332 110.787 509.46 111 509.537 111.263C509.613 111.525 509.923 112.079 510.225 112.492C510.527 112.906 510.776 113.314 510.78 113.399C510.783 113.484 510.998 113.939 511.257 114.411C511.75 115.31 512.92 118.143 513.049 118.752C513.09 118.946 513.395 119.816 513.728 120.685C514.06 121.555 514.369 122.585 514.415 122.975C514.544 124.077 515.031 124.969 515.565 125.082C516.331 125.245 517.184 124.962 517.382 124.479C517.618 123.904 517.064 120.75 516.537 119.669C516.327 119.239 516.091 118.592 516.013 118.232C515.934 117.872 515.813 117.499 515.744 117.404C515.676 117.308 515.439 116.796 515.217 116.266C514.123 113.641 513.53 112.281 513.309 111.885C512.439 110.332 511.677 109.148 510.587 107.659C509.903 106.724 509.068 105.556 508.731 105.063C508.394 104.57 507.913 103.93 507.661 103.643C507.41 103.355 506.928 102.752 506.59 102.302C505.701 101.12 503.249 98.3699 503.089 98.3759C503.015 98.3787 502.782 98.1271 502.572 97.8165C502.362 97.506 501.875 96.9737 501.49 96.6335C501.105 96.2934 500.138 95.4279 499.341 94.7106C498.544 93.993 497.838 93.4081 497.772 93.4105C497.591 93.4174 496.773 91.8631 496.485 90.9653C496.087 89.7241 496.354 88.4767 497.023 88.4515C497.186 88.4454 497.629 88.2624 498.008 88.0447C498.57 87.7226 498.904 87.6591 499.808 87.7029C501.881 87.8035 503.865 88.6118 506.605 90.4715C507.313 90.9519 509.372 92.8804 510.102 93.7459C510.424 94.1271 510.753 94.4649 510.834 94.4964C511.137 94.6143 511.879 95.3325 511.886 95.5146C511.889 95.6187 512.078 95.8428 512.304 96.0128C512.531 96.1829 512.841 96.5433 512.994 96.8138C513.146 97.0843 513.448 97.4738 513.664 97.6792C514.005 98.0032 514.569 98.8784 515.816 101.02C515.986 101.31 516.301 101.712 516.517 101.913C516.733 102.113 517.05 102.549 517.223 102.881C517.396 103.213 517.7 103.646 517.898 103.844C518.096 104.041 518.261 104.284 518.265 104.382C518.272 104.567 518.528 105.124 519.443 106.94C519.736 107.521 520.042 108.225 520.124 108.506C520.205 108.787 520.387 109.218 520.527 109.464C520.667 109.71 520.786 110.002 520.791 110.113C520.803 110.409 521.384 112.081 521.79 112.991C522.096 113.678 522.458 114.923 522.684 116.074C522.723 116.269 522.801 116.546 522.859 116.691C523.045 117.161 523.415 118.334 523.803 119.683L524.182 121.005L523.252 121.907C522.74 122.403 522.185 123.105 522.017 123.467C521.849 123.829 521.549 124.284 521.351 124.479C521.152 124.673 520.995 124.974 521.001 125.149C521.008 125.324 520.937 125.518 520.844 125.581C520.506 125.808 519.511 127.992 519.189 129.214C519.007 129.903 518.761 130.634 518.641 130.839C518.522 131.044 518.32 132.093 518.194 133.171C517.815 136.402 517.811 136.931 518.167 137.614C518.444 138.145 518.572 138.226 519.112 138.205C519.455 138.192 519.886 138.094 520.069 137.987C520.402 137.792 520.831 136.445 520.936 135.267C521.076 133.706 521.427 131.744 521.656 131.246C521.795 130.944 521.999 130.295 522.109 129.805C522.628 127.486 525.655 123.067 526.991 122.678C528.226 122.317 528.384 121.436 528.501 114.252C528.517 113.272 528.533 112.39 528.536 112.292C528.547 111.962 528.213 108.751 528.075 107.856C527.91 106.792 527.161 104.229 526.936 103.962C526.848 103.856 526.524 103.147 526.217 102.386C525.909 101.624 525.487 100.687 525.279 100.303C524.073 98.0796 523.558 97.2789 522.923 96.6388C522.533 96.2463 522.212 95.8695 522.21 95.8018C522.207 95.734 521.88 95.2342 521.482 94.6913C521.084 94.1485 520.693 93.521 520.613 93.2971C520.534 93.0734 520.24 92.6436 519.961 92.342C518.891 91.188 518.255 89.8203 518.093 88.3242C517.912 86.6576 518.109 86.1866 519.116 85.878C520.074 85.5848 520.616 85.5719 521.692 85.8166ZM489.414 126.078C489.945 126.317 490.757 126.828 491.218 127.213C491.68 127.597 492.302 128.103 492.6 128.337C493.138 128.759 494.344 130.294 494.354 130.571C494.357 130.65 494.613 131.223 494.923 131.843C495.594 133.19 495.954 135.736 495.683 137.216C495.442 138.528 494.89 140.031 494.455 140.557C494.247 140.81 494.03 141.192 493.974 141.406C493.919 141.62 493.161 142.57 492.292 143.517C490.606 145.354 488.669 146.661 487.579 146.696C487.247 146.707 486.863 146.895 486.565 147.194C486.127 147.632 486.035 147.657 485.51 147.48C483.078 146.655 481.808 145.602 480.789 143.564C480.669 143.324 480.414 142.813 480.223 142.428C479.543 141.063 479.38 140.164 479.396 137.885C479.405 136.678 479.474 135.402 479.55 135.05C479.697 134.365 479.427 131.827 479.098 130.804C478.989 130.465 478.725 129.774 478.51 129.267L478.12 128.347L478.725 128.302C479.421 128.25 479.432 128.247 480.078 127.95C480.344 127.827 481.061 127.591 481.672 127.425C482.282 127.259 483.208 126.932 483.73 126.698C486.23 125.58 487.905 125.398 489.414 126.078Z" fill="#3E001A"/>
<rect x="219.344" y="121.78" width="245.716" height="70.7014" fill="#B882FF" stroke="white" stroke-width="3.47712"/>
<rect x="211.23" y="187.845" width="12.7494" height="12.7494" fill="white" stroke="#3E001A" stroke-width="3.47712"/>
<rect x="211.23" y="113.666" width="12.7494" height="12.7494" fill="white" stroke="#3E001A" stroke-width="3.47712"/>
<rect x="460.424" y="113.666" width="12.7494" height="12.7494" fill="white" stroke="#3E001A" stroke-width="3.47712"/>
<rect x="460.424" y="187.845" width="12.7494" height="12.7494" fill="white" stroke="#3E001A" stroke-width="3.47712"/>
<path d="M421.502 173.136H429.036C438.578 173.136 443.96 167.396 443.96 157.638C443.96 148.024 438.578 142.284 429.036 142.284H421.502V173.136ZM412.533 180.311V135.109H429.61C444.175 135.109 453.215 143.575 453.215 157.71C453.215 171.845 444.175 180.311 429.61 180.311H412.533Z" fill="white"/>
<path d="M374.905 135.109L396.286 165.244V135.109H404.609V180.311H397.434L374.331 148.454V180.311H366.008V135.109H374.905Z" fill="white"/>
<path d="M333.212 135.109H343.185L361.625 180.311H352.082L347.562 169.118H328.333L323.956 180.311H314.915L333.212 135.109ZM337.732 145.297L331.059 162.23H344.835L338.019 145.297H337.732Z" fill="white"/>
<path d="M312.462 180.311H303.278C302.345 179.092 301.771 176.006 301.413 170.984C301.054 165.89 298.758 163.594 293.592 163.594H282.973V180.311H274.147V135.109H294.596C306.148 135.109 311.816 140.49 311.816 148.885C311.816 155.701 307.368 159.647 301.843 160.365C307.009 161.369 309.664 164.383 310.166 169.692C310.74 176.365 310.955 178.661 312.462 180.311ZM282.973 156.562H293.376C299.906 156.562 302.919 154.409 302.919 149.53C302.919 145.01 299.906 142.355 293.376 142.355H282.973V156.562Z" fill="white"/>
<path d="M268.095 167.899C268.095 175.719 262.14 180.311 251.593 180.311H230.354V135.109H250.445C261.853 135.109 266.732 139.988 266.732 147.378C266.732 152.472 263.288 156.06 258.409 156.849C263.862 157.854 268.095 161.441 268.095 167.899ZM250.588 160.724H239.108V173.065H250.588C256.185 173.065 258.911 170.697 258.911 166.966C258.911 163.163 256.185 160.724 250.588 160.724ZM239.108 142.355V153.907H249.871C255.252 153.907 257.548 151.539 257.548 148.167C257.548 144.795 255.252 142.355 249.871 142.355H239.108Z" fill="white"/>
<rect x="281.78" y="246.882" width="12.7494" height="12.7494" fill="#B882FF" stroke="white" stroke-width="3.47712"/>
<rect x="145.012" y="246.882" width="12.7494" height="12.7494" fill="#B882FF" stroke="white" stroke-width="3.47712"/>
<rect x="145.012" y="185.667" width="12.7494" height="12.7494" fill="#B882FF" stroke="white" stroke-width="3.47712"/>
<rect x="502.098" y="230.924" width="103.154" height="73.0194" fill="#FFD056" stroke="#3E001A" stroke-width="3.47712"/>
<rect x="502.098" y="303.944" width="112.958" height="50.9977" fill="#FF813A" stroke="#3E001A" stroke-width="3.47712"/>
<path d="M524.981 269.594L521.587 272.988V280.701L541.334 292.426L562.623 293.351L581.753 283.786L585.455 280.084L585.147 271.445L564.783 259.412L542.877 259.103L524.981 269.594Z" fill="white"/>
<path fill-rule="evenodd" clip-rule="evenodd" d="M547.752 237.814H541.828V243.738H547.752V237.814ZM550.714 249.662V243.738H544.79V249.662H550.714ZM529.98 249.662H527.018V243.738H532.942V249.662H535.904V255.586H529.98V249.662ZM521.094 255.586H515.17V261.51H521.094V255.586ZM544.79 270.396L544.79 267.434H550.714L550.714 264.472H556.638V267.434H562.562V272.186L562.562 270.396H568.486V276.32V276.32V282.244H562.562L562.562 285.206H556.638V288.168H550.714L550.714 285.206H544.79L544.79 282.244H538.866V276.32V276.32V270.396H544.79ZM518.132 270.396H524.056V276.32H524.056V282.244H518.132V276.32H518.132V270.396ZM583.295 270.396H589.219V276.32H589.22V282.244H583.296V276.32H583.295V270.396ZM565.524 294.092H571.448L571.448 291.13H577.372V288.168H583.296L583.296 282.244L577.372 282.244V285.206H571.448L571.448 288.168H565.524L565.524 291.13H559.6H553.676H547.752H541.828L541.828 288.168H535.904V294.092H541.828L541.828 297.054H547.752H553.676H559.6H565.524L565.524 294.092ZM524.056 264.472H529.98V270.396H524.056V264.472ZM592.181 255.586H586.257V261.51H592.181V255.586ZM592.181 255.586L598.105 255.586V249.662H592.181L592.181 255.586ZM574.41 249.662L571.448 249.662V255.586H577.372V249.662L580.334 249.662V243.738H574.41V249.662ZM562.562 243.738H556.638V249.662H562.562V243.738ZM515.17 249.662H509.246V255.586H515.17V249.662ZM565.524 237.814H559.6V243.738H565.524V237.814ZM577.372 264.472H583.296V270.396H577.372L577.372 267.434H571.448L571.448 264.472H565.524L565.524 261.51H559.6H553.676H547.752H541.828L541.828 264.472H535.904V258.548H541.828L541.828 255.586H547.752H553.676H559.6H565.524L565.524 258.548H571.448L571.448 261.51H577.372L577.372 264.472ZM529.98 261.51H535.904V267.434H529.98V261.51ZM524.056 288.168H529.98V282.244H524.056V288.168ZM529.98 291.13H535.904V285.206H529.98V291.13Z" fill="#3E001A"/>
<path d="M530.058 337.675H542.16V342.114H522.269V338.596L529.64 332.524C533.743 329.09 536.005 326.996 536.005 323.814C536.005 321.385 534.748 319.626 531.901 319.626C528.97 319.626 527.504 321.636 527.504 324.693C527.504 325.572 527.588 326.284 527.797 326.996L522.604 326.787C522.437 325.949 522.311 325.112 522.311 324.316C522.311 318.789 526.206 315.229 532.026 315.229C538.308 315.229 541.49 318.83 541.49 323.521C541.49 328.169 538.224 331.142 534.246 334.325L530.058 337.675ZM566.688 328.923C566.688 337.675 562.333 342.616 555.256 342.616C548.221 342.616 543.866 337.675 543.866 328.923C543.866 320.17 548.221 315.229 555.256 315.229C562.333 315.229 566.688 320.17 566.688 328.923ZM561.16 328.923C561.16 322.557 559.36 319.459 555.256 319.459C551.194 319.459 549.393 322.557 549.393 328.923C549.393 335.288 551.194 338.387 555.256 338.387C559.36 338.387 561.16 335.288 561.16 328.923ZM586.1 342.114H581.62L575.171 321.343H575.003V342.114H570.145V315.732H578.395L584.174 334.911H584.3L589.785 315.732H597.867V342.114H592.591V321.343H592.424L586.1 342.114Z" fill="#3E001A"/>
<path d="M489.349 241.935L475.44 203.687L514.268 217.595L497.462 225.708L489.349 241.935Z" fill="#00BA61" stroke="black" stroke-width="1.15904"/>
<path d="M517.601 215.779L475.128 200.324C474.784 200.2 474.411 200.176 474.053 200.256C473.695 200.336 473.367 200.516 473.108 200.776C472.849 201.035 472.669 201.363 472.589 201.721C472.509 202.079 472.533 202.452 472.657 202.797L488.102 245.296C488.237 245.67 488.483 245.992 488.808 246.22C489.133 246.449 489.52 246.571 489.916 246.571C490.303 246.572 490.681 246.456 491.001 246.239C491.321 246.022 491.569 245.714 491.712 245.354L499.125 226.809L517.658 219.391C518.025 219.252 518.34 219.005 518.563 218.682C518.785 218.36 518.904 217.977 518.904 217.585C518.904 217.193 518.785 216.81 518.563 216.487C518.34 216.165 518.025 215.918 517.658 215.779H517.601ZM496.924 223.506L496.152 223.815L495.843 224.588L489.916 239.23L477.696 205.366L511.539 217.594L496.924 223.506Z" fill="#3E001A"/>
</g>
<mask id="path-105-inside-2_2637_16432" fill="white">
<path d="M0.605469 316.695H151.725V443.793H0.605469V316.695Z"/>
</mask>
<path d="M0.605469 316.695H151.725V443.793H0.605469V316.695Z" fill="#00BA61"/>
<path d="M151.725 316.695H155.202V313.218H151.725V316.695ZM151.725 443.793V447.27H155.202V443.793H151.725ZM0.605469 320.172H151.725V313.218H0.605469V320.172ZM148.248 316.695V443.793H155.202V316.695H148.248ZM151.725 440.316H0.605469V447.27H151.725V440.316Z" fill="white" mask="url(#path-105-inside-2_2637_16432)"/>
<path d="M75.8269 337.148C72.3197 340.655 72.4546 348.502 72.9604 351.987C73.4101 351.087 75.4898 348.378 80.2111 344.736C86.1127 340.183 87.1244 337.148 85.7755 334.787C84.4265 332.427 80.211 332.764 75.8269 337.148Z" fill="#458811"/>
<path d="M65.7099 349.963C70.5661 352.931 71.6678 359.968 71.6116 363.115C70.2627 359.912 62.3376 358.9 57.1104 358.057C51.8832 357.214 50.0284 353.841 51.3774 349.963C52.7263 346.085 59.6397 346.254 65.7099 349.963Z" fill="#458811"/>
<path d="M35.1899 390.769C30.1988 398.997 28.3889 417.804 28.1079 426.179H65.7098C66.4967 426.179 68.2728 425.369 69.0821 422.132C70.4311 418.085 71.2742 418.759 84.0892 417.073C96.9042 415.387 104.998 410.834 110.394 407.799C115.789 404.764 123.883 393.467 126.75 387.396C129.616 381.326 130.459 376.268 129.953 373.401C129.549 371.108 127.649 370.647 126.75 370.703C127.031 369.467 127.424 366.488 126.75 364.464C126.075 362.441 123.658 361.935 122.534 361.935C122.984 360.698 123.613 357.753 122.534 355.865C121.455 353.976 119.162 354.179 118.15 354.516C117.869 353.898 117.206 352.425 116.801 351.481C116.295 350.3 114.103 348.951 110.394 350.3C106.684 351.649 104.323 357.214 102.806 361.935C101.288 366.656 93.5318 373.401 90.3281 376.268C87.7651 378.561 72.0611 380.146 64.5295 380.652C68.3515 378.46 77.0409 373.941 81.2227 373.401C86.4498 372.727 86.6185 370.197 87.2929 368.174C87.9674 366.15 86.9557 363.958 82.403 364.464C77.8503 364.97 74.3093 366.15 63.6864 368.174C53.0634 370.197 41.4288 380.483 35.1899 390.769Z" fill="#DA9267"/>
<path fill-rule="evenodd" clip-rule="evenodd" d="M81.0541 332.21C80.2658 332.34 79.4311 332.583 79.1993 332.748C78.9674 332.914 78.5501 333.167 78.2717 333.311C77.6107 333.652 76.8268 334.413 75.5338 335.968C74.9553 336.663 74.2913 337.444 74.0584 337.703C73.8254 337.962 73.6348 338.328 73.6348 338.516C73.6348 338.704 73.4529 339.176 73.2307 339.563C73.0083 339.95 72.6604 340.799 72.4576 341.448C72.2549 342.097 72.0193 342.76 71.9345 342.921C71.8495 343.082 71.78 343.468 71.78 343.779C71.78 344.091 71.6671 344.717 71.529 345.173C71.3909 345.628 71.2771 346.31 71.276 346.689C71.275 347.068 71.2174 347.434 71.1477 347.504C71.0192 347.633 70.9838 348.452 70.9508 352.071L70.9322 354.094L70.5552 353.338C70.3478 352.922 69.6453 352.038 68.994 351.373C67.8448 350.201 65.7125 348.614 65.2866 348.614C65.1711 348.614 64.9834 348.502 64.8696 348.365C64.7558 348.227 64.4618 348.012 64.2167 347.886C63.9713 347.76 63.3154 347.406 62.759 347.1C60.7401 345.986 60.2051 345.77 58.7964 345.495C57.207 345.186 55.5556 345.161 53.9267 345.421C52.9557 345.576 52.7422 345.689 51.7342 346.585C50.9 347.326 50.436 347.92 49.9013 348.931C49.2564 350.15 49.1852 350.402 49.1852 351.463C49.1852 352.313 49.3049 352.961 49.6148 353.789C50.1268 355.158 50.1871 355.239 51.3772 356.164C51.8873 356.561 52.6749 357.179 53.1275 357.538C54.0166 358.243 55.3548 358.663 57.1946 358.816C58.1636 358.896 58.4307 358.95 60.1454 359.417C60.5627 359.53 61.5491 359.728 62.3374 359.856C63.1257 359.984 63.8466 360.113 63.9393 360.143C64.032 360.172 64.3355 360.251 64.6138 360.318C64.892 360.385 65.3093 360.538 65.5412 360.658C65.773 360.779 66.1903 360.931 66.4686 360.997C67.0119 361.125 68.409 361.943 69.0587 362.513C69.5474 362.942 70.4837 364.816 70.3008 364.999C70.2276 365.072 69.2595 365.326 68.1495 365.563C65.5204 366.124 65.6115 366.101 65.257 366.291C65.0888 366.381 64.9131 366.456 64.8667 366.457C64.6146 366.466 63.6574 366.717 62.8433 366.988C62.3332 367.158 61.6124 367.349 61.2414 367.413C60.8704 367.477 60.1636 367.721 59.6706 367.954C59.1774 368.187 58.4565 368.418 58.0687 368.467C57.6807 368.516 57.2827 368.619 57.1846 368.696C57.0863 368.773 56.3655 369.147 55.5827 369.528C54.7998 369.908 53.9318 370.342 53.6536 370.492C53.3754 370.643 52.7683 370.95 52.3046 371.177C51.8409 371.403 51.3477 371.685 51.2086 371.805C51.0695 371.924 50.5013 372.27 49.9457 372.574C49.3902 372.877 48.55 373.434 48.0786 373.811C47.6073 374.188 46.8972 374.725 46.5006 375.003C45.716 375.553 44.4391 376.769 42.3907 378.914C41.6677 379.672 41.0224 380.315 40.9565 380.345C40.8905 380.375 40.5115 380.816 40.114 381.326C39.7166 381.836 39.1099 382.581 38.7661 382.982C38.4221 383.383 38.0351 383.914 37.9062 384.163C37.777 384.411 37.4669 384.88 37.217 385.204C36.9669 385.529 36.6174 386.06 36.4398 386.385C36.2625 386.709 36.0711 387.013 36.0148 387.059C35.9584 387.105 35.4782 388.054 34.9479 389.167C34.4174 390.28 33.8991 391.342 33.7959 391.527C33.6927 391.713 33.47 392.13 33.3007 392.455C33.1316 392.779 32.9253 393.159 32.8425 393.298C32.5921 393.719 31.8175 395.604 31.8175 395.792C31.8175 395.889 31.7084 396.183 31.5749 396.446C31.1204 397.34 30.8058 398.154 30.8058 398.435C30.8058 398.59 30.7252 398.867 30.6266 399.051C30.4247 399.428 29.861 401.468 29.5373 402.993C29.1791 404.681 28.7965 406.51 28.7085 406.956C28.6627 407.188 28.5524 407.681 28.4634 408.052C28.3742 408.423 28.2118 409.409 28.1023 410.244C27.9929 411.079 27.8418 411.989 27.7665 412.267C27.6911 412.546 27.5808 413.132 27.5216 413.57C27.4624 414.009 27.3459 414.409 27.2626 414.461C27.1793 414.512 27.1335 414.836 27.1606 415.181C27.1878 415.525 27.1201 416.3 27.0105 416.904C26.9009 417.507 26.7956 418.337 26.7765 418.747C26.7574 419.158 26.6974 419.566 26.6431 419.653C26.5888 419.741 26.5177 420.733 26.485 421.858C26.3357 426.989 26.3118 426.832 27.3641 427.635C27.9159 428.055 28.1044 428.096 29.6803 428.132C30.6239 428.153 32.5721 428.241 34.0096 428.326C37.133 428.512 40.66 428.452 44.5482 428.147C47.3204 427.929 49.1832 427.857 54.3849 427.764C57.4141 427.711 60.0442 427.679 60.2297 427.694C60.4152 427.709 62.3725 427.715 64.5794 427.708C68.9537 427.692 69.2083 427.642 69.5577 426.718C69.786 426.115 70.1323 423.173 70.0001 422.96C69.8436 422.706 70.4761 421.089 70.767 420.999C70.9069 420.956 71.173 420.856 71.3585 420.778C71.544 420.699 72.4545 420.475 73.3819 420.28C74.3093 420.085 75.1968 419.854 75.3541 419.768C75.5114 419.682 76.2322 419.618 76.956 419.626C77.7087 419.634 78.6688 419.525 79.1993 419.371C79.7093 419.223 81.3786 419.025 82.9089 418.931C84.4391 418.837 86.0136 418.684 86.4077 418.591C86.8017 418.498 87.4089 418.352 87.7566 418.267C88.1045 418.182 89.4133 417.909 90.6653 417.66C91.9173 417.412 93.2452 417.138 93.6161 417.053C93.9871 416.967 94.574 416.851 94.9204 416.795C95.2669 416.738 95.6365 416.588 95.7421 416.461C95.8474 416.334 96.0793 416.23 96.257 416.23C96.4349 416.23 96.8715 416.081 97.2272 415.9C97.583 415.718 97.912 415.608 97.9584 415.654C98.0047 415.701 98.2988 415.631 98.6116 415.499C98.9246 415.367 99.484 415.165 99.855 415.051C100.226 414.936 100.757 414.746 101.035 414.629C103.317 413.665 104.284 413.207 104.54 412.966C104.653 412.86 105.048 412.669 105.419 412.542C105.79 412.415 106.211 412.208 106.355 412.083C106.498 411.958 106.971 411.667 107.405 411.436C107.838 411.205 108.67 410.652 109.251 410.207C109.833 409.761 110.613 409.2 110.984 408.959C111.355 408.717 112.017 408.187 112.455 407.78C112.893 407.373 113.562 406.775 113.941 406.45C114.32 406.126 115.138 405.364 115.758 404.758C116.378 404.151 117.174 403.479 117.526 403.263C117.879 403.047 118.295 402.671 118.451 402.426C118.607 402.182 118.925 401.787 119.159 401.549C119.392 401.311 120.039 400.644 120.595 400.068C121.151 399.492 121.778 398.859 121.986 398.662C122.195 398.464 122.366 398.173 122.366 398.013C122.366 397.854 122.476 397.631 122.612 397.519C122.747 397.406 122.909 397.153 122.972 396.957C123.034 396.76 123.265 396.458 123.484 396.285C123.704 396.113 123.883 395.887 123.883 395.785C123.883 395.682 124.149 395.355 124.473 395.058C124.798 394.76 125.063 394.361 125.063 394.17C125.063 393.809 125.65 392.663 125.985 392.371C126.216 392.169 127.255 389.974 127.255 389.688C127.255 389.578 127.607 388.809 128.037 387.979C128.467 387.148 128.879 386.241 128.951 385.963C129.024 385.685 129.317 384.85 129.602 384.108C129.887 383.366 130.121 382.645 130.122 382.506C130.123 382.367 130.238 382.035 130.377 381.768C130.517 381.5 130.666 381.083 130.709 380.84C130.752 380.597 130.948 379.64 131.144 378.712C131.558 376.759 131.636 374.148 131.311 373.148C130.852 371.744 130.46 371.081 129.963 370.876C129.693 370.764 129.341 370.527 129.181 370.35C129.02 370.173 128.749 370.029 128.578 370.029C128.3 370.029 128.265 369.864 128.244 368.469C128.204 365.763 128.178 365.408 127.968 364.702C127.855 364.322 127.611 363.874 127.425 363.706C127.239 363.538 127.087 363.303 127.087 363.185C127.087 362.96 125.926 361.952 125.285 361.62C125.083 361.515 124.757 361.429 124.56 361.429C124.224 361.429 124.21 361.369 124.31 360.375C124.368 359.796 124.446 359.225 124.483 359.106C124.612 358.695 124.072 356.399 123.65 355.566C123.2 354.678 121.892 353.643 120.92 353.405C120.648 353.338 120.169 353.148 119.855 352.981C119.496 352.791 119.105 352.714 118.801 352.775C118.391 352.857 118.319 352.818 118.319 352.513C118.319 352.316 118.317 352.118 118.315 352.073C118.308 351.919 117.515 350.492 117.156 349.988C116.879 349.598 116.49 349.39 115.409 349.053C113.515 348.462 113.169 348.423 112.332 348.707C111.934 348.842 111.244 349.003 110.798 349.064C109.943 349.181 109.727 349.274 108.584 350.01C108.192 350.262 107.804 350.469 107.723 350.469C107.641 350.469 107.431 350.67 107.256 350.916C107.08 351.161 106.513 351.838 105.996 352.419C105.478 353 104.918 353.842 104.751 354.291C104.584 354.739 104.309 355.259 104.14 355.445C103.972 355.632 103.715 356.069 103.57 356.415C103.426 356.762 103.232 357.045 103.141 357.045C103.049 357.045 102.974 357.16 102.974 357.3C102.974 357.441 102.909 357.687 102.828 357.848C102.748 358.009 102.413 358.71 102.085 359.406C100.47 362.826 99.766 364.125 99.0244 365.054C98.7284 365.425 98.3061 366.032 98.0858 366.403C97.8655 366.774 97.3355 367.495 96.9081 368.005C96.4804 368.515 96.0029 369.136 95.8468 369.384C95.6906 369.633 95.3525 369.961 95.0954 370.114C94.8383 370.266 94.4046 370.689 94.1317 371.053C93.8589 371.417 93.5554 371.715 93.4573 371.715C93.3591 371.715 93.1298 371.938 92.9477 372.21C92.6186 372.701 91.0543 373.799 90.1094 374.202C89.8374 374.318 89.4005 374.413 89.1383 374.413C88.8763 374.413 88.612 374.493 88.5512 374.592C88.2738 375.04 84.8244 375.924 82.3246 376.187C81.7714 376.245 81.2517 376.334 81.1696 376.385C81.0874 376.435 80.5917 376.536 80.0676 376.609C79.5437 376.681 78.7084 376.857 78.2117 376.999C77.7149 377.142 76.7664 377.278 76.1039 377.302C75.4414 377.325 74.7857 377.401 74.6466 377.469C74.1274 377.722 72.5825 378.138 72.4928 378.048C72.3255 377.881 72.7779 377.111 73.0433 377.111C73.1856 377.111 73.434 377.035 73.5951 376.943C73.9883 376.718 75.1057 376.327 76.8386 375.808C77.6269 375.572 78.511 375.275 78.8032 375.148C79.0954 375.022 79.4308 374.919 79.5485 374.919C80.0783 374.919 85.3536 372.354 86.1396 371.715C87.5927 370.532 88.3667 369.376 88.793 367.75C88.9771 367.049 88.7108 365.712 88.2849 365.199C88.1804 365.073 88.1556 364.97 88.2301 364.97C88.4662 364.97 87.2536 363.968 86.8862 363.86C86.6925 363.803 86.1306 363.562 85.6376 363.326C84.7626 362.906 84.6837 362.899 82.3495 363.013C79.6213 363.146 78.7521 363.228 78.5192 363.372C78.4292 363.427 77.4245 363.616 76.2867 363.79C75.1489 363.965 74.0771 364.162 73.9048 364.228C73.6232 364.336 73.6023 364.282 73.6964 363.69C73.7539 363.327 73.7886 362.576 73.7735 362.019C73.7583 361.463 73.7517 360.742 73.7588 360.417C73.7657 360.093 73.7807 358.917 73.7918 357.804C73.8256 354.462 74.0188 353.71 75.5986 350.772C75.9041 350.204 78.139 348.119 78.6512 347.924C78.8598 347.844 79.0306 347.664 79.0306 347.522C79.0306 347.381 79.1256 347.265 79.2414 347.264C79.3574 347.263 79.7869 346.922 80.1961 346.505C80.6054 346.089 80.9979 345.748 81.0684 345.748C81.139 345.748 81.4434 345.539 81.7447 345.284C82.046 345.029 82.533 344.706 82.8267 344.567C83.4535 344.27 86.2812 341.667 86.2812 341.387C86.2812 341.281 86.347 341.195 86.4274 341.195C86.621 341.195 87.4754 339.916 87.7791 339.171C87.9308 338.8 88.0141 338.028 88.0042 337.087C87.991 335.838 87.916 335.445 87.5477 334.692C86.4881 332.526 84.2681 331.678 81.0541 332.21ZM84.3816 335.124C84.8534 335.434 85.2695 336.449 85.2695 337.291C85.2695 338.092 84.5519 339.219 83.2788 340.416C82.7743 340.891 82.1309 341.526 81.8493 341.827C81.5675 342.129 81.2274 342.375 81.0933 342.375C80.8593 342.375 79.7825 343.15 79.1601 343.766C78.9961 343.929 78.8052 344.061 78.7356 344.062C78.6659 344.062 78.3056 344.335 77.9346 344.668C77.5637 345.002 76.8428 345.624 76.3327 346.05C75.8227 346.477 75.0904 347.122 74.7052 347.486L74.0053 348.146L74.0591 347.495C74.0888 347.137 74.2036 346.388 74.3142 345.832C74.4248 345.275 74.5137 344.706 74.5118 344.567C74.508 344.294 74.7563 343.341 74.973 342.797C75.0469 342.611 75.2785 342.004 75.488 341.448C76.3641 339.12 78.2361 336.655 79.9719 335.545C80.9524 334.917 81.1532 334.87 82.8245 334.874C83.5746 334.875 84.1421 334.966 84.3816 335.124ZM58.0775 348.136C59.0477 348.372 61.8769 349.696 62.1712 350.05C62.2872 350.19 62.6944 350.457 63.0763 350.643C66.1661 352.149 67.7013 353.731 69.2896 357.045C69.6229 357.741 69.9495 358.651 70.0153 359.068C70.1298 359.794 70.1213 359.816 69.8194 359.574C69.3268 359.18 68.8083 358.917 67.942 358.624C67.5025 358.476 66.9417 358.211 66.6955 358.037C66.4493 357.862 66.014 357.719 65.728 357.719C65.442 357.719 64.4674 357.52 63.5621 357.278C62.6566 357.034 61.6124 356.806 61.2414 356.77C60.8704 356.734 60.1875 356.579 59.7238 356.425C59.2601 356.272 58.5393 356.124 58.122 356.096C56.6388 355.996 55.8352 355.82 55.0447 355.421C54.6043 355.198 54.2437 354.941 54.2437 354.85C54.2437 354.759 54.1561 354.684 54.0488 354.684C53.3142 354.684 51.878 352.676 51.8868 351.66C51.891 351.159 52.3891 349.999 52.9187 349.255C53.7168 348.134 56.0218 347.634 58.0775 348.136ZM112.488 352.282C112.13 353.424 111.889 355.872 112.071 356.507C112.189 356.919 112.156 357.117 111.92 357.419C111.504 357.951 110.562 359.847 110.562 360.154C110.562 360.292 110.41 360.487 110.225 360.586C110.04 360.685 109.888 360.937 109.888 361.145C109.888 361.353 109.784 361.672 109.656 361.855C109.529 362.038 109.371 362.434 109.306 362.734C109.241 363.034 109.131 363.315 109.062 363.357C108.959 363.421 107.321 366.619 106.94 367.499C106.88 367.638 106.611 368.132 106.344 368.595C106.076 369.059 105.667 369.832 105.435 370.313C105.203 370.793 104.744 371.539 104.415 371.97C104.086 372.4 103.818 372.847 103.818 372.962C103.818 373.077 103.592 373.424 103.317 373.732C103.041 374.041 102.681 374.488 102.516 374.726C102.036 375.419 99.7493 377.64 98.7598 378.375C98.2605 378.746 97.4606 379.41 96.9824 379.851C96.504 380.291 95.9987 380.652 95.8592 380.652C95.2873 380.652 94.5933 381.028 94.3241 381.483C93.9282 382.153 93.9621 382.416 94.5255 383.047L95.0131 383.593L96.1528 383.398C96.7797 383.29 97.3379 383.132 97.3935 383.046C97.449 382.96 97.6581 382.838 97.8582 382.776C98.0584 382.713 98.5329 382.325 98.9126 381.913C99.2925 381.501 99.8875 381.016 100.235 380.837C100.751 380.57 103.312 378.178 104.679 376.686C104.975 376.364 106.033 374.776 106.768 373.552C106.954 373.243 107.249 372.761 107.424 372.479C108 371.553 109.045 369.553 109.045 369.375C109.045 369.279 109.234 369.011 109.466 368.779C109.698 368.547 109.888 368.213 109.888 368.036C109.888 367.858 110.021 367.532 110.183 367.31C110.593 366.75 110.899 366.185 110.899 365.992C110.899 365.902 111.089 365.549 111.321 365.207C111.553 364.865 111.743 364.472 111.743 364.333C111.743 364.193 111.886 363.768 112.061 363.387C112.236 363.005 112.465 362.504 112.572 362.272C112.678 362.04 112.868 361.661 112.995 361.429C113.122 361.197 113.353 360.704 113.509 360.333C113.881 359.445 114.478 358.565 114.709 358.564C114.998 358.562 115.39 358.032 115.609 357.35C115.765 356.865 115.973 356.649 116.557 356.366C116.968 356.167 117.348 355.935 117.4 355.85C117.507 355.677 118.543 355.648 119.12 355.802C119.587 355.927 119.602 356.259 119.168 356.868C118.985 357.124 118.784 357.662 118.719 358.064C118.655 358.467 118.501 358.99 118.377 359.227C118.253 359.464 118.152 359.818 118.151 360.013C118.151 360.208 118.063 360.618 117.956 360.924C117.807 361.351 117.811 361.73 117.971 362.537C118.195 363.661 118.117 363.883 117.105 365.029C116.947 365.207 116.702 365.598 116.56 365.897C116.418 366.196 116.186 366.537 116.045 366.654C115.905 366.771 115.79 366.952 115.79 367.056C115.79 367.161 115.345 368.157 114.801 369.27C114.257 370.383 113.556 371.862 113.244 372.558C112.932 373.253 112.543 373.958 112.378 374.124C112.214 374.29 112.08 374.512 112.08 374.617C112.08 374.895 109.92 378.268 109.27 379.004C108.965 379.349 108.603 379.9 108.467 380.226C108.33 380.553 108.141 380.82 108.045 380.82C107.949 380.82 107.724 381.105 107.544 381.452C107.199 382.121 103.754 385.462 102.998 385.861C102.753 385.99 102.344 386.313 102.088 386.577C101.832 386.842 101.559 387.059 101.481 387.059C101.404 387.059 101.205 387.209 101.039 387.392C100.873 387.576 100.688 387.695 100.628 387.658C100.412 387.524 98.8344 388.449 98.3865 388.971C97.8017 389.653 97.7877 390.318 98.3459 390.877C98.6787 391.21 98.8789 391.282 99.2311 391.198C100.057 391.001 101.12 390.557 101.12 390.408C101.12 390.328 101.227 390.263 101.359 390.263C101.764 390.263 103.255 389.443 103.673 388.99C103.892 388.753 104.399 388.328 104.801 388.045C105.202 387.762 105.976 387.102 106.52 386.578C107.799 385.348 108.288 384.935 108.613 384.81C108.758 384.754 108.876 384.623 108.876 384.517C108.876 384.412 109.104 384.038 109.382 383.687C109.66 383.335 109.888 382.972 109.888 382.88C109.888 382.787 109.99 382.672 110.114 382.624C110.239 382.576 110.462 382.284 110.611 381.974C110.76 381.664 111.341 380.85 111.903 380.164C112.464 379.479 112.923 378.827 112.923 378.715C112.923 378.603 113.075 378.374 113.26 378.207C113.446 378.039 113.597 377.795 113.597 377.665C113.597 377.535 113.939 376.94 114.356 376.343C114.773 375.746 115.115 375.187 115.115 375.102C115.115 375.016 115.226 374.731 115.361 374.468C115.497 374.206 116.116 372.891 116.738 371.546C117.36 370.201 118.122 368.785 118.431 368.398C118.74 368.012 118.993 367.606 118.993 367.496C118.993 367.124 120.201 365.337 120.834 364.773C121.57 364.117 122.398 363.769 122.727 363.977C122.853 364.057 123.122 364.123 123.325 364.124C123.886 364.128 123.929 364.383 123.464 364.937C123.206 365.243 122.879 366.05 122.623 367.017C122.252 368.41 122.22 368.751 122.352 369.92C122.508 371.31 122.51 371.305 121.691 372.215C120.838 373.164 119.668 375.152 119.668 375.651C119.668 375.86 119.602 376.103 119.521 376.192C119.44 376.28 119.049 377.224 118.652 378.291C117.63 381.035 116.53 383.511 116.217 383.771C116.105 383.864 115.82 384.287 115.584 384.712C115.347 385.136 115.05 385.667 114.924 385.892C114.725 386.244 113.734 387.619 113.284 388.166C113.203 388.264 113.054 388.5 112.953 388.69C112.711 389.142 111.821 390.162 111.007 390.921C110.649 391.254 109.872 391.983 109.28 392.539C107.339 394.364 106.232 395.214 105.205 395.669C104.905 395.801 104.661 395.967 104.661 396.037C104.661 396.107 104.528 396.164 104.366 396.164C104.203 396.163 103.715 396.29 103.28 396.446C102.242 396.818 101.825 397.512 102.113 398.386C102.317 399.002 102.973 399.49 103.484 399.404C103.643 399.377 104.065 399.206 104.421 399.024C104.777 398.842 105.148 398.693 105.244 398.693C105.653 398.692 107.806 397.486 108.792 396.706C110.477 395.373 114.946 391.076 114.946 390.789C114.946 390.685 115.079 390.462 115.241 390.294C115.773 389.742 116.542 388.673 116.87 388.029C117.047 387.681 117.25 387.396 117.321 387.396C117.392 387.396 117.652 386.986 117.897 386.484C118.143 385.982 118.49 385.439 118.669 385.277C118.847 385.116 118.993 384.859 118.993 384.706C118.993 384.553 119.07 384.352 119.163 384.258C119.357 384.064 120.459 381.514 120.699 380.702C120.787 380.406 120.97 379.95 121.105 379.691C121.241 379.431 121.353 379.142 121.353 379.05C121.356 378.804 122.105 377.005 122.313 376.743C122.41 376.621 122.586 376.217 122.704 375.846C122.933 375.123 123.359 374.446 123.963 373.842C124.17 373.635 124.369 373.391 124.406 373.3C124.533 372.987 125.653 372.251 126.075 372.205C126.307 372.179 126.676 372.218 126.895 372.291C127.286 372.422 127.28 372.437 126.515 373.213C125.371 374.376 125.081 375.359 125.218 377.621C125.311 379.147 125.379 379.449 125.701 379.771C125.907 379.977 126.075 380.259 126.075 380.396C126.075 380.534 126.379 380.848 126.75 381.093C127.584 381.645 127.603 381.957 126.905 383.548C126.62 384.198 126.28 385.032 126.15 385.4C126.02 385.768 125.771 386.273 125.597 386.522C125.424 386.771 125.231 387.183 125.169 387.438C125.107 387.693 124.989 387.902 124.907 387.902C124.718 387.902 124.168 389.027 123.719 390.335C123.529 390.885 123.274 391.454 123.151 391.6C123.028 391.746 122.824 392.13 122.699 392.455C122.573 392.779 122.08 393.5 121.603 394.057C121.125 394.613 120.558 395.441 120.342 395.896C120.126 396.351 119.587 397.11 119.144 397.582C118.701 398.054 117.869 398.953 117.295 399.579C116.721 400.205 116.159 400.717 116.046 400.717C115.933 400.717 115.536 401.04 115.164 401.434C114.791 401.828 113.888 402.697 113.157 403.366C112.425 404.034 111.334 405.042 110.731 405.605C110.128 406.168 109.407 406.751 109.129 406.9C108.851 407.05 108.585 407.218 108.539 407.275C108.454 407.379 108.36 407.441 107.048 408.266C106.645 408.519 105.929 409.011 105.458 409.359C104.986 409.707 104.472 409.991 104.316 409.991C104.159 409.991 103.851 410.129 103.63 410.298C103.408 410.466 102.62 410.856 101.878 411.163C101.136 411.47 100.264 411.854 99.9393 412.016C99.6147 412.178 98.9697 412.424 98.5061 412.563C98.0423 412.702 97.3215 412.918 96.9042 413.042C96.4868 413.167 95.9557 413.365 95.7238 413.483C95.492 413.602 95.174 413.699 95.0172 413.7C94.8604 413.7 94.6892 413.77 94.6369 413.855C94.5845 413.939 94.2196 414.061 93.826 414.125C93.4323 414.189 92.6929 414.355 92.1829 414.493C90.8749 414.848 90.0807 415.015 88.7314 415.219C88.0851 415.316 87.0975 415.538 86.5365 415.711C85.3641 416.073 84.1853 416.207 81.2227 416.312C80.0634 416.353 78.8494 416.473 78.5248 416.578C78.2002 416.684 77.4308 416.759 76.8152 416.747C76.181 416.734 75.4134 416.831 75.0447 416.971C74.6865 417.108 73.8438 417.307 73.1718 417.414C72.4997 417.521 71.9072 417.678 71.8551 417.763C71.8028 417.847 71.6054 417.916 71.4162 417.916C71.0838 417.916 70.425 418.163 69.3051 418.708C68.5544 419.072 67.7346 420.156 67.4804 421.119C67.3622 421.568 67.2123 422.605 67.1474 423.424L67.0296 424.914L58.8239 424.936C50.291 424.958 46.3791 425.063 44.271 425.325C43.1023 425.47 36.7779 425.764 35.8644 425.716C35.6325 425.704 34.4564 425.608 33.2508 425.502C32.0451 425.397 30.6414 425.298 30.1313 425.281L29.2039 425.251L29.2592 423.986C29.2896 423.291 29.3388 422.039 29.3688 421.204C29.3987 420.37 29.5098 419.313 29.6157 418.857C29.7216 418.401 29.769 417.925 29.7207 417.8C29.6376 417.583 29.7703 416.73 30.1475 415.058C30.2406 414.645 30.3873 413.772 30.4733 413.119C30.8402 410.33 31.1491 408.617 31.3879 408.046C31.5282 407.71 31.6346 407.27 31.6244 407.069C31.6143 406.868 31.7295 406.251 31.8804 405.698C32.0313 405.145 32.1547 404.549 32.1547 404.372C32.1547 403.866 32.7768 401.428 33.2538 400.065C33.4929 399.382 33.6492 398.783 33.6012 398.735C33.5529 398.687 33.6529 398.449 33.8231 398.207C33.9932 397.965 34.2289 397.463 34.347 397.092C34.4648 396.721 34.7029 396.142 34.8756 395.804C35.0484 395.467 35.1899 395.035 35.1899 394.845C35.1899 394.654 35.2563 394.457 35.3374 394.407C35.4185 394.357 35.7284 393.802 36.0264 393.174C36.3242 392.547 36.6329 391.919 36.7123 391.78C36.7919 391.641 37.2005 390.842 37.6202 390.005C38.04 389.168 38.5449 388.309 38.7423 388.097C38.9396 387.886 39.115 387.617 39.132 387.501C39.149 387.385 39.3313 387.076 39.537 386.815C39.7429 386.553 39.912 386.254 39.913 386.151C39.9141 386.048 40.2638 385.585 40.6902 385.122C41.1168 384.659 41.5721 384.128 41.7021 383.942C41.9916 383.526 43.6882 381.634 45.054 380.203C47.108 378.052 47.9229 377.279 48.1386 377.279C48.3023 377.279 50.3139 375.711 50.5341 375.412C50.633 375.278 52.2122 374.382 53.0634 373.978C53.388 373.824 53.7674 373.633 53.9065 373.554C54.0456 373.476 54.472 373.266 54.8543 373.088C55.2364 372.91 55.6015 372.68 55.6652 372.577C55.7289 372.474 55.9311 372.389 56.1144 372.389C56.2977 372.389 56.6157 372.284 56.8211 372.156C57.6028 371.666 60.8669 370.407 62.2531 370.06C62.6241 369.967 63.4967 369.757 64.1922 369.593C64.8878 369.429 65.7604 369.158 66.1313 368.991C66.5023 368.824 66.9739 368.685 67.1793 368.683C67.3847 368.681 67.9094 368.559 68.3455 368.411C68.7813 368.262 69.4017 368.109 69.7237 368.069C70.0458 368.029 70.3867 367.948 70.4813 367.89C70.5972 367.818 70.6124 368.276 70.5277 369.285C70.4586 370.112 70.3809 371.091 70.3552 371.462C70.088 375.325 70.0684 375.442 69.6615 375.597C68.4976 376.04 66.9061 376.876 66.4205 377.301C66.116 377.567 65.7696 377.785 65.6511 377.785C65.5326 377.785 64.735 378.316 63.8788 378.965C63.0225 379.615 62.2143 380.146 62.0828 380.146C61.678 380.146 60.9885 381.341 60.9885 382.042C60.9885 382.579 61.0738 382.732 61.5297 383.009C62.4231 383.552 62.9399 383.592 63.5403 383.165C63.8334 382.956 64.4224 382.729 64.8493 382.66C65.2761 382.592 65.8531 382.444 66.1313 382.332C66.4096 382.221 66.8648 382.105 67.143 382.076C67.8049 382.006 68.7594 381.841 69.1002 381.738C69.3194 381.672 69.3641 381.777 69.3344 382.292C69.3143 382.642 69.2874 383.288 69.2744 383.729C69.2577 384.297 69.1813 384.53 69.0115 384.53C68.88 384.53 68.5574 384.636 68.2949 384.767C67.337 385.242 66.2597 385.71 66.1237 385.71C65.9251 385.71 64.3396 387.058 63.9449 387.563C63.0605 388.693 61.1453 390.211 60.8413 390.023C60.7495 389.966 60.6307 389.991 60.577 390.078C60.5234 390.164 60.0832 390.32 59.5984 390.424C59.1101 390.529 58.3223 390.886 57.8311 391.224C56.8624 391.891 55.7613 393.181 55.7613 393.649C55.7613 393.811 55.6171 394.281 55.4408 394.692C55.2646 395.103 55.0659 396.001 54.9995 396.687L54.8788 397.935L54.0976 398.299C53.6679 398.5 53.1911 398.703 53.038 398.752C52.4761 398.928 51.0075 400.106 50.8574 400.501C50.609 401.154 50.6754 401.99 50.9978 402.27C51.1601 402.41 51.5285 402.57 51.8165 402.624C52.3704 402.728 52.6623 402.582 53.5848 401.739C54.1441 401.229 56.9831 399.948 57.9533 399.769C58.2779 399.709 58.6953 399.528 58.8807 399.367C59.3901 398.923 59.9876 398.645 60.7355 398.504C61.1065 398.434 61.8274 398.254 62.3374 398.104C62.8475 397.954 63.5683 397.806 63.9393 397.776C64.3103 397.746 65.2208 397.63 65.9627 397.52C67.3678 397.31 68.8476 397.354 70.8526 397.666C72.5451 397.929 72.6012 397.941 72.7307 398.07C72.7951 398.135 72.9968 398.188 73.1787 398.188C73.3607 398.188 74.2397 398.502 75.132 398.887C76.0242 399.271 77.0836 399.65 77.4861 399.728C77.8884 399.806 78.4368 400.054 78.7045 400.279C78.9721 400.504 79.4156 400.738 79.6898 400.798C79.9639 400.858 80.527 401.206 80.9409 401.57C81.3547 401.934 81.8341 402.245 82.0061 402.26C82.7738 402.329 83.2065 402.203 83.6891 401.771C84.6709 400.892 85.1749 400.549 85.4825 400.549C85.6521 400.549 86.1472 400.359 86.5827 400.127C87.0183 399.895 87.5106 399.705 87.6769 399.705C87.8431 399.705 88.1514 399.593 88.3618 399.455C88.8324 399.146 90.5695 398.524 91.2555 398.418C91.5337 398.375 92.3911 398.313 93.1608 398.28C94.6632 398.215 95.5957 397.802 95.8407 397.092C96.1101 396.311 95.5827 395.49 94.8116 395.49C94.4167 395.49 94.0945 394.855 93.977 393.845C93.9432 393.555 93.7048 393.067 93.4473 392.761C92.9432 392.162 91.2254 390.95 90.8693 390.942C90.7498 390.939 90.3704 390.796 90.0262 390.623C89.6823 390.45 89.0213 390.26 88.5576 390.199C88.0939 390.138 87.411 389.973 87.04 389.832C86.669 389.692 86.2517 389.535 86.1126 389.485C85.9735 389.435 85.5924 389.002 85.266 388.522C84.9394 388.043 84.4493 387.543 84.1772 387.413C83.9049 387.283 83.5319 387.036 83.3481 386.864C83.1643 386.693 82.9261 386.553 82.8188 386.553C82.7116 386.553 82.4865 386.401 82.3187 386.216C82.1509 386.03 81.8165 385.877 81.5759 385.876C81.3353 385.874 80.602 385.734 79.9466 385.563C79.291 385.393 78.5221 385.288 78.2376 385.33C77.9532 385.371 77.5411 385.308 77.3217 385.189C77.1023 385.07 76.8091 384.959 76.67 384.943C76.5309 384.927 76.0306 384.757 75.5583 384.566C74.8465 384.278 73.9023 384.123 72.3215 384.036C72.1576 384.027 72.1161 383.661 72.1529 382.549L72.2016 381.074L72.8761 380.844C73.247 380.718 73.833 380.591 74.178 380.562C74.5231 380.533 74.9025 380.448 75.0211 380.373C75.1398 380.298 76.1473 380.107 77.2601 379.947C79.5313 379.622 81.8282 379.197 82.0491 379.06C82.1297 379.01 82.6785 378.896 83.2689 378.805C86.6009 378.295 87.4722 378.124 88.3831 377.803C88.9363 377.607 89.5317 377.448 89.706 377.448C89.8804 377.448 90.2245 377.341 90.4707 377.211C90.7169 377.08 91.2597 376.853 91.677 376.705C92.0943 376.557 92.727 376.189 93.0829 375.888C94.4132 374.762 98.532 370.533 99.2254 369.582C99.6211 369.039 100.284 368.178 100.7 367.668C101.115 367.158 101.506 366.627 101.57 366.488C101.633 366.349 101.855 366.007 102.063 365.729C102.27 365.451 102.574 364.882 102.737 364.464C102.9 364.047 103.209 363.491 103.425 363.229C103.641 362.967 103.818 362.625 103.818 362.47C103.819 362.315 103.97 361.939 104.155 361.636C104.341 361.332 104.492 360.938 104.492 360.76C104.492 360.583 104.569 360.39 104.664 360.331C104.881 360.197 105.672 358.647 105.672 358.357C105.672 358.238 105.929 357.779 106.242 357.338C106.556 356.897 106.971 356.168 107.165 355.717C107.596 354.715 109.748 352.363 110.369 352.215C110.615 352.156 110.891 352.062 110.984 352.005C111.203 351.871 112.274 351.521 112.535 351.498C112.686 351.485 112.673 351.687 112.488 352.282ZM115.621 352.9C115.621 353.032 115.66 353.24 115.707 353.364C115.793 353.588 115.159 354.11 114.997 353.948C114.868 353.819 115.288 352.661 115.465 352.661C115.551 352.661 115.621 352.768 115.621 352.9ZM121.609 359.869C121.494 361.103 121.352 361.42 120.914 361.427C120.665 361.43 120.799 360.681 121.203 359.816C121.379 359.439 121.522 359.003 121.522 358.847C121.522 358.69 121.569 358.563 121.626 358.563C121.684 358.563 121.676 359.151 121.609 359.869ZM84.7471 365.912C85.0808 366.067 85.4867 366.309 85.6489 366.451C85.9821 366.742 86.0361 367.518 85.759 368.036C85.3515 368.797 83.2683 370.338 82.1501 370.704C81.7791 370.826 81.1721 371.093 80.8011 371.297C80.4302 371.502 79.8231 371.765 79.4522 371.882C79.0812 372 78.7018 372.155 78.6091 372.228C78.5163 372.3 78.1552 372.412 77.8063 372.478C77.4574 372.543 77.1305 372.663 77.0797 372.746C77.029 372.828 76.8173 372.895 76.6094 372.895C76.4015 372.895 76.1596 372.959 76.0714 373.037C75.9834 373.115 75.3421 373.352 74.6466 373.564C73.951 373.775 73.2821 374.028 73.16 374.126C72.9806 374.27 72.958 374.161 73.0416 373.557C73.0985 373.147 73.1848 371.72 73.2332 370.388C73.2818 369.055 73.3905 367.783 73.4752 367.56C73.6499 367.101 74.3646 366.766 74.8455 366.919C75.0233 366.975 75.2598 366.95 75.3713 366.862C75.4827 366.775 75.8775 366.647 76.2484 366.578C77.5116 366.344 78.7762 366.146 79.5365 366.064C79.9538 366.019 80.7885 365.925 81.3913 365.855C83.4935 365.613 84.1254 365.623 84.7471 365.912ZM125.507 368.216C125.451 368.425 125.404 368.804 125.403 369.059C125.402 369.314 125.334 369.523 125.252 369.523C124.993 369.523 124.918 368.865 125.116 368.341C125.336 367.756 125.658 367.653 125.507 368.216ZM128.623 377.229C128.529 377.835 128.41 378.373 128.36 378.423C128.129 378.654 128.014 378.161 128.014 376.946C128.014 375.866 128.075 375.561 128.351 375.254L128.689 374.879L128.742 375.503C128.771 375.846 128.718 376.623 128.623 377.229Z" fill="#3E001A"/>
<rect x="145.35" y="310.721" width="12.7494" height="12.7494" fill="#B882FF" stroke="white" stroke-width="3.47712"/>
<rect x="141.953" y="436.889" width="12.7494" height="12.7494" fill="white" stroke="#3E001A" stroke-width="3.47712"/>
</svg>
