<svg width="49" height="49" viewBox="0 0 49 49" fill="none" xmlns="http://www.w3.org/2000/svg">
<g clip-path="url(#clip0_2452_3117)">
<path fill-rule="evenodd" clip-rule="evenodd" d="M16.2515 2.54492H31.3084L34.2637 5.47088H37.4669H38.4602V6.5237H37.4669V11.3166H39.5125C39.7452 11.3166 39.9684 11.4091 40.1329 11.5736C40.2974 11.7381 40.3899 11.9613 40.3899 12.194V14.2422H41.8387H41.8534H42.9638C43.2545 14.2422 43.4902 14.4779 43.4902 14.7686C43.4902 15.0593 43.2545 15.295 42.9638 15.295H41.8534V44.9473H44.2949V46.0001H41.8534V46.002H41.8387H33.0798V46.0148H14.4801V46.002H5.7068V46.0001H3.29372V44.9473H5.7068V15.295H4.65313C4.3624 15.295 4.12672 15.0593 4.12672 14.7686C4.12672 14.4779 4.3624 14.2422 4.65313 14.2422H5.7068H7.16779V12.194C7.16779 11.9613 7.26023 11.7381 7.42476 11.5736C7.58929 11.4091 7.81245 11.3166 8.04514 11.3166H10.0938V6.5237H9.15693V5.47088H10.0938H13.3255L16.2515 2.54492ZM40.7859 44.9473H33.0798V41.6163H40.7859V44.9473ZM30.1694 44.9473V41.6163H32.027V44.9473H30.1694ZM17.3894 41.6163V44.9473H15.5329V41.6163H17.3894ZM17.3894 28.4571V40.5635H15.5329V28.4571H17.3894ZM15.5329 27.4043H17.3894V24.3337C17.3894 23.5143 17.5511 22.703 17.8651 21.9462C18.1792 21.1894 18.6394 20.502 19.2195 19.9233C19.7997 19.3447 20.4882 18.8862 21.2458 18.5741C21.8813 18.3123 22.5548 18.1578 23.239 18.1161V15.3077H15.5329V27.4043ZM24.2918 15.3077V18.1144C25.8157 18.2005 27.2599 18.8439 28.3449 19.929C29.5131 21.0972 30.1694 22.6816 30.1694 24.3337V27.4043H32.027V15.3077H24.2918ZM30.1694 40.5635V28.4571H32.027V40.5635H30.1694ZM40.7859 40.5635H33.0798V28.4571H40.7859V40.5635ZM40.7859 27.4043H33.0798V22.6055H40.7859V27.4043ZM40.7859 21.5527H33.0798V15.295H40.7859V21.5527ZM6.75961 15.295H14.4801V21.5527H6.75961V15.295ZM6.75961 22.6055H14.4801V27.4043H6.75961V22.6055ZM6.75961 28.4571H14.4801V40.5635H6.75961V28.4571ZM6.75961 41.6163H14.4801V44.9473H6.75961V41.6163ZM11.1466 6.5237H36.4141V11.3166H11.1466V6.5237ZM16.6876 3.59773L14.8159 5.4694H32.7658L30.8754 3.59773H16.6876ZM37.4669 12.3695V12.3727H10.0938V12.3695H8.2206V14.2411H39.3371V12.3695H37.4669ZM18.2814 10.9099H29.2775C29.5101 10.9099 29.7333 10.8175 29.8978 10.6529C30.0624 10.4884 30.1548 10.2653 30.1548 10.0326V7.80996C30.1548 7.57727 30.0624 7.35412 29.8978 7.18959C29.7333 7.02505 29.5101 6.93262 29.2775 6.93262H18.2814C18.0487 6.93262 17.8256 7.02505 17.661 7.18959C17.4965 7.35412 17.4041 7.57727 17.4041 7.80996V10.0326C17.4041 10.2653 17.4965 10.4884 17.661 10.6529C17.8256 10.8175 18.0487 10.9099 18.2814 10.9099ZM29.102 9.8571H18.4569V7.98543H29.102V9.8571ZM23.6318 19.1573C22.951 19.1556 22.2764 19.2882 21.6469 19.5475C21.0173 19.8069 20.4451 20.1879 19.963 20.6687C19.481 21.1496 19.0985 21.7208 18.8375 22.3497C18.5766 22.9786 18.4422 23.6528 18.4422 24.3337V44.7719H29.1166V24.3337C29.1166 22.9608 28.5712 21.6442 27.6005 20.6734C26.6297 19.7027 25.3131 19.1573 23.9403 19.1573H23.6332L23.6318 19.1573ZM32.6257 8.93716C32.6257 8.44454 33.025 8.0452 33.5177 8.0452C34.0103 8.0452 34.4096 8.44454 34.4096 8.93716C34.4096 9.42978 34.0103 9.82913 33.5177 9.82913C33.025 9.82913 32.6257 9.42978 32.6257 8.93716ZM33.5177 6.99238C32.4436 6.99238 31.5729 7.86309 31.5729 8.93716C31.5729 10.0112 32.4436 10.8819 33.5177 10.8819C34.5917 10.8819 35.4624 10.0112 35.4624 8.93716C35.4624 7.86309 34.5917 6.99238 33.5177 6.99238ZM14.1437 8.0452C13.6511 8.0452 13.2517 8.44454 13.2517 8.93716C13.2517 9.42978 13.6511 9.82913 14.1437 9.82913C14.6363 9.82913 15.0357 9.42978 15.0357 8.93716C15.0357 8.44454 14.6363 8.0452 14.1437 8.0452ZM12.1989 8.93716C12.1989 7.86309 13.0696 6.99238 14.1437 6.99238C15.2178 6.99238 16.0885 7.86309 16.0885 8.93716C16.0885 10.0112 15.2178 10.8819 14.1437 10.8819C13.0696 10.8819 12.1989 10.0112 12.1989 8.93716ZM9.72722 18.4255C9.72722 17.9329 10.1266 17.5335 10.6192 17.5335C11.1118 17.5335 11.5111 17.9329 11.5111 18.4255C11.5111 18.9181 11.1118 19.3175 10.6192 19.3175C10.1266 19.3175 9.72722 18.9181 9.72722 18.4255ZM10.6192 16.4807C9.54511 16.4807 8.6744 17.3514 8.6744 18.4255C8.6744 19.4996 9.54511 20.3703 10.6192 20.3703C11.6933 20.3703 12.564 19.4996 12.564 18.4255C12.564 17.3514 11.6933 16.4807 10.6192 16.4807ZM36.9395 17.5335C36.4469 17.5335 36.0475 17.9329 36.0475 18.4255C36.0475 18.9181 36.4469 19.3175 36.9395 19.3175C37.4321 19.3175 37.8314 18.9181 37.8314 18.4255C37.8314 17.9329 37.4321 17.5335 36.9395 17.5335ZM34.9947 18.4255C34.9947 17.3514 35.8654 16.4807 36.9395 16.4807C38.0136 16.4807 38.8843 17.3514 38.8843 18.4255C38.8843 19.4996 38.0136 20.3703 36.9395 20.3703C35.8654 20.3703 34.9947 19.4996 34.9947 18.4255Z" fill="white"/>
</g>
<defs>
<clipPath id="clip0_2452_3117">
<rect width="48" height="48" fill="white" transform="translate(0.294922 0.544922)"/>
</clipPath>
</defs>
</svg>
