<svg width="49" height="49" viewBox="0 0 49 49" fill="none" xmlns="http://www.w3.org/2000/svg">
<g clip-path="url(#clip0_2452_3106)">
<path d="M28.7949 36.0449V35.5049V23.5049H25.7949V12.0449V1.54488C25.7949 1.24638 25.5534 1.00488 25.2549 1.00488C24.9564 1.00488 24.7149 1.24638 24.7149 1.54488V11.5049H21.7149V35.5049H18.7149V38.5049L2.29492 38.5048V39.5863L18.7149 39.5864V46.5449H19.7949V36.5849H21.7149V46.5449H22.7949V36.5849H24.7149V46.5449H25.7949V36.5849H27.7149V46.5449H28.7949V39.5849L47.2949 39.5849V38.5048L28.7949 38.5049V36.0449ZM24.7149 12.5849V23.5049H22.7949V12.5849H24.7149ZM22.7949 35.5049V24.5849H24.7149V35.5049H22.7949ZM25.7949 35.5049V24.5849H27.7149V35.5049H25.7949Z" fill="white"/>
</g>
<defs>
<clipPath id="clip0_2452_3106">
<rect width="48" height="48" fill="white" transform="translate(0.794922 0.0449219)"/>
</clipPath>
</defs>
</svg>
