<svg width="49" height="49" viewBox="0 0 49 49" fill="none" xmlns="http://www.w3.org/2000/svg">
<g id="london--big-ben 1" clip-path="url(#clip0_2452_3095)">
<path id="london--big-ben" d="M30.5849 47.0449H29.5049V41.5849H20.0849V47.0449H19.0049V35.5849H18.7949C18.4964 35.5849 18.2549 35.3434 18.2549 35.0449V23.0449C18.2549 22.7464 18.4964 22.5049 18.7949 22.5049H19.0049V18.5449C19.0049 18.4009 19.0619 18.2644 19.1624 18.1639L22.0049 15.3214V11.0449C22.0049 10.9804 22.0169 10.9159 22.0394 10.8559L24.2549 4.94742V2.04492H25.3349V4.94742L27.5504 10.8559C27.5744 10.9159 27.5849 10.9804 27.5849 11.0449V15.3214L30.4274 18.1639C30.5279 18.2644 30.5849 18.4024 30.5849 18.5449V22.5049H30.7949C31.0934 22.5049 31.3349 22.7464 31.3349 23.0449V35.0449C31.3349 35.3434 31.0934 35.5849 30.7949 35.5849H30.5849V47.0449ZM28.3349 40.5049H29.5034V35.5849H20.0834V40.5034H21.2534V36.5449H22.3334V40.5049H24.2534V36.5449H25.3334V40.5049H27.2534V36.5449H28.3349V40.5049ZM19.3349 34.5049H30.2549V23.5849H19.3349V34.5049ZM28.3349 22.5049H29.5034V19.0849H20.0834V22.5049H21.2534V20.0449H22.3334V22.5049H24.2534V20.0449H25.3334V22.5049H27.2534V20.0449H28.3349V22.5049ZM20.8484 18.0049H28.7414L26.8214 16.0849H22.7684L20.8484 18.0049ZM25.3349 15.0049H26.5049V11.5849H23.0849V15.0049H24.2549V12.5449H25.3349V15.0049ZM23.3249 10.5049H26.2664L24.7949 6.58242L23.3249 10.5049ZM28.3349 47.0449H27.2549V42.5449H28.3364L28.3349 47.0449ZM25.3349 47.0449H24.2549V42.5449H25.3349V47.0449ZM22.3349 47.0449H21.2549V42.5449H22.3349V47.0449ZM24.7949 32.2099C22.6364 32.2099 20.8799 30.4534 20.8799 28.2949C20.8799 26.1364 22.6364 24.3799 24.7949 24.3799C26.9534 24.3799 28.7099 26.1349 28.7099 28.2949C28.7099 30.4549 26.9534 32.2099 24.7949 32.2099ZM24.7949 25.4599C23.2319 25.4599 21.9599 26.7319 21.9599 28.2949C21.9599 29.8579 23.2319 31.1299 24.7949 31.1299C26.3579 31.1299 27.6299 29.8579 27.6299 28.2949C27.6299 26.7319 26.3579 25.4599 24.7949 25.4599ZM27.0449 28.8349H24.7949C24.6509 28.8349 24.5144 28.7779 24.4124 28.6759C24.3119 28.5754 24.2549 28.4374 24.2549 28.2934L24.2579 26.0434L25.3379 26.0449L25.3349 27.7549H27.0449V28.8349ZM45.3284 19.0849H38.4269C37.2284 19.0849 36.2534 18.1054 36.2534 16.9024C36.2534 15.4909 37.5674 14.3359 38.8334 14.5699C39.2549 13.1764 40.5434 12.1939 42.0584 12.1939C43.2989 12.1939 44.4074 12.8539 44.9984 13.9099C46.4444 13.7179 47.8349 15.0289 47.8349 16.5814C47.8349 17.9614 46.7099 19.0849 45.3284 19.0849ZM38.4284 15.6109C37.8134 15.6109 37.3349 16.3054 37.3349 16.9024C37.3349 17.5099 37.8239 18.0049 38.4284 18.0049H45.3299C46.1159 18.0049 46.7549 17.3644 46.7549 16.5784C46.7549 15.5599 45.7454 14.7424 44.8724 15.0424C44.6009 15.1384 44.2994 14.9959 44.1959 14.7274C43.8509 13.8439 43.0124 13.2724 42.0599 13.2724C40.8719 13.2724 39.8909 14.1604 39.7784 15.3379C39.7604 15.5194 39.6524 15.6814 39.4904 15.7654C39.3284 15.8494 39.1319 15.8449 38.9744 15.7564C38.8049 15.6604 38.6204 15.6109 38.4284 15.6109ZM13.2674 13.0849H4.39491C2.93991 13.0849 1.75491 11.8954 1.75491 10.4329C1.75491 9.05292 2.83941 7.51392 4.39491 7.51392C4.60791 7.51392 4.81941 7.53942 5.02491 7.59042C5.50491 5.79192 7.13391 4.50642 9.06441 4.50642C10.6394 4.50642 12.0434 5.36292 12.7604 6.72642C14.5364 6.41592 16.3349 8.05542 16.3349 10.0159C16.3349 11.7079 14.9579 13.0849 13.2674 13.0849ZM4.39491 8.59392C3.51741 8.59392 2.83491 9.58242 2.83491 10.4329C2.83491 11.2999 3.53541 12.0049 4.39491 12.0049H13.2674C14.3624 12.0049 15.2549 11.1124 15.2549 10.0174C15.2549 8.95392 14.4044 7.76442 13.2674 7.76442C13.0529 7.76442 12.8384 7.80042 12.6284 7.87092C12.3554 7.96692 12.0584 7.82442 11.9519 7.55592C11.4854 6.35892 10.3529 5.58642 9.06441 5.58642C7.45491 5.58642 6.12741 6.78792 5.97741 8.38242C5.96091 8.56392 5.85141 8.72592 5.68941 8.80992C5.52741 8.89542 5.33241 8.89242 5.17191 8.80092C4.93191 8.66292 4.66941 8.59392 4.39491 8.59392Z" fill="white"/>
</g>
<defs>
<clipPath id="clip0_2452_3095">
<rect width="48" height="48" fill="white" transform="translate(0.794922 0.544922)"/>
</clipPath>
</defs>
</svg>
