<svg width="49" height="49" viewBox="0 0 49 49" fill="none" xmlns="http://www.w3.org/2000/svg">
<g clip-path="url(#clip0_2452_3084)">
<path d="M36.2949 47.0845H12.2949V46.0045H17.7549V43.5445C17.7549 43.246 17.9964 43.0045 18.2949 43.0045H19.2549V36.5845H18.2949V35.5045H19.2549V33.0445C19.2549 32.746 19.4964 32.5045 19.7949 32.5045H20.7549V21.1555L19.3134 17.791L18.6774 18.427L17.9139 17.6635L18.8544 16.7215L16.2984 10.7575L17.2914 10.333L19.6764 15.8995L20.6499 14.926L17.9439 8.83454H16.7949C16.4964 8.83454 16.2549 8.59304 16.2549 8.29454V6.58454H15.2949V5.50454H18.2949V6.58454H17.3349V7.75454H18.2949C18.5079 7.75454 18.7014 7.87904 18.7884 8.07554L21.6459 14.5045H22.3284C22.3734 14.338 22.4394 14.182 22.5219 14.035L21.2889 12.8005L22.0524 12.037L23.2854 13.27C23.4324 13.186 23.5899 13.12 23.7549 13.075V11.2195H24.8349V13.075C25.0014 13.1215 25.1589 13.1875 25.3044 13.27L26.5374 12.037L27.3024 12.8005L26.0694 14.035C26.1519 14.1805 26.2179 14.338 26.2629 14.5045H28.0449V15.5845H26.3349V16.5445C26.3349 16.6885 26.2779 16.825 26.1774 16.9255L25.5984 17.5045H26.6739C27.2109 17.5045 27.7359 17.722 28.1169 18.1015L29.9199 19.9045L30.6624 19.162L31.4274 19.9255L27.8349 23.518V24.2545H28.5699L31.4124 21.412L32.1774 22.1755L29.1774 25.1755C29.0769 25.2775 28.9389 25.3345 28.7949 25.3345H27.8349V32.5045H28.7949C29.0934 32.5045 29.3349 32.746 29.3349 33.0445V35.5045H30.2949V36.586H29.3349V43.0045H30.2949C30.5934 43.0045 30.8349 43.246 30.8349 43.5445V46.0045H36.2949V47.0845ZM24.8349 46.0045H29.7549V44.0845H18.8349V46.003H23.7549V45.0445H24.8349V46.0045ZM20.3349 43.0045H28.2549V36.5845H20.3349V43.0045ZM24.8349 35.5045H28.2549V33.5845H20.3349V35.503H23.7549V34.5445H24.8349V35.5045ZM21.8349 32.5045H26.7549V23.2945C26.7549 23.1505 26.8119 23.014 26.9124 22.9135L29.1564 20.6695L27.3519 18.865C27.3324 18.8455 27.3129 18.8275 27.2919 18.8095L21.8349 24.2665V28.7395L24.6639 25.9105L25.4274 26.6755L21.8349 30.268V32.5045ZM20.1354 16.9675L21.7914 20.8315C21.8199 20.899 21.8349 20.971 21.8349 21.0445V22.741L25.9914 18.5845H25.0449C24.7464 18.5845 24.5049 18.343 24.5049 18.0445V17.2945C24.5049 17.1505 24.5619 17.014 24.6624 16.9135L25.2549 16.321V15.0445C25.2549 14.5135 24.8274 14.083 24.3024 14.083C23.7654 14.083 23.3349 14.515 23.3349 15.0445V16.5445H22.2549V15.5845H21.5184L20.1354 16.9675ZM27.0849 40.2625H26.0049V37.825H27.0864L27.0849 40.2625ZM24.8349 40.2625H23.7549V37.825H24.8349V40.2625ZM22.5849 40.2625H21.5049V37.825H22.5849V40.2625ZM17.3349 4.54904L16.2549 4.54454C16.2549 3.72404 16.7979 2.50454 18.2949 2.50454C19.1694 2.50454 19.2504 1.76654 19.2549 1.54004L20.3349 1.54454C20.3349 2.36504 19.7919 3.58454 18.2949 3.58454C17.4204 3.58454 17.3394 4.32254 17.3349 4.54904Z" fill="white"/>
</g>
<defs>
<clipPath id="clip0_2452_3084">
<rect width="48" height="48" fill="white" transform="translate(0.294922 0.0449219)"/>
</clipPath>
</defs>
</svg>
