<svg width="49" height="49" viewBox="0 0 49 49" fill="none" xmlns="http://www.w3.org/2000/svg">
<g clip-path="url(#clip0_2452_3152)">
<path d="M47.2949 17.5049H32.2949C31.9964 17.5049 31.7549 17.7464 31.7549 18.0449C31.7549 18.3434 31.9964 18.5849 32.2949 18.5849C35.3054 18.5849 37.7549 21.0344 37.7549 24.0449V39.0449C37.7549 40.4009 36.6524 41.5049 35.2949 41.5049C34.9964 41.5049 34.7549 41.7464 34.7549 42.0449C34.7549 42.3434 34.9964 42.5849 35.2949 42.5849C37.2479 42.5849 38.8349 40.9964 38.8349 39.0449V36.5849H40.7534V39.0449C40.7534 40.9979 42.3419 42.5849 44.2934 42.5849C44.5919 42.5849 44.8334 42.3434 44.8334 42.0449C44.8334 41.7464 44.5919 41.5049 44.2934 41.5049C42.9374 41.5049 41.8334 40.4024 41.8334 39.0449V24.0449C41.8334 21.0344 44.2829 18.5849 47.2934 18.5849C47.5919 18.5849 47.8334 18.3434 47.8334 18.0449C47.8334 17.7464 47.5934 17.5049 47.2949 17.5049ZM40.7549 24.5849V26.5049H38.8349V24.5849H40.7549ZM38.8349 27.5849H40.7534V29.5034H38.8349V27.5849ZM38.8349 30.5849H40.7534V32.5034H38.8349V30.5849ZM38.8349 35.5049V33.5849H40.7534V35.5034L38.8349 35.5049ZM40.7894 23.5049H38.8019C38.6324 21.4514 37.5224 19.6619 35.8919 18.5849H43.6994C42.0689 19.6619 40.9589 21.4529 40.7894 23.5049ZM14.2949 41.5049C12.9389 41.5049 11.8349 40.4024 11.8349 39.0449V24.0449C11.8349 21.0344 14.2844 18.5849 17.2949 18.5849C17.5934 18.5849 17.8349 18.3434 17.8349 18.0449C17.8349 17.7464 17.5934 17.5049 17.2949 17.5049H2.29491C1.99641 17.5049 1.75491 17.7464 1.75491 18.0449C1.75491 18.3434 1.99641 18.5849 2.29491 18.5849C5.30541 18.5849 7.75491 21.0344 7.75491 24.0449V39.0449C7.75491 40.4009 6.65091 41.5049 5.29491 41.5049C4.99641 41.5049 4.75491 41.7464 4.75491 42.0449C4.75491 42.3434 4.99641 42.5849 5.29491 42.5849C7.24641 42.5849 8.83491 40.9964 8.83491 39.0449V36.5849H10.7549V39.0449C10.7549 40.9979 12.3434 42.5849 14.2949 42.5849C14.5934 42.5849 14.8349 42.3434 14.8349 42.0449C14.8349 41.7464 14.5934 41.5049 14.2949 41.5049ZM10.7549 24.5849V26.5049H8.83491V24.5849H10.7549ZM10.7549 29.5049H8.83491V27.5849H10.7549V29.5049ZM8.83491 30.5849H10.7549V32.5034H8.83491V30.5849ZM5.89041 18.5849H13.6979C12.0674 19.6619 10.9589 21.4529 10.7894 23.5049H8.80041C8.63091 21.4529 7.52091 19.6619 5.89041 18.5849ZM8.83491 35.5049V33.5849H10.7549V35.5034L8.83491 35.5049ZM33.7949 46.0049C30.7844 46.0049 28.3349 43.5554 28.3349 40.5449V10.5449C28.3349 5.87988 32.1284 2.08488 36.7949 2.08488H39.7949C40.0934 2.08488 40.3349 1.84338 40.3349 1.54488C40.3349 1.24638 40.0934 1.00488 39.7949 1.00488H9.79491C9.49641 1.00488 9.25491 1.24638 9.25491 1.54488C9.25491 1.84338 9.49641 2.08488 9.79491 2.08488H12.7949C17.4599 2.08488 21.2549 5.87988 21.2549 10.5449V40.5449C21.2549 43.5554 18.8054 46.0049 15.7949 46.0049C15.4964 46.0049 15.2549 46.2464 15.2549 46.5449C15.2549 46.8434 15.4964 47.0849 15.7949 47.0849C19.4009 47.0849 22.3349 44.1509 22.3349 40.5449V38.5814C22.8494 39.0809 23.5154 39.4154 24.2549 39.5309V46.5449C24.2549 46.8434 24.4964 47.0849 24.7949 47.0849C25.0934 47.0849 25.3349 46.8434 25.3349 46.5449V39.5309C26.0744 39.4169 26.7404 39.0809 27.2549 38.5829V40.5449C27.2549 44.1509 30.1889 47.0849 33.7949 47.0849C34.0934 47.0849 34.3349 46.8434 34.3349 46.5449C34.3349 46.2464 34.0934 46.0049 33.7949 46.0049ZM22.3349 26.5814C22.8494 27.0809 23.5154 27.4154 24.2549 27.5309V32.4404C23.1584 32.1929 22.3349 31.2149 22.3349 30.0449V26.5814ZM22.3349 20.5814C22.8494 21.0809 23.5154 21.4154 24.2549 21.5309V26.4404C23.1584 26.1929 22.3349 25.2149 22.3349 24.0449V20.5814ZM22.3349 14.5814C22.8494 15.0809 23.5154 15.4154 24.2549 15.5309V20.4419C23.1584 20.1944 22.3349 19.2164 22.3349 18.0464V14.5814ZM25.3349 21.5294C26.0744 21.4154 26.7404 21.0794 27.2549 20.5814V24.0449C27.2549 25.2149 26.4314 26.1929 25.3349 26.4404V21.5294ZM25.3349 20.4404V15.5294C26.0744 15.4154 26.7404 15.0794 27.2549 14.5814V18.0449C27.2549 19.2149 26.4314 20.1944 25.3349 20.4404ZM25.3349 27.5309C26.0744 27.4169 26.7404 27.0809 27.2549 26.5829V30.0449C27.2549 31.2149 26.4314 32.1929 25.3349 32.4404V27.5309ZM27.2549 10.5449V12.0449C27.2549 13.2149 26.4314 14.1944 25.3349 14.4404V7.54488C25.3349 4.53438 27.7844 2.08488 30.7949 2.08488H32.4029C29.3489 3.67638 27.2549 6.86838 27.2549 10.5449ZM27.2114 2.08488C26.1509 2.78238 25.3049 3.77838 24.7949 4.95588C24.2849 3.77838 23.4389 2.78388 22.3784 2.08488H27.2114ZM17.1854 2.08488H18.7949C21.8054 2.08488 24.2549 4.53438 24.2549 7.54488V14.4404C23.1584 14.1944 22.3349 13.2149 22.3349 12.0449V10.5449C22.3349 6.86838 20.2409 3.67638 17.1854 2.08488ZM22.3349 36.0449V32.5814C22.8494 33.0809 23.5154 33.4154 24.2549 33.5309V38.4404C23.1584 38.1929 22.3349 37.2149 22.3349 36.0449ZM25.3349 38.4404V33.5309C26.0744 33.4169 26.7404 33.0809 27.2549 32.5829V36.0449C27.2549 37.2149 26.4314 38.1929 25.3349 38.4404Z" fill="white"/>
</g>
<defs>
<clipPath id="clip0_2452_3152">
<rect width="48" height="48" fill="white" transform="translate(0.794922 0.0449219)"/>
</clipPath>
</defs>
</svg>
