<svg width="237" height="93" viewBox="0 0 237 93" fill="none" xmlns="http://www.w3.org/2000/svg">
<path fill-rule="evenodd" clip-rule="evenodd" d="M64.2042 0.544922H42.0986L40.4348 7.79785H32.917L29.7251 21.6152H15.1591L13.4953 28.8682H5.97759L1.02943 50.2881H22.9371L18.0695 71.3594H40.4364L35.5695 92.4277H58.2121L59.9678 84.8275H66.9712L71.8048 63.7568H49.6992L48.0358 71.0078H40.7933L42.4682 63.7572H49.4712L52.561 50.2881H68.1095L69.8657 42.6859H76.8687L81.7023 21.6152H59.5966L57.9328 28.8682H50.6923L52.3677 21.6156H59.3707L64.2042 0.544922ZM57.9328 28.8682L54.7631 42.6859H69.8657L73.0577 28.8682H57.9328ZM45.5797 50.2881L42.4682 63.7572H27.3656L30.5354 49.9395H45.5475L45.4669 50.2881H45.5797ZM47.2229 42.6865H32.1992L30.5354 49.9395H23.7526L25.4282 42.6859H32.4312L35.5208 29.2178H50.3343L47.2229 42.6865ZM48.0358 71.0078H63.1602L59.9678 84.8275H44.8656L48.0358 71.0078ZM25.4282 42.6859H10.3256L13.4953 28.8682H28.0496L27.9689 29.2178H28.5394L25.4282 42.6859ZM52.3677 21.6156H37.265L40.4348 7.79785H55.5596L52.3677 21.6156Z" fill="#0057FF"/>
<path fill-rule="evenodd" clip-rule="evenodd" d="M102.281 41.8892H108.619L110.331 33.6571H103.993L106.556 21.5703H96.7543L94.191 33.6571H88.6368L86.9248 41.8892H92.479L89.989 53.5186C89.7736 54.6293 89.6247 55.6747 89.6087 56.5893C89.5232 61.4894 92.684 63.8414 97.9115 63.8414H102.028L104.017 54.6947H102.907C100.881 54.6947 100.106 54.172 100.133 52.604C100.141 52.1466 100.216 51.624 100.358 50.9706L102.281 41.8892ZM234.584 41.8892H228.245L226.322 50.9706C226.18 51.624 226.106 52.1466 226.098 52.604C226.071 54.172 226.846 54.6947 228.871 54.6947L231.992 54.2288L230.003 63.3755L223.876 63.8414C218.649 63.8414 215.488 61.4894 215.573 56.5893C215.589 55.6747 215.738 54.6293 215.954 53.5186L218.444 41.8892H212.889L214.601 33.6571H220.156L222.719 21.5703H232.521L229.957 33.6571H236.296L234.584 41.8892ZM212.046 44.8943C212.014 46.7237 211.717 48.749 211.022 51.101H189.394C189.789 54.6291 191.782 56.5238 196.029 56.5238C199.885 56.5238 203.11 55.1518 205.355 53.8451L208.291 61.5545C204.467 63.5145 200.197 64.8212 195.231 64.8212C185.821 64.8212 179.644 59.3331 179.802 50.317C179.948 41.9543 185.467 32.7422 198.013 32.7422C206.573 32.7422 212.181 37.1196 212.046 44.8943ZM190.018 45.2863H202.302C202.375 44.8943 202.38 44.5676 202.388 44.1103C202.436 41.3663 200.504 39.7329 197.433 39.7329C193.905 39.7329 191.253 41.8889 190.018 45.2863ZM141.31 63.8421H151.176L154.382 48.6846C155.597 42.6738 158.177 40.9098 161.444 40.9098C164.45 40.9098 166.19 42.2818 166.132 45.6139C166.112 46.7245 165.896 47.9006 165.614 49.0766L162.546 63.8421H172.348L175.755 48.3579C176.253 46.0059 176.424 43.7192 176.445 42.4778C176.561 35.8791 172.827 32.6777 167.011 32.6777C162.568 32.6777 159.265 34.7031 156.524 38.2311H156.394L157.388 33.6577H147.717L141.31 63.8421ZM140.83 44.8944C140.798 46.7238 140.501 48.7491 139.806 51.1011H118.178C118.573 54.6292 120.566 56.5239 124.813 56.5239C128.669 56.5239 131.894 55.1519 134.139 53.8452L137.075 61.5546C133.251 63.5146 128.981 64.8213 124.015 64.8213C114.605 64.8213 108.428 59.3332 108.586 50.3171C108.732 41.9544 114.251 32.7423 126.797 32.7423C135.357 32.7423 140.965 37.1197 140.83 44.8944ZM118.802 45.2864H131.086C131.159 44.8944 131.164 44.5677 131.172 44.1104C131.22 41.3664 129.288 39.733 126.217 39.733C122.689 39.733 120.037 41.8891 118.802 45.2864Z" fill="white"/>
</svg>
