<svg width="115" height="45" viewBox="0 0 115 45" fill="none" xmlns="http://www.w3.org/2000/svg">
<path fill-rule="evenodd" clip-rule="evenodd" d="M31.1662 0H20.4881L19.6845 3.50293H16.0532L14.5113 10.1777H7.47467L6.67111 13.6806H3.03977L0.649568 24.0275H11.2322L8.88084 34.2061H19.6854L17.3342 44.384H28.2717L29.1199 40.7124H32.5026L34.8374 30.5342H24.1593L23.3557 34.0371H19.8574L20.6665 30.5344H24.0492L25.5418 24.0277H33.0528L33.901 20.3561H37.2837L39.6185 10.1779H28.9404L28.1369 13.6809H24.6395L25.4487 10.1782H28.8314L31.1662 0ZM28.1369 13.6809L26.6056 20.3561H33.901L35.443 13.6809H28.1369ZM22.1696 24.0277L20.6665 30.5344H13.3711L14.9024 23.8592H22.1542L22.1153 24.0277H22.1696ZM22.9634 20.3563H15.7059L14.9024 23.8592H11.6259L12.4352 20.3559H15.8179L17.3104 13.8498H24.4665L22.9634 20.3563ZM23.3557 34.0371H30.6619L29.1199 40.7124H21.8244L23.3557 34.0371ZM12.4352 20.3559H5.13982L6.67111 13.6806H13.7021L13.663 13.8498H13.9382L12.4352 20.3559ZM25.4487 10.1782H18.1533L19.6845 3.50293H26.9907L25.4487 10.1782Z" fill="white"/>
<path fill-rule="evenodd" clip-rule="evenodd" d="M49.5588 19.9718H52.6205L53.4475 15.9953H50.3858L51.624 10.1567H46.8893L45.6511 15.9953H42.9681L42.1412 19.9718H44.8241L43.6213 25.5893C43.5173 26.1259 43.4453 26.6308 43.4376 27.0726C43.3963 29.4396 44.9231 30.5758 47.4483 30.5758H49.4368L50.3978 26.1574H49.8612C48.8827 26.1574 48.5083 25.9049 48.5215 25.1475C48.5254 24.9266 48.5613 24.6741 48.63 24.3585L49.5588 19.9718ZM113.468 19.9718H110.406L109.478 24.3585C109.409 24.6741 109.373 24.9266 109.369 25.1475C109.356 25.9049 109.73 26.1574 110.709 26.1574L112.216 25.9324L111.255 30.3507L108.296 30.5758C105.771 30.5758 104.244 29.4396 104.285 27.0726C104.293 26.6308 104.365 26.1259 104.469 25.5893L105.672 19.9718H102.989L103.816 15.9953H106.499L107.737 10.1567H112.472L111.233 15.9953H114.295L113.468 19.9718ZM102.581 21.4233C102.566 22.307 102.423 23.2853 102.087 24.4215H91.6395C91.8307 26.1257 92.7932 27.0409 94.8449 27.0409C96.7072 27.0409 98.2654 26.3781 99.3496 25.747L100.768 29.471C98.9208 30.4178 96.8581 31.049 94.4593 31.049C89.914 31.049 86.9301 28.398 87.0061 24.0427C87.0766 20.0031 89.7426 15.5532 95.8029 15.5532C99.9379 15.5532 102.647 17.6677 102.581 21.4233ZM91.941 21.6127H97.8751C97.91 21.4233 97.9127 21.2655 97.9166 21.0446C97.9397 19.7191 97.0065 18.9301 95.523 18.9301C93.8186 18.9301 92.5378 19.9716 91.941 21.6127ZM68.412 30.5759H73.1783L74.7265 23.2541C75.3137 20.3506 76.5596 19.4985 78.1378 19.4985C79.5898 19.4985 80.4305 20.1612 80.4024 21.7708C80.393 22.3073 80.2884 22.8753 80.1522 23.4434L78.6704 30.5759H83.4051L85.0507 23.0963C85.2915 21.9601 85.3739 20.8555 85.3844 20.2559C85.44 17.0684 83.6363 15.522 80.8271 15.522C78.6807 15.522 77.0854 16.5003 75.7615 18.2045H75.6984L76.1789 15.9954H71.5073L68.412 30.5759ZM68.1801 21.4233C68.1647 22.307 68.0214 23.2853 67.6859 24.4215H57.2381C57.4293 26.1257 58.3918 27.0409 60.4435 27.0409C62.3058 27.0409 63.864 26.3781 64.9482 25.747L66.3667 29.471C64.5195 30.4178 62.4568 31.049 60.0579 31.049C55.5126 31.049 52.5287 28.398 52.6047 24.0427C52.6753 20.0031 55.3412 15.5532 61.4016 15.5532C65.5365 15.5532 68.2457 17.6677 68.1801 21.4233ZM57.5396 21.6127H63.4737C63.5086 21.4233 63.5114 21.2655 63.5152 21.0446C63.5383 19.7191 62.6052 18.9301 61.1217 18.9301C59.4172 18.9301 58.1364 19.9716 57.5396 21.6127Z" fill="white"/>
</svg>
