<svg width="462" height="250" viewBox="0 0 462 250" fill="none" xmlns="http://www.w3.org/2000/svg">
<rect x="0.777832" y="0.774902" width="461" height="249" fill="#FF813A"/>
<path d="M266.086 112.643V115.19L248.922 110.945H235.959C233.262 110.945 230.659 111.926 228.636 113.704L226.401 115.662H203.465V112.643C203.465 111.705 202.705 110.945 201.767 110.945H168.759V114.346H200.069V153.394H168.759V156.794H201.767C202.705 156.794 203.465 156.035 203.465 155.096V152.078H207.963L218.092 166.425C219.356 167.835 221.11 168.562 222.878 168.562C224.161 168.562 225.448 168.18 226.566 167.392L229.598 165.26C229.777 165.326 229.918 165.458 230.107 165.51C230.659 165.652 231.215 165.727 231.767 165.727C232.88 165.727 233.978 165.435 234.964 164.859L238.887 162.595C239.604 162.86 240.344 163.044 241.113 163.044C242.197 163.044 243.301 162.765 244.31 162.185L248.238 159.916C248.955 160.181 249.695 160.365 250.464 160.365C251.548 160.365 252.656 160.086 253.665 159.506C256.315 157.973 257.334 154.837 256.462 152.073H266.091V155.092C266.091 156.03 266.85 156.789 267.788 156.789H300.796V153.394H269.486V114.341H300.792V110.945H267.783C266.845 110.945 266.086 111.705 266.086 112.643ZM251.963 156.568C250.525 157.398 248.667 156.903 247.837 155.464L240.764 143.211L237.821 144.904L245.225 157.733L242.612 159.237C241.169 160.082 239.321 159.577 238.486 158.138L233.771 149.969L232.592 147.927L229.654 149.62L230.833 151.658L235.549 159.827L235.558 159.836L235.883 160.398L233.266 161.907C232.578 162.312 231.767 162.416 230.989 162.209C230.211 162.001 229.565 161.506 229.159 160.817L224.434 152.634L221.492 154.327L226.207 162.496L226.217 162.511L226.613 163.194L224.613 164.605C223.364 165.487 221.652 165.289 220.747 164.303L210.231 149.389C209.911 148.937 209.397 148.668 208.845 148.668H203.465V119.058H222.515L213.622 126.84C212.962 127.411 212.565 128.241 212.537 129.108C212.504 129.981 212.839 130.835 213.461 131.453C217.479 135.471 223.854 135.82 228.287 132.273L233.016 128.486H240.811L253.067 152.436C253.892 153.884 253.397 155.738 251.963 156.568ZM254.943 148.677L243.357 126.019C243.065 125.453 242.48 125.095 241.848 125.095H232.418C232.031 125.095 231.658 125.227 231.357 125.467L226.16 129.627C223.081 132.089 218.658 131.853 215.852 129.401L230.871 116.256C232.276 115.02 234.082 114.346 235.959 114.346L248.511 114.294L266.086 118.69V148.677H254.943Z" fill="#3E001A"/>
<rect x="-1.5" y="1.5" width="53.2128" height="45.8865" transform="matrix(-1 0 0 1 318.976 109.775)" fill="#FFCCB6" stroke="#3E001A" stroke-width="3"/>
<path d="M284.373 131.205C284.373 136.776 288.821 141.256 294.263 141.256C299.704 141.256 304.152 136.776 304.152 131.205C304.152 125.634 299.704 121.155 294.263 121.155C288.821 121.155 284.373 125.634 284.373 131.205Z" fill="#B882FF" stroke="#3E001A" stroke-width="3"/>
<mask id="path-5-inside-1_4808_11979" fill="white">
<path d="M275.805 158.688C275.805 153.829 277.708 149.169 281.096 145.733C284.484 142.297 289.079 140.366 293.87 140.366C298.661 140.366 303.257 142.297 306.645 145.733C310.032 149.169 311.936 153.829 311.936 158.688L293.87 158.688H275.805Z"/>
</mask>
<path d="M275.805 158.688C275.805 153.829 277.708 149.169 281.096 145.733C284.484 142.297 289.079 140.366 293.87 140.366C298.661 140.366 303.257 142.297 306.645 145.733C310.032 149.169 311.936 153.829 311.936 158.688L293.87 158.688H275.805Z" fill="#B882FF" stroke="#3E001A" stroke-width="6" mask="url(#path-5-inside-1_4808_11979)"/>
<rect x="-1.5" y="1.5" width="53.2128" height="45.8865" transform="matrix(-1 0 0 1 372.227 155.68)" fill="#00BA61" stroke="#3E001A" stroke-width="3"/>
<rect x="-1.5" y="1.5" width="53.2128" height="45.8865" transform="matrix(-1 0 0 1 425.595 109.875)" fill="#B882FF" stroke="#3E001A" stroke-width="3"/>
<rect x="-1.5" y="1.5" width="53.2128" height="45.8865" transform="matrix(-1 0 0 1 372.227 63.9698)" fill="#FFD056" stroke="#3E001A" stroke-width="3"/>
<path d="M337.624 177.11C337.624 182.681 342.072 187.161 347.513 187.161C352.955 187.161 357.403 182.681 357.403 177.11C357.403 171.539 352.955 167.06 347.513 167.06C342.072 167.06 337.624 171.539 337.624 177.11Z" fill="#FFD056" stroke="#3E001A" stroke-width="3"/>
<mask id="path-10-inside-2_4808_11979" fill="white">
<path d="M329.055 204.593C329.055 199.734 330.959 195.074 334.347 191.638C337.735 188.202 342.33 186.271 347.121 186.271C351.912 186.271 356.507 188.202 359.895 191.638C363.283 195.074 365.187 199.734 365.187 204.593L347.121 204.593H329.055Z"/>
</mask>
<path d="M329.055 204.593C329.055 199.734 330.959 195.074 334.347 191.638C337.735 188.202 342.33 186.271 347.121 186.271C351.912 186.271 356.507 188.202 359.895 191.638C363.283 195.074 365.187 199.734 365.187 204.593L347.121 204.593H329.055Z" fill="#FFD056" stroke="#3E001A" stroke-width="6" mask="url(#path-10-inside-2_4808_11979)"/>
<path d="M390.993 131.305C390.993 136.876 395.44 141.356 400.882 141.356C406.324 141.356 410.771 136.876 410.771 131.305C410.771 125.735 406.324 121.255 400.882 121.255C395.44 121.255 390.993 125.735 390.993 131.305Z" fill="#00BA61" stroke="#3E001A" stroke-width="3"/>
<mask id="path-12-inside-3_4808_11979" fill="white">
<path d="M382.424 158.788C382.424 153.929 384.327 149.269 387.715 145.833C391.103 142.397 395.698 140.467 400.489 140.467C405.28 140.467 409.875 142.397 413.263 145.833C416.651 149.269 418.555 153.929 418.555 158.788L400.489 158.788H382.424Z"/>
</mask>
<path d="M382.424 158.788C382.424 153.929 384.327 149.269 387.715 145.833C391.103 142.397 395.698 140.467 400.489 140.467C405.28 140.467 409.875 142.397 413.263 145.833C416.651 149.269 418.555 153.929 418.555 158.788L400.489 158.788H382.424Z" fill="#00BA61" stroke="#3E001A" stroke-width="6" mask="url(#path-12-inside-3_4808_11979)"/>
<path d="M337.624 85.4003C337.624 90.9712 342.072 95.451 347.514 95.451C352.955 95.451 357.403 90.9712 357.403 85.4003C357.403 79.8295 352.955 75.3496 347.514 75.3496C342.072 75.3496 337.624 79.8295 337.624 85.4003Z" fill="#FF813A" stroke="#3E001A" stroke-width="3"/>
<mask id="path-14-inside-4_4808_11979" fill="white">
<path d="M329.055 112.883C329.055 108.024 330.959 103.364 334.347 99.9278C337.735 96.4918 342.33 94.5615 347.121 94.5615C351.912 94.5615 356.507 96.4918 359.895 99.9278C363.283 103.364 365.187 108.024 365.187 112.883L347.121 112.883H329.055Z"/>
</mask>
<path d="M329.055 112.883C329.055 108.024 330.959 103.364 334.347 99.9278C337.735 96.4918 342.33 94.5615 347.121 94.5615C351.912 94.5615 356.507 96.4918 359.895 99.9278C363.283 103.364 365.187 108.024 365.187 112.883L347.121 112.883H329.055Z" fill="#FF813A" stroke="#3E001A" stroke-width="6" mask="url(#path-14-inside-4_4808_11979)"/>
<rect x="-1.5" y="1.5" width="53.2128" height="45.8865" transform="matrix(-1 0 0 1 147.655 155.043)" fill="#FFCCB6" stroke="#3E001A" stroke-width="3"/>
<rect x="-1.5" y="1.5" width="53.2128" height="45.8865" transform="matrix(-1 0 0 1 94.5194 109.875)" fill="#B882FF" stroke="#3E001A" stroke-width="3"/>
<path d="M113.053 176.474C113.053 182.045 117.5 186.525 122.942 186.525C128.384 186.525 132.831 182.045 132.831 176.474C132.831 170.903 128.384 166.423 122.942 166.423C117.5 166.423 113.053 170.903 113.053 176.474Z" fill="#00BA61" stroke="#3E001A" stroke-width="3"/>
<mask id="path-18-inside-5_4808_11979" fill="white">
<path d="M104.484 203.957C104.484 199.098 106.387 194.437 109.775 191.001C113.163 187.565 117.758 185.635 122.549 185.635C127.341 185.635 131.936 187.565 135.324 191.001C138.712 194.437 140.615 199.098 140.615 203.957L122.549 203.957H104.484Z"/>
</mask>
<path d="M104.484 203.957C104.484 199.098 106.387 194.437 109.775 191.001C113.163 187.565 117.758 185.635 122.549 185.635C127.341 185.635 131.936 187.565 135.324 191.001C138.712 194.437 140.615 199.098 140.615 203.957L122.549 203.957H104.484Z" fill="#00BA61" stroke="#3E001A" stroke-width="6" mask="url(#path-18-inside-5_4808_11979)"/>
<path d="M59.9167 131.305C59.9167 136.876 64.3641 141.356 69.8059 141.356C75.2477 141.356 79.6951 136.876 79.6951 131.305C79.6951 125.735 75.2477 121.255 69.8059 121.255C64.3641 121.255 59.9167 125.735 59.9167 131.305Z" fill="#FFD056" stroke="#3E001A" stroke-width="3"/>
<mask id="path-20-inside-6_4808_11979" fill="white">
<path d="M51.3477 158.789C51.3477 153.929 53.251 149.269 56.639 145.833C60.0269 142.397 64.622 140.467 69.4133 140.467C74.2046 140.467 78.7996 142.397 82.1876 145.833C85.5755 149.269 87.4789 153.929 87.4789 158.789L69.4133 158.789H51.3477Z"/>
</mask>
<path d="M51.3477 158.789C51.3477 153.929 53.251 149.269 56.639 145.833C60.0269 142.397 64.622 140.467 69.4133 140.467C74.2046 140.467 78.7996 142.397 82.1876 145.833C85.5755 149.269 87.4789 153.929 87.4789 158.789L69.4133 158.789H51.3477Z" fill="#FFD056" stroke="#3E001A" stroke-width="6" mask="url(#path-20-inside-6_4808_11979)"/>
<rect x="-1.5" y="1.5" width="53.2128" height="45.8865" transform="matrix(-1 0 0 1 147.656 63.9699)" fill="#00BA61" stroke="#3E001A" stroke-width="3"/>
<rect x="-1.5" y="1.5" width="53.2128" height="45.8865" transform="matrix(-1 0 0 1 200.791 109.775)" fill="#FFD056" stroke="#3E001A" stroke-width="3"/>
<path d="M113.053 85.4005C113.053 90.9714 117.5 95.4512 122.942 95.4512C128.384 95.4512 132.831 90.9714 132.831 85.4005C132.831 79.8297 128.384 75.3498 122.942 75.3498C117.5 75.3498 113.053 79.8297 113.053 85.4005Z" fill="#B882FF" stroke="#3E001A" stroke-width="3"/>
<mask id="path-24-inside-7_4808_11979" fill="white">
<path d="M104.484 112.884C104.484 108.024 106.387 103.364 109.775 99.9281C113.163 96.492 117.758 94.5617 122.549 94.5617C127.34 94.5617 131.935 96.492 135.323 99.928C138.711 103.364 140.615 108.024 140.615 112.884L122.549 112.884H104.484Z"/>
</mask>
<path d="M104.484 112.884C104.484 108.024 106.387 103.364 109.775 99.9281C113.163 96.492 117.758 94.5617 122.549 94.5617C127.34 94.5617 131.935 96.492 135.323 99.928C138.711 103.364 140.615 108.024 140.615 112.884L122.549 112.884H104.484Z" fill="#B882FF" stroke="#3E001A" stroke-width="6" mask="url(#path-24-inside-7_4808_11979)"/>
<path d="M166.189 131.205C166.189 136.776 170.636 141.256 176.078 141.256C181.52 141.256 185.967 136.776 185.967 131.205C185.967 125.634 181.52 121.155 176.078 121.155C170.636 121.155 166.189 125.634 166.189 131.205Z" fill="#FF813A" stroke="#3E001A" stroke-width="3"/>
<mask id="path-26-inside-8_4808_11979" fill="white">
<path d="M157.62 158.688C157.62 153.829 159.523 149.169 162.911 145.733C166.299 142.297 170.894 140.367 175.685 140.367C180.477 140.367 185.072 142.297 188.46 145.733C191.848 149.169 193.751 153.829 193.751 158.688L175.685 158.688H157.62Z"/>
</mask>
<path d="M157.62 158.688C157.62 153.829 159.523 149.169 162.911 145.733C166.299 142.297 170.894 140.367 175.685 140.367C180.477 140.367 185.072 142.297 188.46 145.733C191.848 149.169 193.751 153.829 193.751 158.688L175.685 158.688H157.62Z" fill="#FF813A" stroke="#3E001A" stroke-width="6" mask="url(#path-26-inside-8_4808_11979)"/>
</svg>
