<svg width="462" height="250" viewBox="0 0 462 250" fill="none" xmlns="http://www.w3.org/2000/svg">
<mask id="mask0_4808_11980" style="mask-type:alpha" maskUnits="userSpaceOnUse" x="0" y="0" width="462" height="250">
<rect x="0.777832" y="0.218018" width="461" height="249" fill="#9B4CFF"/>
</mask>
<g mask="url(#mask0_4808_11980)">
<rect x="0.777832" y="0.218018" width="461" height="249" fill="#9B4CFF"/>
<circle cx="231.278" cy="124.718" r="194.443" fill="#AC6BFF" stroke="#3E001A" stroke-width="3"/>
<circle cx="231.278" cy="124.718" r="140.888" fill="#BC88FF" stroke="#3E001A" stroke-width="3"/>
<circle cx="231.278" cy="124.718" r="77.8875" fill="#CDA6FF" stroke="#3E001A" stroke-width="3"/>
</g>
<rect x="128.723" y="93.0352" width="205.112" height="75.5251" fill="#FF813A" stroke="#3E001A" stroke-width="3"/>
<rect x="333.935" y="168.736" width="51.2621" height="50.0539" fill="#FFCCB6" stroke="#3E001A" stroke-width="3"/>
<rect x="77.5413" y="42.795" width="51.2621" height="50.0539" fill="#00BA61" stroke="#3E001A" stroke-width="3"/>
<rect x="77.5413" y="168.736" width="51.2621" height="50.0539" fill="#FFD056" stroke="#3E001A" stroke-width="3"/>
<g clip-path="url(#clip0_4808_11980)">
<path d="M102.062 193.074L91.5657 203.571L93.4218 205.427L103.918 194.93L102.062 193.074Z" fill="#3E001A"/>
<path d="M104.312 212.375C104.146 212.375 103.981 212.344 103.827 212.283C103.612 212.197 103.423 212.056 103.28 211.874C103.137 211.692 103.045 211.475 103.013 211.246L101.701 202.059L104.326 201.691L105.31 208.608L109.562 205.182V195.312C109.561 195.14 109.594 194.969 109.66 194.809C109.725 194.649 109.821 194.503 109.943 194.381L115.285 189.039C116.386 187.945 117.259 186.645 117.853 185.212C118.448 183.779 118.753 182.243 118.75 180.691V178.25H116.309C114.757 178.247 113.221 178.552 111.788 179.147C110.355 179.741 109.054 180.614 107.961 181.715L102.619 187.057C102.497 187.179 102.351 187.275 102.191 187.34C102.031 187.405 101.86 187.438 101.687 187.437H91.8174L88.3918 191.716L95.3086 192.701L94.9411 195.326L85.7536 194.013C85.5244 193.981 85.3077 193.889 85.1256 193.746C84.9435 193.603 84.8025 193.414 84.7168 193.199C84.63 192.983 84.6025 192.747 84.6371 192.516C84.6717 192.286 84.7671 192.068 84.9136 191.887L90.1636 185.324C90.2845 185.167 90.4395 185.04 90.6168 184.951C90.7941 184.862 90.9892 184.815 91.1874 184.812H101.149L106.097 179.851C107.435 178.506 109.026 177.44 110.779 176.714C112.532 175.989 114.412 175.619 116.309 175.625H118.75C119.446 175.625 120.114 175.902 120.606 176.394C121.098 176.886 121.375 177.554 121.375 178.25V180.691C121.381 182.588 121.011 184.468 120.286 186.221C119.56 187.973 118.494 189.565 117.149 190.902L112.187 195.851V205.812C112.186 206.01 112.141 206.204 112.055 206.381C111.968 206.559 111.843 206.714 111.689 206.836L105.126 212.086C104.895 212.272 104.608 212.373 104.312 212.375Z" fill="#3E001A"/>
</g>
<rect x="333.935" y="42.795" width="51.2621" height="50.0539" fill="#00BA61" stroke="#3E001A" stroke-width="3"/>
<g clip-path="url(#clip1_4808_11980)">
<path d="M369.625 64.6102C370.752 64.6089 371.832 64.1608 372.629 63.364C373.426 62.5672 373.874 61.487 373.875 60.3602V57.1727H370.688C369.6 57.1745 368.554 57.5955 367.769 58.3482C367.219 57.3494 366.411 56.5164 365.429 55.9359C364.447 55.3554 363.328 55.0487 362.188 55.0477H359V58.2352C359.002 59.9254 359.674 61.5458 360.869 62.741C362.064 63.9361 363.685 64.6083 365.375 64.6102H366.438V78.4227H353.688V73.1102H354.75C355.877 73.1089 356.957 72.6608 357.754 71.864C358.551 71.0672 358.999 69.987 359 68.8602V65.6727H355.812C354.725 65.6745 353.679 66.0955 352.894 66.8482C352.344 65.8494 351.536 65.0164 350.554 64.4359C349.572 63.8554 348.453 63.5487 347.312 63.5477H344.125V66.7352C344.127 68.4254 344.799 70.0458 345.994 71.241C347.189 72.4361 348.81 73.1083 350.5 73.1102H351.562V78.4227H344.125V80.5477H373.875V78.4227H368.562V64.6102H369.625ZM368.562 61.4227C368.563 60.8593 368.787 60.3191 369.186 59.9207C369.584 59.5223 370.124 59.2983 370.688 59.2977H371.75V60.3602C371.749 60.9236 371.525 61.4638 371.127 61.8622C370.729 62.2606 370.188 62.4846 369.625 62.4852H368.562V61.4227ZM353.688 69.9227C353.688 69.3593 353.912 68.8191 354.311 68.4207C354.709 68.0223 355.249 67.7983 355.812 67.7977H356.875V68.8602C356.874 69.4236 356.65 69.9638 356.252 70.3622C355.854 70.7606 355.313 70.9846 354.75 70.9852H353.688V69.9227ZM351.562 70.9852H350.5C349.373 70.9839 348.293 70.5358 347.496 69.739C346.699 68.9423 346.251 67.862 346.25 66.7352V65.6727H347.312C348.439 65.674 349.52 66.1221 350.316 66.9189C351.113 67.7156 351.561 68.7959 351.562 69.9227V70.9852ZM366.438 62.4852H365.375C364.248 62.4839 363.168 62.0358 362.371 61.239C361.574 60.4422 361.126 59.362 361.125 58.2352V57.1727H362.188C363.314 57.174 364.395 57.6221 365.191 58.4189C365.988 59.2156 366.436 60.2959 366.438 61.4227V62.4852Z" fill="#3E001A"/>
</g>
<path d="M121.307 53.734V55.2093L111.365 52.7505H103.856C102.294 52.7505 100.786 53.3188 99.6145 54.3487L98.3198 55.4825H85.0342V53.734C85.0342 53.1903 84.5945 52.7505 84.0509 52.7505H77.0618V54.7203H83.0676V77.3384H77.0618V79.3081H84.0509C84.5945 79.3081 85.0342 78.8683 85.0342 78.3246V76.5762H87.64L93.507 84.8869C94.2391 85.7037 95.2551 86.1245 96.2794 86.1245C97.0224 86.1245 97.768 85.9032 98.4154 85.4469L100.172 84.2121C100.275 84.2503 100.357 84.3268 100.467 84.3569C100.786 84.4388 101.109 84.4825 101.428 84.4825C102.073 84.4825 102.709 84.3131 103.28 83.9798L105.553 82.6685C105.968 82.8215 106.397 82.928 106.842 82.928C107.47 82.928 108.109 82.7668 108.694 82.4308L110.969 81.1167C111.384 81.2697 111.813 81.3763 112.258 81.3763C112.886 81.3763 113.528 81.2151 114.113 80.879C115.648 79.9911 116.238 78.1744 115.732 76.5734H121.31V78.3219C121.31 78.8656 121.75 79.3054 122.293 79.3054L129.319 79.3054V77.3384L123.277 77.3384V54.7175L129.316 54.7175V52.7505L122.291 52.7505C121.747 52.7505 121.307 53.1903 121.307 53.734ZM113.127 79.177C112.294 79.6578 111.217 79.371 110.737 78.5377L106.64 71.44L104.935 72.4208L109.224 79.8518L107.71 80.7233C106.875 81.2123 105.804 80.92 105.32 80.0868L102.589 75.355L101.906 74.172L100.204 75.1528L100.887 76.333L103.619 81.0648L103.624 81.0703L103.813 81.3954L102.297 82.2696C101.898 82.5046 101.428 82.5647 100.977 82.4445C100.527 82.3243 100.153 82.0374 99.9176 81.6385L97.1808 76.8985L95.4764 77.8793L98.2078 82.6111L98.2133 82.6193L98.4427 83.0155L97.2846 83.8323C96.5608 84.3432 95.5693 84.2285 95.0448 83.6575L88.9538 75.0189C88.7681 74.7567 88.4703 74.6009 88.1508 74.6009H85.0342V57.4495H96.0691L90.9177 61.9573C90.5353 62.2879 90.3058 62.7687 90.2895 63.2714C90.2703 63.7768 90.4643 64.2713 90.8248 64.6292C93.152 66.9568 96.8448 67.159 99.4123 65.1045L102.152 62.9108H106.667L113.766 76.7838C114.244 77.6225 113.957 78.6962 113.127 79.177ZM114.853 74.6064L108.142 61.4819C107.973 61.1541 107.634 60.9465 107.268 60.9465H101.805C101.581 60.9465 101.365 61.023 101.19 61.1623L98.1805 63.5719C96.3969 64.998 93.8348 64.8614 92.2096 63.4408L100.909 55.8267C101.723 55.1109 102.769 54.7203 103.856 54.7203L111.127 54.6902L121.307 57.2364V74.6064H114.853Z" fill="#3E001A"/>
<path d="M138.974 156.722V114.218H145.981V107.211H153.681V114.218H160.765V128.155H166.925V114.218H174.009V107.211H181.786V114.218H188.716V156.722H181.016V114.988H174.779V128.848H167.695V149.792H159.995V128.848H152.911V114.988H146.751V156.722H138.974ZM205.01 156.722V149.792H198.003V114.218H205.01V107.211H226.724V114.218H233.808V121.918H225.954V114.988H205.78V128.155H219.794V135.778H205.78V149.022H225.954V142.015H233.808V149.792H226.724V156.722H205.01ZM243.12 156.722V107.211H250.897V114.218H257.827V121.148H264.911V142.015H271.071V107.211H278.925V156.722H271.071V149.792H264.141V142.785H257.057V121.918H250.897V156.722H243.12ZM288.237 156.722V121.148H295.244V114.218H302.174V107.211H310.028V114.218H316.958V121.148H324.042V156.722H316.188V142.785H296.014V156.722H288.237ZM296.014 135.008H316.188V121.918H309.258V114.988H302.944V121.918H296.014V135.008Z" fill="white"/>
<defs>
<clipPath id="clip0_4808_11980">
<rect width="42" height="42" fill="white" transform="translate(82 173)"/>
</clipPath>
<clipPath id="clip1_4808_11980">
<rect width="34" height="34" fill="white" transform="translate(342 50.7977)"/>
</clipPath>
</defs>
</svg>
