<svg width="462" height="250" viewBox="0 0 462 250" fill="none" xmlns="http://www.w3.org/2000/svg">
<rect x="0.811768" y="0.749512" width="461" height="236.459" fill="#00BA61"/>
<path d="M401.667 257C401.667 257 341.691 207.385 381.859 170.294C397.906 155.476 388.315 161.576 410.73 146.633C436.453 129.484 456.384 110.099 437.653 86.1331C421.517 65.4867 387.309 81.5052 362.216 71.8488C339.374 63.0584 331.864 23.88 307.218 24.0996C276.524 24.373 266.706 78.7505 236.026 79.6728C203.136 80.6616 183.788 66.4108 152.736 43.2696C119.637 18.6034 55.8218 21.9686 55.8218 53.6337C55.8218 85.2988 107.335 81.445 104.294 111.774C99.5823 158.757 62.5794 131.268 41.217 150.495C22.2312 167.582 37.0353 205.101 61.4293 205.101C88.6126 205.101 146.476 153.119 193.526 158.757C224.629 162.484 227.268 184.73 227.268 184.73" stroke="white" stroke-width="3" stroke-dasharray="6 6"/>
<rect x="-1.5" y="1.5" width="53.2128" height="43.4244" transform="matrix(-1 0 0 1 130.345 123.772)" fill="#FFCCB6" stroke="#3E001A" stroke-width="3"/>
<path d="M95.7419 144.124C95.7419 149.301 100.116 153.593 105.631 153.593C111.146 153.593 115.52 149.301 115.52 144.124C115.52 138.947 111.146 134.655 105.631 134.655C100.116 134.655 95.7419 138.947 95.7419 144.124Z" fill="#00BA61" stroke="#3E001A" stroke-width="3"/>
<mask id="path-5-inside-1_5872_51" fill="white">
<path d="M87.1729 170.222C87.1729 165.608 89.0762 161.182 92.4642 157.919C95.8521 154.656 100.447 152.823 105.238 152.823C110.03 152.823 114.625 154.656 118.013 157.919C121.401 161.182 123.304 165.608 123.304 170.222L105.238 170.222H87.1729Z"/>
</mask>
<path d="M87.1729 170.222C87.1729 165.608 89.0762 161.182 92.4642 157.919C95.8521 154.656 100.447 152.823 105.238 152.823C110.03 152.823 114.625 154.656 118.013 157.919C121.401 161.182 123.304 165.608 123.304 170.222L105.238 170.222H87.1729Z" fill="#00BA61" stroke="#3E001A" stroke-width="6" mask="url(#path-5-inside-1_5872_51)"/>
<rect x="-1.5" y="1.5" width="53.2128" height="43.4244" transform="matrix(-1 0 0 1 183.562 167.27)" fill="#00BA61" stroke="#3E001A" stroke-width="3"/>
<rect x="-1.5" y="1.5" width="53.2128" height="43.4244" transform="matrix(-1 0 0 1 165.497 43.5566)" fill="#FFD056" stroke="#3E001A" stroke-width="3"/>
<path d="M148.959 187.621C148.959 192.798 153.333 197.09 158.849 197.09C164.364 197.09 168.738 192.798 168.738 187.621C168.738 182.444 164.364 178.152 158.849 178.152C153.333 178.152 148.959 182.444 148.959 187.621Z" fill="#B882FF" stroke="#3E001A" stroke-width="3"/>
<mask id="path-9-inside-2_5872_51" fill="white">
<path d="M140.39 213.72C140.39 209.106 142.294 204.68 145.682 201.417C149.07 198.154 153.665 196.321 158.456 196.321C163.247 196.321 167.842 198.154 171.23 201.417C174.618 204.68 176.522 209.106 176.522 213.72L158.456 213.72H140.39Z"/>
</mask>
<path d="M140.39 213.72C140.39 209.106 142.294 204.68 145.682 201.417C149.07 198.154 153.665 196.321 158.456 196.321C163.247 196.321 167.842 198.154 171.23 201.417C174.618 204.68 176.522 209.106 176.522 213.72L158.456 213.72H140.39Z" fill="#B882FF" stroke="#3E001A" stroke-width="6" mask="url(#path-9-inside-2_5872_51)"/>
<path d="M130.894 63.9075C130.894 69.0844 135.268 73.3765 140.783 73.3765C146.299 73.3765 150.673 69.0844 150.673 63.9075C150.673 58.7305 146.299 54.4385 140.783 54.4385C135.268 54.4385 130.894 58.7305 130.894 63.9075Z" fill="#FF813A" stroke="#3E001A" stroke-width="3"/>
<mask id="path-11-inside-3_5872_51" fill="white">
<path d="M122.325 90.0065C122.325 85.392 124.229 80.9665 127.617 77.7035C131.005 74.4405 135.6 72.6074 140.391 72.6074C145.182 72.6074 149.777 74.4405 153.165 77.7035C156.553 80.9665 158.457 85.392 158.457 90.0065L140.391 90.0065H122.325Z"/>
</mask>
<path d="M122.325 90.0065C122.325 85.392 124.229 80.9665 127.617 77.7035C131.005 74.4405 135.6 72.6074 140.391 72.6074C145.182 72.6074 149.777 74.4405 153.165 77.7035C156.553 80.9665 158.457 85.392 158.457 90.0065L140.391 90.0065H122.325Z" fill="#FF813A" stroke="#3E001A" stroke-width="6" mask="url(#path-11-inside-3_5872_51)"/>
<rect x="-1.5" y="1.5" width="53.2128" height="43.4244" transform="matrix(-1 0 0 1 348.863 141.688)" fill="#FFCCB6" stroke="#3E001A" stroke-width="3"/>
<path d="M314.26 162.039C314.26 167.216 318.634 171.508 324.149 171.508C329.664 171.508 334.038 167.216 334.038 162.039C334.038 156.862 329.664 152.57 324.149 152.57C318.634 152.57 314.26 156.862 314.26 162.039Z" fill="#B882FF" stroke="#3E001A" stroke-width="3"/>
<mask id="path-14-inside-4_5872_51" fill="white">
<path d="M305.691 188.138C305.691 183.524 307.594 179.098 310.982 175.835C314.37 172.572 318.965 170.739 323.757 170.739C328.548 170.739 333.143 172.572 336.531 175.835C339.919 179.098 341.822 183.524 341.822 188.138L323.757 188.138H305.691Z"/>
</mask>
<path d="M305.691 188.138C305.691 183.524 307.594 179.098 310.982 175.835C314.37 172.572 318.965 170.739 323.757 170.739C328.548 170.739 333.143 172.572 336.531 175.835C339.919 179.098 341.822 183.524 341.822 188.138L323.757 188.138H305.691Z" fill="#B882FF" stroke="#3E001A" stroke-width="6" mask="url(#path-14-inside-4_5872_51)"/>
<rect x="-1.5" y="1.5" width="53.2128" height="43.4244" transform="matrix(-1 0 0 1 348.47 55.1299)" fill="#00BA61" stroke="#3E001A" stroke-width="3"/>
<rect x="-1.5" y="1.5" width="53.2128" height="43.4244" transform="matrix(-1 0 0 1 401.809 98.563)" fill="#B882FF" stroke="#3E001A" stroke-width="3"/>
<path d="M313.868 75.4807C313.868 80.6576 318.241 84.9497 323.757 84.9497C329.272 84.9497 333.646 80.6576 333.646 75.4807C333.646 70.3038 329.272 66.0117 323.757 66.0117C318.241 66.0117 313.868 70.3038 313.868 75.4807Z" fill="#FFD056" stroke="#3E001A" stroke-width="3"/>
<mask id="path-18-inside-5_5872_51" fill="white">
<path d="M305.299 101.58C305.299 96.9652 307.202 92.5397 310.59 89.2767C313.978 86.0138 318.573 84.1807 323.364 84.1807C328.156 84.1807 332.751 86.0138 336.139 89.2767C339.526 92.5397 341.43 96.9652 341.43 101.58L323.364 101.58H305.299Z"/>
</mask>
<path d="M305.299 101.58C305.299 96.9652 307.202 92.5397 310.59 89.2767C313.978 86.0138 318.573 84.1807 323.364 84.1807C328.156 84.1807 332.751 86.0138 336.139 89.2767C339.526 92.5397 341.43 96.9652 341.43 101.58L323.364 101.58H305.299Z" fill="#FFD056" stroke="#3E001A" stroke-width="6" mask="url(#path-18-inside-5_5872_51)"/>
<path d="M367.206 118.914C367.206 124.091 371.58 128.383 377.096 128.383C382.611 128.383 386.985 124.091 386.985 118.914C386.985 113.737 382.611 109.445 377.096 109.445C371.58 109.445 367.206 113.737 367.206 118.914Z" fill="#00BA61" stroke="#3E001A" stroke-width="3"/>
<mask id="path-20-inside-6_5872_51" fill="white">
<path d="M358.637 145.013C358.637 140.398 360.54 135.973 363.928 132.71C367.316 129.447 371.911 127.614 376.703 127.614C381.494 127.614 386.089 129.447 389.477 132.71C392.865 135.973 394.768 140.398 394.768 145.013L376.703 145.013H358.637Z"/>
</mask>
<path d="M358.637 145.013C358.637 140.398 360.54 135.973 363.928 132.71C367.316 129.447 371.911 127.614 376.703 127.614C381.494 127.614 386.089 129.447 389.477 132.71C392.865 135.973 394.768 140.398 394.768 145.013L376.703 145.013H358.637Z" fill="#00BA61" stroke="#3E001A" stroke-width="6" mask="url(#path-20-inside-6_5872_51)"/>
</svg>
