<svg width="462" height="250" viewBox="0 0 462 250" fill="none" xmlns="http://www.w3.org/2000/svg">
<rect x="0.811768" y="0.430664" width="461" height="249" fill="#00BA61"/>
<rect x="0.811768" y="169.85" width="461" height="79.5806" fill="#00763D"/>
<line x1="0.811768" y1="170.956" x2="461.812" y2="170.956" stroke="white" stroke-width="5" stroke-dasharray="10 10"/>
<rect x="16.2937" y="213.625" width="73.8689" height="9.45361" fill="white"/>
<rect x="147.933" y="213.625" width="73.8689" height="9.45361" fill="white"/>
<rect x="279.572" y="213.625" width="73.8689" height="9.45361" fill="white"/>
<rect x="411.21" y="213.625" width="50.6016" height="9.45361" fill="white"/>
<path d="M235.798 87.5332C235.798 71.7931 248.557 59.0332 264.298 59.0332H339.093C354.833 59.0332 367.593 71.7931 367.593 87.5332V190.829H235.798V87.5332Z" fill="#3E001A" stroke="#3E001A" stroke-width="3"/>
<path d="M246.785 87.5332C246.785 71.7931 259.545 59.0332 275.285 59.0332H339.093C354.833 59.0332 367.593 71.7931 367.593 87.5332V190.829H246.785V87.5332Z" fill="white" stroke="#3E001A" stroke-width="3"/>
<path d="M235.798 87.5332C235.798 71.7931 248.557 59.0332 264.298 59.0332H339.093C354.833 59.0332 367.593 71.7931 367.593 87.5332V117.833H235.798V87.5332Z" fill="#3E001A" stroke="#3E001A" stroke-width="3"/>
<path d="M246.785 87.5332C246.785 71.7931 259.545 59.0332 275.285 59.0332H339.093C354.833 59.0332 367.593 71.7931 367.593 87.5332V117.833H246.785V87.5332Z" fill="#FF813A" stroke="#3E001A" stroke-width="3"/>
<path d="M272.286 105.54V81.5576H268.746V85.5399H264.277V81.1151H268.304V77.0886H272.729V81.1151H276.799V105.54H272.286ZM286.193 105.54V101.557H282.167V81.1151H286.193V77.0886H298.671V81.1151H302.742V101.557H298.671V105.54H286.193ZM286.636 101.115H298.228V81.5576H286.636V101.115ZM312.119 105.54V101.557H308.093V81.1151H312.119V77.0886H324.597V81.1151H328.668V101.557H324.597V105.54H312.119ZM312.562 101.115H324.155V81.5576H312.562V101.115ZM342.338 101.159V93.6372H334.329V89.2124H342.338V80.7169H346.851V89.2124H354.904V93.6372H346.851V101.159H342.338Z" fill="white"/>
<path d="M272.183 143.307H274.168C275.685 143.307 276.347 142.726 276.347 141.629C276.347 140.531 275.685 139.918 274.168 139.918H272.183V143.307ZM272.183 144.954V148.456H270.181V138.288H274.233C276.831 138.288 278.316 139.498 278.316 141.613C278.316 143.727 276.831 144.954 274.233 144.954H272.183ZM288.052 148.456H285.986C285.777 148.182 285.647 147.488 285.567 146.358C285.486 145.212 284.97 144.695 283.807 144.695H281.419V148.456H279.433V138.288H284.033C286.632 138.288 287.907 139.498 287.907 141.387C287.907 142.92 286.906 143.808 285.664 143.969C286.826 144.195 287.423 144.873 287.536 146.067C287.665 147.568 287.713 148.085 288.052 148.456ZM281.419 143.114H283.759C285.228 143.114 285.906 142.63 285.906 141.532C285.906 140.515 285.228 139.918 283.759 139.918H281.419V143.114ZM299.177 143.372C299.177 146.503 296.982 148.65 294.029 148.65C291.059 148.65 288.864 146.503 288.864 143.372C288.864 140.241 291.059 138.094 294.029 138.094C296.982 138.094 299.177 140.241 299.177 143.372ZM297.095 143.372C297.095 141.241 295.901 139.87 294.029 139.87C292.156 139.87 290.962 141.241 290.962 143.372C290.962 145.502 292.156 146.874 294.029 146.874C295.901 146.874 297.095 145.502 297.095 143.372ZM305.478 138.288H307.496V144.889C307.496 147.455 305.946 148.65 303.671 148.65C301.314 148.65 299.829 147.278 299.765 144.712L301.702 144.631C301.798 146.1 302.428 146.955 303.671 146.955C304.897 146.955 305.478 146.245 305.478 144.76V138.288ZM316.731 146.777V148.456H309.129V138.288H316.585V139.966H311.114V142.436H315.407V144.098H311.114V146.777H316.731ZM317.329 143.372C317.329 140.241 319.541 138.094 322.43 138.094C325.432 138.094 327.094 139.983 327.272 142.549L325.335 142.63C325.19 141.112 324.286 139.87 322.43 139.87C320.622 139.87 319.428 141.225 319.428 143.372C319.428 145.519 320.622 146.874 322.43 146.874C324.286 146.874 325.19 145.632 325.335 144.114L327.272 144.195C327.094 146.777 325.432 148.65 322.43 148.65C319.541 148.65 317.329 146.503 317.329 143.372ZM333.08 148.456H331.062V139.966H327.463V138.288H336.727V139.966H333.08V148.456ZM337.03 144.841L338.886 144.76C338.967 146.342 340.112 147.052 341.533 147.052C342.792 147.052 343.599 146.552 343.599 145.696C343.599 144.921 342.985 144.631 341.92 144.421L339.983 144.066C338.402 143.775 337.304 142.904 337.304 141.225C337.304 139.321 338.805 138.094 341.178 138.094C343.841 138.094 345.342 139.466 345.374 141.726L343.518 141.79C343.453 140.402 342.55 139.676 341.162 139.676C339.967 139.676 339.289 140.209 339.289 141.08C339.289 141.823 339.822 142.081 340.742 142.258L342.614 142.597C344.616 142.968 345.552 143.921 345.552 145.567C345.552 147.568 343.825 148.65 341.533 148.65C338.918 148.65 337.03 147.294 337.03 144.841ZM270.173 164.842H271.868C274.015 164.842 275.225 163.551 275.225 161.356C275.225 159.193 274.015 157.902 271.868 157.902H270.173V164.842ZM268.156 166.456V156.288H271.997C275.274 156.288 277.307 158.192 277.307 161.372C277.307 164.552 275.274 166.456 271.997 166.456H268.156ZM286.239 164.777V166.456H278.638V156.288H286.094V157.966H280.623V160.436H284.916V162.098H280.623V164.777H286.239ZM287.653 156.288H289.671V164.777H295.045V166.456H287.653V156.288ZM296.338 156.288H298.355V166.456H296.338V156.288ZM305.527 166.456H303.38L299.361 156.288H301.476L304.478 164.003H304.542L307.512 156.288H309.53L305.527 166.456ZM318.125 164.777V166.456H310.523V156.288H317.98V157.966H312.509V160.436H316.802V162.098H312.509V164.777H318.125ZM328.158 166.456H326.092C325.882 166.182 325.753 165.488 325.672 164.358C325.592 163.212 325.075 162.695 323.913 162.695H321.524V166.456H319.539V156.288H324.139C326.738 156.288 328.013 157.498 328.013 159.387C328.013 160.92 327.012 161.808 325.769 161.969C326.931 162.195 327.528 162.873 327.641 164.067C327.771 165.568 327.819 166.085 328.158 166.456ZM321.524 161.114H323.865C325.333 161.114 326.011 160.63 326.011 159.532C326.011 158.515 325.333 157.918 323.865 157.918H321.524V161.114ZM337.103 164.777V166.456H329.501V156.288H336.957V157.966H331.486V160.436H335.779V162.098H331.486V164.777H337.103ZM340.534 164.842H342.229C344.375 164.842 345.586 163.551 345.586 161.356C345.586 159.193 344.375 157.902 342.229 157.902H340.534V164.842ZM338.516 166.456V156.288H342.358C345.634 156.288 347.668 158.192 347.668 161.372C347.668 164.552 345.634 166.456 342.358 166.456H338.516Z" fill="#3E001A"/>
</svg>
